  0
SECTION
  2
HEADER
  9
$ANGBASE
  50
0.0
  9
$ANGDIR
  70
1
  9
$MEASUREMENT
  70
1
  0
ENDSEC
  0
SECTION
  2
TABLES
  0
TABLE
  2
LTYPE
  70
4
  0
LTYPE
  5
40F
  2
CONTINUOUS
  70
0
  3
Solid line
  72
65
  73
0
  40
0.0
  0
LTYPE
  5
410
  2
DASHDOT
 70
0
  3
Dash Dot ____ _ ____ _
 72
65
 73
4
 40
2.0
 49
1.25
 49
-0.25
 49
0.25
 49
-0.25
  0
LTYPE
  5
411
  2
DASHED
 70
0
  3
Dashed __ __ __ __ __
 72
65
 73
2
 40
0.75
 49
0.5
 49
-0.25
  0
LTYPE
  5
43B
  2
DOTTED
 70
0
  3
Dotted .  .  .  .
 72
65
 73
2
 40
0.2
 49
0.0
 49
-0.2
  0
ENDTAB
  0
TABLE
  2
STYLE
  70
4
  0
STYLE
  2
KICAD
  70
0
  40
0
  41
1
  42
1
  50
0
  71
0
  3
isocp.shx
  0
STYLE
  2
KICADB
  70
0
  40
0
  41
1
  42
1
  50
0
  71
0
  3
isocp.shx
  0
STYLE
  2
KICADI
  70
0
  40
0
  41
1
  42
1
  50
15
  71
0
  3
isocp.shx
  0
STYLE
  2
KICADBI
  70
0
  40
0
  41
1
  42
1
  50
15
  71
0
  3
isocp.shx
  0
ENDTAB
  0
TABLE
  2
LAYER
  70
1
  0
LAYER
  2
BLACK
  70
0
  62
7
  6
CONTINUOUS
  0
ENDTAB
  0
ENDSEC
  0
SECTION
  2
ENTITIES
0
LINE
8
BLACK
6
CONTINUOUS
10
70.6837
20
-99.7047
11
70.6781
21
-99.7035
0
LINE
8
BLACK
6
CONTINUOUS
10
70.6781
20
-99.7035
11
70.6724
21
-99.7023
0
LINE
8
BLACK
6
CONTINUOUS
10
70.6724
20
-99.7023
11
69.9997
21
-99.4993
0
LINE
8
BLACK
6
CONTINUOUS
10
69.9997
20
-99.4993
11
69.9989
21
-99.499
0
LINE
8
BLACK
6
CONTINUOUS
10
69.9989
20
-99.499
11
69.9936
21
-99.4967
0
LINE
8
BLACK
6
CONTINUOUS
10
69.9936
20
-99.4967
11
69.9883
21
-99.4945
0
LINE
8
BLACK
6
CONTINUOUS
10
69.9883
20
-99.4945
11
69.3679
21
-99.1647
0
LINE
8
BLACK
6
CONTINUOUS
10
69.3679
20
-99.1647
11
69.3679
21
-99.1647
0
LINE
8
BLACK
6
CONTINUOUS
10
69.3679
20
-99.1647
11
69.3679
21
-99.1647
0
LINE
8
BLACK
6
CONTINUOUS
10
69.3679
20
-99.1647
11
69.3671
21
-99.1643
0
LINE
8
BLACK
6
CONTINUOUS
10
69.3671
20
-99.1643
11
69.3624
21
-99.161
0
LINE
8
BLACK
6
CONTINUOUS
10
69.3624
20
-99.161
11
69.3576
21
-99.1578
0
LINE
8
BLACK
6
CONTINUOUS
10
69.3576
20
-99.1578
11
68.8131
21
-98.7137
0
LINE
8
BLACK
6
CONTINUOUS
10
68.8131
20
-98.7137
11
68.8124
21
-98.7132
0
LINE
8
BLACK
6
CONTINUOUS
10
68.8124
20
-98.7132
11
68.8084
21
-98.7091
0
LINE
8
BLACK
6
CONTINUOUS
10
68.8084
20
-98.7091
11
68.8043
21
-98.705
0
LINE
8
BLACK
6
CONTINUOUS
10
68.8043
20
-98.705
11
68.3564
21
-98.1636
0
LINE
8
BLACK
6
CONTINUOUS
10
68.3564
20
-98.1636
11
68.3564
21
-98.1636
0
LINE
8
BLACK
6
CONTINUOUS
10
68.3564
20
-98.1636
11
68.3564
21
-98.1636
0
LINE
8
BLACK
6
CONTINUOUS
10
68.3564
20
-98.1636
11
68.3559
21
-98.1629
0
LINE
8
BLACK
6
CONTINUOUS
10
68.3559
20
-98.1629
11
68.3528
21
-98.1582
0
LINE
8
BLACK
6
CONTINUOUS
10
68.3528
20
-98.1582
11
68.3495
21
-98.1534
0
LINE
8
BLACK
6
CONTINUOUS
10
68.3495
20
-98.1534
11
68.0153
21
-97.5353
0
LINE
8
BLACK
6
CONTINUOUS
10
68.0153
20
-97.5353
11
68.0149
21
-97.5345
0
LINE
8
BLACK
6
CONTINUOUS
10
68.0149
20
-97.5345
11
68.0128
21
-97.5292
0
LINE
8
BLACK
6
CONTINUOUS
10
68.0128
20
-97.5292
11
68.0105
21
-97.5239
0
LINE
8
BLACK
6
CONTINUOUS
10
68.0105
20
-97.5239
11
67.8028
21
-96.8527
0
LINE
8
BLACK
6
CONTINUOUS
10
67.8028
20
-96.8527
11
67.8028
21
-96.8527
0
LINE
8
BLACK
6
CONTINUOUS
10
67.8028
20
-96.8527
11
67.8028
21
-96.8527
0
LINE
8
BLACK
6
CONTINUOUS
10
67.8028
20
-96.8527
11
67.8025
21
-96.8518
0
LINE
8
BLACK
6
CONTINUOUS
10
67.8025
20
-96.8518
11
67.8014
21
-96.8462
0
LINE
8
BLACK
6
CONTINUOUS
10
67.8014
20
-96.8462
11
67.8003
21
-96.8405
0
LINE
8
BLACK
6
CONTINUOUS
10
67.8003
20
-96.8405
11
67.7254
21
-96.1282
0
LINE
8
BLACK
6
CONTINUOUS
10
67.7254
20
-96.1282
11
67.7253
21
-96.1273
0
LINE
8
BLACK
6
CONTINUOUS
10
67.7253
20
-96.1273
11
67.7253
21
-96.1245
0
LINE
8
BLACK
6
CONTINUOUS
10
67.7253
20
-96.1245
11
67.725
21
-96.1218
0
LINE
8
BLACK
6
CONTINUOUS
10
67.725
20
-96.1218
11
67.725
21
-96.1098
0
LINE
8
BLACK
6
CONTINUOUS
10
67.725
20
-96.1098
11
67.725
21
-96.1096
0
LINE
8
BLACK
6
CONTINUOUS
10
67.725
20
-96.1096
11
67.725
21
-96.1096
0
LINE
8
BLACK
6
CONTINUOUS
10
67.725
20
-96.1096
11
67.725
21
-52.7741
0
LINE
8
BLACK
6
CONTINUOUS
10
67.725
20
-52.7741
11
67.725
21
-52.7732
0
LINE
8
BLACK
6
CONTINUOUS
10
67.725
20
-52.7732
11
67.7253
21
-52.7706
0
LINE
8
BLACK
6
CONTINUOUS
10
67.7253
20
-52.7706
11
67.7253
21
-52.7679
0
LINE
8
BLACK
6
CONTINUOUS
10
67.7253
20
-52.7679
11
67.7651
21
-52.3621
0
LINE
8
BLACK
6
CONTINUOUS
10
67.7651
20
-52.3621
11
67.7651
21
-52.3621
0
LINE
8
BLACK
6
CONTINUOUS
10
67.7651
20
-52.3621
11
67.7952
21
-52.0545
0
LINE
8
BLACK
6
CONTINUOUS
10
67.7952
20
-52.0545
11
67.7953
21
-52.0537
0
LINE
8
BLACK
6
CONTINUOUS
10
67.7953
20
-52.0537
11
67.7965
21
-52.0481
0
LINE
8
BLACK
6
CONTINUOUS
10
67.7965
20
-52.0481
11
67.7977
21
-52.0424
0
LINE
8
BLACK
6
CONTINUOUS
10
67.7977
20
-52.0424
11
68.0007
21
-51.3697
0
LINE
8
BLACK
6
CONTINUOUS
10
68.0007
20
-51.3697
11
68.001
21
-51.3689
0
LINE
8
BLACK
6
CONTINUOUS
10
68.001
20
-51.3689
11
68.0033
21
-51.3636
0
LINE
8
BLACK
6
CONTINUOUS
10
68.0033
20
-51.3636
11
68.0055
21
-51.3583
0
LINE
8
BLACK
6
CONTINUOUS
10
68.0055
20
-51.3583
11
68.3353
21
-50.7379
0
LINE
8
BLACK
6
CONTINUOUS
10
68.3353
20
-50.7379
11
68.3353
21
-50.7379
0
LINE
8
BLACK
6
CONTINUOUS
10
68.3353
20
-50.7379
11
68.3353
21
-50.7379
0
LINE
8
BLACK
6
CONTINUOUS
10
68.3353
20
-50.7379
11
68.3357
21
-50.7371
0
LINE
8
BLACK
6
CONTINUOUS
10
68.3357
20
-50.7371
11
68.339
21
-50.7324
0
LINE
8
BLACK
6
CONTINUOUS
10
68.339
20
-50.7324
11
68.3422
21
-50.7276
0
LINE
8
BLACK
6
CONTINUOUS
10
68.3422
20
-50.7276
11
68.7863
21
-50.1831
0
LINE
8
BLACK
6
CONTINUOUS
10
68.7863
20
-50.1831
11
68.7868
21
-50.1824
0
LINE
8
BLACK
6
CONTINUOUS
10
68.7868
20
-50.1824
11
68.7909
21
-50.1784
0
LINE
8
BLACK
6
CONTINUOUS
10
68.7909
20
-50.1784
11
68.795
21
-50.1743
0
LINE
8
BLACK
6
CONTINUOUS
10
68.795
20
-50.1743
11
69.3364
21
-49.7264
0
LINE
8
BLACK
6
CONTINUOUS
10
69.3364
20
-49.7264
11
69.3364
21
-49.7264
0
LINE
8
BLACK
6
CONTINUOUS
10
69.3364
20
-49.7264
11
69.3364
21
-49.7264
0
LINE
8
BLACK
6
CONTINUOUS
10
69.3364
20
-49.7264
11
69.3371
21
-49.7259
0
LINE
8
BLACK
6
CONTINUOUS
10
69.3371
20
-49.7259
11
69.3418
21
-49.7228
0
LINE
8
BLACK
6
CONTINUOUS
10
69.3418
20
-49.7228
11
69.3466
21
-49.7195
0
LINE
8
BLACK
6
CONTINUOUS
10
69.3466
20
-49.7195
11
69.9647
21
-49.3853
0
LINE
8
BLACK
6
CONTINUOUS
10
69.9647
20
-49.3853
11
69.9655
21
-49.3849
0
LINE
8
BLACK
6
CONTINUOUS
10
69.9655
20
-49.3849
11
69.9708
21
-49.3828
0
LINE
8
BLACK
6
CONTINUOUS
10
69.9708
20
-49.3828
11
69.9761
21
-49.3805
0
LINE
8
BLACK
6
CONTINUOUS
10
69.9761
20
-49.3805
11
70.6473
21
-49.1728
0
LINE
8
BLACK
6
CONTINUOUS
10
70.6473
20
-49.1728
11
70.6473
21
-49.1728
0
LINE
8
BLACK
6
CONTINUOUS
10
70.6473
20
-49.1728
11
70.6473
21
-49.1728
0
LINE
8
BLACK
6
CONTINUOUS
10
70.6473
20
-49.1728
11
70.6482
21
-49.1725
0
LINE
8
BLACK
6
CONTINUOUS
10
70.6482
20
-49.1725
11
70.6538
21
-49.1714
0
LINE
8
BLACK
6
CONTINUOUS
10
70.6538
20
-49.1714
11
70.6595
21
-49.1703
0
LINE
8
BLACK
6
CONTINUOUS
10
70.6595
20
-49.1703
11
71.3718
21
-49.0954
0
LINE
8
BLACK
6
CONTINUOUS
10
71.3718
20
-49.0954
11
71.3727
21
-49.0953
0
LINE
8
BLACK
6
CONTINUOUS
10
71.3727
20
-49.0953
11
71.3755
21
-49.0953
0
LINE
8
BLACK
6
CONTINUOUS
10
71.3755
20
-49.0953
11
71.3782
21
-49.095
0
LINE
8
BLACK
6
CONTINUOUS
10
71.3782
20
-49.095
11
71.3902
21
-49.095
0
LINE
8
BLACK
6
CONTINUOUS
10
71.3902
20
-49.095
11
71.3904
21
-49.095
0
LINE
8
BLACK
6
CONTINUOUS
10
71.3904
20
-49.095
11
71.3904
21
-49.095
0
LINE
8
BLACK
6
CONTINUOUS
10
71.3904
20
-49.095
11
104.292
21
-49.095
0
LINE
8
BLACK
6
CONTINUOUS
10
104.292
20
-49.095
11
104.293
21
-49.095
0
LINE
8
BLACK
6
CONTINUOUS
10
104.293
20
-49.095
11
104.296
21
-49.0953
0
LINE
8
BLACK
6
CONTINUOUS
10
104.296
20
-49.0953
11
104.299
21
-49.0954
0
LINE
8
BLACK
6
CONTINUOUS
10
104.299
20
-49.0954
11
104.302
21
-49.096
0
LINE
8
BLACK
6
CONTINUOUS
10
104.302
20
-49.096
11
104.305
21
-49.0964
0
LINE
8
BLACK
6
CONTINUOUS
10
104.305
20
-49.0964
11
104.308
21
-49.0973
0
LINE
8
BLACK
6
CONTINUOUS
10
104.308
20
-49.0973
11
104.311
21
-49.0979
0
LINE
8
BLACK
6
CONTINUOUS
10
104.311
20
-49.0979
11
104.314
21
-49.0992
0
LINE
8
BLACK
6
CONTINUOUS
10
104.314
20
-49.0992
11
104.317
21
-49.1001
0
LINE
8
BLACK
6
CONTINUOUS
10
104.317
20
-49.1001
11
104.319
21
-49.1016
0
LINE
8
BLACK
6
CONTINUOUS
10
104.319
20
-49.1016
11
104.322
21
-49.1028
0
LINE
8
BLACK
6
CONTINUOUS
10
104.322
20
-49.1028
11
104.325
21
-49.1046
0
LINE
8
BLACK
6
CONTINUOUS
10
104.325
20
-49.1046
11
104.328
21
-49.1061
0
LINE
8
BLACK
6
CONTINUOUS
10
104.328
20
-49.1061
11
104.33
21
-49.1081
0
LINE
8
BLACK
6
CONTINUOUS
10
104.33
20
-49.1081
11
104.332
21
-49.1098
0
LINE
8
BLACK
6
CONTINUOUS
10
104.332
20
-49.1098
11
104.335
21
-49.112
0
LINE
8
BLACK
6
CONTINUOUS
10
104.335
20
-49.112
11
104.337
21
-49.1141
0
LINE
8
BLACK
6
CONTINUOUS
10
104.337
20
-49.1141
11
104.339
21
-49.1165
0
LINE
8
BLACK
6
CONTINUOUS
10
104.339
20
-49.1165
11
104.341
21
-49.1186
0
LINE
8
BLACK
6
CONTINUOUS
10
104.341
20
-49.1186
11
104.343
21
-49.1213
0
LINE
8
BLACK
6
CONTINUOUS
10
104.343
20
-49.1213
11
104.345
21
-49.1237
0
LINE
8
BLACK
6
CONTINUOUS
10
104.345
20
-49.1237
11
104.346
21
-49.1264
0
LINE
8
BLACK
6
CONTINUOUS
10
104.346
20
-49.1264
11
104.348
21
-49.129
0
LINE
8
BLACK
6
CONTINUOUS
10
104.348
20
-49.129
11
104.349
21
-49.1319
0
LINE
8
BLACK
6
CONTINUOUS
10
104.349
20
-49.1319
11
104.351
21
-49.1347
0
LINE
8
BLACK
6
CONTINUOUS
10
104.351
20
-49.1347
11
104.351
21
-49.1377
0
LINE
8
BLACK
6
CONTINUOUS
10
104.351
20
-49.1377
11
104.353
21
-49.1405
0
LINE
8
BLACK
6
CONTINUOUS
10
104.353
20
-49.1405
11
104.353
21
-49.1436
0
LINE
8
BLACK
6
CONTINUOUS
10
104.353
20
-49.1436
11
104.354
21
-49.1466
0
LINE
8
BLACK
6
CONTINUOUS
10
104.354
20
-49.1466
11
104.354
21
-49.1496
0
LINE
8
BLACK
6
CONTINUOUS
10
104.354
20
-49.1496
11
104.355
21
-49.1527
0
LINE
8
BLACK
6
CONTINUOUS
10
104.355
20
-49.1527
11
104.355
21
-49.1558
0
LINE
8
BLACK
6
CONTINUOUS
10
104.355
20
-49.1558
11
104.355
21
-49.1589
0
LINE
8
BLACK
6
CONTINUOUS
10
104.355
20
-49.1589
11
104.355
21
-49.162
0
LINE
8
BLACK
6
CONTINUOUS
10
104.355
20
-49.162
11
104.355
21
-49.1651
0
LINE
8
BLACK
6
CONTINUOUS
10
104.355
20
-49.1651
11
104.354
21
-49.1681
0
LINE
8
BLACK
6
CONTINUOUS
10
104.354
20
-49.1681
11
104.354
21
-49.1713
0
LINE
8
BLACK
6
CONTINUOUS
10
104.354
20
-49.1713
11
104.353
21
-49.1742
0
LINE
8
BLACK
6
CONTINUOUS
10
104.353
20
-49.1742
11
104.352
21
-49.1772
0
LINE
8
BLACK
6
CONTINUOUS
10
104.352
20
-49.1772
11
104.351
21
-49.1801
0
LINE
8
BLACK
6
CONTINUOUS
10
104.351
20
-49.1801
11
104.35
21
-49.1831
0
LINE
8
BLACK
6
CONTINUOUS
10
104.35
20
-49.1831
11
104.349
21
-49.1858
0
LINE
8
BLACK
6
CONTINUOUS
10
104.349
20
-49.1858
11
104.348
21
-49.1886
0
LINE
8
BLACK
6
CONTINUOUS
10
104.348
20
-49.1886
11
104.346
21
-49.1912
0
LINE
8
BLACK
6
CONTINUOUS
10
104.346
20
-49.1912
11
104.344
21
-49.194
0
LINE
8
BLACK
6
CONTINUOUS
10
104.344
20
-49.194
11
104.342
21
-49.1964
0
LINE
8
BLACK
6
CONTINUOUS
10
104.342
20
-49.1964
11
104.341
21
-49.1989
0
LINE
8
BLACK
6
CONTINUOUS
10
104.341
20
-49.1989
11
104.338
21
-49.2011
0
LINE
8
BLACK
6
CONTINUOUS
10
104.338
20
-49.2011
11
104.336
21
-49.2036
0
LINE
8
BLACK
6
CONTINUOUS
10
104.336
20
-49.2036
11
104.334
21
-49.2055
0
LINE
8
BLACK
6
CONTINUOUS
10
104.334
20
-49.2055
11
104.332
21
-49.2077
0
LINE
8
BLACK
6
CONTINUOUS
10
104.332
20
-49.2077
11
104.329
21
-49.2094
0
LINE
8
BLACK
6
CONTINUOUS
10
104.329
20
-49.2094
11
104.327
21
-49.2114
0
LINE
8
BLACK
6
CONTINUOUS
10
104.327
20
-49.2114
11
104.324
21
-49.2128
0
LINE
8
BLACK
6
CONTINUOUS
10
104.324
20
-49.2128
11
104.322
21
-49.2145
0
LINE
8
BLACK
6
CONTINUOUS
10
104.322
20
-49.2145
11
104.319
21
-49.2157
0
LINE
8
BLACK
6
CONTINUOUS
10
104.319
20
-49.2157
11
104.316
21
-49.2172
0
LINE
8
BLACK
6
CONTINUOUS
10
104.316
20
-49.2172
11
104.313
21
-49.2181
0
LINE
8
BLACK
6
CONTINUOUS
10
104.313
20
-49.2181
11
104.31
21
-49.2193
0
LINE
8
BLACK
6
CONTINUOUS
10
104.31
20
-49.2193
11
104.231
21
-49.2433
0
LINE
8
BLACK
6
CONTINUOUS
10
104.231
20
-49.2433
11
103.883
21
-49.429
0
LINE
8
BLACK
6
CONTINUOUS
10
103.883
20
-49.429
11
103.579
21
-49.6789
0
LINE
8
BLACK
6
CONTINUOUS
10
103.579
20
-49.6789
11
103.329
21
-49.9835
0
LINE
8
BLACK
6
CONTINUOUS
10
103.329
20
-49.9835
11
103.143
21
-50.3309
0
LINE
8
BLACK
6
CONTINUOUS
10
103.143
20
-50.3309
11
103.029
21
-50.7079
0
LINE
8
BLACK
6
CONTINUOUS
10
103.029
20
-50.7079
11
102.99
21
-51.1031
0
LINE
8
BLACK
6
CONTINUOUS
10
102.99
20
-51.1031
11
102.99
21
-58.8969
0
LINE
8
BLACK
6
CONTINUOUS
10
102.99
20
-58.8969
11
103.029
21
-59.2921
0
LINE
8
BLACK
6
CONTINUOUS
10
103.029
20
-59.2921
11
103.143
21
-59.6691
0
LINE
8
BLACK
6
CONTINUOUS
10
103.143
20
-59.6691
11
103.329
21
-60.0165
0
LINE
8
BLACK
6
CONTINUOUS
10
103.329
20
-60.0165
11
103.579
21
-60.3211
0
LINE
8
BLACK
6
CONTINUOUS
10
103.579
20
-60.3211
11
103.883
21
-60.571
0
LINE
8
BLACK
6
CONTINUOUS
10
103.883
20
-60.571
11
104.231
21
-60.7567
0
LINE
8
BLACK
6
CONTINUOUS
10
104.231
20
-60.7567
11
104.608
21
-60.8711
0
LINE
8
BLACK
6
CONTINUOUS
10
104.608
20
-60.8711
11
105.003
21
-60.91
0
LINE
8
BLACK
6
CONTINUOUS
10
105.003
20
-60.91
11
105.076
21
-60.91
0
LINE
8
BLACK
6
CONTINUOUS
10
105.076
20
-60.91
11
105.077
21
-60.91
0
LINE
8
BLACK
6
CONTINUOUS
10
105.077
20
-60.91
11
105.077
21
-60.91
0
LINE
8
BLACK
6
CONTINUOUS
10
105.077
20
-60.91
11
105.077
21
-60.91
0
LINE
8
BLACK
6
CONTINUOUS
10
105.077
20
-60.91
11
105.077
21
-60.91
0
LINE
8
BLACK
6
CONTINUOUS
10
105.077
20
-60.91
11
105.083
21
-60.9107
0
LINE
8
BLACK
6
CONTINUOUS
10
105.083
20
-60.9107
11
105.089
21
-60.9113
0
LINE
8
BLACK
6
CONTINUOUS
10
105.089
20
-60.9113
11
105.089
21
-60.9113
0
LINE
8
BLACK
6
CONTINUOUS
10
105.089
20
-60.9113
11
105.09
21
-60.9114
0
LINE
8
BLACK
6
CONTINUOUS
10
105.09
20
-60.9114
11
105.095
21
-60.9132
0
LINE
8
BLACK
6
CONTINUOUS
10
105.095
20
-60.9132
11
105.101
21
-60.9149
0
LINE
8
BLACK
6
CONTINUOUS
10
105.101
20
-60.9149
11
105.101
21
-60.9151
0
LINE
8
BLACK
6
CONTINUOUS
10
105.101
20
-60.9151
11
105.102
21
-60.9151
0
LINE
8
BLACK
6
CONTINUOUS
10
105.102
20
-60.9151
11
105.107
21
-60.918
0
LINE
8
BLACK
6
CONTINUOUS
10
105.107
20
-60.918
11
105.112
21
-60.9208
0
LINE
8
BLACK
6
CONTINUOUS
10
105.112
20
-60.9208
11
105.112
21
-60.921
0
LINE
8
BLACK
6
CONTINUOUS
10
105.112
20
-60.921
11
105.112
21
-60.9211
0
LINE
8
BLACK
6
CONTINUOUS
10
105.112
20
-60.9211
11
105.117
21
-60.9249
0
LINE
8
BLACK
6
CONTINUOUS
10
105.117
20
-60.9249
11
105.122
21
-60.9287
0
LINE
8
BLACK
6
CONTINUOUS
10
105.122
20
-60.9287
11
105.122
21
-60.9289
0
LINE
8
BLACK
6
CONTINUOUS
10
105.122
20
-60.9289
11
105.122
21
-60.9291
0
LINE
8
BLACK
6
CONTINUOUS
10
105.122
20
-60.9291
11
105.126
21
-60.9338
0
LINE
8
BLACK
6
CONTINUOUS
10
105.126
20
-60.9338
11
105.129
21
-60.9383
0
LINE
8
BLACK
6
CONTINUOUS
10
105.129
20
-60.9383
11
105.129
21
-60.9385
0
LINE
8
BLACK
6
CONTINUOUS
10
105.129
20
-60.9385
11
105.13
21
-60.9387
0
LINE
8
BLACK
6
CONTINUOUS
10
105.13
20
-60.9387
11
105.132
21
-60.944
0
LINE
8
BLACK
6
CONTINUOUS
10
105.132
20
-60.944
11
105.135
21
-60.9493
0
LINE
8
BLACK
6
CONTINUOUS
10
105.135
20
-60.9493
11
105.135
21
-60.9495
0
LINE
8
BLACK
6
CONTINUOUS
10
105.135
20
-60.9495
11
105.135
21
-60.9497
0
LINE
8
BLACK
6
CONTINUOUS
10
105.135
20
-60.9497
11
105.137
21
-60.9554
0
LINE
8
BLACK
6
CONTINUOUS
10
105.137
20
-60.9554
11
105.139
21
-60.9611
0
LINE
8
BLACK
6
CONTINUOUS
10
105.139
20
-60.9611
11
105.139
21
-60.9614
0
LINE
8
BLACK
6
CONTINUOUS
10
105.139
20
-60.9614
11
105.139
21
-60.9616
0
LINE
8
BLACK
6
CONTINUOUS
10
105.139
20
-60.9616
11
105.139
21
-60.9675
0
LINE
8
BLACK
6
CONTINUOUS
10
105.139
20
-60.9675
11
105.14
21
-60.9735
0
LINE
8
BLACK
6
CONTINUOUS
10
105.14
20
-60.9735
11
105.14
21
-89.5265
0
LINE
8
BLACK
6
CONTINUOUS
10
105.14
20
-89.5265
11
105.14
21
-89.5269
0
LINE
8
BLACK
6
CONTINUOUS
10
105.14
20
-89.5269
11
105.14
21
-89.527
0
LINE
8
BLACK
6
CONTINUOUS
10
105.14
20
-89.527
11
105.14
21
-89.527
0
LINE
8
BLACK
6
CONTINUOUS
10
105.14
20
-89.527
11
105.14
21
-89.5274
0
LINE
8
BLACK
6
CONTINUOUS
10
105.14
20
-89.5274
11
105.139
21
-89.5334
0
LINE
8
BLACK
6
CONTINUOUS
10
105.139
20
-89.5334
11
105.139
21
-89.5393
0
LINE
8
BLACK
6
CONTINUOUS
10
105.139
20
-89.5393
11
105.139
21
-89.5395
0
LINE
8
BLACK
6
CONTINUOUS
10
105.139
20
-89.5395
11
105.139
21
-89.5397
0
LINE
8
BLACK
6
CONTINUOUS
10
105.139
20
-89.5397
11
105.137
21
-89.5454
0
LINE
8
BLACK
6
CONTINUOUS
10
105.137
20
-89.5454
11
105.135
21
-89.5511
0
LINE
8
BLACK
6
CONTINUOUS
10
105.135
20
-89.5511
11
105.135
21
-89.5513
0
LINE
8
BLACK
6
CONTINUOUS
10
105.135
20
-89.5513
11
105.135
21
-89.5515
0
LINE
8
BLACK
6
CONTINUOUS
10
105.135
20
-89.5515
11
105.132
21
-89.5568
0
LINE
8
BLACK
6
CONTINUOUS
10
105.132
20
-89.5568
11
105.129
21
-89.562
0
LINE
8
BLACK
6
CONTINUOUS
10
105.129
20
-89.562
11
105.129
21
-89.5622
0
LINE
8
BLACK
6
CONTINUOUS
10
105.129
20
-89.5622
11
105.129
21
-89.5624
0
LINE
8
BLACK
6
CONTINUOUS
10
105.129
20
-89.5624
11
105.125
21
-89.567
0
LINE
8
BLACK
6
CONTINUOUS
10
105.125
20
-89.567
11
105.121
21
-89.5716
0
LINE
8
BLACK
6
CONTINUOUS
10
105.121
20
-89.5716
11
105.121
21
-89.5717
0
LINE
8
BLACK
6
CONTINUOUS
10
105.121
20
-89.5717
11
105.121
21
-89.5719
0
LINE
8
BLACK
6
CONTINUOUS
10
105.121
20
-89.5719
11
105.116
21
-89.5757
0
LINE
8
BLACK
6
CONTINUOUS
10
105.116
20
-89.5757
11
105.112
21
-89.5794
0
LINE
8
BLACK
6
CONTINUOUS
10
105.112
20
-89.5794
11
105.111
21
-89.5795
0
LINE
8
BLACK
6
CONTINUOUS
10
105.111
20
-89.5795
11
105.111
21
-89.5797
0
LINE
8
BLACK
6
CONTINUOUS
10
105.111
20
-89.5797
11
105.106
21
-89.5824
0
LINE
8
BLACK
6
CONTINUOUS
10
105.106
20
-89.5824
11
105.101
21
-89.5852
0
LINE
8
BLACK
6
CONTINUOUS
10
105.101
20
-89.5852
11
105.1
21
-89.5853
0
LINE
8
BLACK
6
CONTINUOUS
10
105.1
20
-89.5853
11
105.1
21
-89.5854
0
LINE
8
BLACK
6
CONTINUOUS
10
105.1
20
-89.5854
11
105.095
21
-89.5871
0
LINE
8
BLACK
6
CONTINUOUS
10
105.095
20
-89.5871
11
105.089
21
-89.5888
0
LINE
8
BLACK
6
CONTINUOUS
10
105.089
20
-89.5888
11
105.089
21
-89.5888
0
LINE
8
BLACK
6
CONTINUOUS
10
105.089
20
-89.5888
11
105.088
21
-89.5889
0
LINE
8
BLACK
6
CONTINUOUS
10
105.088
20
-89.5889
11
105.083
21
-89.5894
0
LINE
8
BLACK
6
CONTINUOUS
10
105.083
20
-89.5894
11
105.077
21
-89.59
0
LINE
8
BLACK
6
CONTINUOUS
10
105.077
20
-89.59
11
105.003
21
-89.59
0
LINE
8
BLACK
6
CONTINUOUS
10
105.003
20
-89.59
11
104.608
21
-89.6289
0
LINE
8
BLACK
6
CONTINUOUS
10
104.608
20
-89.6289
11
104.231
21
-89.7433
0
LINE
8
BLACK
6
CONTINUOUS
10
104.231
20
-89.7433
11
103.883
21
-89.929
0
LINE
8
BLACK
6
CONTINUOUS
10
103.883
20
-89.929
11
103.579
21
-90.1789
0
LINE
8
BLACK
6
CONTINUOUS
10
103.579
20
-90.1789
11
103.329
21
-90.4835
0
LINE
8
BLACK
6
CONTINUOUS
10
103.329
20
-90.4835
11
103.143
21
-90.8309
0
LINE
8
BLACK
6
CONTINUOUS
10
103.143
20
-90.8309
11
103.029
21
-91.2079
0
LINE
8
BLACK
6
CONTINUOUS
10
103.029
20
-91.2079
11
102.99
21
-91.6031
0
LINE
8
BLACK
6
CONTINUOUS
10
102.99
20
-91.6031
11
102.99
21
-99.3969
0
LINE
8
BLACK
6
CONTINUOUS
10
102.99
20
-99.3969
11
103.02
21
-99.7053
0
LINE
8
BLACK
6
CONTINUOUS
10
103.02
20
-99.7053
11
103.02
21
-99.7062
0
LINE
8
BLACK
6
CONTINUOUS
10
103.02
20
-99.7062
11
103.02
21
-99.7091
0
LINE
8
BLACK
6
CONTINUOUS
10
103.02
20
-99.7091
11
103.021
21
-99.7119
0
LINE
8
BLACK
6
CONTINUOUS
10
103.021
20
-99.7119
11
103.02
21
-99.7152
0
LINE
8
BLACK
6
CONTINUOUS
10
103.02
20
-99.7152
11
103.02
21
-99.7185
0
LINE
8
BLACK
6
CONTINUOUS
10
103.02
20
-99.7185
11
103.02
21
-99.7214
0
LINE
8
BLACK
6
CONTINUOUS
10
103.02
20
-99.7214
11
103.019
21
-99.7243
0
LINE
8
BLACK
6
CONTINUOUS
10
103.019
20
-99.7243
11
103.018
21
-99.7274
0
LINE
8
BLACK
6
CONTINUOUS
10
103.018
20
-99.7274
11
103.018
21
-99.7307
0
LINE
8
BLACK
6
CONTINUOUS
10
103.018
20
-99.7307
11
103.017
21
-99.7333
0
LINE
8
BLACK
6
CONTINUOUS
10
103.017
20
-99.7333
11
103.016
21
-99.7361
0
LINE
8
BLACK
6
CONTINUOUS
10
103.016
20
-99.7361
11
103.014
21
-99.739
0
LINE
8
BLACK
6
CONTINUOUS
10
103.014
20
-99.739
11
103.013
21
-99.7421
0
LINE
8
BLACK
6
CONTINUOUS
10
103.013
20
-99.7421
11
103.011
21
-99.7445
0
LINE
8
BLACK
6
CONTINUOUS
10
103.011
20
-99.7445
11
103.01
21
-99.747
0
LINE
8
BLACK
6
CONTINUOUS
10
103.01
20
-99.747
11
103.008
21
-99.7496
0
LINE
8
BLACK
6
CONTINUOUS
10
103.008
20
-99.7496
11
103.006
21
-99.7523
0
LINE
8
BLACK
6
CONTINUOUS
10
103.006
20
-99.7523
11
103.004
21
-99.7543
0
LINE
8
BLACK
6
CONTINUOUS
10
103.004
20
-99.7543
11
103.002
21
-99.7566
0
LINE
8
BLACK
6
CONTINUOUS
10
103.002
20
-99.7566
11
102.999
21
-99.7586
0
LINE
8
BLACK
6
CONTINUOUS
10
102.999
20
-99.7586
11
102.997
21
-99.761
0
LINE
8
BLACK
6
CONTINUOUS
10
102.997
20
-99.761
11
102.995
21
-99.7626
0
LINE
8
BLACK
6
CONTINUOUS
10
102.995
20
-99.7626
11
102.992
21
-99.7644
0
LINE
8
BLACK
6
CONTINUOUS
10
102.992
20
-99.7644
11
102.989
21
-99.7659
0
LINE
8
BLACK
6
CONTINUOUS
10
102.989
20
-99.7659
11
102.987
21
-99.7678
0
LINE
8
BLACK
6
CONTINUOUS
10
102.987
20
-99.7678
11
102.984
21
-99.7688
0
LINE
8
BLACK
6
CONTINUOUS
10
102.984
20
-99.7688
11
102.981
21
-99.7702
0
LINE
8
BLACK
6
CONTINUOUS
10
102.981
20
-99.7702
11
102.978
21
-99.7712
0
LINE
8
BLACK
6
CONTINUOUS
10
102.978
20
-99.7712
11
102.975
21
-99.7724
0
LINE
8
BLACK
6
CONTINUOUS
10
102.975
20
-99.7724
11
102.972
21
-99.7729
0
LINE
8
BLACK
6
CONTINUOUS
10
102.972
20
-99.7729
11
102.97
21
-99.7738
0
LINE
8
BLACK
6
CONTINUOUS
10
102.97
20
-99.7738
11
102.966
21
-99.7741
0
LINE
8
BLACK
6
CONTINUOUS
10
102.966
20
-99.7741
11
102.963
21
-99.7747
0
LINE
8
BLACK
6
CONTINUOUS
10
102.963
20
-99.7747
11
102.96
21
-99.7747
0
LINE
8
BLACK
6
CONTINUOUS
10
102.96
20
-99.7747
11
102.957
21
-99.775
0
LINE
8
BLACK
6
CONTINUOUS
10
102.957
20
-99.775
11
71.4041
21
-99.775
0
LINE
8
BLACK
6
CONTINUOUS
10
71.4041
20
-99.775
11
71.4032
21
-99.775
0
LINE
8
BLACK
6
CONTINUOUS
10
71.4032
20
-99.775
11
71.4006
21
-99.7747
0
LINE
8
BLACK
6
CONTINUOUS
10
71.4006
20
-99.7747
11
71.3979
21
-99.7747
0
LINE
8
BLACK
6
CONTINUOUS
10
71.3979
20
-99.7747
11
70.6845
21
-99.7048
0
LINE
8
BLACK
6
CONTINUOUS
10
70.6845
20
-99.7048
11
70.6845
21
-99.7048
0
LINE
8
BLACK
6
CONTINUOUS
10
70.6845
20
-99.7048
11
70.6837
21
-99.7047
0
LINE
8
BLACK
6
CONTINUOUS
10
71.9545
20
-93.2
11
71.3749
21
-93.3153
0
LINE
8
BLACK
6
CONTINUOUS
10
71.3749
20
-93.3153
11
70.829
21
-93.5414
0
LINE
8
BLACK
6
CONTINUOUS
10
70.829
20
-93.5414
11
70.3376
21
-93.8697
0
LINE
8
BLACK
6
CONTINUOUS
10
70.3376
20
-93.8697
11
69.9197
21
-94.2876
0
LINE
8
BLACK
6
CONTINUOUS
10
69.9197
20
-94.2876
11
69.5914
21
-94.779
0
LINE
8
BLACK
6
CONTINUOUS
10
69.5914
20
-94.779
11
69.3653
21
-95.3249
0
LINE
8
BLACK
6
CONTINUOUS
10
69.3653
20
-95.3249
11
69.25
21
-95.9045
0
LINE
8
BLACK
6
CONTINUOUS
10
69.25
20
-95.9045
11
69.25
21
-96.4955
0
LINE
8
BLACK
6
CONTINUOUS
10
69.25
20
-96.4955
11
69.3653
21
-97.0751
0
LINE
8
BLACK
6
CONTINUOUS
10
69.3653
20
-97.0751
11
69.5914
21
-97.621
0
LINE
8
BLACK
6
CONTINUOUS
10
69.5914
20
-97.621
11
69.9197
21
-98.1124
0
LINE
8
BLACK
6
CONTINUOUS
10
69.9197
20
-98.1124
11
70.3376
21
-98.5303
0
LINE
8
BLACK
6
CONTINUOUS
10
70.3376
20
-98.5303
11
70.829
21
-98.8586
0
LINE
8
BLACK
6
CONTINUOUS
10
70.829
20
-98.8586
11
71.3749
21
-99.0847
0
LINE
8
BLACK
6
CONTINUOUS
10
71.3749
20
-99.0847
11
71.9545
21
-99.2
0
LINE
8
BLACK
6
CONTINUOUS
10
71.9545
20
-99.2
11
72.5455
21
-99.2
0
LINE
8
BLACK
6
CONTINUOUS
10
72.5455
20
-99.2
11
73.1251
21
-99.0847
0
LINE
8
BLACK
6
CONTINUOUS
10
73.1251
20
-99.0847
11
73.671
21
-98.8586
0
LINE
8
BLACK
6
CONTINUOUS
10
73.671
20
-98.8586
11
74.1624
21
-98.5303
0
LINE
8
BLACK
6
CONTINUOUS
10
74.1624
20
-98.5303
11
74.5803
21
-98.1124
0
LINE
8
BLACK
6
CONTINUOUS
10
74.5803
20
-98.1124
11
74.9086
21
-97.621
0
LINE
8
BLACK
6
CONTINUOUS
10
74.9086
20
-97.621
11
75.1347
21
-97.0751
0
LINE
8
BLACK
6
CONTINUOUS
10
75.1347
20
-97.0751
11
75.25
21
-96.4955
0
LINE
8
BLACK
6
CONTINUOUS
10
75.25
20
-96.4955
11
75.25
21
-95.9045
0
LINE
8
BLACK
6
CONTINUOUS
10
75.25
20
-95.9045
11
75.1347
21
-95.3249
0
LINE
8
BLACK
6
CONTINUOUS
10
75.1347
20
-95.3249
11
74.9086
21
-94.779
0
LINE
8
BLACK
6
CONTINUOUS
10
74.9086
20
-94.779
11
74.5803
21
-94.2876
0
LINE
8
BLACK
6
CONTINUOUS
10
74.5803
20
-94.2876
11
74.1624
21
-93.8697
0
LINE
8
BLACK
6
CONTINUOUS
10
74.1624
20
-93.8697
11
73.671
21
-93.5414
0
LINE
8
BLACK
6
CONTINUOUS
10
73.671
20
-93.5414
11
73.1251
21
-93.3153
0
LINE
8
BLACK
6
CONTINUOUS
10
73.1251
20
-93.3153
11
72.5455
21
-93.2
0
LINE
8
BLACK
6
CONTINUOUS
10
72.5455
20
-93.2
11
71.9545
21
-93.2
0
LINE
8
BLACK
6
CONTINUOUS
10
75.6872
20
-80.34
11
75.6765
21
-80.3411
0
LINE
8
BLACK
6
CONTINUOUS
10
75.6765
20
-80.3411
11
75.6756
21
-80.3411
0
LINE
8
BLACK
6
CONTINUOUS
10
75.6756
20
-80.3411
11
75.6728
21
-80.3411
0
LINE
8
BLACK
6
CONTINUOUS
10
75.6728
20
-80.3411
11
75.6691
21
-80.3415
0
LINE
8
BLACK
6
CONTINUOUS
10
75.6691
20
-80.3415
11
75.5754
21
-80.3513
0
LINE
8
BLACK
6
CONTINUOUS
10
75.5754
20
-80.3513
11
75.5497
21
-80.3566
0
LINE
8
BLACK
6
CONTINUOUS
10
75.5497
20
-80.3566
11
75.5488
21
-80.3568
0
LINE
8
BLACK
6
CONTINUOUS
10
75.5488
20
-80.3568
11
75.5488
21
-80.3568
0
LINE
8
BLACK
6
CONTINUOUS
10
75.5488
20
-80.3568
11
75.5233
21
-80.3616
0
LINE
8
BLACK
6
CONTINUOUS
10
75.5233
20
-80.3616
11
75.5223
21
-80.3619
0
LINE
8
BLACK
6
CONTINUOUS
10
75.5223
20
-80.3619
11
75.4323
21
-80.3898
0
LINE
8
BLACK
6
CONTINUOUS
10
75.4323
20
-80.3898
11
75.4082
21
-80.3999
0
LINE
8
BLACK
6
CONTINUOUS
10
75.4082
20
-80.3999
11
75.4073
21
-80.4003
0
LINE
8
BLACK
6
CONTINUOUS
10
75.4073
20
-80.4003
11
75.4073
21
-80.4003
0
LINE
8
BLACK
6
CONTINUOUS
10
75.4073
20
-80.4003
11
75.3832
21
-80.41
0
LINE
8
BLACK
6
CONTINUOUS
10
75.3832
20
-80.41
11
75.3824
21
-80.4104
0
LINE
8
BLACK
6
CONTINUOUS
10
75.3824
20
-80.4104
11
75.2995
21
-80.4553
0
LINE
8
BLACK
6
CONTINUOUS
10
75.2995
20
-80.4553
11
75.2777
21
-80.47
0
LINE
8
BLACK
6
CONTINUOUS
10
75.2777
20
-80.47
11
75.2769
21
-80.4705
0
LINE
8
BLACK
6
CONTINUOUS
10
75.2769
20
-80.4705
11
75.2769
21
-80.4705
0
LINE
8
BLACK
6
CONTINUOUS
10
75.2769
20
-80.4705
11
75.2552
21
-80.4847
0
LINE
8
BLACK
6
CONTINUOUS
10
75.2552
20
-80.4847
11
75.2546
21
-80.4852
0
LINE
8
BLACK
6
CONTINUOUS
10
75.2546
20
-80.4852
11
75.1819
21
-80.5454
0
LINE
8
BLACK
6
CONTINUOUS
10
75.1819
20
-80.5454
11
75.1634
21
-80.564
0
LINE
8
BLACK
6
CONTINUOUS
10
75.1634
20
-80.564
11
75.1628
21
-80.5646
0
LINE
8
BLACK
6
CONTINUOUS
10
75.1628
20
-80.5646
11
75.1442
21
-80.5828
0
LINE
8
BLACK
6
CONTINUOUS
10
75.1442
20
-80.5828
11
75.1435
21
-80.5836
0
LINE
8
BLACK
6
CONTINUOUS
10
75.1435
20
-80.5836
11
75.084
21
-80.6566
0
LINE
8
BLACK
6
CONTINUOUS
10
75.084
20
-80.6566
11
75.0695
21
-80.6784
0
LINE
8
BLACK
6
CONTINUOUS
10
75.0695
20
-80.6784
11
75.069
21
-80.6791
0
LINE
8
BLACK
6
CONTINUOUS
10
75.069
20
-80.6791
11
75.069
21
-80.6791
0
LINE
8
BLACK
6
CONTINUOUS
10
75.069
20
-80.6791
11
75.0543
21
-80.7006
0
LINE
8
BLACK
6
CONTINUOUS
10
75.0543
20
-80.7006
11
75.0538
21
-80.7015
0
LINE
8
BLACK
6
CONTINUOUS
10
75.0538
20
-80.7015
11
75.0096
21
-80.7847
0
LINE
8
BLACK
6
CONTINUOUS
10
75.0096
20
-80.7847
11
74.9996
21
-80.8089
0
LINE
8
BLACK
6
CONTINUOUS
10
74.9996
20
-80.8089
11
74.9993
21
-80.8097
0
LINE
8
BLACK
6
CONTINUOUS
10
74.9993
20
-80.8097
11
74.989
21
-80.8336
0
LINE
8
BLACK
6
CONTINUOUS
10
74.989
20
-80.8336
11
74.9888
21
-80.8345
0
LINE
8
BLACK
6
CONTINUOUS
10
74.9888
20
-80.8345
11
74.9615
21
-80.9248
0
LINE
8
BLACK
6
CONTINUOUS
10
74.9615
20
-80.9248
11
74.9564
21
-80.9504
0
LINE
8
BLACK
6
CONTINUOUS
10
74.9564
20
-80.9504
11
74.9563
21
-80.9513
0
LINE
8
BLACK
6
CONTINUOUS
10
74.9563
20
-80.9513
11
74.9508
21
-80.9768
0
LINE
8
BLACK
6
CONTINUOUS
10
74.9508
20
-80.9768
11
74.9507
21
-80.9777
0
LINE
8
BLACK
6
CONTINUOUS
10
74.9507
20
-80.9777
11
74.9414
21
-81.0734
0
LINE
8
BLACK
6
CONTINUOUS
10
74.9414
20
-81.0734
11
74.9414
21
-81.0734
0
LINE
8
BLACK
6
CONTINUOUS
10
74.9414
20
-81.0734
11
74.94
21
-81.0872
0
LINE
8
BLACK
6
CONTINUOUS
10
74.94
20
-81.0872
11
74.94
21
-92.9128
0
LINE
8
BLACK
6
CONTINUOUS
10
74.94
20
-92.9128
11
74.9411
21
-92.9235
0
LINE
8
BLACK
6
CONTINUOUS
10
74.9411
20
-92.9235
11
74.9411
21
-92.9244
0
LINE
8
BLACK
6
CONTINUOUS
10
74.9411
20
-92.9244
11
74.9411
21
-92.9272
0
LINE
8
BLACK
6
CONTINUOUS
10
74.9411
20
-92.9272
11
74.9415
21
-92.9309
0
LINE
8
BLACK
6
CONTINUOUS
10
74.9415
20
-92.9309
11
74.9513
21
-93.0246
0
LINE
8
BLACK
6
CONTINUOUS
10
74.9513
20
-93.0246
11
74.9566
21
-93.0503
0
LINE
8
BLACK
6
CONTINUOUS
10
74.9566
20
-93.0503
11
74.9568
21
-93.0512
0
LINE
8
BLACK
6
CONTINUOUS
10
74.9568
20
-93.0512
11
74.9568
21
-93.0512
0
LINE
8
BLACK
6
CONTINUOUS
10
74.9568
20
-93.0512
11
74.9616
21
-93.0767
0
LINE
8
BLACK
6
CONTINUOUS
10
74.9616
20
-93.0767
11
74.9619
21
-93.0776
0
LINE
8
BLACK
6
CONTINUOUS
10
74.9619
20
-93.0776
11
74.9898
21
-93.1677
0
LINE
8
BLACK
6
CONTINUOUS
10
74.9898
20
-93.1677
11
74.9999
21
-93.1918
0
LINE
8
BLACK
6
CONTINUOUS
10
74.9999
20
-93.1918
11
75.0003
21
-93.1926
0
LINE
8
BLACK
6
CONTINUOUS
10
75.0003
20
-93.1926
11
75.0003
21
-93.1926
0
LINE
8
BLACK
6
CONTINUOUS
10
75.0003
20
-93.1926
11
75.01
21
-93.2168
0
LINE
8
BLACK
6
CONTINUOUS
10
75.01
20
-93.2168
11
75.0105
21
-93.2176
0
LINE
8
BLACK
6
CONTINUOUS
10
75.0105
20
-93.2176
11
75.0553
21
-93.3005
0
LINE
8
BLACK
6
CONTINUOUS
10
75.0553
20
-93.3005
11
75.07
21
-93.3223
0
LINE
8
BLACK
6
CONTINUOUS
10
75.07
20
-93.3223
11
75.0705
21
-93.3231
0
LINE
8
BLACK
6
CONTINUOUS
10
75.0705
20
-93.3231
11
75.0847
21
-93.3448
0
LINE
8
BLACK
6
CONTINUOUS
10
75.0847
20
-93.3448
11
75.0851
21
-93.3453
0
LINE
8
BLACK
6
CONTINUOUS
10
75.0851
20
-93.3453
11
75.1454
21
-93.4181
0
LINE
8
BLACK
6
CONTINUOUS
10
75.1454
20
-93.4181
11
75.164
21
-93.4366
0
LINE
8
BLACK
6
CONTINUOUS
10
75.164
20
-93.4366
11
75.1646
21
-93.4372
0
LINE
8
BLACK
6
CONTINUOUS
10
75.1646
20
-93.4372
11
75.1828
21
-93.4558
0
LINE
8
BLACK
6
CONTINUOUS
10
75.1828
20
-93.4558
11
75.1835
21
-93.4564
0
LINE
8
BLACK
6
CONTINUOUS
10
75.1835
20
-93.4564
11
75.2566
21
-93.516
0
LINE
8
BLACK
6
CONTINUOUS
10
75.2566
20
-93.516
11
75.2784
21
-93.5305
0
LINE
8
BLACK
6
CONTINUOUS
10
75.2784
20
-93.5305
11
75.2791
21
-93.531
0
LINE
8
BLACK
6
CONTINUOUS
10
75.2791
20
-93.531
11
75.2791
21
-93.531
0
LINE
8
BLACK
6
CONTINUOUS
10
75.2791
20
-93.531
11
75.3006
21
-93.5457
0
LINE
8
BLACK
6
CONTINUOUS
10
75.3006
20
-93.5457
11
75.3015
21
-93.5461
0
LINE
8
BLACK
6
CONTINUOUS
10
75.3015
20
-93.5461
11
75.3847
21
-93.5904
0
LINE
8
BLACK
6
CONTINUOUS
10
75.3847
20
-93.5904
11
75.4089
21
-93.6004
0
LINE
8
BLACK
6
CONTINUOUS
10
75.4089
20
-93.6004
11
75.4097
21
-93.6007
0
LINE
8
BLACK
6
CONTINUOUS
10
75.4097
20
-93.6007
11
75.4097
21
-93.6007
0
LINE
8
BLACK
6
CONTINUOUS
10
75.4097
20
-93.6007
11
75.4336
21
-93.611
0
LINE
8
BLACK
6
CONTINUOUS
10
75.4336
20
-93.611
11
75.4345
21
-93.6112
0
LINE
8
BLACK
6
CONTINUOUS
10
75.4345
20
-93.6112
11
75.5248
21
-93.6385
0
LINE
8
BLACK
6
CONTINUOUS
10
75.5248
20
-93.6385
11
75.5504
21
-93.6436
0
LINE
8
BLACK
6
CONTINUOUS
10
75.5504
20
-93.6436
11
75.5513
21
-93.6437
0
LINE
8
BLACK
6
CONTINUOUS
10
75.5513
20
-93.6437
11
75.5513
21
-93.6437
0
LINE
8
BLACK
6
CONTINUOUS
10
75.5513
20
-93.6437
11
75.5768
21
-93.6492
0
LINE
8
BLACK
6
CONTINUOUS
10
75.5768
20
-93.6492
11
75.5777
21
-93.6493
0
LINE
8
BLACK
6
CONTINUOUS
10
75.5777
20
-93.6493
11
75.6746
21
-93.6588
0
LINE
8
BLACK
6
CONTINUOUS
10
75.6746
20
-93.6588
11
75.6747
21
-93.6588
0
LINE
8
BLACK
6
CONTINUOUS
10
75.6747
20
-93.6588
11
75.6872
21
-93.66
0
LINE
8
BLACK
6
CONTINUOUS
10
75.6872
20
-93.66
11
100.313
21
-93.66
0
LINE
8
BLACK
6
CONTINUOUS
10
100.313
20
-93.66
11
100.324
21
-93.6589
0
LINE
8
BLACK
6
CONTINUOUS
10
100.324
20
-93.6589
11
100.324
21
-93.6589
0
LINE
8
BLACK
6
CONTINUOUS
10
100.324
20
-93.6589
11
100.327
21
-93.6589
0
LINE
8
BLACK
6
CONTINUOUS
10
100.327
20
-93.6589
11
100.331
21
-93.6585
0
LINE
8
BLACK
6
CONTINUOUS
10
100.331
20
-93.6585
11
100.425
21
-93.6487
0
LINE
8
BLACK
6
CONTINUOUS
10
100.425
20
-93.6487
11
100.45
21
-93.6434
0
LINE
8
BLACK
6
CONTINUOUS
10
100.45
20
-93.6434
11
100.451
21
-93.6432
0
LINE
8
BLACK
6
CONTINUOUS
10
100.451
20
-93.6432
11
100.451
21
-93.6432
0
LINE
8
BLACK
6
CONTINUOUS
10
100.451
20
-93.6432
11
100.477
21
-93.6384
0
LINE
8
BLACK
6
CONTINUOUS
10
100.477
20
-93.6384
11
100.478
21
-93.6381
0
LINE
8
BLACK
6
CONTINUOUS
10
100.478
20
-93.6381
11
100.568
21
-93.6102
0
LINE
8
BLACK
6
CONTINUOUS
10
100.568
20
-93.6102
11
100.592
21
-93.6001
0
LINE
8
BLACK
6
CONTINUOUS
10
100.592
20
-93.6001
11
100.593
21
-93.5997
0
LINE
8
BLACK
6
CONTINUOUS
10
100.593
20
-93.5997
11
100.593
21
-93.5997
0
LINE
8
BLACK
6
CONTINUOUS
10
100.593
20
-93.5997
11
100.617
21
-93.59
0
LINE
8
BLACK
6
CONTINUOUS
10
100.617
20
-93.59
11
100.618
21
-93.5895
0
LINE
8
BLACK
6
CONTINUOUS
10
100.618
20
-93.5895
11
100.701
21
-93.5447
0
LINE
8
BLACK
6
CONTINUOUS
10
100.701
20
-93.5447
11
100.722
21
-93.53
0
LINE
8
BLACK
6
CONTINUOUS
10
100.722
20
-93.53
11
100.723
21
-93.5295
0
LINE
8
BLACK
6
CONTINUOUS
10
100.723
20
-93.5295
11
100.723
21
-93.5295
0
LINE
8
BLACK
6
CONTINUOUS
10
100.723
20
-93.5295
11
100.745
21
-93.5153
0
LINE
8
BLACK
6
CONTINUOUS
10
100.745
20
-93.5153
11
100.745
21
-93.5148
0
LINE
8
BLACK
6
CONTINUOUS
10
100.745
20
-93.5148
11
100.818
21
-93.4546
0
LINE
8
BLACK
6
CONTINUOUS
10
100.818
20
-93.4546
11
100.837
21
-93.436
0
LINE
8
BLACK
6
CONTINUOUS
10
100.837
20
-93.436
11
100.837
21
-93.4354
0
LINE
8
BLACK
6
CONTINUOUS
10
100.837
20
-93.4354
11
100.856
21
-93.4172
0
LINE
8
BLACK
6
CONTINUOUS
10
100.856
20
-93.4172
11
100.856
21
-93.4165
0
LINE
8
BLACK
6
CONTINUOUS
10
100.856
20
-93.4165
11
100.916
21
-93.3434
0
LINE
8
BLACK
6
CONTINUOUS
10
100.916
20
-93.3434
11
100.93
21
-93.3216
0
LINE
8
BLACK
6
CONTINUOUS
10
100.93
20
-93.3216
11
100.931
21
-93.3209
0
LINE
8
BLACK
6
CONTINUOUS
10
100.931
20
-93.3209
11
100.946
21
-93.2994
0
LINE
8
BLACK
6
CONTINUOUS
10
100.946
20
-93.2994
11
100.946
21
-93.2985
0
LINE
8
BLACK
6
CONTINUOUS
10
100.946
20
-93.2985
11
100.99
21
-93.2153
0
LINE
8
BLACK
6
CONTINUOUS
10
100.99
20
-93.2153
11
101
21
-93.1911
0
LINE
8
BLACK
6
CONTINUOUS
10
101
20
-93.1911
11
101.001
21
-93.1903
0
LINE
8
BLACK
6
CONTINUOUS
10
101.001
20
-93.1903
11
101.001
21
-93.1903
0
LINE
8
BLACK
6
CONTINUOUS
10
101.001
20
-93.1903
11
101.011
21
-93.1664
0
LINE
8
BLACK
6
CONTINUOUS
10
101.011
20
-93.1664
11
101.011
21
-93.1655
0
LINE
8
BLACK
6
CONTINUOUS
10
101.011
20
-93.1655
11
101.038
21
-93.0752
0
LINE
8
BLACK
6
CONTINUOUS
10
101.038
20
-93.0752
11
101.044
21
-93.0495
0
LINE
8
BLACK
6
CONTINUOUS
10
101.044
20
-93.0495
11
101.044
21
-93.0487
0
LINE
8
BLACK
6
CONTINUOUS
10
101.044
20
-93.0487
11
101.044
21
-93.0487
0
LINE
8
BLACK
6
CONTINUOUS
10
101.044
20
-93.0487
11
101.049
21
-93.0232
0
LINE
8
BLACK
6
CONTINUOUS
10
101.049
20
-93.0232
11
101.049
21
-93.0223
0
LINE
8
BLACK
6
CONTINUOUS
10
101.049
20
-93.0223
11
101.059
21
-92.9254
0
LINE
8
BLACK
6
CONTINUOUS
10
101.059
20
-92.9254
11
101.059
21
-92.9253
0
LINE
8
BLACK
6
CONTINUOUS
10
101.059
20
-92.9253
11
101.06
21
-92.9128
0
LINE
8
BLACK
6
CONTINUOUS
10
101.06
20
-92.9128
11
101.06
21
-81.0872
0
LINE
8
BLACK
6
CONTINUOUS
10
101.06
20
-81.0872
11
101.059
21
-81.0765
0
LINE
8
BLACK
6
CONTINUOUS
10
101.059
20
-81.0765
11
101.059
21
-81.0756
0
LINE
8
BLACK
6
CONTINUOUS
10
101.059
20
-81.0756
11
101.059
21
-81.0728
0
LINE
8
BLACK
6
CONTINUOUS
10
101.059
20
-81.0728
11
101.059
21
-81.0691
0
LINE
8
BLACK
6
CONTINUOUS
10
101.059
20
-81.0691
11
101.049
21
-80.9754
0
LINE
8
BLACK
6
CONTINUOUS
10
101.049
20
-80.9754
11
101.043
21
-80.9497
0
LINE
8
BLACK
6
CONTINUOUS
10
101.043
20
-80.9497
11
101.043
21
-80.9488
0
LINE
8
BLACK
6
CONTINUOUS
10
101.043
20
-80.9488
11
101.043
21
-80.9488
0
LINE
8
BLACK
6
CONTINUOUS
10
101.043
20
-80.9488
11
101.038
21
-80.9233
0
LINE
8
BLACK
6
CONTINUOUS
10
101.038
20
-80.9233
11
101.038
21
-80.9223
0
LINE
8
BLACK
6
CONTINUOUS
10
101.038
20
-80.9223
11
101.01
21
-80.8323
0
LINE
8
BLACK
6
CONTINUOUS
10
101.01
20
-80.8323
11
101
21
-80.8082
0
LINE
8
BLACK
6
CONTINUOUS
10
101
20
-80.8082
11
101
21
-80.8073
0
LINE
8
BLACK
6
CONTINUOUS
10
101
20
-80.8073
11
100.99
21
-80.7832
0
LINE
8
BLACK
6
CONTINUOUS
10
100.99
20
-80.7832
11
100.99
21
-80.7824
0
LINE
8
BLACK
6
CONTINUOUS
10
100.99
20
-80.7824
11
100.945
21
-80.6995
0
LINE
8
BLACK
6
CONTINUOUS
10
100.945
20
-80.6995
11
100.93
21
-80.6777
0
LINE
8
BLACK
6
CONTINUOUS
10
100.93
20
-80.6777
11
100.93
21
-80.6769
0
LINE
8
BLACK
6
CONTINUOUS
10
100.93
20
-80.6769
11
100.93
21
-80.6769
0
LINE
8
BLACK
6
CONTINUOUS
10
100.93
20
-80.6769
11
100.915
21
-80.6552
0
LINE
8
BLACK
6
CONTINUOUS
10
100.915
20
-80.6552
11
100.915
21
-80.6546
0
LINE
8
BLACK
6
CONTINUOUS
10
100.915
20
-80.6546
11
100.855
21
-80.5819
0
LINE
8
BLACK
6
CONTINUOUS
10
100.855
20
-80.5819
11
100.836
21
-80.5634
0
LINE
8
BLACK
6
CONTINUOUS
10
100.836
20
-80.5634
11
100.835
21
-80.5628
0
LINE
8
BLACK
6
CONTINUOUS
10
100.835
20
-80.5628
11
100.817
21
-80.5442
0
LINE
8
BLACK
6
CONTINUOUS
10
100.817
20
-80.5442
11
100.816
21
-80.5435
0
LINE
8
BLACK
6
CONTINUOUS
10
100.816
20
-80.5435
11
100.743
21
-80.484
0
LINE
8
BLACK
6
CONTINUOUS
10
100.743
20
-80.484
11
100.722
21
-80.4695
0
LINE
8
BLACK
6
CONTINUOUS
10
100.722
20
-80.4695
11
100.721
21
-80.469
0
LINE
8
BLACK
6
CONTINUOUS
10
100.721
20
-80.469
11
100.721
21
-80.469
0
LINE
8
BLACK
6
CONTINUOUS
10
100.721
20
-80.469
11
100.699
21
-80.4543
0
LINE
8
BLACK
6
CONTINUOUS
10
100.699
20
-80.4543
11
100.699
21
-80.4539
0
LINE
8
BLACK
6
CONTINUOUS
10
100.699
20
-80.4539
11
100.615
21
-80.4096
0
LINE
8
BLACK
6
CONTINUOUS
10
100.615
20
-80.4096
11
100.591
21
-80.3996
0
LINE
8
BLACK
6
CONTINUOUS
10
100.591
20
-80.3996
11
100.59
21
-80.3993
0
LINE
8
BLACK
6
CONTINUOUS
10
100.59
20
-80.3993
11
100.566
21
-80.389
0
LINE
8
BLACK
6
CONTINUOUS
10
100.566
20
-80.389
11
100.566
21
-80.3888
0
LINE
8
BLACK
6
CONTINUOUS
10
100.566
20
-80.3888
11
100.475
21
-80.3615
0
LINE
8
BLACK
6
CONTINUOUS
10
100.475
20
-80.3615
11
100.45
21
-80.3564
0
LINE
8
BLACK
6
CONTINUOUS
10
100.45
20
-80.3564
11
100.449
21
-80.3563
0
LINE
8
BLACK
6
CONTINUOUS
10
100.449
20
-80.3563
11
100.423
21
-80.3508
0
LINE
8
BLACK
6
CONTINUOUS
10
100.423
20
-80.3508
11
100.422
21
-80.3507
0
LINE
8
BLACK
6
CONTINUOUS
10
100.422
20
-80.3507
11
100.325
21
-80.3412
0
LINE
8
BLACK
6
CONTINUOUS
10
100.325
20
-80.3412
11
100.325
21
-80.3412
0
LINE
8
BLACK
6
CONTINUOUS
10
100.325
20
-80.3412
11
100.325
21
-80.3412
0
LINE
8
BLACK
6
CONTINUOUS
10
100.325
20
-80.3412
11
100.313
21
-80.34
0
LINE
8
BLACK
6
CONTINUOUS
10
100.313
20
-80.34
11
75.6872
21
-80.34
0
LINE
8
BLACK
6
CONTINUOUS
10
87.1307
20
-61.25
11
86.4062
21
-61.3941
0
LINE
8
BLACK
6
CONTINUOUS
10
86.4062
20
-61.3941
11
85.7237
21
-61.6768
0
LINE
8
BLACK
6
CONTINUOUS
10
85.7237
20
-61.6768
11
85.1095
21
-62.0872
0
LINE
8
BLACK
6
CONTINUOUS
10
85.1095
20
-62.0872
11
84.5872
21
-62.6095
0
LINE
8
BLACK
6
CONTINUOUS
10
84.5872
20
-62.6095
11
84.1768
21
-63.2237
0
LINE
8
BLACK
6
CONTINUOUS
10
84.1768
20
-63.2237
11
83.8941
21
-63.9062
0
LINE
8
BLACK
6
CONTINUOUS
10
83.8941
20
-63.9062
11
83.75
21
-64.6307
0
LINE
8
BLACK
6
CONTINUOUS
10
83.75
20
-64.6307
11
83.75
21
-65.3693
0
LINE
8
BLACK
6
CONTINUOUS
10
83.75
20
-65.3693
11
83.8941
21
-66.0938
0
LINE
8
BLACK
6
CONTINUOUS
10
83.8941
20
-66.0938
11
84.1768
21
-66.7763
0
LINE
8
BLACK
6
CONTINUOUS
10
84.1768
20
-66.7763
11
84.5872
21
-67.3905
0
LINE
8
BLACK
6
CONTINUOUS
10
84.5872
20
-67.3905
11
85.1095
21
-67.9128
0
LINE
8
BLACK
6
CONTINUOUS
10
85.1095
20
-67.9128
11
85.7237
21
-68.3232
0
LINE
8
BLACK
6
CONTINUOUS
10
85.7237
20
-68.3232
11
86.4062
21
-68.6059
0
LINE
8
BLACK
6
CONTINUOUS
10
86.4062
20
-68.6059
11
87.1307
21
-68.75
0
LINE
8
BLACK
6
CONTINUOUS
10
87.1307
20
-68.75
11
87.8693
21
-68.75
0
LINE
8
BLACK
6
CONTINUOUS
10
87.8693
20
-68.75
11
88.5938
21
-68.6059
0
LINE
8
BLACK
6
CONTINUOUS
10
88.5938
20
-68.6059
11
89.2763
21
-68.3232
0
LINE
8
BLACK
6
CONTINUOUS
10
89.2763
20
-68.3232
11
89.8905
21
-67.9128
0
LINE
8
BLACK
6
CONTINUOUS
10
89.8905
20
-67.9128
11
90.4128
21
-67.3905
0
LINE
8
BLACK
6
CONTINUOUS
10
90.4128
20
-67.3905
11
90.8232
21
-66.7763
0
LINE
8
BLACK
6
CONTINUOUS
10
90.8232
20
-66.7763
11
91.1059
21
-66.0938
0
LINE
8
BLACK
6
CONTINUOUS
10
91.1059
20
-66.0938
11
91.25
21
-65.3693
0
LINE
8
BLACK
6
CONTINUOUS
10
91.25
20
-65.3693
11
91.25
21
-64.6307
0
LINE
8
BLACK
6
CONTINUOUS
10
91.25
20
-64.6307
11
91.1059
21
-63.9062
0
LINE
8
BLACK
6
CONTINUOUS
10
91.1059
20
-63.9062
11
90.8232
21
-63.2237
0
LINE
8
BLACK
6
CONTINUOUS
10
90.8232
20
-63.2237
11
90.4128
21
-62.6095
0
LINE
8
BLACK
6
CONTINUOUS
10
90.4128
20
-62.6095
11
89.8905
21
-62.0872
0
LINE
8
BLACK
6
CONTINUOUS
10
89.8905
20
-62.0872
11
89.2763
21
-61.6768
0
LINE
8
BLACK
6
CONTINUOUS
10
89.2763
20
-61.6768
11
88.5938
21
-61.3941
0
LINE
8
BLACK
6
CONTINUOUS
10
88.5938
20
-61.3941
11
87.8693
21
-61.25
0
LINE
8
BLACK
6
CONTINUOUS
10
87.8693
20
-61.25
11
87.1307
21
-61.25
0
LINE
8
BLACK
6
CONTINUOUS
10
71.9545
20
-49.67
11
71.3749
21
-49.7853
0
LINE
8
BLACK
6
CONTINUOUS
10
71.3749
20
-49.7853
11
70.829
21
-50.0114
0
LINE
8
BLACK
6
CONTINUOUS
10
70.829
20
-50.0114
11
70.3376
21
-50.3397
0
LINE
8
BLACK
6
CONTINUOUS
10
70.3376
20
-50.3397
11
69.9197
21
-50.7576
0
LINE
8
BLACK
6
CONTINUOUS
10
69.9197
20
-50.7576
11
69.5914
21
-51.249
0
LINE
8
BLACK
6
CONTINUOUS
10
69.5914
20
-51.249
11
69.3653
21
-51.7949
0
LINE
8
BLACK
6
CONTINUOUS
10
69.3653
20
-51.7949
11
69.25
21
-52.3745
0
LINE
8
BLACK
6
CONTINUOUS
10
69.25
20
-52.3745
11
69.25
21
-52.9655
0
LINE
8
BLACK
6
CONTINUOUS
10
69.25
20
-52.9655
11
69.3653
21
-53.5451
0
LINE
8
BLACK
6
CONTINUOUS
10
69.3653
20
-53.5451
11
69.5914
21
-54.091
0
LINE
8
BLACK
6
CONTINUOUS
10
69.5914
20
-54.091
11
69.9197
21
-54.5824
0
LINE
8
BLACK
6
CONTINUOUS
10
69.9197
20
-54.5824
11
70.3376
21
-55.0003
0
LINE
8
BLACK
6
CONTINUOUS
10
70.3376
20
-55.0003
11
70.829
21
-55.3286
0
LINE
8
BLACK
6
CONTINUOUS
10
70.829
20
-55.3286
11
71.3749
21
-55.5547
0
LINE
8
BLACK
6
CONTINUOUS
10
71.3749
20
-55.5547
11
71.9545
21
-55.67
0
LINE
8
BLACK
6
CONTINUOUS
10
71.9545
20
-55.67
11
72.5455
21
-55.67
0
LINE
8
BLACK
6
CONTINUOUS
10
72.5455
20
-55.67
11
73.1251
21
-55.5547
0
LINE
8
BLACK
6
CONTINUOUS
10
73.1251
20
-55.5547
11
73.671
21
-55.3286
0
LINE
8
BLACK
6
CONTINUOUS
10
73.671
20
-55.3286
11
74.1624
21
-55.0003
0
LINE
8
BLACK
6
CONTINUOUS
10
74.1624
20
-55.0003
11
74.5803
21
-54.5824
0
LINE
8
BLACK
6
CONTINUOUS
10
74.5803
20
-54.5824
11
74.9086
21
-54.091
0
LINE
8
BLACK
6
CONTINUOUS
10
74.9086
20
-54.091
11
75.1347
21
-53.5451
0
LINE
8
BLACK
6
CONTINUOUS
10
75.1347
20
-53.5451
11
75.25
21
-52.9655
0
LINE
8
BLACK
6
CONTINUOUS
10
75.25
20
-52.9655
11
75.25
21
-52.3745
0
LINE
8
BLACK
6
CONTINUOUS
10
75.25
20
-52.3745
11
75.1347
21
-51.7949
0
LINE
8
BLACK
6
CONTINUOUS
10
75.1347
20
-51.7949
11
74.9086
21
-51.249
0
LINE
8
BLACK
6
CONTINUOUS
10
74.9086
20
-51.249
11
74.5803
21
-50.7576
0
LINE
8
BLACK
6
CONTINUOUS
10
74.5803
20
-50.7576
11
74.1624
21
-50.3397
0
LINE
8
BLACK
6
CONTINUOUS
10
74.1624
20
-50.3397
11
73.671
21
-50.0114
0
LINE
8
BLACK
6
CONTINUOUS
10
73.671
20
-50.0114
11
73.1251
21
-49.7853
0
LINE
8
BLACK
6
CONTINUOUS
10
73.1251
20
-49.7853
11
72.5455
21
-49.67
0
LINE
8
BLACK
6
CONTINUOUS
10
72.5455
20
-49.67
11
71.9545
21
-49.67
0
LINE
8
BLACK
6
CONTINUOUS
10
72.7605
20
-94.5173
11
73.0789
21
-94.6492
0
LINE
8
BLACK
6
CONTINUOUS
10
73.0789
20
-94.6492
11
73.3656
21
-94.8407
0
LINE
8
BLACK
6
CONTINUOUS
10
73.3656
20
-94.8407
11
73.6093
21
-95.0844
0
LINE
8
BLACK
6
CONTINUOUS
10
73.6093
20
-95.0844
11
73.8008
21
-95.3711
0
LINE
8
BLACK
6
CONTINUOUS
10
73.8008
20
-95.3711
11
73.9327
21
-95.6895
0
LINE
8
BLACK
6
CONTINUOUS
10
73.9327
20
-95.6895
11
74
21
-96.0276
0
LINE
8
BLACK
6
CONTINUOUS
10
74
20
-96.0276
11
74
21
-96.3724
0
LINE
8
BLACK
6
CONTINUOUS
10
74
20
-96.3724
11
73.9327
21
-96.7105
0
LINE
8
BLACK
6
CONTINUOUS
10
73.9327
20
-96.7105
11
73.8008
21
-97.0289
0
LINE
8
BLACK
6
CONTINUOUS
10
73.8008
20
-97.0289
11
73.6093
21
-97.3156
0
LINE
8
BLACK
6
CONTINUOUS
10
73.6093
20
-97.3156
11
73.3656
21
-97.5593
0
LINE
8
BLACK
6
CONTINUOUS
10
73.3656
20
-97.5593
11
73.0789
21
-97.7508
0
LINE
8
BLACK
6
CONTINUOUS
10
73.0789
20
-97.7508
11
72.7605
21
-97.8827
0
LINE
8
BLACK
6
CONTINUOUS
10
72.7605
20
-97.8827
11
72.4224
21
-97.95
0
LINE
8
BLACK
6
CONTINUOUS
10
72.4224
20
-97.95
11
72.0776
21
-97.95
0
LINE
8
BLACK
6
CONTINUOUS
10
72.0776
20
-97.95
11
71.7395
21
-97.8827
0
LINE
8
BLACK
6
CONTINUOUS
10
71.7395
20
-97.8827
11
71.4211
21
-97.7508
0
LINE
8
BLACK
6
CONTINUOUS
10
71.4211
20
-97.7508
11
71.1344
21
-97.5593
0
LINE
8
BLACK
6
CONTINUOUS
10
71.1344
20
-97.5593
11
70.8907
21
-97.3156
0
LINE
8
BLACK
6
CONTINUOUS
10
70.8907
20
-97.3156
11
70.6992
21
-97.0289
0
LINE
8
BLACK
6
CONTINUOUS
10
70.6992
20
-97.0289
11
70.5673
21
-96.7105
0
LINE
8
BLACK
6
CONTINUOUS
10
70.5673
20
-96.7105
11
70.5
21
-96.3724
0
LINE
8
BLACK
6
CONTINUOUS
10
70.5
20
-96.3724
11
70.5
21
-96.0276
0
LINE
8
BLACK
6
CONTINUOUS
10
70.5
20
-96.0276
11
70.5673
21
-95.6895
0
LINE
8
BLACK
6
CONTINUOUS
10
70.5673
20
-95.6895
11
70.6992
21
-95.3711
0
LINE
8
BLACK
6
CONTINUOUS
10
70.6992
20
-95.3711
11
70.8907
21
-95.0844
0
LINE
8
BLACK
6
CONTINUOUS
10
70.8907
20
-95.0844
11
71.1344
21
-94.8407
0
LINE
8
BLACK
6
CONTINUOUS
10
71.1344
20
-94.8407
11
71.4211
21
-94.6492
0
LINE
8
BLACK
6
CONTINUOUS
10
71.4211
20
-94.6492
11
71.7395
21
-94.5173
0
LINE
8
BLACK
6
CONTINUOUS
10
71.7395
20
-94.5173
11
72.0776
21
-94.45
0
LINE
8
BLACK
6
CONTINUOUS
10
72.0776
20
-94.45
11
72.4224
21
-94.45
0
LINE
8
BLACK
6
CONTINUOUS
10
72.4224
20
-94.45
11
72.7605
21
-94.5173
0
LINE
8
BLACK
6
CONTINUOUS
10
88.5355
20
-61.5864
11
89.1816
21
-61.854
0
LINE
8
BLACK
6
CONTINUOUS
10
89.1816
20
-61.854
11
89.763
21
-62.2425
0
LINE
8
BLACK
6
CONTINUOUS
10
89.763
20
-62.2425
11
90.2575
21
-62.737
0
LINE
8
BLACK
6
CONTINUOUS
10
90.2575
20
-62.737
11
90.646
21
-63.3184
0
LINE
8
BLACK
6
CONTINUOUS
10
90.646
20
-63.3184
11
90.9136
21
-63.9645
0
LINE
8
BLACK
6
CONTINUOUS
10
90.9136
20
-63.9645
11
91.05
21
-64.6504
0
LINE
8
BLACK
6
CONTINUOUS
10
91.05
20
-64.6504
11
91.05
21
-65.3496
0
LINE
8
BLACK
6
CONTINUOUS
10
91.05
20
-65.3496
11
90.9136
21
-66.0355
0
LINE
8
BLACK
6
CONTINUOUS
10
90.9136
20
-66.0355
11
90.646
21
-66.6816
0
LINE
8
BLACK
6
CONTINUOUS
10
90.646
20
-66.6816
11
90.2575
21
-67.263
0
LINE
8
BLACK
6
CONTINUOUS
10
90.2575
20
-67.263
11
89.763
21
-67.7575
0
LINE
8
BLACK
6
CONTINUOUS
10
89.763
20
-67.7575
11
89.1816
21
-68.146
0
LINE
8
BLACK
6
CONTINUOUS
10
89.1816
20
-68.146
11
88.5355
21
-68.4136
0
LINE
8
BLACK
6
CONTINUOUS
10
88.5355
20
-68.4136
11
87.8496
21
-68.55
0
LINE
8
BLACK
6
CONTINUOUS
10
87.8496
20
-68.55
11
87.1504
21
-68.55
0
LINE
8
BLACK
6
CONTINUOUS
10
87.1504
20
-68.55
11
86.4645
21
-68.4136
0
LINE
8
BLACK
6
CONTINUOUS
10
86.4645
20
-68.4136
11
85.8184
21
-68.146
0
LINE
8
BLACK
6
CONTINUOUS
10
85.8184
20
-68.146
11
85.237
21
-67.7575
0
LINE
8
BLACK
6
CONTINUOUS
10
85.237
20
-67.7575
11
84.7425
21
-67.263
0
LINE
8
BLACK
6
CONTINUOUS
10
84.7425
20
-67.263
11
84.354
21
-66.6816
0
LINE
8
BLACK
6
CONTINUOUS
10
84.354
20
-66.6816
11
84.0864
21
-66.0355
0
LINE
8
BLACK
6
CONTINUOUS
10
84.0864
20
-66.0355
11
83.95
21
-65.3496
0
LINE
8
BLACK
6
CONTINUOUS
10
83.95
20
-65.3496
11
83.95
21
-64.6504
0
LINE
8
BLACK
6
CONTINUOUS
10
83.95
20
-64.6504
11
84.0864
21
-63.9645
0
LINE
8
BLACK
6
CONTINUOUS
10
84.0864
20
-63.9645
11
84.354
21
-63.3184
0
LINE
8
BLACK
6
CONTINUOUS
10
84.354
20
-63.3184
11
84.7425
21
-62.737
0
LINE
8
BLACK
6
CONTINUOUS
10
84.7425
20
-62.737
11
85.237
21
-62.2425
0
LINE
8
BLACK
6
CONTINUOUS
10
85.237
20
-62.2425
11
85.8184
21
-61.854
0
LINE
8
BLACK
6
CONTINUOUS
10
85.8184
20
-61.854
11
86.4645
21
-61.5864
0
LINE
8
BLACK
6
CONTINUOUS
10
86.4645
20
-61.5864
11
87.1504
21
-61.45
0
LINE
8
BLACK
6
CONTINUOUS
10
87.1504
20
-61.45
11
87.8496
21
-61.45
0
LINE
8
BLACK
6
CONTINUOUS
10
87.8496
20
-61.45
11
88.5355
21
-61.5864
0
LINE
8
BLACK
6
CONTINUOUS
10
72.7605
20
-50.9873
11
73.0789
21
-51.1192
0
LINE
8
BLACK
6
CONTINUOUS
10
73.0789
20
-51.1192
11
73.3656
21
-51.3107
0
LINE
8
BLACK
6
CONTINUOUS
10
73.3656
20
-51.3107
11
73.6093
21
-51.5544
0
LINE
8
BLACK
6
CONTINUOUS
10
73.6093
20
-51.5544
11
73.8008
21
-51.8411
0
LINE
8
BLACK
6
CONTINUOUS
10
73.8008
20
-51.8411
11
73.9327
21
-52.1595
0
LINE
8
BLACK
6
CONTINUOUS
10
73.9327
20
-52.1595
11
74
21
-52.4976
0
LINE
8
BLACK
6
CONTINUOUS
10
74
20
-52.4976
11
74
21
-52.8424
0
LINE
8
BLACK
6
CONTINUOUS
10
74
20
-52.8424
11
73.9327
21
-53.1805
0
LINE
8
BLACK
6
CONTINUOUS
10
73.9327
20
-53.1805
11
73.8008
21
-53.4989
0
LINE
8
BLACK
6
CONTINUOUS
10
73.8008
20
-53.4989
11
73.6093
21
-53.7856
0
LINE
8
BLACK
6
CONTINUOUS
10
73.6093
20
-53.7856
11
73.3656
21
-54.0293
0
LINE
8
BLACK
6
CONTINUOUS
10
73.3656
20
-54.0293
11
73.0789
21
-54.2208
0
LINE
8
BLACK
6
CONTINUOUS
10
73.0789
20
-54.2208
11
72.7605
21
-54.3527
0
LINE
8
BLACK
6
CONTINUOUS
10
72.7605
20
-54.3527
11
72.4224
21
-54.42
0
LINE
8
BLACK
6
CONTINUOUS
10
72.4224
20
-54.42
11
72.0776
21
-54.42
0
LINE
8
BLACK
6
CONTINUOUS
10
72.0776
20
-54.42
11
71.7395
21
-54.3527
0
LINE
8
BLACK
6
CONTINUOUS
10
71.7395
20
-54.3527
11
71.4211
21
-54.2208
0
LINE
8
BLACK
6
CONTINUOUS
10
71.4211
20
-54.2208
11
71.1344
21
-54.0293
0
LINE
8
BLACK
6
CONTINUOUS
10
71.1344
20
-54.0293
11
70.8907
21
-53.7856
0
LINE
8
BLACK
6
CONTINUOUS
10
70.8907
20
-53.7856
11
70.6992
21
-53.4989
0
LINE
8
BLACK
6
CONTINUOUS
10
70.6992
20
-53.4989
11
70.5673
21
-53.1805
0
LINE
8
BLACK
6
CONTINUOUS
10
70.5673
20
-53.1805
11
70.5
21
-52.8424
0
LINE
8
BLACK
6
CONTINUOUS
10
70.5
20
-52.8424
11
70.5
21
-52.4976
0
LINE
8
BLACK
6
CONTINUOUS
10
70.5
20
-52.4976
11
70.5673
21
-52.1595
0
LINE
8
BLACK
6
CONTINUOUS
10
70.5673
20
-52.1595
11
70.6992
21
-51.8411
0
LINE
8
BLACK
6
CONTINUOUS
10
70.6992
20
-51.8411
11
70.8907
21
-51.5544
0
LINE
8
BLACK
6
CONTINUOUS
10
70.8907
20
-51.5544
11
71.1344
21
-51.3107
0
LINE
8
BLACK
6
CONTINUOUS
10
71.1344
20
-51.3107
11
71.4211
21
-51.1192
0
LINE
8
BLACK
6
CONTINUOUS
10
71.4211
20
-51.1192
11
71.7395
21
-50.9873
0
LINE
8
BLACK
6
CONTINUOUS
10
71.7395
20
-50.9873
11
72.0776
21
-50.92
0
LINE
8
BLACK
6
CONTINUOUS
10
72.0776
20
-50.92
11
72.4224
21
-50.92
0
LINE
8
BLACK
6
CONTINUOUS
10
72.4224
20
-50.92
11
72.7605
21
-50.9873
0
LINE
8
BLACK
6
CONTINUOUS
10
196.971
20
-91.2079
11
196.857
21
-90.8309
0
LINE
8
BLACK
6
CONTINUOUS
10
196.857
20
-90.8309
11
196.671
21
-90.4835
0
LINE
8
BLACK
6
CONTINUOUS
10
196.671
20
-90.4835
11
196.421
21
-90.1789
0
LINE
8
BLACK
6
CONTINUOUS
10
196.421
20
-90.1789
11
196.117
21
-89.929
0
LINE
8
BLACK
6
CONTINUOUS
10
196.117
20
-89.929
11
195.769
21
-89.7433
0
LINE
8
BLACK
6
CONTINUOUS
10
195.769
20
-89.7433
11
195.392
21
-89.6289
0
LINE
8
BLACK
6
CONTINUOUS
10
195.392
20
-89.6289
11
194.997
21
-89.59
0
LINE
8
BLACK
6
CONTINUOUS
10
194.997
20
-89.59
11
194.923
21
-89.59
0
LINE
8
BLACK
6
CONTINUOUS
10
194.923
20
-89.59
11
194.923
21
-89.59
0
LINE
8
BLACK
6
CONTINUOUS
10
194.923
20
-89.59
11
194.923
21
-89.59
0
LINE
8
BLACK
6
CONTINUOUS
10
194.923
20
-89.59
11
194.923
21
-89.59
0
LINE
8
BLACK
6
CONTINUOUS
10
194.923
20
-89.59
11
194.923
21
-89.59
0
LINE
8
BLACK
6
CONTINUOUS
10
194.923
20
-89.59
11
194.917
21
-89.5893
0
LINE
8
BLACK
6
CONTINUOUS
10
194.917
20
-89.5893
11
194.911
21
-89.5887
0
LINE
8
BLACK
6
CONTINUOUS
10
194.911
20
-89.5887
11
194.911
21
-89.5887
0
LINE
8
BLACK
6
CONTINUOUS
10
194.911
20
-89.5887
11
194.91
21
-89.5886
0
LINE
8
BLACK
6
CONTINUOUS
10
194.91
20
-89.5886
11
194.905
21
-89.5868
0
LINE
8
BLACK
6
CONTINUOUS
10
194.905
20
-89.5868
11
194.899
21
-89.5851
0
LINE
8
BLACK
6
CONTINUOUS
10
194.899
20
-89.5851
11
194.899
21
-89.5849
0
LINE
8
BLACK
6
CONTINUOUS
10
194.899
20
-89.5849
11
194.898
21
-89.5849
0
LINE
8
BLACK
6
CONTINUOUS
10
194.898
20
-89.5849
11
194.893
21
-89.582
0
LINE
8
BLACK
6
CONTINUOUS
10
194.893
20
-89.582
11
194.888
21
-89.5792
0
LINE
8
BLACK
6
CONTINUOUS
10
194.888
20
-89.5792
11
194.888
21
-89.579
0
LINE
8
BLACK
6
CONTINUOUS
10
194.888
20
-89.579
11
194.888
21
-89.5789
0
LINE
8
BLACK
6
CONTINUOUS
10
194.888
20
-89.5789
11
194.883
21
-89.5751
0
LINE
8
BLACK
6
CONTINUOUS
10
194.883
20
-89.5751
11
194.878
21
-89.5713
0
LINE
8
BLACK
6
CONTINUOUS
10
194.878
20
-89.5713
11
194.878
21
-89.5711
0
LINE
8
BLACK
6
CONTINUOUS
10
194.878
20
-89.5711
11
194.878
21
-89.5709
0
LINE
8
BLACK
6
CONTINUOUS
10
194.878
20
-89.5709
11
194.874
21
-89.5662
0
LINE
8
BLACK
6
CONTINUOUS
10
194.874
20
-89.5662
11
194.871
21
-89.5617
0
LINE
8
BLACK
6
CONTINUOUS
10
194.871
20
-89.5617
11
194.871
21
-89.5615
0
LINE
8
BLACK
6
CONTINUOUS
10
194.871
20
-89.5615
11
194.87
21
-89.5613
0
LINE
8
BLACK
6
CONTINUOUS
10
194.87
20
-89.5613
11
194.868
21
-89.5559
0
LINE
8
BLACK
6
CONTINUOUS
10
194.868
20
-89.5559
11
194.865
21
-89.5507
0
LINE
8
BLACK
6
CONTINUOUS
10
194.865
20
-89.5507
11
194.865
21
-89.5505
0
LINE
8
BLACK
6
CONTINUOUS
10
194.865
20
-89.5505
11
194.865
21
-89.5503
0
LINE
8
BLACK
6
CONTINUOUS
10
194.865
20
-89.5503
11
194.863
21
-89.5446
0
LINE
8
BLACK
6
CONTINUOUS
10
194.863
20
-89.5446
11
194.861
21
-89.5388
0
LINE
8
BLACK
6
CONTINUOUS
10
194.861
20
-89.5388
11
194.861
21
-89.5386
0
LINE
8
BLACK
6
CONTINUOUS
10
194.861
20
-89.5386
11
194.861
21
-89.5384
0
LINE
8
BLACK
6
CONTINUOUS
10
194.861
20
-89.5384
11
194.861
21
-89.5325
0
LINE
8
BLACK
6
CONTINUOUS
10
194.861
20
-89.5325
11
194.86
21
-89.5265
0
LINE
8
BLACK
6
CONTINUOUS
10
194.86
20
-89.5265
11
194.86
21
-60.9735
0
LINE
8
BLACK
6
CONTINUOUS
10
194.86
20
-60.9735
11
194.86
21
-60.9731
0
LINE
8
BLACK
6
CONTINUOUS
10
194.86
20
-60.9731
11
194.86
21
-60.973
0
LINE
8
BLACK
6
CONTINUOUS
10
194.86
20
-60.973
11
194.86
21
-60.973
0
LINE
8
BLACK
6
CONTINUOUS
10
194.86
20
-60.973
11
194.86
21
-60.9726
0
LINE
8
BLACK
6
CONTINUOUS
10
194.86
20
-60.9726
11
194.861
21
-60.9666
0
LINE
8
BLACK
6
CONTINUOUS
10
194.861
20
-60.9666
11
194.861
21
-60.9607
0
LINE
8
BLACK
6
CONTINUOUS
10
194.861
20
-60.9607
11
194.861
21
-60.9605
0
LINE
8
BLACK
6
CONTINUOUS
10
194.861
20
-60.9605
11
194.861
21
-60.9603
0
LINE
8
BLACK
6
CONTINUOUS
10
194.861
20
-60.9603
11
194.863
21
-60.9546
0
LINE
8
BLACK
6
CONTINUOUS
10
194.863
20
-60.9546
11
194.865
21
-60.9489
0
LINE
8
BLACK
6
CONTINUOUS
10
194.865
20
-60.9489
11
194.865
21
-60.9487
0
LINE
8
BLACK
6
CONTINUOUS
10
194.865
20
-60.9487
11
194.865
21
-60.9485
0
LINE
8
BLACK
6
CONTINUOUS
10
194.865
20
-60.9485
11
194.868
21
-60.9432
0
LINE
8
BLACK
6
CONTINUOUS
10
194.868
20
-60.9432
11
194.871
21
-60.938
0
LINE
8
BLACK
6
CONTINUOUS
10
194.871
20
-60.938
11
194.871
21
-60.9378
0
LINE
8
BLACK
6
CONTINUOUS
10
194.871
20
-60.9378
11
194.871
21
-60.9376
0
LINE
8
BLACK
6
CONTINUOUS
10
194.871
20
-60.9376
11
194.875
21
-60.933
0
LINE
8
BLACK
6
CONTINUOUS
10
194.875
20
-60.933
11
194.879
21
-60.9284
0
LINE
8
BLACK
6
CONTINUOUS
10
194.879
20
-60.9284
11
194.879
21
-60.9283
0
LINE
8
BLACK
6
CONTINUOUS
10
194.879
20
-60.9283
11
194.879
21
-60.9281
0
LINE
8
BLACK
6
CONTINUOUS
10
194.879
20
-60.9281
11
194.884
21
-60.9243
0
LINE
8
BLACK
6
CONTINUOUS
10
194.884
20
-60.9243
11
194.888
21
-60.9206
0
LINE
8
BLACK
6
CONTINUOUS
10
194.888
20
-60.9206
11
194.889
21
-60.9205
0
LINE
8
BLACK
6
CONTINUOUS
10
194.889
20
-60.9205
11
194.889
21
-60.9203
0
LINE
8
BLACK
6
CONTINUOUS
10
194.889
20
-60.9203
11
194.894
21
-60.9176
0
LINE
8
BLACK
6
CONTINUOUS
10
194.894
20
-60.9176
11
194.899
21
-60.9148
0
LINE
8
BLACK
6
CONTINUOUS
10
194.899
20
-60.9148
11
194.9
21
-60.9147
0
LINE
8
BLACK
6
CONTINUOUS
10
194.9
20
-60.9147
11
194.9
21
-60.9146
0
LINE
8
BLACK
6
CONTINUOUS
10
194.9
20
-60.9146
11
194.905
21
-60.9129
0
LINE
8
BLACK
6
CONTINUOUS
10
194.905
20
-60.9129
11
194.911
21
-60.9112
0
LINE
8
BLACK
6
CONTINUOUS
10
194.911
20
-60.9112
11
194.911
21
-60.9112
0
LINE
8
BLACK
6
CONTINUOUS
10
194.911
20
-60.9112
11
194.912
21
-60.9111
0
LINE
8
BLACK
6
CONTINUOUS
10
194.912
20
-60.9111
11
194.917
21
-60.9106
0
LINE
8
BLACK
6
CONTINUOUS
10
194.917
20
-60.9106
11
194.923
21
-60.91
0
LINE
8
BLACK
6
CONTINUOUS
10
194.923
20
-60.91
11
194.997
21
-60.91
0
LINE
8
BLACK
6
CONTINUOUS
10
194.997
20
-60.91
11
195.392
21
-60.8711
0
LINE
8
BLACK
6
CONTINUOUS
10
195.392
20
-60.8711
11
195.769
21
-60.7567
0
LINE
8
BLACK
6
CONTINUOUS
10
195.769
20
-60.7567
11
196.117
21
-60.571
0
LINE
8
BLACK
6
CONTINUOUS
10
196.117
20
-60.571
11
196.421
21
-60.3211
0
LINE
8
BLACK
6
CONTINUOUS
10
196.421
20
-60.3211
11
196.671
21
-60.0165
0
LINE
8
BLACK
6
CONTINUOUS
10
196.671
20
-60.0165
11
196.725
21
-59.9146
0
LINE
8
BLACK
6
CONTINUOUS
10
196.725
20
-59.9146
11
196.725
21
-59.9146
0
LINE
8
BLACK
6
CONTINUOUS
10
196.725
20
-59.9146
11
196.857
21
-59.6691
0
LINE
8
BLACK
6
CONTINUOUS
10
196.857
20
-59.6691
11
196.971
21
-59.2921
0
LINE
8
BLACK
6
CONTINUOUS
10
196.971
20
-59.2921
11
197.01
21
-58.8969
0
LINE
8
BLACK
6
CONTINUOUS
10
197.01
20
-58.8969
11
197.01
21
-51.1031
0
LINE
8
BLACK
6
CONTINUOUS
10
197.01
20
-51.1031
11
196.971
21
-50.7079
0
LINE
8
BLACK
6
CONTINUOUS
10
196.971
20
-50.7079
11
196.857
21
-50.3309
0
LINE
8
BLACK
6
CONTINUOUS
10
196.857
20
-50.3309
11
196.671
21
-49.9835
0
LINE
8
BLACK
6
CONTINUOUS
10
196.671
20
-49.9835
11
196.421
21
-49.6789
0
LINE
8
BLACK
6
CONTINUOUS
10
196.421
20
-49.6789
11
196.117
21
-49.429
0
LINE
8
BLACK
6
CONTINUOUS
10
196.117
20
-49.429
11
195.769
21
-49.2433
0
LINE
8
BLACK
6
CONTINUOUS
10
195.769
20
-49.2433
11
195.69
21
-49.2193
0
LINE
8
BLACK
6
CONTINUOUS
10
195.69
20
-49.2193
11
195.689
21
-49.219
0
LINE
8
BLACK
6
CONTINUOUS
10
195.689
20
-49.219
11
195.686
21
-49.2178
0
LINE
8
BLACK
6
CONTINUOUS
10
195.686
20
-49.2178
11
195.683
21
-49.2169
0
LINE
8
BLACK
6
CONTINUOUS
10
195.683
20
-49.2169
11
195.68
21
-49.2153
0
LINE
8
BLACK
6
CONTINUOUS
10
195.68
20
-49.2153
11
195.678
21
-49.2141
0
LINE
8
BLACK
6
CONTINUOUS
10
195.678
20
-49.2141
11
195.675
21
-49.2124
0
LINE
8
BLACK
6
CONTINUOUS
10
195.675
20
-49.2124
11
195.672
21
-49.2109
0
LINE
8
BLACK
6
CONTINUOUS
10
195.672
20
-49.2109
11
195.67
21
-49.2089
0
LINE
8
BLACK
6
CONTINUOUS
10
195.67
20
-49.2089
11
195.667
21
-49.2071
0
LINE
8
BLACK
6
CONTINUOUS
10
195.667
20
-49.2071
11
195.665
21
-49.2049
0
LINE
8
BLACK
6
CONTINUOUS
10
195.665
20
-49.2049
11
195.663
21
-49.2029
0
LINE
8
BLACK
6
CONTINUOUS
10
195.663
20
-49.2029
11
195.661
21
-49.2005
0
LINE
8
BLACK
6
CONTINUOUS
10
195.661
20
-49.2005
11
195.659
21
-49.1982
0
LINE
8
BLACK
6
CONTINUOUS
10
195.659
20
-49.1982
11
195.657
21
-49.1957
0
LINE
8
BLACK
6
CONTINUOUS
10
195.657
20
-49.1957
11
195.655
21
-49.1933
0
LINE
8
BLACK
6
CONTINUOUS
10
195.655
20
-49.1933
11
195.654
21
-49.1905
0
LINE
8
BLACK
6
CONTINUOUS
10
195.654
20
-49.1905
11
195.652
21
-49.1878
0
LINE
8
BLACK
6
CONTINUOUS
10
195.652
20
-49.1878
11
195.651
21
-49.185
0
LINE
8
BLACK
6
CONTINUOUS
10
195.651
20
-49.185
11
195.649
21
-49.1823
0
LINE
8
BLACK
6
CONTINUOUS
10
195.649
20
-49.1823
11
195.649
21
-49.1793
0
LINE
8
BLACK
6
CONTINUOUS
10
195.649
20
-49.1793
11
195.647
21
-49.1763
0
LINE
8
BLACK
6
CONTINUOUS
10
195.647
20
-49.1763
11
195.647
21
-49.1733
0
LINE
8
BLACK
6
CONTINUOUS
10
195.647
20
-49.1733
11
195.646
21
-49.1704
0
LINE
8
BLACK
6
CONTINUOUS
10
195.646
20
-49.1704
11
195.646
21
-49.1673
0
LINE
8
BLACK
6
CONTINUOUS
10
195.646
20
-49.1673
11
195.645
21
-49.1642
0
LINE
8
BLACK
6
CONTINUOUS
10
195.645
20
-49.1642
11
195.645
21
-49.1611
0
LINE
8
BLACK
6
CONTINUOUS
10
195.645
20
-49.1611
11
195.645
21
-49.1581
0
LINE
8
BLACK
6
CONTINUOUS
10
195.645
20
-49.1581
11
195.645
21
-49.1549
0
LINE
8
BLACK
6
CONTINUOUS
10
195.645
20
-49.1549
11
195.645
21
-49.1518
0
LINE
8
BLACK
6
CONTINUOUS
10
195.645
20
-49.1518
11
195.646
21
-49.1488
0
LINE
8
BLACK
6
CONTINUOUS
10
195.646
20
-49.1488
11
195.646
21
-49.1457
0
LINE
8
BLACK
6
CONTINUOUS
10
195.646
20
-49.1457
11
195.647
21
-49.1427
0
LINE
8
BLACK
6
CONTINUOUS
10
195.647
20
-49.1427
11
195.648
21
-49.1396
0
LINE
8
BLACK
6
CONTINUOUS
10
195.648
20
-49.1396
11
195.649
21
-49.1368
0
LINE
8
BLACK
6
CONTINUOUS
10
195.649
20
-49.1368
11
195.65
21
-49.1339
0
LINE
8
BLACK
6
CONTINUOUS
10
195.65
20
-49.1339
11
195.651
21
-49.1311
0
LINE
8
BLACK
6
CONTINUOUS
10
195.651
20
-49.1311
11
195.652
21
-49.1282
0
LINE
8
BLACK
6
CONTINUOUS
10
195.652
20
-49.1282
11
195.654
21
-49.1257
0
LINE
8
BLACK
6
CONTINUOUS
10
195.654
20
-49.1257
11
195.656
21
-49.123
0
LINE
8
BLACK
6
CONTINUOUS
10
195.656
20
-49.123
11
195.658
21
-49.1206
0
LINE
8
BLACK
6
CONTINUOUS
10
195.658
20
-49.1206
11
195.659
21
-49.118
0
LINE
8
BLACK
6
CONTINUOUS
10
195.659
20
-49.118
11
195.662
21
-49.1158
0
LINE
8
BLACK
6
CONTINUOUS
10
195.662
20
-49.1158
11
195.664
21
-49.1134
0
LINE
8
BLACK
6
CONTINUOUS
10
195.664
20
-49.1134
11
195.666
21
-49.1115
0
LINE
8
BLACK
6
CONTINUOUS
10
195.666
20
-49.1115
11
195.668
21
-49.1092
0
LINE
8
BLACK
6
CONTINUOUS
10
195.668
20
-49.1092
11
195.671
21
-49.1075
0
LINE
8
BLACK
6
CONTINUOUS
10
195.671
20
-49.1075
11
195.673
21
-49.1056
0
LINE
8
BLACK
6
CONTINUOUS
10
195.673
20
-49.1056
11
195.676
21
-49.1041
0
LINE
8
BLACK
6
CONTINUOUS
10
195.676
20
-49.1041
11
195.679
21
-49.1024
0
LINE
8
BLACK
6
CONTINUOUS
10
195.679
20
-49.1024
11
195.681
21
-49.1012
0
LINE
8
BLACK
6
CONTINUOUS
10
195.681
20
-49.1012
11
195.684
21
-49.0998
0
LINE
8
BLACK
6
CONTINUOUS
10
195.684
20
-49.0998
11
195.687
21
-49.0989
0
LINE
8
BLACK
6
CONTINUOUS
10
195.687
20
-49.0989
11
195.69
21
-49.0977
0
LINE
8
BLACK
6
CONTINUOUS
10
195.69
20
-49.0977
11
195.693
21
-49.0971
0
LINE
8
BLACK
6
CONTINUOUS
10
195.693
20
-49.0971
11
195.696
21
-49.0962
0
LINE
8
BLACK
6
CONTINUOUS
10
195.696
20
-49.0962
11
195.699
21
-49.0959
0
LINE
8
BLACK
6
CONTINUOUS
10
195.699
20
-49.0959
11
195.702
21
-49.0953
0
LINE
8
BLACK
6
CONTINUOUS
10
195.702
20
-49.0953
11
195.705
21
-49.0953
0
LINE
8
BLACK
6
CONTINUOUS
10
195.705
20
-49.0953
11
195.708
21
-49.095
0
LINE
8
BLACK
6
CONTINUOUS
10
195.708
20
-49.095
11
228.596
21
-49.095
0
LINE
8
BLACK
6
CONTINUOUS
10
228.596
20
-49.095
11
228.597
21
-49.095
0
LINE
8
BLACK
6
CONTINUOUS
10
228.597
20
-49.095
11
228.599
21
-49.0953
0
LINE
8
BLACK
6
CONTINUOUS
10
228.599
20
-49.0953
11
228.602
21
-49.0953
0
LINE
8
BLACK
6
CONTINUOUS
10
228.602
20
-49.0953
11
229.315
21
-49.1652
0
LINE
8
BLACK
6
CONTINUOUS
10
229.315
20
-49.1652
11
229.316
21
-49.1653
0
LINE
8
BLACK
6
CONTINUOUS
10
229.316
20
-49.1653
11
229.322
21
-49.1665
0
LINE
8
BLACK
6
CONTINUOUS
10
229.322
20
-49.1665
11
229.328
21
-49.1677
0
LINE
8
BLACK
6
CONTINUOUS
10
229.328
20
-49.1677
11
230
21
-49.3707
0
LINE
8
BLACK
6
CONTINUOUS
10
230
20
-49.3707
11
230.001
21
-49.371
0
LINE
8
BLACK
6
CONTINUOUS
10
230.001
20
-49.371
11
230.006
21
-49.3733
0
LINE
8
BLACK
6
CONTINUOUS
10
230.006
20
-49.3733
11
230.012
21
-49.3755
0
LINE
8
BLACK
6
CONTINUOUS
10
230.012
20
-49.3755
11
230.632
21
-49.7053
0
LINE
8
BLACK
6
CONTINUOUS
10
230.632
20
-49.7053
11
230.632
21
-49.7053
0
LINE
8
BLACK
6
CONTINUOUS
10
230.632
20
-49.7053
11
230.632
21
-49.7053
0
LINE
8
BLACK
6
CONTINUOUS
10
230.632
20
-49.7053
11
230.633
21
-49.7057
0
LINE
8
BLACK
6
CONTINUOUS
10
230.633
20
-49.7057
11
230.638
21
-49.709
0
LINE
8
BLACK
6
CONTINUOUS
10
230.638
20
-49.709
11
230.642
21
-49.7122
0
LINE
8
BLACK
6
CONTINUOUS
10
230.642
20
-49.7122
11
231.187
21
-50.1563
0
LINE
8
BLACK
6
CONTINUOUS
10
231.187
20
-50.1563
11
231.188
21
-50.1568
0
LINE
8
BLACK
6
CONTINUOUS
10
231.188
20
-50.1568
11
231.192
21
-50.1609
0
LINE
8
BLACK
6
CONTINUOUS
10
231.192
20
-50.1609
11
231.196
21
-50.165
0
LINE
8
BLACK
6
CONTINUOUS
10
231.196
20
-50.165
11
231.644
21
-50.7064
0
LINE
8
BLACK
6
CONTINUOUS
10
231.644
20
-50.7064
11
231.644
21
-50.7064
0
LINE
8
BLACK
6
CONTINUOUS
10
231.644
20
-50.7064
11
231.644
21
-50.7064
0
LINE
8
BLACK
6
CONTINUOUS
10
231.644
20
-50.7064
11
231.644
21
-50.7071
0
LINE
8
BLACK
6
CONTINUOUS
10
231.644
20
-50.7071
11
231.647
21
-50.7118
0
LINE
8
BLACK
6
CONTINUOUS
10
231.647
20
-50.7118
11
231.65
21
-50.7166
0
LINE
8
BLACK
6
CONTINUOUS
10
231.65
20
-50.7166
11
231.985
21
-51.3347
0
LINE
8
BLACK
6
CONTINUOUS
10
231.985
20
-51.3347
11
231.985
21
-51.3355
0
LINE
8
BLACK
6
CONTINUOUS
10
231.985
20
-51.3355
11
231.987
21
-51.3408
0
LINE
8
BLACK
6
CONTINUOUS
10
231.987
20
-51.3408
11
231.989
21
-51.3461
0
LINE
8
BLACK
6
CONTINUOUS
10
231.989
20
-51.3461
11
232.197
21
-52.0173
0
LINE
8
BLACK
6
CONTINUOUS
10
232.197
20
-52.0173
11
232.197
21
-52.0173
0
LINE
8
BLACK
6
CONTINUOUS
10
232.197
20
-52.0173
11
232.197
21
-52.0173
0
LINE
8
BLACK
6
CONTINUOUS
10
232.197
20
-52.0173
11
232.198
21
-52.0182
0
LINE
8
BLACK
6
CONTINUOUS
10
232.198
20
-52.0182
11
232.199
21
-52.0238
0
LINE
8
BLACK
6
CONTINUOUS
10
232.199
20
-52.0238
11
232.2
21
-52.0295
0
LINE
8
BLACK
6
CONTINUOUS
10
232.2
20
-52.0295
11
232.275
21
-52.7418
0
LINE
8
BLACK
6
CONTINUOUS
10
232.275
20
-52.7418
11
232.275
21
-52.7427
0
LINE
8
BLACK
6
CONTINUOUS
10
232.275
20
-52.7427
11
232.275
21
-52.7455
0
LINE
8
BLACK
6
CONTINUOUS
10
232.275
20
-52.7455
11
232.275
21
-52.7482
0
LINE
8
BLACK
6
CONTINUOUS
10
232.275
20
-52.7482
11
232.275
21
-52.7602
0
LINE
8
BLACK
6
CONTINUOUS
10
232.275
20
-52.7602
11
232.275
21
-52.7604
0
LINE
8
BLACK
6
CONTINUOUS
10
232.275
20
-52.7604
11
232.275
21
-52.7604
0
LINE
8
BLACK
6
CONTINUOUS
10
232.275
20
-52.7604
11
232.275
21
-96.0959
0
LINE
8
BLACK
6
CONTINUOUS
10
232.275
20
-96.0959
11
232.275
21
-96.0968
0
LINE
8
BLACK
6
CONTINUOUS
10
232.275
20
-96.0968
11
232.275
21
-96.0994
0
LINE
8
BLACK
6
CONTINUOUS
10
232.275
20
-96.0994
11
232.275
21
-96.1021
0
LINE
8
BLACK
6
CONTINUOUS
10
232.275
20
-96.1021
11
232.205
21
-96.8155
0
LINE
8
BLACK
6
CONTINUOUS
10
232.205
20
-96.8155
11
232.205
21
-96.8163
0
LINE
8
BLACK
6
CONTINUOUS
10
232.205
20
-96.8163
11
232.203
21
-96.8219
0
LINE
8
BLACK
6
CONTINUOUS
10
232.203
20
-96.8219
11
232.202
21
-96.8276
0
LINE
8
BLACK
6
CONTINUOUS
10
232.202
20
-96.8276
11
231.999
21
-97.5003
0
LINE
8
BLACK
6
CONTINUOUS
10
231.999
20
-97.5003
11
231.999
21
-97.5011
0
LINE
8
BLACK
6
CONTINUOUS
10
231.999
20
-97.5011
11
231.997
21
-97.5064
0
LINE
8
BLACK
6
CONTINUOUS
10
231.997
20
-97.5064
11
231.995
21
-97.5117
0
LINE
8
BLACK
6
CONTINUOUS
10
231.995
20
-97.5117
11
231.665
21
-98.1321
0
LINE
8
BLACK
6
CONTINUOUS
10
231.665
20
-98.1321
11
231.665
21
-98.1321
0
LINE
8
BLACK
6
CONTINUOUS
10
231.665
20
-98.1321
11
231.665
21
-98.1321
0
LINE
8
BLACK
6
CONTINUOUS
10
231.665
20
-98.1321
11
231.664
21
-98.1329
0
LINE
8
BLACK
6
CONTINUOUS
10
231.664
20
-98.1329
11
231.661
21
-98.1376
0
LINE
8
BLACK
6
CONTINUOUS
10
231.661
20
-98.1376
11
231.658
21
-98.1424
0
LINE
8
BLACK
6
CONTINUOUS
10
231.658
20
-98.1424
11
231.214
21
-98.6869
0
LINE
8
BLACK
6
CONTINUOUS
10
231.214
20
-98.6869
11
231.213
21
-98.6876
0
LINE
8
BLACK
6
CONTINUOUS
10
231.213
20
-98.6876
11
231.209
21
-98.6916
0
LINE
8
BLACK
6
CONTINUOUS
10
231.209
20
-98.6916
11
231.205
21
-98.6957
0
LINE
8
BLACK
6
CONTINUOUS
10
231.205
20
-98.6957
11
230.664
21
-99.1436
0
LINE
8
BLACK
6
CONTINUOUS
10
230.664
20
-99.1436
11
230.664
21
-99.1436
0
LINE
8
BLACK
6
CONTINUOUS
10
230.664
20
-99.1436
11
230.664
21
-99.1436
0
LINE
8
BLACK
6
CONTINUOUS
10
230.664
20
-99.1436
11
230.663
21
-99.1441
0
LINE
8
BLACK
6
CONTINUOUS
10
230.663
20
-99.1441
11
230.658
21
-99.1472
0
LINE
8
BLACK
6
CONTINUOUS
10
230.658
20
-99.1472
11
230.653
21
-99.1505
0
LINE
8
BLACK
6
CONTINUOUS
10
230.653
20
-99.1505
11
230.035
21
-99.4847
0
LINE
8
BLACK
6
CONTINUOUS
10
230.035
20
-99.4847
11
230.035
21
-99.4851
0
LINE
8
BLACK
6
CONTINUOUS
10
230.035
20
-99.4851
11
230.029
21
-99.4872
0
LINE
8
BLACK
6
CONTINUOUS
10
230.029
20
-99.4872
11
230.024
21
-99.4895
0
LINE
8
BLACK
6
CONTINUOUS
10
230.024
20
-99.4895
11
229.353
21
-99.6972
0
LINE
8
BLACK
6
CONTINUOUS
10
229.353
20
-99.6972
11
229.353
21
-99.6972
0
LINE
8
BLACK
6
CONTINUOUS
10
229.353
20
-99.6972
11
229.353
21
-99.6972
0
LINE
8
BLACK
6
CONTINUOUS
10
229.353
20
-99.6972
11
229.352
21
-99.6975
0
LINE
8
BLACK
6
CONTINUOUS
10
229.352
20
-99.6975
11
229.346
21
-99.6986
0
LINE
8
BLACK
6
CONTINUOUS
10
229.346
20
-99.6986
11
229.341
21
-99.6997
0
LINE
8
BLACK
6
CONTINUOUS
10
229.341
20
-99.6997
11
228.628
21
-99.7746
0
LINE
8
BLACK
6
CONTINUOUS
10
228.628
20
-99.7746
11
228.627
21
-99.7747
0
LINE
8
BLACK
6
CONTINUOUS
10
228.627
20
-99.7747
11
228.625
21
-99.7747
0
LINE
8
BLACK
6
CONTINUOUS
10
228.625
20
-99.7747
11
228.622
21
-99.775
0
LINE
8
BLACK
6
CONTINUOUS
10
228.622
20
-99.775
11
228.61
21
-99.775
0
LINE
8
BLACK
6
CONTINUOUS
10
228.61
20
-99.775
11
228.61
21
-99.775
0
LINE
8
BLACK
6
CONTINUOUS
10
228.61
20
-99.775
11
228.61
21
-99.775
0
LINE
8
BLACK
6
CONTINUOUS
10
228.61
20
-99.775
11
197.043
21
-99.775
0
LINE
8
BLACK
6
CONTINUOUS
10
197.043
20
-99.775
11
197.042
21
-99.775
0
LINE
8
BLACK
6
CONTINUOUS
10
197.042
20
-99.775
11
197.039
21
-99.7747
0
LINE
8
BLACK
6
CONTINUOUS
10
197.039
20
-99.7747
11
197.036
21
-99.7746
0
LINE
8
BLACK
6
CONTINUOUS
10
197.036
20
-99.7746
11
197.033
21
-99.774
0
LINE
8
BLACK
6
CONTINUOUS
10
197.033
20
-99.774
11
197.03
21
-99.7736
0
LINE
8
BLACK
6
CONTINUOUS
10
197.03
20
-99.7736
11
197.027
21
-99.7727
0
LINE
8
BLACK
6
CONTINUOUS
10
197.027
20
-99.7727
11
197.024
21
-99.7722
0
LINE
8
BLACK
6
CONTINUOUS
10
197.024
20
-99.7722
11
197.021
21
-99.7709
0
LINE
8
BLACK
6
CONTINUOUS
10
197.021
20
-99.7709
11
197.018
21
-99.7699
0
LINE
8
BLACK
6
CONTINUOUS
10
197.018
20
-99.7699
11
197.015
21
-99.7685
0
LINE
8
BLACK
6
CONTINUOUS
10
197.015
20
-99.7685
11
197.013
21
-99.7673
0
LINE
8
BLACK
6
CONTINUOUS
10
197.013
20
-99.7673
11
197.01
21
-99.7655
0
LINE
8
BLACK
6
CONTINUOUS
10
197.01
20
-99.7655
11
197.007
21
-99.7639
0
LINE
8
BLACK
6
CONTINUOUS
10
197.007
20
-99.7639
11
197.005
21
-99.762
0
LINE
8
BLACK
6
CONTINUOUS
10
197.005
20
-99.762
11
197.002
21
-99.7604
0
LINE
8
BLACK
6
CONTINUOUS
10
197.002
20
-99.7604
11
197
21
-99.7581
0
LINE
8
BLACK
6
CONTINUOUS
10
197
20
-99.7581
11
196.997
21
-99.7559
0
LINE
8
BLACK
6
CONTINUOUS
10
196.997
20
-99.7559
11
196.996
21
-99.7537
0
LINE
8
BLACK
6
CONTINUOUS
10
196.996
20
-99.7537
11
196.994
21
-99.7516
0
LINE
8
BLACK
6
CONTINUOUS
10
196.994
20
-99.7516
11
196.992
21
-99.7489
0
LINE
8
BLACK
6
CONTINUOUS
10
196.992
20
-99.7489
11
196.99
21
-99.7463
0
LINE
8
BLACK
6
CONTINUOUS
10
196.99
20
-99.7463
11
196.988
21
-99.7437
0
LINE
8
BLACK
6
CONTINUOUS
10
196.988
20
-99.7437
11
196.987
21
-99.7413
0
LINE
8
BLACK
6
CONTINUOUS
10
196.987
20
-99.7413
11
196.985
21
-99.7382
0
LINE
8
BLACK
6
CONTINUOUS
10
196.985
20
-99.7382
11
196.984
21
-99.7353
0
LINE
8
BLACK
6
CONTINUOUS
10
196.984
20
-99.7353
11
196.983
21
-99.7325
0
LINE
8
BLACK
6
CONTINUOUS
10
196.983
20
-99.7325
11
196.982
21
-99.7298
0
LINE
8
BLACK
6
CONTINUOUS
10
196.982
20
-99.7298
11
196.981
21
-99.7266
0
LINE
8
BLACK
6
CONTINUOUS
10
196.981
20
-99.7266
11
196.98
21
-99.7234
0
LINE
8
BLACK
6
CONTINUOUS
10
196.98
20
-99.7234
11
196.98
21
-99.7205
0
LINE
8
BLACK
6
CONTINUOUS
10
196.98
20
-99.7205
11
196.98
21
-99.7177
0
LINE
8
BLACK
6
CONTINUOUS
10
196.98
20
-99.7177
11
196.98
21
-99.7143
0
LINE
8
BLACK
6
CONTINUOUS
10
196.98
20
-99.7143
11
196.979
21
-99.7111
0
LINE
8
BLACK
6
CONTINUOUS
10
196.979
20
-99.7111
11
196.98
21
-99.7082
0
LINE
8
BLACK
6
CONTINUOUS
10
196.98
20
-99.7082
11
196.98
21
-99.7053
0
LINE
8
BLACK
6
CONTINUOUS
10
196.98
20
-99.7053
11
197.01
21
-99.3969
0
LINE
8
BLACK
6
CONTINUOUS
10
197.01
20
-99.3969
11
197.01
21
-91.6031
0
LINE
8
BLACK
6
CONTINUOUS
10
197.01
20
-91.6031
11
196.971
21
-91.2079
0
LINE
8
BLACK
6
CONTINUOUS
10
227.455
20
-93.2
11
226.875
21
-93.3153
0
LINE
8
BLACK
6
CONTINUOUS
10
226.875
20
-93.3153
11
226.329
21
-93.5414
0
LINE
8
BLACK
6
CONTINUOUS
10
226.329
20
-93.5414
11
225.838
21
-93.8697
0
LINE
8
BLACK
6
CONTINUOUS
10
225.838
20
-93.8697
11
225.42
21
-94.2876
0
LINE
8
BLACK
6
CONTINUOUS
10
225.42
20
-94.2876
11
225.091
21
-94.779
0
LINE
8
BLACK
6
CONTINUOUS
10
225.091
20
-94.779
11
224.865
21
-95.3249
0
LINE
8
BLACK
6
CONTINUOUS
10
224.865
20
-95.3249
11
224.75
21
-95.9045
0
LINE
8
BLACK
6
CONTINUOUS
10
224.75
20
-95.9045
11
224.75
21
-96.4955
0
LINE
8
BLACK
6
CONTINUOUS
10
224.75
20
-96.4955
11
224.865
21
-97.0751
0
LINE
8
BLACK
6
CONTINUOUS
10
224.865
20
-97.0751
11
225.091
21
-97.621
0
LINE
8
BLACK
6
CONTINUOUS
10
225.091
20
-97.621
11
225.42
21
-98.1124
0
LINE
8
BLACK
6
CONTINUOUS
10
225.42
20
-98.1124
11
225.838
21
-98.5303
0
LINE
8
BLACK
6
CONTINUOUS
10
225.838
20
-98.5303
11
226.329
21
-98.8586
0
LINE
8
BLACK
6
CONTINUOUS
10
226.329
20
-98.8586
11
226.875
21
-99.0847
0
LINE
8
BLACK
6
CONTINUOUS
10
226.875
20
-99.0847
11
227.455
21
-99.2
0
LINE
8
BLACK
6
CONTINUOUS
10
227.455
20
-99.2
11
228.045
21
-99.2
0
LINE
8
BLACK
6
CONTINUOUS
10
228.045
20
-99.2
11
228.625
21
-99.0847
0
LINE
8
BLACK
6
CONTINUOUS
10
228.625
20
-99.0847
11
229.171
21
-98.8586
0
LINE
8
BLACK
6
CONTINUOUS
10
229.171
20
-98.8586
11
229.662
21
-98.5303
0
LINE
8
BLACK
6
CONTINUOUS
10
229.662
20
-98.5303
11
230.08
21
-98.1124
0
LINE
8
BLACK
6
CONTINUOUS
10
230.08
20
-98.1124
11
230.409
21
-97.621
0
LINE
8
BLACK
6
CONTINUOUS
10
230.409
20
-97.621
11
230.635
21
-97.0751
0
LINE
8
BLACK
6
CONTINUOUS
10
230.635
20
-97.0751
11
230.75
21
-96.4955
0
LINE
8
BLACK
6
CONTINUOUS
10
230.75
20
-96.4955
11
230.75
21
-95.9045
0
LINE
8
BLACK
6
CONTINUOUS
10
230.75
20
-95.9045
11
230.635
21
-95.3249
0
LINE
8
BLACK
6
CONTINUOUS
10
230.635
20
-95.3249
11
230.409
21
-94.779
0
LINE
8
BLACK
6
CONTINUOUS
10
230.409
20
-94.779
11
230.08
21
-94.2876
0
LINE
8
BLACK
6
CONTINUOUS
10
230.08
20
-94.2876
11
229.662
21
-93.8697
0
LINE
8
BLACK
6
CONTINUOUS
10
229.662
20
-93.8697
11
229.171
21
-93.5414
0
LINE
8
BLACK
6
CONTINUOUS
10
229.171
20
-93.5414
11
228.625
21
-93.3153
0
LINE
8
BLACK
6
CONTINUOUS
10
228.625
20
-93.3153
11
228.045
21
-93.2
0
LINE
8
BLACK
6
CONTINUOUS
10
228.045
20
-93.2
11
227.455
21
-93.2
0
LINE
8
BLACK
6
CONTINUOUS
10
199.687
20
-80.34
11
199.676
21
-80.3411
0
LINE
8
BLACK
6
CONTINUOUS
10
199.676
20
-80.3411
11
199.676
21
-80.3411
0
LINE
8
BLACK
6
CONTINUOUS
10
199.676
20
-80.3411
11
199.673
21
-80.3411
0
LINE
8
BLACK
6
CONTINUOUS
10
199.673
20
-80.3411
11
199.669
21
-80.3415
0
LINE
8
BLACK
6
CONTINUOUS
10
199.669
20
-80.3415
11
199.575
21
-80.3513
0
LINE
8
BLACK
6
CONTINUOUS
10
199.575
20
-80.3513
11
199.55
21
-80.3566
0
LINE
8
BLACK
6
CONTINUOUS
10
199.55
20
-80.3566
11
199.549
21
-80.3568
0
LINE
8
BLACK
6
CONTINUOUS
10
199.549
20
-80.3568
11
199.549
21
-80.3568
0
LINE
8
BLACK
6
CONTINUOUS
10
199.549
20
-80.3568
11
199.523
21
-80.3616
0
LINE
8
BLACK
6
CONTINUOUS
10
199.523
20
-80.3616
11
199.522
21
-80.3619
0
LINE
8
BLACK
6
CONTINUOUS
10
199.522
20
-80.3619
11
199.432
21
-80.3898
0
LINE
8
BLACK
6
CONTINUOUS
10
199.432
20
-80.3898
11
199.408
21
-80.3999
0
LINE
8
BLACK
6
CONTINUOUS
10
199.408
20
-80.3999
11
199.407
21
-80.4003
0
LINE
8
BLACK
6
CONTINUOUS
10
199.407
20
-80.4003
11
199.407
21
-80.4003
0
LINE
8
BLACK
6
CONTINUOUS
10
199.407
20
-80.4003
11
199.383
21
-80.41
0
LINE
8
BLACK
6
CONTINUOUS
10
199.383
20
-80.41
11
199.382
21
-80.4104
0
LINE
8
BLACK
6
CONTINUOUS
10
199.382
20
-80.4104
11
199.299
21
-80.4553
0
LINE
8
BLACK
6
CONTINUOUS
10
199.299
20
-80.4553
11
199.278
21
-80.47
0
LINE
8
BLACK
6
CONTINUOUS
10
199.278
20
-80.47
11
199.277
21
-80.4705
0
LINE
8
BLACK
6
CONTINUOUS
10
199.277
20
-80.4705
11
199.277
21
-80.4705
0
LINE
8
BLACK
6
CONTINUOUS
10
199.277
20
-80.4705
11
199.255
21
-80.4847
0
LINE
8
BLACK
6
CONTINUOUS
10
199.255
20
-80.4847
11
199.255
21
-80.4852
0
LINE
8
BLACK
6
CONTINUOUS
10
199.255
20
-80.4852
11
199.182
21
-80.5454
0
LINE
8
BLACK
6
CONTINUOUS
10
199.182
20
-80.5454
11
199.163
21
-80.564
0
LINE
8
BLACK
6
CONTINUOUS
10
199.163
20
-80.564
11
199.163
21
-80.5646
0
LINE
8
BLACK
6
CONTINUOUS
10
199.163
20
-80.5646
11
199.144
21
-80.5828
0
LINE
8
BLACK
6
CONTINUOUS
10
199.144
20
-80.5828
11
199.144
21
-80.5836
0
LINE
8
BLACK
6
CONTINUOUS
10
199.144
20
-80.5836
11
199.084
21
-80.6566
0
LINE
8
BLACK
6
CONTINUOUS
10
199.084
20
-80.6566
11
199.07
21
-80.6784
0
LINE
8
BLACK
6
CONTINUOUS
10
199.07
20
-80.6784
11
199.069
21
-80.6791
0
LINE
8
BLACK
6
CONTINUOUS
10
199.069
20
-80.6791
11
199.069
21
-80.6791
0
LINE
8
BLACK
6
CONTINUOUS
10
199.069
20
-80.6791
11
199.054
21
-80.7006
0
LINE
8
BLACK
6
CONTINUOUS
10
199.054
20
-80.7006
11
199.054
21
-80.7015
0
LINE
8
BLACK
6
CONTINUOUS
10
199.054
20
-80.7015
11
199.01
21
-80.7847
0
LINE
8
BLACK
6
CONTINUOUS
10
199.01
20
-80.7847
11
199
21
-80.8089
0
LINE
8
BLACK
6
CONTINUOUS
10
199
20
-80.8089
11
198.999
21
-80.8097
0
LINE
8
BLACK
6
CONTINUOUS
10
198.999
20
-80.8097
11
198.989
21
-80.8336
0
LINE
8
BLACK
6
CONTINUOUS
10
198.989
20
-80.8336
11
198.989
21
-80.8345
0
LINE
8
BLACK
6
CONTINUOUS
10
198.989
20
-80.8345
11
198.962
21
-80.9248
0
LINE
8
BLACK
6
CONTINUOUS
10
198.962
20
-80.9248
11
198.956
21
-80.9504
0
LINE
8
BLACK
6
CONTINUOUS
10
198.956
20
-80.9504
11
198.956
21
-80.9513
0
LINE
8
BLACK
6
CONTINUOUS
10
198.956
20
-80.9513
11
198.951
21
-80.9768
0
LINE
8
BLACK
6
CONTINUOUS
10
198.951
20
-80.9768
11
198.951
21
-80.9777
0
LINE
8
BLACK
6
CONTINUOUS
10
198.951
20
-80.9777
11
198.941
21
-81.0734
0
LINE
8
BLACK
6
CONTINUOUS
10
198.941
20
-81.0734
11
198.941
21
-81.0734
0
LINE
8
BLACK
6
CONTINUOUS
10
198.941
20
-81.0734
11
198.94
21
-81.0872
0
LINE
8
BLACK
6
CONTINUOUS
10
198.94
20
-81.0872
11
198.94
21
-92.9128
0
LINE
8
BLACK
6
CONTINUOUS
10
198.94
20
-92.9128
11
198.941
21
-92.9235
0
LINE
8
BLACK
6
CONTINUOUS
10
198.941
20
-92.9235
11
198.941
21
-92.9244
0
LINE
8
BLACK
6
CONTINUOUS
10
198.941
20
-92.9244
11
198.941
21
-92.9272
0
LINE
8
BLACK
6
CONTINUOUS
10
198.941
20
-92.9272
11
198.941
21
-92.9309
0
LINE
8
BLACK
6
CONTINUOUS
10
198.941
20
-92.9309
11
198.951
21
-93.0246
0
LINE
8
BLACK
6
CONTINUOUS
10
198.951
20
-93.0246
11
198.957
21
-93.0503
0
LINE
8
BLACK
6
CONTINUOUS
10
198.957
20
-93.0503
11
198.957
21
-93.0512
0
LINE
8
BLACK
6
CONTINUOUS
10
198.957
20
-93.0512
11
198.957
21
-93.0512
0
LINE
8
BLACK
6
CONTINUOUS
10
198.957
20
-93.0512
11
198.962
21
-93.0767
0
LINE
8
BLACK
6
CONTINUOUS
10
198.962
20
-93.0767
11
198.962
21
-93.0776
0
LINE
8
BLACK
6
CONTINUOUS
10
198.962
20
-93.0776
11
198.99
21
-93.1677
0
LINE
8
BLACK
6
CONTINUOUS
10
198.99
20
-93.1677
11
199
21
-93.1918
0
LINE
8
BLACK
6
CONTINUOUS
10
199
20
-93.1918
11
199
21
-93.1926
0
LINE
8
BLACK
6
CONTINUOUS
10
199
20
-93.1926
11
199
21
-93.1926
0
LINE
8
BLACK
6
CONTINUOUS
10
199
20
-93.1926
11
199.01
21
-93.2168
0
LINE
8
BLACK
6
CONTINUOUS
10
199.01
20
-93.2168
11
199.01
21
-93.2176
0
LINE
8
BLACK
6
CONTINUOUS
10
199.01
20
-93.2176
11
199.055
21
-93.3005
0
LINE
8
BLACK
6
CONTINUOUS
10
199.055
20
-93.3005
11
199.07
21
-93.3223
0
LINE
8
BLACK
6
CONTINUOUS
10
199.07
20
-93.3223
11
199.07
21
-93.3231
0
LINE
8
BLACK
6
CONTINUOUS
10
199.07
20
-93.3231
11
199.085
21
-93.3448
0
LINE
8
BLACK
6
CONTINUOUS
10
199.085
20
-93.3448
11
199.085
21
-93.3453
0
LINE
8
BLACK
6
CONTINUOUS
10
199.085
20
-93.3453
11
199.145
21
-93.4181
0
LINE
8
BLACK
6
CONTINUOUS
10
199.145
20
-93.4181
11
199.164
21
-93.4366
0
LINE
8
BLACK
6
CONTINUOUS
10
199.164
20
-93.4366
11
199.165
21
-93.4372
0
LINE
8
BLACK
6
CONTINUOUS
10
199.165
20
-93.4372
11
199.183
21
-93.4558
0
LINE
8
BLACK
6
CONTINUOUS
10
199.183
20
-93.4558
11
199.183
21
-93.4564
0
LINE
8
BLACK
6
CONTINUOUS
10
199.183
20
-93.4564
11
199.257
21
-93.516
0
LINE
8
BLACK
6
CONTINUOUS
10
199.257
20
-93.516
11
199.278
21
-93.5305
0
LINE
8
BLACK
6
CONTINUOUS
10
199.278
20
-93.5305
11
199.279
21
-93.531
0
LINE
8
BLACK
6
CONTINUOUS
10
199.279
20
-93.531
11
199.279
21
-93.531
0
LINE
8
BLACK
6
CONTINUOUS
10
199.279
20
-93.531
11
199.301
21
-93.5457
0
LINE
8
BLACK
6
CONTINUOUS
10
199.301
20
-93.5457
11
199.301
21
-93.5461
0
LINE
8
BLACK
6
CONTINUOUS
10
199.301
20
-93.5461
11
199.385
21
-93.5904
0
LINE
8
BLACK
6
CONTINUOUS
10
199.385
20
-93.5904
11
199.409
21
-93.6004
0
LINE
8
BLACK
6
CONTINUOUS
10
199.409
20
-93.6004
11
199.41
21
-93.6007
0
LINE
8
BLACK
6
CONTINUOUS
10
199.41
20
-93.6007
11
199.41
21
-93.6007
0
LINE
8
BLACK
6
CONTINUOUS
10
199.41
20
-93.6007
11
199.434
21
-93.611
0
LINE
8
BLACK
6
CONTINUOUS
10
199.434
20
-93.611
11
199.434
21
-93.6112
0
LINE
8
BLACK
6
CONTINUOUS
10
199.434
20
-93.6112
11
199.525
21
-93.6385
0
LINE
8
BLACK
6
CONTINUOUS
10
199.525
20
-93.6385
11
199.55
21
-93.6436
0
LINE
8
BLACK
6
CONTINUOUS
10
199.55
20
-93.6436
11
199.551
21
-93.6437
0
LINE
8
BLACK
6
CONTINUOUS
10
199.551
20
-93.6437
11
199.551
21
-93.6437
0
LINE
8
BLACK
6
CONTINUOUS
10
199.551
20
-93.6437
11
199.577
21
-93.6492
0
LINE
8
BLACK
6
CONTINUOUS
10
199.577
20
-93.6492
11
199.578
21
-93.6493
0
LINE
8
BLACK
6
CONTINUOUS
10
199.578
20
-93.6493
11
199.675
21
-93.6588
0
LINE
8
BLACK
6
CONTINUOUS
10
199.675
20
-93.6588
11
199.675
21
-93.6588
0
LINE
8
BLACK
6
CONTINUOUS
10
199.675
20
-93.6588
11
199.687
21
-93.66
0
LINE
8
BLACK
6
CONTINUOUS
10
199.687
20
-93.66
11
224.313
21
-93.66
0
LINE
8
BLACK
6
CONTINUOUS
10
224.313
20
-93.66
11
224.324
21
-93.6589
0
LINE
8
BLACK
6
CONTINUOUS
10
224.324
20
-93.6589
11
224.324
21
-93.6589
0
LINE
8
BLACK
6
CONTINUOUS
10
224.324
20
-93.6589
11
224.327
21
-93.6589
0
LINE
8
BLACK
6
CONTINUOUS
10
224.327
20
-93.6589
11
224.331
21
-93.6585
0
LINE
8
BLACK
6
CONTINUOUS
10
224.331
20
-93.6585
11
224.425
21
-93.6487
0
LINE
8
BLACK
6
CONTINUOUS
10
224.425
20
-93.6487
11
224.45
21
-93.6434
0
LINE
8
BLACK
6
CONTINUOUS
10
224.45
20
-93.6434
11
224.451
21
-93.6432
0
LINE
8
BLACK
6
CONTINUOUS
10
224.451
20
-93.6432
11
224.451
21
-93.6432
0
LINE
8
BLACK
6
CONTINUOUS
10
224.451
20
-93.6432
11
224.477
21
-93.6384
0
LINE
8
BLACK
6
CONTINUOUS
10
224.477
20
-93.6384
11
224.478
21
-93.6381
0
LINE
8
BLACK
6
CONTINUOUS
10
224.478
20
-93.6381
11
224.568
21
-93.6102
0
LINE
8
BLACK
6
CONTINUOUS
10
224.568
20
-93.6102
11
224.592
21
-93.6001
0
LINE
8
BLACK
6
CONTINUOUS
10
224.592
20
-93.6001
11
224.593
21
-93.5997
0
LINE
8
BLACK
6
CONTINUOUS
10
224.593
20
-93.5997
11
224.593
21
-93.5997
0
LINE
8
BLACK
6
CONTINUOUS
10
224.593
20
-93.5997
11
224.617
21
-93.59
0
LINE
8
BLACK
6
CONTINUOUS
10
224.617
20
-93.59
11
224.618
21
-93.5895
0
LINE
8
BLACK
6
CONTINUOUS
10
224.618
20
-93.5895
11
224.701
21
-93.5447
0
LINE
8
BLACK
6
CONTINUOUS
10
224.701
20
-93.5447
11
224.722
21
-93.53
0
LINE
8
BLACK
6
CONTINUOUS
10
224.722
20
-93.53
11
224.723
21
-93.5295
0
LINE
8
BLACK
6
CONTINUOUS
10
224.723
20
-93.5295
11
224.723
21
-93.5295
0
LINE
8
BLACK
6
CONTINUOUS
10
224.723
20
-93.5295
11
224.745
21
-93.5153
0
LINE
8
BLACK
6
CONTINUOUS
10
224.745
20
-93.5153
11
224.745
21
-93.5148
0
LINE
8
BLACK
6
CONTINUOUS
10
224.745
20
-93.5148
11
224.818
21
-93.4546
0
LINE
8
BLACK
6
CONTINUOUS
10
224.818
20
-93.4546
11
224.837
21
-93.436
0
LINE
8
BLACK
6
CONTINUOUS
10
224.837
20
-93.436
11
224.837
21
-93.4354
0
LINE
8
BLACK
6
CONTINUOUS
10
224.837
20
-93.4354
11
224.856
21
-93.4172
0
LINE
8
BLACK
6
CONTINUOUS
10
224.856
20
-93.4172
11
224.856
21
-93.4165
0
LINE
8
BLACK
6
CONTINUOUS
10
224.856
20
-93.4165
11
224.916
21
-93.3434
0
LINE
8
BLACK
6
CONTINUOUS
10
224.916
20
-93.3434
11
224.93
21
-93.3216
0
LINE
8
BLACK
6
CONTINUOUS
10
224.93
20
-93.3216
11
224.931
21
-93.3209
0
LINE
8
BLACK
6
CONTINUOUS
10
224.931
20
-93.3209
11
224.946
21
-93.2994
0
LINE
8
BLACK
6
CONTINUOUS
10
224.946
20
-93.2994
11
224.946
21
-93.2985
0
LINE
8
BLACK
6
CONTINUOUS
10
224.946
20
-93.2985
11
224.99
21
-93.2153
0
LINE
8
BLACK
6
CONTINUOUS
10
224.99
20
-93.2153
11
225
21
-93.1911
0
LINE
8
BLACK
6
CONTINUOUS
10
225
20
-93.1911
11
225.001
21
-93.1903
0
LINE
8
BLACK
6
CONTINUOUS
10
225.001
20
-93.1903
11
225.001
21
-93.1903
0
LINE
8
BLACK
6
CONTINUOUS
10
225.001
20
-93.1903
11
225.011
21
-93.1664
0
LINE
8
BLACK
6
CONTINUOUS
10
225.011
20
-93.1664
11
225.011
21
-93.1655
0
LINE
8
BLACK
6
CONTINUOUS
10
225.011
20
-93.1655
11
225.038
21
-93.0752
0
LINE
8
BLACK
6
CONTINUOUS
10
225.038
20
-93.0752
11
225.044
21
-93.0495
0
LINE
8
BLACK
6
CONTINUOUS
10
225.044
20
-93.0495
11
225.044
21
-93.0487
0
LINE
8
BLACK
6
CONTINUOUS
10
225.044
20
-93.0487
11
225.044
21
-93.0487
0
LINE
8
BLACK
6
CONTINUOUS
10
225.044
20
-93.0487
11
225.049
21
-93.0232
0
LINE
8
BLACK
6
CONTINUOUS
10
225.049
20
-93.0232
11
225.049
21
-93.0223
0
LINE
8
BLACK
6
CONTINUOUS
10
225.049
20
-93.0223
11
225.059
21
-92.9254
0
LINE
8
BLACK
6
CONTINUOUS
10
225.059
20
-92.9254
11
225.059
21
-92.9253
0
LINE
8
BLACK
6
CONTINUOUS
10
225.059
20
-92.9253
11
225.06
21
-92.9128
0
LINE
8
BLACK
6
CONTINUOUS
10
225.06
20
-92.9128
11
225.06
21
-81.0872
0
LINE
8
BLACK
6
CONTINUOUS
10
225.06
20
-81.0872
11
225.059
21
-81.0765
0
LINE
8
BLACK
6
CONTINUOUS
10
225.059
20
-81.0765
11
225.059
21
-81.0756
0
LINE
8
BLACK
6
CONTINUOUS
10
225.059
20
-81.0756
11
225.059
21
-81.0728
0
LINE
8
BLACK
6
CONTINUOUS
10
225.059
20
-81.0728
11
225.059
21
-81.0691
0
LINE
8
BLACK
6
CONTINUOUS
10
225.059
20
-81.0691
11
225.049
21
-80.9754
0
LINE
8
BLACK
6
CONTINUOUS
10
225.049
20
-80.9754
11
225.043
21
-80.9497
0
LINE
8
BLACK
6
CONTINUOUS
10
225.043
20
-80.9497
11
225.043
21
-80.9488
0
LINE
8
BLACK
6
CONTINUOUS
10
225.043
20
-80.9488
11
225.043
21
-80.9488
0
LINE
8
BLACK
6
CONTINUOUS
10
225.043
20
-80.9488
11
225.038
21
-80.9233
0
LINE
8
BLACK
6
CONTINUOUS
10
225.038
20
-80.9233
11
225.038
21
-80.9223
0
LINE
8
BLACK
6
CONTINUOUS
10
225.038
20
-80.9223
11
225.01
21
-80.8323
0
LINE
8
BLACK
6
CONTINUOUS
10
225.01
20
-80.8323
11
225
21
-80.8082
0
LINE
8
BLACK
6
CONTINUOUS
10
225
20
-80.8082
11
225
21
-80.8073
0
LINE
8
BLACK
6
CONTINUOUS
10
225
20
-80.8073
11
224.99
21
-80.7832
0
LINE
8
BLACK
6
CONTINUOUS
10
224.99
20
-80.7832
11
224.99
21
-80.7824
0
LINE
8
BLACK
6
CONTINUOUS
10
224.99
20
-80.7824
11
224.945
21
-80.6995
0
LINE
8
BLACK
6
CONTINUOUS
10
224.945
20
-80.6995
11
224.93
21
-80.6777
0
LINE
8
BLACK
6
CONTINUOUS
10
224.93
20
-80.6777
11
224.93
21
-80.6769
0
LINE
8
BLACK
6
CONTINUOUS
10
224.93
20
-80.6769
11
224.93
21
-80.6769
0
LINE
8
BLACK
6
CONTINUOUS
10
224.93
20
-80.6769
11
224.915
21
-80.6552
0
LINE
8
BLACK
6
CONTINUOUS
10
224.915
20
-80.6552
11
224.915
21
-80.6546
0
LINE
8
BLACK
6
CONTINUOUS
10
224.915
20
-80.6546
11
224.855
21
-80.5819
0
LINE
8
BLACK
6
CONTINUOUS
10
224.855
20
-80.5819
11
224.836
21
-80.5634
0
LINE
8
BLACK
6
CONTINUOUS
10
224.836
20
-80.5634
11
224.835
21
-80.5628
0
LINE
8
BLACK
6
CONTINUOUS
10
224.835
20
-80.5628
11
224.817
21
-80.5442
0
LINE
8
BLACK
6
CONTINUOUS
10
224.817
20
-80.5442
11
224.816
21
-80.5435
0
LINE
8
BLACK
6
CONTINUOUS
10
224.816
20
-80.5435
11
224.743
21
-80.484
0
LINE
8
BLACK
6
CONTINUOUS
10
224.743
20
-80.484
11
224.722
21
-80.4695
0
LINE
8
BLACK
6
CONTINUOUS
10
224.722
20
-80.4695
11
224.721
21
-80.469
0
LINE
8
BLACK
6
CONTINUOUS
10
224.721
20
-80.469
11
224.721
21
-80.469
0
LINE
8
BLACK
6
CONTINUOUS
10
224.721
20
-80.469
11
224.699
21
-80.4543
0
LINE
8
BLACK
6
CONTINUOUS
10
224.699
20
-80.4543
11
224.699
21
-80.4539
0
LINE
8
BLACK
6
CONTINUOUS
10
224.699
20
-80.4539
11
224.615
21
-80.4096
0
LINE
8
BLACK
6
CONTINUOUS
10
224.615
20
-80.4096
11
224.591
21
-80.3996
0
LINE
8
BLACK
6
CONTINUOUS
10
224.591
20
-80.3996
11
224.59
21
-80.3993
0
LINE
8
BLACK
6
CONTINUOUS
10
224.59
20
-80.3993
11
224.566
21
-80.389
0
LINE
8
BLACK
6
CONTINUOUS
10
224.566
20
-80.389
11
224.566
21
-80.3888
0
LINE
8
BLACK
6
CONTINUOUS
10
224.566
20
-80.3888
11
224.475
21
-80.3615
0
LINE
8
BLACK
6
CONTINUOUS
10
224.475
20
-80.3615
11
224.45
21
-80.3564
0
LINE
8
BLACK
6
CONTINUOUS
10
224.45
20
-80.3564
11
224.449
21
-80.3563
0
LINE
8
BLACK
6
CONTINUOUS
10
224.449
20
-80.3563
11
224.423
21
-80.3508
0
LINE
8
BLACK
6
CONTINUOUS
10
224.423
20
-80.3508
11
224.422
21
-80.3507
0
LINE
8
BLACK
6
CONTINUOUS
10
224.422
20
-80.3507
11
224.325
21
-80.3412
0
LINE
8
BLACK
6
CONTINUOUS
10
224.325
20
-80.3412
11
224.325
21
-80.3412
0
LINE
8
BLACK
6
CONTINUOUS
10
224.325
20
-80.3412
11
224.325
21
-80.3412
0
LINE
8
BLACK
6
CONTINUOUS
10
224.325
20
-80.3412
11
224.313
21
-80.34
0
LINE
8
BLACK
6
CONTINUOUS
10
224.313
20
-80.34
11
199.687
21
-80.34
0
LINE
8
BLACK
6
CONTINUOUS
10
211.601
20
-60.95
11
210.819
21
-61.1056
0
LINE
8
BLACK
6
CONTINUOUS
10
210.819
20
-61.1056
11
210.082
21
-61.4109
0
LINE
8
BLACK
6
CONTINUOUS
10
210.082
20
-61.4109
11
209.418
21
-61.8542
0
LINE
8
BLACK
6
CONTINUOUS
10
209.418
20
-61.8542
11
208.854
21
-62.4183
0
LINE
8
BLACK
6
CONTINUOUS
10
208.854
20
-62.4183
11
208.411
21
-63.0816
0
LINE
8
BLACK
6
CONTINUOUS
10
208.411
20
-63.0816
11
208.106
21
-63.8187
0
LINE
8
BLACK
6
CONTINUOUS
10
208.106
20
-63.8187
11
207.95
21
-64.6011
0
LINE
8
BLACK
6
CONTINUOUS
10
207.95
20
-64.6011
11
207.95
21
-65.3989
0
LINE
8
BLACK
6
CONTINUOUS
10
207.95
20
-65.3989
11
208.106
21
-66.1813
0
LINE
8
BLACK
6
CONTINUOUS
10
208.106
20
-66.1813
11
208.411
21
-66.9184
0
LINE
8
BLACK
6
CONTINUOUS
10
208.411
20
-66.9184
11
208.854
21
-67.5817
0
LINE
8
BLACK
6
CONTINUOUS
10
208.854
20
-67.5817
11
209.418
21
-68.1458
0
LINE
8
BLACK
6
CONTINUOUS
10
209.418
20
-68.1458
11
210.082
21
-68.5891
0
LINE
8
BLACK
6
CONTINUOUS
10
210.082
20
-68.5891
11
210.819
21
-68.8944
0
LINE
8
BLACK
6
CONTINUOUS
10
210.819
20
-68.8944
11
211.601
21
-69.05
0
LINE
8
BLACK
6
CONTINUOUS
10
211.601
20
-69.05
11
212.399
21
-69.05
0
LINE
8
BLACK
6
CONTINUOUS
10
212.399
20
-69.05
11
213.181
21
-68.8944
0
LINE
8
BLACK
6
CONTINUOUS
10
213.181
20
-68.8944
11
213.918
21
-68.5891
0
LINE
8
BLACK
6
CONTINUOUS
10
213.918
20
-68.5891
11
214.582
21
-68.1458
0
LINE
8
BLACK
6
CONTINUOUS
10
214.582
20
-68.1458
11
215.146
21
-67.5817
0
LINE
8
BLACK
6
CONTINUOUS
10
215.146
20
-67.5817
11
215.589
21
-66.9184
0
LINE
8
BLACK
6
CONTINUOUS
10
215.589
20
-66.9184
11
215.894
21
-66.1813
0
LINE
8
BLACK
6
CONTINUOUS
10
215.894
20
-66.1813
11
216.05
21
-65.3989
0
LINE
8
BLACK
6
CONTINUOUS
10
216.05
20
-65.3989
11
216.05
21
-64.6011
0
LINE
8
BLACK
6
CONTINUOUS
10
216.05
20
-64.6011
11
215.894
21
-63.8187
0
LINE
8
BLACK
6
CONTINUOUS
10
215.894
20
-63.8187
11
215.589
21
-63.0816
0
LINE
8
BLACK
6
CONTINUOUS
10
215.589
20
-63.0816
11
215.146
21
-62.4183
0
LINE
8
BLACK
6
CONTINUOUS
10
215.146
20
-62.4183
11
214.582
21
-61.8542
0
LINE
8
BLACK
6
CONTINUOUS
10
214.582
20
-61.8542
11
213.918
21
-61.4109
0
LINE
8
BLACK
6
CONTINUOUS
10
213.918
20
-61.4109
11
213.181
21
-61.1056
0
LINE
8
BLACK
6
CONTINUOUS
10
213.181
20
-61.1056
11
212.399
21
-60.95
0
LINE
8
BLACK
6
CONTINUOUS
10
212.399
20
-60.95
11
211.601
21
-60.95
0
LINE
8
BLACK
6
CONTINUOUS
10
214.251
20
-59.5
11
214.154
21
-59.5192
0
LINE
8
BLACK
6
CONTINUOUS
10
214.154
20
-59.5192
11
214.063
21
-59.5569
0
LINE
8
BLACK
6
CONTINUOUS
10
214.063
20
-59.5569
11
213.981
21
-59.6116
0
LINE
8
BLACK
6
CONTINUOUS
10
213.981
20
-59.6116
11
213.912
21
-59.6813
0
LINE
8
BLACK
6
CONTINUOUS
10
213.912
20
-59.6813
11
213.857
21
-59.7632
0
LINE
8
BLACK
6
CONTINUOUS
10
213.857
20
-59.7632
11
213.819
21
-59.8542
0
LINE
8
BLACK
6
CONTINUOUS
10
213.819
20
-59.8542
11
213.8
21
-59.9508
0
LINE
8
BLACK
6
CONTINUOUS
10
213.8
20
-59.9508
11
213.8
21
-60.0492
0
LINE
8
BLACK
6
CONTINUOUS
10
213.8
20
-60.0492
11
213.819
21
-60.1458
0
LINE
8
BLACK
6
CONTINUOUS
10
213.819
20
-60.1458
11
213.857
21
-60.2368
0
LINE
8
BLACK
6
CONTINUOUS
10
213.857
20
-60.2368
11
213.912
21
-60.3187
0
LINE
8
BLACK
6
CONTINUOUS
10
213.912
20
-60.3187
11
213.981
21
-60.3884
0
LINE
8
BLACK
6
CONTINUOUS
10
213.981
20
-60.3884
11
214.063
21
-60.4431
0
LINE
8
BLACK
6
CONTINUOUS
10
214.063
20
-60.4431
11
214.154
21
-60.4808
0
LINE
8
BLACK
6
CONTINUOUS
10
214.154
20
-60.4808
11
214.251
21
-60.5
0
LINE
8
BLACK
6
CONTINUOUS
10
214.251
20
-60.5
11
214.349
21
-60.5
0
LINE
8
BLACK
6
CONTINUOUS
10
214.349
20
-60.5
11
214.446
21
-60.4808
0
LINE
8
BLACK
6
CONTINUOUS
10
214.446
20
-60.4808
11
214.537
21
-60.4431
0
LINE
8
BLACK
6
CONTINUOUS
10
214.537
20
-60.4431
11
214.619
21
-60.3884
0
LINE
8
BLACK
6
CONTINUOUS
10
214.619
20
-60.3884
11
214.664
21
-60.3436
0
LINE
8
BLACK
6
CONTINUOUS
10
214.664
20
-60.3436
11
214.664
21
-60.3435
0
LINE
8
BLACK
6
CONTINUOUS
10
214.664
20
-60.3435
11
214.664
21
-60.3434
0
LINE
8
BLACK
6
CONTINUOUS
10
214.664
20
-60.3434
11
214.664
21
-60.3434
0
LINE
8
BLACK
6
CONTINUOUS
10
214.664
20
-60.3434
11
214.664
21
-60.343
0
LINE
8
BLACK
6
CONTINUOUS
10
214.664
20
-60.343
11
214.669
21
-60.3393
0
LINE
8
BLACK
6
CONTINUOUS
10
214.669
20
-60.3393
11
214.673
21
-60.3356
0
LINE
8
BLACK
6
CONTINUOUS
10
214.673
20
-60.3356
11
214.674
21
-60.3355
0
LINE
8
BLACK
6
CONTINUOUS
10
214.674
20
-60.3355
11
214.674
21
-60.3352
0
LINE
8
BLACK
6
CONTINUOUS
10
214.674
20
-60.3352
11
214.679
21
-60.3325
0
LINE
8
BLACK
6
CONTINUOUS
10
214.679
20
-60.3325
11
214.684
21
-60.3298
0
LINE
8
BLACK
6
CONTINUOUS
10
214.684
20
-60.3298
11
214.685
21
-60.3297
0
LINE
8
BLACK
6
CONTINUOUS
10
214.685
20
-60.3297
11
214.685
21
-60.3295
0
LINE
8
BLACK
6
CONTINUOUS
10
214.685
20
-60.3295
11
214.69
21
-60.3279
0
LINE
8
BLACK
6
CONTINUOUS
10
214.69
20
-60.3279
11
214.696
21
-60.3262
0
LINE
8
BLACK
6
CONTINUOUS
10
214.696
20
-60.3262
11
214.696
21
-60.3262
0
LINE
8
BLACK
6
CONTINUOUS
10
214.696
20
-60.3262
11
214.697
21
-60.3261
0
LINE
8
BLACK
6
CONTINUOUS
10
214.697
20
-60.3261
11
214.703
21
-60.3256
0
LINE
8
BLACK
6
CONTINUOUS
10
214.703
20
-60.3256
11
214.708
21
-60.325
0
LINE
8
BLACK
6
CONTINUOUS
10
214.708
20
-60.325
11
215.892
21
-60.325
0
LINE
8
BLACK
6
CONTINUOUS
10
215.892
20
-60.325
11
215.892
21
-60.325
0
LINE
8
BLACK
6
CONTINUOUS
10
215.892
20
-60.325
11
215.892
21
-60.325
0
LINE
8
BLACK
6
CONTINUOUS
10
215.892
20
-60.325
11
215.892
21
-60.325
0
LINE
8
BLACK
6
CONTINUOUS
10
215.892
20
-60.325
11
215.892
21
-60.325
0
LINE
8
BLACK
6
CONTINUOUS
10
215.892
20
-60.325
11
215.898
21
-60.3257
0
LINE
8
BLACK
6
CONTINUOUS
10
215.898
20
-60.3257
11
215.904
21
-60.3263
0
LINE
8
BLACK
6
CONTINUOUS
10
215.904
20
-60.3263
11
215.904
21
-60.3264
0
LINE
8
BLACK
6
CONTINUOUS
10
215.904
20
-60.3264
11
215.905
21
-60.3264
0
LINE
8
BLACK
6
CONTINUOUS
10
215.905
20
-60.3264
11
215.91
21
-60.3282
0
LINE
8
BLACK
6
CONTINUOUS
10
215.91
20
-60.3282
11
215.916
21
-60.3299
0
LINE
8
BLACK
6
CONTINUOUS
10
215.916
20
-60.3299
11
215.916
21
-60.33
0
LINE
8
BLACK
6
CONTINUOUS
10
215.916
20
-60.33
11
215.917
21
-60.3301
0
LINE
8
BLACK
6
CONTINUOUS
10
215.917
20
-60.3301
11
215.922
21
-60.3329
0
LINE
8
BLACK
6
CONTINUOUS
10
215.922
20
-60.3329
11
215.927
21
-60.3357
0
LINE
8
BLACK
6
CONTINUOUS
10
215.927
20
-60.3357
11
215.927
21
-60.3359
0
LINE
8
BLACK
6
CONTINUOUS
10
215.927
20
-60.3359
11
215.927
21
-60.3361
0
LINE
8
BLACK
6
CONTINUOUS
10
215.927
20
-60.3361
11
215.932
21
-60.3399
0
LINE
8
BLACK
6
CONTINUOUS
10
215.932
20
-60.3399
11
215.936
21
-60.3436
0
LINE
8
BLACK
6
CONTINUOUS
10
215.936
20
-60.3436
11
215.981
21
-60.3884
0
LINE
8
BLACK
6
CONTINUOUS
10
215.981
20
-60.3884
11
216.063
21
-60.4431
0
LINE
8
BLACK
6
CONTINUOUS
10
216.063
20
-60.4431
11
216.154
21
-60.4808
0
LINE
8
BLACK
6
CONTINUOUS
10
216.154
20
-60.4808
11
216.251
21
-60.5
0
LINE
8
BLACK
6
CONTINUOUS
10
216.251
20
-60.5
11
216.349
21
-60.5
0
LINE
8
BLACK
6
CONTINUOUS
10
216.349
20
-60.5
11
216.446
21
-60.4808
0
LINE
8
BLACK
6
CONTINUOUS
10
216.446
20
-60.4808
11
216.537
21
-60.4431
0
LINE
8
BLACK
6
CONTINUOUS
10
216.537
20
-60.4431
11
216.619
21
-60.3884
0
LINE
8
BLACK
6
CONTINUOUS
10
216.619
20
-60.3884
11
216.688
21
-60.3187
0
LINE
8
BLACK
6
CONTINUOUS
10
216.688
20
-60.3187
11
216.743
21
-60.2368
0
LINE
8
BLACK
6
CONTINUOUS
10
216.743
20
-60.2368
11
216.781
21
-60.1458
0
LINE
8
BLACK
6
CONTINUOUS
10
216.781
20
-60.1458
11
216.8
21
-60.0492
0
LINE
8
BLACK
6
CONTINUOUS
10
216.8
20
-60.0492
11
216.8
21
-59.9508
0
LINE
8
BLACK
6
CONTINUOUS
10
216.8
20
-59.9508
11
216.781
21
-59.8542
0
LINE
8
BLACK
6
CONTINUOUS
10
216.781
20
-59.8542
11
216.743
21
-59.7632
0
LINE
8
BLACK
6
CONTINUOUS
10
216.743
20
-59.7632
11
216.688
21
-59.6813
0
LINE
8
BLACK
6
CONTINUOUS
10
216.688
20
-59.6813
11
216.619
21
-59.6116
0
LINE
8
BLACK
6
CONTINUOUS
10
216.619
20
-59.6116
11
216.537
21
-59.5569
0
LINE
8
BLACK
6
CONTINUOUS
10
216.537
20
-59.5569
11
216.446
21
-59.5192
0
LINE
8
BLACK
6
CONTINUOUS
10
216.446
20
-59.5192
11
216.349
21
-59.5
0
LINE
8
BLACK
6
CONTINUOUS
10
216.349
20
-59.5
11
216.251
21
-59.5
0
LINE
8
BLACK
6
CONTINUOUS
10
216.251
20
-59.5
11
216.154
21
-59.5192
0
LINE
8
BLACK
6
CONTINUOUS
10
216.154
20
-59.5192
11
216.063
21
-59.5569
0
LINE
8
BLACK
6
CONTINUOUS
10
216.063
20
-59.5569
11
215.981
21
-59.6116
0
LINE
8
BLACK
6
CONTINUOUS
10
215.981
20
-59.6116
11
215.936
21
-59.6564
0
LINE
8
BLACK
6
CONTINUOUS
10
215.936
20
-59.6564
11
215.936
21
-59.6565
0
LINE
8
BLACK
6
CONTINUOUS
10
215.936
20
-59.6565
11
215.936
21
-59.6566
0
LINE
8
BLACK
6
CONTINUOUS
10
215.936
20
-59.6566
11
215.936
21
-59.6566
0
LINE
8
BLACK
6
CONTINUOUS
10
215.936
20
-59.6566
11
215.936
21
-59.657
0
LINE
8
BLACK
6
CONTINUOUS
10
215.936
20
-59.657
11
215.931
21
-59.6607
0
LINE
8
BLACK
6
CONTINUOUS
10
215.931
20
-59.6607
11
215.927
21
-59.6644
0
LINE
8
BLACK
6
CONTINUOUS
10
215.927
20
-59.6644
11
215.926
21
-59.6645
0
LINE
8
BLACK
6
CONTINUOUS
10
215.926
20
-59.6645
11
215.926
21
-59.6648
0
LINE
8
BLACK
6
CONTINUOUS
10
215.926
20
-59.6648
11
215.921
21
-59.6675
0
LINE
8
BLACK
6
CONTINUOUS
10
215.921
20
-59.6675
11
215.916
21
-59.6702
0
LINE
8
BLACK
6
CONTINUOUS
10
215.916
20
-59.6702
11
215.915
21
-59.6703
0
LINE
8
BLACK
6
CONTINUOUS
10
215.915
20
-59.6703
11
215.915
21
-59.6705
0
LINE
8
BLACK
6
CONTINUOUS
10
215.915
20
-59.6705
11
215.91
21
-59.6721
0
LINE
8
BLACK
6
CONTINUOUS
10
215.91
20
-59.6721
11
215.904
21
-59.6738
0
LINE
8
BLACK
6
CONTINUOUS
10
215.904
20
-59.6738
11
215.904
21
-59.6738
0
LINE
8
BLACK
6
CONTINUOUS
10
215.904
20
-59.6738
11
215.903
21
-59.6739
0
LINE
8
BLACK
6
CONTINUOUS
10
215.903
20
-59.6739
11
215.897
21
-59.6744
0
LINE
8
BLACK
6
CONTINUOUS
10
215.897
20
-59.6744
11
215.892
21
-59.675
0
LINE
8
BLACK
6
CONTINUOUS
10
215.892
20
-59.675
11
214.708
21
-59.675
0
LINE
8
BLACK
6
CONTINUOUS
10
214.708
20
-59.675
11
214.708
21
-59.675
0
LINE
8
BLACK
6
CONTINUOUS
10
214.708
20
-59.675
11
214.708
21
-59.675
0
LINE
8
BLACK
6
CONTINUOUS
10
214.708
20
-59.675
11
214.708
21
-59.675
0
LINE
8
BLACK
6
CONTINUOUS
10
214.708
20
-59.675
11
214.708
21
-59.675
0
LINE
8
BLACK
6
CONTINUOUS
10
214.708
20
-59.675
11
214.702
21
-59.6743
0
LINE
8
BLACK
6
CONTINUOUS
10
214.702
20
-59.6743
11
214.696
21
-59.6737
0
LINE
8
BLACK
6
CONTINUOUS
10
214.696
20
-59.6737
11
214.696
21
-59.6736
0
LINE
8
BLACK
6
CONTINUOUS
10
214.696
20
-59.6736
11
214.695
21
-59.6736
0
LINE
8
BLACK
6
CONTINUOUS
10
214.695
20
-59.6736
11
214.69
21
-59.6718
0
LINE
8
BLACK
6
CONTINUOUS
10
214.69
20
-59.6718
11
214.684
21
-59.6701
0
LINE
8
BLACK
6
CONTINUOUS
10
214.684
20
-59.6701
11
214.684
21
-59.67
0
LINE
8
BLACK
6
CONTINUOUS
10
214.684
20
-59.67
11
214.683
21
-59.6699
0
LINE
8
BLACK
6
CONTINUOUS
10
214.683
20
-59.6699
11
214.678
21
-59.6671
0
LINE
8
BLACK
6
CONTINUOUS
10
214.678
20
-59.6671
11
214.673
21
-59.6643
0
LINE
8
BLACK
6
CONTINUOUS
10
214.673
20
-59.6643
11
214.673
21
-59.6641
0
LINE
8
BLACK
6
CONTINUOUS
10
214.673
20
-59.6641
11
214.673
21
-59.6639
0
LINE
8
BLACK
6
CONTINUOUS
10
214.673
20
-59.6639
11
214.668
21
-59.6601
0
LINE
8
BLACK
6
CONTINUOUS
10
214.668
20
-59.6601
11
214.664
21
-59.6564
0
LINE
8
BLACK
6
CONTINUOUS
10
214.664
20
-59.6564
11
214.619
21
-59.6116
0
LINE
8
BLACK
6
CONTINUOUS
10
214.619
20
-59.6116
11
214.537
21
-59.5569
0
LINE
8
BLACK
6
CONTINUOUS
10
214.537
20
-59.5569
11
214.446
21
-59.5192
0
LINE
8
BLACK
6
CONTINUOUS
10
214.446
20
-59.5192
11
214.349
21
-59.5
0
LINE
8
BLACK
6
CONTINUOUS
10
214.349
20
-59.5
11
214.251
21
-59.5
0
LINE
8
BLACK
6
CONTINUOUS
10
227.455
20
-49.67
11
226.875
21
-49.7853
0
LINE
8
BLACK
6
CONTINUOUS
10
226.875
20
-49.7853
11
226.329
21
-50.0114
0
LINE
8
BLACK
6
CONTINUOUS
10
226.329
20
-50.0114
11
225.838
21
-50.3397
0
LINE
8
BLACK
6
CONTINUOUS
10
225.838
20
-50.3397
11
225.42
21
-50.7576
0
LINE
8
BLACK
6
CONTINUOUS
10
225.42
20
-50.7576
11
225.091
21
-51.249
0
LINE
8
BLACK
6
CONTINUOUS
10
225.091
20
-51.249
11
224.865
21
-51.7949
0
LINE
8
BLACK
6
CONTINUOUS
10
224.865
20
-51.7949
11
224.75
21
-52.3745
0
LINE
8
BLACK
6
CONTINUOUS
10
224.75
20
-52.3745
11
224.75
21
-52.9655
0
LINE
8
BLACK
6
CONTINUOUS
10
224.75
20
-52.9655
11
224.865
21
-53.5451
0
LINE
8
BLACK
6
CONTINUOUS
10
224.865
20
-53.5451
11
225.091
21
-54.091
0
LINE
8
BLACK
6
CONTINUOUS
10
225.091
20
-54.091
11
225.42
21
-54.5824
0
LINE
8
BLACK
6
CONTINUOUS
10
225.42
20
-54.5824
11
225.838
21
-55.0003
0
LINE
8
BLACK
6
CONTINUOUS
10
225.838
20
-55.0003
11
226.329
21
-55.3286
0
LINE
8
BLACK
6
CONTINUOUS
10
226.329
20
-55.3286
11
226.875
21
-55.5547
0
LINE
8
BLACK
6
CONTINUOUS
10
226.875
20
-55.5547
11
227.455
21
-55.67
0
LINE
8
BLACK
6
CONTINUOUS
10
227.455
20
-55.67
11
228.045
21
-55.67
0
LINE
8
BLACK
6
CONTINUOUS
10
228.045
20
-55.67
11
228.625
21
-55.5547
0
LINE
8
BLACK
6
CONTINUOUS
10
228.625
20
-55.5547
11
229.171
21
-55.3286
0
LINE
8
BLACK
6
CONTINUOUS
10
229.171
20
-55.3286
11
229.662
21
-55.0003
0
LINE
8
BLACK
6
CONTINUOUS
10
229.662
20
-55.0003
11
230.08
21
-54.5824
0
LINE
8
BLACK
6
CONTINUOUS
10
230.08
20
-54.5824
11
230.409
21
-54.091
0
LINE
8
BLACK
6
CONTINUOUS
10
230.409
20
-54.091
11
230.635
21
-53.5451
0
LINE
8
BLACK
6
CONTINUOUS
10
230.635
20
-53.5451
11
230.75
21
-52.9655
0
LINE
8
BLACK
6
CONTINUOUS
10
230.75
20
-52.9655
11
230.75
21
-52.3745
0
LINE
8
BLACK
6
CONTINUOUS
10
230.75
20
-52.3745
11
230.635
21
-51.7949
0
LINE
8
BLACK
6
CONTINUOUS
10
230.635
20
-51.7949
11
230.409
21
-51.249
0
LINE
8
BLACK
6
CONTINUOUS
10
230.409
20
-51.249
11
230.08
21
-50.7576
0
LINE
8
BLACK
6
CONTINUOUS
10
230.08
20
-50.7576
11
229.662
21
-50.3397
0
LINE
8
BLACK
6
CONTINUOUS
10
229.662
20
-50.3397
11
229.171
21
-50.0114
0
LINE
8
BLACK
6
CONTINUOUS
10
229.171
20
-50.0114
11
228.625
21
-49.7853
0
LINE
8
BLACK
6
CONTINUOUS
10
228.625
20
-49.7853
11
228.045
21
-49.67
0
LINE
8
BLACK
6
CONTINUOUS
10
228.045
20
-49.67
11
227.455
21
-49.67
0
LINE
8
BLACK
6
CONTINUOUS
10
228.26
20
-94.5173
11
228.579
21
-94.6492
0
LINE
8
BLACK
6
CONTINUOUS
10
228.579
20
-94.6492
11
228.866
21
-94.8407
0
LINE
8
BLACK
6
CONTINUOUS
10
228.866
20
-94.8407
11
229.109
21
-95.0844
0
LINE
8
BLACK
6
CONTINUOUS
10
229.109
20
-95.0844
11
229.301
21
-95.3711
0
LINE
8
BLACK
6
CONTINUOUS
10
229.301
20
-95.3711
11
229.433
21
-95.6895
0
LINE
8
BLACK
6
CONTINUOUS
10
229.433
20
-95.6895
11
229.5
21
-96.0276
0
LINE
8
BLACK
6
CONTINUOUS
10
229.5
20
-96.0276
11
229.5
21
-96.3724
0
LINE
8
BLACK
6
CONTINUOUS
10
229.5
20
-96.3724
11
229.433
21
-96.7105
0
LINE
8
BLACK
6
CONTINUOUS
10
229.433
20
-96.7105
11
229.301
21
-97.0289
0
LINE
8
BLACK
6
CONTINUOUS
10
229.301
20
-97.0289
11
229.109
21
-97.3156
0
LINE
8
BLACK
6
CONTINUOUS
10
229.109
20
-97.3156
11
228.866
21
-97.5593
0
LINE
8
BLACK
6
CONTINUOUS
10
228.866
20
-97.5593
11
228.579
21
-97.7508
0
LINE
8
BLACK
6
CONTINUOUS
10
228.579
20
-97.7508
11
228.26
21
-97.8827
0
LINE
8
BLACK
6
CONTINUOUS
10
228.26
20
-97.8827
11
227.922
21
-97.95
0
LINE
8
BLACK
6
CONTINUOUS
10
227.922
20
-97.95
11
227.578
21
-97.95
0
LINE
8
BLACK
6
CONTINUOUS
10
227.578
20
-97.95
11
227.24
21
-97.8827
0
LINE
8
BLACK
6
CONTINUOUS
10
227.24
20
-97.8827
11
226.921
21
-97.7508
0
LINE
8
BLACK
6
CONTINUOUS
10
226.921
20
-97.7508
11
226.634
21
-97.5593
0
LINE
8
BLACK
6
CONTINUOUS
10
226.634
20
-97.5593
11
226.391
21
-97.3156
0
LINE
8
BLACK
6
CONTINUOUS
10
226.391
20
-97.3156
11
226.199
21
-97.0289
0
LINE
8
BLACK
6
CONTINUOUS
10
226.199
20
-97.0289
11
226.067
21
-96.7105
0
LINE
8
BLACK
6
CONTINUOUS
10
226.067
20
-96.7105
11
226
21
-96.3724
0
LINE
8
BLACK
6
CONTINUOUS
10
226
20
-96.3724
11
226
21
-96.0276
0
LINE
8
BLACK
6
CONTINUOUS
10
226
20
-96.0276
11
226.067
21
-95.6895
0
LINE
8
BLACK
6
CONTINUOUS
10
226.067
20
-95.6895
11
226.199
21
-95.3711
0
LINE
8
BLACK
6
CONTINUOUS
10
226.199
20
-95.3711
11
226.391
21
-95.0844
0
LINE
8
BLACK
6
CONTINUOUS
10
226.391
20
-95.0844
11
226.634
21
-94.8407
0
LINE
8
BLACK
6
CONTINUOUS
10
226.634
20
-94.8407
11
226.921
21
-94.6492
0
LINE
8
BLACK
6
CONTINUOUS
10
226.921
20
-94.6492
11
227.24
21
-94.5173
0
LINE
8
BLACK
6
CONTINUOUS
10
227.24
20
-94.5173
11
227.578
21
-94.45
0
LINE
8
BLACK
6
CONTINUOUS
10
227.578
20
-94.45
11
227.922
21
-94.45
0
LINE
8
BLACK
6
CONTINUOUS
10
227.922
20
-94.45
11
228.26
21
-94.5173
0
LINE
8
BLACK
6
CONTINUOUS
10
213.035
20
-61.5864
11
213.682
21
-61.854
0
LINE
8
BLACK
6
CONTINUOUS
10
213.682
20
-61.854
11
214.263
21
-62.2425
0
LINE
8
BLACK
6
CONTINUOUS
10
214.263
20
-62.2425
11
214.757
21
-62.737
0
LINE
8
BLACK
6
CONTINUOUS
10
214.757
20
-62.737
11
215.146
21
-63.3184
0
LINE
8
BLACK
6
CONTINUOUS
10
215.146
20
-63.3184
11
215.414
21
-63.9645
0
LINE
8
BLACK
6
CONTINUOUS
10
215.414
20
-63.9645
11
215.55
21
-64.6504
0
LINE
8
BLACK
6
CONTINUOUS
10
215.55
20
-64.6504
11
215.55
21
-65.3496
0
LINE
8
BLACK
6
CONTINUOUS
10
215.55
20
-65.3496
11
215.414
21
-66.0355
0
LINE
8
BLACK
6
CONTINUOUS
10
215.414
20
-66.0355
11
215.146
21
-66.6816
0
LINE
8
BLACK
6
CONTINUOUS
10
215.146
20
-66.6816
11
214.757
21
-67.263
0
LINE
8
BLACK
6
CONTINUOUS
10
214.757
20
-67.263
11
214.263
21
-67.7575
0
LINE
8
BLACK
6
CONTINUOUS
10
214.263
20
-67.7575
11
213.682
21
-68.146
0
LINE
8
BLACK
6
CONTINUOUS
10
213.682
20
-68.146
11
213.035
21
-68.4136
0
LINE
8
BLACK
6
CONTINUOUS
10
213.035
20
-68.4136
11
212.35
21
-68.55
0
LINE
8
BLACK
6
CONTINUOUS
10
212.35
20
-68.55
11
211.65
21
-68.55
0
LINE
8
BLACK
6
CONTINUOUS
10
211.65
20
-68.55
11
210.965
21
-68.4136
0
LINE
8
BLACK
6
CONTINUOUS
10
210.965
20
-68.4136
11
210.318
21
-68.146
0
LINE
8
BLACK
6
CONTINUOUS
10
210.318
20
-68.146
11
209.737
21
-67.7575
0
LINE
8
BLACK
6
CONTINUOUS
10
209.737
20
-67.7575
11
209.243
21
-67.263
0
LINE
8
BLACK
6
CONTINUOUS
10
209.243
20
-67.263
11
208.854
21
-66.6816
0
LINE
8
BLACK
6
CONTINUOUS
10
208.854
20
-66.6816
11
208.586
21
-66.0355
0
LINE
8
BLACK
6
CONTINUOUS
10
208.586
20
-66.0355
11
208.45
21
-65.3496
0
LINE
8
BLACK
6
CONTINUOUS
10
208.45
20
-65.3496
11
208.45
21
-64.6504
0
LINE
8
BLACK
6
CONTINUOUS
10
208.45
20
-64.6504
11
208.586
21
-63.9645
0
LINE
8
BLACK
6
CONTINUOUS
10
208.586
20
-63.9645
11
208.854
21
-63.3184
0
LINE
8
BLACK
6
CONTINUOUS
10
208.854
20
-63.3184
11
209.243
21
-62.737
0
LINE
8
BLACK
6
CONTINUOUS
10
209.243
20
-62.737
11
209.737
21
-62.2425
0
LINE
8
BLACK
6
CONTINUOUS
10
209.737
20
-62.2425
11
210.318
21
-61.854
0
LINE
8
BLACK
6
CONTINUOUS
10
210.318
20
-61.854
11
210.965
21
-61.5864
0
LINE
8
BLACK
6
CONTINUOUS
10
210.965
20
-61.5864
11
211.65
21
-61.45
0
LINE
8
BLACK
6
CONTINUOUS
10
211.65
20
-61.45
11
212.35
21
-61.45
0
LINE
8
BLACK
6
CONTINUOUS
10
212.35
20
-61.45
11
213.035
21
-61.5864
0
LINE
8
BLACK
6
CONTINUOUS
10
216.034
20
-59.8579
11
216.067
21
-59.8088
0
LINE
8
BLACK
6
CONTINUOUS
10
216.067
20
-59.8088
11
216.109
21
-59.767
0
LINE
8
BLACK
6
CONTINUOUS
10
216.109
20
-59.767
11
216.158
21
-59.7341
0
LINE
8
BLACK
6
CONTINUOUS
10
216.158
20
-59.7341
11
216.212
21
-59.7115
0
LINE
8
BLACK
6
CONTINUOUS
10
216.212
20
-59.7115
11
216.27
21
-59.7
0
LINE
8
BLACK
6
CONTINUOUS
10
216.27
20
-59.7
11
216.33
21
-59.7
0
LINE
8
BLACK
6
CONTINUOUS
10
216.33
20
-59.7
11
216.388
21
-59.7115
0
LINE
8
BLACK
6
CONTINUOUS
10
216.388
20
-59.7115
11
216.442
21
-59.7341
0
LINE
8
BLACK
6
CONTINUOUS
10
216.442
20
-59.7341
11
216.491
21
-59.767
0
LINE
8
BLACK
6
CONTINUOUS
10
216.491
20
-59.767
11
216.533
21
-59.8088
0
LINE
8
BLACK
6
CONTINUOUS
10
216.533
20
-59.8088
11
216.566
21
-59.8579
0
LINE
8
BLACK
6
CONTINUOUS
10
216.566
20
-59.8579
11
216.588
21
-59.9125
0
LINE
8
BLACK
6
CONTINUOUS
10
216.588
20
-59.9125
11
216.6
21
-59.9705
0
LINE
8
BLACK
6
CONTINUOUS
10
216.6
20
-59.9705
11
216.6
21
-60.0295
0
LINE
8
BLACK
6
CONTINUOUS
10
216.6
20
-60.0295
11
216.588
21
-60.0875
0
LINE
8
BLACK
6
CONTINUOUS
10
216.588
20
-60.0875
11
216.566
21
-60.1421
0
LINE
8
BLACK
6
CONTINUOUS
10
216.566
20
-60.1421
11
216.533
21
-60.1912
0
LINE
8
BLACK
6
CONTINUOUS
10
216.533
20
-60.1912
11
216.491
21
-60.233
0
LINE
8
BLACK
6
CONTINUOUS
10
216.491
20
-60.233
11
216.442
21
-60.2659
0
LINE
8
BLACK
6
CONTINUOUS
10
216.442
20
-60.2659
11
216.388
21
-60.2885
0
LINE
8
BLACK
6
CONTINUOUS
10
216.388
20
-60.2885
11
216.33
21
-60.3
0
LINE
8
BLACK
6
CONTINUOUS
10
216.33
20
-60.3
11
216.27
21
-60.3
0
LINE
8
BLACK
6
CONTINUOUS
10
216.27
20
-60.3
11
216.212
21
-60.2885
0
LINE
8
BLACK
6
CONTINUOUS
10
216.212
20
-60.2885
11
216.158
21
-60.2659
0
LINE
8
BLACK
6
CONTINUOUS
10
216.158
20
-60.2659
11
216.109
21
-60.233
0
LINE
8
BLACK
6
CONTINUOUS
10
216.109
20
-60.233
11
216.067
21
-60.1912
0
LINE
8
BLACK
6
CONTINUOUS
10
216.067
20
-60.1912
11
216.034
21
-60.1421
0
LINE
8
BLACK
6
CONTINUOUS
10
216.034
20
-60.1421
11
216.027
21
-60.125
0
LINE
8
BLACK
6
CONTINUOUS
10
216.027
20
-60.125
11
214.573
21
-60.125
0
LINE
8
BLACK
6
CONTINUOUS
10
214.573
20
-60.125
11
214.566
21
-60.1421
0
LINE
8
BLACK
6
CONTINUOUS
10
214.566
20
-60.1421
11
214.533
21
-60.1912
0
LINE
8
BLACK
6
CONTINUOUS
10
214.533
20
-60.1912
11
214.491
21
-60.233
0
LINE
8
BLACK
6
CONTINUOUS
10
214.491
20
-60.233
11
214.442
21
-60.2659
0
LINE
8
BLACK
6
CONTINUOUS
10
214.442
20
-60.2659
11
214.388
21
-60.2885
0
LINE
8
BLACK
6
CONTINUOUS
10
214.388
20
-60.2885
11
214.33
21
-60.3
0
LINE
8
BLACK
6
CONTINUOUS
10
214.33
20
-60.3
11
214.27
21
-60.3
0
LINE
8
BLACK
6
CONTINUOUS
10
214.27
20
-60.3
11
214.212
21
-60.2885
0
LINE
8
BLACK
6
CONTINUOUS
10
214.212
20
-60.2885
11
214.158
21
-60.2659
0
LINE
8
BLACK
6
CONTINUOUS
10
214.158
20
-60.2659
11
214.109
21
-60.233
0
LINE
8
BLACK
6
CONTINUOUS
10
214.109
20
-60.233
11
214.067
21
-60.1912
0
LINE
8
BLACK
6
CONTINUOUS
10
214.067
20
-60.1912
11
214.034
21
-60.1421
0
LINE
8
BLACK
6
CONTINUOUS
10
214.034
20
-60.1421
11
214.012
21
-60.0875
0
LINE
8
BLACK
6
CONTINUOUS
10
214.012
20
-60.0875
11
214
21
-60.0295
0
LINE
8
BLACK
6
CONTINUOUS
10
214
20
-60.0295
11
214
21
-59.9705
0
LINE
8
BLACK
6
CONTINUOUS
10
214
20
-59.9705
11
214.012
21
-59.9125
0
LINE
8
BLACK
6
CONTINUOUS
10
214.012
20
-59.9125
11
214.034
21
-59.8579
0
LINE
8
BLACK
6
CONTINUOUS
10
214.034
20
-59.8579
11
214.067
21
-59.8088
0
LINE
8
BLACK
6
CONTINUOUS
10
214.067
20
-59.8088
11
214.109
21
-59.767
0
LINE
8
BLACK
6
CONTINUOUS
10
214.109
20
-59.767
11
214.158
21
-59.7341
0
LINE
8
BLACK
6
CONTINUOUS
10
214.158
20
-59.7341
11
214.212
21
-59.7115
0
LINE
8
BLACK
6
CONTINUOUS
10
214.212
20
-59.7115
11
214.27
21
-59.7
0
LINE
8
BLACK
6
CONTINUOUS
10
214.27
20
-59.7
11
214.33
21
-59.7
0
LINE
8
BLACK
6
CONTINUOUS
10
214.33
20
-59.7
11
214.388
21
-59.7115
0
LINE
8
BLACK
6
CONTINUOUS
10
214.388
20
-59.7115
11
214.442
21
-59.7341
0
LINE
8
BLACK
6
CONTINUOUS
10
214.442
20
-59.7341
11
214.491
21
-59.767
0
LINE
8
BLACK
6
CONTINUOUS
10
214.491
20
-59.767
11
214.533
21
-59.8088
0
LINE
8
BLACK
6
CONTINUOUS
10
214.533
20
-59.8088
11
214.566
21
-59.8579
0
LINE
8
BLACK
6
CONTINUOUS
10
214.566
20
-59.8579
11
214.573
21
-59.875
0
LINE
8
BLACK
6
CONTINUOUS
10
214.573
20
-59.875
11
216.027
21
-59.875
0
LINE
8
BLACK
6
CONTINUOUS
10
216.027
20
-59.875
11
216.034
21
-59.8579
0
LINE
8
BLACK
6
CONTINUOUS
10
228.26
20
-50.9873
11
228.579
21
-51.1192
0
LINE
8
BLACK
6
CONTINUOUS
10
228.579
20
-51.1192
11
228.866
21
-51.3107
0
LINE
8
BLACK
6
CONTINUOUS
10
228.866
20
-51.3107
11
229.109
21
-51.5544
0
LINE
8
BLACK
6
CONTINUOUS
10
229.109
20
-51.5544
11
229.301
21
-51.8411
0
LINE
8
BLACK
6
CONTINUOUS
10
229.301
20
-51.8411
11
229.433
21
-52.1595
0
LINE
8
BLACK
6
CONTINUOUS
10
229.433
20
-52.1595
11
229.5
21
-52.4976
0
LINE
8
BLACK
6
CONTINUOUS
10
229.5
20
-52.4976
11
229.5
21
-52.8424
0
LINE
8
BLACK
6
CONTINUOUS
10
229.5
20
-52.8424
11
229.433
21
-53.1805
0
LINE
8
BLACK
6
CONTINUOUS
10
229.433
20
-53.1805
11
229.301
21
-53.4989
0
LINE
8
BLACK
6
CONTINUOUS
10
229.301
20
-53.4989
11
229.109
21
-53.7856
0
LINE
8
BLACK
6
CONTINUOUS
10
229.109
20
-53.7856
11
228.866
21
-54.0293
0
LINE
8
BLACK
6
CONTINUOUS
10
228.866
20
-54.0293
11
228.579
21
-54.2208
0
LINE
8
BLACK
6
CONTINUOUS
10
228.579
20
-54.2208
11
228.26
21
-54.3527
0
LINE
8
BLACK
6
CONTINUOUS
10
228.26
20
-54.3527
11
227.922
21
-54.42
0
LINE
8
BLACK
6
CONTINUOUS
10
227.922
20
-54.42
11
227.578
21
-54.42
0
LINE
8
BLACK
6
CONTINUOUS
10
227.578
20
-54.42
11
227.24
21
-54.3527
0
LINE
8
BLACK
6
CONTINUOUS
10
227.24
20
-54.3527
11
226.921
21
-54.2208
0
LINE
8
BLACK
6
CONTINUOUS
10
226.921
20
-54.2208
11
226.634
21
-54.0293
0
LINE
8
BLACK
6
CONTINUOUS
10
226.634
20
-54.0293
11
226.391
21
-53.7856
0
LINE
8
BLACK
6
CONTINUOUS
10
226.391
20
-53.7856
11
226.199
21
-53.4989
0
LINE
8
BLACK
6
CONTINUOUS
10
226.199
20
-53.4989
11
226.067
21
-53.1805
0
LINE
8
BLACK
6
CONTINUOUS
10
226.067
20
-53.1805
11
226
21
-52.8424
0
LINE
8
BLACK
6
CONTINUOUS
10
226
20
-52.8424
11
226
21
-52.4976
0
LINE
8
BLACK
6
CONTINUOUS
10
226
20
-52.4976
11
226.067
21
-52.1595
0
LINE
8
BLACK
6
CONTINUOUS
10
226.067
20
-52.1595
11
226.199
21
-51.8411
0
LINE
8
BLACK
6
CONTINUOUS
10
226.199
20
-51.8411
11
226.391
21
-51.5544
0
LINE
8
BLACK
6
CONTINUOUS
10
226.391
20
-51.5544
11
226.634
21
-51.3107
0
LINE
8
BLACK
6
CONTINUOUS
10
226.634
20
-51.3107
11
226.921
21
-51.1192
0
LINE
8
BLACK
6
CONTINUOUS
10
226.921
20
-51.1192
11
227.24
21
-50.9873
0
LINE
8
BLACK
6
CONTINUOUS
10
227.24
20
-50.9873
11
227.578
21
-50.92
0
LINE
8
BLACK
6
CONTINUOUS
10
227.578
20
-50.92
11
227.922
21
-50.92
0
LINE
8
BLACK
6
CONTINUOUS
10
227.922
20
-50.92
11
228.26
21
-50.9873
0
LINE
8
BLACK
6
CONTINUOUS
10
173.6
20
-91.75
11
160.6
21
-93.2
0
LINE
8
BLACK
6
CONTINUOUS
10
160.6
20
-93.2
11
160.6
21
-93.9
0
LINE
8
BLACK
6
CONTINUOUS
10
160.6
20
-93.9
11
173.6
21
-95.35
0
LINE
8
BLACK
6
CONTINUOUS
10
173.6
20
-95.35
11
173.6
21
-95.65
0
LINE
8
BLACK
6
CONTINUOUS
10
173.6
20
-95.65
11
160.6
21
-97.1
0
LINE
8
BLACK
6
CONTINUOUS
10
160.6
20
-97.1
11
160.6
21
-97.8
0
LINE
8
BLACK
6
CONTINUOUS
10
160.6
20
-97.8
11
173.6
21
-99.25
0
LINE
8
BLACK
6
CONTINUOUS
10
173.6
20
-99.25
11
173.6
21
-99.4
0
LINE
8
BLACK
6
CONTINUOUS
10
173.6
20
-99.4
11
156.6
21
-99.4
0
LINE
8
BLACK
6
CONTINUOUS
10
156.6
20
-99.4
11
156.6
21
-99.05
0
LINE
8
BLACK
6
CONTINUOUS
10
156.6
20
-99.05
11
143.6
21
-97.6
0
LINE
8
BLACK
6
CONTINUOUS
10
143.6
20
-97.6
11
143.6
21
-97.3
0
LINE
8
BLACK
6
CONTINUOUS
10
143.6
20
-97.3
11
156.6
21
-95.85
0
LINE
8
BLACK
6
CONTINUOUS
10
156.6
20
-95.85
11
156.6
21
-95.15
0
LINE
8
BLACK
6
CONTINUOUS
10
156.6
20
-95.15
11
143.6
21
-93.7
0
LINE
8
BLACK
6
CONTINUOUS
10
143.6
20
-93.7
11
143.6
21
-93.4
0
LINE
8
BLACK
6
CONTINUOUS
10
143.6
20
-93.4
11
156.6
21
-91.95
0
LINE
8
BLACK
6
CONTINUOUS
10
156.6
20
-91.95
11
156.6
21
-91.6
0
LINE
8
BLACK
6
CONTINUOUS
10
156.6
20
-91.6
11
173.6
21
-91.6
0
LINE
8
BLACK
6
CONTINUOUS
10
173.6
20
-91.6
11
173.6
21
-91.75
0
LINE
8
BLACK
6
CONTINUOUS
10
122
20
-91.75
11
109
21
-93.2
0
LINE
8
BLACK
6
CONTINUOUS
10
109
20
-93.2
11
109
21
-93.9
0
LINE
8
BLACK
6
CONTINUOUS
10
109
20
-93.9
11
122
21
-95.35
0
LINE
8
BLACK
6
CONTINUOUS
10
122
20
-95.35
11
122
21
-95.65
0
LINE
8
BLACK
6
CONTINUOUS
10
122
20
-95.65
11
109
21
-97.1
0
LINE
8
BLACK
6
CONTINUOUS
10
109
20
-97.1
11
109
21
-97.8
0
LINE
8
BLACK
6
CONTINUOUS
10
109
20
-97.8
11
122
21
-99.25
0
LINE
8
BLACK
6
CONTINUOUS
10
122
20
-99.25
11
122
21
-99.4
0
LINE
8
BLACK
6
CONTINUOUS
10
122
20
-99.4
11
105
21
-99.4
0
LINE
8
BLACK
6
CONTINUOUS
10
105
20
-99.4
11
105
21
-91.6
0
LINE
8
BLACK
6
CONTINUOUS
10
105
20
-91.6
11
122
21
-91.6
0
LINE
8
BLACK
6
CONTINUOUS
10
122
20
-91.6
11
122
21
-91.75
0
LINE
8
BLACK
6
CONTINUOUS
10
139.2
20
-91.75
11
126.2
21
-93.2
0
LINE
8
BLACK
6
CONTINUOUS
10
126.2
20
-93.2
11
126.2
21
-93.9
0
LINE
8
BLACK
6
CONTINUOUS
10
126.2
20
-93.9
11
139.2
21
-95.35
0
LINE
8
BLACK
6
CONTINUOUS
10
139.2
20
-95.35
11
139.2
21
-95.65
0
LINE
8
BLACK
6
CONTINUOUS
10
139.2
20
-95.65
11
126.2
21
-97.1
0
LINE
8
BLACK
6
CONTINUOUS
10
126.2
20
-97.1
11
126.2
21
-97.8
0
LINE
8
BLACK
6
CONTINUOUS
10
126.2
20
-97.8
11
139.2
21
-99.25
0
LINE
8
BLACK
6
CONTINUOUS
10
139.2
20
-99.25
11
139.2
21
-99.4
0
LINE
8
BLACK
6
CONTINUOUS
10
139.2
20
-99.4
11
122.2
21
-99.4
0
LINE
8
BLACK
6
CONTINUOUS
10
122.2
20
-99.4
11
122.2
21
-99.05
0
LINE
8
BLACK
6
CONTINUOUS
10
122.2
20
-99.05
11
109.2
21
-97.6
0
LINE
8
BLACK
6
CONTINUOUS
10
109.2
20
-97.6
11
109.2
21
-97.3
0
LINE
8
BLACK
6
CONTINUOUS
10
109.2
20
-97.3
11
122.2
21
-95.85
0
LINE
8
BLACK
6
CONTINUOUS
10
122.2
20
-95.85
11
122.2
21
-95.15
0
LINE
8
BLACK
6
CONTINUOUS
10
122.2
20
-95.15
11
109.2
21
-93.7
0
LINE
8
BLACK
6
CONTINUOUS
10
109.2
20
-93.7
11
109.2
21
-93.4
0
LINE
8
BLACK
6
CONTINUOUS
10
109.2
20
-93.4
11
122.2
21
-91.95
0
LINE
8
BLACK
6
CONTINUOUS
10
122.2
20
-91.95
11
122.2
21
-91.6
0
LINE
8
BLACK
6
CONTINUOUS
10
122.2
20
-91.6
11
139.2
21
-91.6
0
LINE
8
BLACK
6
CONTINUOUS
10
139.2
20
-91.6
11
139.2
21
-91.75
0
LINE
8
BLACK
6
CONTINUOUS
10
156.4
20
-91.75
11
143.4
21
-93.2
0
LINE
8
BLACK
6
CONTINUOUS
10
143.4
20
-93.2
11
143.4
21
-93.9
0
LINE
8
BLACK
6
CONTINUOUS
10
143.4
20
-93.9
11
156.4
21
-95.35
0
LINE
8
BLACK
6
CONTINUOUS
10
156.4
20
-95.35
11
156.4
21
-95.65
0
LINE
8
BLACK
6
CONTINUOUS
10
156.4
20
-95.65
11
143.4
21
-97.1
0
LINE
8
BLACK
6
CONTINUOUS
10
143.4
20
-97.1
11
143.4
21
-97.8
0
LINE
8
BLACK
6
CONTINUOUS
10
143.4
20
-97.8
11
156.4
21
-99.25
0
LINE
8
BLACK
6
CONTINUOUS
10
156.4
20
-99.25
11
156.4
21
-99.4
0
LINE
8
BLACK
6
CONTINUOUS
10
156.4
20
-99.4
11
139.4
21
-99.4
0
LINE
8
BLACK
6
CONTINUOUS
10
139.4
20
-99.4
11
139.4
21
-99.05
0
LINE
8
BLACK
6
CONTINUOUS
10
139.4
20
-99.05
11
126.4
21
-97.6
0
LINE
8
BLACK
6
CONTINUOUS
10
126.4
20
-97.6
11
126.4
21
-97.3
0
LINE
8
BLACK
6
CONTINUOUS
10
126.4
20
-97.3
11
139.4
21
-95.85
0
LINE
8
BLACK
6
CONTINUOUS
10
139.4
20
-95.85
11
139.4
21
-95.15
0
LINE
8
BLACK
6
CONTINUOUS
10
139.4
20
-95.15
11
126.4
21
-93.7
0
LINE
8
BLACK
6
CONTINUOUS
10
126.4
20
-93.7
11
126.4
21
-93.4
0
LINE
8
BLACK
6
CONTINUOUS
10
126.4
20
-93.4
11
139.4
21
-91.95
0
LINE
8
BLACK
6
CONTINUOUS
10
139.4
20
-91.95
11
139.4
21
-91.6
0
LINE
8
BLACK
6
CONTINUOUS
10
139.4
20
-91.6
11
156.4
21
-91.6
0
LINE
8
BLACK
6
CONTINUOUS
10
156.4
20
-91.6
11
156.4
21
-91.75
0
LINE
8
BLACK
6
CONTINUOUS
10
195
20
-99.4
11
191
21
-99.4
0
LINE
8
BLACK
6
CONTINUOUS
10
191
20
-99.4
11
191
21
-99.05
0
LINE
8
BLACK
6
CONTINUOUS
10
191
20
-99.05
11
178
21
-97.6
0
LINE
8
BLACK
6
CONTINUOUS
10
178
20
-97.6
11
178
21
-97.3
0
LINE
8
BLACK
6
CONTINUOUS
10
178
20
-97.3
11
191
21
-95.85
0
LINE
8
BLACK
6
CONTINUOUS
10
191
20
-95.85
11
191
21
-95.15
0
LINE
8
BLACK
6
CONTINUOUS
10
191
20
-95.15
11
178
21
-93.7
0
LINE
8
BLACK
6
CONTINUOUS
10
178
20
-93.7
11
178
21
-93.4
0
LINE
8
BLACK
6
CONTINUOUS
10
178
20
-93.4
11
191
21
-91.95
0
LINE
8
BLACK
6
CONTINUOUS
10
191
20
-91.95
11
191
21
-91.6
0
LINE
8
BLACK
6
CONTINUOUS
10
191
20
-91.6
11
195
21
-91.6
0
LINE
8
BLACK
6
CONTINUOUS
10
195
20
-91.6
11
195
21
-99.4
0
LINE
8
BLACK
6
CONTINUOUS
10
190.8
20
-91.75
11
177.8
21
-93.2
0
LINE
8
BLACK
6
CONTINUOUS
10
177.8
20
-93.2
11
177.8
21
-93.9
0
LINE
8
BLACK
6
CONTINUOUS
10
177.8
20
-93.9
11
190.8
21
-95.35
0
LINE
8
BLACK
6
CONTINUOUS
10
190.8
20
-95.35
11
190.8
21
-95.65
0
LINE
8
BLACK
6
CONTINUOUS
10
190.8
20
-95.65
11
177.8
21
-97.1
0
LINE
8
BLACK
6
CONTINUOUS
10
177.8
20
-97.1
11
177.8
21
-97.8
0
LINE
8
BLACK
6
CONTINUOUS
10
177.8
20
-97.8
11
190.8
21
-99.25
0
LINE
8
BLACK
6
CONTINUOUS
10
190.8
20
-99.25
11
190.8
21
-99.4
0
LINE
8
BLACK
6
CONTINUOUS
10
190.8
20
-99.4
11
173.8
21
-99.4
0
LINE
8
BLACK
6
CONTINUOUS
10
173.8
20
-99.4
11
173.8
21
-99.05
0
LINE
8
BLACK
6
CONTINUOUS
10
173.8
20
-99.05
11
160.8
21
-97.6
0
LINE
8
BLACK
6
CONTINUOUS
10
160.8
20
-97.6
11
160.8
21
-97.3
0
LINE
8
BLACK
6
CONTINUOUS
10
160.8
20
-97.3
11
173.8
21
-95.85
0
LINE
8
BLACK
6
CONTINUOUS
10
173.8
20
-95.85
11
173.8
21
-95.15
0
LINE
8
BLACK
6
CONTINUOUS
10
173.8
20
-95.15
11
160.8
21
-93.7
0
LINE
8
BLACK
6
CONTINUOUS
10
160.8
20
-93.7
11
160.8
21
-93.4
0
LINE
8
BLACK
6
CONTINUOUS
10
160.8
20
-93.4
11
173.8
21
-91.95
0
LINE
8
BLACK
6
CONTINUOUS
10
173.8
20
-91.95
11
173.8
21
-91.6
0
LINE
8
BLACK
6
CONTINUOUS
10
173.8
20
-91.6
11
190.8
21
-91.6
0
LINE
8
BLACK
6
CONTINUOUS
10
190.8
20
-91.6
11
190.8
21
-91.75
0
LINE
8
BLACK
6
CONTINUOUS
10
190.8
20
-51.25
11
177.8
21
-52.7
0
LINE
8
BLACK
6
CONTINUOUS
10
177.8
20
-52.7
11
177.8
21
-53.4
0
LINE
8
BLACK
6
CONTINUOUS
10
177.8
20
-53.4
11
190.8
21
-54.85
0
LINE
8
BLACK
6
CONTINUOUS
10
190.8
20
-54.85
11
190.8
21
-55.15
0
LINE
8
BLACK
6
CONTINUOUS
10
190.8
20
-55.15
11
177.8
21
-56.6
0
LINE
8
BLACK
6
CONTINUOUS
10
177.8
20
-56.6
11
177.8
21
-57.3
0
LINE
8
BLACK
6
CONTINUOUS
10
177.8
20
-57.3
11
190.8
21
-58.75
0
LINE
8
BLACK
6
CONTINUOUS
10
190.8
20
-58.75
11
190.8
21
-58.9
0
LINE
8
BLACK
6
CONTINUOUS
10
190.8
20
-58.9
11
173.8
21
-58.9
0
LINE
8
BLACK
6
CONTINUOUS
10
173.8
20
-58.9
11
173.8
21
-58.55
0
LINE
8
BLACK
6
CONTINUOUS
10
173.8
20
-58.55
11
160.8
21
-57.1
0
LINE
8
BLACK
6
CONTINUOUS
10
160.8
20
-57.1
11
160.8
21
-56.8
0
LINE
8
BLACK
6
CONTINUOUS
10
160.8
20
-56.8
11
173.8
21
-55.35
0
LINE
8
BLACK
6
CONTINUOUS
10
173.8
20
-55.35
11
173.8
21
-54.65
0
LINE
8
BLACK
6
CONTINUOUS
10
173.8
20
-54.65
11
160.8
21
-53.2
0
LINE
8
BLACK
6
CONTINUOUS
10
160.8
20
-53.2
11
160.8
21
-52.9
0
LINE
8
BLACK
6
CONTINUOUS
10
160.8
20
-52.9
11
173.8
21
-51.45
0
LINE
8
BLACK
6
CONTINUOUS
10
173.8
20
-51.45
11
173.8
21
-51.1
0
LINE
8
BLACK
6
CONTINUOUS
10
173.8
20
-51.1
11
190.8
21
-51.1
0
LINE
8
BLACK
6
CONTINUOUS
10
190.8
20
-51.1
11
190.8
21
-51.25
0
LINE
8
BLACK
6
CONTINUOUS
10
195
20
-58.9
11
191
21
-58.9
0
LINE
8
BLACK
6
CONTINUOUS
10
191
20
-58.9
11
191
21
-58.55
0
LINE
8
BLACK
6
CONTINUOUS
10
191
20
-58.55
11
178
21
-57.1
0
LINE
8
BLACK
6
CONTINUOUS
10
178
20
-57.1
11
178
21
-56.8
0
LINE
8
BLACK
6
CONTINUOUS
10
178
20
-56.8
11
191
21
-55.35
0
LINE
8
BLACK
6
CONTINUOUS
10
191
20
-55.35
11
191
21
-54.65
0
LINE
8
BLACK
6
CONTINUOUS
10
191
20
-54.65
11
178
21
-53.2
0
LINE
8
BLACK
6
CONTINUOUS
10
178
20
-53.2
11
178
21
-52.9
0
LINE
8
BLACK
6
CONTINUOUS
10
178
20
-52.9
11
191
21
-51.45
0
LINE
8
BLACK
6
CONTINUOUS
10
191
20
-51.45
11
191
21
-51.1
0
LINE
8
BLACK
6
CONTINUOUS
10
191
20
-51.1
11
195
21
-51.1
0
LINE
8
BLACK
6
CONTINUOUS
10
195
20
-51.1
11
195
21
-58.9
0
LINE
8
BLACK
6
CONTINUOUS
10
173.6
20
-51.25
11
160.6
21
-52.7
0
LINE
8
BLACK
6
CONTINUOUS
10
160.6
20
-52.7
11
160.6
21
-53.4
0
LINE
8
BLACK
6
CONTINUOUS
10
160.6
20
-53.4
11
173.6
21
-54.85
0
LINE
8
BLACK
6
CONTINUOUS
10
173.6
20
-54.85
11
173.6
21
-55.15
0
LINE
8
BLACK
6
CONTINUOUS
10
173.6
20
-55.15
11
160.6
21
-56.6
0
LINE
8
BLACK
6
CONTINUOUS
10
160.6
20
-56.6
11
160.6
21
-57.3
0
LINE
8
BLACK
6
CONTINUOUS
10
160.6
20
-57.3
11
173.6
21
-58.75
0
LINE
8
BLACK
6
CONTINUOUS
10
173.6
20
-58.75
11
173.6
21
-58.9
0
LINE
8
BLACK
6
CONTINUOUS
10
173.6
20
-58.9
11
156.6
21
-58.9
0
LINE
8
BLACK
6
CONTINUOUS
10
156.6
20
-58.9
11
156.6
21
-58.55
0
LINE
8
BLACK
6
CONTINUOUS
10
156.6
20
-58.55
11
143.6
21
-57.1
0
LINE
8
BLACK
6
CONTINUOUS
10
143.6
20
-57.1
11
143.6
21
-56.8
0
LINE
8
BLACK
6
CONTINUOUS
10
143.6
20
-56.8
11
156.6
21
-55.35
0
LINE
8
BLACK
6
CONTINUOUS
10
156.6
20
-55.35
11
156.6
21
-54.65
0
LINE
8
BLACK
6
CONTINUOUS
10
156.6
20
-54.65
11
143.6
21
-53.2
0
LINE
8
BLACK
6
CONTINUOUS
10
143.6
20
-53.2
11
143.6
21
-52.9
0
LINE
8
BLACK
6
CONTINUOUS
10
143.6
20
-52.9
11
156.6
21
-51.45
0
LINE
8
BLACK
6
CONTINUOUS
10
156.6
20
-51.45
11
156.6
21
-51.1
0
LINE
8
BLACK
6
CONTINUOUS
10
156.6
20
-51.1
11
173.6
21
-51.1
0
LINE
8
BLACK
6
CONTINUOUS
10
173.6
20
-51.1
11
173.6
21
-51.25
0
LINE
8
BLACK
6
CONTINUOUS
10
156.4
20
-51.25
11
143.4
21
-52.7
0
LINE
8
BLACK
6
CONTINUOUS
10
143.4
20
-52.7
11
143.4
21
-53.4
0
LINE
8
BLACK
6
CONTINUOUS
10
143.4
20
-53.4
11
156.4
21
-54.85
0
LINE
8
BLACK
6
CONTINUOUS
10
156.4
20
-54.85
11
156.4
21
-55.15
0
LINE
8
BLACK
6
CONTINUOUS
10
156.4
20
-55.15
11
143.4
21
-56.6
0
LINE
8
BLACK
6
CONTINUOUS
10
143.4
20
-56.6
11
143.4
21
-57.3
0
LINE
8
BLACK
6
CONTINUOUS
10
143.4
20
-57.3
11
156.4
21
-58.75
0
LINE
8
BLACK
6
CONTINUOUS
10
156.4
20
-58.75
11
156.4
21
-58.9
0
LINE
8
BLACK
6
CONTINUOUS
10
156.4
20
-58.9
11
139.4
21
-58.9
0
LINE
8
BLACK
6
CONTINUOUS
10
139.4
20
-58.9
11
139.4
21
-58.55
0
LINE
8
BLACK
6
CONTINUOUS
10
139.4
20
-58.55
11
126.4
21
-57.1
0
LINE
8
BLACK
6
CONTINUOUS
10
126.4
20
-57.1
11
126.4
21
-56.8
0
LINE
8
BLACK
6
CONTINUOUS
10
126.4
20
-56.8
11
139.4
21
-55.35
0
LINE
8
BLACK
6
CONTINUOUS
10
139.4
20
-55.35
11
139.4
21
-54.65
0
LINE
8
BLACK
6
CONTINUOUS
10
139.4
20
-54.65
11
126.4
21
-53.2
0
LINE
8
BLACK
6
CONTINUOUS
10
126.4
20
-53.2
11
126.4
21
-52.9
0
LINE
8
BLACK
6
CONTINUOUS
10
126.4
20
-52.9
11
139.4
21
-51.45
0
LINE
8
BLACK
6
CONTINUOUS
10
139.4
20
-51.45
11
139.4
21
-51.1
0
LINE
8
BLACK
6
CONTINUOUS
10
139.4
20
-51.1
11
156.4
21
-51.1
0
LINE
8
BLACK
6
CONTINUOUS
10
156.4
20
-51.1
11
156.4
21
-51.25
0
LINE
8
BLACK
6
CONTINUOUS
10
139.2
20
-51.25
11
126.2
21
-52.7
0
LINE
8
BLACK
6
CONTINUOUS
10
126.2
20
-52.7
11
126.2
21
-53.4
0
LINE
8
BLACK
6
CONTINUOUS
10
126.2
20
-53.4
11
139.2
21
-54.85
0
LINE
8
BLACK
6
CONTINUOUS
10
139.2
20
-54.85
11
139.2
21
-55.15
0
LINE
8
BLACK
6
CONTINUOUS
10
139.2
20
-55.15
11
126.2
21
-56.6
0
LINE
8
BLACK
6
CONTINUOUS
10
126.2
20
-56.6
11
126.2
21
-57.3
0
LINE
8
BLACK
6
CONTINUOUS
10
126.2
20
-57.3
11
139.2
21
-58.75
0
LINE
8
BLACK
6
CONTINUOUS
10
139.2
20
-58.75
11
139.2
21
-58.9
0
LINE
8
BLACK
6
CONTINUOUS
10
139.2
20
-58.9
11
122.2
21
-58.9
0
LINE
8
BLACK
6
CONTINUOUS
10
122.2
20
-58.9
11
122.2
21
-58.55
0
LINE
8
BLACK
6
CONTINUOUS
10
122.2
20
-58.55
11
109.2
21
-57.1
0
LINE
8
BLACK
6
CONTINUOUS
10
109.2
20
-57.1
11
109.2
21
-56.8
0
LINE
8
BLACK
6
CONTINUOUS
10
109.2
20
-56.8
11
122.2
21
-55.35
0
LINE
8
BLACK
6
CONTINUOUS
10
122.2
20
-55.35
11
122.2
21
-54.65
0
LINE
8
BLACK
6
CONTINUOUS
10
122.2
20
-54.65
11
109.2
21
-53.2
0
LINE
8
BLACK
6
CONTINUOUS
10
109.2
20
-53.2
11
109.2
21
-52.9
0
LINE
8
BLACK
6
CONTINUOUS
10
109.2
20
-52.9
11
122.2
21
-51.45
0
LINE
8
BLACK
6
CONTINUOUS
10
122.2
20
-51.45
11
122.2
21
-51.1
0
LINE
8
BLACK
6
CONTINUOUS
10
122.2
20
-51.1
11
139.2
21
-51.1
0
LINE
8
BLACK
6
CONTINUOUS
10
139.2
20
-51.1
11
139.2
21
-51.25
0
LINE
8
BLACK
6
CONTINUOUS
10
122
20
-51.25
11
109
21
-52.7
0
LINE
8
BLACK
6
CONTINUOUS
10
109
20
-52.7
11
109
21
-53.4
0
LINE
8
BLACK
6
CONTINUOUS
10
109
20
-53.4
11
122
21
-54.85
0
LINE
8
BLACK
6
CONTINUOUS
10
122
20
-54.85
11
122
21
-55.15
0
LINE
8
BLACK
6
CONTINUOUS
10
122
20
-55.15
11
109
21
-56.6
0
LINE
8
BLACK
6
CONTINUOUS
10
109
20
-56.6
11
109
21
-57.3
0
LINE
8
BLACK
6
CONTINUOUS
10
109
20
-57.3
11
122
21
-58.75
0
LINE
8
BLACK
6
CONTINUOUS
10
122
20
-58.75
11
122
21
-58.9
0
LINE
8
BLACK
6
CONTINUOUS
10
122
20
-58.9
11
105
21
-58.9
0
LINE
8
BLACK
6
CONTINUOUS
10
105
20
-58.9
11
105
21
-51.1
0
LINE
8
BLACK
6
CONTINUOUS
10
105
20
-51.1
11
122
21
-51.1
0
LINE
8
BLACK
6
CONTINUOUS
10
122
20
-51.1
11
122
21
-51.25
0
CIRCLE
8
BLACK
10
216.3
20
-60
40
0.15
0
CIRCLE
8
BLACK
10
214.3
20
-60
40
0.15
0
CIRCLE
8
BLACK
10
97
20
-59.9
40
0.15
0
CIRCLE
8
BLACK
10
220.9
20
-66.4
40
0.15
0
CIRCLE
8
BLACK
10
219
20
-68.115
40
0.15
0
CIRCLE
8
BLACK
10
231.15
20
-65.05
40
0.15
0
CIRCLE
8
BLACK
10
175.75
20
-55
40
0.15
0
CIRCLE
8
BLACK
10
107
20
-55
40
0.15
0
CIRCLE
8
BLACK
10
193
20
-55
40
0.15
0
CIRCLE
8
BLACK
10
158.75
20
-55
40
0.15
0
CIRCLE
8
BLACK
10
141.25
20
-54.75
40
0.15
0
CIRCLE
8
BLACK
10
124.2
20
-55
40
0.15
0
CIRCLE
8
BLACK
10
176
20
-95.5
40
0.15
0
CIRCLE
8
BLACK
10
107
20
-95.5
40
0.15
0
CIRCLE
8
BLACK
10
193
20
-95.5
40
0.15
0
CIRCLE
8
BLACK
10
158.95
20
-95.5
40
0.15
0
CIRCLE
8
BLACK
10
141.35
20
-95.8
40
0.15
0
CIRCLE
8
BLACK
10
124.95
20
-95.2
40
0.15
  0
ENDSEC
  0
EOF
