%TF.GenerationSoftware,KiCad,Pcbnew,5.1.9-73d0e3b20d~88~ubuntu18.04.1*%
%TF.CreationDate,2021-01-03T17:48:49+01:00*%
%TF.ProjectId,ss_fp_87dc3_bridgeboard,73735f66-705f-4383-9764-63335f627269,r0.1*%
%TF.SameCoordinates,PX5f5e100PY2faf080*%
%TF.FileFunction,Soldermask,Bot*%
%TF.FilePolarity,Negative*%
%FSLAX46Y46*%
G04 Gerber Fmt 4.6, Leading zero omitted, Abs format (unit mm)*
G04 Created by KiCad (PCBNEW 5.1.9-73d0e3b20d~88~ubuntu18.04.1) date 2021-01-03 17:48:49*
%MOMM*%
%LPD*%
G01*
G04 APERTURE LIST*
%ADD10O,1.800000X1.800000*%
G04 APERTURE END LIST*
%TO.C,J117*%
G36*
G01*
X13350000Y-37535000D02*
X11650000Y-37535000D01*
G75*
G02*
X11600000Y-37485000I0J50000D01*
G01*
X11600000Y-35785000D01*
G75*
G02*
X11650000Y-35735000I50000J0D01*
G01*
X13350000Y-35735000D01*
G75*
G02*
X13400000Y-35785000I0J-50000D01*
G01*
X13400000Y-37485000D01*
G75*
G02*
X13350000Y-37535000I-50000J0D01*
G01*
G37*
D10*
X15040000Y-36635000D03*
X17580000Y-36635000D03*
%TD*%
%TO.C,J115*%
G36*
G01*
X28290000Y-42615000D02*
X26590000Y-42615000D01*
G75*
G02*
X26540000Y-42565000I0J50000D01*
G01*
X26540000Y-40865000D01*
G75*
G02*
X26590000Y-40815000I50000J0D01*
G01*
X28290000Y-40815000D01*
G75*
G02*
X28340000Y-40865000I0J-50000D01*
G01*
X28340000Y-42565000D01*
G75*
G02*
X28290000Y-42615000I-50000J0D01*
G01*
G37*
X29980000Y-41715000D03*
%TD*%
%TO.C,J113*%
G36*
G01*
X3190000Y-42615000D02*
X1490000Y-42615000D01*
G75*
G02*
X1440000Y-42565000I0J50000D01*
G01*
X1440000Y-40865000D01*
G75*
G02*
X1490000Y-40815000I50000J0D01*
G01*
X3190000Y-40815000D01*
G75*
G02*
X3240000Y-40865000I0J-50000D01*
G01*
X3240000Y-42565000D01*
G75*
G02*
X3190000Y-42615000I-50000J0D01*
G01*
G37*
X4880000Y-41715000D03*
%TD*%
%TO.C,J118*%
G36*
G01*
X38450000Y-37535000D02*
X36750000Y-37535000D01*
G75*
G02*
X36700000Y-37485000I0J50000D01*
G01*
X36700000Y-35785000D01*
G75*
G02*
X36750000Y-35735000I50000J0D01*
G01*
X38450000Y-35735000D01*
G75*
G02*
X38500000Y-35785000I0J-50000D01*
G01*
X38500000Y-37485000D01*
G75*
G02*
X38450000Y-37535000I-50000J0D01*
G01*
G37*
X40140000Y-36635000D03*
X42680000Y-36635000D03*
%TD*%
%TO.C,J114*%
G36*
G01*
X15890000Y-42615000D02*
X14190000Y-42615000D01*
G75*
G02*
X14140000Y-42565000I0J50000D01*
G01*
X14140000Y-40865000D01*
G75*
G02*
X14190000Y-40815000I50000J0D01*
G01*
X15890000Y-40815000D01*
G75*
G02*
X15940000Y-40865000I0J-50000D01*
G01*
X15940000Y-42565000D01*
G75*
G02*
X15890000Y-42615000I-50000J0D01*
G01*
G37*
X17580000Y-41715000D03*
X20120000Y-41715000D03*
X22660000Y-41715000D03*
%TD*%
%TO.C,J116*%
G36*
G01*
X40990000Y-42615000D02*
X39290000Y-42615000D01*
G75*
G02*
X39240000Y-42565000I0J50000D01*
G01*
X39240000Y-40865000D01*
G75*
G02*
X39290000Y-40815000I50000J0D01*
G01*
X40990000Y-40815000D01*
G75*
G02*
X41040000Y-40865000I0J-50000D01*
G01*
X41040000Y-42565000D01*
G75*
G02*
X40990000Y-42615000I-50000J0D01*
G01*
G37*
X42680000Y-41715000D03*
X45220000Y-41715000D03*
X47760000Y-41715000D03*
%TD*%
%TO.C,J112*%
X42680000Y-19500000D03*
X40140000Y-19500000D03*
G36*
G01*
X38450000Y-20400000D02*
X36750000Y-20400000D01*
G75*
G02*
X36700000Y-20350000I0J50000D01*
G01*
X36700000Y-18650000D01*
G75*
G02*
X36750000Y-18600000I50000J0D01*
G01*
X38450000Y-18600000D01*
G75*
G02*
X38500000Y-18650000I0J-50000D01*
G01*
X38500000Y-20350000D01*
G75*
G02*
X38450000Y-20400000I-50000J0D01*
G01*
G37*
%TD*%
%TO.C,J111*%
X17580000Y-19500000D03*
X15040000Y-19500000D03*
G36*
G01*
X13350000Y-20400000D02*
X11650000Y-20400000D01*
G75*
G02*
X11600000Y-20350000I0J50000D01*
G01*
X11600000Y-18650000D01*
G75*
G02*
X11650000Y-18600000I50000J0D01*
G01*
X13350000Y-18600000D01*
G75*
G02*
X13400000Y-18650000I0J-50000D01*
G01*
X13400000Y-20350000D01*
G75*
G02*
X13350000Y-20400000I-50000J0D01*
G01*
G37*
%TD*%
%TO.C,J110*%
X47760000Y-24580000D03*
X45220000Y-24580000D03*
X42680000Y-24580000D03*
G36*
G01*
X40990000Y-25480000D02*
X39290000Y-25480000D01*
G75*
G02*
X39240000Y-25430000I0J50000D01*
G01*
X39240000Y-23730000D01*
G75*
G02*
X39290000Y-23680000I50000J0D01*
G01*
X40990000Y-23680000D01*
G75*
G02*
X41040000Y-23730000I0J-50000D01*
G01*
X41040000Y-25430000D01*
G75*
G02*
X40990000Y-25480000I-50000J0D01*
G01*
G37*
%TD*%
%TO.C,J109*%
X29980000Y-24580000D03*
G36*
G01*
X28290000Y-25480000D02*
X26590000Y-25480000D01*
G75*
G02*
X26540000Y-25430000I0J50000D01*
G01*
X26540000Y-23730000D01*
G75*
G02*
X26590000Y-23680000I50000J0D01*
G01*
X28290000Y-23680000D01*
G75*
G02*
X28340000Y-23730000I0J-50000D01*
G01*
X28340000Y-25430000D01*
G75*
G02*
X28290000Y-25480000I-50000J0D01*
G01*
G37*
%TD*%
%TO.C,J108*%
X22660000Y-24580000D03*
X20120000Y-24580000D03*
X17580000Y-24580000D03*
G36*
G01*
X15890000Y-25480000D02*
X14190000Y-25480000D01*
G75*
G02*
X14140000Y-25430000I0J50000D01*
G01*
X14140000Y-23730000D01*
G75*
G02*
X14190000Y-23680000I50000J0D01*
G01*
X15890000Y-23680000D01*
G75*
G02*
X15940000Y-23730000I0J-50000D01*
G01*
X15940000Y-25430000D01*
G75*
G02*
X15890000Y-25480000I-50000J0D01*
G01*
G37*
%TD*%
%TO.C,J107*%
X4880000Y-24580000D03*
G36*
G01*
X3190000Y-25480000D02*
X1490000Y-25480000D01*
G75*
G02*
X1440000Y-25430000I0J50000D01*
G01*
X1440000Y-23730000D01*
G75*
G02*
X1490000Y-23680000I50000J0D01*
G01*
X3190000Y-23680000D01*
G75*
G02*
X3240000Y-23730000I0J-50000D01*
G01*
X3240000Y-25430000D01*
G75*
G02*
X3190000Y-25480000I-50000J0D01*
G01*
G37*
%TD*%
%TO.C,J106*%
X42680000Y-2635000D03*
X40140000Y-2635000D03*
G36*
G01*
X38450000Y-3535000D02*
X36750000Y-3535000D01*
G75*
G02*
X36700000Y-3485000I0J50000D01*
G01*
X36700000Y-1785000D01*
G75*
G02*
X36750000Y-1735000I50000J0D01*
G01*
X38450000Y-1735000D01*
G75*
G02*
X38500000Y-1785000I0J-50000D01*
G01*
X38500000Y-3485000D01*
G75*
G02*
X38450000Y-3535000I-50000J0D01*
G01*
G37*
%TD*%
%TO.C,J105*%
X47760000Y-7715000D03*
X45220000Y-7715000D03*
X42680000Y-7715000D03*
G36*
G01*
X40990000Y-8615000D02*
X39290000Y-8615000D01*
G75*
G02*
X39240000Y-8565000I0J50000D01*
G01*
X39240000Y-6865000D01*
G75*
G02*
X39290000Y-6815000I50000J0D01*
G01*
X40990000Y-6815000D01*
G75*
G02*
X41040000Y-6865000I0J-50000D01*
G01*
X41040000Y-8565000D01*
G75*
G02*
X40990000Y-8615000I-50000J0D01*
G01*
G37*
%TD*%
%TO.C,J104*%
X29980000Y-7715000D03*
G36*
G01*
X28290000Y-8615000D02*
X26590000Y-8615000D01*
G75*
G02*
X26540000Y-8565000I0J50000D01*
G01*
X26540000Y-6865000D01*
G75*
G02*
X26590000Y-6815000I50000J0D01*
G01*
X28290000Y-6815000D01*
G75*
G02*
X28340000Y-6865000I0J-50000D01*
G01*
X28340000Y-8565000D01*
G75*
G02*
X28290000Y-8615000I-50000J0D01*
G01*
G37*
%TD*%
%TO.C,J103*%
X17580000Y-2635000D03*
X15040000Y-2635000D03*
G36*
G01*
X13350000Y-3535000D02*
X11650000Y-3535000D01*
G75*
G02*
X11600000Y-3485000I0J50000D01*
G01*
X11600000Y-1785000D01*
G75*
G02*
X11650000Y-1735000I50000J0D01*
G01*
X13350000Y-1735000D01*
G75*
G02*
X13400000Y-1785000I0J-50000D01*
G01*
X13400000Y-3485000D01*
G75*
G02*
X13350000Y-3535000I-50000J0D01*
G01*
G37*
%TD*%
%TO.C,J102*%
X22660000Y-7715000D03*
X20120000Y-7715000D03*
X17580000Y-7715000D03*
G36*
G01*
X15890000Y-8615000D02*
X14190000Y-8615000D01*
G75*
G02*
X14140000Y-8565000I0J50000D01*
G01*
X14140000Y-6865000D01*
G75*
G02*
X14190000Y-6815000I50000J0D01*
G01*
X15890000Y-6815000D01*
G75*
G02*
X15940000Y-6865000I0J-50000D01*
G01*
X15940000Y-8565000D01*
G75*
G02*
X15890000Y-8615000I-50000J0D01*
G01*
G37*
%TD*%
%TO.C,J101*%
X4880000Y-7715000D03*
G36*
G01*
X3190000Y-8615000D02*
X1490000Y-8615000D01*
G75*
G02*
X1440000Y-8565000I0J50000D01*
G01*
X1440000Y-6865000D01*
G75*
G02*
X1490000Y-6815000I50000J0D01*
G01*
X3190000Y-6815000D01*
G75*
G02*
X3240000Y-6865000I0J-50000D01*
G01*
X3240000Y-8565000D01*
G75*
G02*
X3190000Y-8615000I-50000J0D01*
G01*
G37*
%TD*%
M02*
