M48
; DRILL file {KiCad 5.1.9-73d0e3b20d~88~ubuntu18.04.1} date Sun Jan  3 17:48:51 2021
; FORMAT={-:-/ absolute / metric / decimal}
; #@! TF.CreationDate,2021-01-03T17:48:51+01:00
; #@! TF.GenerationSoftware,Kicad,Pcbnew,5.1.9-73d0e3b20d~88~ubuntu18.04.1
; #@! TF.FileFunction,Plated,1,2,PTH
FMAT,2
METRIC
T1C1.000
%
G90
G05
T1
X2.34Y-7.715
X2.34Y-24.58
X2.34Y-41.715
X4.88Y-7.715
X4.88Y-24.58
X4.88Y-41.715
X12.5Y-2.635
X12.5Y-19.5
X12.5Y-36.635
X15.04Y-2.635
X15.04Y-7.715
X15.04Y-19.5
X15.04Y-24.58
X15.04Y-36.635
X15.04Y-41.715
X17.58Y-2.635
X17.58Y-7.715
X17.58Y-19.5
X17.58Y-24.58
X17.58Y-36.635
X17.58Y-41.715
X20.12Y-7.715
X20.12Y-24.58
X20.12Y-41.715
X22.66Y-7.715
X22.66Y-24.58
X22.66Y-41.715
X27.44Y-7.715
X27.44Y-24.58
X27.44Y-41.715
X29.98Y-7.715
X29.98Y-24.58
X29.98Y-41.715
X37.6Y-2.635
X37.6Y-19.5
X37.6Y-36.635
X40.14Y-2.635
X40.14Y-7.715
X40.14Y-19.5
X40.14Y-24.58
X40.14Y-36.635
X40.14Y-41.715
X42.68Y-2.635
X42.68Y-7.715
X42.68Y-19.5
X42.68Y-24.58
X42.68Y-36.635
X42.68Y-41.715
X45.22Y-7.715
X45.22Y-24.58
X45.22Y-41.715
X47.76Y-7.715
X47.76Y-24.58
X47.76Y-41.715
T0
M30
