%TF.GenerationSoftware,KiCad,Pcbnew,5.1.9-73d0e3b20d~88~ubuntu18.04.1*%
%TF.CreationDate,2021-01-03T17:48:49+01:00*%
%TF.ProjectId,ss_fp_87dc3_bridgeboard,73735f66-705f-4383-9764-63335f627269,r0.1*%
%TF.SameCoordinates,PX5f5e100PY2faf080*%
%TF.FileFunction,Legend,Bot*%
%TF.FilePolarity,Positive*%
%FSLAX46Y46*%
G04 Gerber Fmt 4.6, Leading zero omitted, Abs format (unit mm)*
G04 Created by KiCad (PCBNEW 5.1.9-73d0e3b20d~88~ubuntu18.04.1) date 2021-01-03 17:48:49*
%MOMM*%
%LPD*%
G01*
G04 APERTURE LIST*
%ADD10C,0.150000*%
%ADD11C,0.010000*%
G04 APERTURE END LIST*
D10*
X36738571Y-42611904D02*
X36738571Y-41811904D01*
X36538571Y-42383333D01*
X36338571Y-41811904D01*
X36338571Y-42611904D01*
X35881428Y-41811904D02*
X35881428Y-42383333D01*
X35910000Y-42497619D01*
X35967142Y-42573809D01*
X36052857Y-42611904D01*
X36110000Y-42611904D01*
X11638571Y-42611904D02*
X11638571Y-41811904D01*
X11438571Y-42383333D01*
X11238571Y-41811904D01*
X11238571Y-42611904D01*
X10781428Y-41811904D02*
X10781428Y-42383333D01*
X10810000Y-42497619D01*
X10867142Y-42573809D01*
X10952857Y-42611904D01*
X11010000Y-42611904D01*
X36738571Y-25711904D02*
X36738571Y-24911904D01*
X36538571Y-25483333D01*
X36338571Y-24911904D01*
X36338571Y-25711904D01*
X35881428Y-24911904D02*
X35881428Y-25483333D01*
X35910000Y-25597619D01*
X35967142Y-25673809D01*
X36052857Y-25711904D01*
X36110000Y-25711904D01*
X11638571Y-25711904D02*
X11638571Y-24911904D01*
X11438571Y-25483333D01*
X11238571Y-24911904D01*
X11238571Y-25711904D01*
X10781428Y-24911904D02*
X10781428Y-25483333D01*
X10810000Y-25597619D01*
X10867142Y-25673809D01*
X10952857Y-25711904D01*
X11010000Y-25711904D01*
X11638571Y-8611904D02*
X11638571Y-7811904D01*
X11438571Y-8383333D01*
X11238571Y-7811904D01*
X11238571Y-8611904D01*
X10781428Y-7811904D02*
X10781428Y-8383333D01*
X10810000Y-8497619D01*
X10867142Y-8573809D01*
X10952857Y-8611904D01*
X11010000Y-8611904D01*
X36738571Y-8711904D02*
X36738571Y-7911904D01*
X36538571Y-8483333D01*
X36338571Y-7911904D01*
X36338571Y-8711904D01*
X35881428Y-7911904D02*
X35881428Y-8483333D01*
X35910000Y-8597619D01*
X35967142Y-8673809D01*
X36052857Y-8711904D01*
X36110000Y-8711904D01*
D11*
%TO.C,Logo106*%
G36*
X8359583Y-39280209D02*
G01*
X8386042Y-39306667D01*
X8412500Y-39280209D01*
X8386042Y-39253750D01*
X8359583Y-39280209D01*
G37*
X8359583Y-39280209D02*
X8386042Y-39306667D01*
X8412500Y-39280209D01*
X8386042Y-39253750D01*
X8359583Y-39280209D01*
G36*
X9641772Y-43220801D02*
G01*
X9597634Y-43265417D01*
X9555597Y-43354216D01*
X9558024Y-43393896D01*
X9539157Y-43428988D01*
X9503538Y-43434167D01*
X9412111Y-43465216D01*
X9391458Y-43487084D01*
X9413471Y-43523390D01*
X9520306Y-43539716D01*
X9541349Y-43540000D01*
X9671604Y-43526102D01*
X9735890Y-43468059D01*
X9759207Y-43399499D01*
X9763023Y-43276010D01*
X9716308Y-43210161D01*
X9641772Y-43220801D01*
G37*
X9641772Y-43220801D02*
X9597634Y-43265417D01*
X9555597Y-43354216D01*
X9558024Y-43393896D01*
X9539157Y-43428988D01*
X9503538Y-43434167D01*
X9412111Y-43465216D01*
X9391458Y-43487084D01*
X9413471Y-43523390D01*
X9520306Y-43539716D01*
X9541349Y-43540000D01*
X9671604Y-43526102D01*
X9735890Y-43468059D01*
X9759207Y-43399499D01*
X9763023Y-43276010D01*
X9716308Y-43210161D01*
X9641772Y-43220801D01*
G36*
X11830670Y-38453118D02*
G01*
X11823396Y-38463608D01*
X11751111Y-38498425D01*
X11714439Y-38491727D01*
X11649510Y-38490712D01*
X11640417Y-38509172D01*
X11604809Y-38570499D01*
X11510248Y-38684954D01*
X11375125Y-38833427D01*
X11217830Y-38996807D01*
X11056756Y-39155983D01*
X10910293Y-39291846D01*
X10798289Y-39384227D01*
X10635344Y-39473779D01*
X10506729Y-39488156D01*
X10373131Y-39505453D01*
X10277295Y-39570765D01*
X10179281Y-39684889D01*
X10170274Y-39757826D01*
X10248709Y-39782917D01*
X10307083Y-39797245D01*
X10275167Y-39846417D01*
X10222147Y-39932285D01*
X10227620Y-40040955D01*
X10296587Y-40190814D01*
X10420658Y-40381216D01*
X10519413Y-40531979D01*
X10581294Y-40646039D01*
X10593605Y-40699825D01*
X10592637Y-40700540D01*
X10465307Y-40753613D01*
X10307720Y-40796062D01*
X10165569Y-40817627D01*
X10093042Y-40812714D01*
X10049543Y-40783158D01*
X10037122Y-40722341D01*
X10054982Y-40603766D01*
X10083081Y-40480546D01*
X10123360Y-40277489D01*
X10148320Y-40084552D01*
X10152549Y-39994584D01*
X10150117Y-39809375D01*
X10069444Y-39994584D01*
X10013171Y-40155017D01*
X9958015Y-40361483D01*
X9932571Y-40481686D01*
X9895563Y-40637843D01*
X9856706Y-40735919D01*
X9830200Y-40755045D01*
X9805534Y-40688148D01*
X9814792Y-40629584D01*
X9814058Y-40527813D01*
X9741997Y-40490997D01*
X9626145Y-40525590D01*
X9534281Y-40566332D01*
X9505312Y-40552275D01*
X9541198Y-40475928D01*
X9643900Y-40329800D01*
X9695181Y-40261849D01*
X9805597Y-40108660D01*
X9847263Y-40027288D01*
X9823050Y-40011635D01*
X9811071Y-40015652D01*
X9681193Y-40057048D01*
X9616653Y-40041528D01*
X9611728Y-40027300D01*
X9514564Y-40027300D01*
X9485110Y-40126462D01*
X9433780Y-40197808D01*
X9410785Y-40206250D01*
X9382528Y-40164073D01*
X9394466Y-40087188D01*
X9438269Y-39969320D01*
X9476152Y-39938586D01*
X9502123Y-39955318D01*
X9514564Y-40027300D01*
X9611728Y-40027300D01*
X9588537Y-39960312D01*
X9586496Y-39947448D01*
X9587881Y-39857110D01*
X9639764Y-39848845D01*
X9646019Y-39851123D01*
X9737680Y-39838715D01*
X9870239Y-39768576D01*
X10014184Y-39661990D01*
X10140003Y-39540240D01*
X10207993Y-39445823D01*
X10211950Y-39433171D01*
X10039739Y-39433171D01*
X10001837Y-39489189D01*
X9889673Y-39586506D01*
X9816629Y-39626732D01*
X9719162Y-39665005D01*
X9685927Y-39666488D01*
X9682500Y-39632700D01*
X9682500Y-39632661D01*
X9730547Y-39576723D01*
X9865982Y-39495561D01*
X10026458Y-39418822D01*
X10039739Y-39433171D01*
X10211950Y-39433171D01*
X10254888Y-39295884D01*
X10207216Y-39192528D01*
X10062880Y-39131452D01*
X10053725Y-39129558D01*
X9884688Y-39128198D01*
X9727181Y-39179121D01*
X9613873Y-39266481D01*
X9576667Y-39360942D01*
X9600666Y-39446163D01*
X9633363Y-39465417D01*
X9648123Y-39494843D01*
X9611630Y-39543847D01*
X9536529Y-39638100D01*
X9512020Y-39685816D01*
X9451399Y-39719320D01*
X9326489Y-39704914D01*
X9162293Y-39651501D01*
X8983811Y-39567987D01*
X8816046Y-39463273D01*
X8756891Y-39416896D01*
X8612355Y-39298996D01*
X8593794Y-39284997D01*
X8492764Y-39284997D01*
X8488448Y-39312212D01*
X8412380Y-39358061D01*
X8343383Y-39325744D01*
X8327309Y-39264360D01*
X8381222Y-39228175D01*
X8440349Y-39235148D01*
X8492764Y-39284997D01*
X8593794Y-39284997D01*
X8486243Y-39203884D01*
X8434187Y-39169262D01*
X8369166Y-39113277D01*
X8372652Y-39035272D01*
X8399174Y-38970825D01*
X8434518Y-38862607D01*
X8402379Y-38835400D01*
X8308442Y-38881117D01*
X8201687Y-38895982D01*
X8161642Y-38872766D01*
X8081738Y-38841149D01*
X8030902Y-38907173D01*
X8010493Y-39015607D01*
X8038137Y-39149117D01*
X8102609Y-39204905D01*
X8233158Y-39288394D01*
X8297443Y-39338586D01*
X8524708Y-39532763D01*
X8740803Y-39712196D01*
X8930405Y-39864676D01*
X9078189Y-39977993D01*
X9168830Y-40039935D01*
X9187573Y-40047835D01*
X9241997Y-40089474D01*
X9313448Y-40190282D01*
X9319285Y-40200370D01*
X9365875Y-40295109D01*
X9377182Y-40380619D01*
X9351755Y-40495048D01*
X9302703Y-40636598D01*
X9223838Y-40860934D01*
X9181786Y-41012032D01*
X9174829Y-41115225D01*
X9201250Y-41195848D01*
X9259142Y-41278992D01*
X9369666Y-41382277D01*
X9510041Y-41420838D01*
X9580508Y-41423334D01*
X9788333Y-41423334D01*
X9789144Y-41859896D01*
X9794992Y-42071989D01*
X9809804Y-42247824D01*
X9830711Y-42356816D01*
X9837119Y-42370960D01*
X9858934Y-42489979D01*
X9800686Y-42608218D01*
X9683512Y-42693923D01*
X9608261Y-42714819D01*
X9207434Y-42776713D01*
X8883971Y-42839129D01*
X8609551Y-42908196D01*
X8386042Y-42979379D01*
X8208594Y-43047502D01*
X8127104Y-43091539D01*
X8134112Y-43109870D01*
X8222153Y-43100874D01*
X8383765Y-43062929D01*
X8548337Y-43014632D01*
X8765827Y-42959533D01*
X9032843Y-42910224D01*
X9293176Y-42877016D01*
X9303732Y-42876074D01*
X9738081Y-42838185D01*
X9684412Y-42979346D01*
X9657239Y-43085561D01*
X9696115Y-43141095D01*
X9749226Y-43164550D01*
X9866567Y-43190268D01*
X9929074Y-43185262D01*
X9995178Y-43199270D01*
X10027892Y-43278623D01*
X10022304Y-43386736D01*
X9973500Y-43487024D01*
X9970110Y-43490876D01*
X9910262Y-43565296D01*
X9932785Y-43589725D01*
X10005028Y-43591234D01*
X10150117Y-43557627D01*
X10236805Y-43510546D01*
X10307850Y-43427605D01*
X10289722Y-43340250D01*
X10259461Y-43228018D01*
X10253055Y-43072890D01*
X10254549Y-43050521D01*
X10274834Y-42919178D01*
X10279364Y-42913780D01*
X9929816Y-42913780D01*
X9916461Y-43023953D01*
X9878643Y-43092800D01*
X9845344Y-43077411D01*
X9824302Y-42999333D01*
X9823254Y-42880115D01*
X9835373Y-42798125D01*
X9874030Y-42613959D01*
X9912694Y-42763979D01*
X9929816Y-42913780D01*
X10279364Y-42913780D01*
X10321821Y-42863194D01*
X10408964Y-42852084D01*
X10585249Y-42864991D01*
X10823243Y-42898894D01*
X11082654Y-42946565D01*
X11323191Y-43000777D01*
X11470287Y-43042462D01*
X11664498Y-43099234D01*
X11771499Y-43114561D01*
X11787125Y-43088079D01*
X11770063Y-43068700D01*
X11676983Y-43017635D01*
X11507529Y-42956487D01*
X11289664Y-42892890D01*
X11051354Y-42834475D01*
X10820564Y-42788875D01*
X10665686Y-42767308D01*
X10480596Y-42743736D01*
X10335250Y-42716841D01*
X10268022Y-42695458D01*
X10257108Y-42673355D01*
X10105833Y-42673355D01*
X10080093Y-42689194D01*
X10009747Y-42621217D01*
X9993250Y-42600729D01*
X9947485Y-42538050D01*
X9974888Y-42551190D01*
X10013229Y-42580750D01*
X10086517Y-42646028D01*
X10105833Y-42673355D01*
X10257108Y-42673355D01*
X10252318Y-42663657D01*
X10260622Y-42593858D01*
X10296818Y-42475498D01*
X10364790Y-42298015D01*
X10468423Y-42050846D01*
X10611601Y-41723428D01*
X10692063Y-41542396D01*
X10741163Y-41409015D01*
X10750056Y-41329032D01*
X10737446Y-41317500D01*
X10685396Y-41362114D01*
X10622838Y-41473383D01*
X10604916Y-41515938D01*
X10532956Y-41692663D01*
X10460947Y-41859022D01*
X10454527Y-41873125D01*
X10381266Y-42042401D01*
X10316271Y-42204990D01*
X10246237Y-42358359D01*
X10194544Y-42410320D01*
X10167026Y-42361540D01*
X10169490Y-42214144D01*
X10105833Y-42214144D01*
X10083335Y-42363003D01*
X10026214Y-42427689D01*
X9950029Y-42400269D01*
X9893792Y-42322216D01*
X9867445Y-42193597D01*
X9928399Y-42103324D01*
X10013229Y-42077442D01*
X10084335Y-42103881D01*
X10105826Y-42211057D01*
X10105833Y-42214144D01*
X10169490Y-42214144D01*
X10169515Y-42212685D01*
X10172066Y-42188501D01*
X10175881Y-41969575D01*
X10126166Y-41818486D01*
X10121752Y-41811549D01*
X10071225Y-41714743D01*
X10088439Y-41648437D01*
X10120819Y-41612455D01*
X10196675Y-41562991D01*
X10231826Y-41566964D01*
X10253058Y-41543213D01*
X10264128Y-41443011D01*
X10264583Y-41412309D01*
X10277843Y-41162613D01*
X10305439Y-41061037D01*
X9935958Y-41061037D01*
X9916326Y-41124414D01*
X9866788Y-41183945D01*
X9836232Y-41182107D01*
X9826473Y-41126476D01*
X9855006Y-41081915D01*
X9922650Y-41026280D01*
X9935958Y-41061037D01*
X10305439Y-41061037D01*
X10323855Y-40993255D01*
X10411971Y-40881359D01*
X10504921Y-40824394D01*
X10682052Y-40739926D01*
X10698214Y-40962567D01*
X10714724Y-41102416D01*
X10749800Y-41163504D01*
X10822757Y-41172900D01*
X10846667Y-41170624D01*
X10988433Y-41158207D01*
X11070521Y-41154028D01*
X11156754Y-41134999D01*
X11185831Y-41074396D01*
X11156139Y-40959410D01*
X11066069Y-40777234D01*
X11010814Y-40679278D01*
X10899098Y-40473115D01*
X10802604Y-40273048D01*
X10740259Y-40118639D01*
X10735823Y-40104560D01*
X10674850Y-39901052D01*
X11091488Y-39499798D01*
X11264422Y-39332842D01*
X11409774Y-39191755D01*
X11510135Y-39093483D01*
X11546325Y-39057084D01*
X11610926Y-38985721D01*
X11521609Y-38985721D01*
X11514371Y-38989167D01*
X11466080Y-38951915D01*
X11455208Y-38936250D01*
X11441724Y-38886779D01*
X11448963Y-38883334D01*
X11497253Y-38920586D01*
X11508125Y-38936250D01*
X11521609Y-38985721D01*
X11610926Y-38985721D01*
X11745931Y-38836586D01*
X11657784Y-38836586D01*
X11603474Y-38883662D01*
X11532027Y-38861757D01*
X11511831Y-38836413D01*
X11521461Y-38768245D01*
X11555445Y-38729229D01*
X11623161Y-38699047D01*
X11657049Y-38744518D01*
X11657784Y-38836586D01*
X11745931Y-38836586D01*
X11750800Y-38831208D01*
X11888716Y-38668703D01*
X11968845Y-38558603D01*
X11999924Y-38490134D01*
X11976440Y-38424161D01*
X11904207Y-38409445D01*
X11830670Y-38453118D01*
G37*
X11830670Y-38453118D02*
X11823396Y-38463608D01*
X11751111Y-38498425D01*
X11714439Y-38491727D01*
X11649510Y-38490712D01*
X11640417Y-38509172D01*
X11604809Y-38570499D01*
X11510248Y-38684954D01*
X11375125Y-38833427D01*
X11217830Y-38996807D01*
X11056756Y-39155983D01*
X10910293Y-39291846D01*
X10798289Y-39384227D01*
X10635344Y-39473779D01*
X10506729Y-39488156D01*
X10373131Y-39505453D01*
X10277295Y-39570765D01*
X10179281Y-39684889D01*
X10170274Y-39757826D01*
X10248709Y-39782917D01*
X10307083Y-39797245D01*
X10275167Y-39846417D01*
X10222147Y-39932285D01*
X10227620Y-40040955D01*
X10296587Y-40190814D01*
X10420658Y-40381216D01*
X10519413Y-40531979D01*
X10581294Y-40646039D01*
X10593605Y-40699825D01*
X10592637Y-40700540D01*
X10465307Y-40753613D01*
X10307720Y-40796062D01*
X10165569Y-40817627D01*
X10093042Y-40812714D01*
X10049543Y-40783158D01*
X10037122Y-40722341D01*
X10054982Y-40603766D01*
X10083081Y-40480546D01*
X10123360Y-40277489D01*
X10148320Y-40084552D01*
X10152549Y-39994584D01*
X10150117Y-39809375D01*
X10069444Y-39994584D01*
X10013171Y-40155017D01*
X9958015Y-40361483D01*
X9932571Y-40481686D01*
X9895563Y-40637843D01*
X9856706Y-40735919D01*
X9830200Y-40755045D01*
X9805534Y-40688148D01*
X9814792Y-40629584D01*
X9814058Y-40527813D01*
X9741997Y-40490997D01*
X9626145Y-40525590D01*
X9534281Y-40566332D01*
X9505312Y-40552275D01*
X9541198Y-40475928D01*
X9643900Y-40329800D01*
X9695181Y-40261849D01*
X9805597Y-40108660D01*
X9847263Y-40027288D01*
X9823050Y-40011635D01*
X9811071Y-40015652D01*
X9681193Y-40057048D01*
X9616653Y-40041528D01*
X9611728Y-40027300D01*
X9514564Y-40027300D01*
X9485110Y-40126462D01*
X9433780Y-40197808D01*
X9410785Y-40206250D01*
X9382528Y-40164073D01*
X9394466Y-40087188D01*
X9438269Y-39969320D01*
X9476152Y-39938586D01*
X9502123Y-39955318D01*
X9514564Y-40027300D01*
X9611728Y-40027300D01*
X9588537Y-39960312D01*
X9586496Y-39947448D01*
X9587881Y-39857110D01*
X9639764Y-39848845D01*
X9646019Y-39851123D01*
X9737680Y-39838715D01*
X9870239Y-39768576D01*
X10014184Y-39661990D01*
X10140003Y-39540240D01*
X10207993Y-39445823D01*
X10211950Y-39433171D01*
X10039739Y-39433171D01*
X10001837Y-39489189D01*
X9889673Y-39586506D01*
X9816629Y-39626732D01*
X9719162Y-39665005D01*
X9685927Y-39666488D01*
X9682500Y-39632700D01*
X9682500Y-39632661D01*
X9730547Y-39576723D01*
X9865982Y-39495561D01*
X10026458Y-39418822D01*
X10039739Y-39433171D01*
X10211950Y-39433171D01*
X10254888Y-39295884D01*
X10207216Y-39192528D01*
X10062880Y-39131452D01*
X10053725Y-39129558D01*
X9884688Y-39128198D01*
X9727181Y-39179121D01*
X9613873Y-39266481D01*
X9576667Y-39360942D01*
X9600666Y-39446163D01*
X9633363Y-39465417D01*
X9648123Y-39494843D01*
X9611630Y-39543847D01*
X9536529Y-39638100D01*
X9512020Y-39685816D01*
X9451399Y-39719320D01*
X9326489Y-39704914D01*
X9162293Y-39651501D01*
X8983811Y-39567987D01*
X8816046Y-39463273D01*
X8756891Y-39416896D01*
X8612355Y-39298996D01*
X8593794Y-39284997D01*
X8492764Y-39284997D01*
X8488448Y-39312212D01*
X8412380Y-39358061D01*
X8343383Y-39325744D01*
X8327309Y-39264360D01*
X8381222Y-39228175D01*
X8440349Y-39235148D01*
X8492764Y-39284997D01*
X8593794Y-39284997D01*
X8486243Y-39203884D01*
X8434187Y-39169262D01*
X8369166Y-39113277D01*
X8372652Y-39035272D01*
X8399174Y-38970825D01*
X8434518Y-38862607D01*
X8402379Y-38835400D01*
X8308442Y-38881117D01*
X8201687Y-38895982D01*
X8161642Y-38872766D01*
X8081738Y-38841149D01*
X8030902Y-38907173D01*
X8010493Y-39015607D01*
X8038137Y-39149117D01*
X8102609Y-39204905D01*
X8233158Y-39288394D01*
X8297443Y-39338586D01*
X8524708Y-39532763D01*
X8740803Y-39712196D01*
X8930405Y-39864676D01*
X9078189Y-39977993D01*
X9168830Y-40039935D01*
X9187573Y-40047835D01*
X9241997Y-40089474D01*
X9313448Y-40190282D01*
X9319285Y-40200370D01*
X9365875Y-40295109D01*
X9377182Y-40380619D01*
X9351755Y-40495048D01*
X9302703Y-40636598D01*
X9223838Y-40860934D01*
X9181786Y-41012032D01*
X9174829Y-41115225D01*
X9201250Y-41195848D01*
X9259142Y-41278992D01*
X9369666Y-41382277D01*
X9510041Y-41420838D01*
X9580508Y-41423334D01*
X9788333Y-41423334D01*
X9789144Y-41859896D01*
X9794992Y-42071989D01*
X9809804Y-42247824D01*
X9830711Y-42356816D01*
X9837119Y-42370960D01*
X9858934Y-42489979D01*
X9800686Y-42608218D01*
X9683512Y-42693923D01*
X9608261Y-42714819D01*
X9207434Y-42776713D01*
X8883971Y-42839129D01*
X8609551Y-42908196D01*
X8386042Y-42979379D01*
X8208594Y-43047502D01*
X8127104Y-43091539D01*
X8134112Y-43109870D01*
X8222153Y-43100874D01*
X8383765Y-43062929D01*
X8548337Y-43014632D01*
X8765827Y-42959533D01*
X9032843Y-42910224D01*
X9293176Y-42877016D01*
X9303732Y-42876074D01*
X9738081Y-42838185D01*
X9684412Y-42979346D01*
X9657239Y-43085561D01*
X9696115Y-43141095D01*
X9749226Y-43164550D01*
X9866567Y-43190268D01*
X9929074Y-43185262D01*
X9995178Y-43199270D01*
X10027892Y-43278623D01*
X10022304Y-43386736D01*
X9973500Y-43487024D01*
X9970110Y-43490876D01*
X9910262Y-43565296D01*
X9932785Y-43589725D01*
X10005028Y-43591234D01*
X10150117Y-43557627D01*
X10236805Y-43510546D01*
X10307850Y-43427605D01*
X10289722Y-43340250D01*
X10259461Y-43228018D01*
X10253055Y-43072890D01*
X10254549Y-43050521D01*
X10274834Y-42919178D01*
X10279364Y-42913780D01*
X9929816Y-42913780D01*
X9916461Y-43023953D01*
X9878643Y-43092800D01*
X9845344Y-43077411D01*
X9824302Y-42999333D01*
X9823254Y-42880115D01*
X9835373Y-42798125D01*
X9874030Y-42613959D01*
X9912694Y-42763979D01*
X9929816Y-42913780D01*
X10279364Y-42913780D01*
X10321821Y-42863194D01*
X10408964Y-42852084D01*
X10585249Y-42864991D01*
X10823243Y-42898894D01*
X11082654Y-42946565D01*
X11323191Y-43000777D01*
X11470287Y-43042462D01*
X11664498Y-43099234D01*
X11771499Y-43114561D01*
X11787125Y-43088079D01*
X11770063Y-43068700D01*
X11676983Y-43017635D01*
X11507529Y-42956487D01*
X11289664Y-42892890D01*
X11051354Y-42834475D01*
X10820564Y-42788875D01*
X10665686Y-42767308D01*
X10480596Y-42743736D01*
X10335250Y-42716841D01*
X10268022Y-42695458D01*
X10257108Y-42673355D01*
X10105833Y-42673355D01*
X10080093Y-42689194D01*
X10009747Y-42621217D01*
X9993250Y-42600729D01*
X9947485Y-42538050D01*
X9974888Y-42551190D01*
X10013229Y-42580750D01*
X10086517Y-42646028D01*
X10105833Y-42673355D01*
X10257108Y-42673355D01*
X10252318Y-42663657D01*
X10260622Y-42593858D01*
X10296818Y-42475498D01*
X10364790Y-42298015D01*
X10468423Y-42050846D01*
X10611601Y-41723428D01*
X10692063Y-41542396D01*
X10741163Y-41409015D01*
X10750056Y-41329032D01*
X10737446Y-41317500D01*
X10685396Y-41362114D01*
X10622838Y-41473383D01*
X10604916Y-41515938D01*
X10532956Y-41692663D01*
X10460947Y-41859022D01*
X10454527Y-41873125D01*
X10381266Y-42042401D01*
X10316271Y-42204990D01*
X10246237Y-42358359D01*
X10194544Y-42410320D01*
X10167026Y-42361540D01*
X10169490Y-42214144D01*
X10105833Y-42214144D01*
X10083335Y-42363003D01*
X10026214Y-42427689D01*
X9950029Y-42400269D01*
X9893792Y-42322216D01*
X9867445Y-42193597D01*
X9928399Y-42103324D01*
X10013229Y-42077442D01*
X10084335Y-42103881D01*
X10105826Y-42211057D01*
X10105833Y-42214144D01*
X10169490Y-42214144D01*
X10169515Y-42212685D01*
X10172066Y-42188501D01*
X10175881Y-41969575D01*
X10126166Y-41818486D01*
X10121752Y-41811549D01*
X10071225Y-41714743D01*
X10088439Y-41648437D01*
X10120819Y-41612455D01*
X10196675Y-41562991D01*
X10231826Y-41566964D01*
X10253058Y-41543213D01*
X10264128Y-41443011D01*
X10264583Y-41412309D01*
X10277843Y-41162613D01*
X10305439Y-41061037D01*
X9935958Y-41061037D01*
X9916326Y-41124414D01*
X9866788Y-41183945D01*
X9836232Y-41182107D01*
X9826473Y-41126476D01*
X9855006Y-41081915D01*
X9922650Y-41026280D01*
X9935958Y-41061037D01*
X10305439Y-41061037D01*
X10323855Y-40993255D01*
X10411971Y-40881359D01*
X10504921Y-40824394D01*
X10682052Y-40739926D01*
X10698214Y-40962567D01*
X10714724Y-41102416D01*
X10749800Y-41163504D01*
X10822757Y-41172900D01*
X10846667Y-41170624D01*
X10988433Y-41158207D01*
X11070521Y-41154028D01*
X11156754Y-41134999D01*
X11185831Y-41074396D01*
X11156139Y-40959410D01*
X11066069Y-40777234D01*
X11010814Y-40679278D01*
X10899098Y-40473115D01*
X10802604Y-40273048D01*
X10740259Y-40118639D01*
X10735823Y-40104560D01*
X10674850Y-39901052D01*
X11091488Y-39499798D01*
X11264422Y-39332842D01*
X11409774Y-39191755D01*
X11510135Y-39093483D01*
X11546325Y-39057084D01*
X11610926Y-38985721D01*
X11521609Y-38985721D01*
X11514371Y-38989167D01*
X11466080Y-38951915D01*
X11455208Y-38936250D01*
X11441724Y-38886779D01*
X11448963Y-38883334D01*
X11497253Y-38920586D01*
X11508125Y-38936250D01*
X11521609Y-38985721D01*
X11610926Y-38985721D01*
X11745931Y-38836586D01*
X11657784Y-38836586D01*
X11603474Y-38883662D01*
X11532027Y-38861757D01*
X11511831Y-38836413D01*
X11521461Y-38768245D01*
X11555445Y-38729229D01*
X11623161Y-38699047D01*
X11657049Y-38744518D01*
X11657784Y-38836586D01*
X11745931Y-38836586D01*
X11750800Y-38831208D01*
X11888716Y-38668703D01*
X11968845Y-38558603D01*
X11999924Y-38490134D01*
X11976440Y-38424161D01*
X11904207Y-38409445D01*
X11830670Y-38453118D01*
%TO.C,Logo105*%
G36*
X33359583Y-39280209D02*
G01*
X33386042Y-39306667D01*
X33412500Y-39280209D01*
X33386042Y-39253750D01*
X33359583Y-39280209D01*
G37*
X33359583Y-39280209D02*
X33386042Y-39306667D01*
X33412500Y-39280209D01*
X33386042Y-39253750D01*
X33359583Y-39280209D01*
G36*
X34641772Y-43220801D02*
G01*
X34597634Y-43265417D01*
X34555597Y-43354216D01*
X34558024Y-43393896D01*
X34539157Y-43428988D01*
X34503538Y-43434167D01*
X34412111Y-43465216D01*
X34391458Y-43487084D01*
X34413471Y-43523390D01*
X34520306Y-43539716D01*
X34541349Y-43540000D01*
X34671604Y-43526102D01*
X34735890Y-43468059D01*
X34759207Y-43399499D01*
X34763023Y-43276010D01*
X34716308Y-43210161D01*
X34641772Y-43220801D01*
G37*
X34641772Y-43220801D02*
X34597634Y-43265417D01*
X34555597Y-43354216D01*
X34558024Y-43393896D01*
X34539157Y-43428988D01*
X34503538Y-43434167D01*
X34412111Y-43465216D01*
X34391458Y-43487084D01*
X34413471Y-43523390D01*
X34520306Y-43539716D01*
X34541349Y-43540000D01*
X34671604Y-43526102D01*
X34735890Y-43468059D01*
X34759207Y-43399499D01*
X34763023Y-43276010D01*
X34716308Y-43210161D01*
X34641772Y-43220801D01*
G36*
X36830670Y-38453118D02*
G01*
X36823396Y-38463608D01*
X36751111Y-38498425D01*
X36714439Y-38491727D01*
X36649510Y-38490712D01*
X36640417Y-38509172D01*
X36604809Y-38570499D01*
X36510248Y-38684954D01*
X36375125Y-38833427D01*
X36217830Y-38996807D01*
X36056756Y-39155983D01*
X35910293Y-39291846D01*
X35798289Y-39384227D01*
X35635344Y-39473779D01*
X35506729Y-39488156D01*
X35373131Y-39505453D01*
X35277295Y-39570765D01*
X35179281Y-39684889D01*
X35170274Y-39757826D01*
X35248709Y-39782917D01*
X35307083Y-39797245D01*
X35275167Y-39846417D01*
X35222147Y-39932285D01*
X35227620Y-40040955D01*
X35296587Y-40190814D01*
X35420658Y-40381216D01*
X35519413Y-40531979D01*
X35581294Y-40646039D01*
X35593605Y-40699825D01*
X35592637Y-40700540D01*
X35465307Y-40753613D01*
X35307720Y-40796062D01*
X35165569Y-40817627D01*
X35093042Y-40812714D01*
X35049543Y-40783158D01*
X35037122Y-40722341D01*
X35054982Y-40603766D01*
X35083081Y-40480546D01*
X35123360Y-40277489D01*
X35148320Y-40084552D01*
X35152549Y-39994584D01*
X35150117Y-39809375D01*
X35069444Y-39994584D01*
X35013171Y-40155017D01*
X34958015Y-40361483D01*
X34932571Y-40481686D01*
X34895563Y-40637843D01*
X34856706Y-40735919D01*
X34830200Y-40755045D01*
X34805534Y-40688148D01*
X34814792Y-40629584D01*
X34814058Y-40527813D01*
X34741997Y-40490997D01*
X34626145Y-40525590D01*
X34534281Y-40566332D01*
X34505312Y-40552275D01*
X34541198Y-40475928D01*
X34643900Y-40329800D01*
X34695181Y-40261849D01*
X34805597Y-40108660D01*
X34847263Y-40027288D01*
X34823050Y-40011635D01*
X34811071Y-40015652D01*
X34681193Y-40057048D01*
X34616653Y-40041528D01*
X34611728Y-40027300D01*
X34514564Y-40027300D01*
X34485110Y-40126462D01*
X34433780Y-40197808D01*
X34410785Y-40206250D01*
X34382528Y-40164073D01*
X34394466Y-40087188D01*
X34438269Y-39969320D01*
X34476152Y-39938586D01*
X34502123Y-39955318D01*
X34514564Y-40027300D01*
X34611728Y-40027300D01*
X34588537Y-39960312D01*
X34586496Y-39947448D01*
X34587881Y-39857110D01*
X34639764Y-39848845D01*
X34646019Y-39851123D01*
X34737680Y-39838715D01*
X34870239Y-39768576D01*
X35014184Y-39661990D01*
X35140003Y-39540240D01*
X35207993Y-39445823D01*
X35211950Y-39433171D01*
X35039739Y-39433171D01*
X35001837Y-39489189D01*
X34889673Y-39586506D01*
X34816629Y-39626732D01*
X34719162Y-39665005D01*
X34685927Y-39666488D01*
X34682500Y-39632700D01*
X34682500Y-39632661D01*
X34730547Y-39576723D01*
X34865982Y-39495561D01*
X35026458Y-39418822D01*
X35039739Y-39433171D01*
X35211950Y-39433171D01*
X35254888Y-39295884D01*
X35207216Y-39192528D01*
X35062880Y-39131452D01*
X35053725Y-39129558D01*
X34884688Y-39128198D01*
X34727181Y-39179121D01*
X34613873Y-39266481D01*
X34576667Y-39360942D01*
X34600666Y-39446163D01*
X34633363Y-39465417D01*
X34648123Y-39494843D01*
X34611630Y-39543847D01*
X34536529Y-39638100D01*
X34512020Y-39685816D01*
X34451399Y-39719320D01*
X34326489Y-39704914D01*
X34162293Y-39651501D01*
X33983811Y-39567987D01*
X33816046Y-39463273D01*
X33756891Y-39416896D01*
X33612355Y-39298996D01*
X33593794Y-39284997D01*
X33492764Y-39284997D01*
X33488448Y-39312212D01*
X33412380Y-39358061D01*
X33343383Y-39325744D01*
X33327309Y-39264360D01*
X33381222Y-39228175D01*
X33440349Y-39235148D01*
X33492764Y-39284997D01*
X33593794Y-39284997D01*
X33486243Y-39203884D01*
X33434187Y-39169262D01*
X33369166Y-39113277D01*
X33372652Y-39035272D01*
X33399174Y-38970825D01*
X33434518Y-38862607D01*
X33402379Y-38835400D01*
X33308442Y-38881117D01*
X33201687Y-38895982D01*
X33161642Y-38872766D01*
X33081738Y-38841149D01*
X33030902Y-38907173D01*
X33010493Y-39015607D01*
X33038137Y-39149117D01*
X33102609Y-39204905D01*
X33233158Y-39288394D01*
X33297443Y-39338586D01*
X33524708Y-39532763D01*
X33740803Y-39712196D01*
X33930405Y-39864676D01*
X34078189Y-39977993D01*
X34168830Y-40039935D01*
X34187573Y-40047835D01*
X34241997Y-40089474D01*
X34313448Y-40190282D01*
X34319285Y-40200370D01*
X34365875Y-40295109D01*
X34377182Y-40380619D01*
X34351755Y-40495048D01*
X34302703Y-40636598D01*
X34223838Y-40860934D01*
X34181786Y-41012032D01*
X34174829Y-41115225D01*
X34201250Y-41195848D01*
X34259142Y-41278992D01*
X34369666Y-41382277D01*
X34510041Y-41420838D01*
X34580508Y-41423334D01*
X34788333Y-41423334D01*
X34789144Y-41859896D01*
X34794992Y-42071989D01*
X34809804Y-42247824D01*
X34830711Y-42356816D01*
X34837119Y-42370960D01*
X34858934Y-42489979D01*
X34800686Y-42608218D01*
X34683512Y-42693923D01*
X34608261Y-42714819D01*
X34207434Y-42776713D01*
X33883971Y-42839129D01*
X33609551Y-42908196D01*
X33386042Y-42979379D01*
X33208594Y-43047502D01*
X33127104Y-43091539D01*
X33134112Y-43109870D01*
X33222153Y-43100874D01*
X33383765Y-43062929D01*
X33548337Y-43014632D01*
X33765827Y-42959533D01*
X34032843Y-42910224D01*
X34293176Y-42877016D01*
X34303732Y-42876074D01*
X34738081Y-42838185D01*
X34684412Y-42979346D01*
X34657239Y-43085561D01*
X34696115Y-43141095D01*
X34749226Y-43164550D01*
X34866567Y-43190268D01*
X34929074Y-43185262D01*
X34995178Y-43199270D01*
X35027892Y-43278623D01*
X35022304Y-43386736D01*
X34973500Y-43487024D01*
X34970110Y-43490876D01*
X34910262Y-43565296D01*
X34932785Y-43589725D01*
X35005028Y-43591234D01*
X35150117Y-43557627D01*
X35236805Y-43510546D01*
X35307850Y-43427605D01*
X35289722Y-43340250D01*
X35259461Y-43228018D01*
X35253055Y-43072890D01*
X35254549Y-43050521D01*
X35274834Y-42919178D01*
X35279364Y-42913780D01*
X34929816Y-42913780D01*
X34916461Y-43023953D01*
X34878643Y-43092800D01*
X34845344Y-43077411D01*
X34824302Y-42999333D01*
X34823254Y-42880115D01*
X34835373Y-42798125D01*
X34874030Y-42613959D01*
X34912694Y-42763979D01*
X34929816Y-42913780D01*
X35279364Y-42913780D01*
X35321821Y-42863194D01*
X35408964Y-42852084D01*
X35585249Y-42864991D01*
X35823243Y-42898894D01*
X36082654Y-42946565D01*
X36323191Y-43000777D01*
X36470287Y-43042462D01*
X36664498Y-43099234D01*
X36771499Y-43114561D01*
X36787125Y-43088079D01*
X36770063Y-43068700D01*
X36676983Y-43017635D01*
X36507529Y-42956487D01*
X36289664Y-42892890D01*
X36051354Y-42834475D01*
X35820564Y-42788875D01*
X35665686Y-42767308D01*
X35480596Y-42743736D01*
X35335250Y-42716841D01*
X35268022Y-42695458D01*
X35257108Y-42673355D01*
X35105833Y-42673355D01*
X35080093Y-42689194D01*
X35009747Y-42621217D01*
X34993250Y-42600729D01*
X34947485Y-42538050D01*
X34974888Y-42551190D01*
X35013229Y-42580750D01*
X35086517Y-42646028D01*
X35105833Y-42673355D01*
X35257108Y-42673355D01*
X35252318Y-42663657D01*
X35260622Y-42593858D01*
X35296818Y-42475498D01*
X35364790Y-42298015D01*
X35468423Y-42050846D01*
X35611601Y-41723428D01*
X35692063Y-41542396D01*
X35741163Y-41409015D01*
X35750056Y-41329032D01*
X35737446Y-41317500D01*
X35685396Y-41362114D01*
X35622838Y-41473383D01*
X35604916Y-41515938D01*
X35532956Y-41692663D01*
X35460947Y-41859022D01*
X35454527Y-41873125D01*
X35381266Y-42042401D01*
X35316271Y-42204990D01*
X35246237Y-42358359D01*
X35194544Y-42410320D01*
X35167026Y-42361540D01*
X35169490Y-42214144D01*
X35105833Y-42214144D01*
X35083335Y-42363003D01*
X35026214Y-42427689D01*
X34950029Y-42400269D01*
X34893792Y-42322216D01*
X34867445Y-42193597D01*
X34928399Y-42103324D01*
X35013229Y-42077442D01*
X35084335Y-42103881D01*
X35105826Y-42211057D01*
X35105833Y-42214144D01*
X35169490Y-42214144D01*
X35169515Y-42212685D01*
X35172066Y-42188501D01*
X35175881Y-41969575D01*
X35126166Y-41818486D01*
X35121752Y-41811549D01*
X35071225Y-41714743D01*
X35088439Y-41648437D01*
X35120819Y-41612455D01*
X35196675Y-41562991D01*
X35231826Y-41566964D01*
X35253058Y-41543213D01*
X35264128Y-41443011D01*
X35264583Y-41412309D01*
X35277843Y-41162613D01*
X35305439Y-41061037D01*
X34935958Y-41061037D01*
X34916326Y-41124414D01*
X34866788Y-41183945D01*
X34836232Y-41182107D01*
X34826473Y-41126476D01*
X34855006Y-41081915D01*
X34922650Y-41026280D01*
X34935958Y-41061037D01*
X35305439Y-41061037D01*
X35323855Y-40993255D01*
X35411971Y-40881359D01*
X35504921Y-40824394D01*
X35682052Y-40739926D01*
X35698214Y-40962567D01*
X35714724Y-41102416D01*
X35749800Y-41163504D01*
X35822757Y-41172900D01*
X35846667Y-41170624D01*
X35988433Y-41158207D01*
X36070521Y-41154028D01*
X36156754Y-41134999D01*
X36185831Y-41074396D01*
X36156139Y-40959410D01*
X36066069Y-40777234D01*
X36010814Y-40679278D01*
X35899098Y-40473115D01*
X35802604Y-40273048D01*
X35740259Y-40118639D01*
X35735823Y-40104560D01*
X35674850Y-39901052D01*
X36091488Y-39499798D01*
X36264422Y-39332842D01*
X36409774Y-39191755D01*
X36510135Y-39093483D01*
X36546325Y-39057084D01*
X36610926Y-38985721D01*
X36521609Y-38985721D01*
X36514371Y-38989167D01*
X36466080Y-38951915D01*
X36455208Y-38936250D01*
X36441724Y-38886779D01*
X36448963Y-38883334D01*
X36497253Y-38920586D01*
X36508125Y-38936250D01*
X36521609Y-38985721D01*
X36610926Y-38985721D01*
X36745931Y-38836586D01*
X36657784Y-38836586D01*
X36603474Y-38883662D01*
X36532027Y-38861757D01*
X36511831Y-38836413D01*
X36521461Y-38768245D01*
X36555445Y-38729229D01*
X36623161Y-38699047D01*
X36657049Y-38744518D01*
X36657784Y-38836586D01*
X36745931Y-38836586D01*
X36750800Y-38831208D01*
X36888716Y-38668703D01*
X36968845Y-38558603D01*
X36999924Y-38490134D01*
X36976440Y-38424161D01*
X36904207Y-38409445D01*
X36830670Y-38453118D01*
G37*
X36830670Y-38453118D02*
X36823396Y-38463608D01*
X36751111Y-38498425D01*
X36714439Y-38491727D01*
X36649510Y-38490712D01*
X36640417Y-38509172D01*
X36604809Y-38570499D01*
X36510248Y-38684954D01*
X36375125Y-38833427D01*
X36217830Y-38996807D01*
X36056756Y-39155983D01*
X35910293Y-39291846D01*
X35798289Y-39384227D01*
X35635344Y-39473779D01*
X35506729Y-39488156D01*
X35373131Y-39505453D01*
X35277295Y-39570765D01*
X35179281Y-39684889D01*
X35170274Y-39757826D01*
X35248709Y-39782917D01*
X35307083Y-39797245D01*
X35275167Y-39846417D01*
X35222147Y-39932285D01*
X35227620Y-40040955D01*
X35296587Y-40190814D01*
X35420658Y-40381216D01*
X35519413Y-40531979D01*
X35581294Y-40646039D01*
X35593605Y-40699825D01*
X35592637Y-40700540D01*
X35465307Y-40753613D01*
X35307720Y-40796062D01*
X35165569Y-40817627D01*
X35093042Y-40812714D01*
X35049543Y-40783158D01*
X35037122Y-40722341D01*
X35054982Y-40603766D01*
X35083081Y-40480546D01*
X35123360Y-40277489D01*
X35148320Y-40084552D01*
X35152549Y-39994584D01*
X35150117Y-39809375D01*
X35069444Y-39994584D01*
X35013171Y-40155017D01*
X34958015Y-40361483D01*
X34932571Y-40481686D01*
X34895563Y-40637843D01*
X34856706Y-40735919D01*
X34830200Y-40755045D01*
X34805534Y-40688148D01*
X34814792Y-40629584D01*
X34814058Y-40527813D01*
X34741997Y-40490997D01*
X34626145Y-40525590D01*
X34534281Y-40566332D01*
X34505312Y-40552275D01*
X34541198Y-40475928D01*
X34643900Y-40329800D01*
X34695181Y-40261849D01*
X34805597Y-40108660D01*
X34847263Y-40027288D01*
X34823050Y-40011635D01*
X34811071Y-40015652D01*
X34681193Y-40057048D01*
X34616653Y-40041528D01*
X34611728Y-40027300D01*
X34514564Y-40027300D01*
X34485110Y-40126462D01*
X34433780Y-40197808D01*
X34410785Y-40206250D01*
X34382528Y-40164073D01*
X34394466Y-40087188D01*
X34438269Y-39969320D01*
X34476152Y-39938586D01*
X34502123Y-39955318D01*
X34514564Y-40027300D01*
X34611728Y-40027300D01*
X34588537Y-39960312D01*
X34586496Y-39947448D01*
X34587881Y-39857110D01*
X34639764Y-39848845D01*
X34646019Y-39851123D01*
X34737680Y-39838715D01*
X34870239Y-39768576D01*
X35014184Y-39661990D01*
X35140003Y-39540240D01*
X35207993Y-39445823D01*
X35211950Y-39433171D01*
X35039739Y-39433171D01*
X35001837Y-39489189D01*
X34889673Y-39586506D01*
X34816629Y-39626732D01*
X34719162Y-39665005D01*
X34685927Y-39666488D01*
X34682500Y-39632700D01*
X34682500Y-39632661D01*
X34730547Y-39576723D01*
X34865982Y-39495561D01*
X35026458Y-39418822D01*
X35039739Y-39433171D01*
X35211950Y-39433171D01*
X35254888Y-39295884D01*
X35207216Y-39192528D01*
X35062880Y-39131452D01*
X35053725Y-39129558D01*
X34884688Y-39128198D01*
X34727181Y-39179121D01*
X34613873Y-39266481D01*
X34576667Y-39360942D01*
X34600666Y-39446163D01*
X34633363Y-39465417D01*
X34648123Y-39494843D01*
X34611630Y-39543847D01*
X34536529Y-39638100D01*
X34512020Y-39685816D01*
X34451399Y-39719320D01*
X34326489Y-39704914D01*
X34162293Y-39651501D01*
X33983811Y-39567987D01*
X33816046Y-39463273D01*
X33756891Y-39416896D01*
X33612355Y-39298996D01*
X33593794Y-39284997D01*
X33492764Y-39284997D01*
X33488448Y-39312212D01*
X33412380Y-39358061D01*
X33343383Y-39325744D01*
X33327309Y-39264360D01*
X33381222Y-39228175D01*
X33440349Y-39235148D01*
X33492764Y-39284997D01*
X33593794Y-39284997D01*
X33486243Y-39203884D01*
X33434187Y-39169262D01*
X33369166Y-39113277D01*
X33372652Y-39035272D01*
X33399174Y-38970825D01*
X33434518Y-38862607D01*
X33402379Y-38835400D01*
X33308442Y-38881117D01*
X33201687Y-38895982D01*
X33161642Y-38872766D01*
X33081738Y-38841149D01*
X33030902Y-38907173D01*
X33010493Y-39015607D01*
X33038137Y-39149117D01*
X33102609Y-39204905D01*
X33233158Y-39288394D01*
X33297443Y-39338586D01*
X33524708Y-39532763D01*
X33740803Y-39712196D01*
X33930405Y-39864676D01*
X34078189Y-39977993D01*
X34168830Y-40039935D01*
X34187573Y-40047835D01*
X34241997Y-40089474D01*
X34313448Y-40190282D01*
X34319285Y-40200370D01*
X34365875Y-40295109D01*
X34377182Y-40380619D01*
X34351755Y-40495048D01*
X34302703Y-40636598D01*
X34223838Y-40860934D01*
X34181786Y-41012032D01*
X34174829Y-41115225D01*
X34201250Y-41195848D01*
X34259142Y-41278992D01*
X34369666Y-41382277D01*
X34510041Y-41420838D01*
X34580508Y-41423334D01*
X34788333Y-41423334D01*
X34789144Y-41859896D01*
X34794992Y-42071989D01*
X34809804Y-42247824D01*
X34830711Y-42356816D01*
X34837119Y-42370960D01*
X34858934Y-42489979D01*
X34800686Y-42608218D01*
X34683512Y-42693923D01*
X34608261Y-42714819D01*
X34207434Y-42776713D01*
X33883971Y-42839129D01*
X33609551Y-42908196D01*
X33386042Y-42979379D01*
X33208594Y-43047502D01*
X33127104Y-43091539D01*
X33134112Y-43109870D01*
X33222153Y-43100874D01*
X33383765Y-43062929D01*
X33548337Y-43014632D01*
X33765827Y-42959533D01*
X34032843Y-42910224D01*
X34293176Y-42877016D01*
X34303732Y-42876074D01*
X34738081Y-42838185D01*
X34684412Y-42979346D01*
X34657239Y-43085561D01*
X34696115Y-43141095D01*
X34749226Y-43164550D01*
X34866567Y-43190268D01*
X34929074Y-43185262D01*
X34995178Y-43199270D01*
X35027892Y-43278623D01*
X35022304Y-43386736D01*
X34973500Y-43487024D01*
X34970110Y-43490876D01*
X34910262Y-43565296D01*
X34932785Y-43589725D01*
X35005028Y-43591234D01*
X35150117Y-43557627D01*
X35236805Y-43510546D01*
X35307850Y-43427605D01*
X35289722Y-43340250D01*
X35259461Y-43228018D01*
X35253055Y-43072890D01*
X35254549Y-43050521D01*
X35274834Y-42919178D01*
X35279364Y-42913780D01*
X34929816Y-42913780D01*
X34916461Y-43023953D01*
X34878643Y-43092800D01*
X34845344Y-43077411D01*
X34824302Y-42999333D01*
X34823254Y-42880115D01*
X34835373Y-42798125D01*
X34874030Y-42613959D01*
X34912694Y-42763979D01*
X34929816Y-42913780D01*
X35279364Y-42913780D01*
X35321821Y-42863194D01*
X35408964Y-42852084D01*
X35585249Y-42864991D01*
X35823243Y-42898894D01*
X36082654Y-42946565D01*
X36323191Y-43000777D01*
X36470287Y-43042462D01*
X36664498Y-43099234D01*
X36771499Y-43114561D01*
X36787125Y-43088079D01*
X36770063Y-43068700D01*
X36676983Y-43017635D01*
X36507529Y-42956487D01*
X36289664Y-42892890D01*
X36051354Y-42834475D01*
X35820564Y-42788875D01*
X35665686Y-42767308D01*
X35480596Y-42743736D01*
X35335250Y-42716841D01*
X35268022Y-42695458D01*
X35257108Y-42673355D01*
X35105833Y-42673355D01*
X35080093Y-42689194D01*
X35009747Y-42621217D01*
X34993250Y-42600729D01*
X34947485Y-42538050D01*
X34974888Y-42551190D01*
X35013229Y-42580750D01*
X35086517Y-42646028D01*
X35105833Y-42673355D01*
X35257108Y-42673355D01*
X35252318Y-42663657D01*
X35260622Y-42593858D01*
X35296818Y-42475498D01*
X35364790Y-42298015D01*
X35468423Y-42050846D01*
X35611601Y-41723428D01*
X35692063Y-41542396D01*
X35741163Y-41409015D01*
X35750056Y-41329032D01*
X35737446Y-41317500D01*
X35685396Y-41362114D01*
X35622838Y-41473383D01*
X35604916Y-41515938D01*
X35532956Y-41692663D01*
X35460947Y-41859022D01*
X35454527Y-41873125D01*
X35381266Y-42042401D01*
X35316271Y-42204990D01*
X35246237Y-42358359D01*
X35194544Y-42410320D01*
X35167026Y-42361540D01*
X35169490Y-42214144D01*
X35105833Y-42214144D01*
X35083335Y-42363003D01*
X35026214Y-42427689D01*
X34950029Y-42400269D01*
X34893792Y-42322216D01*
X34867445Y-42193597D01*
X34928399Y-42103324D01*
X35013229Y-42077442D01*
X35084335Y-42103881D01*
X35105826Y-42211057D01*
X35105833Y-42214144D01*
X35169490Y-42214144D01*
X35169515Y-42212685D01*
X35172066Y-42188501D01*
X35175881Y-41969575D01*
X35126166Y-41818486D01*
X35121752Y-41811549D01*
X35071225Y-41714743D01*
X35088439Y-41648437D01*
X35120819Y-41612455D01*
X35196675Y-41562991D01*
X35231826Y-41566964D01*
X35253058Y-41543213D01*
X35264128Y-41443011D01*
X35264583Y-41412309D01*
X35277843Y-41162613D01*
X35305439Y-41061037D01*
X34935958Y-41061037D01*
X34916326Y-41124414D01*
X34866788Y-41183945D01*
X34836232Y-41182107D01*
X34826473Y-41126476D01*
X34855006Y-41081915D01*
X34922650Y-41026280D01*
X34935958Y-41061037D01*
X35305439Y-41061037D01*
X35323855Y-40993255D01*
X35411971Y-40881359D01*
X35504921Y-40824394D01*
X35682052Y-40739926D01*
X35698214Y-40962567D01*
X35714724Y-41102416D01*
X35749800Y-41163504D01*
X35822757Y-41172900D01*
X35846667Y-41170624D01*
X35988433Y-41158207D01*
X36070521Y-41154028D01*
X36156754Y-41134999D01*
X36185831Y-41074396D01*
X36156139Y-40959410D01*
X36066069Y-40777234D01*
X36010814Y-40679278D01*
X35899098Y-40473115D01*
X35802604Y-40273048D01*
X35740259Y-40118639D01*
X35735823Y-40104560D01*
X35674850Y-39901052D01*
X36091488Y-39499798D01*
X36264422Y-39332842D01*
X36409774Y-39191755D01*
X36510135Y-39093483D01*
X36546325Y-39057084D01*
X36610926Y-38985721D01*
X36521609Y-38985721D01*
X36514371Y-38989167D01*
X36466080Y-38951915D01*
X36455208Y-38936250D01*
X36441724Y-38886779D01*
X36448963Y-38883334D01*
X36497253Y-38920586D01*
X36508125Y-38936250D01*
X36521609Y-38985721D01*
X36610926Y-38985721D01*
X36745931Y-38836586D01*
X36657784Y-38836586D01*
X36603474Y-38883662D01*
X36532027Y-38861757D01*
X36511831Y-38836413D01*
X36521461Y-38768245D01*
X36555445Y-38729229D01*
X36623161Y-38699047D01*
X36657049Y-38744518D01*
X36657784Y-38836586D01*
X36745931Y-38836586D01*
X36750800Y-38831208D01*
X36888716Y-38668703D01*
X36968845Y-38558603D01*
X36999924Y-38490134D01*
X36976440Y-38424161D01*
X36904207Y-38409445D01*
X36830670Y-38453118D01*
%TO.C,Logo104*%
G36*
X11830670Y-21453118D02*
G01*
X11823396Y-21463608D01*
X11751111Y-21498425D01*
X11714439Y-21491727D01*
X11649510Y-21490712D01*
X11640417Y-21509172D01*
X11604809Y-21570499D01*
X11510248Y-21684954D01*
X11375125Y-21833427D01*
X11217830Y-21996807D01*
X11056756Y-22155983D01*
X10910293Y-22291846D01*
X10798289Y-22384227D01*
X10635344Y-22473779D01*
X10506729Y-22488156D01*
X10373131Y-22505453D01*
X10277295Y-22570765D01*
X10179281Y-22684889D01*
X10170274Y-22757826D01*
X10248709Y-22782917D01*
X10307083Y-22797245D01*
X10275167Y-22846417D01*
X10222147Y-22932285D01*
X10227620Y-23040955D01*
X10296587Y-23190814D01*
X10420658Y-23381216D01*
X10519413Y-23531979D01*
X10581294Y-23646039D01*
X10593605Y-23699825D01*
X10592637Y-23700540D01*
X10465307Y-23753613D01*
X10307720Y-23796062D01*
X10165569Y-23817627D01*
X10093042Y-23812714D01*
X10049543Y-23783158D01*
X10037122Y-23722341D01*
X10054982Y-23603766D01*
X10083081Y-23480546D01*
X10123360Y-23277489D01*
X10148320Y-23084552D01*
X10152549Y-22994584D01*
X10150117Y-22809375D01*
X10069444Y-22994584D01*
X10013171Y-23155017D01*
X9958015Y-23361483D01*
X9932571Y-23481686D01*
X9895563Y-23637843D01*
X9856706Y-23735919D01*
X9830200Y-23755045D01*
X9805534Y-23688148D01*
X9814792Y-23629584D01*
X9814058Y-23527813D01*
X9741997Y-23490997D01*
X9626145Y-23525590D01*
X9534281Y-23566332D01*
X9505312Y-23552275D01*
X9541198Y-23475928D01*
X9643900Y-23329800D01*
X9695181Y-23261849D01*
X9805597Y-23108660D01*
X9847263Y-23027288D01*
X9823050Y-23011635D01*
X9811071Y-23015652D01*
X9681193Y-23057048D01*
X9616653Y-23041528D01*
X9611728Y-23027300D01*
X9514564Y-23027300D01*
X9485110Y-23126462D01*
X9433780Y-23197808D01*
X9410785Y-23206250D01*
X9382528Y-23164073D01*
X9394466Y-23087188D01*
X9438269Y-22969320D01*
X9476152Y-22938586D01*
X9502123Y-22955318D01*
X9514564Y-23027300D01*
X9611728Y-23027300D01*
X9588537Y-22960312D01*
X9586496Y-22947448D01*
X9587881Y-22857110D01*
X9639764Y-22848845D01*
X9646019Y-22851123D01*
X9737680Y-22838715D01*
X9870239Y-22768576D01*
X10014184Y-22661990D01*
X10140003Y-22540240D01*
X10207993Y-22445823D01*
X10211950Y-22433171D01*
X10039739Y-22433171D01*
X10001837Y-22489189D01*
X9889673Y-22586506D01*
X9816629Y-22626732D01*
X9719162Y-22665005D01*
X9685927Y-22666488D01*
X9682500Y-22632700D01*
X9682500Y-22632661D01*
X9730547Y-22576723D01*
X9865982Y-22495561D01*
X10026458Y-22418822D01*
X10039739Y-22433171D01*
X10211950Y-22433171D01*
X10254888Y-22295884D01*
X10207216Y-22192528D01*
X10062880Y-22131452D01*
X10053725Y-22129558D01*
X9884688Y-22128198D01*
X9727181Y-22179121D01*
X9613873Y-22266481D01*
X9576667Y-22360942D01*
X9600666Y-22446163D01*
X9633363Y-22465417D01*
X9648123Y-22494843D01*
X9611630Y-22543847D01*
X9536529Y-22638100D01*
X9512020Y-22685816D01*
X9451399Y-22719320D01*
X9326489Y-22704914D01*
X9162293Y-22651501D01*
X8983811Y-22567987D01*
X8816046Y-22463273D01*
X8756891Y-22416896D01*
X8612355Y-22298996D01*
X8593794Y-22284997D01*
X8492764Y-22284997D01*
X8488448Y-22312212D01*
X8412380Y-22358061D01*
X8343383Y-22325744D01*
X8327309Y-22264360D01*
X8381222Y-22228175D01*
X8440349Y-22235148D01*
X8492764Y-22284997D01*
X8593794Y-22284997D01*
X8486243Y-22203884D01*
X8434187Y-22169262D01*
X8369166Y-22113277D01*
X8372652Y-22035272D01*
X8399174Y-21970825D01*
X8434518Y-21862607D01*
X8402379Y-21835400D01*
X8308442Y-21881117D01*
X8201687Y-21895982D01*
X8161642Y-21872766D01*
X8081738Y-21841149D01*
X8030902Y-21907173D01*
X8010493Y-22015607D01*
X8038137Y-22149117D01*
X8102609Y-22204905D01*
X8233158Y-22288394D01*
X8297443Y-22338586D01*
X8524708Y-22532763D01*
X8740803Y-22712196D01*
X8930405Y-22864676D01*
X9078189Y-22977993D01*
X9168830Y-23039935D01*
X9187573Y-23047835D01*
X9241997Y-23089474D01*
X9313448Y-23190282D01*
X9319285Y-23200370D01*
X9365875Y-23295109D01*
X9377182Y-23380619D01*
X9351755Y-23495048D01*
X9302703Y-23636598D01*
X9223838Y-23860934D01*
X9181786Y-24012032D01*
X9174829Y-24115225D01*
X9201250Y-24195848D01*
X9259142Y-24278992D01*
X9369666Y-24382277D01*
X9510041Y-24420838D01*
X9580508Y-24423334D01*
X9788333Y-24423334D01*
X9789144Y-24859896D01*
X9794992Y-25071989D01*
X9809804Y-25247824D01*
X9830711Y-25356816D01*
X9837119Y-25370960D01*
X9858934Y-25489979D01*
X9800686Y-25608218D01*
X9683512Y-25693923D01*
X9608261Y-25714819D01*
X9207434Y-25776713D01*
X8883971Y-25839129D01*
X8609551Y-25908196D01*
X8386042Y-25979379D01*
X8208594Y-26047502D01*
X8127104Y-26091539D01*
X8134112Y-26109870D01*
X8222153Y-26100874D01*
X8383765Y-26062929D01*
X8548337Y-26014632D01*
X8765827Y-25959533D01*
X9032843Y-25910224D01*
X9293176Y-25877016D01*
X9303732Y-25876074D01*
X9738081Y-25838185D01*
X9684412Y-25979346D01*
X9657239Y-26085561D01*
X9696115Y-26141095D01*
X9749226Y-26164550D01*
X9866567Y-26190268D01*
X9929074Y-26185262D01*
X9995178Y-26199270D01*
X10027892Y-26278623D01*
X10022304Y-26386736D01*
X9973500Y-26487024D01*
X9970110Y-26490876D01*
X9910262Y-26565296D01*
X9932785Y-26589725D01*
X10005028Y-26591234D01*
X10150117Y-26557627D01*
X10236805Y-26510546D01*
X10307850Y-26427605D01*
X10289722Y-26340250D01*
X10259461Y-26228018D01*
X10253055Y-26072890D01*
X10254549Y-26050521D01*
X10274834Y-25919178D01*
X10279364Y-25913780D01*
X9929816Y-25913780D01*
X9916461Y-26023953D01*
X9878643Y-26092800D01*
X9845344Y-26077411D01*
X9824302Y-25999333D01*
X9823254Y-25880115D01*
X9835373Y-25798125D01*
X9874030Y-25613959D01*
X9912694Y-25763979D01*
X9929816Y-25913780D01*
X10279364Y-25913780D01*
X10321821Y-25863194D01*
X10408964Y-25852084D01*
X10585249Y-25864991D01*
X10823243Y-25898894D01*
X11082654Y-25946565D01*
X11323191Y-26000777D01*
X11470287Y-26042462D01*
X11664498Y-26099234D01*
X11771499Y-26114561D01*
X11787125Y-26088079D01*
X11770063Y-26068700D01*
X11676983Y-26017635D01*
X11507529Y-25956487D01*
X11289664Y-25892890D01*
X11051354Y-25834475D01*
X10820564Y-25788875D01*
X10665686Y-25767308D01*
X10480596Y-25743736D01*
X10335250Y-25716841D01*
X10268022Y-25695458D01*
X10257108Y-25673355D01*
X10105833Y-25673355D01*
X10080093Y-25689194D01*
X10009747Y-25621217D01*
X9993250Y-25600729D01*
X9947485Y-25538050D01*
X9974888Y-25551190D01*
X10013229Y-25580750D01*
X10086517Y-25646028D01*
X10105833Y-25673355D01*
X10257108Y-25673355D01*
X10252318Y-25663657D01*
X10260622Y-25593858D01*
X10296818Y-25475498D01*
X10364790Y-25298015D01*
X10468423Y-25050846D01*
X10611601Y-24723428D01*
X10692063Y-24542396D01*
X10741163Y-24409015D01*
X10750056Y-24329032D01*
X10737446Y-24317500D01*
X10685396Y-24362114D01*
X10622838Y-24473383D01*
X10604916Y-24515938D01*
X10532956Y-24692663D01*
X10460947Y-24859022D01*
X10454527Y-24873125D01*
X10381266Y-25042401D01*
X10316271Y-25204990D01*
X10246237Y-25358359D01*
X10194544Y-25410320D01*
X10167026Y-25361540D01*
X10169490Y-25214144D01*
X10105833Y-25214144D01*
X10083335Y-25363003D01*
X10026214Y-25427689D01*
X9950029Y-25400269D01*
X9893792Y-25322216D01*
X9867445Y-25193597D01*
X9928399Y-25103324D01*
X10013229Y-25077442D01*
X10084335Y-25103881D01*
X10105826Y-25211057D01*
X10105833Y-25214144D01*
X10169490Y-25214144D01*
X10169515Y-25212685D01*
X10172066Y-25188501D01*
X10175881Y-24969575D01*
X10126166Y-24818486D01*
X10121752Y-24811549D01*
X10071225Y-24714743D01*
X10088439Y-24648437D01*
X10120819Y-24612455D01*
X10196675Y-24562991D01*
X10231826Y-24566964D01*
X10253058Y-24543213D01*
X10264128Y-24443011D01*
X10264583Y-24412309D01*
X10277843Y-24162613D01*
X10305439Y-24061037D01*
X9935958Y-24061037D01*
X9916326Y-24124414D01*
X9866788Y-24183945D01*
X9836232Y-24182107D01*
X9826473Y-24126476D01*
X9855006Y-24081915D01*
X9922650Y-24026280D01*
X9935958Y-24061037D01*
X10305439Y-24061037D01*
X10323855Y-23993255D01*
X10411971Y-23881359D01*
X10504921Y-23824394D01*
X10682052Y-23739926D01*
X10698214Y-23962567D01*
X10714724Y-24102416D01*
X10749800Y-24163504D01*
X10822757Y-24172900D01*
X10846667Y-24170624D01*
X10988433Y-24158207D01*
X11070521Y-24154028D01*
X11156754Y-24134999D01*
X11185831Y-24074396D01*
X11156139Y-23959410D01*
X11066069Y-23777234D01*
X11010814Y-23679278D01*
X10899098Y-23473115D01*
X10802604Y-23273048D01*
X10740259Y-23118639D01*
X10735823Y-23104560D01*
X10674850Y-22901052D01*
X11091488Y-22499798D01*
X11264422Y-22332842D01*
X11409774Y-22191755D01*
X11510135Y-22093483D01*
X11546325Y-22057084D01*
X11610926Y-21985721D01*
X11521609Y-21985721D01*
X11514371Y-21989167D01*
X11466080Y-21951915D01*
X11455208Y-21936250D01*
X11441724Y-21886779D01*
X11448963Y-21883334D01*
X11497253Y-21920586D01*
X11508125Y-21936250D01*
X11521609Y-21985721D01*
X11610926Y-21985721D01*
X11745931Y-21836586D01*
X11657784Y-21836586D01*
X11603474Y-21883662D01*
X11532027Y-21861757D01*
X11511831Y-21836413D01*
X11521461Y-21768245D01*
X11555445Y-21729229D01*
X11623161Y-21699047D01*
X11657049Y-21744518D01*
X11657784Y-21836586D01*
X11745931Y-21836586D01*
X11750800Y-21831208D01*
X11888716Y-21668703D01*
X11968845Y-21558603D01*
X11999924Y-21490134D01*
X11976440Y-21424161D01*
X11904207Y-21409445D01*
X11830670Y-21453118D01*
G37*
X11830670Y-21453118D02*
X11823396Y-21463608D01*
X11751111Y-21498425D01*
X11714439Y-21491727D01*
X11649510Y-21490712D01*
X11640417Y-21509172D01*
X11604809Y-21570499D01*
X11510248Y-21684954D01*
X11375125Y-21833427D01*
X11217830Y-21996807D01*
X11056756Y-22155983D01*
X10910293Y-22291846D01*
X10798289Y-22384227D01*
X10635344Y-22473779D01*
X10506729Y-22488156D01*
X10373131Y-22505453D01*
X10277295Y-22570765D01*
X10179281Y-22684889D01*
X10170274Y-22757826D01*
X10248709Y-22782917D01*
X10307083Y-22797245D01*
X10275167Y-22846417D01*
X10222147Y-22932285D01*
X10227620Y-23040955D01*
X10296587Y-23190814D01*
X10420658Y-23381216D01*
X10519413Y-23531979D01*
X10581294Y-23646039D01*
X10593605Y-23699825D01*
X10592637Y-23700540D01*
X10465307Y-23753613D01*
X10307720Y-23796062D01*
X10165569Y-23817627D01*
X10093042Y-23812714D01*
X10049543Y-23783158D01*
X10037122Y-23722341D01*
X10054982Y-23603766D01*
X10083081Y-23480546D01*
X10123360Y-23277489D01*
X10148320Y-23084552D01*
X10152549Y-22994584D01*
X10150117Y-22809375D01*
X10069444Y-22994584D01*
X10013171Y-23155017D01*
X9958015Y-23361483D01*
X9932571Y-23481686D01*
X9895563Y-23637843D01*
X9856706Y-23735919D01*
X9830200Y-23755045D01*
X9805534Y-23688148D01*
X9814792Y-23629584D01*
X9814058Y-23527813D01*
X9741997Y-23490997D01*
X9626145Y-23525590D01*
X9534281Y-23566332D01*
X9505312Y-23552275D01*
X9541198Y-23475928D01*
X9643900Y-23329800D01*
X9695181Y-23261849D01*
X9805597Y-23108660D01*
X9847263Y-23027288D01*
X9823050Y-23011635D01*
X9811071Y-23015652D01*
X9681193Y-23057048D01*
X9616653Y-23041528D01*
X9611728Y-23027300D01*
X9514564Y-23027300D01*
X9485110Y-23126462D01*
X9433780Y-23197808D01*
X9410785Y-23206250D01*
X9382528Y-23164073D01*
X9394466Y-23087188D01*
X9438269Y-22969320D01*
X9476152Y-22938586D01*
X9502123Y-22955318D01*
X9514564Y-23027300D01*
X9611728Y-23027300D01*
X9588537Y-22960312D01*
X9586496Y-22947448D01*
X9587881Y-22857110D01*
X9639764Y-22848845D01*
X9646019Y-22851123D01*
X9737680Y-22838715D01*
X9870239Y-22768576D01*
X10014184Y-22661990D01*
X10140003Y-22540240D01*
X10207993Y-22445823D01*
X10211950Y-22433171D01*
X10039739Y-22433171D01*
X10001837Y-22489189D01*
X9889673Y-22586506D01*
X9816629Y-22626732D01*
X9719162Y-22665005D01*
X9685927Y-22666488D01*
X9682500Y-22632700D01*
X9682500Y-22632661D01*
X9730547Y-22576723D01*
X9865982Y-22495561D01*
X10026458Y-22418822D01*
X10039739Y-22433171D01*
X10211950Y-22433171D01*
X10254888Y-22295884D01*
X10207216Y-22192528D01*
X10062880Y-22131452D01*
X10053725Y-22129558D01*
X9884688Y-22128198D01*
X9727181Y-22179121D01*
X9613873Y-22266481D01*
X9576667Y-22360942D01*
X9600666Y-22446163D01*
X9633363Y-22465417D01*
X9648123Y-22494843D01*
X9611630Y-22543847D01*
X9536529Y-22638100D01*
X9512020Y-22685816D01*
X9451399Y-22719320D01*
X9326489Y-22704914D01*
X9162293Y-22651501D01*
X8983811Y-22567987D01*
X8816046Y-22463273D01*
X8756891Y-22416896D01*
X8612355Y-22298996D01*
X8593794Y-22284997D01*
X8492764Y-22284997D01*
X8488448Y-22312212D01*
X8412380Y-22358061D01*
X8343383Y-22325744D01*
X8327309Y-22264360D01*
X8381222Y-22228175D01*
X8440349Y-22235148D01*
X8492764Y-22284997D01*
X8593794Y-22284997D01*
X8486243Y-22203884D01*
X8434187Y-22169262D01*
X8369166Y-22113277D01*
X8372652Y-22035272D01*
X8399174Y-21970825D01*
X8434518Y-21862607D01*
X8402379Y-21835400D01*
X8308442Y-21881117D01*
X8201687Y-21895982D01*
X8161642Y-21872766D01*
X8081738Y-21841149D01*
X8030902Y-21907173D01*
X8010493Y-22015607D01*
X8038137Y-22149117D01*
X8102609Y-22204905D01*
X8233158Y-22288394D01*
X8297443Y-22338586D01*
X8524708Y-22532763D01*
X8740803Y-22712196D01*
X8930405Y-22864676D01*
X9078189Y-22977993D01*
X9168830Y-23039935D01*
X9187573Y-23047835D01*
X9241997Y-23089474D01*
X9313448Y-23190282D01*
X9319285Y-23200370D01*
X9365875Y-23295109D01*
X9377182Y-23380619D01*
X9351755Y-23495048D01*
X9302703Y-23636598D01*
X9223838Y-23860934D01*
X9181786Y-24012032D01*
X9174829Y-24115225D01*
X9201250Y-24195848D01*
X9259142Y-24278992D01*
X9369666Y-24382277D01*
X9510041Y-24420838D01*
X9580508Y-24423334D01*
X9788333Y-24423334D01*
X9789144Y-24859896D01*
X9794992Y-25071989D01*
X9809804Y-25247824D01*
X9830711Y-25356816D01*
X9837119Y-25370960D01*
X9858934Y-25489979D01*
X9800686Y-25608218D01*
X9683512Y-25693923D01*
X9608261Y-25714819D01*
X9207434Y-25776713D01*
X8883971Y-25839129D01*
X8609551Y-25908196D01*
X8386042Y-25979379D01*
X8208594Y-26047502D01*
X8127104Y-26091539D01*
X8134112Y-26109870D01*
X8222153Y-26100874D01*
X8383765Y-26062929D01*
X8548337Y-26014632D01*
X8765827Y-25959533D01*
X9032843Y-25910224D01*
X9293176Y-25877016D01*
X9303732Y-25876074D01*
X9738081Y-25838185D01*
X9684412Y-25979346D01*
X9657239Y-26085561D01*
X9696115Y-26141095D01*
X9749226Y-26164550D01*
X9866567Y-26190268D01*
X9929074Y-26185262D01*
X9995178Y-26199270D01*
X10027892Y-26278623D01*
X10022304Y-26386736D01*
X9973500Y-26487024D01*
X9970110Y-26490876D01*
X9910262Y-26565296D01*
X9932785Y-26589725D01*
X10005028Y-26591234D01*
X10150117Y-26557627D01*
X10236805Y-26510546D01*
X10307850Y-26427605D01*
X10289722Y-26340250D01*
X10259461Y-26228018D01*
X10253055Y-26072890D01*
X10254549Y-26050521D01*
X10274834Y-25919178D01*
X10279364Y-25913780D01*
X9929816Y-25913780D01*
X9916461Y-26023953D01*
X9878643Y-26092800D01*
X9845344Y-26077411D01*
X9824302Y-25999333D01*
X9823254Y-25880115D01*
X9835373Y-25798125D01*
X9874030Y-25613959D01*
X9912694Y-25763979D01*
X9929816Y-25913780D01*
X10279364Y-25913780D01*
X10321821Y-25863194D01*
X10408964Y-25852084D01*
X10585249Y-25864991D01*
X10823243Y-25898894D01*
X11082654Y-25946565D01*
X11323191Y-26000777D01*
X11470287Y-26042462D01*
X11664498Y-26099234D01*
X11771499Y-26114561D01*
X11787125Y-26088079D01*
X11770063Y-26068700D01*
X11676983Y-26017635D01*
X11507529Y-25956487D01*
X11289664Y-25892890D01*
X11051354Y-25834475D01*
X10820564Y-25788875D01*
X10665686Y-25767308D01*
X10480596Y-25743736D01*
X10335250Y-25716841D01*
X10268022Y-25695458D01*
X10257108Y-25673355D01*
X10105833Y-25673355D01*
X10080093Y-25689194D01*
X10009747Y-25621217D01*
X9993250Y-25600729D01*
X9947485Y-25538050D01*
X9974888Y-25551190D01*
X10013229Y-25580750D01*
X10086517Y-25646028D01*
X10105833Y-25673355D01*
X10257108Y-25673355D01*
X10252318Y-25663657D01*
X10260622Y-25593858D01*
X10296818Y-25475498D01*
X10364790Y-25298015D01*
X10468423Y-25050846D01*
X10611601Y-24723428D01*
X10692063Y-24542396D01*
X10741163Y-24409015D01*
X10750056Y-24329032D01*
X10737446Y-24317500D01*
X10685396Y-24362114D01*
X10622838Y-24473383D01*
X10604916Y-24515938D01*
X10532956Y-24692663D01*
X10460947Y-24859022D01*
X10454527Y-24873125D01*
X10381266Y-25042401D01*
X10316271Y-25204990D01*
X10246237Y-25358359D01*
X10194544Y-25410320D01*
X10167026Y-25361540D01*
X10169490Y-25214144D01*
X10105833Y-25214144D01*
X10083335Y-25363003D01*
X10026214Y-25427689D01*
X9950029Y-25400269D01*
X9893792Y-25322216D01*
X9867445Y-25193597D01*
X9928399Y-25103324D01*
X10013229Y-25077442D01*
X10084335Y-25103881D01*
X10105826Y-25211057D01*
X10105833Y-25214144D01*
X10169490Y-25214144D01*
X10169515Y-25212685D01*
X10172066Y-25188501D01*
X10175881Y-24969575D01*
X10126166Y-24818486D01*
X10121752Y-24811549D01*
X10071225Y-24714743D01*
X10088439Y-24648437D01*
X10120819Y-24612455D01*
X10196675Y-24562991D01*
X10231826Y-24566964D01*
X10253058Y-24543213D01*
X10264128Y-24443011D01*
X10264583Y-24412309D01*
X10277843Y-24162613D01*
X10305439Y-24061037D01*
X9935958Y-24061037D01*
X9916326Y-24124414D01*
X9866788Y-24183945D01*
X9836232Y-24182107D01*
X9826473Y-24126476D01*
X9855006Y-24081915D01*
X9922650Y-24026280D01*
X9935958Y-24061037D01*
X10305439Y-24061037D01*
X10323855Y-23993255D01*
X10411971Y-23881359D01*
X10504921Y-23824394D01*
X10682052Y-23739926D01*
X10698214Y-23962567D01*
X10714724Y-24102416D01*
X10749800Y-24163504D01*
X10822757Y-24172900D01*
X10846667Y-24170624D01*
X10988433Y-24158207D01*
X11070521Y-24154028D01*
X11156754Y-24134999D01*
X11185831Y-24074396D01*
X11156139Y-23959410D01*
X11066069Y-23777234D01*
X11010814Y-23679278D01*
X10899098Y-23473115D01*
X10802604Y-23273048D01*
X10740259Y-23118639D01*
X10735823Y-23104560D01*
X10674850Y-22901052D01*
X11091488Y-22499798D01*
X11264422Y-22332842D01*
X11409774Y-22191755D01*
X11510135Y-22093483D01*
X11546325Y-22057084D01*
X11610926Y-21985721D01*
X11521609Y-21985721D01*
X11514371Y-21989167D01*
X11466080Y-21951915D01*
X11455208Y-21936250D01*
X11441724Y-21886779D01*
X11448963Y-21883334D01*
X11497253Y-21920586D01*
X11508125Y-21936250D01*
X11521609Y-21985721D01*
X11610926Y-21985721D01*
X11745931Y-21836586D01*
X11657784Y-21836586D01*
X11603474Y-21883662D01*
X11532027Y-21861757D01*
X11511831Y-21836413D01*
X11521461Y-21768245D01*
X11555445Y-21729229D01*
X11623161Y-21699047D01*
X11657049Y-21744518D01*
X11657784Y-21836586D01*
X11745931Y-21836586D01*
X11750800Y-21831208D01*
X11888716Y-21668703D01*
X11968845Y-21558603D01*
X11999924Y-21490134D01*
X11976440Y-21424161D01*
X11904207Y-21409445D01*
X11830670Y-21453118D01*
G36*
X9641772Y-26220801D02*
G01*
X9597634Y-26265417D01*
X9555597Y-26354216D01*
X9558024Y-26393896D01*
X9539157Y-26428988D01*
X9503538Y-26434167D01*
X9412111Y-26465216D01*
X9391458Y-26487084D01*
X9413471Y-26523390D01*
X9520306Y-26539716D01*
X9541349Y-26540000D01*
X9671604Y-26526102D01*
X9735890Y-26468059D01*
X9759207Y-26399499D01*
X9763023Y-26276010D01*
X9716308Y-26210161D01*
X9641772Y-26220801D01*
G37*
X9641772Y-26220801D02*
X9597634Y-26265417D01*
X9555597Y-26354216D01*
X9558024Y-26393896D01*
X9539157Y-26428988D01*
X9503538Y-26434167D01*
X9412111Y-26465216D01*
X9391458Y-26487084D01*
X9413471Y-26523390D01*
X9520306Y-26539716D01*
X9541349Y-26540000D01*
X9671604Y-26526102D01*
X9735890Y-26468059D01*
X9759207Y-26399499D01*
X9763023Y-26276010D01*
X9716308Y-26210161D01*
X9641772Y-26220801D01*
G36*
X8359583Y-22280209D02*
G01*
X8386042Y-22306667D01*
X8412500Y-22280209D01*
X8386042Y-22253750D01*
X8359583Y-22280209D01*
G37*
X8359583Y-22280209D02*
X8386042Y-22306667D01*
X8412500Y-22280209D01*
X8386042Y-22253750D01*
X8359583Y-22280209D01*
%TO.C,Logo103*%
G36*
X36830670Y-21453118D02*
G01*
X36823396Y-21463608D01*
X36751111Y-21498425D01*
X36714439Y-21491727D01*
X36649510Y-21490712D01*
X36640417Y-21509172D01*
X36604809Y-21570499D01*
X36510248Y-21684954D01*
X36375125Y-21833427D01*
X36217830Y-21996807D01*
X36056756Y-22155983D01*
X35910293Y-22291846D01*
X35798289Y-22384227D01*
X35635344Y-22473779D01*
X35506729Y-22488156D01*
X35373131Y-22505453D01*
X35277295Y-22570765D01*
X35179281Y-22684889D01*
X35170274Y-22757826D01*
X35248709Y-22782917D01*
X35307083Y-22797245D01*
X35275167Y-22846417D01*
X35222147Y-22932285D01*
X35227620Y-23040955D01*
X35296587Y-23190814D01*
X35420658Y-23381216D01*
X35519413Y-23531979D01*
X35581294Y-23646039D01*
X35593605Y-23699825D01*
X35592637Y-23700540D01*
X35465307Y-23753613D01*
X35307720Y-23796062D01*
X35165569Y-23817627D01*
X35093042Y-23812714D01*
X35049543Y-23783158D01*
X35037122Y-23722341D01*
X35054982Y-23603766D01*
X35083081Y-23480546D01*
X35123360Y-23277489D01*
X35148320Y-23084552D01*
X35152549Y-22994584D01*
X35150117Y-22809375D01*
X35069444Y-22994584D01*
X35013171Y-23155017D01*
X34958015Y-23361483D01*
X34932571Y-23481686D01*
X34895563Y-23637843D01*
X34856706Y-23735919D01*
X34830200Y-23755045D01*
X34805534Y-23688148D01*
X34814792Y-23629584D01*
X34814058Y-23527813D01*
X34741997Y-23490997D01*
X34626145Y-23525590D01*
X34534281Y-23566332D01*
X34505312Y-23552275D01*
X34541198Y-23475928D01*
X34643900Y-23329800D01*
X34695181Y-23261849D01*
X34805597Y-23108660D01*
X34847263Y-23027288D01*
X34823050Y-23011635D01*
X34811071Y-23015652D01*
X34681193Y-23057048D01*
X34616653Y-23041528D01*
X34611728Y-23027300D01*
X34514564Y-23027300D01*
X34485110Y-23126462D01*
X34433780Y-23197808D01*
X34410785Y-23206250D01*
X34382528Y-23164073D01*
X34394466Y-23087188D01*
X34438269Y-22969320D01*
X34476152Y-22938586D01*
X34502123Y-22955318D01*
X34514564Y-23027300D01*
X34611728Y-23027300D01*
X34588537Y-22960312D01*
X34586496Y-22947448D01*
X34587881Y-22857110D01*
X34639764Y-22848845D01*
X34646019Y-22851123D01*
X34737680Y-22838715D01*
X34870239Y-22768576D01*
X35014184Y-22661990D01*
X35140003Y-22540240D01*
X35207993Y-22445823D01*
X35211950Y-22433171D01*
X35039739Y-22433171D01*
X35001837Y-22489189D01*
X34889673Y-22586506D01*
X34816629Y-22626732D01*
X34719162Y-22665005D01*
X34685927Y-22666488D01*
X34682500Y-22632700D01*
X34682500Y-22632661D01*
X34730547Y-22576723D01*
X34865982Y-22495561D01*
X35026458Y-22418822D01*
X35039739Y-22433171D01*
X35211950Y-22433171D01*
X35254888Y-22295884D01*
X35207216Y-22192528D01*
X35062880Y-22131452D01*
X35053725Y-22129558D01*
X34884688Y-22128198D01*
X34727181Y-22179121D01*
X34613873Y-22266481D01*
X34576667Y-22360942D01*
X34600666Y-22446163D01*
X34633363Y-22465417D01*
X34648123Y-22494843D01*
X34611630Y-22543847D01*
X34536529Y-22638100D01*
X34512020Y-22685816D01*
X34451399Y-22719320D01*
X34326489Y-22704914D01*
X34162293Y-22651501D01*
X33983811Y-22567987D01*
X33816046Y-22463273D01*
X33756891Y-22416896D01*
X33612355Y-22298996D01*
X33593794Y-22284997D01*
X33492764Y-22284997D01*
X33488448Y-22312212D01*
X33412380Y-22358061D01*
X33343383Y-22325744D01*
X33327309Y-22264360D01*
X33381222Y-22228175D01*
X33440349Y-22235148D01*
X33492764Y-22284997D01*
X33593794Y-22284997D01*
X33486243Y-22203884D01*
X33434187Y-22169262D01*
X33369166Y-22113277D01*
X33372652Y-22035272D01*
X33399174Y-21970825D01*
X33434518Y-21862607D01*
X33402379Y-21835400D01*
X33308442Y-21881117D01*
X33201687Y-21895982D01*
X33161642Y-21872766D01*
X33081738Y-21841149D01*
X33030902Y-21907173D01*
X33010493Y-22015607D01*
X33038137Y-22149117D01*
X33102609Y-22204905D01*
X33233158Y-22288394D01*
X33297443Y-22338586D01*
X33524708Y-22532763D01*
X33740803Y-22712196D01*
X33930405Y-22864676D01*
X34078189Y-22977993D01*
X34168830Y-23039935D01*
X34187573Y-23047835D01*
X34241997Y-23089474D01*
X34313448Y-23190282D01*
X34319285Y-23200370D01*
X34365875Y-23295109D01*
X34377182Y-23380619D01*
X34351755Y-23495048D01*
X34302703Y-23636598D01*
X34223838Y-23860934D01*
X34181786Y-24012032D01*
X34174829Y-24115225D01*
X34201250Y-24195848D01*
X34259142Y-24278992D01*
X34369666Y-24382277D01*
X34510041Y-24420838D01*
X34580508Y-24423334D01*
X34788333Y-24423334D01*
X34789144Y-24859896D01*
X34794992Y-25071989D01*
X34809804Y-25247824D01*
X34830711Y-25356816D01*
X34837119Y-25370960D01*
X34858934Y-25489979D01*
X34800686Y-25608218D01*
X34683512Y-25693923D01*
X34608261Y-25714819D01*
X34207434Y-25776713D01*
X33883971Y-25839129D01*
X33609551Y-25908196D01*
X33386042Y-25979379D01*
X33208594Y-26047502D01*
X33127104Y-26091539D01*
X33134112Y-26109870D01*
X33222153Y-26100874D01*
X33383765Y-26062929D01*
X33548337Y-26014632D01*
X33765827Y-25959533D01*
X34032843Y-25910224D01*
X34293176Y-25877016D01*
X34303732Y-25876074D01*
X34738081Y-25838185D01*
X34684412Y-25979346D01*
X34657239Y-26085561D01*
X34696115Y-26141095D01*
X34749226Y-26164550D01*
X34866567Y-26190268D01*
X34929074Y-26185262D01*
X34995178Y-26199270D01*
X35027892Y-26278623D01*
X35022304Y-26386736D01*
X34973500Y-26487024D01*
X34970110Y-26490876D01*
X34910262Y-26565296D01*
X34932785Y-26589725D01*
X35005028Y-26591234D01*
X35150117Y-26557627D01*
X35236805Y-26510546D01*
X35307850Y-26427605D01*
X35289722Y-26340250D01*
X35259461Y-26228018D01*
X35253055Y-26072890D01*
X35254549Y-26050521D01*
X35274834Y-25919178D01*
X35279364Y-25913780D01*
X34929816Y-25913780D01*
X34916461Y-26023953D01*
X34878643Y-26092800D01*
X34845344Y-26077411D01*
X34824302Y-25999333D01*
X34823254Y-25880115D01*
X34835373Y-25798125D01*
X34874030Y-25613959D01*
X34912694Y-25763979D01*
X34929816Y-25913780D01*
X35279364Y-25913780D01*
X35321821Y-25863194D01*
X35408964Y-25852084D01*
X35585249Y-25864991D01*
X35823243Y-25898894D01*
X36082654Y-25946565D01*
X36323191Y-26000777D01*
X36470287Y-26042462D01*
X36664498Y-26099234D01*
X36771499Y-26114561D01*
X36787125Y-26088079D01*
X36770063Y-26068700D01*
X36676983Y-26017635D01*
X36507529Y-25956487D01*
X36289664Y-25892890D01*
X36051354Y-25834475D01*
X35820564Y-25788875D01*
X35665686Y-25767308D01*
X35480596Y-25743736D01*
X35335250Y-25716841D01*
X35268022Y-25695458D01*
X35257108Y-25673355D01*
X35105833Y-25673355D01*
X35080093Y-25689194D01*
X35009747Y-25621217D01*
X34993250Y-25600729D01*
X34947485Y-25538050D01*
X34974888Y-25551190D01*
X35013229Y-25580750D01*
X35086517Y-25646028D01*
X35105833Y-25673355D01*
X35257108Y-25673355D01*
X35252318Y-25663657D01*
X35260622Y-25593858D01*
X35296818Y-25475498D01*
X35364790Y-25298015D01*
X35468423Y-25050846D01*
X35611601Y-24723428D01*
X35692063Y-24542396D01*
X35741163Y-24409015D01*
X35750056Y-24329032D01*
X35737446Y-24317500D01*
X35685396Y-24362114D01*
X35622838Y-24473383D01*
X35604916Y-24515938D01*
X35532956Y-24692663D01*
X35460947Y-24859022D01*
X35454527Y-24873125D01*
X35381266Y-25042401D01*
X35316271Y-25204990D01*
X35246237Y-25358359D01*
X35194544Y-25410320D01*
X35167026Y-25361540D01*
X35169490Y-25214144D01*
X35105833Y-25214144D01*
X35083335Y-25363003D01*
X35026214Y-25427689D01*
X34950029Y-25400269D01*
X34893792Y-25322216D01*
X34867445Y-25193597D01*
X34928399Y-25103324D01*
X35013229Y-25077442D01*
X35084335Y-25103881D01*
X35105826Y-25211057D01*
X35105833Y-25214144D01*
X35169490Y-25214144D01*
X35169515Y-25212685D01*
X35172066Y-25188501D01*
X35175881Y-24969575D01*
X35126166Y-24818486D01*
X35121752Y-24811549D01*
X35071225Y-24714743D01*
X35088439Y-24648437D01*
X35120819Y-24612455D01*
X35196675Y-24562991D01*
X35231826Y-24566964D01*
X35253058Y-24543213D01*
X35264128Y-24443011D01*
X35264583Y-24412309D01*
X35277843Y-24162613D01*
X35305439Y-24061037D01*
X34935958Y-24061037D01*
X34916326Y-24124414D01*
X34866788Y-24183945D01*
X34836232Y-24182107D01*
X34826473Y-24126476D01*
X34855006Y-24081915D01*
X34922650Y-24026280D01*
X34935958Y-24061037D01*
X35305439Y-24061037D01*
X35323855Y-23993255D01*
X35411971Y-23881359D01*
X35504921Y-23824394D01*
X35682052Y-23739926D01*
X35698214Y-23962567D01*
X35714724Y-24102416D01*
X35749800Y-24163504D01*
X35822757Y-24172900D01*
X35846667Y-24170624D01*
X35988433Y-24158207D01*
X36070521Y-24154028D01*
X36156754Y-24134999D01*
X36185831Y-24074396D01*
X36156139Y-23959410D01*
X36066069Y-23777234D01*
X36010814Y-23679278D01*
X35899098Y-23473115D01*
X35802604Y-23273048D01*
X35740259Y-23118639D01*
X35735823Y-23104560D01*
X35674850Y-22901052D01*
X36091488Y-22499798D01*
X36264422Y-22332842D01*
X36409774Y-22191755D01*
X36510135Y-22093483D01*
X36546325Y-22057084D01*
X36610926Y-21985721D01*
X36521609Y-21985721D01*
X36514371Y-21989167D01*
X36466080Y-21951915D01*
X36455208Y-21936250D01*
X36441724Y-21886779D01*
X36448963Y-21883334D01*
X36497253Y-21920586D01*
X36508125Y-21936250D01*
X36521609Y-21985721D01*
X36610926Y-21985721D01*
X36745931Y-21836586D01*
X36657784Y-21836586D01*
X36603474Y-21883662D01*
X36532027Y-21861757D01*
X36511831Y-21836413D01*
X36521461Y-21768245D01*
X36555445Y-21729229D01*
X36623161Y-21699047D01*
X36657049Y-21744518D01*
X36657784Y-21836586D01*
X36745931Y-21836586D01*
X36750800Y-21831208D01*
X36888716Y-21668703D01*
X36968845Y-21558603D01*
X36999924Y-21490134D01*
X36976440Y-21424161D01*
X36904207Y-21409445D01*
X36830670Y-21453118D01*
G37*
X36830670Y-21453118D02*
X36823396Y-21463608D01*
X36751111Y-21498425D01*
X36714439Y-21491727D01*
X36649510Y-21490712D01*
X36640417Y-21509172D01*
X36604809Y-21570499D01*
X36510248Y-21684954D01*
X36375125Y-21833427D01*
X36217830Y-21996807D01*
X36056756Y-22155983D01*
X35910293Y-22291846D01*
X35798289Y-22384227D01*
X35635344Y-22473779D01*
X35506729Y-22488156D01*
X35373131Y-22505453D01*
X35277295Y-22570765D01*
X35179281Y-22684889D01*
X35170274Y-22757826D01*
X35248709Y-22782917D01*
X35307083Y-22797245D01*
X35275167Y-22846417D01*
X35222147Y-22932285D01*
X35227620Y-23040955D01*
X35296587Y-23190814D01*
X35420658Y-23381216D01*
X35519413Y-23531979D01*
X35581294Y-23646039D01*
X35593605Y-23699825D01*
X35592637Y-23700540D01*
X35465307Y-23753613D01*
X35307720Y-23796062D01*
X35165569Y-23817627D01*
X35093042Y-23812714D01*
X35049543Y-23783158D01*
X35037122Y-23722341D01*
X35054982Y-23603766D01*
X35083081Y-23480546D01*
X35123360Y-23277489D01*
X35148320Y-23084552D01*
X35152549Y-22994584D01*
X35150117Y-22809375D01*
X35069444Y-22994584D01*
X35013171Y-23155017D01*
X34958015Y-23361483D01*
X34932571Y-23481686D01*
X34895563Y-23637843D01*
X34856706Y-23735919D01*
X34830200Y-23755045D01*
X34805534Y-23688148D01*
X34814792Y-23629584D01*
X34814058Y-23527813D01*
X34741997Y-23490997D01*
X34626145Y-23525590D01*
X34534281Y-23566332D01*
X34505312Y-23552275D01*
X34541198Y-23475928D01*
X34643900Y-23329800D01*
X34695181Y-23261849D01*
X34805597Y-23108660D01*
X34847263Y-23027288D01*
X34823050Y-23011635D01*
X34811071Y-23015652D01*
X34681193Y-23057048D01*
X34616653Y-23041528D01*
X34611728Y-23027300D01*
X34514564Y-23027300D01*
X34485110Y-23126462D01*
X34433780Y-23197808D01*
X34410785Y-23206250D01*
X34382528Y-23164073D01*
X34394466Y-23087188D01*
X34438269Y-22969320D01*
X34476152Y-22938586D01*
X34502123Y-22955318D01*
X34514564Y-23027300D01*
X34611728Y-23027300D01*
X34588537Y-22960312D01*
X34586496Y-22947448D01*
X34587881Y-22857110D01*
X34639764Y-22848845D01*
X34646019Y-22851123D01*
X34737680Y-22838715D01*
X34870239Y-22768576D01*
X35014184Y-22661990D01*
X35140003Y-22540240D01*
X35207993Y-22445823D01*
X35211950Y-22433171D01*
X35039739Y-22433171D01*
X35001837Y-22489189D01*
X34889673Y-22586506D01*
X34816629Y-22626732D01*
X34719162Y-22665005D01*
X34685927Y-22666488D01*
X34682500Y-22632700D01*
X34682500Y-22632661D01*
X34730547Y-22576723D01*
X34865982Y-22495561D01*
X35026458Y-22418822D01*
X35039739Y-22433171D01*
X35211950Y-22433171D01*
X35254888Y-22295884D01*
X35207216Y-22192528D01*
X35062880Y-22131452D01*
X35053725Y-22129558D01*
X34884688Y-22128198D01*
X34727181Y-22179121D01*
X34613873Y-22266481D01*
X34576667Y-22360942D01*
X34600666Y-22446163D01*
X34633363Y-22465417D01*
X34648123Y-22494843D01*
X34611630Y-22543847D01*
X34536529Y-22638100D01*
X34512020Y-22685816D01*
X34451399Y-22719320D01*
X34326489Y-22704914D01*
X34162293Y-22651501D01*
X33983811Y-22567987D01*
X33816046Y-22463273D01*
X33756891Y-22416896D01*
X33612355Y-22298996D01*
X33593794Y-22284997D01*
X33492764Y-22284997D01*
X33488448Y-22312212D01*
X33412380Y-22358061D01*
X33343383Y-22325744D01*
X33327309Y-22264360D01*
X33381222Y-22228175D01*
X33440349Y-22235148D01*
X33492764Y-22284997D01*
X33593794Y-22284997D01*
X33486243Y-22203884D01*
X33434187Y-22169262D01*
X33369166Y-22113277D01*
X33372652Y-22035272D01*
X33399174Y-21970825D01*
X33434518Y-21862607D01*
X33402379Y-21835400D01*
X33308442Y-21881117D01*
X33201687Y-21895982D01*
X33161642Y-21872766D01*
X33081738Y-21841149D01*
X33030902Y-21907173D01*
X33010493Y-22015607D01*
X33038137Y-22149117D01*
X33102609Y-22204905D01*
X33233158Y-22288394D01*
X33297443Y-22338586D01*
X33524708Y-22532763D01*
X33740803Y-22712196D01*
X33930405Y-22864676D01*
X34078189Y-22977993D01*
X34168830Y-23039935D01*
X34187573Y-23047835D01*
X34241997Y-23089474D01*
X34313448Y-23190282D01*
X34319285Y-23200370D01*
X34365875Y-23295109D01*
X34377182Y-23380619D01*
X34351755Y-23495048D01*
X34302703Y-23636598D01*
X34223838Y-23860934D01*
X34181786Y-24012032D01*
X34174829Y-24115225D01*
X34201250Y-24195848D01*
X34259142Y-24278992D01*
X34369666Y-24382277D01*
X34510041Y-24420838D01*
X34580508Y-24423334D01*
X34788333Y-24423334D01*
X34789144Y-24859896D01*
X34794992Y-25071989D01*
X34809804Y-25247824D01*
X34830711Y-25356816D01*
X34837119Y-25370960D01*
X34858934Y-25489979D01*
X34800686Y-25608218D01*
X34683512Y-25693923D01*
X34608261Y-25714819D01*
X34207434Y-25776713D01*
X33883971Y-25839129D01*
X33609551Y-25908196D01*
X33386042Y-25979379D01*
X33208594Y-26047502D01*
X33127104Y-26091539D01*
X33134112Y-26109870D01*
X33222153Y-26100874D01*
X33383765Y-26062929D01*
X33548337Y-26014632D01*
X33765827Y-25959533D01*
X34032843Y-25910224D01*
X34293176Y-25877016D01*
X34303732Y-25876074D01*
X34738081Y-25838185D01*
X34684412Y-25979346D01*
X34657239Y-26085561D01*
X34696115Y-26141095D01*
X34749226Y-26164550D01*
X34866567Y-26190268D01*
X34929074Y-26185262D01*
X34995178Y-26199270D01*
X35027892Y-26278623D01*
X35022304Y-26386736D01*
X34973500Y-26487024D01*
X34970110Y-26490876D01*
X34910262Y-26565296D01*
X34932785Y-26589725D01*
X35005028Y-26591234D01*
X35150117Y-26557627D01*
X35236805Y-26510546D01*
X35307850Y-26427605D01*
X35289722Y-26340250D01*
X35259461Y-26228018D01*
X35253055Y-26072890D01*
X35254549Y-26050521D01*
X35274834Y-25919178D01*
X35279364Y-25913780D01*
X34929816Y-25913780D01*
X34916461Y-26023953D01*
X34878643Y-26092800D01*
X34845344Y-26077411D01*
X34824302Y-25999333D01*
X34823254Y-25880115D01*
X34835373Y-25798125D01*
X34874030Y-25613959D01*
X34912694Y-25763979D01*
X34929816Y-25913780D01*
X35279364Y-25913780D01*
X35321821Y-25863194D01*
X35408964Y-25852084D01*
X35585249Y-25864991D01*
X35823243Y-25898894D01*
X36082654Y-25946565D01*
X36323191Y-26000777D01*
X36470287Y-26042462D01*
X36664498Y-26099234D01*
X36771499Y-26114561D01*
X36787125Y-26088079D01*
X36770063Y-26068700D01*
X36676983Y-26017635D01*
X36507529Y-25956487D01*
X36289664Y-25892890D01*
X36051354Y-25834475D01*
X35820564Y-25788875D01*
X35665686Y-25767308D01*
X35480596Y-25743736D01*
X35335250Y-25716841D01*
X35268022Y-25695458D01*
X35257108Y-25673355D01*
X35105833Y-25673355D01*
X35080093Y-25689194D01*
X35009747Y-25621217D01*
X34993250Y-25600729D01*
X34947485Y-25538050D01*
X34974888Y-25551190D01*
X35013229Y-25580750D01*
X35086517Y-25646028D01*
X35105833Y-25673355D01*
X35257108Y-25673355D01*
X35252318Y-25663657D01*
X35260622Y-25593858D01*
X35296818Y-25475498D01*
X35364790Y-25298015D01*
X35468423Y-25050846D01*
X35611601Y-24723428D01*
X35692063Y-24542396D01*
X35741163Y-24409015D01*
X35750056Y-24329032D01*
X35737446Y-24317500D01*
X35685396Y-24362114D01*
X35622838Y-24473383D01*
X35604916Y-24515938D01*
X35532956Y-24692663D01*
X35460947Y-24859022D01*
X35454527Y-24873125D01*
X35381266Y-25042401D01*
X35316271Y-25204990D01*
X35246237Y-25358359D01*
X35194544Y-25410320D01*
X35167026Y-25361540D01*
X35169490Y-25214144D01*
X35105833Y-25214144D01*
X35083335Y-25363003D01*
X35026214Y-25427689D01*
X34950029Y-25400269D01*
X34893792Y-25322216D01*
X34867445Y-25193597D01*
X34928399Y-25103324D01*
X35013229Y-25077442D01*
X35084335Y-25103881D01*
X35105826Y-25211057D01*
X35105833Y-25214144D01*
X35169490Y-25214144D01*
X35169515Y-25212685D01*
X35172066Y-25188501D01*
X35175881Y-24969575D01*
X35126166Y-24818486D01*
X35121752Y-24811549D01*
X35071225Y-24714743D01*
X35088439Y-24648437D01*
X35120819Y-24612455D01*
X35196675Y-24562991D01*
X35231826Y-24566964D01*
X35253058Y-24543213D01*
X35264128Y-24443011D01*
X35264583Y-24412309D01*
X35277843Y-24162613D01*
X35305439Y-24061037D01*
X34935958Y-24061037D01*
X34916326Y-24124414D01*
X34866788Y-24183945D01*
X34836232Y-24182107D01*
X34826473Y-24126476D01*
X34855006Y-24081915D01*
X34922650Y-24026280D01*
X34935958Y-24061037D01*
X35305439Y-24061037D01*
X35323855Y-23993255D01*
X35411971Y-23881359D01*
X35504921Y-23824394D01*
X35682052Y-23739926D01*
X35698214Y-23962567D01*
X35714724Y-24102416D01*
X35749800Y-24163504D01*
X35822757Y-24172900D01*
X35846667Y-24170624D01*
X35988433Y-24158207D01*
X36070521Y-24154028D01*
X36156754Y-24134999D01*
X36185831Y-24074396D01*
X36156139Y-23959410D01*
X36066069Y-23777234D01*
X36010814Y-23679278D01*
X35899098Y-23473115D01*
X35802604Y-23273048D01*
X35740259Y-23118639D01*
X35735823Y-23104560D01*
X35674850Y-22901052D01*
X36091488Y-22499798D01*
X36264422Y-22332842D01*
X36409774Y-22191755D01*
X36510135Y-22093483D01*
X36546325Y-22057084D01*
X36610926Y-21985721D01*
X36521609Y-21985721D01*
X36514371Y-21989167D01*
X36466080Y-21951915D01*
X36455208Y-21936250D01*
X36441724Y-21886779D01*
X36448963Y-21883334D01*
X36497253Y-21920586D01*
X36508125Y-21936250D01*
X36521609Y-21985721D01*
X36610926Y-21985721D01*
X36745931Y-21836586D01*
X36657784Y-21836586D01*
X36603474Y-21883662D01*
X36532027Y-21861757D01*
X36511831Y-21836413D01*
X36521461Y-21768245D01*
X36555445Y-21729229D01*
X36623161Y-21699047D01*
X36657049Y-21744518D01*
X36657784Y-21836586D01*
X36745931Y-21836586D01*
X36750800Y-21831208D01*
X36888716Y-21668703D01*
X36968845Y-21558603D01*
X36999924Y-21490134D01*
X36976440Y-21424161D01*
X36904207Y-21409445D01*
X36830670Y-21453118D01*
G36*
X34641772Y-26220801D02*
G01*
X34597634Y-26265417D01*
X34555597Y-26354216D01*
X34558024Y-26393896D01*
X34539157Y-26428988D01*
X34503538Y-26434167D01*
X34412111Y-26465216D01*
X34391458Y-26487084D01*
X34413471Y-26523390D01*
X34520306Y-26539716D01*
X34541349Y-26540000D01*
X34671604Y-26526102D01*
X34735890Y-26468059D01*
X34759207Y-26399499D01*
X34763023Y-26276010D01*
X34716308Y-26210161D01*
X34641772Y-26220801D01*
G37*
X34641772Y-26220801D02*
X34597634Y-26265417D01*
X34555597Y-26354216D01*
X34558024Y-26393896D01*
X34539157Y-26428988D01*
X34503538Y-26434167D01*
X34412111Y-26465216D01*
X34391458Y-26487084D01*
X34413471Y-26523390D01*
X34520306Y-26539716D01*
X34541349Y-26540000D01*
X34671604Y-26526102D01*
X34735890Y-26468059D01*
X34759207Y-26399499D01*
X34763023Y-26276010D01*
X34716308Y-26210161D01*
X34641772Y-26220801D01*
G36*
X33359583Y-22280209D02*
G01*
X33386042Y-22306667D01*
X33412500Y-22280209D01*
X33386042Y-22253750D01*
X33359583Y-22280209D01*
G37*
X33359583Y-22280209D02*
X33386042Y-22306667D01*
X33412500Y-22280209D01*
X33386042Y-22253750D01*
X33359583Y-22280209D01*
%TO.C,Logo102*%
G36*
X11830670Y-4453118D02*
G01*
X11823396Y-4463608D01*
X11751111Y-4498425D01*
X11714439Y-4491727D01*
X11649510Y-4490712D01*
X11640417Y-4509172D01*
X11604809Y-4570499D01*
X11510248Y-4684954D01*
X11375125Y-4833427D01*
X11217830Y-4996807D01*
X11056756Y-5155983D01*
X10910293Y-5291846D01*
X10798289Y-5384227D01*
X10635344Y-5473779D01*
X10506729Y-5488156D01*
X10373131Y-5505453D01*
X10277295Y-5570765D01*
X10179281Y-5684889D01*
X10170274Y-5757826D01*
X10248709Y-5782917D01*
X10307083Y-5797245D01*
X10275167Y-5846417D01*
X10222147Y-5932285D01*
X10227620Y-6040955D01*
X10296587Y-6190814D01*
X10420658Y-6381216D01*
X10519413Y-6531979D01*
X10581294Y-6646039D01*
X10593605Y-6699825D01*
X10592637Y-6700540D01*
X10465307Y-6753613D01*
X10307720Y-6796062D01*
X10165569Y-6817627D01*
X10093042Y-6812714D01*
X10049543Y-6783158D01*
X10037122Y-6722341D01*
X10054982Y-6603766D01*
X10083081Y-6480546D01*
X10123360Y-6277489D01*
X10148320Y-6084552D01*
X10152549Y-5994584D01*
X10150117Y-5809375D01*
X10069444Y-5994584D01*
X10013171Y-6155017D01*
X9958015Y-6361483D01*
X9932571Y-6481686D01*
X9895563Y-6637843D01*
X9856706Y-6735919D01*
X9830200Y-6755045D01*
X9805534Y-6688148D01*
X9814792Y-6629584D01*
X9814058Y-6527813D01*
X9741997Y-6490997D01*
X9626145Y-6525590D01*
X9534281Y-6566332D01*
X9505312Y-6552275D01*
X9541198Y-6475928D01*
X9643900Y-6329800D01*
X9695181Y-6261849D01*
X9805597Y-6108660D01*
X9847263Y-6027288D01*
X9823050Y-6011635D01*
X9811071Y-6015652D01*
X9681193Y-6057048D01*
X9616653Y-6041528D01*
X9611728Y-6027300D01*
X9514564Y-6027300D01*
X9485110Y-6126462D01*
X9433780Y-6197808D01*
X9410785Y-6206250D01*
X9382528Y-6164073D01*
X9394466Y-6087188D01*
X9438269Y-5969320D01*
X9476152Y-5938586D01*
X9502123Y-5955318D01*
X9514564Y-6027300D01*
X9611728Y-6027300D01*
X9588537Y-5960312D01*
X9586496Y-5947448D01*
X9587881Y-5857110D01*
X9639764Y-5848845D01*
X9646019Y-5851123D01*
X9737680Y-5838715D01*
X9870239Y-5768576D01*
X10014184Y-5661990D01*
X10140003Y-5540240D01*
X10207993Y-5445823D01*
X10211950Y-5433171D01*
X10039739Y-5433171D01*
X10001837Y-5489189D01*
X9889673Y-5586506D01*
X9816629Y-5626732D01*
X9719162Y-5665005D01*
X9685927Y-5666488D01*
X9682500Y-5632700D01*
X9682500Y-5632661D01*
X9730547Y-5576723D01*
X9865982Y-5495561D01*
X10026458Y-5418822D01*
X10039739Y-5433171D01*
X10211950Y-5433171D01*
X10254888Y-5295884D01*
X10207216Y-5192528D01*
X10062880Y-5131452D01*
X10053725Y-5129558D01*
X9884688Y-5128198D01*
X9727181Y-5179121D01*
X9613873Y-5266481D01*
X9576667Y-5360942D01*
X9600666Y-5446163D01*
X9633363Y-5465417D01*
X9648123Y-5494843D01*
X9611630Y-5543847D01*
X9536529Y-5638100D01*
X9512020Y-5685816D01*
X9451399Y-5719320D01*
X9326489Y-5704914D01*
X9162293Y-5651501D01*
X8983811Y-5567987D01*
X8816046Y-5463273D01*
X8756891Y-5416896D01*
X8612355Y-5298996D01*
X8593794Y-5284997D01*
X8492764Y-5284997D01*
X8488448Y-5312212D01*
X8412380Y-5358061D01*
X8343383Y-5325744D01*
X8327309Y-5264360D01*
X8381222Y-5228175D01*
X8440349Y-5235148D01*
X8492764Y-5284997D01*
X8593794Y-5284997D01*
X8486243Y-5203884D01*
X8434187Y-5169262D01*
X8369166Y-5113277D01*
X8372652Y-5035272D01*
X8399174Y-4970825D01*
X8434518Y-4862607D01*
X8402379Y-4835400D01*
X8308442Y-4881117D01*
X8201687Y-4895982D01*
X8161642Y-4872766D01*
X8081738Y-4841149D01*
X8030902Y-4907173D01*
X8010493Y-5015607D01*
X8038137Y-5149117D01*
X8102609Y-5204905D01*
X8233158Y-5288394D01*
X8297443Y-5338586D01*
X8524708Y-5532763D01*
X8740803Y-5712196D01*
X8930405Y-5864676D01*
X9078189Y-5977993D01*
X9168830Y-6039935D01*
X9187573Y-6047835D01*
X9241997Y-6089474D01*
X9313448Y-6190282D01*
X9319285Y-6200370D01*
X9365875Y-6295109D01*
X9377182Y-6380619D01*
X9351755Y-6495048D01*
X9302703Y-6636598D01*
X9223838Y-6860934D01*
X9181786Y-7012032D01*
X9174829Y-7115225D01*
X9201250Y-7195848D01*
X9259142Y-7278992D01*
X9369666Y-7382277D01*
X9510041Y-7420838D01*
X9580508Y-7423334D01*
X9788333Y-7423334D01*
X9789144Y-7859896D01*
X9794992Y-8071989D01*
X9809804Y-8247824D01*
X9830711Y-8356816D01*
X9837119Y-8370960D01*
X9858934Y-8489979D01*
X9800686Y-8608218D01*
X9683512Y-8693923D01*
X9608261Y-8714819D01*
X9207434Y-8776713D01*
X8883971Y-8839129D01*
X8609551Y-8908196D01*
X8386042Y-8979379D01*
X8208594Y-9047502D01*
X8127104Y-9091539D01*
X8134112Y-9109870D01*
X8222153Y-9100874D01*
X8383765Y-9062929D01*
X8548337Y-9014632D01*
X8765827Y-8959533D01*
X9032843Y-8910224D01*
X9293176Y-8877016D01*
X9303732Y-8876074D01*
X9738081Y-8838185D01*
X9684412Y-8979346D01*
X9657239Y-9085561D01*
X9696115Y-9141095D01*
X9749226Y-9164550D01*
X9866567Y-9190268D01*
X9929074Y-9185262D01*
X9995178Y-9199270D01*
X10027892Y-9278623D01*
X10022304Y-9386736D01*
X9973500Y-9487024D01*
X9970110Y-9490876D01*
X9910262Y-9565296D01*
X9932785Y-9589725D01*
X10005028Y-9591234D01*
X10150117Y-9557627D01*
X10236805Y-9510546D01*
X10307850Y-9427605D01*
X10289722Y-9340250D01*
X10259461Y-9228018D01*
X10253055Y-9072890D01*
X10254549Y-9050521D01*
X10274834Y-8919178D01*
X10279364Y-8913780D01*
X9929816Y-8913780D01*
X9916461Y-9023953D01*
X9878643Y-9092800D01*
X9845344Y-9077411D01*
X9824302Y-8999333D01*
X9823254Y-8880115D01*
X9835373Y-8798125D01*
X9874030Y-8613959D01*
X9912694Y-8763979D01*
X9929816Y-8913780D01*
X10279364Y-8913780D01*
X10321821Y-8863194D01*
X10408964Y-8852084D01*
X10585249Y-8864991D01*
X10823243Y-8898894D01*
X11082654Y-8946565D01*
X11323191Y-9000777D01*
X11470287Y-9042462D01*
X11664498Y-9099234D01*
X11771499Y-9114561D01*
X11787125Y-9088079D01*
X11770063Y-9068700D01*
X11676983Y-9017635D01*
X11507529Y-8956487D01*
X11289664Y-8892890D01*
X11051354Y-8834475D01*
X10820564Y-8788875D01*
X10665686Y-8767308D01*
X10480596Y-8743736D01*
X10335250Y-8716841D01*
X10268022Y-8695458D01*
X10257108Y-8673355D01*
X10105833Y-8673355D01*
X10080093Y-8689194D01*
X10009747Y-8621217D01*
X9993250Y-8600729D01*
X9947485Y-8538050D01*
X9974888Y-8551190D01*
X10013229Y-8580750D01*
X10086517Y-8646028D01*
X10105833Y-8673355D01*
X10257108Y-8673355D01*
X10252318Y-8663657D01*
X10260622Y-8593858D01*
X10296818Y-8475498D01*
X10364790Y-8298015D01*
X10468423Y-8050846D01*
X10611601Y-7723428D01*
X10692063Y-7542396D01*
X10741163Y-7409015D01*
X10750056Y-7329032D01*
X10737446Y-7317500D01*
X10685396Y-7362114D01*
X10622838Y-7473383D01*
X10604916Y-7515938D01*
X10532956Y-7692663D01*
X10460947Y-7859022D01*
X10454527Y-7873125D01*
X10381266Y-8042401D01*
X10316271Y-8204990D01*
X10246237Y-8358359D01*
X10194544Y-8410320D01*
X10167026Y-8361540D01*
X10169490Y-8214144D01*
X10105833Y-8214144D01*
X10083335Y-8363003D01*
X10026214Y-8427689D01*
X9950029Y-8400269D01*
X9893792Y-8322216D01*
X9867445Y-8193597D01*
X9928399Y-8103324D01*
X10013229Y-8077442D01*
X10084335Y-8103881D01*
X10105826Y-8211057D01*
X10105833Y-8214144D01*
X10169490Y-8214144D01*
X10169515Y-8212685D01*
X10172066Y-8188501D01*
X10175881Y-7969575D01*
X10126166Y-7818486D01*
X10121752Y-7811549D01*
X10071225Y-7714743D01*
X10088439Y-7648437D01*
X10120819Y-7612455D01*
X10196675Y-7562991D01*
X10231826Y-7566964D01*
X10253058Y-7543213D01*
X10264128Y-7443011D01*
X10264583Y-7412309D01*
X10277843Y-7162613D01*
X10305439Y-7061037D01*
X9935958Y-7061037D01*
X9916326Y-7124414D01*
X9866788Y-7183945D01*
X9836232Y-7182107D01*
X9826473Y-7126476D01*
X9855006Y-7081915D01*
X9922650Y-7026280D01*
X9935958Y-7061037D01*
X10305439Y-7061037D01*
X10323855Y-6993255D01*
X10411971Y-6881359D01*
X10504921Y-6824394D01*
X10682052Y-6739926D01*
X10698214Y-6962567D01*
X10714724Y-7102416D01*
X10749800Y-7163504D01*
X10822757Y-7172900D01*
X10846667Y-7170624D01*
X10988433Y-7158207D01*
X11070521Y-7154028D01*
X11156754Y-7134999D01*
X11185831Y-7074396D01*
X11156139Y-6959410D01*
X11066069Y-6777234D01*
X11010814Y-6679278D01*
X10899098Y-6473115D01*
X10802604Y-6273048D01*
X10740259Y-6118639D01*
X10735823Y-6104560D01*
X10674850Y-5901052D01*
X11091488Y-5499798D01*
X11264422Y-5332842D01*
X11409774Y-5191755D01*
X11510135Y-5093483D01*
X11546325Y-5057084D01*
X11610926Y-4985721D01*
X11521609Y-4985721D01*
X11514371Y-4989167D01*
X11466080Y-4951915D01*
X11455208Y-4936250D01*
X11441724Y-4886779D01*
X11448963Y-4883334D01*
X11497253Y-4920586D01*
X11508125Y-4936250D01*
X11521609Y-4985721D01*
X11610926Y-4985721D01*
X11745931Y-4836586D01*
X11657784Y-4836586D01*
X11603474Y-4883662D01*
X11532027Y-4861757D01*
X11511831Y-4836413D01*
X11521461Y-4768245D01*
X11555445Y-4729229D01*
X11623161Y-4699047D01*
X11657049Y-4744518D01*
X11657784Y-4836586D01*
X11745931Y-4836586D01*
X11750800Y-4831208D01*
X11888716Y-4668703D01*
X11968845Y-4558603D01*
X11999924Y-4490134D01*
X11976440Y-4424161D01*
X11904207Y-4409445D01*
X11830670Y-4453118D01*
G37*
X11830670Y-4453118D02*
X11823396Y-4463608D01*
X11751111Y-4498425D01*
X11714439Y-4491727D01*
X11649510Y-4490712D01*
X11640417Y-4509172D01*
X11604809Y-4570499D01*
X11510248Y-4684954D01*
X11375125Y-4833427D01*
X11217830Y-4996807D01*
X11056756Y-5155983D01*
X10910293Y-5291846D01*
X10798289Y-5384227D01*
X10635344Y-5473779D01*
X10506729Y-5488156D01*
X10373131Y-5505453D01*
X10277295Y-5570765D01*
X10179281Y-5684889D01*
X10170274Y-5757826D01*
X10248709Y-5782917D01*
X10307083Y-5797245D01*
X10275167Y-5846417D01*
X10222147Y-5932285D01*
X10227620Y-6040955D01*
X10296587Y-6190814D01*
X10420658Y-6381216D01*
X10519413Y-6531979D01*
X10581294Y-6646039D01*
X10593605Y-6699825D01*
X10592637Y-6700540D01*
X10465307Y-6753613D01*
X10307720Y-6796062D01*
X10165569Y-6817627D01*
X10093042Y-6812714D01*
X10049543Y-6783158D01*
X10037122Y-6722341D01*
X10054982Y-6603766D01*
X10083081Y-6480546D01*
X10123360Y-6277489D01*
X10148320Y-6084552D01*
X10152549Y-5994584D01*
X10150117Y-5809375D01*
X10069444Y-5994584D01*
X10013171Y-6155017D01*
X9958015Y-6361483D01*
X9932571Y-6481686D01*
X9895563Y-6637843D01*
X9856706Y-6735919D01*
X9830200Y-6755045D01*
X9805534Y-6688148D01*
X9814792Y-6629584D01*
X9814058Y-6527813D01*
X9741997Y-6490997D01*
X9626145Y-6525590D01*
X9534281Y-6566332D01*
X9505312Y-6552275D01*
X9541198Y-6475928D01*
X9643900Y-6329800D01*
X9695181Y-6261849D01*
X9805597Y-6108660D01*
X9847263Y-6027288D01*
X9823050Y-6011635D01*
X9811071Y-6015652D01*
X9681193Y-6057048D01*
X9616653Y-6041528D01*
X9611728Y-6027300D01*
X9514564Y-6027300D01*
X9485110Y-6126462D01*
X9433780Y-6197808D01*
X9410785Y-6206250D01*
X9382528Y-6164073D01*
X9394466Y-6087188D01*
X9438269Y-5969320D01*
X9476152Y-5938586D01*
X9502123Y-5955318D01*
X9514564Y-6027300D01*
X9611728Y-6027300D01*
X9588537Y-5960312D01*
X9586496Y-5947448D01*
X9587881Y-5857110D01*
X9639764Y-5848845D01*
X9646019Y-5851123D01*
X9737680Y-5838715D01*
X9870239Y-5768576D01*
X10014184Y-5661990D01*
X10140003Y-5540240D01*
X10207993Y-5445823D01*
X10211950Y-5433171D01*
X10039739Y-5433171D01*
X10001837Y-5489189D01*
X9889673Y-5586506D01*
X9816629Y-5626732D01*
X9719162Y-5665005D01*
X9685927Y-5666488D01*
X9682500Y-5632700D01*
X9682500Y-5632661D01*
X9730547Y-5576723D01*
X9865982Y-5495561D01*
X10026458Y-5418822D01*
X10039739Y-5433171D01*
X10211950Y-5433171D01*
X10254888Y-5295884D01*
X10207216Y-5192528D01*
X10062880Y-5131452D01*
X10053725Y-5129558D01*
X9884688Y-5128198D01*
X9727181Y-5179121D01*
X9613873Y-5266481D01*
X9576667Y-5360942D01*
X9600666Y-5446163D01*
X9633363Y-5465417D01*
X9648123Y-5494843D01*
X9611630Y-5543847D01*
X9536529Y-5638100D01*
X9512020Y-5685816D01*
X9451399Y-5719320D01*
X9326489Y-5704914D01*
X9162293Y-5651501D01*
X8983811Y-5567987D01*
X8816046Y-5463273D01*
X8756891Y-5416896D01*
X8612355Y-5298996D01*
X8593794Y-5284997D01*
X8492764Y-5284997D01*
X8488448Y-5312212D01*
X8412380Y-5358061D01*
X8343383Y-5325744D01*
X8327309Y-5264360D01*
X8381222Y-5228175D01*
X8440349Y-5235148D01*
X8492764Y-5284997D01*
X8593794Y-5284997D01*
X8486243Y-5203884D01*
X8434187Y-5169262D01*
X8369166Y-5113277D01*
X8372652Y-5035272D01*
X8399174Y-4970825D01*
X8434518Y-4862607D01*
X8402379Y-4835400D01*
X8308442Y-4881117D01*
X8201687Y-4895982D01*
X8161642Y-4872766D01*
X8081738Y-4841149D01*
X8030902Y-4907173D01*
X8010493Y-5015607D01*
X8038137Y-5149117D01*
X8102609Y-5204905D01*
X8233158Y-5288394D01*
X8297443Y-5338586D01*
X8524708Y-5532763D01*
X8740803Y-5712196D01*
X8930405Y-5864676D01*
X9078189Y-5977993D01*
X9168830Y-6039935D01*
X9187573Y-6047835D01*
X9241997Y-6089474D01*
X9313448Y-6190282D01*
X9319285Y-6200370D01*
X9365875Y-6295109D01*
X9377182Y-6380619D01*
X9351755Y-6495048D01*
X9302703Y-6636598D01*
X9223838Y-6860934D01*
X9181786Y-7012032D01*
X9174829Y-7115225D01*
X9201250Y-7195848D01*
X9259142Y-7278992D01*
X9369666Y-7382277D01*
X9510041Y-7420838D01*
X9580508Y-7423334D01*
X9788333Y-7423334D01*
X9789144Y-7859896D01*
X9794992Y-8071989D01*
X9809804Y-8247824D01*
X9830711Y-8356816D01*
X9837119Y-8370960D01*
X9858934Y-8489979D01*
X9800686Y-8608218D01*
X9683512Y-8693923D01*
X9608261Y-8714819D01*
X9207434Y-8776713D01*
X8883971Y-8839129D01*
X8609551Y-8908196D01*
X8386042Y-8979379D01*
X8208594Y-9047502D01*
X8127104Y-9091539D01*
X8134112Y-9109870D01*
X8222153Y-9100874D01*
X8383765Y-9062929D01*
X8548337Y-9014632D01*
X8765827Y-8959533D01*
X9032843Y-8910224D01*
X9293176Y-8877016D01*
X9303732Y-8876074D01*
X9738081Y-8838185D01*
X9684412Y-8979346D01*
X9657239Y-9085561D01*
X9696115Y-9141095D01*
X9749226Y-9164550D01*
X9866567Y-9190268D01*
X9929074Y-9185262D01*
X9995178Y-9199270D01*
X10027892Y-9278623D01*
X10022304Y-9386736D01*
X9973500Y-9487024D01*
X9970110Y-9490876D01*
X9910262Y-9565296D01*
X9932785Y-9589725D01*
X10005028Y-9591234D01*
X10150117Y-9557627D01*
X10236805Y-9510546D01*
X10307850Y-9427605D01*
X10289722Y-9340250D01*
X10259461Y-9228018D01*
X10253055Y-9072890D01*
X10254549Y-9050521D01*
X10274834Y-8919178D01*
X10279364Y-8913780D01*
X9929816Y-8913780D01*
X9916461Y-9023953D01*
X9878643Y-9092800D01*
X9845344Y-9077411D01*
X9824302Y-8999333D01*
X9823254Y-8880115D01*
X9835373Y-8798125D01*
X9874030Y-8613959D01*
X9912694Y-8763979D01*
X9929816Y-8913780D01*
X10279364Y-8913780D01*
X10321821Y-8863194D01*
X10408964Y-8852084D01*
X10585249Y-8864991D01*
X10823243Y-8898894D01*
X11082654Y-8946565D01*
X11323191Y-9000777D01*
X11470287Y-9042462D01*
X11664498Y-9099234D01*
X11771499Y-9114561D01*
X11787125Y-9088079D01*
X11770063Y-9068700D01*
X11676983Y-9017635D01*
X11507529Y-8956487D01*
X11289664Y-8892890D01*
X11051354Y-8834475D01*
X10820564Y-8788875D01*
X10665686Y-8767308D01*
X10480596Y-8743736D01*
X10335250Y-8716841D01*
X10268022Y-8695458D01*
X10257108Y-8673355D01*
X10105833Y-8673355D01*
X10080093Y-8689194D01*
X10009747Y-8621217D01*
X9993250Y-8600729D01*
X9947485Y-8538050D01*
X9974888Y-8551190D01*
X10013229Y-8580750D01*
X10086517Y-8646028D01*
X10105833Y-8673355D01*
X10257108Y-8673355D01*
X10252318Y-8663657D01*
X10260622Y-8593858D01*
X10296818Y-8475498D01*
X10364790Y-8298015D01*
X10468423Y-8050846D01*
X10611601Y-7723428D01*
X10692063Y-7542396D01*
X10741163Y-7409015D01*
X10750056Y-7329032D01*
X10737446Y-7317500D01*
X10685396Y-7362114D01*
X10622838Y-7473383D01*
X10604916Y-7515938D01*
X10532956Y-7692663D01*
X10460947Y-7859022D01*
X10454527Y-7873125D01*
X10381266Y-8042401D01*
X10316271Y-8204990D01*
X10246237Y-8358359D01*
X10194544Y-8410320D01*
X10167026Y-8361540D01*
X10169490Y-8214144D01*
X10105833Y-8214144D01*
X10083335Y-8363003D01*
X10026214Y-8427689D01*
X9950029Y-8400269D01*
X9893792Y-8322216D01*
X9867445Y-8193597D01*
X9928399Y-8103324D01*
X10013229Y-8077442D01*
X10084335Y-8103881D01*
X10105826Y-8211057D01*
X10105833Y-8214144D01*
X10169490Y-8214144D01*
X10169515Y-8212685D01*
X10172066Y-8188501D01*
X10175881Y-7969575D01*
X10126166Y-7818486D01*
X10121752Y-7811549D01*
X10071225Y-7714743D01*
X10088439Y-7648437D01*
X10120819Y-7612455D01*
X10196675Y-7562991D01*
X10231826Y-7566964D01*
X10253058Y-7543213D01*
X10264128Y-7443011D01*
X10264583Y-7412309D01*
X10277843Y-7162613D01*
X10305439Y-7061037D01*
X9935958Y-7061037D01*
X9916326Y-7124414D01*
X9866788Y-7183945D01*
X9836232Y-7182107D01*
X9826473Y-7126476D01*
X9855006Y-7081915D01*
X9922650Y-7026280D01*
X9935958Y-7061037D01*
X10305439Y-7061037D01*
X10323855Y-6993255D01*
X10411971Y-6881359D01*
X10504921Y-6824394D01*
X10682052Y-6739926D01*
X10698214Y-6962567D01*
X10714724Y-7102416D01*
X10749800Y-7163504D01*
X10822757Y-7172900D01*
X10846667Y-7170624D01*
X10988433Y-7158207D01*
X11070521Y-7154028D01*
X11156754Y-7134999D01*
X11185831Y-7074396D01*
X11156139Y-6959410D01*
X11066069Y-6777234D01*
X11010814Y-6679278D01*
X10899098Y-6473115D01*
X10802604Y-6273048D01*
X10740259Y-6118639D01*
X10735823Y-6104560D01*
X10674850Y-5901052D01*
X11091488Y-5499798D01*
X11264422Y-5332842D01*
X11409774Y-5191755D01*
X11510135Y-5093483D01*
X11546325Y-5057084D01*
X11610926Y-4985721D01*
X11521609Y-4985721D01*
X11514371Y-4989167D01*
X11466080Y-4951915D01*
X11455208Y-4936250D01*
X11441724Y-4886779D01*
X11448963Y-4883334D01*
X11497253Y-4920586D01*
X11508125Y-4936250D01*
X11521609Y-4985721D01*
X11610926Y-4985721D01*
X11745931Y-4836586D01*
X11657784Y-4836586D01*
X11603474Y-4883662D01*
X11532027Y-4861757D01*
X11511831Y-4836413D01*
X11521461Y-4768245D01*
X11555445Y-4729229D01*
X11623161Y-4699047D01*
X11657049Y-4744518D01*
X11657784Y-4836586D01*
X11745931Y-4836586D01*
X11750800Y-4831208D01*
X11888716Y-4668703D01*
X11968845Y-4558603D01*
X11999924Y-4490134D01*
X11976440Y-4424161D01*
X11904207Y-4409445D01*
X11830670Y-4453118D01*
G36*
X9641772Y-9220801D02*
G01*
X9597634Y-9265417D01*
X9555597Y-9354216D01*
X9558024Y-9393896D01*
X9539157Y-9428988D01*
X9503538Y-9434167D01*
X9412111Y-9465216D01*
X9391458Y-9487084D01*
X9413471Y-9523390D01*
X9520306Y-9539716D01*
X9541349Y-9540000D01*
X9671604Y-9526102D01*
X9735890Y-9468059D01*
X9759207Y-9399499D01*
X9763023Y-9276010D01*
X9716308Y-9210161D01*
X9641772Y-9220801D01*
G37*
X9641772Y-9220801D02*
X9597634Y-9265417D01*
X9555597Y-9354216D01*
X9558024Y-9393896D01*
X9539157Y-9428988D01*
X9503538Y-9434167D01*
X9412111Y-9465216D01*
X9391458Y-9487084D01*
X9413471Y-9523390D01*
X9520306Y-9539716D01*
X9541349Y-9540000D01*
X9671604Y-9526102D01*
X9735890Y-9468059D01*
X9759207Y-9399499D01*
X9763023Y-9276010D01*
X9716308Y-9210161D01*
X9641772Y-9220801D01*
G36*
X8359583Y-5280209D02*
G01*
X8386042Y-5306667D01*
X8412500Y-5280209D01*
X8386042Y-5253750D01*
X8359583Y-5280209D01*
G37*
X8359583Y-5280209D02*
X8386042Y-5306667D01*
X8412500Y-5280209D01*
X8386042Y-5253750D01*
X8359583Y-5280209D01*
%TO.C,Logo101*%
G36*
X36830670Y-4453118D02*
G01*
X36823396Y-4463608D01*
X36751111Y-4498425D01*
X36714439Y-4491727D01*
X36649510Y-4490712D01*
X36640417Y-4509172D01*
X36604809Y-4570499D01*
X36510248Y-4684954D01*
X36375125Y-4833427D01*
X36217830Y-4996807D01*
X36056756Y-5155983D01*
X35910293Y-5291846D01*
X35798289Y-5384227D01*
X35635344Y-5473779D01*
X35506729Y-5488156D01*
X35373131Y-5505453D01*
X35277295Y-5570765D01*
X35179281Y-5684889D01*
X35170274Y-5757826D01*
X35248709Y-5782917D01*
X35307083Y-5797245D01*
X35275167Y-5846417D01*
X35222147Y-5932285D01*
X35227620Y-6040955D01*
X35296587Y-6190814D01*
X35420658Y-6381216D01*
X35519413Y-6531979D01*
X35581294Y-6646039D01*
X35593605Y-6699825D01*
X35592637Y-6700540D01*
X35465307Y-6753613D01*
X35307720Y-6796062D01*
X35165569Y-6817627D01*
X35093042Y-6812714D01*
X35049543Y-6783158D01*
X35037122Y-6722341D01*
X35054982Y-6603766D01*
X35083081Y-6480546D01*
X35123360Y-6277489D01*
X35148320Y-6084552D01*
X35152549Y-5994584D01*
X35150117Y-5809375D01*
X35069444Y-5994584D01*
X35013171Y-6155017D01*
X34958015Y-6361483D01*
X34932571Y-6481686D01*
X34895563Y-6637843D01*
X34856706Y-6735919D01*
X34830200Y-6755045D01*
X34805534Y-6688148D01*
X34814792Y-6629584D01*
X34814058Y-6527813D01*
X34741997Y-6490997D01*
X34626145Y-6525590D01*
X34534281Y-6566332D01*
X34505312Y-6552275D01*
X34541198Y-6475928D01*
X34643900Y-6329800D01*
X34695181Y-6261849D01*
X34805597Y-6108660D01*
X34847263Y-6027288D01*
X34823050Y-6011635D01*
X34811071Y-6015652D01*
X34681193Y-6057048D01*
X34616653Y-6041528D01*
X34611728Y-6027300D01*
X34514564Y-6027300D01*
X34485110Y-6126462D01*
X34433780Y-6197808D01*
X34410785Y-6206250D01*
X34382528Y-6164073D01*
X34394466Y-6087188D01*
X34438269Y-5969320D01*
X34476152Y-5938586D01*
X34502123Y-5955318D01*
X34514564Y-6027300D01*
X34611728Y-6027300D01*
X34588537Y-5960312D01*
X34586496Y-5947448D01*
X34587881Y-5857110D01*
X34639764Y-5848845D01*
X34646019Y-5851123D01*
X34737680Y-5838715D01*
X34870239Y-5768576D01*
X35014184Y-5661990D01*
X35140003Y-5540240D01*
X35207993Y-5445823D01*
X35211950Y-5433171D01*
X35039739Y-5433171D01*
X35001837Y-5489189D01*
X34889673Y-5586506D01*
X34816629Y-5626732D01*
X34719162Y-5665005D01*
X34685927Y-5666488D01*
X34682500Y-5632700D01*
X34682500Y-5632661D01*
X34730547Y-5576723D01*
X34865982Y-5495561D01*
X35026458Y-5418822D01*
X35039739Y-5433171D01*
X35211950Y-5433171D01*
X35254888Y-5295884D01*
X35207216Y-5192528D01*
X35062880Y-5131452D01*
X35053725Y-5129558D01*
X34884688Y-5128198D01*
X34727181Y-5179121D01*
X34613873Y-5266481D01*
X34576667Y-5360942D01*
X34600666Y-5446163D01*
X34633363Y-5465417D01*
X34648123Y-5494843D01*
X34611630Y-5543847D01*
X34536529Y-5638100D01*
X34512020Y-5685816D01*
X34451399Y-5719320D01*
X34326489Y-5704914D01*
X34162293Y-5651501D01*
X33983811Y-5567987D01*
X33816046Y-5463273D01*
X33756891Y-5416896D01*
X33612355Y-5298996D01*
X33593794Y-5284997D01*
X33492764Y-5284997D01*
X33488448Y-5312212D01*
X33412380Y-5358061D01*
X33343383Y-5325744D01*
X33327309Y-5264360D01*
X33381222Y-5228175D01*
X33440349Y-5235148D01*
X33492764Y-5284997D01*
X33593794Y-5284997D01*
X33486243Y-5203884D01*
X33434187Y-5169262D01*
X33369166Y-5113277D01*
X33372652Y-5035272D01*
X33399174Y-4970825D01*
X33434518Y-4862607D01*
X33402379Y-4835400D01*
X33308442Y-4881117D01*
X33201687Y-4895982D01*
X33161642Y-4872766D01*
X33081738Y-4841149D01*
X33030902Y-4907173D01*
X33010493Y-5015607D01*
X33038137Y-5149117D01*
X33102609Y-5204905D01*
X33233158Y-5288394D01*
X33297443Y-5338586D01*
X33524708Y-5532763D01*
X33740803Y-5712196D01*
X33930405Y-5864676D01*
X34078189Y-5977993D01*
X34168830Y-6039935D01*
X34187573Y-6047835D01*
X34241997Y-6089474D01*
X34313448Y-6190282D01*
X34319285Y-6200370D01*
X34365875Y-6295109D01*
X34377182Y-6380619D01*
X34351755Y-6495048D01*
X34302703Y-6636598D01*
X34223838Y-6860934D01*
X34181786Y-7012032D01*
X34174829Y-7115225D01*
X34201250Y-7195848D01*
X34259142Y-7278992D01*
X34369666Y-7382277D01*
X34510041Y-7420838D01*
X34580508Y-7423334D01*
X34788333Y-7423334D01*
X34789144Y-7859896D01*
X34794992Y-8071989D01*
X34809804Y-8247824D01*
X34830711Y-8356816D01*
X34837119Y-8370960D01*
X34858934Y-8489979D01*
X34800686Y-8608218D01*
X34683512Y-8693923D01*
X34608261Y-8714819D01*
X34207434Y-8776713D01*
X33883971Y-8839129D01*
X33609551Y-8908196D01*
X33386042Y-8979379D01*
X33208594Y-9047502D01*
X33127104Y-9091539D01*
X33134112Y-9109870D01*
X33222153Y-9100874D01*
X33383765Y-9062929D01*
X33548337Y-9014632D01*
X33765827Y-8959533D01*
X34032843Y-8910224D01*
X34293176Y-8877016D01*
X34303732Y-8876074D01*
X34738081Y-8838185D01*
X34684412Y-8979346D01*
X34657239Y-9085561D01*
X34696115Y-9141095D01*
X34749226Y-9164550D01*
X34866567Y-9190268D01*
X34929074Y-9185262D01*
X34995178Y-9199270D01*
X35027892Y-9278623D01*
X35022304Y-9386736D01*
X34973500Y-9487024D01*
X34970110Y-9490876D01*
X34910262Y-9565296D01*
X34932785Y-9589725D01*
X35005028Y-9591234D01*
X35150117Y-9557627D01*
X35236805Y-9510546D01*
X35307850Y-9427605D01*
X35289722Y-9340250D01*
X35259461Y-9228018D01*
X35253055Y-9072890D01*
X35254549Y-9050521D01*
X35274834Y-8919178D01*
X35279364Y-8913780D01*
X34929816Y-8913780D01*
X34916461Y-9023953D01*
X34878643Y-9092800D01*
X34845344Y-9077411D01*
X34824302Y-8999333D01*
X34823254Y-8880115D01*
X34835373Y-8798125D01*
X34874030Y-8613959D01*
X34912694Y-8763979D01*
X34929816Y-8913780D01*
X35279364Y-8913780D01*
X35321821Y-8863194D01*
X35408964Y-8852084D01*
X35585249Y-8864991D01*
X35823243Y-8898894D01*
X36082654Y-8946565D01*
X36323191Y-9000777D01*
X36470287Y-9042462D01*
X36664498Y-9099234D01*
X36771499Y-9114561D01*
X36787125Y-9088079D01*
X36770063Y-9068700D01*
X36676983Y-9017635D01*
X36507529Y-8956487D01*
X36289664Y-8892890D01*
X36051354Y-8834475D01*
X35820564Y-8788875D01*
X35665686Y-8767308D01*
X35480596Y-8743736D01*
X35335250Y-8716841D01*
X35268022Y-8695458D01*
X35257108Y-8673355D01*
X35105833Y-8673355D01*
X35080093Y-8689194D01*
X35009747Y-8621217D01*
X34993250Y-8600729D01*
X34947485Y-8538050D01*
X34974888Y-8551190D01*
X35013229Y-8580750D01*
X35086517Y-8646028D01*
X35105833Y-8673355D01*
X35257108Y-8673355D01*
X35252318Y-8663657D01*
X35260622Y-8593858D01*
X35296818Y-8475498D01*
X35364790Y-8298015D01*
X35468423Y-8050846D01*
X35611601Y-7723428D01*
X35692063Y-7542396D01*
X35741163Y-7409015D01*
X35750056Y-7329032D01*
X35737446Y-7317500D01*
X35685396Y-7362114D01*
X35622838Y-7473383D01*
X35604916Y-7515938D01*
X35532956Y-7692663D01*
X35460947Y-7859022D01*
X35454527Y-7873125D01*
X35381266Y-8042401D01*
X35316271Y-8204990D01*
X35246237Y-8358359D01*
X35194544Y-8410320D01*
X35167026Y-8361540D01*
X35169490Y-8214144D01*
X35105833Y-8214144D01*
X35083335Y-8363003D01*
X35026214Y-8427689D01*
X34950029Y-8400269D01*
X34893792Y-8322216D01*
X34867445Y-8193597D01*
X34928399Y-8103324D01*
X35013229Y-8077442D01*
X35084335Y-8103881D01*
X35105826Y-8211057D01*
X35105833Y-8214144D01*
X35169490Y-8214144D01*
X35169515Y-8212685D01*
X35172066Y-8188501D01*
X35175881Y-7969575D01*
X35126166Y-7818486D01*
X35121752Y-7811549D01*
X35071225Y-7714743D01*
X35088439Y-7648437D01*
X35120819Y-7612455D01*
X35196675Y-7562991D01*
X35231826Y-7566964D01*
X35253058Y-7543213D01*
X35264128Y-7443011D01*
X35264583Y-7412309D01*
X35277843Y-7162613D01*
X35305439Y-7061037D01*
X34935958Y-7061037D01*
X34916326Y-7124414D01*
X34866788Y-7183945D01*
X34836232Y-7182107D01*
X34826473Y-7126476D01*
X34855006Y-7081915D01*
X34922650Y-7026280D01*
X34935958Y-7061037D01*
X35305439Y-7061037D01*
X35323855Y-6993255D01*
X35411971Y-6881359D01*
X35504921Y-6824394D01*
X35682052Y-6739926D01*
X35698214Y-6962567D01*
X35714724Y-7102416D01*
X35749800Y-7163504D01*
X35822757Y-7172900D01*
X35846667Y-7170624D01*
X35988433Y-7158207D01*
X36070521Y-7154028D01*
X36156754Y-7134999D01*
X36185831Y-7074396D01*
X36156139Y-6959410D01*
X36066069Y-6777234D01*
X36010814Y-6679278D01*
X35899098Y-6473115D01*
X35802604Y-6273048D01*
X35740259Y-6118639D01*
X35735823Y-6104560D01*
X35674850Y-5901052D01*
X36091488Y-5499798D01*
X36264422Y-5332842D01*
X36409774Y-5191755D01*
X36510135Y-5093483D01*
X36546325Y-5057084D01*
X36610926Y-4985721D01*
X36521609Y-4985721D01*
X36514371Y-4989167D01*
X36466080Y-4951915D01*
X36455208Y-4936250D01*
X36441724Y-4886779D01*
X36448963Y-4883334D01*
X36497253Y-4920586D01*
X36508125Y-4936250D01*
X36521609Y-4985721D01*
X36610926Y-4985721D01*
X36745931Y-4836586D01*
X36657784Y-4836586D01*
X36603474Y-4883662D01*
X36532027Y-4861757D01*
X36511831Y-4836413D01*
X36521461Y-4768245D01*
X36555445Y-4729229D01*
X36623161Y-4699047D01*
X36657049Y-4744518D01*
X36657784Y-4836586D01*
X36745931Y-4836586D01*
X36750800Y-4831208D01*
X36888716Y-4668703D01*
X36968845Y-4558603D01*
X36999924Y-4490134D01*
X36976440Y-4424161D01*
X36904207Y-4409445D01*
X36830670Y-4453118D01*
G37*
X36830670Y-4453118D02*
X36823396Y-4463608D01*
X36751111Y-4498425D01*
X36714439Y-4491727D01*
X36649510Y-4490712D01*
X36640417Y-4509172D01*
X36604809Y-4570499D01*
X36510248Y-4684954D01*
X36375125Y-4833427D01*
X36217830Y-4996807D01*
X36056756Y-5155983D01*
X35910293Y-5291846D01*
X35798289Y-5384227D01*
X35635344Y-5473779D01*
X35506729Y-5488156D01*
X35373131Y-5505453D01*
X35277295Y-5570765D01*
X35179281Y-5684889D01*
X35170274Y-5757826D01*
X35248709Y-5782917D01*
X35307083Y-5797245D01*
X35275167Y-5846417D01*
X35222147Y-5932285D01*
X35227620Y-6040955D01*
X35296587Y-6190814D01*
X35420658Y-6381216D01*
X35519413Y-6531979D01*
X35581294Y-6646039D01*
X35593605Y-6699825D01*
X35592637Y-6700540D01*
X35465307Y-6753613D01*
X35307720Y-6796062D01*
X35165569Y-6817627D01*
X35093042Y-6812714D01*
X35049543Y-6783158D01*
X35037122Y-6722341D01*
X35054982Y-6603766D01*
X35083081Y-6480546D01*
X35123360Y-6277489D01*
X35148320Y-6084552D01*
X35152549Y-5994584D01*
X35150117Y-5809375D01*
X35069444Y-5994584D01*
X35013171Y-6155017D01*
X34958015Y-6361483D01*
X34932571Y-6481686D01*
X34895563Y-6637843D01*
X34856706Y-6735919D01*
X34830200Y-6755045D01*
X34805534Y-6688148D01*
X34814792Y-6629584D01*
X34814058Y-6527813D01*
X34741997Y-6490997D01*
X34626145Y-6525590D01*
X34534281Y-6566332D01*
X34505312Y-6552275D01*
X34541198Y-6475928D01*
X34643900Y-6329800D01*
X34695181Y-6261849D01*
X34805597Y-6108660D01*
X34847263Y-6027288D01*
X34823050Y-6011635D01*
X34811071Y-6015652D01*
X34681193Y-6057048D01*
X34616653Y-6041528D01*
X34611728Y-6027300D01*
X34514564Y-6027300D01*
X34485110Y-6126462D01*
X34433780Y-6197808D01*
X34410785Y-6206250D01*
X34382528Y-6164073D01*
X34394466Y-6087188D01*
X34438269Y-5969320D01*
X34476152Y-5938586D01*
X34502123Y-5955318D01*
X34514564Y-6027300D01*
X34611728Y-6027300D01*
X34588537Y-5960312D01*
X34586496Y-5947448D01*
X34587881Y-5857110D01*
X34639764Y-5848845D01*
X34646019Y-5851123D01*
X34737680Y-5838715D01*
X34870239Y-5768576D01*
X35014184Y-5661990D01*
X35140003Y-5540240D01*
X35207993Y-5445823D01*
X35211950Y-5433171D01*
X35039739Y-5433171D01*
X35001837Y-5489189D01*
X34889673Y-5586506D01*
X34816629Y-5626732D01*
X34719162Y-5665005D01*
X34685927Y-5666488D01*
X34682500Y-5632700D01*
X34682500Y-5632661D01*
X34730547Y-5576723D01*
X34865982Y-5495561D01*
X35026458Y-5418822D01*
X35039739Y-5433171D01*
X35211950Y-5433171D01*
X35254888Y-5295884D01*
X35207216Y-5192528D01*
X35062880Y-5131452D01*
X35053725Y-5129558D01*
X34884688Y-5128198D01*
X34727181Y-5179121D01*
X34613873Y-5266481D01*
X34576667Y-5360942D01*
X34600666Y-5446163D01*
X34633363Y-5465417D01*
X34648123Y-5494843D01*
X34611630Y-5543847D01*
X34536529Y-5638100D01*
X34512020Y-5685816D01*
X34451399Y-5719320D01*
X34326489Y-5704914D01*
X34162293Y-5651501D01*
X33983811Y-5567987D01*
X33816046Y-5463273D01*
X33756891Y-5416896D01*
X33612355Y-5298996D01*
X33593794Y-5284997D01*
X33492764Y-5284997D01*
X33488448Y-5312212D01*
X33412380Y-5358061D01*
X33343383Y-5325744D01*
X33327309Y-5264360D01*
X33381222Y-5228175D01*
X33440349Y-5235148D01*
X33492764Y-5284997D01*
X33593794Y-5284997D01*
X33486243Y-5203884D01*
X33434187Y-5169262D01*
X33369166Y-5113277D01*
X33372652Y-5035272D01*
X33399174Y-4970825D01*
X33434518Y-4862607D01*
X33402379Y-4835400D01*
X33308442Y-4881117D01*
X33201687Y-4895982D01*
X33161642Y-4872766D01*
X33081738Y-4841149D01*
X33030902Y-4907173D01*
X33010493Y-5015607D01*
X33038137Y-5149117D01*
X33102609Y-5204905D01*
X33233158Y-5288394D01*
X33297443Y-5338586D01*
X33524708Y-5532763D01*
X33740803Y-5712196D01*
X33930405Y-5864676D01*
X34078189Y-5977993D01*
X34168830Y-6039935D01*
X34187573Y-6047835D01*
X34241997Y-6089474D01*
X34313448Y-6190282D01*
X34319285Y-6200370D01*
X34365875Y-6295109D01*
X34377182Y-6380619D01*
X34351755Y-6495048D01*
X34302703Y-6636598D01*
X34223838Y-6860934D01*
X34181786Y-7012032D01*
X34174829Y-7115225D01*
X34201250Y-7195848D01*
X34259142Y-7278992D01*
X34369666Y-7382277D01*
X34510041Y-7420838D01*
X34580508Y-7423334D01*
X34788333Y-7423334D01*
X34789144Y-7859896D01*
X34794992Y-8071989D01*
X34809804Y-8247824D01*
X34830711Y-8356816D01*
X34837119Y-8370960D01*
X34858934Y-8489979D01*
X34800686Y-8608218D01*
X34683512Y-8693923D01*
X34608261Y-8714819D01*
X34207434Y-8776713D01*
X33883971Y-8839129D01*
X33609551Y-8908196D01*
X33386042Y-8979379D01*
X33208594Y-9047502D01*
X33127104Y-9091539D01*
X33134112Y-9109870D01*
X33222153Y-9100874D01*
X33383765Y-9062929D01*
X33548337Y-9014632D01*
X33765827Y-8959533D01*
X34032843Y-8910224D01*
X34293176Y-8877016D01*
X34303732Y-8876074D01*
X34738081Y-8838185D01*
X34684412Y-8979346D01*
X34657239Y-9085561D01*
X34696115Y-9141095D01*
X34749226Y-9164550D01*
X34866567Y-9190268D01*
X34929074Y-9185262D01*
X34995178Y-9199270D01*
X35027892Y-9278623D01*
X35022304Y-9386736D01*
X34973500Y-9487024D01*
X34970110Y-9490876D01*
X34910262Y-9565296D01*
X34932785Y-9589725D01*
X35005028Y-9591234D01*
X35150117Y-9557627D01*
X35236805Y-9510546D01*
X35307850Y-9427605D01*
X35289722Y-9340250D01*
X35259461Y-9228018D01*
X35253055Y-9072890D01*
X35254549Y-9050521D01*
X35274834Y-8919178D01*
X35279364Y-8913780D01*
X34929816Y-8913780D01*
X34916461Y-9023953D01*
X34878643Y-9092800D01*
X34845344Y-9077411D01*
X34824302Y-8999333D01*
X34823254Y-8880115D01*
X34835373Y-8798125D01*
X34874030Y-8613959D01*
X34912694Y-8763979D01*
X34929816Y-8913780D01*
X35279364Y-8913780D01*
X35321821Y-8863194D01*
X35408964Y-8852084D01*
X35585249Y-8864991D01*
X35823243Y-8898894D01*
X36082654Y-8946565D01*
X36323191Y-9000777D01*
X36470287Y-9042462D01*
X36664498Y-9099234D01*
X36771499Y-9114561D01*
X36787125Y-9088079D01*
X36770063Y-9068700D01*
X36676983Y-9017635D01*
X36507529Y-8956487D01*
X36289664Y-8892890D01*
X36051354Y-8834475D01*
X35820564Y-8788875D01*
X35665686Y-8767308D01*
X35480596Y-8743736D01*
X35335250Y-8716841D01*
X35268022Y-8695458D01*
X35257108Y-8673355D01*
X35105833Y-8673355D01*
X35080093Y-8689194D01*
X35009747Y-8621217D01*
X34993250Y-8600729D01*
X34947485Y-8538050D01*
X34974888Y-8551190D01*
X35013229Y-8580750D01*
X35086517Y-8646028D01*
X35105833Y-8673355D01*
X35257108Y-8673355D01*
X35252318Y-8663657D01*
X35260622Y-8593858D01*
X35296818Y-8475498D01*
X35364790Y-8298015D01*
X35468423Y-8050846D01*
X35611601Y-7723428D01*
X35692063Y-7542396D01*
X35741163Y-7409015D01*
X35750056Y-7329032D01*
X35737446Y-7317500D01*
X35685396Y-7362114D01*
X35622838Y-7473383D01*
X35604916Y-7515938D01*
X35532956Y-7692663D01*
X35460947Y-7859022D01*
X35454527Y-7873125D01*
X35381266Y-8042401D01*
X35316271Y-8204990D01*
X35246237Y-8358359D01*
X35194544Y-8410320D01*
X35167026Y-8361540D01*
X35169490Y-8214144D01*
X35105833Y-8214144D01*
X35083335Y-8363003D01*
X35026214Y-8427689D01*
X34950029Y-8400269D01*
X34893792Y-8322216D01*
X34867445Y-8193597D01*
X34928399Y-8103324D01*
X35013229Y-8077442D01*
X35084335Y-8103881D01*
X35105826Y-8211057D01*
X35105833Y-8214144D01*
X35169490Y-8214144D01*
X35169515Y-8212685D01*
X35172066Y-8188501D01*
X35175881Y-7969575D01*
X35126166Y-7818486D01*
X35121752Y-7811549D01*
X35071225Y-7714743D01*
X35088439Y-7648437D01*
X35120819Y-7612455D01*
X35196675Y-7562991D01*
X35231826Y-7566964D01*
X35253058Y-7543213D01*
X35264128Y-7443011D01*
X35264583Y-7412309D01*
X35277843Y-7162613D01*
X35305439Y-7061037D01*
X34935958Y-7061037D01*
X34916326Y-7124414D01*
X34866788Y-7183945D01*
X34836232Y-7182107D01*
X34826473Y-7126476D01*
X34855006Y-7081915D01*
X34922650Y-7026280D01*
X34935958Y-7061037D01*
X35305439Y-7061037D01*
X35323855Y-6993255D01*
X35411971Y-6881359D01*
X35504921Y-6824394D01*
X35682052Y-6739926D01*
X35698214Y-6962567D01*
X35714724Y-7102416D01*
X35749800Y-7163504D01*
X35822757Y-7172900D01*
X35846667Y-7170624D01*
X35988433Y-7158207D01*
X36070521Y-7154028D01*
X36156754Y-7134999D01*
X36185831Y-7074396D01*
X36156139Y-6959410D01*
X36066069Y-6777234D01*
X36010814Y-6679278D01*
X35899098Y-6473115D01*
X35802604Y-6273048D01*
X35740259Y-6118639D01*
X35735823Y-6104560D01*
X35674850Y-5901052D01*
X36091488Y-5499798D01*
X36264422Y-5332842D01*
X36409774Y-5191755D01*
X36510135Y-5093483D01*
X36546325Y-5057084D01*
X36610926Y-4985721D01*
X36521609Y-4985721D01*
X36514371Y-4989167D01*
X36466080Y-4951915D01*
X36455208Y-4936250D01*
X36441724Y-4886779D01*
X36448963Y-4883334D01*
X36497253Y-4920586D01*
X36508125Y-4936250D01*
X36521609Y-4985721D01*
X36610926Y-4985721D01*
X36745931Y-4836586D01*
X36657784Y-4836586D01*
X36603474Y-4883662D01*
X36532027Y-4861757D01*
X36511831Y-4836413D01*
X36521461Y-4768245D01*
X36555445Y-4729229D01*
X36623161Y-4699047D01*
X36657049Y-4744518D01*
X36657784Y-4836586D01*
X36745931Y-4836586D01*
X36750800Y-4831208D01*
X36888716Y-4668703D01*
X36968845Y-4558603D01*
X36999924Y-4490134D01*
X36976440Y-4424161D01*
X36904207Y-4409445D01*
X36830670Y-4453118D01*
G36*
X34641772Y-9220801D02*
G01*
X34597634Y-9265417D01*
X34555597Y-9354216D01*
X34558024Y-9393896D01*
X34539157Y-9428988D01*
X34503538Y-9434167D01*
X34412111Y-9465216D01*
X34391458Y-9487084D01*
X34413471Y-9523390D01*
X34520306Y-9539716D01*
X34541349Y-9540000D01*
X34671604Y-9526102D01*
X34735890Y-9468059D01*
X34759207Y-9399499D01*
X34763023Y-9276010D01*
X34716308Y-9210161D01*
X34641772Y-9220801D01*
G37*
X34641772Y-9220801D02*
X34597634Y-9265417D01*
X34555597Y-9354216D01*
X34558024Y-9393896D01*
X34539157Y-9428988D01*
X34503538Y-9434167D01*
X34412111Y-9465216D01*
X34391458Y-9487084D01*
X34413471Y-9523390D01*
X34520306Y-9539716D01*
X34541349Y-9540000D01*
X34671604Y-9526102D01*
X34735890Y-9468059D01*
X34759207Y-9399499D01*
X34763023Y-9276010D01*
X34716308Y-9210161D01*
X34641772Y-9220801D01*
G36*
X33359583Y-5280209D02*
G01*
X33386042Y-5306667D01*
X33412500Y-5280209D01*
X33386042Y-5253750D01*
X33359583Y-5280209D01*
G37*
X33359583Y-5280209D02*
X33386042Y-5306667D01*
X33412500Y-5280209D01*
X33386042Y-5253750D01*
X33359583Y-5280209D01*
%TD*%
M02*
