%TF.GenerationSoftware,KiCad,Pcbnew,5.1.9-73d0e3b20d~88~ubuntu18.04.1*%
%TF.CreationDate,2021-01-03T17:48:49+01:00*%
%TF.ProjectId,ss_fp_87dc3_bridgeboard,73735f66-705f-4383-9764-63335f627269,r0.1*%
%TF.SameCoordinates,PX5f5e100PY2faf080*%
%TF.FileFunction,Legend,Top*%
%TF.FilePolarity,Positive*%
%FSLAX46Y46*%
G04 Gerber Fmt 4.6, Leading zero omitted, Abs format (unit mm)*
G04 Created by KiCad (PCBNEW 5.1.9-73d0e3b20d~88~ubuntu18.04.1) date 2021-01-03 17:48:49*
%MOMM*%
%LPD*%
G01*
G04 APERTURE LIST*
%ADD10C,0.400000*%
%ADD11C,0.120000*%
%ADD12C,0.150000*%
G04 APERTURE END LIST*
D10*
X27857142Y-35657142D02*
X28142857Y-35752380D01*
X28238095Y-35847619D01*
X28333333Y-36038095D01*
X28333333Y-36323809D01*
X28238095Y-36514285D01*
X28142857Y-36609523D01*
X27952380Y-36704761D01*
X27190476Y-36704761D01*
X27190476Y-34704761D01*
X27857142Y-34704761D01*
X28047619Y-34800000D01*
X28142857Y-34895238D01*
X28238095Y-35085714D01*
X28238095Y-35276190D01*
X28142857Y-35466666D01*
X28047619Y-35561904D01*
X27857142Y-35657142D01*
X27190476Y-35657142D01*
X28904761Y-35371428D02*
X29666666Y-35371428D01*
X29190476Y-34704761D02*
X29190476Y-36419047D01*
X29285714Y-36609523D01*
X29476190Y-36704761D01*
X29666666Y-36704761D01*
X30333333Y-35371428D02*
X30333333Y-36704761D01*
X30333333Y-35561904D02*
X30428571Y-35466666D01*
X30619047Y-35371428D01*
X30904761Y-35371428D01*
X31095238Y-35466666D01*
X31190476Y-35657142D01*
X31190476Y-36704761D01*
X32047619Y-36609523D02*
X32238095Y-36704761D01*
X32619047Y-36704761D01*
X32809523Y-36609523D01*
X32904761Y-36419047D01*
X32904761Y-36323809D01*
X32809523Y-36133333D01*
X32619047Y-36038095D01*
X32333333Y-36038095D01*
X32142857Y-35942857D01*
X32047619Y-35752380D01*
X32047619Y-35657142D01*
X32142857Y-35466666D01*
X32333333Y-35371428D01*
X32619047Y-35371428D01*
X32809523Y-35466666D01*
X25809523Y-40104761D02*
X25809523Y-38104761D01*
X25809523Y-38866666D02*
X26000000Y-38771428D01*
X26380952Y-38771428D01*
X26571428Y-38866666D01*
X26666666Y-38961904D01*
X26761904Y-39152380D01*
X26761904Y-39723809D01*
X26666666Y-39914285D01*
X26571428Y-40009523D01*
X26380952Y-40104761D01*
X26000000Y-40104761D01*
X25809523Y-40009523D01*
X27619047Y-40104761D02*
X27619047Y-38771428D01*
X27619047Y-39152380D02*
X27714285Y-38961904D01*
X27809523Y-38866666D01*
X28000000Y-38771428D01*
X28190476Y-38771428D01*
X28857142Y-40104761D02*
X28857142Y-38771428D01*
X28857142Y-38104761D02*
X28761904Y-38200000D01*
X28857142Y-38295238D01*
X28952380Y-38200000D01*
X28857142Y-38104761D01*
X28857142Y-38295238D01*
X30666666Y-40104761D02*
X30666666Y-38104761D01*
X30666666Y-40009523D02*
X30476190Y-40104761D01*
X30095238Y-40104761D01*
X29904761Y-40009523D01*
X29809523Y-39914285D01*
X29714285Y-39723809D01*
X29714285Y-39152380D01*
X29809523Y-38961904D01*
X29904761Y-38866666D01*
X30095238Y-38771428D01*
X30476190Y-38771428D01*
X30666666Y-38866666D01*
X32476190Y-38771428D02*
X32476190Y-40390476D01*
X32380952Y-40580952D01*
X32285714Y-40676190D01*
X32095238Y-40771428D01*
X31809523Y-40771428D01*
X31619047Y-40676190D01*
X32476190Y-40009523D02*
X32285714Y-40104761D01*
X31904761Y-40104761D01*
X31714285Y-40009523D01*
X31619047Y-39914285D01*
X31523809Y-39723809D01*
X31523809Y-39152380D01*
X31619047Y-38961904D01*
X31714285Y-38866666D01*
X31904761Y-38771428D01*
X32285714Y-38771428D01*
X32476190Y-38866666D01*
X34190476Y-40009523D02*
X34000000Y-40104761D01*
X33619047Y-40104761D01*
X33428571Y-40009523D01*
X33333333Y-39819047D01*
X33333333Y-39057142D01*
X33428571Y-38866666D01*
X33619047Y-38771428D01*
X34000000Y-38771428D01*
X34190476Y-38866666D01*
X34285714Y-39057142D01*
X34285714Y-39247619D01*
X33333333Y-39438095D01*
X2857142Y-35657142D02*
X3142857Y-35752380D01*
X3238095Y-35847619D01*
X3333333Y-36038095D01*
X3333333Y-36323809D01*
X3238095Y-36514285D01*
X3142857Y-36609523D01*
X2952380Y-36704761D01*
X2190476Y-36704761D01*
X2190476Y-34704761D01*
X2857142Y-34704761D01*
X3047619Y-34800000D01*
X3142857Y-34895238D01*
X3238095Y-35085714D01*
X3238095Y-35276190D01*
X3142857Y-35466666D01*
X3047619Y-35561904D01*
X2857142Y-35657142D01*
X2190476Y-35657142D01*
X3904761Y-35371428D02*
X4666666Y-35371428D01*
X4190476Y-34704761D02*
X4190476Y-36419047D01*
X4285714Y-36609523D01*
X4476190Y-36704761D01*
X4666666Y-36704761D01*
X5333333Y-35371428D02*
X5333333Y-36704761D01*
X5333333Y-35561904D02*
X5428571Y-35466666D01*
X5619047Y-35371428D01*
X5904761Y-35371428D01*
X6095238Y-35466666D01*
X6190476Y-35657142D01*
X6190476Y-36704761D01*
X7047619Y-36609523D02*
X7238095Y-36704761D01*
X7619047Y-36704761D01*
X7809523Y-36609523D01*
X7904761Y-36419047D01*
X7904761Y-36323809D01*
X7809523Y-36133333D01*
X7619047Y-36038095D01*
X7333333Y-36038095D01*
X7142857Y-35942857D01*
X7047619Y-35752380D01*
X7047619Y-35657142D01*
X7142857Y-35466666D01*
X7333333Y-35371428D01*
X7619047Y-35371428D01*
X7809523Y-35466666D01*
X809523Y-40104761D02*
X809523Y-38104761D01*
X809523Y-38866666D02*
X1000000Y-38771428D01*
X1380952Y-38771428D01*
X1571428Y-38866666D01*
X1666666Y-38961904D01*
X1761904Y-39152380D01*
X1761904Y-39723809D01*
X1666666Y-39914285D01*
X1571428Y-40009523D01*
X1380952Y-40104761D01*
X1000000Y-40104761D01*
X809523Y-40009523D01*
X2619047Y-40104761D02*
X2619047Y-38771428D01*
X2619047Y-39152380D02*
X2714285Y-38961904D01*
X2809523Y-38866666D01*
X3000000Y-38771428D01*
X3190476Y-38771428D01*
X3857142Y-40104761D02*
X3857142Y-38771428D01*
X3857142Y-38104761D02*
X3761904Y-38200000D01*
X3857142Y-38295238D01*
X3952380Y-38200000D01*
X3857142Y-38104761D01*
X3857142Y-38295238D01*
X5666666Y-40104761D02*
X5666666Y-38104761D01*
X5666666Y-40009523D02*
X5476190Y-40104761D01*
X5095238Y-40104761D01*
X4904761Y-40009523D01*
X4809523Y-39914285D01*
X4714285Y-39723809D01*
X4714285Y-39152380D01*
X4809523Y-38961904D01*
X4904761Y-38866666D01*
X5095238Y-38771428D01*
X5476190Y-38771428D01*
X5666666Y-38866666D01*
X7476190Y-38771428D02*
X7476190Y-40390476D01*
X7380952Y-40580952D01*
X7285714Y-40676190D01*
X7095238Y-40771428D01*
X6809523Y-40771428D01*
X6619047Y-40676190D01*
X7476190Y-40009523D02*
X7285714Y-40104761D01*
X6904761Y-40104761D01*
X6714285Y-40009523D01*
X6619047Y-39914285D01*
X6523809Y-39723809D01*
X6523809Y-39152380D01*
X6619047Y-38961904D01*
X6714285Y-38866666D01*
X6904761Y-38771428D01*
X7285714Y-38771428D01*
X7476190Y-38866666D01*
X9190476Y-40009523D02*
X9000000Y-40104761D01*
X8619047Y-40104761D01*
X8428571Y-40009523D01*
X8333333Y-39819047D01*
X8333333Y-39057142D01*
X8428571Y-38866666D01*
X8619047Y-38771428D01*
X9000000Y-38771428D01*
X9190476Y-38866666D01*
X9285714Y-39057142D01*
X9285714Y-39247619D01*
X8333333Y-39438095D01*
X27857142Y-18657142D02*
X28142857Y-18752380D01*
X28238095Y-18847619D01*
X28333333Y-19038095D01*
X28333333Y-19323809D01*
X28238095Y-19514285D01*
X28142857Y-19609523D01*
X27952380Y-19704761D01*
X27190476Y-19704761D01*
X27190476Y-17704761D01*
X27857142Y-17704761D01*
X28047619Y-17800000D01*
X28142857Y-17895238D01*
X28238095Y-18085714D01*
X28238095Y-18276190D01*
X28142857Y-18466666D01*
X28047619Y-18561904D01*
X27857142Y-18657142D01*
X27190476Y-18657142D01*
X28904761Y-18371428D02*
X29666666Y-18371428D01*
X29190476Y-17704761D02*
X29190476Y-19419047D01*
X29285714Y-19609523D01*
X29476190Y-19704761D01*
X29666666Y-19704761D01*
X30333333Y-18371428D02*
X30333333Y-19704761D01*
X30333333Y-18561904D02*
X30428571Y-18466666D01*
X30619047Y-18371428D01*
X30904761Y-18371428D01*
X31095238Y-18466666D01*
X31190476Y-18657142D01*
X31190476Y-19704761D01*
X32047619Y-19609523D02*
X32238095Y-19704761D01*
X32619047Y-19704761D01*
X32809523Y-19609523D01*
X32904761Y-19419047D01*
X32904761Y-19323809D01*
X32809523Y-19133333D01*
X32619047Y-19038095D01*
X32333333Y-19038095D01*
X32142857Y-18942857D01*
X32047619Y-18752380D01*
X32047619Y-18657142D01*
X32142857Y-18466666D01*
X32333333Y-18371428D01*
X32619047Y-18371428D01*
X32809523Y-18466666D01*
X25809523Y-23104761D02*
X25809523Y-21104761D01*
X25809523Y-21866666D02*
X26000000Y-21771428D01*
X26380952Y-21771428D01*
X26571428Y-21866666D01*
X26666666Y-21961904D01*
X26761904Y-22152380D01*
X26761904Y-22723809D01*
X26666666Y-22914285D01*
X26571428Y-23009523D01*
X26380952Y-23104761D01*
X26000000Y-23104761D01*
X25809523Y-23009523D01*
X27619047Y-23104761D02*
X27619047Y-21771428D01*
X27619047Y-22152380D02*
X27714285Y-21961904D01*
X27809523Y-21866666D01*
X28000000Y-21771428D01*
X28190476Y-21771428D01*
X28857142Y-23104761D02*
X28857142Y-21771428D01*
X28857142Y-21104761D02*
X28761904Y-21200000D01*
X28857142Y-21295238D01*
X28952380Y-21200000D01*
X28857142Y-21104761D01*
X28857142Y-21295238D01*
X30666666Y-23104761D02*
X30666666Y-21104761D01*
X30666666Y-23009523D02*
X30476190Y-23104761D01*
X30095238Y-23104761D01*
X29904761Y-23009523D01*
X29809523Y-22914285D01*
X29714285Y-22723809D01*
X29714285Y-22152380D01*
X29809523Y-21961904D01*
X29904761Y-21866666D01*
X30095238Y-21771428D01*
X30476190Y-21771428D01*
X30666666Y-21866666D01*
X32476190Y-21771428D02*
X32476190Y-23390476D01*
X32380952Y-23580952D01*
X32285714Y-23676190D01*
X32095238Y-23771428D01*
X31809523Y-23771428D01*
X31619047Y-23676190D01*
X32476190Y-23009523D02*
X32285714Y-23104761D01*
X31904761Y-23104761D01*
X31714285Y-23009523D01*
X31619047Y-22914285D01*
X31523809Y-22723809D01*
X31523809Y-22152380D01*
X31619047Y-21961904D01*
X31714285Y-21866666D01*
X31904761Y-21771428D01*
X32285714Y-21771428D01*
X32476190Y-21866666D01*
X34190476Y-23009523D02*
X34000000Y-23104761D01*
X33619047Y-23104761D01*
X33428571Y-23009523D01*
X33333333Y-22819047D01*
X33333333Y-22057142D01*
X33428571Y-21866666D01*
X33619047Y-21771428D01*
X34000000Y-21771428D01*
X34190476Y-21866666D01*
X34285714Y-22057142D01*
X34285714Y-22247619D01*
X33333333Y-22438095D01*
X2857142Y-18657142D02*
X3142857Y-18752380D01*
X3238095Y-18847619D01*
X3333333Y-19038095D01*
X3333333Y-19323809D01*
X3238095Y-19514285D01*
X3142857Y-19609523D01*
X2952380Y-19704761D01*
X2190476Y-19704761D01*
X2190476Y-17704761D01*
X2857142Y-17704761D01*
X3047619Y-17800000D01*
X3142857Y-17895238D01*
X3238095Y-18085714D01*
X3238095Y-18276190D01*
X3142857Y-18466666D01*
X3047619Y-18561904D01*
X2857142Y-18657142D01*
X2190476Y-18657142D01*
X3904761Y-18371428D02*
X4666666Y-18371428D01*
X4190476Y-17704761D02*
X4190476Y-19419047D01*
X4285714Y-19609523D01*
X4476190Y-19704761D01*
X4666666Y-19704761D01*
X5333333Y-18371428D02*
X5333333Y-19704761D01*
X5333333Y-18561904D02*
X5428571Y-18466666D01*
X5619047Y-18371428D01*
X5904761Y-18371428D01*
X6095238Y-18466666D01*
X6190476Y-18657142D01*
X6190476Y-19704761D01*
X7047619Y-19609523D02*
X7238095Y-19704761D01*
X7619047Y-19704761D01*
X7809523Y-19609523D01*
X7904761Y-19419047D01*
X7904761Y-19323809D01*
X7809523Y-19133333D01*
X7619047Y-19038095D01*
X7333333Y-19038095D01*
X7142857Y-18942857D01*
X7047619Y-18752380D01*
X7047619Y-18657142D01*
X7142857Y-18466666D01*
X7333333Y-18371428D01*
X7619047Y-18371428D01*
X7809523Y-18466666D01*
X809523Y-23104761D02*
X809523Y-21104761D01*
X809523Y-21866666D02*
X1000000Y-21771428D01*
X1380952Y-21771428D01*
X1571428Y-21866666D01*
X1666666Y-21961904D01*
X1761904Y-22152380D01*
X1761904Y-22723809D01*
X1666666Y-22914285D01*
X1571428Y-23009523D01*
X1380952Y-23104761D01*
X1000000Y-23104761D01*
X809523Y-23009523D01*
X2619047Y-23104761D02*
X2619047Y-21771428D01*
X2619047Y-22152380D02*
X2714285Y-21961904D01*
X2809523Y-21866666D01*
X3000000Y-21771428D01*
X3190476Y-21771428D01*
X3857142Y-23104761D02*
X3857142Y-21771428D01*
X3857142Y-21104761D02*
X3761904Y-21200000D01*
X3857142Y-21295238D01*
X3952380Y-21200000D01*
X3857142Y-21104761D01*
X3857142Y-21295238D01*
X5666666Y-23104761D02*
X5666666Y-21104761D01*
X5666666Y-23009523D02*
X5476190Y-23104761D01*
X5095238Y-23104761D01*
X4904761Y-23009523D01*
X4809523Y-22914285D01*
X4714285Y-22723809D01*
X4714285Y-22152380D01*
X4809523Y-21961904D01*
X4904761Y-21866666D01*
X5095238Y-21771428D01*
X5476190Y-21771428D01*
X5666666Y-21866666D01*
X7476190Y-21771428D02*
X7476190Y-23390476D01*
X7380952Y-23580952D01*
X7285714Y-23676190D01*
X7095238Y-23771428D01*
X6809523Y-23771428D01*
X6619047Y-23676190D01*
X7476190Y-23009523D02*
X7285714Y-23104761D01*
X6904761Y-23104761D01*
X6714285Y-23009523D01*
X6619047Y-22914285D01*
X6523809Y-22723809D01*
X6523809Y-22152380D01*
X6619047Y-21961904D01*
X6714285Y-21866666D01*
X6904761Y-21771428D01*
X7285714Y-21771428D01*
X7476190Y-21866666D01*
X9190476Y-23009523D02*
X9000000Y-23104761D01*
X8619047Y-23104761D01*
X8428571Y-23009523D01*
X8333333Y-22819047D01*
X8333333Y-22057142D01*
X8428571Y-21866666D01*
X8619047Y-21771428D01*
X9000000Y-21771428D01*
X9190476Y-21866666D01*
X9285714Y-22057142D01*
X9285714Y-22247619D01*
X8333333Y-22438095D01*
X27857142Y-1657142D02*
X28142857Y-1752380D01*
X28238095Y-1847619D01*
X28333333Y-2038095D01*
X28333333Y-2323809D01*
X28238095Y-2514285D01*
X28142857Y-2609523D01*
X27952380Y-2704761D01*
X27190476Y-2704761D01*
X27190476Y-704761D01*
X27857142Y-704761D01*
X28047619Y-800000D01*
X28142857Y-895238D01*
X28238095Y-1085714D01*
X28238095Y-1276190D01*
X28142857Y-1466666D01*
X28047619Y-1561904D01*
X27857142Y-1657142D01*
X27190476Y-1657142D01*
X28904761Y-1371428D02*
X29666666Y-1371428D01*
X29190476Y-704761D02*
X29190476Y-2419047D01*
X29285714Y-2609523D01*
X29476190Y-2704761D01*
X29666666Y-2704761D01*
X30333333Y-1371428D02*
X30333333Y-2704761D01*
X30333333Y-1561904D02*
X30428571Y-1466666D01*
X30619047Y-1371428D01*
X30904761Y-1371428D01*
X31095238Y-1466666D01*
X31190476Y-1657142D01*
X31190476Y-2704761D01*
X32047619Y-2609523D02*
X32238095Y-2704761D01*
X32619047Y-2704761D01*
X32809523Y-2609523D01*
X32904761Y-2419047D01*
X32904761Y-2323809D01*
X32809523Y-2133333D01*
X32619047Y-2038095D01*
X32333333Y-2038095D01*
X32142857Y-1942857D01*
X32047619Y-1752380D01*
X32047619Y-1657142D01*
X32142857Y-1466666D01*
X32333333Y-1371428D01*
X32619047Y-1371428D01*
X32809523Y-1466666D01*
X25809523Y-6104761D02*
X25809523Y-4104761D01*
X25809523Y-4866666D02*
X26000000Y-4771428D01*
X26380952Y-4771428D01*
X26571428Y-4866666D01*
X26666666Y-4961904D01*
X26761904Y-5152380D01*
X26761904Y-5723809D01*
X26666666Y-5914285D01*
X26571428Y-6009523D01*
X26380952Y-6104761D01*
X26000000Y-6104761D01*
X25809523Y-6009523D01*
X27619047Y-6104761D02*
X27619047Y-4771428D01*
X27619047Y-5152380D02*
X27714285Y-4961904D01*
X27809523Y-4866666D01*
X28000000Y-4771428D01*
X28190476Y-4771428D01*
X28857142Y-6104761D02*
X28857142Y-4771428D01*
X28857142Y-4104761D02*
X28761904Y-4200000D01*
X28857142Y-4295238D01*
X28952380Y-4200000D01*
X28857142Y-4104761D01*
X28857142Y-4295238D01*
X30666666Y-6104761D02*
X30666666Y-4104761D01*
X30666666Y-6009523D02*
X30476190Y-6104761D01*
X30095238Y-6104761D01*
X29904761Y-6009523D01*
X29809523Y-5914285D01*
X29714285Y-5723809D01*
X29714285Y-5152380D01*
X29809523Y-4961904D01*
X29904761Y-4866666D01*
X30095238Y-4771428D01*
X30476190Y-4771428D01*
X30666666Y-4866666D01*
X32476190Y-4771428D02*
X32476190Y-6390476D01*
X32380952Y-6580952D01*
X32285714Y-6676190D01*
X32095238Y-6771428D01*
X31809523Y-6771428D01*
X31619047Y-6676190D01*
X32476190Y-6009523D02*
X32285714Y-6104761D01*
X31904761Y-6104761D01*
X31714285Y-6009523D01*
X31619047Y-5914285D01*
X31523809Y-5723809D01*
X31523809Y-5152380D01*
X31619047Y-4961904D01*
X31714285Y-4866666D01*
X31904761Y-4771428D01*
X32285714Y-4771428D01*
X32476190Y-4866666D01*
X34190476Y-6009523D02*
X34000000Y-6104761D01*
X33619047Y-6104761D01*
X33428571Y-6009523D01*
X33333333Y-5819047D01*
X33333333Y-5057142D01*
X33428571Y-4866666D01*
X33619047Y-4771428D01*
X34000000Y-4771428D01*
X34190476Y-4866666D01*
X34285714Y-5057142D01*
X34285714Y-5247619D01*
X33333333Y-5438095D01*
D11*
X-4000000Y-34000000D02*
X55000000Y-34000000D01*
D12*
X16304761Y-4702380D02*
X16304761Y-5416666D01*
X16266666Y-5559523D01*
X16190476Y-5654761D01*
X16076190Y-5702380D01*
X16000000Y-5702380D01*
X17066666Y-5702380D02*
X16685714Y-5702380D01*
X16685714Y-4702380D01*
X17790476Y-5607142D02*
X17752380Y-5654761D01*
X17638095Y-5702380D01*
X17561904Y-5702380D01*
X17447619Y-5654761D01*
X17371428Y-5559523D01*
X17333333Y-5464285D01*
X17295238Y-5273809D01*
X17295238Y-5130952D01*
X17333333Y-4940476D01*
X17371428Y-4845238D01*
X17447619Y-4750000D01*
X17561904Y-4702380D01*
X17638095Y-4702380D01*
X17752380Y-4750000D01*
X17790476Y-4797619D01*
X18361904Y-4702380D02*
X18361904Y-5416666D01*
X18323809Y-5559523D01*
X18247619Y-5654761D01*
X18133333Y-5702380D01*
X18057142Y-5702380D01*
X19123809Y-5702380D02*
X18742857Y-5702380D01*
X18742857Y-4702380D01*
X19847619Y-5607142D02*
X19809523Y-5654761D01*
X19695238Y-5702380D01*
X19619047Y-5702380D01*
X19504761Y-5654761D01*
X19428571Y-5559523D01*
X19390476Y-5464285D01*
X19352380Y-5273809D01*
X19352380Y-5130952D01*
X19390476Y-4940476D01*
X19428571Y-4845238D01*
X19504761Y-4750000D01*
X19619047Y-4702380D01*
X19695238Y-4702380D01*
X19809523Y-4750000D01*
X19847619Y-4797619D01*
X20419047Y-4702380D02*
X20419047Y-5416666D01*
X20380952Y-5559523D01*
X20304761Y-5654761D01*
X20190476Y-5702380D01*
X20114285Y-5702380D01*
X21180952Y-5702380D02*
X20800000Y-5702380D01*
X20800000Y-4702380D01*
X21904761Y-5607142D02*
X21866666Y-5654761D01*
X21752380Y-5702380D01*
X21676190Y-5702380D01*
X21561904Y-5654761D01*
X21485714Y-5559523D01*
X21447619Y-5464285D01*
X21409523Y-5273809D01*
X21409523Y-5130952D01*
X21447619Y-4940476D01*
X21485714Y-4845238D01*
X21561904Y-4750000D01*
X21676190Y-4702380D01*
X21752380Y-4702380D01*
X21866666Y-4750000D01*
X21904761Y-4797619D01*
X22476190Y-4702380D02*
X22476190Y-5416666D01*
X22438095Y-5559523D01*
X22361904Y-5654761D01*
X22247619Y-5702380D01*
X22171428Y-5702380D01*
X23238095Y-5702380D02*
X22857142Y-5702380D01*
X22857142Y-4702380D01*
X23961904Y-5607142D02*
X23923809Y-5654761D01*
X23809523Y-5702380D01*
X23733333Y-5702380D01*
X23619047Y-5654761D01*
X23542857Y-5559523D01*
X23504761Y-5464285D01*
X23466666Y-5273809D01*
X23466666Y-5130952D01*
X23504761Y-4940476D01*
X23542857Y-4845238D01*
X23619047Y-4750000D01*
X23733333Y-4702380D01*
X23809523Y-4702380D01*
X23923809Y-4750000D01*
X23961904Y-4797619D01*
D10*
X2857142Y-1657142D02*
X3142857Y-1752380D01*
X3238095Y-1847619D01*
X3333333Y-2038095D01*
X3333333Y-2323809D01*
X3238095Y-2514285D01*
X3142857Y-2609523D01*
X2952380Y-2704761D01*
X2190476Y-2704761D01*
X2190476Y-704761D01*
X2857142Y-704761D01*
X3047619Y-800000D01*
X3142857Y-895238D01*
X3238095Y-1085714D01*
X3238095Y-1276190D01*
X3142857Y-1466666D01*
X3047619Y-1561904D01*
X2857142Y-1657142D01*
X2190476Y-1657142D01*
X3904761Y-1371428D02*
X4666666Y-1371428D01*
X4190476Y-704761D02*
X4190476Y-2419047D01*
X4285714Y-2609523D01*
X4476190Y-2704761D01*
X4666666Y-2704761D01*
X5333333Y-1371428D02*
X5333333Y-2704761D01*
X5333333Y-1561904D02*
X5428571Y-1466666D01*
X5619047Y-1371428D01*
X5904761Y-1371428D01*
X6095238Y-1466666D01*
X6190476Y-1657142D01*
X6190476Y-2704761D01*
X7047619Y-2609523D02*
X7238095Y-2704761D01*
X7619047Y-2704761D01*
X7809523Y-2609523D01*
X7904761Y-2419047D01*
X7904761Y-2323809D01*
X7809523Y-2133333D01*
X7619047Y-2038095D01*
X7333333Y-2038095D01*
X7142857Y-1942857D01*
X7047619Y-1752380D01*
X7047619Y-1657142D01*
X7142857Y-1466666D01*
X7333333Y-1371428D01*
X7619047Y-1371428D01*
X7809523Y-1466666D01*
X809523Y-6104761D02*
X809523Y-4104761D01*
X809523Y-4866666D02*
X1000000Y-4771428D01*
X1380952Y-4771428D01*
X1571428Y-4866666D01*
X1666666Y-4961904D01*
X1761904Y-5152380D01*
X1761904Y-5723809D01*
X1666666Y-5914285D01*
X1571428Y-6009523D01*
X1380952Y-6104761D01*
X1000000Y-6104761D01*
X809523Y-6009523D01*
X2619047Y-6104761D02*
X2619047Y-4771428D01*
X2619047Y-5152380D02*
X2714285Y-4961904D01*
X2809523Y-4866666D01*
X3000000Y-4771428D01*
X3190476Y-4771428D01*
X3857142Y-6104761D02*
X3857142Y-4771428D01*
X3857142Y-4104761D02*
X3761904Y-4200000D01*
X3857142Y-4295238D01*
X3952380Y-4200000D01*
X3857142Y-4104761D01*
X3857142Y-4295238D01*
X5666666Y-6104761D02*
X5666666Y-4104761D01*
X5666666Y-6009523D02*
X5476190Y-6104761D01*
X5095238Y-6104761D01*
X4904761Y-6009523D01*
X4809523Y-5914285D01*
X4714285Y-5723809D01*
X4714285Y-5152380D01*
X4809523Y-4961904D01*
X4904761Y-4866666D01*
X5095238Y-4771428D01*
X5476190Y-4771428D01*
X5666666Y-4866666D01*
X7476190Y-4771428D02*
X7476190Y-6390476D01*
X7380952Y-6580952D01*
X7285714Y-6676190D01*
X7095238Y-6771428D01*
X6809523Y-6771428D01*
X6619047Y-6676190D01*
X7476190Y-6009523D02*
X7285714Y-6104761D01*
X6904761Y-6104761D01*
X6714285Y-6009523D01*
X6619047Y-5914285D01*
X6523809Y-5723809D01*
X6523809Y-5152380D01*
X6619047Y-4961904D01*
X6714285Y-4866666D01*
X6904761Y-4771428D01*
X7285714Y-4771428D01*
X7476190Y-4866666D01*
X9190476Y-6009523D02*
X9000000Y-6104761D01*
X8619047Y-6104761D01*
X8428571Y-6009523D01*
X8333333Y-5819047D01*
X8333333Y-5057142D01*
X8428571Y-4866666D01*
X8619047Y-4771428D01*
X9000000Y-4771428D01*
X9190476Y-4866666D01*
X9285714Y-5057142D01*
X9285714Y-5247619D01*
X8333333Y-5438095D01*
D11*
X-4000000Y-17000000D02*
X55000000Y-17000000D01*
%TO.C,J117*%
X11170000Y-36635000D02*
X11170000Y-35305000D01*
X11170000Y-35305000D02*
X12500000Y-35305000D01*
X13770000Y-35305000D02*
X18910000Y-35305000D01*
X18910000Y-37965000D02*
X18910000Y-35305000D01*
X13770000Y-37965000D02*
X18910000Y-37965000D01*
X13770000Y-37965000D02*
X13770000Y-35305000D01*
%TO.C,J115*%
X26110000Y-41715000D02*
X26110000Y-40385000D01*
X26110000Y-40385000D02*
X27440000Y-40385000D01*
X28710000Y-40385000D02*
X31310000Y-40385000D01*
X31310000Y-43045000D02*
X31310000Y-40385000D01*
X28710000Y-43045000D02*
X31310000Y-43045000D01*
X28710000Y-43045000D02*
X28710000Y-40385000D01*
%TO.C,J113*%
X1010000Y-41715000D02*
X1010000Y-40385000D01*
X1010000Y-40385000D02*
X2340000Y-40385000D01*
X3610000Y-40385000D02*
X6210000Y-40385000D01*
X6210000Y-43045000D02*
X6210000Y-40385000D01*
X3610000Y-43045000D02*
X6210000Y-43045000D01*
X3610000Y-43045000D02*
X3610000Y-40385000D01*
%TO.C,J118*%
X36270000Y-36635000D02*
X36270000Y-35305000D01*
X36270000Y-35305000D02*
X37600000Y-35305000D01*
X38870000Y-35305000D02*
X44010000Y-35305000D01*
X44010000Y-37965000D02*
X44010000Y-35305000D01*
X38870000Y-37965000D02*
X44010000Y-37965000D01*
X38870000Y-37965000D02*
X38870000Y-35305000D01*
%TO.C,J114*%
X13710000Y-41715000D02*
X13710000Y-40385000D01*
X13710000Y-40385000D02*
X15040000Y-40385000D01*
X16310000Y-40385000D02*
X23990000Y-40385000D01*
X23990000Y-43045000D02*
X23990000Y-40385000D01*
X16310000Y-43045000D02*
X23990000Y-43045000D01*
X16310000Y-43045000D02*
X16310000Y-40385000D01*
%TO.C,J116*%
X38810000Y-41715000D02*
X38810000Y-40385000D01*
X38810000Y-40385000D02*
X40140000Y-40385000D01*
X41410000Y-40385000D02*
X49090000Y-40385000D01*
X49090000Y-43045000D02*
X49090000Y-40385000D01*
X41410000Y-43045000D02*
X49090000Y-43045000D01*
X41410000Y-43045000D02*
X41410000Y-40385000D01*
%TO.C,J112*%
X38870000Y-20830000D02*
X38870000Y-18170000D01*
X38870000Y-20830000D02*
X44010000Y-20830000D01*
X44010000Y-20830000D02*
X44010000Y-18170000D01*
X38870000Y-18170000D02*
X44010000Y-18170000D01*
X36270000Y-18170000D02*
X37600000Y-18170000D01*
X36270000Y-19500000D02*
X36270000Y-18170000D01*
%TO.C,J111*%
X13770000Y-20830000D02*
X13770000Y-18170000D01*
X13770000Y-20830000D02*
X18910000Y-20830000D01*
X18910000Y-20830000D02*
X18910000Y-18170000D01*
X13770000Y-18170000D02*
X18910000Y-18170000D01*
X11170000Y-18170000D02*
X12500000Y-18170000D01*
X11170000Y-19500000D02*
X11170000Y-18170000D01*
%TO.C,J110*%
X41410000Y-25910000D02*
X41410000Y-23250000D01*
X41410000Y-25910000D02*
X49090000Y-25910000D01*
X49090000Y-25910000D02*
X49090000Y-23250000D01*
X41410000Y-23250000D02*
X49090000Y-23250000D01*
X38810000Y-23250000D02*
X40140000Y-23250000D01*
X38810000Y-24580000D02*
X38810000Y-23250000D01*
%TO.C,J109*%
X28710000Y-25910000D02*
X28710000Y-23250000D01*
X28710000Y-25910000D02*
X31310000Y-25910000D01*
X31310000Y-25910000D02*
X31310000Y-23250000D01*
X28710000Y-23250000D02*
X31310000Y-23250000D01*
X26110000Y-23250000D02*
X27440000Y-23250000D01*
X26110000Y-24580000D02*
X26110000Y-23250000D01*
%TO.C,J108*%
X16310000Y-25910000D02*
X16310000Y-23250000D01*
X16310000Y-25910000D02*
X23990000Y-25910000D01*
X23990000Y-25910000D02*
X23990000Y-23250000D01*
X16310000Y-23250000D02*
X23990000Y-23250000D01*
X13710000Y-23250000D02*
X15040000Y-23250000D01*
X13710000Y-24580000D02*
X13710000Y-23250000D01*
%TO.C,J107*%
X3610000Y-25910000D02*
X3610000Y-23250000D01*
X3610000Y-25910000D02*
X6210000Y-25910000D01*
X6210000Y-25910000D02*
X6210000Y-23250000D01*
X3610000Y-23250000D02*
X6210000Y-23250000D01*
X1010000Y-23250000D02*
X2340000Y-23250000D01*
X1010000Y-24580000D02*
X1010000Y-23250000D01*
%TO.C,J106*%
X38870000Y-3965000D02*
X38870000Y-1305000D01*
X38870000Y-3965000D02*
X44010000Y-3965000D01*
X44010000Y-3965000D02*
X44010000Y-1305000D01*
X38870000Y-1305000D02*
X44010000Y-1305000D01*
X36270000Y-1305000D02*
X37600000Y-1305000D01*
X36270000Y-2635000D02*
X36270000Y-1305000D01*
%TO.C,J105*%
X41410000Y-9045000D02*
X41410000Y-6385000D01*
X41410000Y-9045000D02*
X49090000Y-9045000D01*
X49090000Y-9045000D02*
X49090000Y-6385000D01*
X41410000Y-6385000D02*
X49090000Y-6385000D01*
X38810000Y-6385000D02*
X40140000Y-6385000D01*
X38810000Y-7715000D02*
X38810000Y-6385000D01*
%TO.C,J104*%
X28710000Y-9045000D02*
X28710000Y-6385000D01*
X28710000Y-9045000D02*
X31310000Y-9045000D01*
X31310000Y-9045000D02*
X31310000Y-6385000D01*
X28710000Y-6385000D02*
X31310000Y-6385000D01*
X26110000Y-6385000D02*
X27440000Y-6385000D01*
X26110000Y-7715000D02*
X26110000Y-6385000D01*
%TO.C,J103*%
X13770000Y-3965000D02*
X13770000Y-1305000D01*
X13770000Y-3965000D02*
X18910000Y-3965000D01*
X18910000Y-3965000D02*
X18910000Y-1305000D01*
X13770000Y-1305000D02*
X18910000Y-1305000D01*
X11170000Y-1305000D02*
X12500000Y-1305000D01*
X11170000Y-2635000D02*
X11170000Y-1305000D01*
%TO.C,J102*%
X16310000Y-9045000D02*
X16310000Y-6385000D01*
X16310000Y-9045000D02*
X23990000Y-9045000D01*
X23990000Y-9045000D02*
X23990000Y-6385000D01*
X16310000Y-6385000D02*
X23990000Y-6385000D01*
X13710000Y-6385000D02*
X15040000Y-6385000D01*
X13710000Y-7715000D02*
X13710000Y-6385000D01*
%TO.C,J101*%
X3610000Y-9045000D02*
X3610000Y-6385000D01*
X3610000Y-9045000D02*
X6210000Y-9045000D01*
X6210000Y-9045000D02*
X6210000Y-6385000D01*
X3610000Y-6385000D02*
X6210000Y-6385000D01*
X1010000Y-6385000D02*
X2340000Y-6385000D01*
X1010000Y-7715000D02*
X1010000Y-6385000D01*
%TD*%
M02*
