  0
SECTION
  2
HEADER
  9
$ANGBASE
  50
0.0
  9
$ANGDIR
  70
1
  9
$MEASUREMENT
  70
1
  0
ENDSEC
  0
SECTION
  2
TABLES
  0
TABLE
  2
LTYPE
  70
4
  0
LTYPE
  5
40F
  2
CONTINUOUS
  70
0
  3
Solid line
  72
65
  73
0
  40
0.0
  0
LTYPE
  5
410
  2
DASHDOT
 70
0
  3
Dash Dot ____ _ ____ _
 72
65
 73
4
 40
2.0
 49
1.25
 49
-0.25
 49
0.25
 49
-0.25
  0
LTYPE
  5
411
  2
DASHED
 70
0
  3
Dashed __ __ __ __ __
 72
65
 73
2
 40
0.75
 49
0.5
 49
-0.25
  0
LTYPE
  5
43B
  2
DOTTED
 70
0
  3
Dotted .  .  .  .
 72
65
 73
2
 40
0.2
 49
0.0
 49
-0.2
  0
ENDTAB
  0
TABLE
  2
STYLE
  70
4
  0
STYLE
  2
KICAD
  70
0
  40
0
  41
1
  42
1
  50
0
  71
0
  3
isocp.shx
  0
STYLE
  2
KICADB
  70
0
  40
0
  41
1
  42
1
  50
0
  71
0
  3
isocp.shx
  0
STYLE
  2
KICADI
  70
0
  40
0
  41
1
  42
1
  50
15
  71
0
  3
isocp.shx
  0
STYLE
  2
KICADBI
  70
0
  40
0
  41
1
  42
1
  50
15
  71
0
  3
isocp.shx
  0
ENDTAB
  0
TABLE
  2
LAYER
  70
1
  0
LAYER
  2
BLACK
  70
0
  62
7
  6
CONTINUOUS
  0
ENDTAB
  0
ENDSEC
  0
SECTION
  2
ENTITIES
0
LINE
8
BLACK
6
CONTINUOUS
10
71.0288
20
-100.008
11
70.6706
21
-99.9583
0
LINE
8
BLACK
6
CONTINUOUS
10
70.6706
20
-99.9583
11
70.3186
21
-99.8755
0
LINE
8
BLACK
6
CONTINUOUS
10
70.3186
20
-99.8755
11
69.9757
21
-99.7606
0
LINE
8
BLACK
6
CONTINUOUS
10
69.9757
20
-99.7606
11
69.6449
21
-99.6146
0
LINE
8
BLACK
6
CONTINUOUS
10
69.6449
20
-99.6146
11
69.329
21
-99.4386
0
LINE
8
BLACK
6
CONTINUOUS
10
69.329
20
-99.4386
11
69.0307
21
-99.2342
0
LINE
8
BLACK
6
CONTINUOUS
10
69.0307
20
-99.2342
11
68.7525
21
-99.0032
0
LINE
8
BLACK
6
CONTINUOUS
10
68.7525
20
-99.0032
11
68.4968
21
-98.7475
0
LINE
8
BLACK
6
CONTINUOUS
10
68.4968
20
-98.7475
11
68.2658
21
-98.4693
0
LINE
8
BLACK
6
CONTINUOUS
10
68.2658
20
-98.4693
11
68.0614
21
-98.171
0
LINE
8
BLACK
6
CONTINUOUS
10
68.0614
20
-98.171
11
67.8854
21
-97.8551
0
LINE
8
BLACK
6
CONTINUOUS
10
67.8854
20
-97.8551
11
67.7394
21
-97.5243
0
LINE
8
BLACK
6
CONTINUOUS
10
67.7394
20
-97.5243
11
67.6245
21
-97.1814
0
LINE
8
BLACK
6
CONTINUOUS
10
67.6245
20
-97.1814
11
67.5417
21
-96.8294
0
LINE
8
BLACK
6
CONTINUOUS
10
67.5417
20
-96.8294
11
67.4917
21
-96.4712
0
LINE
8
BLACK
6
CONTINUOUS
10
67.4917
20
-96.4712
11
67.475
21
-96.11
0
LINE
8
BLACK
6
CONTINUOUS
10
67.475
20
-96.11
11
67.475
21
-52.76
0
LINE
8
BLACK
6
CONTINUOUS
10
67.475
20
-52.76
11
67.4917
21
-52.3988
0
LINE
8
BLACK
6
CONTINUOUS
10
67.4917
20
-52.3988
11
67.5417
21
-52.0406
0
LINE
8
BLACK
6
CONTINUOUS
10
67.5417
20
-52.0406
11
67.6245
21
-51.6886
0
LINE
8
BLACK
6
CONTINUOUS
10
67.6245
20
-51.6886
11
67.7394
21
-51.3457
0
LINE
8
BLACK
6
CONTINUOUS
10
67.7394
20
-51.3457
11
67.8854
21
-51.0149
0
LINE
8
BLACK
6
CONTINUOUS
10
67.8854
20
-51.0149
11
68.0614
21
-50.699
0
LINE
8
BLACK
6
CONTINUOUS
10
68.0614
20
-50.699
11
68.2658
21
-50.4007
0
LINE
8
BLACK
6
CONTINUOUS
10
68.2658
20
-50.4007
11
68.4968
21
-50.1225
0
LINE
8
BLACK
6
CONTINUOUS
10
68.4968
20
-50.1225
11
68.7525
21
-49.8668
0
LINE
8
BLACK
6
CONTINUOUS
10
68.7525
20
-49.8668
11
69.0307
21
-49.6358
0
LINE
8
BLACK
6
CONTINUOUS
10
69.0307
20
-49.6358
11
69.329
21
-49.4314
0
LINE
8
BLACK
6
CONTINUOUS
10
69.329
20
-49.4314
11
69.6449
21
-49.2554
0
LINE
8
BLACK
6
CONTINUOUS
10
69.6449
20
-49.2554
11
69.9757
21
-49.1094
0
LINE
8
BLACK
6
CONTINUOUS
10
69.9757
20
-49.1094
11
70.3186
21
-48.9945
0
LINE
8
BLACK
6
CONTINUOUS
10
70.3186
20
-48.9945
11
70.6706
21
-48.9117
0
LINE
8
BLACK
6
CONTINUOUS
10
70.6706
20
-48.9117
11
71.0288
21
-48.8617
0
LINE
8
BLACK
6
CONTINUOUS
10
71.0288
20
-48.8617
11
71.39
21
-48.845
0
LINE
8
BLACK
6
CONTINUOUS
10
71.39
20
-48.845
11
228.61
21
-48.845
0
LINE
8
BLACK
6
CONTINUOUS
10
228.61
20
-48.845
11
228.971
21
-48.8617
0
LINE
8
BLACK
6
CONTINUOUS
10
228.971
20
-48.8617
11
229.329
21
-48.9117
0
LINE
8
BLACK
6
CONTINUOUS
10
229.329
20
-48.9117
11
229.681
21
-48.9945
0
LINE
8
BLACK
6
CONTINUOUS
10
229.681
20
-48.9945
11
230.024
21
-49.1094
0
LINE
8
BLACK
6
CONTINUOUS
10
230.024
20
-49.1094
11
230.355
21
-49.2554
0
LINE
8
BLACK
6
CONTINUOUS
10
230.355
20
-49.2554
11
230.671
21
-49.4314
0
LINE
8
BLACK
6
CONTINUOUS
10
230.671
20
-49.4314
11
230.969
21
-49.6358
0
LINE
8
BLACK
6
CONTINUOUS
10
230.969
20
-49.6358
11
231.248
21
-49.8668
0
LINE
8
BLACK
6
CONTINUOUS
10
231.248
20
-49.8668
11
231.503
21
-50.1225
0
LINE
8
BLACK
6
CONTINUOUS
10
231.503
20
-50.1225
11
231.734
21
-50.4007
0
LINE
8
BLACK
6
CONTINUOUS
10
231.734
20
-50.4007
11
231.939
21
-50.699
0
LINE
8
BLACK
6
CONTINUOUS
10
231.939
20
-50.699
11
232.115
21
-51.0149
0
LINE
8
BLACK
6
CONTINUOUS
10
232.115
20
-51.0149
11
232.261
21
-51.3457
0
LINE
8
BLACK
6
CONTINUOUS
10
232.261
20
-51.3457
11
232.376
21
-51.6886
0
LINE
8
BLACK
6
CONTINUOUS
10
232.376
20
-51.6886
11
232.458
21
-52.0406
0
LINE
8
BLACK
6
CONTINUOUS
10
232.458
20
-52.0406
11
232.508
21
-52.3988
0
LINE
8
BLACK
6
CONTINUOUS
10
232.508
20
-52.3988
11
232.525
21
-52.76
0
LINE
8
BLACK
6
CONTINUOUS
10
232.525
20
-52.76
11
232.525
21
-96.11
0
LINE
8
BLACK
6
CONTINUOUS
10
232.525
20
-96.11
11
232.508
21
-96.4712
0
LINE
8
BLACK
6
CONTINUOUS
10
232.508
20
-96.4712
11
232.458
21
-96.8294
0
LINE
8
BLACK
6
CONTINUOUS
10
232.458
20
-96.8294
11
232.376
21
-97.1814
0
LINE
8
BLACK
6
CONTINUOUS
10
232.376
20
-97.1814
11
232.261
21
-97.5243
0
LINE
8
BLACK
6
CONTINUOUS
10
232.261
20
-97.5243
11
232.115
21
-97.8551
0
LINE
8
BLACK
6
CONTINUOUS
10
232.115
20
-97.8551
11
231.939
21
-98.171
0
LINE
8
BLACK
6
CONTINUOUS
10
231.939
20
-98.171
11
231.734
21
-98.4693
0
LINE
8
BLACK
6
CONTINUOUS
10
231.734
20
-98.4693
11
231.503
21
-98.7475
0
LINE
8
BLACK
6
CONTINUOUS
10
231.503
20
-98.7475
11
231.248
21
-99.0032
0
LINE
8
BLACK
6
CONTINUOUS
10
231.248
20
-99.0032
11
230.969
21
-99.2342
0
LINE
8
BLACK
6
CONTINUOUS
10
230.969
20
-99.2342
11
230.671
21
-99.4386
0
LINE
8
BLACK
6
CONTINUOUS
10
230.671
20
-99.4386
11
230.355
21
-99.6146
0
LINE
8
BLACK
6
CONTINUOUS
10
230.355
20
-99.6146
11
230.024
21
-99.7606
0
LINE
8
BLACK
6
CONTINUOUS
10
230.024
20
-99.7606
11
229.681
21
-99.8755
0
LINE
8
BLACK
6
CONTINUOUS
10
229.681
20
-99.8755
11
229.329
21
-99.9583
0
LINE
8
BLACK
6
CONTINUOUS
10
229.329
20
-99.9583
11
228.971
21
-100.008
0
LINE
8
BLACK
6
CONTINUOUS
10
228.971
20
-100.008
11
228.61
21
-100.025
0
LINE
8
BLACK
6
CONTINUOUS
10
228.61
20
-100.025
11
71.39
21
-100.025
0
LINE
8
BLACK
6
CONTINUOUS
10
71.39
20
-100.025
11
71.0288
21
-100.008
0
LINE
8
BLACK
6
CONTINUOUS
10
71.3799
20
-48.8908
11
71.0107
21
-48.909
0
LINE
8
BLACK
6
CONTINUOUS
10
71.0107
20
-48.909
11
70.6351
21
-48.9647
0
LINE
8
BLACK
6
CONTINUOUS
10
70.6351
20
-48.9647
11
70.2667
21
-49.057
0
LINE
8
BLACK
6
CONTINUOUS
10
70.2667
20
-49.057
11
69.9091
21
-49.1849
0
LINE
8
BLACK
6
CONTINUOUS
10
69.9091
20
-49.1849
11
69.5659
21
-49.3473
0
LINE
8
BLACK
6
CONTINUOUS
10
69.5659
20
-49.3473
11
69.2401
21
-49.5425
0
LINE
8
BLACK
6
CONTINUOUS
10
69.2401
20
-49.5425
11
68.9351
21
-49.7687
0
LINE
8
BLACK
6
CONTINUOUS
10
68.9351
20
-49.7687
11
68.6537
21
-50.0237
0
LINE
8
BLACK
6
CONTINUOUS
10
68.6537
20
-50.0237
11
68.3987
21
-50.3051
0
LINE
8
BLACK
6
CONTINUOUS
10
68.3987
20
-50.3051
11
68.1725
21
-50.6101
0
LINE
8
BLACK
6
CONTINUOUS
10
68.1725
20
-50.6101
11
67.9773
21
-50.9359
0
LINE
8
BLACK
6
CONTINUOUS
10
67.9773
20
-50.9359
11
67.8149
21
-51.2791
0
LINE
8
BLACK
6
CONTINUOUS
10
67.8149
20
-51.2791
11
67.687
21
-51.6367
0
LINE
8
BLACK
6
CONTINUOUS
10
67.687
20
-51.6367
11
67.5947
21
-52.0051
0
LINE
8
BLACK
6
CONTINUOUS
10
67.5947
20
-52.0051
11
67.539
21
-52.3807
0
LINE
8
BLACK
6
CONTINUOUS
10
67.539
20
-52.3807
11
67.5208
21
-52.7499
0
LINE
8
BLACK
6
CONTINUOUS
10
67.5208
20
-52.7499
11
67.525
21
-52.76
0
LINE
8
BLACK
6
CONTINUOUS
10
67.525
20
-52.76
11
67.525
21
-96.11
0
LINE
8
BLACK
6
CONTINUOUS
10
67.525
20
-96.11
11
67.5208
21
-96.1201
0
LINE
8
BLACK
6
CONTINUOUS
10
67.5208
20
-96.1201
11
67.539
21
-96.4893
0
LINE
8
BLACK
6
CONTINUOUS
10
67.539
20
-96.4893
11
67.5947
21
-96.8649
0
LINE
8
BLACK
6
CONTINUOUS
10
67.5947
20
-96.8649
11
67.687
21
-97.2333
0
LINE
8
BLACK
6
CONTINUOUS
10
67.687
20
-97.2333
11
67.8149
21
-97.5909
0
LINE
8
BLACK
6
CONTINUOUS
10
67.8149
20
-97.5909
11
67.9773
21
-97.9341
0
LINE
8
BLACK
6
CONTINUOUS
10
67.9773
20
-97.9341
11
68.1725
21
-98.2599
0
LINE
8
BLACK
6
CONTINUOUS
10
68.1725
20
-98.2599
11
68.3987
21
-98.5649
0
LINE
8
BLACK
6
CONTINUOUS
10
68.3987
20
-98.5649
11
68.6537
21
-98.8463
0
LINE
8
BLACK
6
CONTINUOUS
10
68.6537
20
-98.8463
11
68.9351
21
-99.1013
0
LINE
8
BLACK
6
CONTINUOUS
10
68.9351
20
-99.1013
11
69.2401
21
-99.3275
0
LINE
8
BLACK
6
CONTINUOUS
10
69.2401
20
-99.3275
11
69.5659
21
-99.5227
0
LINE
8
BLACK
6
CONTINUOUS
10
69.5659
20
-99.5227
11
69.9091
21
-99.6851
0
LINE
8
BLACK
6
CONTINUOUS
10
69.9091
20
-99.6851
11
70.2667
21
-99.813
0
LINE
8
BLACK
6
CONTINUOUS
10
70.2667
20
-99.813
11
70.6351
21
-99.9053
0
LINE
8
BLACK
6
CONTINUOUS
10
70.6351
20
-99.9053
11
71.0107
21
-99.961
0
LINE
8
BLACK
6
CONTINUOUS
10
71.0107
20
-99.961
11
71.3799
21
-99.9792
0
LINE
8
BLACK
6
CONTINUOUS
10
71.3799
20
-99.9792
11
71.39
21
-99.975
0
LINE
8
BLACK
6
CONTINUOUS
10
71.39
20
-99.975
11
228.61
21
-99.975
0
LINE
8
BLACK
6
CONTINUOUS
10
228.61
20
-99.975
11
228.62
21
-99.9792
0
LINE
8
BLACK
6
CONTINUOUS
10
228.62
20
-99.9792
11
228.989
21
-99.961
0
LINE
8
BLACK
6
CONTINUOUS
10
228.989
20
-99.961
11
229.365
21
-99.9053
0
LINE
8
BLACK
6
CONTINUOUS
10
229.365
20
-99.9053
11
229.733
21
-99.813
0
LINE
8
BLACK
6
CONTINUOUS
10
229.733
20
-99.813
11
230.091
21
-99.6851
0
LINE
8
BLACK
6
CONTINUOUS
10
230.091
20
-99.6851
11
230.434
21
-99.5227
0
LINE
8
BLACK
6
CONTINUOUS
10
230.434
20
-99.5227
11
230.76
21
-99.3275
0
LINE
8
BLACK
6
CONTINUOUS
10
230.76
20
-99.3275
11
231.065
21
-99.1013
0
LINE
8
BLACK
6
CONTINUOUS
10
231.065
20
-99.1013
11
231.346
21
-98.8463
0
LINE
8
BLACK
6
CONTINUOUS
10
231.346
20
-98.8463
11
231.601
21
-98.5649
0
LINE
8
BLACK
6
CONTINUOUS
10
231.601
20
-98.5649
11
231.828
21
-98.2599
0
LINE
8
BLACK
6
CONTINUOUS
10
231.828
20
-98.2599
11
232.023
21
-97.9341
0
LINE
8
BLACK
6
CONTINUOUS
10
232.023
20
-97.9341
11
232.185
21
-97.5909
0
LINE
8
BLACK
6
CONTINUOUS
10
232.185
20
-97.5909
11
232.313
21
-97.2333
0
LINE
8
BLACK
6
CONTINUOUS
10
232.313
20
-97.2333
11
232.405
21
-96.8649
0
LINE
8
BLACK
6
CONTINUOUS
10
232.405
20
-96.8649
11
232.461
21
-96.4893
0
LINE
8
BLACK
6
CONTINUOUS
10
232.461
20
-96.4893
11
232.479
21
-96.1201
0
LINE
8
BLACK
6
CONTINUOUS
10
232.479
20
-96.1201
11
232.475
21
-96.11
0
LINE
8
BLACK
6
CONTINUOUS
10
232.475
20
-96.11
11
232.475
21
-52.76
0
LINE
8
BLACK
6
CONTINUOUS
10
232.475
20
-52.76
11
232.479
21
-52.7499
0
LINE
8
BLACK
6
CONTINUOUS
10
232.479
20
-52.7499
11
232.461
21
-52.3807
0
LINE
8
BLACK
6
CONTINUOUS
10
232.461
20
-52.3807
11
232.405
21
-52.0051
0
LINE
8
BLACK
6
CONTINUOUS
10
232.405
20
-52.0051
11
232.313
21
-51.6367
0
LINE
8
BLACK
6
CONTINUOUS
10
232.313
20
-51.6367
11
232.185
21
-51.2791
0
LINE
8
BLACK
6
CONTINUOUS
10
232.185
20
-51.2791
11
232.023
21
-50.9359
0
LINE
8
BLACK
6
CONTINUOUS
10
232.023
20
-50.9359
11
231.828
21
-50.6101
0
LINE
8
BLACK
6
CONTINUOUS
10
231.828
20
-50.6101
11
231.601
21
-50.3051
0
LINE
8
BLACK
6
CONTINUOUS
10
231.601
20
-50.3051
11
231.346
21
-50.0237
0
LINE
8
BLACK
6
CONTINUOUS
10
231.346
20
-50.0237
11
231.065
21
-49.7687
0
LINE
8
BLACK
6
CONTINUOUS
10
231.065
20
-49.7687
11
230.76
21
-49.5425
0
LINE
8
BLACK
6
CONTINUOUS
10
230.76
20
-49.5425
11
230.434
21
-49.3473
0
LINE
8
BLACK
6
CONTINUOUS
10
230.434
20
-49.3473
11
230.091
21
-49.1849
0
LINE
8
BLACK
6
CONTINUOUS
10
230.091
20
-49.1849
11
229.733
21
-49.057
0
LINE
8
BLACK
6
CONTINUOUS
10
229.733
20
-49.057
11
229.365
21
-48.9647
0
LINE
8
BLACK
6
CONTINUOUS
10
229.365
20
-48.9647
11
228.989
21
-48.909
0
LINE
8
BLACK
6
CONTINUOUS
10
228.989
20
-48.909
11
228.62
21
-48.8908
0
LINE
8
BLACK
6
CONTINUOUS
10
228.62
20
-48.8908
11
228.61
21
-48.895
0
LINE
8
BLACK
6
CONTINUOUS
10
228.61
20
-48.895
11
71.39
21
-48.895
0
LINE
8
BLACK
6
CONTINUOUS
10
71.39
20
-48.895
11
71.3799
21
-48.8908
0
LINE
8
BLACK
6
CONTINUOUS
10
92.4076
20
-95.9424
11
92.39
21
-95.9
0
LINE
8
BLACK
6
CONTINUOUS
10
92.39
20
-95.9
11
92.39
21
-94.8485
0
LINE
8
BLACK
6
CONTINUOUS
10
92.39
20
-94.8485
11
91.8626
21
-94.7358
0
LINE
8
BLACK
6
CONTINUOUS
10
91.8626
20
-94.7358
11
91.2953
21
-94.5745
0
LINE
8
BLACK
6
CONTINUOUS
10
91.2953
20
-94.5745
11
90.74
21
-94.3758
0
LINE
8
BLACK
6
CONTINUOUS
10
90.74
20
-94.3758
11
90.1991
21
-94.1405
0
LINE
8
BLACK
6
CONTINUOUS
10
90.1991
20
-94.1405
11
89.6751
21
-93.8697
0
LINE
8
BLACK
6
CONTINUOUS
10
89.6751
20
-93.8697
11
89.1703
21
-93.5647
0
LINE
8
BLACK
6
CONTINUOUS
10
89.1703
20
-93.5647
11
88.6869
21
-93.2267
0
LINE
8
BLACK
6
CONTINUOUS
10
88.6869
20
-93.2267
11
88.2271
21
-92.8573
0
LINE
8
BLACK
6
CONTINUOUS
10
88.2271
20
-92.8573
11
87.7929
21
-92.4581
0
LINE
8
BLACK
6
CONTINUOUS
10
87.7929
20
-92.4581
11
87.3862
21
-92.0309
0
LINE
8
BLACK
6
CONTINUOUS
10
87.3862
20
-92.0309
11
87.0089
21
-91.5776
0
LINE
8
BLACK
6
CONTINUOUS
10
87.0089
20
-91.5776
11
86.6626
21
-91.1002
0
LINE
8
BLACK
6
CONTINUOUS
10
86.6626
20
-91.1002
11
86.3488
21
-90.6008
0
LINE
8
BLACK
6
CONTINUOUS
10
86.3488
20
-90.6008
11
86.069
21
-90.0815
0
LINE
8
BLACK
6
CONTINUOUS
10
86.069
20
-90.0815
11
85.8243
21
-89.5449
0
LINE
8
BLACK
6
CONTINUOUS
10
85.8243
20
-89.5449
11
85.6159
21
-88.9931
0
LINE
8
BLACK
6
CONTINUOUS
10
85.6159
20
-88.9931
11
85.4448
21
-88.4286
0
LINE
8
BLACK
6
CONTINUOUS
10
85.4448
20
-88.4286
11
85.3115
21
-87.8541
0
LINE
8
BLACK
6
CONTINUOUS
10
85.3115
20
-87.8541
11
85.2168
21
-87.2719
0
LINE
8
BLACK
6
CONTINUOUS
10
85.2168
20
-87.2719
11
85.1611
21
-86.6847
0
LINE
8
BLACK
6
CONTINUOUS
10
85.1611
20
-86.6847
11
85.1446
21
-86.0951
0
LINE
8
BLACK
6
CONTINUOUS
10
85.1446
20
-86.0951
11
85.1674
21
-85.5058
0
LINE
8
BLACK
6
CONTINUOUS
10
85.1674
20
-85.5058
11
85.2293
21
-84.9192
0
LINE
8
BLACK
6
CONTINUOUS
10
85.2293
20
-84.9192
11
85.3302
21
-84.3381
0
LINE
8
BLACK
6
CONTINUOUS
10
85.3302
20
-84.3381
11
85.4695
21
-83.765
0
LINE
8
BLACK
6
CONTINUOUS
10
85.4695
20
-83.765
11
85.6467
21
-83.2024
0
LINE
8
BLACK
6
CONTINUOUS
10
85.6467
20
-83.2024
11
85.8609
21
-82.6528
0
LINE
8
BLACK
6
CONTINUOUS
10
85.8609
20
-82.6528
11
86.1112
21
-82.1188
0
LINE
8
BLACK
6
CONTINUOUS
10
86.1112
20
-82.1188
11
86.3965
21
-81.6026
0
LINE
8
BLACK
6
CONTINUOUS
10
86.3965
20
-81.6026
11
86.7156
21
-81.1065
0
LINE
8
BLACK
6
CONTINUOUS
10
86.7156
20
-81.1065
11
87.0669
21
-80.6328
0
LINE
8
BLACK
6
CONTINUOUS
10
87.0669
20
-80.6328
11
87.4491
21
-80.1835
0
LINE
8
BLACK
6
CONTINUOUS
10
87.4491
20
-80.1835
11
87.8602
21
-79.7606
0
LINE
8
BLACK
6
CONTINUOUS
10
87.8602
20
-79.7606
11
88.2987
21
-79.366
0
LINE
8
BLACK
6
CONTINUOUS
10
88.2987
20
-79.366
11
88.7624
21
-79.0015
0
LINE
8
BLACK
6
CONTINUOUS
10
88.7624
20
-79.0015
11
89.2493
21
-78.6687
0
LINE
8
BLACK
6
CONTINUOUS
10
89.2493
20
-78.6687
11
89.7573
21
-78.3691
0
LINE
8
BLACK
6
CONTINUOUS
10
89.7573
20
-78.3691
11
90.2842
21
-78.1039
0
LINE
8
BLACK
6
CONTINUOUS
10
90.2842
20
-78.1039
11
90.8275
21
-77.8744
0
LINE
8
BLACK
6
CONTINUOUS
10
90.8275
20
-77.8744
11
91.3849
21
-77.6815
0
LINE
8
BLACK
6
CONTINUOUS
10
91.3849
20
-77.6815
11
91.9539
21
-77.5262
0
LINE
8
BLACK
6
CONTINUOUS
10
91.9539
20
-77.5262
11
92.532
21
-77.4091
0
LINE
8
BLACK
6
CONTINUOUS
10
92.532
20
-77.4091
11
93.1166
21
-77.3308
0
LINE
8
BLACK
6
CONTINUOUS
10
93.1166
20
-77.3308
11
93.7051
21
-77.2915
0
LINE
8
BLACK
6
CONTINUOUS
10
93.7051
20
-77.2915
11
94.2949
21
-77.2915
0
LINE
8
BLACK
6
CONTINUOUS
10
94.2949
20
-77.2915
11
94.8834
21
-77.3308
0
LINE
8
BLACK
6
CONTINUOUS
10
94.8834
20
-77.3308
11
95.468
21
-77.4091
0
LINE
8
BLACK
6
CONTINUOUS
10
95.468
20
-77.4091
11
96.0461
21
-77.5262
0
LINE
8
BLACK
6
CONTINUOUS
10
96.0461
20
-77.5262
11
96.6151
21
-77.6815
0
LINE
8
BLACK
6
CONTINUOUS
10
96.6151
20
-77.6815
11
97.1725
21
-77.8744
0
LINE
8
BLACK
6
CONTINUOUS
10
97.1725
20
-77.8744
11
97.7158
21
-78.1039
0
LINE
8
BLACK
6
CONTINUOUS
10
97.7158
20
-78.1039
11
98.2427
21
-78.3691
0
LINE
8
BLACK
6
CONTINUOUS
10
98.2427
20
-78.3691
11
98.7507
21
-78.6687
0
LINE
8
BLACK
6
CONTINUOUS
10
98.7507
20
-78.6687
11
99.2376
21
-79.0015
0
LINE
8
BLACK
6
CONTINUOUS
10
99.2376
20
-79.0015
11
99.7013
21
-79.366
0
LINE
8
BLACK
6
CONTINUOUS
10
99.7013
20
-79.366
11
100.14
21
-79.7606
0
LINE
8
BLACK
6
CONTINUOUS
10
100.14
20
-79.7606
11
100.551
21
-80.1835
0
LINE
8
BLACK
6
CONTINUOUS
10
100.551
20
-80.1835
11
100.933
21
-80.6328
0
LINE
8
BLACK
6
CONTINUOUS
10
100.933
20
-80.6328
11
101.284
21
-81.1065
0
LINE
8
BLACK
6
CONTINUOUS
10
101.284
20
-81.1065
11
101.603
21
-81.6026
0
LINE
8
BLACK
6
CONTINUOUS
10
101.603
20
-81.6026
11
101.889
21
-82.1188
0
LINE
8
BLACK
6
CONTINUOUS
10
101.889
20
-82.1188
11
102.139
21
-82.6528
0
LINE
8
BLACK
6
CONTINUOUS
10
102.139
20
-82.6528
11
102.353
21
-83.2024
0
LINE
8
BLACK
6
CONTINUOUS
10
102.353
20
-83.2024
11
102.531
21
-83.765
0
LINE
8
BLACK
6
CONTINUOUS
10
102.531
20
-83.765
11
102.67
21
-84.3381
0
LINE
8
BLACK
6
CONTINUOUS
10
102.67
20
-84.3381
11
102.771
21
-84.9192
0
LINE
8
BLACK
6
CONTINUOUS
10
102.771
20
-84.9192
11
102.833
21
-85.5058
0
LINE
8
BLACK
6
CONTINUOUS
10
102.833
20
-85.5058
11
102.855
21
-86.0951
0
LINE
8
BLACK
6
CONTINUOUS
10
102.855
20
-86.0951
11
102.839
21
-86.6847
0
LINE
8
BLACK
6
CONTINUOUS
10
102.839
20
-86.6847
11
102.783
21
-87.2719
0
LINE
8
BLACK
6
CONTINUOUS
10
102.783
20
-87.2719
11
102.688
21
-87.8541
0
LINE
8
BLACK
6
CONTINUOUS
10
102.688
20
-87.8541
11
102.555
21
-88.4286
0
LINE
8
BLACK
6
CONTINUOUS
10
102.555
20
-88.4286
11
102.384
21
-88.9931
0
LINE
8
BLACK
6
CONTINUOUS
10
102.384
20
-88.9931
11
102.176
21
-89.5449
0
LINE
8
BLACK
6
CONTINUOUS
10
102.176
20
-89.5449
11
101.931
21
-90.0815
0
LINE
8
BLACK
6
CONTINUOUS
10
101.931
20
-90.0815
11
101.651
21
-90.6008
0
LINE
8
BLACK
6
CONTINUOUS
10
101.651
20
-90.6008
11
101.337
21
-91.1002
0
LINE
8
BLACK
6
CONTINUOUS
10
101.337
20
-91.1002
11
100.991
21
-91.5776
0
LINE
8
BLACK
6
CONTINUOUS
10
100.991
20
-91.5776
11
100.614
21
-92.0309
0
LINE
8
BLACK
6
CONTINUOUS
10
100.614
20
-92.0309
11
100.207
21
-92.4581
0
LINE
8
BLACK
6
CONTINUOUS
10
100.207
20
-92.4581
11
99.7729
21
-92.8573
0
LINE
8
BLACK
6
CONTINUOUS
10
99.7729
20
-92.8573
11
99.3131
21
-93.2267
0
LINE
8
BLACK
6
CONTINUOUS
10
99.3131
20
-93.2267
11
98.8297
21
-93.5647
0
LINE
8
BLACK
6
CONTINUOUS
10
98.8297
20
-93.5647
11
98.3249
21
-93.8697
0
LINE
8
BLACK
6
CONTINUOUS
10
98.3249
20
-93.8697
11
97.8009
21
-94.1405
0
LINE
8
BLACK
6
CONTINUOUS
10
97.8009
20
-94.1405
11
97.26
21
-94.3758
0
LINE
8
BLACK
6
CONTINUOUS
10
97.26
20
-94.3758
11
96.7047
21
-94.5745
0
LINE
8
BLACK
6
CONTINUOUS
10
96.7047
20
-94.5745
11
96.1374
21
-94.7358
0
LINE
8
BLACK
6
CONTINUOUS
10
96.1374
20
-94.7358
11
95.61
21
-94.8485
0
LINE
8
BLACK
6
CONTINUOUS
10
95.61
20
-94.8485
11
95.61
21
-95.9
0
LINE
8
BLACK
6
CONTINUOUS
10
95.61
20
-95.9
11
95.5924
21
-95.9424
0
LINE
8
BLACK
6
CONTINUOUS
10
95.5924
20
-95.9424
11
95.55
21
-95.96
0
LINE
8
BLACK
6
CONTINUOUS
10
95.55
20
-95.96
11
92.45
21
-95.96
0
LINE
8
BLACK
6
CONTINUOUS
10
92.45
20
-95.96
11
92.4076
21
-95.9424
0
LINE
8
BLACK
6
CONTINUOUS
10
93.7089
20
-77.4066
11
93.1281
21
-77.4453
0
LINE
8
BLACK
6
CONTINUOUS
10
93.1281
20
-77.4453
11
92.5511
21
-77.5226
0
LINE
8
BLACK
6
CONTINUOUS
10
92.5511
20
-77.5226
11
91.9805
21
-77.6382
0
LINE
8
BLACK
6
CONTINUOUS
10
91.9805
20
-77.6382
11
91.4189
21
-77.7915
0
LINE
8
BLACK
6
CONTINUOUS
10
91.4189
20
-77.7915
11
90.8688
21
-77.9818
0
LINE
8
BLACK
6
CONTINUOUS
10
90.8688
20
-77.9818
11
90.3325
21
-78.2084
0
LINE
8
BLACK
6
CONTINUOUS
10
90.3325
20
-78.2084
11
89.8125
21
-78.4701
0
LINE
8
BLACK
6
CONTINUOUS
10
89.8125
20
-78.4701
11
89.3111
21
-78.7659
0
LINE
8
BLACK
6
CONTINUOUS
10
89.3111
20
-78.7659
11
88.8305
21
-79.0944
0
LINE
8
BLACK
6
CONTINUOUS
10
88.8305
20
-79.0944
11
88.3728
21
-79.4541
0
LINE
8
BLACK
6
CONTINUOUS
10
88.3728
20
-79.4541
11
87.9401
21
-79.8435
0
LINE
8
BLACK
6
CONTINUOUS
10
87.9401
20
-79.8435
11
87.5342
21
-80.2609
0
LINE
8
BLACK
6
CONTINUOUS
10
87.5342
20
-80.2609
11
87.1571
21
-80.7044
0
LINE
8
BLACK
6
CONTINUOUS
10
87.1571
20
-80.7044
11
86.8103
21
-81.1719
0
LINE
8
BLACK
6
CONTINUOUS
10
86.8103
20
-81.1719
11
86.4954
21
-81.6616
0
LINE
8
BLACK
6
CONTINUOUS
10
86.4954
20
-81.6616
11
86.2138
21
-82.1711
0
LINE
8
BLACK
6
CONTINUOUS
10
86.2138
20
-82.1711
11
85.9667
21
-82.6982
0
LINE
8
BLACK
6
CONTINUOUS
10
85.9667
20
-82.6982
11
85.7552
21
-83.2406
0
LINE
8
BLACK
6
CONTINUOUS
10
85.7552
20
-83.2406
11
85.5804
21
-83.7959
0
LINE
8
BLACK
6
CONTINUOUS
10
85.5804
20
-83.7959
11
85.4429
21
-84.3615
0
LINE
8
BLACK
6
CONTINUOUS
10
85.4429
20
-84.3615
11
85.3433
21
-84.9351
0
LINE
8
BLACK
6
CONTINUOUS
10
85.3433
20
-84.9351
11
85.2822
21
-85.514
0
LINE
8
BLACK
6
CONTINUOUS
10
85.2822
20
-85.514
11
85.2597
21
-86.0958
0
LINE
8
BLACK
6
CONTINUOUS
10
85.2597
20
-86.0958
11
85.276
21
-86.6777
0
LINE
8
BLACK
6
CONTINUOUS
10
85.276
20
-86.6777
11
85.331
21
-87.2572
0
LINE
8
BLACK
6
CONTINUOUS
10
85.331
20
-87.2572
11
85.4245
21
-87.8318
0
LINE
8
BLACK
6
CONTINUOUS
10
85.4245
20
-87.8318
11
85.556
21
-88.3989
0
LINE
8
BLACK
6
CONTINUOUS
10
85.556
20
-88.3989
11
85.7249
21
-88.956
0
LINE
8
BLACK
6
CONTINUOUS
10
85.7249
20
-88.956
11
85.9306
21
-89.5006
0
LINE
8
BLACK
6
CONTINUOUS
10
85.9306
20
-89.5006
11
86.1721
21
-90.0303
0
LINE
8
BLACK
6
CONTINUOUS
10
86.1721
20
-90.0303
11
86.4483
21
-90.5428
0
LINE
8
BLACK
6
CONTINUOUS
10
86.4483
20
-90.5428
11
86.7579
21
-91.0357
0
LINE
8
BLACK
6
CONTINUOUS
10
86.7579
20
-91.0357
11
87.0998
21
-91.507
0
LINE
8
BLACK
6
CONTINUOUS
10
87.0998
20
-91.507
11
87.4722
21
-91.9544
0
LINE
8
BLACK
6
CONTINUOUS
10
87.4722
20
-91.9544
11
87.8736
21
-92.376
0
LINE
8
BLACK
6
CONTINUOUS
10
87.8736
20
-92.376
11
88.3021
21
-92.77
0
LINE
8
BLACK
6
CONTINUOUS
10
88.3021
20
-92.77
11
88.756
21
-93.1346
0
LINE
8
BLACK
6
CONTINUOUS
10
88.756
20
-93.1346
11
89.2331
21
-93.4682
0
LINE
8
BLACK
6
CONTINUOUS
10
89.2331
20
-93.4682
11
89.7313
21
-93.7693
0
LINE
8
BLACK
6
CONTINUOUS
10
89.7313
20
-93.7693
11
90.2485
21
-94.0365
0
LINE
8
BLACK
6
CONTINUOUS
10
90.2485
20
-94.0365
11
90.7824
21
-94.2687
0
LINE
8
BLACK
6
CONTINUOUS
10
90.7824
20
-94.2687
11
91.3305
21
-94.4649
0
LINE
8
BLACK
6
CONTINUOUS
10
91.3305
20
-94.4649
11
91.8904
21
-94.6241
0
LINE
8
BLACK
6
CONTINUOUS
10
91.8904
20
-94.6241
11
92.4446
21
-94.7425
0
LINE
8
BLACK
6
CONTINUOUS
10
92.4446
20
-94.7425
11
92.45
21
-94.7403
0
LINE
8
BLACK
6
CONTINUOUS
10
92.45
20
-94.7403
11
92.4547
21
-94.7422
0
LINE
8
BLACK
6
CONTINUOUS
10
92.4547
20
-94.7422
11
92.4606
21
-94.7409
0
LINE
8
BLACK
6
CONTINUOUS
10
92.4606
20
-94.7409
11
92.477
21
-94.7514
0
LINE
8
BLACK
6
CONTINUOUS
10
92.477
20
-94.7514
11
92.4924
21
-94.7578
0
LINE
8
BLACK
6
CONTINUOUS
10
92.4924
20
-94.7578
11
92.4944
21
-94.7626
0
LINE
8
BLACK
6
CONTINUOUS
10
92.4944
20
-94.7626
11
92.4992
21
-94.7657
0
LINE
8
BLACK
6
CONTINUOUS
10
92.4992
20
-94.7657
11
92.5032
21
-94.7839
0
LINE
8
BLACK
6
CONTINUOUS
10
92.5032
20
-94.7839
11
92.51
21
-94.8003
0
LINE
8
BLACK
6
CONTINUOUS
10
92.51
20
-94.8003
11
92.51
21
-95.84
0
LINE
8
BLACK
6
CONTINUOUS
10
92.51
20
-95.84
11
95.49
21
-95.84
0
LINE
8
BLACK
6
CONTINUOUS
10
95.49
20
-95.84
11
95.49
21
-94.8
0
LINE
8
BLACK
6
CONTINUOUS
10
95.49
20
-94.8
11
95.4969
21
-94.7833
0
LINE
8
BLACK
6
CONTINUOUS
10
95.4969
20
-94.7833
11
95.5008
21
-94.7657
0
LINE
8
BLACK
6
CONTINUOUS
10
95.5008
20
-94.7657
11
95.5054
21
-94.7627
0
LINE
8
BLACK
6
CONTINUOUS
10
95.5054
20
-94.7627
11
95.5076
21
-94.7576
0
LINE
8
BLACK
6
CONTINUOUS
10
95.5076
20
-94.7576
11
95.5242
21
-94.7507
0
LINE
8
BLACK
6
CONTINUOUS
10
95.5242
20
-94.7507
11
95.5394
21
-94.7409
0
LINE
8
BLACK
6
CONTINUOUS
10
95.5394
20
-94.7409
11
95.5449
21
-94.7421
0
LINE
8
BLACK
6
CONTINUOUS
10
95.5449
20
-94.7421
11
95.55
21
-94.74
0
LINE
8
BLACK
6
CONTINUOUS
10
95.55
20
-94.74
11
95.5558
21
-94.7424
0
LINE
8
BLACK
6
CONTINUOUS
10
95.5558
20
-94.7424
11
96.1096
21
-94.6241
0
LINE
8
BLACK
6
CONTINUOUS
10
96.1096
20
-94.6241
11
96.6695
21
-94.4649
0
LINE
8
BLACK
6
CONTINUOUS
10
96.6695
20
-94.4649
11
97.2176
21
-94.2687
0
LINE
8
BLACK
6
CONTINUOUS
10
97.2176
20
-94.2687
11
97.7515
21
-94.0365
0
LINE
8
BLACK
6
CONTINUOUS
10
97.7515
20
-94.0365
11
98.2687
21
-93.7693
0
LINE
8
BLACK
6
CONTINUOUS
10
98.2687
20
-93.7693
11
98.7669
21
-93.4682
0
LINE
8
BLACK
6
CONTINUOUS
10
98.7669
20
-93.4682
11
99.244
21
-93.1346
0
LINE
8
BLACK
6
CONTINUOUS
10
99.244
20
-93.1346
11
99.6979
21
-92.77
0
LINE
8
BLACK
6
CONTINUOUS
10
99.6979
20
-92.77
11
100.126
21
-92.376
0
LINE
8
BLACK
6
CONTINUOUS
10
100.126
20
-92.376
11
100.528
21
-91.9544
0
LINE
8
BLACK
6
CONTINUOUS
10
100.528
20
-91.9544
11
100.9
21
-91.507
0
LINE
8
BLACK
6
CONTINUOUS
10
100.9
20
-91.507
11
101.242
21
-91.0357
0
LINE
8
BLACK
6
CONTINUOUS
10
101.242
20
-91.0357
11
101.552
21
-90.5428
0
LINE
8
BLACK
6
CONTINUOUS
10
101.552
20
-90.5428
11
101.828
21
-90.0303
0
LINE
8
BLACK
6
CONTINUOUS
10
101.828
20
-90.0303
11
102.069
21
-89.5006
0
LINE
8
BLACK
6
CONTINUOUS
10
102.069
20
-89.5006
11
102.275
21
-88.956
0
LINE
8
BLACK
6
CONTINUOUS
10
102.275
20
-88.956
11
102.444
21
-88.3989
0
LINE
8
BLACK
6
CONTINUOUS
10
102.444
20
-88.3989
11
102.576
21
-87.8318
0
LINE
8
BLACK
6
CONTINUOUS
10
102.576
20
-87.8318
11
102.669
21
-87.2572
0
LINE
8
BLACK
6
CONTINUOUS
10
102.669
20
-87.2572
11
102.724
21
-86.6777
0
LINE
8
BLACK
6
CONTINUOUS
10
102.724
20
-86.6777
11
102.74
21
-86.0958
0
LINE
8
BLACK
6
CONTINUOUS
10
102.74
20
-86.0958
11
102.718
21
-85.514
0
LINE
8
BLACK
6
CONTINUOUS
10
102.718
20
-85.514
11
102.657
21
-84.9351
0
LINE
8
BLACK
6
CONTINUOUS
10
102.657
20
-84.9351
11
102.557
21
-84.3615
0
LINE
8
BLACK
6
CONTINUOUS
10
102.557
20
-84.3615
11
102.42
21
-83.7959
0
LINE
8
BLACK
6
CONTINUOUS
10
102.42
20
-83.7959
11
102.245
21
-83.2406
0
LINE
8
BLACK
6
CONTINUOUS
10
102.245
20
-83.2406
11
102.033
21
-82.6982
0
LINE
8
BLACK
6
CONTINUOUS
10
102.033
20
-82.6982
11
101.786
21
-82.1711
0
LINE
8
BLACK
6
CONTINUOUS
10
101.786
20
-82.1711
11
101.505
21
-81.6616
0
LINE
8
BLACK
6
CONTINUOUS
10
101.505
20
-81.6616
11
101.19
21
-81.1719
0
LINE
8
BLACK
6
CONTINUOUS
10
101.19
20
-81.1719
11
100.843
21
-80.7044
0
LINE
8
BLACK
6
CONTINUOUS
10
100.843
20
-80.7044
11
100.466
21
-80.2609
0
LINE
8
BLACK
6
CONTINUOUS
10
100.466
20
-80.2609
11
100.06
21
-79.8435
0
LINE
8
BLACK
6
CONTINUOUS
10
100.06
20
-79.8435
11
99.6272
21
-79.4541
0
LINE
8
BLACK
6
CONTINUOUS
10
99.6272
20
-79.4541
11
99.1695
21
-79.0944
0
LINE
8
BLACK
6
CONTINUOUS
10
99.1695
20
-79.0944
11
98.6889
21
-78.7659
0
LINE
8
BLACK
6
CONTINUOUS
10
98.6889
20
-78.7659
11
98.1875
21
-78.4701
0
LINE
8
BLACK
6
CONTINUOUS
10
98.1875
20
-78.4701
11
97.6675
21
-78.2084
0
LINE
8
BLACK
6
CONTINUOUS
10
97.6675
20
-78.2084
11
97.1312
21
-77.9818
0
LINE
8
BLACK
6
CONTINUOUS
10
97.1312
20
-77.9818
11
96.5811
21
-77.7915
0
LINE
8
BLACK
6
CONTINUOUS
10
96.5811
20
-77.7915
11
96.0195
21
-77.6382
0
LINE
8
BLACK
6
CONTINUOUS
10
96.0195
20
-77.6382
11
95.4489
21
-77.5226
0
LINE
8
BLACK
6
CONTINUOUS
10
95.4489
20
-77.5226
11
94.8719
21
-77.4453
0
LINE
8
BLACK
6
CONTINUOUS
10
94.8719
20
-77.4453
11
94.2911
21
-77.4066
0
LINE
8
BLACK
6
CONTINUOUS
10
94.2911
20
-77.4066
11
93.7089
21
-77.4066
0
LINE
8
BLACK
6
CONTINUOUS
10
132.408
20
-95.9424
11
132.39
21
-95.9
0
LINE
8
BLACK
6
CONTINUOUS
10
132.39
20
-95.9
11
132.39
21
-94.8485
0
LINE
8
BLACK
6
CONTINUOUS
10
132.39
20
-94.8485
11
131.863
21
-94.7358
0
LINE
8
BLACK
6
CONTINUOUS
10
131.863
20
-94.7358
11
131.295
21
-94.5745
0
LINE
8
BLACK
6
CONTINUOUS
10
131.295
20
-94.5745
11
130.74
21
-94.3758
0
LINE
8
BLACK
6
CONTINUOUS
10
130.74
20
-94.3758
11
130.199
21
-94.1405
0
LINE
8
BLACK
6
CONTINUOUS
10
130.199
20
-94.1405
11
129.675
21
-93.8697
0
LINE
8
BLACK
6
CONTINUOUS
10
129.675
20
-93.8697
11
129.17
21
-93.5647
0
LINE
8
BLACK
6
CONTINUOUS
10
129.17
20
-93.5647
11
128.687
21
-93.2267
0
LINE
8
BLACK
6
CONTINUOUS
10
128.687
20
-93.2267
11
128.227
21
-92.8573
0
LINE
8
BLACK
6
CONTINUOUS
10
128.227
20
-92.8573
11
127.793
21
-92.4581
0
LINE
8
BLACK
6
CONTINUOUS
10
127.793
20
-92.4581
11
127.386
21
-92.0309
0
LINE
8
BLACK
6
CONTINUOUS
10
127.386
20
-92.0309
11
127.009
21
-91.5776
0
LINE
8
BLACK
6
CONTINUOUS
10
127.009
20
-91.5776
11
126.663
21
-91.1002
0
LINE
8
BLACK
6
CONTINUOUS
10
126.663
20
-91.1002
11
126.349
21
-90.6008
0
LINE
8
BLACK
6
CONTINUOUS
10
126.349
20
-90.6008
11
126.069
21
-90.0815
0
LINE
8
BLACK
6
CONTINUOUS
10
126.069
20
-90.0815
11
125.824
21
-89.5449
0
LINE
8
BLACK
6
CONTINUOUS
10
125.824
20
-89.5449
11
125.616
21
-88.9931
0
LINE
8
BLACK
6
CONTINUOUS
10
125.616
20
-88.9931
11
125.445
21
-88.4286
0
LINE
8
BLACK
6
CONTINUOUS
10
125.445
20
-88.4286
11
125.312
21
-87.8541
0
LINE
8
BLACK
6
CONTINUOUS
10
125.312
20
-87.8541
11
125.217
21
-87.2719
0
LINE
8
BLACK
6
CONTINUOUS
10
125.217
20
-87.2719
11
125.161
21
-86.6847
0
LINE
8
BLACK
6
CONTINUOUS
10
125.161
20
-86.6847
11
125.145
21
-86.0951
0
LINE
8
BLACK
6
CONTINUOUS
10
125.145
20
-86.0951
11
125.167
21
-85.5058
0
LINE
8
BLACK
6
CONTINUOUS
10
125.167
20
-85.5058
11
125.229
21
-84.9192
0
LINE
8
BLACK
6
CONTINUOUS
10
125.229
20
-84.9192
11
125.33
21
-84.3381
0
LINE
8
BLACK
6
CONTINUOUS
10
125.33
20
-84.3381
11
125.469
21
-83.765
0
LINE
8
BLACK
6
CONTINUOUS
10
125.469
20
-83.765
11
125.647
21
-83.2024
0
LINE
8
BLACK
6
CONTINUOUS
10
125.647
20
-83.2024
11
125.861
21
-82.6528
0
LINE
8
BLACK
6
CONTINUOUS
10
125.861
20
-82.6528
11
126.111
21
-82.1188
0
LINE
8
BLACK
6
CONTINUOUS
10
126.111
20
-82.1188
11
126.397
21
-81.6026
0
LINE
8
BLACK
6
CONTINUOUS
10
126.397
20
-81.6026
11
126.716
21
-81.1065
0
LINE
8
BLACK
6
CONTINUOUS
10
126.716
20
-81.1065
11
127.067
21
-80.6328
0
LINE
8
BLACK
6
CONTINUOUS
10
127.067
20
-80.6328
11
127.449
21
-80.1835
0
LINE
8
BLACK
6
CONTINUOUS
10
127.449
20
-80.1835
11
127.86
21
-79.7606
0
LINE
8
BLACK
6
CONTINUOUS
10
127.86
20
-79.7606
11
128.299
21
-79.366
0
LINE
8
BLACK
6
CONTINUOUS
10
128.299
20
-79.366
11
128.762
21
-79.0015
0
LINE
8
BLACK
6
CONTINUOUS
10
128.762
20
-79.0015
11
129.249
21
-78.6687
0
LINE
8
BLACK
6
CONTINUOUS
10
129.249
20
-78.6687
11
129.757
21
-78.3691
0
LINE
8
BLACK
6
CONTINUOUS
10
129.757
20
-78.3691
11
130.284
21
-78.1039
0
LINE
8
BLACK
6
CONTINUOUS
10
130.284
20
-78.1039
11
130.828
21
-77.8744
0
LINE
8
BLACK
6
CONTINUOUS
10
130.828
20
-77.8744
11
131.385
21
-77.6815
0
LINE
8
BLACK
6
CONTINUOUS
10
131.385
20
-77.6815
11
131.954
21
-77.5262
0
LINE
8
BLACK
6
CONTINUOUS
10
131.954
20
-77.5262
11
132.532
21
-77.4091
0
LINE
8
BLACK
6
CONTINUOUS
10
132.532
20
-77.4091
11
133.117
21
-77.3308
0
LINE
8
BLACK
6
CONTINUOUS
10
133.117
20
-77.3308
11
133.705
21
-77.2915
0
LINE
8
BLACK
6
CONTINUOUS
10
133.705
20
-77.2915
11
134.295
21
-77.2915
0
LINE
8
BLACK
6
CONTINUOUS
10
134.295
20
-77.2915
11
134.883
21
-77.3308
0
LINE
8
BLACK
6
CONTINUOUS
10
134.883
20
-77.3308
11
135.468
21
-77.4091
0
LINE
8
BLACK
6
CONTINUOUS
10
135.468
20
-77.4091
11
136.046
21
-77.5262
0
LINE
8
BLACK
6
CONTINUOUS
10
136.046
20
-77.5262
11
136.615
21
-77.6815
0
LINE
8
BLACK
6
CONTINUOUS
10
136.615
20
-77.6815
11
137.172
21
-77.8744
0
LINE
8
BLACK
6
CONTINUOUS
10
137.172
20
-77.8744
11
137.716
21
-78.1039
0
LINE
8
BLACK
6
CONTINUOUS
10
137.716
20
-78.1039
11
138.243
21
-78.3691
0
LINE
8
BLACK
6
CONTINUOUS
10
138.243
20
-78.3691
11
138.751
21
-78.6687
0
LINE
8
BLACK
6
CONTINUOUS
10
138.751
20
-78.6687
11
139.238
21
-79.0015
0
LINE
8
BLACK
6
CONTINUOUS
10
139.238
20
-79.0015
11
139.701
21
-79.366
0
LINE
8
BLACK
6
CONTINUOUS
10
139.701
20
-79.366
11
140.14
21
-79.7606
0
LINE
8
BLACK
6
CONTINUOUS
10
140.14
20
-79.7606
11
140.551
21
-80.1835
0
LINE
8
BLACK
6
CONTINUOUS
10
140.551
20
-80.1835
11
140.933
21
-80.6328
0
LINE
8
BLACK
6
CONTINUOUS
10
140.933
20
-80.6328
11
141.284
21
-81.1065
0
LINE
8
BLACK
6
CONTINUOUS
10
141.284
20
-81.1065
11
141.603
21
-81.6026
0
LINE
8
BLACK
6
CONTINUOUS
10
141.603
20
-81.6026
11
141.889
21
-82.1188
0
LINE
8
BLACK
6
CONTINUOUS
10
141.889
20
-82.1188
11
142.139
21
-82.6528
0
LINE
8
BLACK
6
CONTINUOUS
10
142.139
20
-82.6528
11
142.353
21
-83.2024
0
LINE
8
BLACK
6
CONTINUOUS
10
142.353
20
-83.2024
11
142.531
21
-83.765
0
LINE
8
BLACK
6
CONTINUOUS
10
142.531
20
-83.765
11
142.67
21
-84.3381
0
LINE
8
BLACK
6
CONTINUOUS
10
142.67
20
-84.3381
11
142.771
21
-84.9192
0
LINE
8
BLACK
6
CONTINUOUS
10
142.771
20
-84.9192
11
142.833
21
-85.5058
0
LINE
8
BLACK
6
CONTINUOUS
10
142.833
20
-85.5058
11
142.855
21
-86.0951
0
LINE
8
BLACK
6
CONTINUOUS
10
142.855
20
-86.0951
11
142.839
21
-86.6847
0
LINE
8
BLACK
6
CONTINUOUS
10
142.839
20
-86.6847
11
142.783
21
-87.2719
0
LINE
8
BLACK
6
CONTINUOUS
10
142.783
20
-87.2719
11
142.688
21
-87.8541
0
LINE
8
BLACK
6
CONTINUOUS
10
142.688
20
-87.8541
11
142.555
21
-88.4286
0
LINE
8
BLACK
6
CONTINUOUS
10
142.555
20
-88.4286
11
142.384
21
-88.9931
0
LINE
8
BLACK
6
CONTINUOUS
10
142.384
20
-88.9931
11
142.176
21
-89.5449
0
LINE
8
BLACK
6
CONTINUOUS
10
142.176
20
-89.5449
11
141.931
21
-90.0815
0
LINE
8
BLACK
6
CONTINUOUS
10
141.931
20
-90.0815
11
141.651
21
-90.6008
0
LINE
8
BLACK
6
CONTINUOUS
10
141.651
20
-90.6008
11
141.337
21
-91.1002
0
LINE
8
BLACK
6
CONTINUOUS
10
141.337
20
-91.1002
11
140.991
21
-91.5776
0
LINE
8
BLACK
6
CONTINUOUS
10
140.991
20
-91.5776
11
140.614
21
-92.0309
0
LINE
8
BLACK
6
CONTINUOUS
10
140.614
20
-92.0309
11
140.207
21
-92.4581
0
LINE
8
BLACK
6
CONTINUOUS
10
140.207
20
-92.4581
11
139.773
21
-92.8573
0
LINE
8
BLACK
6
CONTINUOUS
10
139.773
20
-92.8573
11
139.313
21
-93.2267
0
LINE
8
BLACK
6
CONTINUOUS
10
139.313
20
-93.2267
11
138.83
21
-93.5647
0
LINE
8
BLACK
6
CONTINUOUS
10
138.83
20
-93.5647
11
138.325
21
-93.8697
0
LINE
8
BLACK
6
CONTINUOUS
10
138.325
20
-93.8697
11
137.801
21
-94.1405
0
LINE
8
BLACK
6
CONTINUOUS
10
137.801
20
-94.1405
11
137.26
21
-94.3758
0
LINE
8
BLACK
6
CONTINUOUS
10
137.26
20
-94.3758
11
136.705
21
-94.5745
0
LINE
8
BLACK
6
CONTINUOUS
10
136.705
20
-94.5745
11
136.137
21
-94.7358
0
LINE
8
BLACK
6
CONTINUOUS
10
136.137
20
-94.7358
11
135.61
21
-94.8485
0
LINE
8
BLACK
6
CONTINUOUS
10
135.61
20
-94.8485
11
135.61
21
-95.9
0
LINE
8
BLACK
6
CONTINUOUS
10
135.61
20
-95.9
11
135.592
21
-95.9424
0
LINE
8
BLACK
6
CONTINUOUS
10
135.592
20
-95.9424
11
135.55
21
-95.96
0
LINE
8
BLACK
6
CONTINUOUS
10
135.55
20
-95.96
11
132.45
21
-95.96
0
LINE
8
BLACK
6
CONTINUOUS
10
132.45
20
-95.96
11
132.408
21
-95.9424
0
LINE
8
BLACK
6
CONTINUOUS
10
133.709
20
-77.4066
11
133.128
21
-77.4453
0
LINE
8
BLACK
6
CONTINUOUS
10
133.128
20
-77.4453
11
132.551
21
-77.5226
0
LINE
8
BLACK
6
CONTINUOUS
10
132.551
20
-77.5226
11
131.981
21
-77.6382
0
LINE
8
BLACK
6
CONTINUOUS
10
131.981
20
-77.6382
11
131.419
21
-77.7915
0
LINE
8
BLACK
6
CONTINUOUS
10
131.419
20
-77.7915
11
130.869
21
-77.9818
0
LINE
8
BLACK
6
CONTINUOUS
10
130.869
20
-77.9818
11
130.332
21
-78.2084
0
LINE
8
BLACK
6
CONTINUOUS
10
130.332
20
-78.2084
11
129.812
21
-78.4701
0
LINE
8
BLACK
6
CONTINUOUS
10
129.812
20
-78.4701
11
129.311
21
-78.7659
0
LINE
8
BLACK
6
CONTINUOUS
10
129.311
20
-78.7659
11
128.83
21
-79.0944
0
LINE
8
BLACK
6
CONTINUOUS
10
128.83
20
-79.0944
11
128.373
21
-79.4541
0
LINE
8
BLACK
6
CONTINUOUS
10
128.373
20
-79.4541
11
127.94
21
-79.8435
0
LINE
8
BLACK
6
CONTINUOUS
10
127.94
20
-79.8435
11
127.534
21
-80.2609
0
LINE
8
BLACK
6
CONTINUOUS
10
127.534
20
-80.2609
11
127.157
21
-80.7044
0
LINE
8
BLACK
6
CONTINUOUS
10
127.157
20
-80.7044
11
126.81
21
-81.1719
0
LINE
8
BLACK
6
CONTINUOUS
10
126.81
20
-81.1719
11
126.495
21
-81.6616
0
LINE
8
BLACK
6
CONTINUOUS
10
126.495
20
-81.6616
11
126.214
21
-82.1711
0
LINE
8
BLACK
6
CONTINUOUS
10
126.214
20
-82.1711
11
125.967
21
-82.6982
0
LINE
8
BLACK
6
CONTINUOUS
10
125.967
20
-82.6982
11
125.755
21
-83.2406
0
LINE
8
BLACK
6
CONTINUOUS
10
125.755
20
-83.2406
11
125.58
21
-83.7959
0
LINE
8
BLACK
6
CONTINUOUS
10
125.58
20
-83.7959
11
125.443
21
-84.3615
0
LINE
8
BLACK
6
CONTINUOUS
10
125.443
20
-84.3615
11
125.343
21
-84.9351
0
LINE
8
BLACK
6
CONTINUOUS
10
125.343
20
-84.9351
11
125.282
21
-85.514
0
LINE
8
BLACK
6
CONTINUOUS
10
125.282
20
-85.514
11
125.26
21
-86.0958
0
LINE
8
BLACK
6
CONTINUOUS
10
125.26
20
-86.0958
11
125.276
21
-86.6777
0
LINE
8
BLACK
6
CONTINUOUS
10
125.276
20
-86.6777
11
125.331
21
-87.2572
0
LINE
8
BLACK
6
CONTINUOUS
10
125.331
20
-87.2572
11
125.424
21
-87.8318
0
LINE
8
BLACK
6
CONTINUOUS
10
125.424
20
-87.8318
11
125.556
21
-88.3989
0
LINE
8
BLACK
6
CONTINUOUS
10
125.556
20
-88.3989
11
125.725
21
-88.956
0
LINE
8
BLACK
6
CONTINUOUS
10
125.725
20
-88.956
11
125.931
21
-89.5006
0
LINE
8
BLACK
6
CONTINUOUS
10
125.931
20
-89.5006
11
126.172
21
-90.0303
0
LINE
8
BLACK
6
CONTINUOUS
10
126.172
20
-90.0303
11
126.448
21
-90.5428
0
LINE
8
BLACK
6
CONTINUOUS
10
126.448
20
-90.5428
11
126.758
21
-91.0357
0
LINE
8
BLACK
6
CONTINUOUS
10
126.758
20
-91.0357
11
127.1
21
-91.507
0
LINE
8
BLACK
6
CONTINUOUS
10
127.1
20
-91.507
11
127.472
21
-91.9544
0
LINE
8
BLACK
6
CONTINUOUS
10
127.472
20
-91.9544
11
127.874
21
-92.376
0
LINE
8
BLACK
6
CONTINUOUS
10
127.874
20
-92.376
11
128.302
21
-92.77
0
LINE
8
BLACK
6
CONTINUOUS
10
128.302
20
-92.77
11
128.756
21
-93.1346
0
LINE
8
BLACK
6
CONTINUOUS
10
128.756
20
-93.1346
11
129.233
21
-93.4682
0
LINE
8
BLACK
6
CONTINUOUS
10
129.233
20
-93.4682
11
129.731
21
-93.7693
0
LINE
8
BLACK
6
CONTINUOUS
10
129.731
20
-93.7693
11
130.249
21
-94.0365
0
LINE
8
BLACK
6
CONTINUOUS
10
130.249
20
-94.0365
11
130.782
21
-94.2687
0
LINE
8
BLACK
6
CONTINUOUS
10
130.782
20
-94.2687
11
131.33
21
-94.4649
0
LINE
8
BLACK
6
CONTINUOUS
10
131.33
20
-94.4649
11
131.89
21
-94.6241
0
LINE
8
BLACK
6
CONTINUOUS
10
131.89
20
-94.6241
11
132.445
21
-94.7425
0
LINE
8
BLACK
6
CONTINUOUS
10
132.445
20
-94.7425
11
132.45
21
-94.7403
0
LINE
8
BLACK
6
CONTINUOUS
10
132.45
20
-94.7403
11
132.455
21
-94.7422
0
LINE
8
BLACK
6
CONTINUOUS
10
132.455
20
-94.7422
11
132.461
21
-94.7409
0
LINE
8
BLACK
6
CONTINUOUS
10
132.461
20
-94.7409
11
132.477
21
-94.7514
0
LINE
8
BLACK
6
CONTINUOUS
10
132.477
20
-94.7514
11
132.492
21
-94.7578
0
LINE
8
BLACK
6
CONTINUOUS
10
132.492
20
-94.7578
11
132.494
21
-94.7626
0
LINE
8
BLACK
6
CONTINUOUS
10
132.494
20
-94.7626
11
132.499
21
-94.7657
0
LINE
8
BLACK
6
CONTINUOUS
10
132.499
20
-94.7657
11
132.503
21
-94.7839
0
LINE
8
BLACK
6
CONTINUOUS
10
132.503
20
-94.7839
11
132.51
21
-94.8003
0
LINE
8
BLACK
6
CONTINUOUS
10
132.51
20
-94.8003
11
132.51
21
-95.84
0
LINE
8
BLACK
6
CONTINUOUS
10
132.51
20
-95.84
11
135.49
21
-95.84
0
LINE
8
BLACK
6
CONTINUOUS
10
135.49
20
-95.84
11
135.49
21
-94.8
0
LINE
8
BLACK
6
CONTINUOUS
10
135.49
20
-94.8
11
135.497
21
-94.7833
0
LINE
8
BLACK
6
CONTINUOUS
10
135.497
20
-94.7833
11
135.501
21
-94.7657
0
LINE
8
BLACK
6
CONTINUOUS
10
135.501
20
-94.7657
11
135.505
21
-94.7627
0
LINE
8
BLACK
6
CONTINUOUS
10
135.505
20
-94.7627
11
135.508
21
-94.7576
0
LINE
8
BLACK
6
CONTINUOUS
10
135.508
20
-94.7576
11
135.524
21
-94.7507
0
LINE
8
BLACK
6
CONTINUOUS
10
135.524
20
-94.7507
11
135.539
21
-94.7409
0
LINE
8
BLACK
6
CONTINUOUS
10
135.539
20
-94.7409
11
135.545
21
-94.7421
0
LINE
8
BLACK
6
CONTINUOUS
10
135.545
20
-94.7421
11
135.55
21
-94.74
0
LINE
8
BLACK
6
CONTINUOUS
10
135.55
20
-94.74
11
135.556
21
-94.7424
0
LINE
8
BLACK
6
CONTINUOUS
10
135.556
20
-94.7424
11
136.11
21
-94.6241
0
LINE
8
BLACK
6
CONTINUOUS
10
136.11
20
-94.6241
11
136.67
21
-94.4649
0
LINE
8
BLACK
6
CONTINUOUS
10
136.67
20
-94.4649
11
137.218
21
-94.2687
0
LINE
8
BLACK
6
CONTINUOUS
10
137.218
20
-94.2687
11
137.751
21
-94.0365
0
LINE
8
BLACK
6
CONTINUOUS
10
137.751
20
-94.0365
11
138.269
21
-93.7693
0
LINE
8
BLACK
6
CONTINUOUS
10
138.269
20
-93.7693
11
138.767
21
-93.4682
0
LINE
8
BLACK
6
CONTINUOUS
10
138.767
20
-93.4682
11
139.244
21
-93.1346
0
LINE
8
BLACK
6
CONTINUOUS
10
139.244
20
-93.1346
11
139.698
21
-92.77
0
LINE
8
BLACK
6
CONTINUOUS
10
139.698
20
-92.77
11
140.126
21
-92.376
0
LINE
8
BLACK
6
CONTINUOUS
10
140.126
20
-92.376
11
140.528
21
-91.9544
0
LINE
8
BLACK
6
CONTINUOUS
10
140.528
20
-91.9544
11
140.9
21
-91.507
0
LINE
8
BLACK
6
CONTINUOUS
10
140.9
20
-91.507
11
141.242
21
-91.0357
0
LINE
8
BLACK
6
CONTINUOUS
10
141.242
20
-91.0357
11
141.552
21
-90.5428
0
LINE
8
BLACK
6
CONTINUOUS
10
141.552
20
-90.5428
11
141.828
21
-90.0303
0
LINE
8
BLACK
6
CONTINUOUS
10
141.828
20
-90.0303
11
142.069
21
-89.5006
0
LINE
8
BLACK
6
CONTINUOUS
10
142.069
20
-89.5006
11
142.275
21
-88.956
0
LINE
8
BLACK
6
CONTINUOUS
10
142.275
20
-88.956
11
142.444
21
-88.3989
0
LINE
8
BLACK
6
CONTINUOUS
10
142.444
20
-88.3989
11
142.576
21
-87.8318
0
LINE
8
BLACK
6
CONTINUOUS
10
142.576
20
-87.8318
11
142.669
21
-87.2572
0
LINE
8
BLACK
6
CONTINUOUS
10
142.669
20
-87.2572
11
142.724
21
-86.6777
0
LINE
8
BLACK
6
CONTINUOUS
10
142.724
20
-86.6777
11
142.74
21
-86.0958
0
LINE
8
BLACK
6
CONTINUOUS
10
142.74
20
-86.0958
11
142.718
21
-85.514
0
LINE
8
BLACK
6
CONTINUOUS
10
142.718
20
-85.514
11
142.657
21
-84.9351
0
LINE
8
BLACK
6
CONTINUOUS
10
142.657
20
-84.9351
11
142.557
21
-84.3615
0
LINE
8
BLACK
6
CONTINUOUS
10
142.557
20
-84.3615
11
142.42
21
-83.7959
0
LINE
8
BLACK
6
CONTINUOUS
10
142.42
20
-83.7959
11
142.245
21
-83.2406
0
LINE
8
BLACK
6
CONTINUOUS
10
142.245
20
-83.2406
11
142.033
21
-82.6982
0
LINE
8
BLACK
6
CONTINUOUS
10
142.033
20
-82.6982
11
141.786
21
-82.1711
0
LINE
8
BLACK
6
CONTINUOUS
10
141.786
20
-82.1711
11
141.505
21
-81.6616
0
LINE
8
BLACK
6
CONTINUOUS
10
141.505
20
-81.6616
11
141.19
21
-81.1719
0
LINE
8
BLACK
6
CONTINUOUS
10
141.19
20
-81.1719
11
140.843
21
-80.7044
0
LINE
8
BLACK
6
CONTINUOUS
10
140.843
20
-80.7044
11
140.466
21
-80.2609
0
LINE
8
BLACK
6
CONTINUOUS
10
140.466
20
-80.2609
11
140.06
21
-79.8435
0
LINE
8
BLACK
6
CONTINUOUS
10
140.06
20
-79.8435
11
139.627
21
-79.4541
0
LINE
8
BLACK
6
CONTINUOUS
10
139.627
20
-79.4541
11
139.17
21
-79.0944
0
LINE
8
BLACK
6
CONTINUOUS
10
139.17
20
-79.0944
11
138.689
21
-78.7659
0
LINE
8
BLACK
6
CONTINUOUS
10
138.689
20
-78.7659
11
138.188
21
-78.4701
0
LINE
8
BLACK
6
CONTINUOUS
10
138.188
20
-78.4701
11
137.668
21
-78.2084
0
LINE
8
BLACK
6
CONTINUOUS
10
137.668
20
-78.2084
11
137.131
21
-77.9818
0
LINE
8
BLACK
6
CONTINUOUS
10
137.131
20
-77.9818
11
136.581
21
-77.7915
0
LINE
8
BLACK
6
CONTINUOUS
10
136.581
20
-77.7915
11
136.019
21
-77.6382
0
LINE
8
BLACK
6
CONTINUOUS
10
136.019
20
-77.6382
11
135.449
21
-77.5226
0
LINE
8
BLACK
6
CONTINUOUS
10
135.449
20
-77.5226
11
134.872
21
-77.4453
0
LINE
8
BLACK
6
CONTINUOUS
10
134.872
20
-77.4453
11
134.291
21
-77.4066
0
LINE
8
BLACK
6
CONTINUOUS
10
134.291
20
-77.4066
11
133.709
21
-77.4066
0
LINE
8
BLACK
6
CONTINUOUS
10
165.278
20
-89.0441
11
165.06
21
-88.9968
0
LINE
8
BLACK
6
CONTINUOUS
10
165.06
20
-88.9968
11
164.852
21
-88.919
0
LINE
8
BLACK
6
CONTINUOUS
10
164.852
20
-88.919
11
164.657
21
-88.8124
0
LINE
8
BLACK
6
CONTINUOUS
10
164.657
20
-88.8124
11
164.478
21
-88.679
0
LINE
8
BLACK
6
CONTINUOUS
10
164.478
20
-88.679
11
164.321
21
-88.5216
0
LINE
8
BLACK
6
CONTINUOUS
10
164.321
20
-88.5216
11
164.188
21
-88.3434
0
LINE
8
BLACK
6
CONTINUOUS
10
164.188
20
-88.3434
11
164.081
21
-88.148
0
LINE
8
BLACK
6
CONTINUOUS
10
164.081
20
-88.148
11
164.003
21
-87.9395
0
LINE
8
BLACK
6
CONTINUOUS
10
164.003
20
-87.9395
11
163.956
21
-87.722
0
LINE
8
BLACK
6
CONTINUOUS
10
163.956
20
-87.722
11
163.94
21
-87.5
0
LINE
8
BLACK
6
CONTINUOUS
10
163.94
20
-87.5
11
163.94
21
-61.5
0
LINE
8
BLACK
6
CONTINUOUS
10
163.94
20
-61.5
11
163.956
21
-61.278
0
LINE
8
BLACK
6
CONTINUOUS
10
163.956
20
-61.278
11
164.003
21
-61.0605
0
LINE
8
BLACK
6
CONTINUOUS
10
164.003
20
-61.0605
11
164.081
21
-60.852
0
LINE
8
BLACK
6
CONTINUOUS
10
164.081
20
-60.852
11
164.188
21
-60.6566
0
LINE
8
BLACK
6
CONTINUOUS
10
164.188
20
-60.6566
11
164.321
21
-60.4784
0
LINE
8
BLACK
6
CONTINUOUS
10
164.321
20
-60.4784
11
164.478
21
-60.321
0
LINE
8
BLACK
6
CONTINUOUS
10
164.478
20
-60.321
11
164.657
21
-60.1876
0
LINE
8
BLACK
6
CONTINUOUS
10
164.657
20
-60.1876
11
164.852
21
-60.081
0
LINE
8
BLACK
6
CONTINUOUS
10
164.852
20
-60.081
11
165.06
21
-60.0032
0
LINE
8
BLACK
6
CONTINUOUS
10
165.06
20
-60.0032
11
165.278
21
-59.9559
0
LINE
8
BLACK
6
CONTINUOUS
10
165.278
20
-59.9559
11
165.5
21
-59.94
0
LINE
8
BLACK
6
CONTINUOUS
10
165.5
20
-59.94
11
222.5
21
-59.94
0
LINE
8
BLACK
6
CONTINUOUS
10
222.5
20
-59.94
11
222.722
21
-59.9559
0
LINE
8
BLACK
6
CONTINUOUS
10
222.722
20
-59.9559
11
222.94
21
-60.0032
0
LINE
8
BLACK
6
CONTINUOUS
10
222.94
20
-60.0032
11
223.148
21
-60.081
0
LINE
8
BLACK
6
CONTINUOUS
10
223.148
20
-60.081
11
223.343
21
-60.1876
0
LINE
8
BLACK
6
CONTINUOUS
10
223.343
20
-60.1876
11
223.522
21
-60.321
0
LINE
8
BLACK
6
CONTINUOUS
10
223.522
20
-60.321
11
223.679
21
-60.4784
0
LINE
8
BLACK
6
CONTINUOUS
10
223.679
20
-60.4784
11
223.812
21
-60.6566
0
LINE
8
BLACK
6
CONTINUOUS
10
223.812
20
-60.6566
11
223.919
21
-60.852
0
LINE
8
BLACK
6
CONTINUOUS
10
223.919
20
-60.852
11
223.997
21
-61.0605
0
LINE
8
BLACK
6
CONTINUOUS
10
223.997
20
-61.0605
11
224.044
21
-61.278
0
LINE
8
BLACK
6
CONTINUOUS
10
224.044
20
-61.278
11
224.06
21
-61.5
0
LINE
8
BLACK
6
CONTINUOUS
10
224.06
20
-61.5
11
224.06
21
-87.5
0
LINE
8
BLACK
6
CONTINUOUS
10
224.06
20
-87.5
11
224.044
21
-87.722
0
LINE
8
BLACK
6
CONTINUOUS
10
224.044
20
-87.722
11
223.997
21
-87.9395
0
LINE
8
BLACK
6
CONTINUOUS
10
223.997
20
-87.9395
11
223.919
21
-88.148
0
LINE
8
BLACK
6
CONTINUOUS
10
223.919
20
-88.148
11
223.812
21
-88.3434
0
LINE
8
BLACK
6
CONTINUOUS
10
223.812
20
-88.3434
11
223.679
21
-88.5216
0
LINE
8
BLACK
6
CONTINUOUS
10
223.679
20
-88.5216
11
223.522
21
-88.679
0
LINE
8
BLACK
6
CONTINUOUS
10
223.522
20
-88.679
11
223.343
21
-88.8124
0
LINE
8
BLACK
6
CONTINUOUS
10
223.343
20
-88.8124
11
223.148
21
-88.919
0
LINE
8
BLACK
6
CONTINUOUS
10
223.148
20
-88.919
11
222.94
21
-88.9968
0
LINE
8
BLACK
6
CONTINUOUS
10
222.94
20
-88.9968
11
222.722
21
-89.0441
0
LINE
8
BLACK
6
CONTINUOUS
10
222.722
20
-89.0441
11
222.5
21
-89.06
0
LINE
8
BLACK
6
CONTINUOUS
10
222.5
20
-89.06
11
165.5
21
-89.06
0
LINE
8
BLACK
6
CONTINUOUS
10
165.5
20
-89.06
11
165.278
21
-89.0441
0
LINE
8
BLACK
6
CONTINUOUS
10
165.491
20
-60.0563
11
165.274
21
-60.0733
0
LINE
8
BLACK
6
CONTINUOUS
10
165.274
20
-60.0733
11
165.054
21
-60.1262
0
LINE
8
BLACK
6
CONTINUOUS
10
165.054
20
-60.1262
11
164.844
21
-60.213
0
LINE
8
BLACK
6
CONTINUOUS
10
164.844
20
-60.213
11
164.651
21
-60.3314
0
LINE
8
BLACK
6
CONTINUOUS
10
164.651
20
-60.3314
11
164.479
21
-60.4786
0
LINE
8
BLACK
6
CONTINUOUS
10
164.479
20
-60.4786
11
164.331
21
-60.651
0
LINE
8
BLACK
6
CONTINUOUS
10
164.331
20
-60.651
11
164.213
21
-60.8442
0
LINE
8
BLACK
6
CONTINUOUS
10
164.213
20
-60.8442
11
164.126
21
-61.0536
0
LINE
8
BLACK
6
CONTINUOUS
10
164.126
20
-61.0536
11
164.073
21
-61.274
0
LINE
8
BLACK
6
CONTINUOUS
10
164.073
20
-61.274
11
164.056
21
-61.491
0
LINE
8
BLACK
6
CONTINUOUS
10
164.056
20
-61.491
11
164.06
21
-61.5
0
LINE
8
BLACK
6
CONTINUOUS
10
164.06
20
-61.5
11
164.06
21
-87.5
0
LINE
8
BLACK
6
CONTINUOUS
10
164.06
20
-87.5
11
164.056
21
-87.509
0
LINE
8
BLACK
6
CONTINUOUS
10
164.056
20
-87.509
11
164.073
21
-87.726
0
LINE
8
BLACK
6
CONTINUOUS
10
164.073
20
-87.726
11
164.126
21
-87.9464
0
LINE
8
BLACK
6
CONTINUOUS
10
164.126
20
-87.9464
11
164.213
21
-88.1558
0
LINE
8
BLACK
6
CONTINUOUS
10
164.213
20
-88.1558
11
164.331
21
-88.349
0
LINE
8
BLACK
6
CONTINUOUS
10
164.331
20
-88.349
11
164.479
21
-88.5214
0
LINE
8
BLACK
6
CONTINUOUS
10
164.479
20
-88.5214
11
164.651
21
-88.6686
0
LINE
8
BLACK
6
CONTINUOUS
10
164.651
20
-88.6686
11
164.844
21
-88.787
0
LINE
8
BLACK
6
CONTINUOUS
10
164.844
20
-88.787
11
165.054
21
-88.8738
0
LINE
8
BLACK
6
CONTINUOUS
10
165.054
20
-88.8738
11
165.274
21
-88.9267
0
LINE
8
BLACK
6
CONTINUOUS
10
165.274
20
-88.9267
11
165.491
21
-88.9437
0
LINE
8
BLACK
6
CONTINUOUS
10
165.491
20
-88.9437
11
165.5
21
-88.94
0
LINE
8
BLACK
6
CONTINUOUS
10
165.5
20
-88.94
11
222.5
21
-88.94
0
LINE
8
BLACK
6
CONTINUOUS
10
222.5
20
-88.94
11
222.509
21
-88.9437
0
LINE
8
BLACK
6
CONTINUOUS
10
222.509
20
-88.9437
11
222.726
21
-88.9267
0
LINE
8
BLACK
6
CONTINUOUS
10
222.726
20
-88.9267
11
222.946
21
-88.8738
0
LINE
8
BLACK
6
CONTINUOUS
10
222.946
20
-88.8738
11
223.156
21
-88.787
0
LINE
8
BLACK
6
CONTINUOUS
10
223.156
20
-88.787
11
223.349
21
-88.6686
0
LINE
8
BLACK
6
CONTINUOUS
10
223.349
20
-88.6686
11
223.521
21
-88.5214
0
LINE
8
BLACK
6
CONTINUOUS
10
223.521
20
-88.5214
11
223.669
21
-88.349
0
LINE
8
BLACK
6
CONTINUOUS
10
223.669
20
-88.349
11
223.787
21
-88.1558
0
LINE
8
BLACK
6
CONTINUOUS
10
223.787
20
-88.1558
11
223.874
21
-87.9464
0
LINE
8
BLACK
6
CONTINUOUS
10
223.874
20
-87.9464
11
223.927
21
-87.726
0
LINE
8
BLACK
6
CONTINUOUS
10
223.927
20
-87.726
11
223.944
21
-87.509
0
LINE
8
BLACK
6
CONTINUOUS
10
223.944
20
-87.509
11
223.94
21
-87.5
0
LINE
8
BLACK
6
CONTINUOUS
10
223.94
20
-87.5
11
223.94
21
-61.5
0
LINE
8
BLACK
6
CONTINUOUS
10
223.94
20
-61.5
11
223.944
21
-61.491
0
LINE
8
BLACK
6
CONTINUOUS
10
223.944
20
-61.491
11
223.927
21
-61.274
0
LINE
8
BLACK
6
CONTINUOUS
10
223.927
20
-61.274
11
223.874
21
-61.0536
0
LINE
8
BLACK
6
CONTINUOUS
10
223.874
20
-61.0536
11
223.787
21
-60.8442
0
LINE
8
BLACK
6
CONTINUOUS
10
223.787
20
-60.8442
11
223.669
21
-60.651
0
LINE
8
BLACK
6
CONTINUOUS
10
223.669
20
-60.651
11
223.521
21
-60.4786
0
LINE
8
BLACK
6
CONTINUOUS
10
223.521
20
-60.4786
11
223.349
21
-60.3314
0
LINE
8
BLACK
6
CONTINUOUS
10
223.349
20
-60.3314
11
223.156
21
-60.213
0
LINE
8
BLACK
6
CONTINUOUS
10
223.156
20
-60.213
11
222.946
21
-60.1262
0
LINE
8
BLACK
6
CONTINUOUS
10
222.946
20
-60.1262
11
222.726
21
-60.0733
0
LINE
8
BLACK
6
CONTINUOUS
10
222.726
20
-60.0733
11
222.509
21
-60.0563
0
LINE
8
BLACK
6
CONTINUOUS
10
222.509
20
-60.0563
11
222.5
21
-60.06
0
LINE
8
BLACK
6
CONTINUOUS
10
222.5
20
-60.06
11
165.5
21
-60.06
0
LINE
8
BLACK
6
CONTINUOUS
10
165.5
20
-60.06
11
165.491
21
-60.0563
0
LINE
8
BLACK
6
CONTINUOUS
10
122.065
20
-61.0049
11
122.081
21
-61.0049
0
LINE
8
BLACK
6
CONTINUOUS
10
122.081
20
-61.0049
11
122.094
21
-61.0142
0
LINE
8
BLACK
6
CONTINUOUS
10
122.094
20
-61.0142
11
122.109
21
-61.0191
0
LINE
8
BLACK
6
CONTINUOUS
10
122.109
20
-61.0191
11
122.118
21
-61.0319
0
LINE
8
BLACK
6
CONTINUOUS
10
122.118
20
-61.0319
11
122.131
21
-61.0412
0
LINE
8
BLACK
6
CONTINUOUS
10
122.131
20
-61.0412
11
122.136
21
-61.0563
0
LINE
8
BLACK
6
CONTINUOUS
10
122.136
20
-61.0563
11
122.145
21
-61.0691
0
LINE
8
BLACK
6
CONTINUOUS
10
122.145
20
-61.0691
11
122.145
21
-61.0849
0
LINE
8
BLACK
6
CONTINUOUS
10
122.145
20
-61.0849
11
122.15
21
-61.1
0
LINE
8
BLACK
6
CONTINUOUS
10
122.15
20
-61.1
11
122.15
21
-75
0
LINE
8
BLACK
6
CONTINUOUS
10
122.15
20
-75
11
122.145
21
-75.0151
0
LINE
8
BLACK
6
CONTINUOUS
10
122.145
20
-75.0151
11
122.145
21
-75.0309
0
LINE
8
BLACK
6
CONTINUOUS
10
122.145
20
-75.0309
11
122.136
21
-75.0437
0
LINE
8
BLACK
6
CONTINUOUS
10
122.136
20
-75.0437
11
122.131
21
-75.0588
0
LINE
8
BLACK
6
CONTINUOUS
10
122.131
20
-75.0588
11
122.118
21
-75.0681
0
LINE
8
BLACK
6
CONTINUOUS
10
122.118
20
-75.0681
11
122.109
21
-75.0809
0
LINE
8
BLACK
6
CONTINUOUS
10
122.109
20
-75.0809
11
122.094
21
-75.0858
0
LINE
8
BLACK
6
CONTINUOUS
10
122.094
20
-75.0858
11
122.081
21
-75.0951
0
LINE
8
BLACK
6
CONTINUOUS
10
122.081
20
-75.0951
11
122.065
21
-75.0951
0
LINE
8
BLACK
6
CONTINUOUS
10
122.065
20
-75.0951
11
122.05
21
-75.1
0
LINE
8
BLACK
6
CONTINUOUS
10
122.05
20
-75.1
11
105.95
21
-75.1
0
LINE
8
BLACK
6
CONTINUOUS
10
105.95
20
-75.1
11
105.935
21
-75.0951
0
LINE
8
BLACK
6
CONTINUOUS
10
105.935
20
-75.0951
11
105.919
21
-75.0951
0
LINE
8
BLACK
6
CONTINUOUS
10
105.919
20
-75.0951
11
105.906
21
-75.0858
0
LINE
8
BLACK
6
CONTINUOUS
10
105.906
20
-75.0858
11
105.891
21
-75.0809
0
LINE
8
BLACK
6
CONTINUOUS
10
105.891
20
-75.0809
11
105.882
21
-75.0681
0
LINE
8
BLACK
6
CONTINUOUS
10
105.882
20
-75.0681
11
105.869
21
-75.0588
0
LINE
8
BLACK
6
CONTINUOUS
10
105.869
20
-75.0588
11
105.864
21
-75.0437
0
LINE
8
BLACK
6
CONTINUOUS
10
105.864
20
-75.0437
11
105.855
21
-75.0309
0
LINE
8
BLACK
6
CONTINUOUS
10
105.855
20
-75.0309
11
105.855
21
-75.0151
0
LINE
8
BLACK
6
CONTINUOUS
10
105.855
20
-75.0151
11
105.85
21
-75
0
LINE
8
BLACK
6
CONTINUOUS
10
105.85
20
-75
11
105.85
21
-61.1
0
LINE
8
BLACK
6
CONTINUOUS
10
105.85
20
-61.1
11
105.855
21
-61.0849
0
LINE
8
BLACK
6
CONTINUOUS
10
105.855
20
-61.0849
11
105.855
21
-61.0691
0
LINE
8
BLACK
6
CONTINUOUS
10
105.855
20
-61.0691
11
105.864
21
-61.0563
0
LINE
8
BLACK
6
CONTINUOUS
10
105.864
20
-61.0563
11
105.869
21
-61.0412
0
LINE
8
BLACK
6
CONTINUOUS
10
105.869
20
-61.0412
11
105.882
21
-61.0319
0
LINE
8
BLACK
6
CONTINUOUS
10
105.882
20
-61.0319
11
105.891
21
-61.0191
0
LINE
8
BLACK
6
CONTINUOUS
10
105.891
20
-61.0191
11
105.906
21
-61.0142
0
LINE
8
BLACK
6
CONTINUOUS
10
105.906
20
-61.0142
11
105.919
21
-61.0049
0
LINE
8
BLACK
6
CONTINUOUS
10
105.919
20
-61.0049
11
105.935
21
-61.0049
0
LINE
8
BLACK
6
CONTINUOUS
10
105.935
20
-61.0049
11
105.95
21
-61
0
LINE
8
BLACK
6
CONTINUOUS
10
105.95
20
-61
11
122.05
21
-61
0
LINE
8
BLACK
6
CONTINUOUS
10
122.05
20
-61
11
122.065
21
-61.0049
0
LINE
8
BLACK
6
CONTINUOUS
10
106.05
20
-61.2
11
106.05
21
-74.9
0
LINE
8
BLACK
6
CONTINUOUS
10
106.05
20
-74.9
11
121.95
21
-74.9
0
LINE
8
BLACK
6
CONTINUOUS
10
121.95
20
-74.9
11
121.95
21
-61.2
0
LINE
8
BLACK
6
CONTINUOUS
10
121.95
20
-61.2
11
106.05
21
-61.2
0
LINE
8
BLACK
6
CONTINUOUS
10
78.2175
20
-66.937
11
78.2265
21
-66.9407
0
LINE
8
BLACK
6
CONTINUOUS
10
78.2265
20
-66.9407
11
78.2362
21
-66.9406
0
LINE
8
BLACK
6
CONTINUOUS
10
78.2362
20
-66.9406
11
78.5592
21
-67.0919
0
LINE
8
BLACK
6
CONTINUOUS
10
78.5592
20
-67.0919
11
78.864
21
-67.2772
0
LINE
8
BLACK
6
CONTINUOUS
10
78.864
20
-67.2772
11
79.147
21
-67.4943
0
LINE
8
BLACK
6
CONTINUOUS
10
79.147
20
-67.4943
11
79.4049
21
-67.7407
0
LINE
8
BLACK
6
CONTINUOUS
10
79.4049
20
-67.7407
11
79.6347
21
-68.0134
0
LINE
8
BLACK
6
CONTINUOUS
10
79.6347
20
-68.0134
11
79.8337
21
-68.3094
0
LINE
8
BLACK
6
CONTINUOUS
10
79.8337
20
-68.3094
11
79.9996
21
-68.6251
0
LINE
8
BLACK
6
CONTINUOUS
10
79.9996
20
-68.6251
11
80.1305
21
-68.9569
0
LINE
8
BLACK
6
CONTINUOUS
10
80.1305
20
-68.9569
11
80.2248
21
-69.3009
0
LINE
8
BLACK
6
CONTINUOUS
10
80.2248
20
-69.3009
11
80.2814
21
-69.653
0
LINE
8
BLACK
6
CONTINUOUS
10
80.2814
20
-69.653
11
80.2997
21
-70.0092
0
LINE
8
BLACK
6
CONTINUOUS
10
80.2997
20
-70.0092
11
80.2794
21
-70.3653
0
LINE
8
BLACK
6
CONTINUOUS
10
80.2794
20
-70.3653
11
80.2208
21
-70.7171
0
LINE
8
BLACK
6
CONTINUOUS
10
80.2208
20
-70.7171
11
80.1246
21
-71.0605
0
LINE
8
BLACK
6
CONTINUOUS
10
80.1246
20
-71.0605
11
79.9919
21
-71.3916
0
LINE
8
BLACK
6
CONTINUOUS
10
79.9919
20
-71.3916
11
79.8242
21
-71.7064
0
LINE
8
BLACK
6
CONTINUOUS
10
79.8242
20
-71.7064
11
79.6236
21
-72.0012
0
LINE
8
BLACK
6
CONTINUOUS
10
79.6236
20
-72.0012
11
79.3922
21
-72.2727
0
LINE
8
BLACK
6
CONTINUOUS
10
79.3922
20
-72.2727
11
79.133
21
-72.5176
0
LINE
8
BLACK
6
CONTINUOUS
10
79.133
20
-72.5176
11
78.8488
21
-72.7331
0
LINE
8
BLACK
6
CONTINUOUS
10
78.8488
20
-72.7331
11
78.543
21
-72.9167
0
LINE
8
BLACK
6
CONTINUOUS
10
78.543
20
-72.9167
11
78.2192
21
-73.0662
0
LINE
8
BLACK
6
CONTINUOUS
10
78.2192
20
-73.0662
11
77.8811
21
-73.1799
0
LINE
8
BLACK
6
CONTINUOUS
10
77.8811
20
-73.1799
11
77.5328
21
-73.2564
0
LINE
8
BLACK
6
CONTINUOUS
10
77.5328
20
-73.2564
11
77.1782
21
-73.2949
0
LINE
8
BLACK
6
CONTINUOUS
10
77.1782
20
-73.2949
11
76.8215
21
-73.2949
0
LINE
8
BLACK
6
CONTINUOUS
10
76.8215
20
-73.2949
11
76.4669
21
-73.2563
0
LINE
8
BLACK
6
CONTINUOUS
10
76.4669
20
-73.2563
11
76.1186
21
-73.1798
0
LINE
8
BLACK
6
CONTINUOUS
10
76.1186
20
-73.1798
11
75.7805
21
-73.0661
0
LINE
8
BLACK
6
CONTINUOUS
10
75.7805
20
-73.0661
11
75.4567
21
-72.9166
0
LINE
8
BLACK
6
CONTINUOUS
10
75.4567
20
-72.9166
11
75.151
21
-72.7329
0
LINE
8
BLACK
6
CONTINUOUS
10
75.151
20
-72.7329
11
74.8668
21
-72.5174
0
LINE
8
BLACK
6
CONTINUOUS
10
74.8668
20
-72.5174
11
74.6075
21
-72.2725
0
LINE
8
BLACK
6
CONTINUOUS
10
74.6075
20
-72.2725
11
74.3763
21
-72.001
0
LINE
8
BLACK
6
CONTINUOUS
10
74.3763
20
-72.001
11
74.1756
21
-71.7061
0
LINE
8
BLACK
6
CONTINUOUS
10
74.1756
20
-71.7061
11
74.008
21
-71.3913
0
LINE
8
BLACK
6
CONTINUOUS
10
74.008
20
-71.3913
11
73.8753
21
-71.0602
0
LINE
8
BLACK
6
CONTINUOUS
10
73.8753
20
-71.0602
11
73.7791
21
-70.7168
0
LINE
8
BLACK
6
CONTINUOUS
10
73.7791
20
-70.7168
11
73.7206
21
-70.365
0
LINE
8
BLACK
6
CONTINUOUS
10
73.7206
20
-70.365
11
73.7003
21
-70.0089
0
LINE
8
BLACK
6
CONTINUOUS
10
73.7003
20
-70.0089
11
73.7186
21
-69.6527
0
LINE
8
BLACK
6
CONTINUOUS
10
73.7186
20
-69.6527
11
73.7753
21
-69.3006
0
LINE
8
BLACK
6
CONTINUOUS
10
73.7753
20
-69.3006
11
73.8696
21
-68.9566
0
LINE
8
BLACK
6
CONTINUOUS
10
73.8696
20
-68.9566
11
74.0005
21
-68.6248
0
LINE
8
BLACK
6
CONTINUOUS
10
74.0005
20
-68.6248
11
74.1665
21
-68.3091
0
LINE
8
BLACK
6
CONTINUOUS
10
74.1665
20
-68.3091
11
74.3655
21
-68.0132
0
LINE
8
BLACK
6
CONTINUOUS
10
74.3655
20
-68.0132
11
74.5954
21
-67.7404
0
LINE
8
BLACK
6
CONTINUOUS
10
74.5954
20
-67.7404
11
74.8533
21
-67.4941
0
LINE
8
BLACK
6
CONTINUOUS
10
74.8533
20
-67.4941
11
75.1363
21
-67.277
0
LINE
8
BLACK
6
CONTINUOUS
10
75.1363
20
-67.277
11
75.4411
21
-67.0918
0
LINE
8
BLACK
6
CONTINUOUS
10
75.4411
20
-67.0918
11
75.7641
21
-66.9405
0
LINE
8
BLACK
6
CONTINUOUS
10
75.7641
20
-66.9405
11
75.7738
21
-66.9406
0
LINE
8
BLACK
6
CONTINUOUS
10
75.7738
20
-66.9406
11
75.7828
21
-66.9369
0
LINE
8
BLACK
6
CONTINUOUS
10
75.7828
20
-66.9369
11
78.2175
21
-66.937
0
LINE
8
BLACK
6
CONTINUOUS
10
75.4799
20
-67.1789
11
75.1786
21
-67.3634
0
LINE
8
BLACK
6
CONTINUOUS
10
75.1786
20
-67.3634
11
74.8994
21
-67.5799
0
LINE
8
BLACK
6
CONTINUOUS
10
74.8994
20
-67.5799
11
74.6458
21
-67.8259
0
LINE
8
BLACK
6
CONTINUOUS
10
74.6458
20
-67.8259
11
74.4208
21
-68.0982
0
LINE
8
BLACK
6
CONTINUOUS
10
74.4208
20
-68.0982
11
74.2271
21
-68.3937
0
LINE
8
BLACK
6
CONTINUOUS
10
74.2271
20
-68.3937
11
74.0671
21
-68.7087
0
LINE
8
BLACK
6
CONTINUOUS
10
74.0671
20
-68.7087
11
73.9428
21
-69.0394
0
LINE
8
BLACK
6
CONTINUOUS
10
73.9428
20
-69.0394
11
73.8556
21
-69.3818
0
LINE
8
BLACK
6
CONTINUOUS
10
73.8556
20
-69.3818
11
73.8067
21
-69.7317
0
LINE
8
BLACK
6
CONTINUOUS
10
73.8067
20
-69.7317
11
73.7966
21
-70.0849
0
LINE
8
BLACK
6
CONTINUOUS
10
73.7966
20
-70.0849
11
73.8254
21
-70.437
0
LINE
8
BLACK
6
CONTINUOUS
10
73.8254
20
-70.437
11
73.8928
21
-70.7838
0
LINE
8
BLACK
6
CONTINUOUS
10
73.8928
20
-70.7838
11
73.9979
21
-71.1211
0
LINE
8
BLACK
6
CONTINUOUS
10
73.9979
20
-71.1211
11
74.1396
21
-71.4447
0
LINE
8
BLACK
6
CONTINUOUS
10
74.1396
20
-71.4447
11
74.316
21
-71.7508
0
LINE
8
BLACK
6
CONTINUOUS
10
74.316
20
-71.7508
11
74.5251
21
-72.0356
0
LINE
8
BLACK
6
CONTINUOUS
10
74.5251
20
-72.0356
11
74.7642
21
-72.2957
0
LINE
8
BLACK
6
CONTINUOUS
10
74.7642
20
-72.2957
11
75.0305
21
-72.5279
0
LINE
8
BLACK
6
CONTINUOUS
10
75.0305
20
-72.5279
11
75.3207
21
-72.7293
0
LINE
8
BLACK
6
CONTINUOUS
10
75.3207
20
-72.7293
11
75.6314
21
-72.8976
0
LINE
8
BLACK
6
CONTINUOUS
10
75.6314
20
-72.8976
11
75.9587
21
-73.0306
0
LINE
8
BLACK
6
CONTINUOUS
10
75.9587
20
-73.0306
11
76.2986
21
-73.1269
0
LINE
8
BLACK
6
CONTINUOUS
10
76.2986
20
-73.1269
11
76.6471
21
-73.1851
0
LINE
8
BLACK
6
CONTINUOUS
10
76.6471
20
-73.1851
11
76.9998
21
-73.2046
0
LINE
8
BLACK
6
CONTINUOUS
10
76.9998
20
-73.2046
11
77.3526
21
-73.1851
0
LINE
8
BLACK
6
CONTINUOUS
10
77.3526
20
-73.1851
11
77.7011
21
-73.1269
0
LINE
8
BLACK
6
CONTINUOUS
10
77.7011
20
-73.1269
11
78.041
21
-73.0307
0
LINE
8
BLACK
6
CONTINUOUS
10
78.041
20
-73.0307
11
78.3683
21
-72.8977
0
LINE
8
BLACK
6
CONTINUOUS
10
78.3683
20
-72.8977
11
78.679
21
-72.7295
0
LINE
8
BLACK
6
CONTINUOUS
10
78.679
20
-72.7295
11
78.9693
21
-72.5281
0
LINE
8
BLACK
6
CONTINUOUS
10
78.9693
20
-72.5281
11
79.2356
21
-72.2959
0
LINE
8
BLACK
6
CONTINUOUS
10
79.2356
20
-72.2959
11
79.4747
21
-72.0359
0
LINE
8
BLACK
6
CONTINUOUS
10
79.4747
20
-72.0359
11
79.6838
21
-71.7511
0
LINE
8
BLACK
6
CONTINUOUS
10
79.6838
20
-71.7511
11
79.8603
21
-71.445
0
LINE
8
BLACK
6
CONTINUOUS
10
79.8603
20
-71.445
11
80.002
21
-71.1214
0
LINE
8
BLACK
6
CONTINUOUS
10
80.002
20
-71.1214
11
80.1072
21
-70.7841
0
LINE
8
BLACK
6
CONTINUOUS
10
80.1072
20
-70.7841
11
80.1746
21
-70.4373
0
LINE
8
BLACK
6
CONTINUOUS
10
80.1746
20
-70.4373
11
80.2034
21
-70.0852
0
LINE
8
BLACK
6
CONTINUOUS
10
80.2034
20
-70.0852
11
80.1933
21
-69.732
0
LINE
8
BLACK
6
CONTINUOUS
10
80.1933
20
-69.732
11
80.1444
21
-69.3821
0
LINE
8
BLACK
6
CONTINUOUS
10
80.1444
20
-69.3821
11
80.0573
21
-69.0397
0
LINE
8
BLACK
6
CONTINUOUS
10
80.0573
20
-69.0397
11
79.933
21
-68.709
0
LINE
8
BLACK
6
CONTINUOUS
10
79.933
20
-68.709
11
79.7731
21
-68.394
0
LINE
8
BLACK
6
CONTINUOUS
10
79.7731
20
-68.394
11
79.5794
21
-68.0985
0
LINE
8
BLACK
6
CONTINUOUS
10
79.5794
20
-68.0985
11
79.3544
21
-67.8261
0
LINE
8
BLACK
6
CONTINUOUS
10
79.3544
20
-67.8261
11
79.1008
21
-67.5801
0
LINE
8
BLACK
6
CONTINUOUS
10
79.1008
20
-67.5801
11
78.8217
21
-67.3636
0
LINE
8
BLACK
6
CONTINUOUS
10
78.8217
20
-67.3636
11
78.5204
21
-67.1791
0
LINE
8
BLACK
6
CONTINUOUS
10
78.5204
20
-67.1791
11
78.2177
21
-67.0369
0
LINE
8
BLACK
6
CONTINUOUS
10
78.2177
20
-67.0369
11
78.2175
21
-67.037
0
LINE
8
BLACK
6
CONTINUOUS
10
78.2175
20
-67.037
11
75.7828
21
-67.0369
0
LINE
8
BLACK
6
CONTINUOUS
10
75.7828
20
-67.0369
11
75.7826
21
-67.0368
0
LINE
8
BLACK
6
CONTINUOUS
10
75.7826
20
-67.0368
11
75.4799
21
-67.1789
0
LINE
8
BLACK
6
CONTINUOUS
10
127.858
20
-72.1424
11
127.84
21
-72.1
0
LINE
8
BLACK
6
CONTINUOUS
10
127.84
20
-72.1
11
127.84
21
-61.3
0
LINE
8
BLACK
6
CONTINUOUS
10
127.84
20
-61.3
11
127.858
21
-61.2576
0
LINE
8
BLACK
6
CONTINUOUS
10
127.858
20
-61.2576
11
127.9
21
-61.24
0
LINE
8
BLACK
6
CONTINUOUS
10
127.9
20
-61.24
11
140.1
21
-61.24
0
LINE
8
BLACK
6
CONTINUOUS
10
140.1
20
-61.24
11
140.142
21
-61.2576
0
LINE
8
BLACK
6
CONTINUOUS
10
140.142
20
-61.2576
11
140.16
21
-61.3
0
LINE
8
BLACK
6
CONTINUOUS
10
140.16
20
-61.3
11
140.16
21
-72.1
0
LINE
8
BLACK
6
CONTINUOUS
10
140.16
20
-72.1
11
140.142
21
-72.1424
0
LINE
8
BLACK
6
CONTINUOUS
10
140.142
20
-72.1424
11
140.1
21
-72.16
0
LINE
8
BLACK
6
CONTINUOUS
10
140.1
20
-72.16
11
127.9
21
-72.16
0
LINE
8
BLACK
6
CONTINUOUS
10
127.9
20
-72.16
11
127.858
21
-72.1424
0
LINE
8
BLACK
6
CONTINUOUS
10
127.96
20
-61.36
11
127.96
21
-72.04
0
LINE
8
BLACK
6
CONTINUOUS
10
127.96
20
-72.04
11
140.04
21
-72.04
0
LINE
8
BLACK
6
CONTINUOUS
10
140.04
20
-72.04
11
140.04
21
-61.36
0
LINE
8
BLACK
6
CONTINUOUS
10
140.04
20
-61.36
11
127.96
21
-61.36
0
LINE
8
BLACK
6
CONTINUOUS
10
83.7876
20
-70.3424
11
83.77
21
-70.3
0
LINE
8
BLACK
6
CONTINUOUS
10
83.77
20
-70.3
11
83.77
21
-61.3
0
LINE
8
BLACK
6
CONTINUOUS
10
83.77
20
-61.3
11
83.7876
21
-61.2576
0
LINE
8
BLACK
6
CONTINUOUS
10
83.7876
20
-61.2576
11
83.83
21
-61.24
0
LINE
8
BLACK
6
CONTINUOUS
10
83.83
20
-61.24
11
104.33
21
-61.24
0
LINE
8
BLACK
6
CONTINUOUS
10
104.33
20
-61.24
11
104.372
21
-61.2576
0
LINE
8
BLACK
6
CONTINUOUS
10
104.372
20
-61.2576
11
104.39
21
-61.3
0
LINE
8
BLACK
6
CONTINUOUS
10
104.39
20
-61.3
11
104.39
21
-70.3
0
LINE
8
BLACK
6
CONTINUOUS
10
104.39
20
-70.3
11
104.372
21
-70.3424
0
LINE
8
BLACK
6
CONTINUOUS
10
104.372
20
-70.3424
11
104.33
21
-70.36
0
LINE
8
BLACK
6
CONTINUOUS
10
104.33
20
-70.36
11
83.83
21
-70.36
0
LINE
8
BLACK
6
CONTINUOUS
10
83.83
20
-70.36
11
83.7876
21
-70.3424
0
LINE
8
BLACK
6
CONTINUOUS
10
83.89
20
-61.36
11
83.89
21
-70.24
0
LINE
8
BLACK
6
CONTINUOUS
10
83.89
20
-70.24
11
104.27
21
-70.24
0
LINE
8
BLACK
6
CONTINUOUS
10
104.27
20
-70.24
11
104.27
21
-61.36
0
LINE
8
BLACK
6
CONTINUOUS
10
104.27
20
-61.36
11
83.89
21
-61.36
0
LINE
8
BLACK
6
CONTINUOUS
10
83.86
20
-55.5
11
83.86
21
-59.5
0
LINE
8
BLACK
6
CONTINUOUS
10
83.86
20
-59.5
11
83.8424
21
-59.5424
0
LINE
8
BLACK
6
CONTINUOUS
10
83.8424
20
-59.5424
11
83.8
21
-59.56
0
LINE
8
BLACK
6
CONTINUOUS
10
83.8
20
-59.56
11
76.2
21
-59.56
0
LINE
8
BLACK
6
CONTINUOUS
10
76.2
20
-59.56
11
76.1576
21
-59.5424
0
LINE
8
BLACK
6
CONTINUOUS
10
76.1576
20
-59.5424
11
76.14
21
-59.5
0
LINE
8
BLACK
6
CONTINUOUS
10
76.14
20
-59.5
11
76.14
21
-55.5
0
LINE
8
BLACK
6
CONTINUOUS
10
76.14
20
-55.5
11
76.1576
21
-55.4576
0
LINE
8
BLACK
6
CONTINUOUS
10
76.1576
20
-55.4576
11
76.2
21
-55.44
0
LINE
8
BLACK
6
CONTINUOUS
10
76.2
20
-55.44
11
76.94
21
-55.44
0
LINE
8
BLACK
6
CONTINUOUS
10
76.94
20
-55.44
11
76.94
21
-52.4
0
LINE
8
BLACK
6
CONTINUOUS
10
76.94
20
-52.4
11
76.9576
21
-52.3576
0
LINE
8
BLACK
6
CONTINUOUS
10
76.9576
20
-52.3576
11
77
21
-52.34
0
LINE
8
BLACK
6
CONTINUOUS
10
77
20
-52.34
11
83
21
-52.34
0
LINE
8
BLACK
6
CONTINUOUS
10
83
20
-52.34
11
83.0424
21
-52.3576
0
LINE
8
BLACK
6
CONTINUOUS
10
83.0424
20
-52.3576
11
83.06
21
-52.4
0
LINE
8
BLACK
6
CONTINUOUS
10
83.06
20
-52.4
11
83.06
21
-55.44
0
LINE
8
BLACK
6
CONTINUOUS
10
83.06
20
-55.44
11
83.8
21
-55.44
0
LINE
8
BLACK
6
CONTINUOUS
10
83.8
20
-55.44
11
83.8424
21
-55.4576
0
LINE
8
BLACK
6
CONTINUOUS
10
83.8424
20
-55.4576
11
83.86
21
-55.5
0
LINE
8
BLACK
6
CONTINUOUS
10
76.26
20
-59.44
11
83.74
21
-59.44
0
LINE
8
BLACK
6
CONTINUOUS
10
83.74
20
-59.44
11
83.74
21
-55.56
0
LINE
8
BLACK
6
CONTINUOUS
10
83.74
20
-55.56
11
83
21
-55.56
0
LINE
8
BLACK
6
CONTINUOUS
10
83
20
-55.56
11
82.9576
21
-55.5424
0
LINE
8
BLACK
6
CONTINUOUS
10
82.9576
20
-55.5424
11
82.94
21
-55.5
0
LINE
8
BLACK
6
CONTINUOUS
10
82.94
20
-55.5
11
82.94
21
-52.46
0
LINE
8
BLACK
6
CONTINUOUS
10
82.94
20
-52.46
11
77.06
21
-52.46
0
LINE
8
BLACK
6
CONTINUOUS
10
77.06
20
-52.46
11
77.06
21
-55.5
0
LINE
8
BLACK
6
CONTINUOUS
10
77.06
20
-55.5
11
77.0424
21
-55.5424
0
LINE
8
BLACK
6
CONTINUOUS
10
77.0424
20
-55.5424
11
77
21
-55.56
0
LINE
8
BLACK
6
CONTINUOUS
10
77
20
-55.56
11
76.26
21
-55.56
0
LINE
8
BLACK
6
CONTINUOUS
10
76.26
20
-55.56
11
76.26
21
-59.44
0
LINE
8
BLACK
6
CONTINUOUS
10
128.46
20
-58.3468
11
128.252
21
-58.269
0
LINE
8
BLACK
6
CONTINUOUS
10
128.252
20
-58.269
11
128.057
21
-58.1624
0
LINE
8
BLACK
6
CONTINUOUS
10
128.057
20
-58.1624
11
127.878
21
-58.029
0
LINE
8
BLACK
6
CONTINUOUS
10
127.878
20
-58.029
11
127.721
21
-57.8716
0
LINE
8
BLACK
6
CONTINUOUS
10
127.721
20
-57.8716
11
127.588
21
-57.6934
0
LINE
8
BLACK
6
CONTINUOUS
10
127.588
20
-57.6934
11
127.481
21
-57.498
0
LINE
8
BLACK
6
CONTINUOUS
10
127.481
20
-57.498
11
127.403
21
-57.2895
0
LINE
8
BLACK
6
CONTINUOUS
10
127.403
20
-57.2895
11
127.356
21
-57.072
0
LINE
8
BLACK
6
CONTINUOUS
10
127.356
20
-57.072
11
127.34
21
-56.85
0
LINE
8
BLACK
6
CONTINUOUS
10
127.34
20
-56.85
11
127.34
21
-54.05
0
LINE
8
BLACK
6
CONTINUOUS
10
127.34
20
-54.05
11
127.356
21
-53.828
0
LINE
8
BLACK
6
CONTINUOUS
10
127.356
20
-53.828
11
127.403
21
-53.6105
0
LINE
8
BLACK
6
CONTINUOUS
10
127.403
20
-53.6105
11
127.481
21
-53.402
0
LINE
8
BLACK
6
CONTINUOUS
10
127.481
20
-53.402
11
127.588
21
-53.2066
0
LINE
8
BLACK
6
CONTINUOUS
10
127.588
20
-53.2066
11
127.721
21
-53.0284
0
LINE
8
BLACK
6
CONTINUOUS
10
127.721
20
-53.0284
11
127.878
21
-52.871
0
LINE
8
BLACK
6
CONTINUOUS
10
127.878
20
-52.871
11
128.057
21
-52.7376
0
LINE
8
BLACK
6
CONTINUOUS
10
128.057
20
-52.7376
11
128.252
21
-52.631
0
LINE
8
BLACK
6
CONTINUOUS
10
128.252
20
-52.631
11
128.46
21
-52.5532
0
LINE
8
BLACK
6
CONTINUOUS
10
128.46
20
-52.5532
11
128.678
21
-52.5059
0
LINE
8
BLACK
6
CONTINUOUS
10
128.678
20
-52.5059
11
128.9
21
-52.49
0
LINE
8
BLACK
6
CONTINUOUS
10
128.9
20
-52.49
11
139.1
21
-52.49
0
LINE
8
BLACK
6
CONTINUOUS
10
139.1
20
-52.49
11
139.322
21
-52.5059
0
LINE
8
BLACK
6
CONTINUOUS
10
139.322
20
-52.5059
11
139.54
21
-52.5532
0
LINE
8
BLACK
6
CONTINUOUS
10
139.54
20
-52.5532
11
139.748
21
-52.631
0
LINE
8
BLACK
6
CONTINUOUS
10
139.748
20
-52.631
11
139.943
21
-52.7376
0
LINE
8
BLACK
6
CONTINUOUS
10
139.943
20
-52.7376
11
140.122
21
-52.871
0
LINE
8
BLACK
6
CONTINUOUS
10
140.122
20
-52.871
11
140.279
21
-53.0284
0
LINE
8
BLACK
6
CONTINUOUS
10
140.279
20
-53.0284
11
140.412
21
-53.2066
0
LINE
8
BLACK
6
CONTINUOUS
10
140.412
20
-53.2066
11
140.519
21
-53.402
0
LINE
8
BLACK
6
CONTINUOUS
10
140.519
20
-53.402
11
140.597
21
-53.6105
0
LINE
8
BLACK
6
CONTINUOUS
10
140.597
20
-53.6105
11
140.644
21
-53.828
0
LINE
8
BLACK
6
CONTINUOUS
10
140.644
20
-53.828
11
140.66
21
-54.05
0
LINE
8
BLACK
6
CONTINUOUS
10
140.66
20
-54.05
11
140.66
21
-56.65
0
LINE
8
BLACK
6
CONTINUOUS
10
140.66
20
-56.65
11
140.66
21
-56.6504
0
LINE
8
BLACK
6
CONTINUOUS
10
140.66
20
-56.6504
11
140.658
21
-56.8835
0
LINE
8
BLACK
6
CONTINUOUS
10
140.658
20
-56.8835
11
140.622
21
-57.1181
0
LINE
8
BLACK
6
CONTINUOUS
10
140.622
20
-57.1181
11
140.553
21
-57.3452
0
LINE
8
BLACK
6
CONTINUOUS
10
140.553
20
-57.3452
11
140.452
21
-57.5601
0
LINE
8
BLACK
6
CONTINUOUS
10
140.452
20
-57.5601
11
140.322
21
-57.7586
0
LINE
8
BLACK
6
CONTINUOUS
10
140.322
20
-57.7586
11
140.165
21
-57.9365
0
LINE
8
BLACK
6
CONTINUOUS
10
140.165
20
-57.9365
11
139.985
21
-58.0903
0
LINE
8
BLACK
6
CONTINUOUS
10
139.985
20
-58.0903
11
139.784
21
-58.2168
0
LINE
8
BLACK
6
CONTINUOUS
10
139.784
20
-58.2168
11
139.567
21
-58.3134
0
LINE
8
BLACK
6
CONTINUOUS
10
139.567
20
-58.3134
11
139.339
21
-58.3782
0
LINE
8
BLACK
6
CONTINUOUS
10
139.339
20
-58.3782
11
139.104
21
-58.4099
0
LINE
8
BLACK
6
CONTINUOUS
10
139.104
20
-58.4099
11
139.102
21
-58.4092
0
LINE
8
BLACK
6
CONTINUOUS
10
139.102
20
-58.4092
11
139.1
21
-58.41
0
LINE
8
BLACK
6
CONTINUOUS
10
139.1
20
-58.41
11
128.9
21
-58.41
0
LINE
8
BLACK
6
CONTINUOUS
10
128.9
20
-58.41
11
128.678
21
-58.3941
0
LINE
8
BLACK
6
CONTINUOUS
10
128.678
20
-58.3941
11
128.46
21
-58.3468
0
LINE
8
BLACK
6
CONTINUOUS
10
128.891
20
-52.6063
11
128.674
21
-52.6233
0
LINE
8
BLACK
6
CONTINUOUS
10
128.674
20
-52.6233
11
128.454
21
-52.6762
0
LINE
8
BLACK
6
CONTINUOUS
10
128.454
20
-52.6762
11
128.244
21
-52.763
0
LINE
8
BLACK
6
CONTINUOUS
10
128.244
20
-52.763
11
128.051
21
-52.8814
0
LINE
8
BLACK
6
CONTINUOUS
10
128.051
20
-52.8814
11
127.879
21
-53.0286
0
LINE
8
BLACK
6
CONTINUOUS
10
127.879
20
-53.0286
11
127.731
21
-53.201
0
LINE
8
BLACK
6
CONTINUOUS
10
127.731
20
-53.201
11
127.613
21
-53.3942
0
LINE
8
BLACK
6
CONTINUOUS
10
127.613
20
-53.3942
11
127.526
21
-53.6036
0
LINE
8
BLACK
6
CONTINUOUS
10
127.526
20
-53.6036
11
127.473
21
-53.824
0
LINE
8
BLACK
6
CONTINUOUS
10
127.473
20
-53.824
11
127.456
21
-54.041
0
LINE
8
BLACK
6
CONTINUOUS
10
127.456
20
-54.041
11
127.46
21
-54.05
0
LINE
8
BLACK
6
CONTINUOUS
10
127.46
20
-54.05
11
127.46
21
-56.85
0
LINE
8
BLACK
6
CONTINUOUS
10
127.46
20
-56.85
11
127.456
21
-56.859
0
LINE
8
BLACK
6
CONTINUOUS
10
127.456
20
-56.859
11
127.473
21
-57.076
0
LINE
8
BLACK
6
CONTINUOUS
10
127.473
20
-57.076
11
127.526
21
-57.2964
0
LINE
8
BLACK
6
CONTINUOUS
10
127.526
20
-57.2964
11
127.613
21
-57.5058
0
LINE
8
BLACK
6
CONTINUOUS
10
127.613
20
-57.5058
11
127.731
21
-57.699
0
LINE
8
BLACK
6
CONTINUOUS
10
127.731
20
-57.699
11
127.879
21
-57.8714
0
LINE
8
BLACK
6
CONTINUOUS
10
127.879
20
-57.8714
11
128.051
21
-58.0186
0
LINE
8
BLACK
6
CONTINUOUS
10
128.051
20
-58.0186
11
128.244
21
-58.137
0
LINE
8
BLACK
6
CONTINUOUS
10
128.244
20
-58.137
11
128.454
21
-58.2238
0
LINE
8
BLACK
6
CONTINUOUS
10
128.454
20
-58.2238
11
128.674
21
-58.2767
0
LINE
8
BLACK
6
CONTINUOUS
10
128.674
20
-58.2767
11
128.891
21
-58.2937
0
LINE
8
BLACK
6
CONTINUOUS
10
128.891
20
-58.2937
11
128.893
21
-58.293
0
LINE
8
BLACK
6
CONTINUOUS
10
128.893
20
-58.293
11
128.9
21
-58.29
0
LINE
8
BLACK
6
CONTINUOUS
10
128.9
20
-58.29
11
139.1
21
-58.29
0
LINE
8
BLACK
6
CONTINUOUS
10
139.1
20
-58.29
11
139.107
21
-58.2927
0
LINE
8
BLACK
6
CONTINUOUS
10
139.107
20
-58.2927
11
139.315
21
-58.2646
0
LINE
8
BLACK
6
CONTINUOUS
10
139.315
20
-58.2646
11
139.528
21
-58.2043
0
LINE
8
BLACK
6
CONTINUOUS
10
139.528
20
-58.2043
11
139.729
21
-58.1144
0
LINE
8
BLACK
6
CONTINUOUS
10
139.729
20
-58.1144
11
139.916
21
-57.9968
0
LINE
8
BLACK
6
CONTINUOUS
10
139.916
20
-57.9968
11
140.084
21
-57.8537
0
LINE
8
BLACK
6
CONTINUOUS
10
140.084
20
-57.8537
11
140.23
21
-57.6882
0
LINE
8
BLACK
6
CONTINUOUS
10
140.23
20
-57.6882
11
140.351
21
-57.5036
0
LINE
8
BLACK
6
CONTINUOUS
10
140.351
20
-57.5036
11
140.445
21
-57.3036
0
LINE
8
BLACK
6
CONTINUOUS
10
140.445
20
-57.3036
11
140.509
21
-57.0924
0
LINE
8
BLACK
6
CONTINUOUS
10
140.509
20
-57.0924
11
140.542
21
-56.8742
0
LINE
8
BLACK
6
CONTINUOUS
10
140.542
20
-56.8742
11
140.544
21
-56.6616
0
LINE
8
BLACK
6
CONTINUOUS
10
140.544
20
-56.6616
11
140.54
21
-56.6537
0
LINE
8
BLACK
6
CONTINUOUS
10
140.54
20
-56.6537
11
140.541
21
-56.6518
0
LINE
8
BLACK
6
CONTINUOUS
10
140.541
20
-56.6518
11
140.54
21
-56.65
0
LINE
8
BLACK
6
CONTINUOUS
10
140.54
20
-56.65
11
140.54
21
-54.05
0
LINE
8
BLACK
6
CONTINUOUS
10
140.54
20
-54.05
11
140.544
21
-54.041
0
LINE
8
BLACK
6
CONTINUOUS
10
140.544
20
-54.041
11
140.527
21
-53.824
0
LINE
8
BLACK
6
CONTINUOUS
10
140.527
20
-53.824
11
140.474
21
-53.6036
0
LINE
8
BLACK
6
CONTINUOUS
10
140.474
20
-53.6036
11
140.387
21
-53.3942
0
LINE
8
BLACK
6
CONTINUOUS
10
140.387
20
-53.3942
11
140.269
21
-53.201
0
LINE
8
BLACK
6
CONTINUOUS
10
140.269
20
-53.201
11
140.121
21
-53.0286
0
LINE
8
BLACK
6
CONTINUOUS
10
140.121
20
-53.0286
11
139.949
21
-52.8814
0
LINE
8
BLACK
6
CONTINUOUS
10
139.949
20
-52.8814
11
139.756
21
-52.763
0
LINE
8
BLACK
6
CONTINUOUS
10
139.756
20
-52.763
11
139.546
21
-52.6762
0
LINE
8
BLACK
6
CONTINUOUS
10
139.546
20
-52.6762
11
139.326
21
-52.6233
0
LINE
8
BLACK
6
CONTINUOUS
10
139.326
20
-52.6233
11
139.109
21
-52.6063
0
LINE
8
BLACK
6
CONTINUOUS
10
139.109
20
-52.6063
11
139.1
21
-52.61
0
LINE
8
BLACK
6
CONTINUOUS
10
139.1
20
-52.61
11
128.9
21
-52.61
0
LINE
8
BLACK
6
CONTINUOUS
10
128.9
20
-52.61
11
128.891
21
-52.6063
  0
ENDSEC
  0
EOF
