%TF.GenerationSoftware,KiCad,Pcbnew,5.1.9-73d0e3b20d~88~ubuntu18.04.1*%
%TF.CreationDate,2020-12-31T14:05:02+01:00*%
%TF.ProjectId,ss_frontpanel_outer_plate,73735f66-726f-46e7-9470-616e656c5f6f,rev?*%
%TF.SameCoordinates,Original*%
%TF.FileFunction,Copper,L2,Bot*%
%TF.FilePolarity,Positive*%
%FSLAX46Y46*%
G04 Gerber Fmt 4.6, Leading zero omitted, Abs format (unit mm)*
G04 Created by KiCad (PCBNEW 5.1.9-73d0e3b20d~88~ubuntu18.04.1) date 2020-12-31 14:05:02*
%MOMM*%
%LPD*%
G01*
G04 APERTURE LIST*
%TA.AperFunction,SMDPad,CuDef*%
%ADD10C,0.100000*%
%TD*%
%TA.AperFunction,SMDPad,CuDef*%
%ADD11R,3.000000X1.200000*%
%TD*%
%TA.AperFunction,SMDPad,CuDef*%
%ADD12R,1.600000X0.300000*%
%TD*%
%TA.AperFunction,SMDPad,CuDef*%
%ADD13R,1.200000X0.800000*%
%TD*%
%TA.AperFunction,ViaPad*%
%ADD14C,0.600000*%
%TD*%
%TA.AperFunction,Conductor*%
%ADD15C,0.250000*%
%TD*%
%TA.AperFunction,Conductor*%
%ADD16C,0.200000*%
%TD*%
%TA.AperFunction,Conductor*%
%ADD17C,0.150000*%
%TD*%
%TA.AperFunction,Conductor*%
%ADD18C,0.127000*%
%TD*%
%TA.AperFunction,Conductor*%
%ADD19C,0.100000*%
%TD*%
G04 APERTURE END LIST*
%TO.P,R21,2*%
%TO.N,/Touch-sense controller/HWID*%
%TA.AperFunction,SMDPad,CuDef*%
G36*
G01*
X210690000Y-77922500D02*
X210690000Y-77577500D01*
G75*
G02*
X210837500Y-77430000I147500J0D01*
G01*
X211132500Y-77430000D01*
G75*
G02*
X211280000Y-77577500I0J-147500D01*
G01*
X211280000Y-77922500D01*
G75*
G02*
X211132500Y-78070000I-147500J0D01*
G01*
X210837500Y-78070000D01*
G75*
G02*
X210690000Y-77922500I0J147500D01*
G01*
G37*
%TD.AperFunction*%
%TO.P,R21,1*%
%TO.N,Net-(R15-Pad1)*%
%TA.AperFunction,SMDPad,CuDef*%
G36*
G01*
X209720000Y-77922500D02*
X209720000Y-77577500D01*
G75*
G02*
X209867500Y-77430000I147500J0D01*
G01*
X210162500Y-77430000D01*
G75*
G02*
X210310000Y-77577500I0J-147500D01*
G01*
X210310000Y-77922500D01*
G75*
G02*
X210162500Y-78070000I-147500J0D01*
G01*
X209867500Y-78070000D01*
G75*
G02*
X209720000Y-77922500I0J147500D01*
G01*
G37*
%TD.AperFunction*%
%TD*%
%TO.P,R16,2*%
%TO.N,/Touch-sense controller/HWID*%
%TA.AperFunction,SMDPad,CuDef*%
G36*
G01*
X213172500Y-78060000D02*
X212827500Y-78060000D01*
G75*
G02*
X212680000Y-77912500I0J147500D01*
G01*
X212680000Y-77617500D01*
G75*
G02*
X212827500Y-77470000I147500J0D01*
G01*
X213172500Y-77470000D01*
G75*
G02*
X213320000Y-77617500I0J-147500D01*
G01*
X213320000Y-77912500D01*
G75*
G02*
X213172500Y-78060000I-147500J0D01*
G01*
G37*
%TD.AperFunction*%
%TO.P,R16,1*%
%TO.N,VDD_IO*%
%TA.AperFunction,SMDPad,CuDef*%
G36*
G01*
X213172500Y-79030000D02*
X212827500Y-79030000D01*
G75*
G02*
X212680000Y-78882500I0J147500D01*
G01*
X212680000Y-78587500D01*
G75*
G02*
X212827500Y-78440000I147500J0D01*
G01*
X213172500Y-78440000D01*
G75*
G02*
X213320000Y-78587500I0J-147500D01*
G01*
X213320000Y-78882500D01*
G75*
G02*
X213172500Y-79030000I-147500J0D01*
G01*
G37*
%TD.AperFunction*%
%TD*%
%TO.P,R15,2*%
%TO.N,VDD_IO*%
%TA.AperFunction,SMDPad,CuDef*%
G36*
G01*
X210690000Y-78922500D02*
X210690000Y-78577500D01*
G75*
G02*
X210837500Y-78430000I147500J0D01*
G01*
X211132500Y-78430000D01*
G75*
G02*
X211280000Y-78577500I0J-147500D01*
G01*
X211280000Y-78922500D01*
G75*
G02*
X211132500Y-79070000I-147500J0D01*
G01*
X210837500Y-79070000D01*
G75*
G02*
X210690000Y-78922500I0J147500D01*
G01*
G37*
%TD.AperFunction*%
%TO.P,R15,1*%
%TO.N,Net-(R15-Pad1)*%
%TA.AperFunction,SMDPad,CuDef*%
G36*
G01*
X209720000Y-78922500D02*
X209720000Y-78577500D01*
G75*
G02*
X209867500Y-78430000I147500J0D01*
G01*
X210162500Y-78430000D01*
G75*
G02*
X210310000Y-78577500I0J-147500D01*
G01*
X210310000Y-78922500D01*
G75*
G02*
X210162500Y-79070000I-147500J0D01*
G01*
X209867500Y-79070000D01*
G75*
G02*
X209720000Y-78922500I0J147500D01*
G01*
G37*
%TD.AperFunction*%
%TD*%
%TA.AperFunction,SMDPad,CuDef*%
D10*
%TO.P,D1,1*%
%TO.N,Net-(D1-Pad1)*%
G36*
X220475736Y-71407107D02*
G01*
X220900000Y-70982843D01*
X221324264Y-71407107D01*
X220900000Y-71831371D01*
X220475736Y-71407107D01*
G37*
%TD.AperFunction*%
%TA.AperFunction,SMDPad,CuDef*%
%TO.P,D1,2*%
%TO.N,Net-(D1-Pad2)*%
G36*
X221182843Y-70700000D02*
G01*
X221607107Y-70275736D01*
X222031371Y-70700000D01*
X221607107Y-71124264D01*
X221182843Y-70700000D01*
G37*
%TD.AperFunction*%
%TA.AperFunction,SMDPad,CuDef*%
%TO.P,D1,3*%
%TO.N,Net-(D1-Pad3)*%
G36*
X220475736Y-69992893D02*
G01*
X220900000Y-69568629D01*
X221324264Y-69992893D01*
X220900000Y-70417157D01*
X220475736Y-69992893D01*
G37*
%TD.AperFunction*%
%TA.AperFunction,SMDPad,CuDef*%
%TO.P,D1,4*%
%TO.N,/Touch-sense controller/~AUX_IRQn~*%
G36*
X219768629Y-70700000D02*
G01*
X220192893Y-70275736D01*
X220617157Y-70700000D01*
X220192893Y-71124264D01*
X219768629Y-70700000D01*
G37*
%TD.AperFunction*%
%TD*%
%TO.P,R14,2*%
%TO.N,VDD_IO*%
%TA.AperFunction,SMDPad,CuDef*%
G36*
G01*
X224400000Y-72306250D02*
X224400000Y-71793750D01*
G75*
G02*
X224618750Y-71575000I218750J0D01*
G01*
X225056250Y-71575000D01*
G75*
G02*
X225275000Y-71793750I0J-218750D01*
G01*
X225275000Y-72306250D01*
G75*
G02*
X225056250Y-72525000I-218750J0D01*
G01*
X224618750Y-72525000D01*
G75*
G02*
X224400000Y-72306250I0J218750D01*
G01*
G37*
%TD.AperFunction*%
%TO.P,R14,1*%
%TA.AperFunction,SMDPad,CuDef*%
G36*
G01*
X222825000Y-72306250D02*
X222825000Y-71793750D01*
G75*
G02*
X223043750Y-71575000I218750J0D01*
G01*
X223481250Y-71575000D01*
G75*
G02*
X223700000Y-71793750I0J-218750D01*
G01*
X223700000Y-72306250D01*
G75*
G02*
X223481250Y-72525000I-218750J0D01*
G01*
X223043750Y-72525000D01*
G75*
G02*
X222825000Y-72306250I0J218750D01*
G01*
G37*
%TD.AperFunction*%
%TD*%
%TO.P,R20,2*%
%TO.N,VDD_IO*%
%TA.AperFunction,SMDPad,CuDef*%
G36*
G01*
X221927500Y-72390000D02*
X222272500Y-72390000D01*
G75*
G02*
X222420000Y-72537500I0J-147500D01*
G01*
X222420000Y-72832500D01*
G75*
G02*
X222272500Y-72980000I-147500J0D01*
G01*
X221927500Y-72980000D01*
G75*
G02*
X221780000Y-72832500I0J147500D01*
G01*
X221780000Y-72537500D01*
G75*
G02*
X221927500Y-72390000I147500J0D01*
G01*
G37*
%TD.AperFunction*%
%TO.P,R20,1*%
%TO.N,Net-(D1-Pad1)*%
%TA.AperFunction,SMDPad,CuDef*%
G36*
G01*
X221927500Y-71420000D02*
X222272500Y-71420000D01*
G75*
G02*
X222420000Y-71567500I0J-147500D01*
G01*
X222420000Y-71862500D01*
G75*
G02*
X222272500Y-72010000I-147500J0D01*
G01*
X221927500Y-72010000D01*
G75*
G02*
X221780000Y-71862500I0J147500D01*
G01*
X221780000Y-71567500D01*
G75*
G02*
X221927500Y-71420000I147500J0D01*
G01*
G37*
%TD.AperFunction*%
%TD*%
%TO.P,R10,2*%
%TO.N,Net-(R10-Pad2)*%
%TA.AperFunction,SMDPad,CuDef*%
G36*
G01*
X229587625Y-61993673D02*
X229343673Y-62237625D01*
G75*
G02*
X229135077Y-62237625I-104298J104298D01*
G01*
X228926481Y-62029029D01*
G75*
G02*
X228926481Y-61820433I104298J104298D01*
G01*
X229170433Y-61576481D01*
G75*
G02*
X229379029Y-61576481I104298J-104298D01*
G01*
X229587625Y-61785077D01*
G75*
G02*
X229587625Y-61993673I-104298J-104298D01*
G01*
G37*
%TD.AperFunction*%
%TO.P,R10,1*%
%TO.N,/Touch-sense controller/SWDIO*%
%TA.AperFunction,SMDPad,CuDef*%
G36*
G01*
X230273519Y-62679567D02*
X230029567Y-62923519D01*
G75*
G02*
X229820971Y-62923519I-104298J104298D01*
G01*
X229612375Y-62714923D01*
G75*
G02*
X229612375Y-62506327I104298J104298D01*
G01*
X229856327Y-62262375D01*
G75*
G02*
X230064923Y-62262375I104298J-104298D01*
G01*
X230273519Y-62470971D01*
G75*
G02*
X230273519Y-62679567I-104298J-104298D01*
G01*
G37*
%TD.AperFunction*%
%TD*%
%TO.P,R8,2*%
%TO.N,/Touch-sense controller/G5_2*%
%TA.AperFunction,SMDPad,CuDef*%
G36*
G01*
X229733709Y-68221316D02*
X229371316Y-68583709D01*
G75*
G02*
X229061956Y-68583709I-154680J154680D01*
G01*
X228752597Y-68274350D01*
G75*
G02*
X228752597Y-67964990I154680J154680D01*
G01*
X229114990Y-67602597D01*
G75*
G02*
X229424350Y-67602597I154680J-154680D01*
G01*
X229733709Y-67911956D01*
G75*
G02*
X229733709Y-68221316I-154680J-154680D01*
G01*
G37*
%TD.AperFunction*%
%TO.P,R8,1*%
%TO.N,/Touch-sense controller/LTS2_1*%
%TA.AperFunction,SMDPad,CuDef*%
G36*
G01*
X230847403Y-69335010D02*
X230485010Y-69697403D01*
G75*
G02*
X230175650Y-69697403I-154680J154680D01*
G01*
X229866291Y-69388044D01*
G75*
G02*
X229866291Y-69078684I154680J154680D01*
G01*
X230228684Y-68716291D01*
G75*
G02*
X230538044Y-68716291I154680J-154680D01*
G01*
X230847403Y-69025650D01*
G75*
G02*
X230847403Y-69335010I-154680J-154680D01*
G01*
G37*
%TD.AperFunction*%
%TD*%
%TO.P,R19,2*%
%TO.N,GND*%
%TA.AperFunction,SMDPad,CuDef*%
G36*
G01*
X226650000Y-79456250D02*
X226650000Y-78943750D01*
G75*
G02*
X226868750Y-78725000I218750J0D01*
G01*
X227306250Y-78725000D01*
G75*
G02*
X227525000Y-78943750I0J-218750D01*
G01*
X227525000Y-79456250D01*
G75*
G02*
X227306250Y-79675000I-218750J0D01*
G01*
X226868750Y-79675000D01*
G75*
G02*
X226650000Y-79456250I0J218750D01*
G01*
G37*
%TD.AperFunction*%
%TO.P,R19,1*%
%TA.AperFunction,SMDPad,CuDef*%
G36*
G01*
X225075000Y-79456250D02*
X225075000Y-78943750D01*
G75*
G02*
X225293750Y-78725000I218750J0D01*
G01*
X225731250Y-78725000D01*
G75*
G02*
X225950000Y-78943750I0J-218750D01*
G01*
X225950000Y-79456250D01*
G75*
G02*
X225731250Y-79675000I-218750J0D01*
G01*
X225293750Y-79675000D01*
G75*
G02*
X225075000Y-79456250I0J218750D01*
G01*
G37*
%TD.AperFunction*%
%TD*%
%TO.P,R18,2*%
%TO.N,VDD_IO*%
%TA.AperFunction,SMDPad,CuDef*%
G36*
G01*
X226750000Y-87106250D02*
X226750000Y-86593750D01*
G75*
G02*
X226968750Y-86375000I218750J0D01*
G01*
X227406250Y-86375000D01*
G75*
G02*
X227625000Y-86593750I0J-218750D01*
G01*
X227625000Y-87106250D01*
G75*
G02*
X227406250Y-87325000I-218750J0D01*
G01*
X226968750Y-87325000D01*
G75*
G02*
X226750000Y-87106250I0J218750D01*
G01*
G37*
%TD.AperFunction*%
%TO.P,R18,1*%
%TA.AperFunction,SMDPad,CuDef*%
G36*
G01*
X225175000Y-87106250D02*
X225175000Y-86593750D01*
G75*
G02*
X225393750Y-86375000I218750J0D01*
G01*
X225831250Y-86375000D01*
G75*
G02*
X226050000Y-86593750I0J-218750D01*
G01*
X226050000Y-87106250D01*
G75*
G02*
X225831250Y-87325000I-218750J0D01*
G01*
X225393750Y-87325000D01*
G75*
G02*
X225175000Y-87106250I0J218750D01*
G01*
G37*
%TD.AperFunction*%
%TD*%
%TO.P,R12,2*%
%TO.N,/Touch-sense controller/G6_2*%
%TA.AperFunction,SMDPad,CuDef*%
G36*
G01*
X224625000Y-74325000D02*
X223375000Y-74325000D01*
G75*
G02*
X223125000Y-74075000I0J250000D01*
G01*
X223125000Y-73325000D01*
G75*
G02*
X223375000Y-73075000I250000J0D01*
G01*
X224625000Y-73075000D01*
G75*
G02*
X224875000Y-73325000I0J-250000D01*
G01*
X224875000Y-74075000D01*
G75*
G02*
X224625000Y-74325000I-250000J0D01*
G01*
G37*
%TD.AperFunction*%
%TO.P,R12,1*%
%TO.N,/Touch-sense controller/LTS2_5*%
%TA.AperFunction,SMDPad,CuDef*%
G36*
G01*
X224625000Y-77125000D02*
X223375000Y-77125000D01*
G75*
G02*
X223125000Y-76875000I0J250000D01*
G01*
X223125000Y-76125000D01*
G75*
G02*
X223375000Y-75875000I250000J0D01*
G01*
X224625000Y-75875000D01*
G75*
G02*
X224875000Y-76125000I0J-250000D01*
G01*
X224875000Y-76875000D01*
G75*
G02*
X224625000Y-77125000I-250000J0D01*
G01*
G37*
%TD.AperFunction*%
%TD*%
%TO.P,R11,2*%
%TO.N,/Touch-sense controller/G6_4*%
%TA.AperFunction,SMDPad,CuDef*%
G36*
G01*
X227121316Y-59116291D02*
X227483709Y-59478684D01*
G75*
G02*
X227483709Y-59788044I-154680J-154680D01*
G01*
X227174350Y-60097403D01*
G75*
G02*
X226864990Y-60097403I-154680J154680D01*
G01*
X226502597Y-59735010D01*
G75*
G02*
X226502597Y-59425650I154680J154680D01*
G01*
X226811956Y-59116291D01*
G75*
G02*
X227121316Y-59116291I154680J-154680D01*
G01*
G37*
%TD.AperFunction*%
%TO.P,R11,1*%
%TO.N,/Touch-sense controller/LTS1_3*%
%TA.AperFunction,SMDPad,CuDef*%
G36*
G01*
X228235010Y-58002597D02*
X228597403Y-58364990D01*
G75*
G02*
X228597403Y-58674350I-154680J-154680D01*
G01*
X228288044Y-58983709D01*
G75*
G02*
X227978684Y-58983709I-154680J154680D01*
G01*
X227616291Y-58621316D01*
G75*
G02*
X227616291Y-58311956I154680J154680D01*
G01*
X227925650Y-58002597D01*
G75*
G02*
X228235010Y-58002597I154680J-154680D01*
G01*
G37*
%TD.AperFunction*%
%TD*%
%TO.P,R13,2*%
%TO.N,Net-(R13-Pad2)*%
%TA.AperFunction,SMDPad,CuDef*%
G36*
G01*
X230172500Y-66210000D02*
X229827500Y-66210000D01*
G75*
G02*
X229680000Y-66062500I0J147500D01*
G01*
X229680000Y-65767500D01*
G75*
G02*
X229827500Y-65620000I147500J0D01*
G01*
X230172500Y-65620000D01*
G75*
G02*
X230320000Y-65767500I0J-147500D01*
G01*
X230320000Y-66062500D01*
G75*
G02*
X230172500Y-66210000I-147500J0D01*
G01*
G37*
%TD.AperFunction*%
%TO.P,R13,1*%
%TO.N,/Touch-sense controller/SWCLK*%
%TA.AperFunction,SMDPad,CuDef*%
G36*
G01*
X230172500Y-67180000D02*
X229827500Y-67180000D01*
G75*
G02*
X229680000Y-67032500I0J147500D01*
G01*
X229680000Y-66737500D01*
G75*
G02*
X229827500Y-66590000I147500J0D01*
G01*
X230172500Y-66590000D01*
G75*
G02*
X230320000Y-66737500I0J-147500D01*
G01*
X230320000Y-67032500D01*
G75*
G02*
X230172500Y-67180000I-147500J0D01*
G01*
G37*
%TD.AperFunction*%
%TD*%
%TO.P,C15,2*%
%TO.N,GND*%
%TA.AperFunction,SMDPad,CuDef*%
G36*
G01*
X223187625Y-58843673D02*
X222943673Y-59087625D01*
G75*
G02*
X222735077Y-59087625I-104298J104298D01*
G01*
X222526481Y-58879029D01*
G75*
G02*
X222526481Y-58670433I104298J104298D01*
G01*
X222770433Y-58426481D01*
G75*
G02*
X222979029Y-58426481I104298J-104298D01*
G01*
X223187625Y-58635077D01*
G75*
G02*
X223187625Y-58843673I-104298J-104298D01*
G01*
G37*
%TD.AperFunction*%
%TO.P,C15,1*%
%TO.N,VDD_IO*%
%TA.AperFunction,SMDPad,CuDef*%
G36*
G01*
X223873519Y-59529567D02*
X223629567Y-59773519D01*
G75*
G02*
X223420971Y-59773519I-104298J104298D01*
G01*
X223212375Y-59564923D01*
G75*
G02*
X223212375Y-59356327I104298J104298D01*
G01*
X223456327Y-59112375D01*
G75*
G02*
X223664923Y-59112375I104298J-104298D01*
G01*
X223873519Y-59320971D01*
G75*
G02*
X223873519Y-59529567I-104298J-104298D01*
G01*
G37*
%TD.AperFunction*%
%TD*%
%TO.P,C14,2*%
%TO.N,GND*%
%TA.AperFunction,SMDPad,CuDef*%
G36*
G01*
X229827500Y-64740000D02*
X230172500Y-64740000D01*
G75*
G02*
X230320000Y-64887500I0J-147500D01*
G01*
X230320000Y-65182500D01*
G75*
G02*
X230172500Y-65330000I-147500J0D01*
G01*
X229827500Y-65330000D01*
G75*
G02*
X229680000Y-65182500I0J147500D01*
G01*
X229680000Y-64887500D01*
G75*
G02*
X229827500Y-64740000I147500J0D01*
G01*
G37*
%TD.AperFunction*%
%TO.P,C14,1*%
%TO.N,VDD_IO*%
%TA.AperFunction,SMDPad,CuDef*%
G36*
G01*
X229827500Y-63770000D02*
X230172500Y-63770000D01*
G75*
G02*
X230320000Y-63917500I0J-147500D01*
G01*
X230320000Y-64212500D01*
G75*
G02*
X230172500Y-64360000I-147500J0D01*
G01*
X229827500Y-64360000D01*
G75*
G02*
X229680000Y-64212500I0J147500D01*
G01*
X229680000Y-63917500D01*
G75*
G02*
X229827500Y-63770000I147500J0D01*
G01*
G37*
%TD.AperFunction*%
%TD*%
%TO.P,C13,2*%
%TO.N,GND*%
%TA.AperFunction,SMDPad,CuDef*%
G36*
G01*
X226506327Y-70737625D02*
X226262375Y-70493673D01*
G75*
G02*
X226262375Y-70285077I104298J104298D01*
G01*
X226470971Y-70076481D01*
G75*
G02*
X226679567Y-70076481I104298J-104298D01*
G01*
X226923519Y-70320433D01*
G75*
G02*
X226923519Y-70529029I-104298J-104298D01*
G01*
X226714923Y-70737625D01*
G75*
G02*
X226506327Y-70737625I-104298J104298D01*
G01*
G37*
%TD.AperFunction*%
%TO.P,C13,1*%
%TO.N,VDD_IO*%
%TA.AperFunction,SMDPad,CuDef*%
G36*
G01*
X225820433Y-71423519D02*
X225576481Y-71179567D01*
G75*
G02*
X225576481Y-70970971I104298J104298D01*
G01*
X225785077Y-70762375D01*
G75*
G02*
X225993673Y-70762375I104298J-104298D01*
G01*
X226237625Y-71006327D01*
G75*
G02*
X226237625Y-71214923I-104298J-104298D01*
G01*
X226029029Y-71423519D01*
G75*
G02*
X225820433Y-71423519I-104298J104298D01*
G01*
G37*
%TD.AperFunction*%
%TD*%
%TO.P,C12,2*%
%TO.N,GND*%
%TA.AperFunction,SMDPad,CuDef*%
G36*
G01*
X218827500Y-68790000D02*
X219172500Y-68790000D01*
G75*
G02*
X219320000Y-68937500I0J-147500D01*
G01*
X219320000Y-69232500D01*
G75*
G02*
X219172500Y-69380000I-147500J0D01*
G01*
X218827500Y-69380000D01*
G75*
G02*
X218680000Y-69232500I0J147500D01*
G01*
X218680000Y-68937500D01*
G75*
G02*
X218827500Y-68790000I147500J0D01*
G01*
G37*
%TD.AperFunction*%
%TO.P,C12,1*%
%TO.N,VDD_IO*%
%TA.AperFunction,SMDPad,CuDef*%
G36*
G01*
X218827500Y-67820000D02*
X219172500Y-67820000D01*
G75*
G02*
X219320000Y-67967500I0J-147500D01*
G01*
X219320000Y-68262500D01*
G75*
G02*
X219172500Y-68410000I-147500J0D01*
G01*
X218827500Y-68410000D01*
G75*
G02*
X218680000Y-68262500I0J147500D01*
G01*
X218680000Y-67967500D01*
G75*
G02*
X218827500Y-67820000I147500J0D01*
G01*
G37*
%TD.AperFunction*%
%TD*%
%TO.P,C3,2*%
%TO.N,GND*%
%TA.AperFunction,SMDPad,CuDef*%
G36*
G01*
X220772500Y-78810000D02*
X220427500Y-78810000D01*
G75*
G02*
X220280000Y-78662500I0J147500D01*
G01*
X220280000Y-78367500D01*
G75*
G02*
X220427500Y-78220000I147500J0D01*
G01*
X220772500Y-78220000D01*
G75*
G02*
X220920000Y-78367500I0J-147500D01*
G01*
X220920000Y-78662500D01*
G75*
G02*
X220772500Y-78810000I-147500J0D01*
G01*
G37*
%TD.AperFunction*%
%TO.P,C3,1*%
%TO.N,VDD_IO*%
%TA.AperFunction,SMDPad,CuDef*%
G36*
G01*
X220772500Y-79780000D02*
X220427500Y-79780000D01*
G75*
G02*
X220280000Y-79632500I0J147500D01*
G01*
X220280000Y-79337500D01*
G75*
G02*
X220427500Y-79190000I147500J0D01*
G01*
X220772500Y-79190000D01*
G75*
G02*
X220920000Y-79337500I0J-147500D01*
G01*
X220920000Y-79632500D01*
G75*
G02*
X220772500Y-79780000I-147500J0D01*
G01*
G37*
%TD.AperFunction*%
%TD*%
%TO.P,C1,2*%
%TO.N,GND*%
%TA.AperFunction,SMDPad,CuDef*%
G36*
G01*
X220327500Y-75090000D02*
X220672500Y-75090000D01*
G75*
G02*
X220820000Y-75237500I0J-147500D01*
G01*
X220820000Y-75532500D01*
G75*
G02*
X220672500Y-75680000I-147500J0D01*
G01*
X220327500Y-75680000D01*
G75*
G02*
X220180000Y-75532500I0J147500D01*
G01*
X220180000Y-75237500D01*
G75*
G02*
X220327500Y-75090000I147500J0D01*
G01*
G37*
%TD.AperFunction*%
%TO.P,C1,1*%
%TO.N,/Touch-sense controller/NRST*%
%TA.AperFunction,SMDPad,CuDef*%
G36*
G01*
X220327500Y-74120000D02*
X220672500Y-74120000D01*
G75*
G02*
X220820000Y-74267500I0J-147500D01*
G01*
X220820000Y-74562500D01*
G75*
G02*
X220672500Y-74710000I-147500J0D01*
G01*
X220327500Y-74710000D01*
G75*
G02*
X220180000Y-74562500I0J147500D01*
G01*
X220180000Y-74267500D01*
G75*
G02*
X220327500Y-74120000I147500J0D01*
G01*
G37*
%TD.AperFunction*%
%TD*%
%TO.P,C2,2*%
%TO.N,GND*%
%TA.AperFunction,SMDPad,CuDef*%
G36*
G01*
X220327500Y-73190000D02*
X220672500Y-73190000D01*
G75*
G02*
X220820000Y-73337500I0J-147500D01*
G01*
X220820000Y-73632500D01*
G75*
G02*
X220672500Y-73780000I-147500J0D01*
G01*
X220327500Y-73780000D01*
G75*
G02*
X220180000Y-73632500I0J147500D01*
G01*
X220180000Y-73337500D01*
G75*
G02*
X220327500Y-73190000I147500J0D01*
G01*
G37*
%TD.AperFunction*%
%TO.P,C2,1*%
%TO.N,VDD_IO*%
%TA.AperFunction,SMDPad,CuDef*%
G36*
G01*
X220327500Y-72220000D02*
X220672500Y-72220000D01*
G75*
G02*
X220820000Y-72367500I0J-147500D01*
G01*
X220820000Y-72662500D01*
G75*
G02*
X220672500Y-72810000I-147500J0D01*
G01*
X220327500Y-72810000D01*
G75*
G02*
X220180000Y-72662500I0J147500D01*
G01*
X220180000Y-72367500D01*
G75*
G02*
X220327500Y-72220000I147500J0D01*
G01*
G37*
%TD.AperFunction*%
%TD*%
%TO.P,C17,2*%
%TO.N,GND*%
%TA.AperFunction,SMDPad,CuDef*%
G36*
G01*
X227256327Y-71487625D02*
X227012375Y-71243673D01*
G75*
G02*
X227012375Y-71035077I104298J104298D01*
G01*
X227220971Y-70826481D01*
G75*
G02*
X227429567Y-70826481I104298J-104298D01*
G01*
X227673519Y-71070433D01*
G75*
G02*
X227673519Y-71279029I-104298J-104298D01*
G01*
X227464923Y-71487625D01*
G75*
G02*
X227256327Y-71487625I-104298J104298D01*
G01*
G37*
%TD.AperFunction*%
%TO.P,C17,1*%
%TO.N,VDD_IO*%
%TA.AperFunction,SMDPad,CuDef*%
G36*
G01*
X226570433Y-72173519D02*
X226326481Y-71929567D01*
G75*
G02*
X226326481Y-71720971I104298J104298D01*
G01*
X226535077Y-71512375D01*
G75*
G02*
X226743673Y-71512375I104298J-104298D01*
G01*
X226987625Y-71756327D01*
G75*
G02*
X226987625Y-71964923I-104298J-104298D01*
G01*
X226779029Y-72173519D01*
G75*
G02*
X226570433Y-72173519I-104298J104298D01*
G01*
G37*
%TD.AperFunction*%
%TD*%
%TO.P,C4,2*%
%TO.N,GND*%
%TA.AperFunction,SMDPad,CuDef*%
G36*
G01*
X222625000Y-56575000D02*
X222625000Y-57825000D01*
G75*
G02*
X222375000Y-58075000I-250000J0D01*
G01*
X221625000Y-58075000D01*
G75*
G02*
X221375000Y-57825000I0J250000D01*
G01*
X221375000Y-56575000D01*
G75*
G02*
X221625000Y-56325000I250000J0D01*
G01*
X222375000Y-56325000D01*
G75*
G02*
X222625000Y-56575000I0J-250000D01*
G01*
G37*
%TD.AperFunction*%
%TO.P,C4,1*%
%TO.N,/Touch-sense controller/G6_3*%
%TA.AperFunction,SMDPad,CuDef*%
G36*
G01*
X225425000Y-56575000D02*
X225425000Y-57825000D01*
G75*
G02*
X225175000Y-58075000I-250000J0D01*
G01*
X224425000Y-58075000D01*
G75*
G02*
X224175000Y-57825000I0J250000D01*
G01*
X224175000Y-56575000D01*
G75*
G02*
X224425000Y-56325000I250000J0D01*
G01*
X225175000Y-56325000D01*
G75*
G02*
X225425000Y-56575000I0J-250000D01*
G01*
G37*
%TD.AperFunction*%
%TD*%
%TO.P,R17,2*%
%TO.N,VDD_IO*%
%TA.AperFunction,SMDPad,CuDef*%
G36*
G01*
X213827500Y-78440000D02*
X214172500Y-78440000D01*
G75*
G02*
X214320000Y-78587500I0J-147500D01*
G01*
X214320000Y-78882500D01*
G75*
G02*
X214172500Y-79030000I-147500J0D01*
G01*
X213827500Y-79030000D01*
G75*
G02*
X213680000Y-78882500I0J147500D01*
G01*
X213680000Y-78587500D01*
G75*
G02*
X213827500Y-78440000I147500J0D01*
G01*
G37*
%TD.AperFunction*%
%TO.P,R17,1*%
%TO.N,/Touch-sense controller/HWID*%
%TA.AperFunction,SMDPad,CuDef*%
G36*
G01*
X213827500Y-77470000D02*
X214172500Y-77470000D01*
G75*
G02*
X214320000Y-77617500I0J-147500D01*
G01*
X214320000Y-77912500D01*
G75*
G02*
X214172500Y-78060000I-147500J0D01*
G01*
X213827500Y-78060000D01*
G75*
G02*
X213680000Y-77912500I0J147500D01*
G01*
X213680000Y-77617500D01*
G75*
G02*
X213827500Y-77470000I147500J0D01*
G01*
G37*
%TD.AperFunction*%
%TD*%
%TO.P,R9,2*%
%TO.N,/Touch-sense controller/G2_4*%
%TA.AperFunction,SMDPad,CuDef*%
G36*
G01*
X219012375Y-61256327D02*
X219256327Y-61012375D01*
G75*
G02*
X219464923Y-61012375I104298J-104298D01*
G01*
X219673519Y-61220971D01*
G75*
G02*
X219673519Y-61429567I-104298J-104298D01*
G01*
X219429567Y-61673519D01*
G75*
G02*
X219220971Y-61673519I-104298J104298D01*
G01*
X219012375Y-61464923D01*
G75*
G02*
X219012375Y-61256327I104298J104298D01*
G01*
G37*
%TD.AperFunction*%
%TO.P,R9,1*%
%TO.N,/Touch-sense controller/LTS1_5*%
%TA.AperFunction,SMDPad,CuDef*%
G36*
G01*
X218326481Y-60570433D02*
X218570433Y-60326481D01*
G75*
G02*
X218779029Y-60326481I104298J-104298D01*
G01*
X218987625Y-60535077D01*
G75*
G02*
X218987625Y-60743673I-104298J-104298D01*
G01*
X218743673Y-60987625D01*
G75*
G02*
X218535077Y-60987625I-104298J104298D01*
G01*
X218326481Y-60779029D01*
G75*
G02*
X218326481Y-60570433I104298J104298D01*
G01*
G37*
%TD.AperFunction*%
%TD*%
%TO.P,R7,2*%
%TO.N,/Touch-sense controller/G2_2*%
%TA.AperFunction,SMDPad,CuDef*%
G36*
G01*
X217912375Y-64456327D02*
X218156327Y-64212375D01*
G75*
G02*
X218364923Y-64212375I104298J-104298D01*
G01*
X218573519Y-64420971D01*
G75*
G02*
X218573519Y-64629567I-104298J-104298D01*
G01*
X218329567Y-64873519D01*
G75*
G02*
X218120971Y-64873519I-104298J104298D01*
G01*
X217912375Y-64664923D01*
G75*
G02*
X217912375Y-64456327I104298J104298D01*
G01*
G37*
%TD.AperFunction*%
%TO.P,R7,1*%
%TO.N,/Touch-sense controller/LTS2_2*%
%TA.AperFunction,SMDPad,CuDef*%
G36*
G01*
X217226481Y-63770433D02*
X217470433Y-63526481D01*
G75*
G02*
X217679029Y-63526481I104298J-104298D01*
G01*
X217887625Y-63735077D01*
G75*
G02*
X217887625Y-63943673I-104298J-104298D01*
G01*
X217643673Y-64187625D01*
G75*
G02*
X217435077Y-64187625I-104298J104298D01*
G01*
X217226481Y-63979029D01*
G75*
G02*
X217226481Y-63770433I104298J104298D01*
G01*
G37*
%TD.AperFunction*%
%TD*%
%TO.P,R6,2*%
%TO.N,/Touch-sense controller/G4_4*%
%TA.AperFunction,SMDPad,CuDef*%
G36*
G01*
X228843673Y-60812375D02*
X229087625Y-61056327D01*
G75*
G02*
X229087625Y-61264923I-104298J-104298D01*
G01*
X228879029Y-61473519D01*
G75*
G02*
X228670433Y-61473519I-104298J104298D01*
G01*
X228426481Y-61229567D01*
G75*
G02*
X228426481Y-61020971I104298J104298D01*
G01*
X228635077Y-60812375D01*
G75*
G02*
X228843673Y-60812375I104298J-104298D01*
G01*
G37*
%TD.AperFunction*%
%TO.P,R6,1*%
%TO.N,/Touch-sense controller/LTS1_2*%
%TA.AperFunction,SMDPad,CuDef*%
G36*
G01*
X229529567Y-60126481D02*
X229773519Y-60370433D01*
G75*
G02*
X229773519Y-60579029I-104298J-104298D01*
G01*
X229564923Y-60787625D01*
G75*
G02*
X229356327Y-60787625I-104298J104298D01*
G01*
X229112375Y-60543673D01*
G75*
G02*
X229112375Y-60335077I104298J104298D01*
G01*
X229320971Y-60126481D01*
G75*
G02*
X229529567Y-60126481I104298J-104298D01*
G01*
G37*
%TD.AperFunction*%
%TD*%
%TO.P,R5,2*%
%TO.N,/Touch-sense controller/G1_4*%
%TA.AperFunction,SMDPad,CuDef*%
G36*
G01*
X217512375Y-62756327D02*
X217756327Y-62512375D01*
G75*
G02*
X217964923Y-62512375I104298J-104298D01*
G01*
X218173519Y-62720971D01*
G75*
G02*
X218173519Y-62929567I-104298J-104298D01*
G01*
X217929567Y-63173519D01*
G75*
G02*
X217720971Y-63173519I-104298J104298D01*
G01*
X217512375Y-62964923D01*
G75*
G02*
X217512375Y-62756327I104298J104298D01*
G01*
G37*
%TD.AperFunction*%
%TO.P,R5,1*%
%TO.N,/Touch-sense controller/LTS1_1*%
%TA.AperFunction,SMDPad,CuDef*%
G36*
G01*
X216826481Y-62070433D02*
X217070433Y-61826481D01*
G75*
G02*
X217279029Y-61826481I104298J-104298D01*
G01*
X217487625Y-62035077D01*
G75*
G02*
X217487625Y-62243673I-104298J-104298D01*
G01*
X217243673Y-62487625D01*
G75*
G02*
X217035077Y-62487625I-104298J104298D01*
G01*
X216826481Y-62279029D01*
G75*
G02*
X216826481Y-62070433I104298J104298D01*
G01*
G37*
%TD.AperFunction*%
%TD*%
%TO.P,R4,2*%
%TO.N,/Touch-sense controller/G1_2*%
%TA.AperFunction,SMDPad,CuDef*%
G36*
G01*
X217390000Y-67672500D02*
X217390000Y-67327500D01*
G75*
G02*
X217537500Y-67180000I147500J0D01*
G01*
X217832500Y-67180000D01*
G75*
G02*
X217980000Y-67327500I0J-147500D01*
G01*
X217980000Y-67672500D01*
G75*
G02*
X217832500Y-67820000I-147500J0D01*
G01*
X217537500Y-67820000D01*
G75*
G02*
X217390000Y-67672500I0J147500D01*
G01*
G37*
%TD.AperFunction*%
%TO.P,R4,1*%
%TO.N,/Touch-sense controller/LTS2_4*%
%TA.AperFunction,SMDPad,CuDef*%
G36*
G01*
X216420000Y-67672500D02*
X216420000Y-67327500D01*
G75*
G02*
X216567500Y-67180000I147500J0D01*
G01*
X216862500Y-67180000D01*
G75*
G02*
X217010000Y-67327500I0J-147500D01*
G01*
X217010000Y-67672500D01*
G75*
G02*
X216862500Y-67820000I-147500J0D01*
G01*
X216567500Y-67820000D01*
G75*
G02*
X216420000Y-67672500I0J147500D01*
G01*
G37*
%TD.AperFunction*%
%TD*%
%TO.P,R3,2*%
%TO.N,/Touch-sense controller/G3_2*%
%TA.AperFunction,SMDPad,CuDef*%
G36*
G01*
X217212375Y-65156327D02*
X217456327Y-64912375D01*
G75*
G02*
X217664923Y-64912375I104298J-104298D01*
G01*
X217873519Y-65120971D01*
G75*
G02*
X217873519Y-65329567I-104298J-104298D01*
G01*
X217629567Y-65573519D01*
G75*
G02*
X217420971Y-65573519I-104298J104298D01*
G01*
X217212375Y-65364923D01*
G75*
G02*
X217212375Y-65156327I104298J104298D01*
G01*
G37*
%TD.AperFunction*%
%TO.P,R3,1*%
%TO.N,/Touch-sense controller/LTS2_3*%
%TA.AperFunction,SMDPad,CuDef*%
G36*
G01*
X216526481Y-64470433D02*
X216770433Y-64226481D01*
G75*
G02*
X216979029Y-64226481I104298J-104298D01*
G01*
X217187625Y-64435077D01*
G75*
G02*
X217187625Y-64643673I-104298J-104298D01*
G01*
X216943673Y-64887625D01*
G75*
G02*
X216735077Y-64887625I-104298J104298D01*
G01*
X216526481Y-64679029D01*
G75*
G02*
X216526481Y-64470433I104298J104298D01*
G01*
G37*
%TD.AperFunction*%
%TD*%
%TO.P,R2,2*%
%TO.N,/Touch-sense controller/G3_4*%
%TA.AperFunction,SMDPad,CuDef*%
G36*
G01*
X220212375Y-60106327D02*
X220456327Y-59862375D01*
G75*
G02*
X220664923Y-59862375I104298J-104298D01*
G01*
X220873519Y-60070971D01*
G75*
G02*
X220873519Y-60279567I-104298J-104298D01*
G01*
X220629567Y-60523519D01*
G75*
G02*
X220420971Y-60523519I-104298J104298D01*
G01*
X220212375Y-60314923D01*
G75*
G02*
X220212375Y-60106327I104298J104298D01*
G01*
G37*
%TD.AperFunction*%
%TO.P,R2,1*%
%TO.N,/Touch-sense controller/LTS1_4*%
%TA.AperFunction,SMDPad,CuDef*%
G36*
G01*
X219526481Y-59420433D02*
X219770433Y-59176481D01*
G75*
G02*
X219979029Y-59176481I104298J-104298D01*
G01*
X220187625Y-59385077D01*
G75*
G02*
X220187625Y-59593673I-104298J-104298D01*
G01*
X219943673Y-59837625D01*
G75*
G02*
X219735077Y-59837625I-104298J104298D01*
G01*
X219526481Y-59629029D01*
G75*
G02*
X219526481Y-59420433I104298J104298D01*
G01*
G37*
%TD.AperFunction*%
%TD*%
%TO.P,R1,2*%
%TO.N,GND*%
%TA.AperFunction,SMDPad,CuDef*%
G36*
G01*
X221572500Y-74710000D02*
X221227500Y-74710000D01*
G75*
G02*
X221080000Y-74562500I0J147500D01*
G01*
X221080000Y-74267500D01*
G75*
G02*
X221227500Y-74120000I147500J0D01*
G01*
X221572500Y-74120000D01*
G75*
G02*
X221720000Y-74267500I0J-147500D01*
G01*
X221720000Y-74562500D01*
G75*
G02*
X221572500Y-74710000I-147500J0D01*
G01*
G37*
%TD.AperFunction*%
%TO.P,R1,1*%
%TO.N,/Touch-sense controller/BOOT0*%
%TA.AperFunction,SMDPad,CuDef*%
G36*
G01*
X221572500Y-75680000D02*
X221227500Y-75680000D01*
G75*
G02*
X221080000Y-75532500I0J147500D01*
G01*
X221080000Y-75237500D01*
G75*
G02*
X221227500Y-75090000I147500J0D01*
G01*
X221572500Y-75090000D01*
G75*
G02*
X221720000Y-75237500I0J-147500D01*
G01*
X221720000Y-75532500D01*
G75*
G02*
X221572500Y-75680000I-147500J0D01*
G01*
G37*
%TD.AperFunction*%
%TD*%
D11*
%TO.P,J1,4*%
%TO.N,GND*%
X229800000Y-79190000D03*
%TO.P,J1,3*%
%TO.N,/Touch-sense controller/SWCLK*%
X229800000Y-81730000D03*
%TO.P,J1,2*%
%TO.N,/Touch-sense controller/SWDIO*%
X229800000Y-84270000D03*
%TO.P,J1,1*%
%TO.N,VDD_IO*%
X229800000Y-86810000D03*
%TD*%
%TO.P,C10,2*%
%TO.N,GND*%
%TA.AperFunction,SMDPad,CuDef*%
G36*
G01*
X227160051Y-72656065D02*
X228043935Y-73539949D01*
G75*
G02*
X228043935Y-73893503I-176777J-176777D01*
G01*
X227513605Y-74423833D01*
G75*
G02*
X227160051Y-74423833I-176777J176777D01*
G01*
X226276167Y-73539949D01*
G75*
G02*
X226276167Y-73186395I176777J176777D01*
G01*
X226806497Y-72656065D01*
G75*
G02*
X227160051Y-72656065I176777J-176777D01*
G01*
G37*
%TD.AperFunction*%
%TO.P,C10,1*%
%TO.N,/Touch-sense controller/G5_4*%
%TA.AperFunction,SMDPad,CuDef*%
G36*
G01*
X229139949Y-70676167D02*
X230023833Y-71560051D01*
G75*
G02*
X230023833Y-71913605I-176777J-176777D01*
G01*
X229493503Y-72443935D01*
G75*
G02*
X229139949Y-72443935I-176777J176777D01*
G01*
X228256065Y-71560051D01*
G75*
G02*
X228256065Y-71206497I176777J176777D01*
G01*
X228786395Y-70676167D01*
G75*
G02*
X229139949Y-70676167I176777J-176777D01*
G01*
G37*
%TD.AperFunction*%
%TD*%
%TO.P,C9,2*%
%TO.N,GND*%
%TA.AperFunction,SMDPad,CuDef*%
G36*
G01*
X222125000Y-54375000D02*
X222125000Y-55625000D01*
G75*
G02*
X221875000Y-55875000I-250000J0D01*
G01*
X221125000Y-55875000D01*
G75*
G02*
X220875000Y-55625000I0J250000D01*
G01*
X220875000Y-54375000D01*
G75*
G02*
X221125000Y-54125000I250000J0D01*
G01*
X221875000Y-54125000D01*
G75*
G02*
X222125000Y-54375000I0J-250000D01*
G01*
G37*
%TD.AperFunction*%
%TO.P,C9,1*%
%TO.N,/Touch-sense controller/G4_3*%
%TA.AperFunction,SMDPad,CuDef*%
G36*
G01*
X224925000Y-54375000D02*
X224925000Y-55625000D01*
G75*
G02*
X224675000Y-55875000I-250000J0D01*
G01*
X223925000Y-55875000D01*
G75*
G02*
X223675000Y-55625000I0J250000D01*
G01*
X223675000Y-54375000D01*
G75*
G02*
X223925000Y-54125000I250000J0D01*
G01*
X224675000Y-54125000D01*
G75*
G02*
X224925000Y-54375000I0J-250000D01*
G01*
G37*
%TD.AperFunction*%
%TD*%
%TO.P,C8,2*%
%TO.N,GND*%
%TA.AperFunction,SMDPad,CuDef*%
G36*
G01*
X214925000Y-53725000D02*
X213675000Y-53725000D01*
G75*
G02*
X213425000Y-53475000I0J250000D01*
G01*
X213425000Y-52725000D01*
G75*
G02*
X213675000Y-52475000I250000J0D01*
G01*
X214925000Y-52475000D01*
G75*
G02*
X215175000Y-52725000I0J-250000D01*
G01*
X215175000Y-53475000D01*
G75*
G02*
X214925000Y-53725000I-250000J0D01*
G01*
G37*
%TD.AperFunction*%
%TO.P,C8,1*%
%TO.N,/Touch-sense controller/G3_3*%
%TA.AperFunction,SMDPad,CuDef*%
G36*
G01*
X214925000Y-56525000D02*
X213675000Y-56525000D01*
G75*
G02*
X213425000Y-56275000I0J250000D01*
G01*
X213425000Y-55525000D01*
G75*
G02*
X213675000Y-55275000I250000J0D01*
G01*
X214925000Y-55275000D01*
G75*
G02*
X215175000Y-55525000I0J-250000D01*
G01*
X215175000Y-56275000D01*
G75*
G02*
X214925000Y-56525000I-250000J0D01*
G01*
G37*
%TD.AperFunction*%
%TD*%
%TO.P,C7,2*%
%TO.N,GND*%
%TA.AperFunction,SMDPad,CuDef*%
G36*
G01*
X211925000Y-53775000D02*
X210675000Y-53775000D01*
G75*
G02*
X210425000Y-53525000I0J250000D01*
G01*
X210425000Y-52775000D01*
G75*
G02*
X210675000Y-52525000I250000J0D01*
G01*
X211925000Y-52525000D01*
G75*
G02*
X212175000Y-52775000I0J-250000D01*
G01*
X212175000Y-53525000D01*
G75*
G02*
X211925000Y-53775000I-250000J0D01*
G01*
G37*
%TD.AperFunction*%
%TO.P,C7,1*%
%TO.N,/Touch-sense controller/G2_3*%
%TA.AperFunction,SMDPad,CuDef*%
G36*
G01*
X211925000Y-56575000D02*
X210675000Y-56575000D01*
G75*
G02*
X210425000Y-56325000I0J250000D01*
G01*
X210425000Y-55575000D01*
G75*
G02*
X210675000Y-55325000I250000J0D01*
G01*
X211925000Y-55325000D01*
G75*
G02*
X212175000Y-55575000I0J-250000D01*
G01*
X212175000Y-56325000D01*
G75*
G02*
X211925000Y-56575000I-250000J0D01*
G01*
G37*
%TD.AperFunction*%
%TD*%
%TO.P,C6,2*%
%TO.N,GND*%
%TA.AperFunction,SMDPad,CuDef*%
G36*
G01*
X216725000Y-70025000D02*
X216725000Y-68775000D01*
G75*
G02*
X216975000Y-68525000I250000J0D01*
G01*
X217725000Y-68525000D01*
G75*
G02*
X217975000Y-68775000I0J-250000D01*
G01*
X217975000Y-70025000D01*
G75*
G02*
X217725000Y-70275000I-250000J0D01*
G01*
X216975000Y-70275000D01*
G75*
G02*
X216725000Y-70025000I0J250000D01*
G01*
G37*
%TD.AperFunction*%
%TO.P,C6,1*%
%TO.N,/Touch-sense controller/G1_3*%
%TA.AperFunction,SMDPad,CuDef*%
G36*
G01*
X213925000Y-70025000D02*
X213925000Y-68775000D01*
G75*
G02*
X214175000Y-68525000I250000J0D01*
G01*
X214925000Y-68525000D01*
G75*
G02*
X215175000Y-68775000I0J-250000D01*
G01*
X215175000Y-70025000D01*
G75*
G02*
X214925000Y-70275000I-250000J0D01*
G01*
X214175000Y-70275000D01*
G75*
G02*
X213925000Y-70025000I0J250000D01*
G01*
G37*
%TD.AperFunction*%
%TD*%
D12*
%TO.P,J2,1*%
%TO.N,VDD_IO*%
X218700000Y-78750000D03*
%TO.P,J2,2*%
%TO.N,GND*%
X218700000Y-78250000D03*
%TO.P,J2,3*%
%TO.N,/Touch-sense controller/HWID*%
X218700000Y-77750000D03*
%TO.P,J2,4*%
%TO.N,GND*%
X218700000Y-77250000D03*
%TO.P,J2,5*%
%TO.N,/Touch-sense controller/USART1_RX*%
X218700000Y-76750000D03*
%TO.P,J2,6*%
%TO.N,/Touch-sense controller/USART1_TX*%
X218700000Y-76250000D03*
%TO.P,J2,7*%
%TO.N,/Touch-sense controller/BOOT0*%
X218700000Y-75750000D03*
%TO.P,J2,8*%
%TO.N,GND*%
X218700000Y-75250000D03*
%TO.P,J2,9*%
X218700000Y-74750000D03*
%TO.P,J2,10*%
%TO.N,/Touch-sense controller/NRST*%
X218700000Y-74250000D03*
%TO.P,J2,11*%
%TO.N,GND*%
X218700000Y-73750000D03*
%TO.P,J2,12*%
X218700000Y-73250000D03*
%TO.P,J2,13*%
%TO.N,VDD_IO*%
X218700000Y-72750000D03*
%TO.P,J2,14*%
%TO.N,/Touch-sense controller/~AUX_IRQn~*%
X218700000Y-72250000D03*
D13*
%TO.P,J2,15*%
%TO.N,Net-(J2-Pad15)*%
X216000000Y-79900000D03*
%TO.P,J2,16*%
%TO.N,Net-(J2-Pad16)*%
X216000000Y-71100000D03*
%TD*%
%TO.P,U1,48*%
%TO.N,VDD_IO*%
%TA.AperFunction,SMDPad,CuDef*%
G36*
G01*
X225361180Y-70462400D02*
X224424264Y-69525484D01*
G75*
G02*
X224424264Y-69419418I53033J53033D01*
G01*
X224530330Y-69313352D01*
G75*
G02*
X224636396Y-69313352I53033J-53033D01*
G01*
X225573312Y-70250268D01*
G75*
G02*
X225573312Y-70356334I-53033J-53033D01*
G01*
X225467246Y-70462400D01*
G75*
G02*
X225361180Y-70462400I-53033J53033D01*
G01*
G37*
%TD.AperFunction*%
%TO.P,U1,47*%
%TO.N,GND*%
%TA.AperFunction,SMDPad,CuDef*%
G36*
G01*
X225714734Y-70108846D02*
X224777818Y-69171930D01*
G75*
G02*
X224777818Y-69065864I53033J53033D01*
G01*
X224883884Y-68959798D01*
G75*
G02*
X224989950Y-68959798I53033J-53033D01*
G01*
X225926866Y-69896714D01*
G75*
G02*
X225926866Y-70002780I-53033J-53033D01*
G01*
X225820800Y-70108846D01*
G75*
G02*
X225714734Y-70108846I-53033J53033D01*
G01*
G37*
%TD.AperFunction*%
%TO.P,U1,46*%
%TO.N,Net-(U1-Pad46)*%
%TA.AperFunction,SMDPad,CuDef*%
G36*
G01*
X226068287Y-69755293D02*
X225131371Y-68818377D01*
G75*
G02*
X225131371Y-68712311I53033J53033D01*
G01*
X225237437Y-68606245D01*
G75*
G02*
X225343503Y-68606245I53033J-53033D01*
G01*
X226280419Y-69543161D01*
G75*
G02*
X226280419Y-69649227I-53033J-53033D01*
G01*
X226174353Y-69755293D01*
G75*
G02*
X226068287Y-69755293I-53033J53033D01*
G01*
G37*
%TD.AperFunction*%
%TO.P,U1,45*%
%TO.N,GND*%
%TA.AperFunction,SMDPad,CuDef*%
G36*
G01*
X226421841Y-69401739D02*
X225484925Y-68464823D01*
G75*
G02*
X225484925Y-68358757I53033J53033D01*
G01*
X225590991Y-68252691D01*
G75*
G02*
X225697057Y-68252691I53033J-53033D01*
G01*
X226633973Y-69189607D01*
G75*
G02*
X226633973Y-69295673I-53033J-53033D01*
G01*
X226527907Y-69401739D01*
G75*
G02*
X226421841Y-69401739I-53033J53033D01*
G01*
G37*
%TD.AperFunction*%
%TO.P,U1,44*%
%TO.N,/Touch-sense controller/BOOT0*%
%TA.AperFunction,SMDPad,CuDef*%
G36*
G01*
X226775394Y-69048186D02*
X225838478Y-68111270D01*
G75*
G02*
X225838478Y-68005204I53033J53033D01*
G01*
X225944544Y-67899138D01*
G75*
G02*
X226050610Y-67899138I53033J-53033D01*
G01*
X226987526Y-68836054D01*
G75*
G02*
X226987526Y-68942120I-53033J-53033D01*
G01*
X226881460Y-69048186D01*
G75*
G02*
X226775394Y-69048186I-53033J53033D01*
G01*
G37*
%TD.AperFunction*%
%TO.P,U1,43*%
%TO.N,/Touch-sense controller/G5_4*%
%TA.AperFunction,SMDPad,CuDef*%
G36*
G01*
X227128947Y-68694633D02*
X226192031Y-67757717D01*
G75*
G02*
X226192031Y-67651651I53033J53033D01*
G01*
X226298097Y-67545585D01*
G75*
G02*
X226404163Y-67545585I53033J-53033D01*
G01*
X227341079Y-68482501D01*
G75*
G02*
X227341079Y-68588567I-53033J-53033D01*
G01*
X227235013Y-68694633D01*
G75*
G02*
X227128947Y-68694633I-53033J53033D01*
G01*
G37*
%TD.AperFunction*%
%TO.P,U1,42*%
%TO.N,/Touch-sense controller/USART1_TX*%
%TA.AperFunction,SMDPad,CuDef*%
G36*
G01*
X227482501Y-68341079D02*
X226545585Y-67404163D01*
G75*
G02*
X226545585Y-67298097I53033J53033D01*
G01*
X226651651Y-67192031D01*
G75*
G02*
X226757717Y-67192031I53033J-53033D01*
G01*
X227694633Y-68128947D01*
G75*
G02*
X227694633Y-68235013I-53033J-53033D01*
G01*
X227588567Y-68341079D01*
G75*
G02*
X227482501Y-68341079I-53033J53033D01*
G01*
G37*
%TD.AperFunction*%
%TO.P,U1,41*%
%TO.N,/Touch-sense controller/USART1_RX*%
%TA.AperFunction,SMDPad,CuDef*%
G36*
G01*
X227836054Y-67987526D02*
X226899138Y-67050610D01*
G75*
G02*
X226899138Y-66944544I53033J53033D01*
G01*
X227005204Y-66838478D01*
G75*
G02*
X227111270Y-66838478I53033J-53033D01*
G01*
X228048186Y-67775394D01*
G75*
G02*
X228048186Y-67881460I-53033J-53033D01*
G01*
X227942120Y-67987526D01*
G75*
G02*
X227836054Y-67987526I-53033J53033D01*
G01*
G37*
%TD.AperFunction*%
%TO.P,U1,40*%
%TO.N,/Touch-sense controller/G5_2*%
%TA.AperFunction,SMDPad,CuDef*%
G36*
G01*
X228189607Y-67633973D02*
X227252691Y-66697057D01*
G75*
G02*
X227252691Y-66590991I53033J53033D01*
G01*
X227358757Y-66484925D01*
G75*
G02*
X227464823Y-66484925I53033J-53033D01*
G01*
X228401739Y-67421841D01*
G75*
G02*
X228401739Y-67527907I-53033J-53033D01*
G01*
X228295673Y-67633973D01*
G75*
G02*
X228189607Y-67633973I-53033J53033D01*
G01*
G37*
%TD.AperFunction*%
%TO.P,U1,39*%
%TO.N,/Touch-sense controller/G5_1*%
%TA.AperFunction,SMDPad,CuDef*%
G36*
G01*
X228543161Y-67280419D02*
X227606245Y-66343503D01*
G75*
G02*
X227606245Y-66237437I53033J53033D01*
G01*
X227712311Y-66131371D01*
G75*
G02*
X227818377Y-66131371I53033J-53033D01*
G01*
X228755293Y-67068287D01*
G75*
G02*
X228755293Y-67174353I-53033J-53033D01*
G01*
X228649227Y-67280419D01*
G75*
G02*
X228543161Y-67280419I-53033J53033D01*
G01*
G37*
%TD.AperFunction*%
%TO.P,U1,38*%
%TO.N,GND*%
%TA.AperFunction,SMDPad,CuDef*%
G36*
G01*
X228896714Y-66926866D02*
X227959798Y-65989950D01*
G75*
G02*
X227959798Y-65883884I53033J53033D01*
G01*
X228065864Y-65777818D01*
G75*
G02*
X228171930Y-65777818I53033J-53033D01*
G01*
X229108846Y-66714734D01*
G75*
G02*
X229108846Y-66820800I-53033J-53033D01*
G01*
X229002780Y-66926866D01*
G75*
G02*
X228896714Y-66926866I-53033J53033D01*
G01*
G37*
%TD.AperFunction*%
%TO.P,U1,37*%
%TO.N,Net-(R13-Pad2)*%
%TA.AperFunction,SMDPad,CuDef*%
G36*
G01*
X229250268Y-66573312D02*
X228313352Y-65636396D01*
G75*
G02*
X228313352Y-65530330I53033J53033D01*
G01*
X228419418Y-65424264D01*
G75*
G02*
X228525484Y-65424264I53033J-53033D01*
G01*
X229462400Y-66361180D01*
G75*
G02*
X229462400Y-66467246I-53033J-53033D01*
G01*
X229356334Y-66573312D01*
G75*
G02*
X229250268Y-66573312I-53033J53033D01*
G01*
G37*
%TD.AperFunction*%
%TO.P,U1,36*%
%TO.N,VDD_IO*%
%TA.AperFunction,SMDPad,CuDef*%
G36*
G01*
X228419418Y-64575736D02*
X228313352Y-64469670D01*
G75*
G02*
X228313352Y-64363604I53033J53033D01*
G01*
X229250268Y-63426688D01*
G75*
G02*
X229356334Y-63426688I53033J-53033D01*
G01*
X229462400Y-63532754D01*
G75*
G02*
X229462400Y-63638820I-53033J-53033D01*
G01*
X228525484Y-64575736D01*
G75*
G02*
X228419418Y-64575736I-53033J53033D01*
G01*
G37*
%TD.AperFunction*%
%TO.P,U1,35*%
%TO.N,GND*%
%TA.AperFunction,SMDPad,CuDef*%
G36*
G01*
X228065864Y-64222182D02*
X227959798Y-64116116D01*
G75*
G02*
X227959798Y-64010050I53033J53033D01*
G01*
X228896714Y-63073134D01*
G75*
G02*
X229002780Y-63073134I53033J-53033D01*
G01*
X229108846Y-63179200D01*
G75*
G02*
X229108846Y-63285266I-53033J-53033D01*
G01*
X228171930Y-64222182D01*
G75*
G02*
X228065864Y-64222182I-53033J53033D01*
G01*
G37*
%TD.AperFunction*%
%TO.P,U1,34*%
%TO.N,Net-(R10-Pad2)*%
%TA.AperFunction,SMDPad,CuDef*%
G36*
G01*
X227712311Y-63868629D02*
X227606245Y-63762563D01*
G75*
G02*
X227606245Y-63656497I53033J53033D01*
G01*
X228543161Y-62719581D01*
G75*
G02*
X228649227Y-62719581I53033J-53033D01*
G01*
X228755293Y-62825647D01*
G75*
G02*
X228755293Y-62931713I-53033J-53033D01*
G01*
X227818377Y-63868629D01*
G75*
G02*
X227712311Y-63868629I-53033J53033D01*
G01*
G37*
%TD.AperFunction*%
%TO.P,U1,33*%
%TO.N,/Touch-sense controller/G4_4*%
%TA.AperFunction,SMDPad,CuDef*%
G36*
G01*
X227358757Y-63515075D02*
X227252691Y-63409009D01*
G75*
G02*
X227252691Y-63302943I53033J53033D01*
G01*
X228189607Y-62366027D01*
G75*
G02*
X228295673Y-62366027I53033J-53033D01*
G01*
X228401739Y-62472093D01*
G75*
G02*
X228401739Y-62578159I-53033J-53033D01*
G01*
X227464823Y-63515075D01*
G75*
G02*
X227358757Y-63515075I-53033J53033D01*
G01*
G37*
%TD.AperFunction*%
%TO.P,U1,32*%
%TO.N,/Touch-sense controller/G4_3*%
%TA.AperFunction,SMDPad,CuDef*%
G36*
G01*
X227005204Y-63161522D02*
X226899138Y-63055456D01*
G75*
G02*
X226899138Y-62949390I53033J53033D01*
G01*
X227836054Y-62012474D01*
G75*
G02*
X227942120Y-62012474I53033J-53033D01*
G01*
X228048186Y-62118540D01*
G75*
G02*
X228048186Y-62224606I-53033J-53033D01*
G01*
X227111270Y-63161522D01*
G75*
G02*
X227005204Y-63161522I-53033J53033D01*
G01*
G37*
%TD.AperFunction*%
%TO.P,U1,31*%
%TO.N,/Touch-sense controller/USART1_RX*%
%TA.AperFunction,SMDPad,CuDef*%
G36*
G01*
X226651651Y-62807969D02*
X226545585Y-62701903D01*
G75*
G02*
X226545585Y-62595837I53033J53033D01*
G01*
X227482501Y-61658921D01*
G75*
G02*
X227588567Y-61658921I53033J-53033D01*
G01*
X227694633Y-61764987D01*
G75*
G02*
X227694633Y-61871053I-53033J-53033D01*
G01*
X226757717Y-62807969D01*
G75*
G02*
X226651651Y-62807969I-53033J53033D01*
G01*
G37*
%TD.AperFunction*%
%TO.P,U1,30*%
%TO.N,/Touch-sense controller/USART1_TX*%
%TA.AperFunction,SMDPad,CuDef*%
G36*
G01*
X226298097Y-62454415D02*
X226192031Y-62348349D01*
G75*
G02*
X226192031Y-62242283I53033J53033D01*
G01*
X227128947Y-61305367D01*
G75*
G02*
X227235013Y-61305367I53033J-53033D01*
G01*
X227341079Y-61411433D01*
G75*
G02*
X227341079Y-61517499I-53033J-53033D01*
G01*
X226404163Y-62454415D01*
G75*
G02*
X226298097Y-62454415I-53033J53033D01*
G01*
G37*
%TD.AperFunction*%
%TO.P,U1,29*%
%TO.N,Net-(U1-Pad29)*%
%TA.AperFunction,SMDPad,CuDef*%
G36*
G01*
X225944544Y-62100862D02*
X225838478Y-61994796D01*
G75*
G02*
X225838478Y-61888730I53033J53033D01*
G01*
X226775394Y-60951814D01*
G75*
G02*
X226881460Y-60951814I53033J-53033D01*
G01*
X226987526Y-61057880D01*
G75*
G02*
X226987526Y-61163946I-53033J-53033D01*
G01*
X226050610Y-62100862D01*
G75*
G02*
X225944544Y-62100862I-53033J53033D01*
G01*
G37*
%TD.AperFunction*%
%TO.P,U1,28*%
%TO.N,GND*%
%TA.AperFunction,SMDPad,CuDef*%
G36*
G01*
X225590991Y-61747309D02*
X225484925Y-61641243D01*
G75*
G02*
X225484925Y-61535177I53033J53033D01*
G01*
X226421841Y-60598261D01*
G75*
G02*
X226527907Y-60598261I53033J-53033D01*
G01*
X226633973Y-60704327D01*
G75*
G02*
X226633973Y-60810393I-53033J-53033D01*
G01*
X225697057Y-61747309D01*
G75*
G02*
X225590991Y-61747309I-53033J53033D01*
G01*
G37*
%TD.AperFunction*%
%TO.P,U1,27*%
%TO.N,/Touch-sense controller/G6_4*%
%TA.AperFunction,SMDPad,CuDef*%
G36*
G01*
X225237437Y-61393755D02*
X225131371Y-61287689D01*
G75*
G02*
X225131371Y-61181623I53033J53033D01*
G01*
X226068287Y-60244707D01*
G75*
G02*
X226174353Y-60244707I53033J-53033D01*
G01*
X226280419Y-60350773D01*
G75*
G02*
X226280419Y-60456839I-53033J-53033D01*
G01*
X225343503Y-61393755D01*
G75*
G02*
X225237437Y-61393755I-53033J53033D01*
G01*
G37*
%TD.AperFunction*%
%TO.P,U1,26*%
%TO.N,/Touch-sense controller/G6_3*%
%TA.AperFunction,SMDPad,CuDef*%
G36*
G01*
X224883884Y-61040202D02*
X224777818Y-60934136D01*
G75*
G02*
X224777818Y-60828070I53033J53033D01*
G01*
X225714734Y-59891154D01*
G75*
G02*
X225820800Y-59891154I53033J-53033D01*
G01*
X225926866Y-59997220D01*
G75*
G02*
X225926866Y-60103286I-53033J-53033D01*
G01*
X224989950Y-61040202D01*
G75*
G02*
X224883884Y-61040202I-53033J53033D01*
G01*
G37*
%TD.AperFunction*%
%TO.P,U1,25*%
%TO.N,/Touch-sense controller/G6_2*%
%TA.AperFunction,SMDPad,CuDef*%
G36*
G01*
X224530330Y-60686648D02*
X224424264Y-60580582D01*
G75*
G02*
X224424264Y-60474516I53033J53033D01*
G01*
X225361180Y-59537600D01*
G75*
G02*
X225467246Y-59537600I53033J-53033D01*
G01*
X225573312Y-59643666D01*
G75*
G02*
X225573312Y-59749732I-53033J-53033D01*
G01*
X224636396Y-60686648D01*
G75*
G02*
X224530330Y-60686648I-53033J53033D01*
G01*
G37*
%TD.AperFunction*%
%TO.P,U1,24*%
%TO.N,VDD_IO*%
%TA.AperFunction,SMDPad,CuDef*%
G36*
G01*
X223363604Y-60686648D02*
X222426688Y-59749732D01*
G75*
G02*
X222426688Y-59643666I53033J53033D01*
G01*
X222532754Y-59537600D01*
G75*
G02*
X222638820Y-59537600I53033J-53033D01*
G01*
X223575736Y-60474516D01*
G75*
G02*
X223575736Y-60580582I-53033J-53033D01*
G01*
X223469670Y-60686648D01*
G75*
G02*
X223363604Y-60686648I-53033J53033D01*
G01*
G37*
%TD.AperFunction*%
%TO.P,U1,23*%
%TO.N,GND*%
%TA.AperFunction,SMDPad,CuDef*%
G36*
G01*
X223010050Y-61040202D02*
X222073134Y-60103286D01*
G75*
G02*
X222073134Y-59997220I53033J53033D01*
G01*
X222179200Y-59891154D01*
G75*
G02*
X222285266Y-59891154I53033J-53033D01*
G01*
X223222182Y-60828070D01*
G75*
G02*
X223222182Y-60934136I-53033J-53033D01*
G01*
X223116116Y-61040202D01*
G75*
G02*
X223010050Y-61040202I-53033J53033D01*
G01*
G37*
%TD.AperFunction*%
%TO.P,U1,22*%
%TA.AperFunction,SMDPad,CuDef*%
G36*
G01*
X222656497Y-61393755D02*
X221719581Y-60456839D01*
G75*
G02*
X221719581Y-60350773I53033J53033D01*
G01*
X221825647Y-60244707D01*
G75*
G02*
X221931713Y-60244707I53033J-53033D01*
G01*
X222868629Y-61181623D01*
G75*
G02*
X222868629Y-61287689I-53033J-53033D01*
G01*
X222762563Y-61393755D01*
G75*
G02*
X222656497Y-61393755I-53033J53033D01*
G01*
G37*
%TD.AperFunction*%
%TO.P,U1,21*%
%TA.AperFunction,SMDPad,CuDef*%
G36*
G01*
X222302943Y-61747309D02*
X221366027Y-60810393D01*
G75*
G02*
X221366027Y-60704327I53033J53033D01*
G01*
X221472093Y-60598261D01*
G75*
G02*
X221578159Y-60598261I53033J-53033D01*
G01*
X222515075Y-61535177D01*
G75*
G02*
X222515075Y-61641243I-53033J-53033D01*
G01*
X222409009Y-61747309D01*
G75*
G02*
X222302943Y-61747309I-53033J53033D01*
G01*
G37*
%TD.AperFunction*%
%TO.P,U1,20*%
%TO.N,/Touch-sense controller/G3_4*%
%TA.AperFunction,SMDPad,CuDef*%
G36*
G01*
X221949390Y-62100862D02*
X221012474Y-61163946D01*
G75*
G02*
X221012474Y-61057880I53033J53033D01*
G01*
X221118540Y-60951814D01*
G75*
G02*
X221224606Y-60951814I53033J-53033D01*
G01*
X222161522Y-61888730D01*
G75*
G02*
X222161522Y-61994796I-53033J-53033D01*
G01*
X222055456Y-62100862D01*
G75*
G02*
X221949390Y-62100862I-53033J53033D01*
G01*
G37*
%TD.AperFunction*%
%TO.P,U1,19*%
%TO.N,/Touch-sense controller/G3_3*%
%TA.AperFunction,SMDPad,CuDef*%
G36*
G01*
X221595837Y-62454415D02*
X220658921Y-61517499D01*
G75*
G02*
X220658921Y-61411433I53033J53033D01*
G01*
X220764987Y-61305367D01*
G75*
G02*
X220871053Y-61305367I53033J-53033D01*
G01*
X221807969Y-62242283D01*
G75*
G02*
X221807969Y-62348349I-53033J-53033D01*
G01*
X221701903Y-62454415D01*
G75*
G02*
X221595837Y-62454415I-53033J53033D01*
G01*
G37*
%TD.AperFunction*%
%TO.P,U1,18*%
%TO.N,/Touch-sense controller/G3_2*%
%TA.AperFunction,SMDPad,CuDef*%
G36*
G01*
X221242283Y-62807969D02*
X220305367Y-61871053D01*
G75*
G02*
X220305367Y-61764987I53033J53033D01*
G01*
X220411433Y-61658921D01*
G75*
G02*
X220517499Y-61658921I53033J-53033D01*
G01*
X221454415Y-62595837D01*
G75*
G02*
X221454415Y-62701903I-53033J-53033D01*
G01*
X221348349Y-62807969D01*
G75*
G02*
X221242283Y-62807969I-53033J53033D01*
G01*
G37*
%TD.AperFunction*%
%TO.P,U1,17*%
%TO.N,/Touch-sense controller/G2_4*%
%TA.AperFunction,SMDPad,CuDef*%
G36*
G01*
X220888730Y-63161522D02*
X219951814Y-62224606D01*
G75*
G02*
X219951814Y-62118540I53033J53033D01*
G01*
X220057880Y-62012474D01*
G75*
G02*
X220163946Y-62012474I53033J-53033D01*
G01*
X221100862Y-62949390D01*
G75*
G02*
X221100862Y-63055456I-53033J-53033D01*
G01*
X220994796Y-63161522D01*
G75*
G02*
X220888730Y-63161522I-53033J53033D01*
G01*
G37*
%TD.AperFunction*%
%TO.P,U1,16*%
%TO.N,/Touch-sense controller/G2_3*%
%TA.AperFunction,SMDPad,CuDef*%
G36*
G01*
X220535177Y-63515075D02*
X219598261Y-62578159D01*
G75*
G02*
X219598261Y-62472093I53033J53033D01*
G01*
X219704327Y-62366027D01*
G75*
G02*
X219810393Y-62366027I53033J-53033D01*
G01*
X220747309Y-63302943D01*
G75*
G02*
X220747309Y-63409009I-53033J-53033D01*
G01*
X220641243Y-63515075D01*
G75*
G02*
X220535177Y-63515075I-53033J53033D01*
G01*
G37*
%TD.AperFunction*%
%TO.P,U1,15*%
%TO.N,/Touch-sense controller/G2_2*%
%TA.AperFunction,SMDPad,CuDef*%
G36*
G01*
X220181623Y-63868629D02*
X219244707Y-62931713D01*
G75*
G02*
X219244707Y-62825647I53033J53033D01*
G01*
X219350773Y-62719581D01*
G75*
G02*
X219456839Y-62719581I53033J-53033D01*
G01*
X220393755Y-63656497D01*
G75*
G02*
X220393755Y-63762563I-53033J-53033D01*
G01*
X220287689Y-63868629D01*
G75*
G02*
X220181623Y-63868629I-53033J53033D01*
G01*
G37*
%TD.AperFunction*%
%TO.P,U1,14*%
%TO.N,GND*%
%TA.AperFunction,SMDPad,CuDef*%
G36*
G01*
X219828070Y-64222182D02*
X218891154Y-63285266D01*
G75*
G02*
X218891154Y-63179200I53033J53033D01*
G01*
X218997220Y-63073134D01*
G75*
G02*
X219103286Y-63073134I53033J-53033D01*
G01*
X220040202Y-64010050D01*
G75*
G02*
X220040202Y-64116116I-53033J-53033D01*
G01*
X219934136Y-64222182D01*
G75*
G02*
X219828070Y-64222182I-53033J53033D01*
G01*
G37*
%TD.AperFunction*%
%TO.P,U1,13*%
%TO.N,/Touch-sense controller/G1_4*%
%TA.AperFunction,SMDPad,CuDef*%
G36*
G01*
X219474516Y-64575736D02*
X218537600Y-63638820D01*
G75*
G02*
X218537600Y-63532754I53033J53033D01*
G01*
X218643666Y-63426688D01*
G75*
G02*
X218749732Y-63426688I53033J-53033D01*
G01*
X219686648Y-64363604D01*
G75*
G02*
X219686648Y-64469670I-53033J-53033D01*
G01*
X219580582Y-64575736D01*
G75*
G02*
X219474516Y-64575736I-53033J53033D01*
G01*
G37*
%TD.AperFunction*%
%TO.P,U1,12*%
%TO.N,/Touch-sense controller/G1_3*%
%TA.AperFunction,SMDPad,CuDef*%
G36*
G01*
X218643666Y-66573312D02*
X218537600Y-66467246D01*
G75*
G02*
X218537600Y-66361180I53033J53033D01*
G01*
X219474516Y-65424264D01*
G75*
G02*
X219580582Y-65424264I53033J-53033D01*
G01*
X219686648Y-65530330D01*
G75*
G02*
X219686648Y-65636396I-53033J-53033D01*
G01*
X218749732Y-66573312D01*
G75*
G02*
X218643666Y-66573312I-53033J53033D01*
G01*
G37*
%TD.AperFunction*%
%TO.P,U1,11*%
%TO.N,/Touch-sense controller/G1_2*%
%TA.AperFunction,SMDPad,CuDef*%
G36*
G01*
X218997220Y-66926866D02*
X218891154Y-66820800D01*
G75*
G02*
X218891154Y-66714734I53033J53033D01*
G01*
X219828070Y-65777818D01*
G75*
G02*
X219934136Y-65777818I53033J-53033D01*
G01*
X220040202Y-65883884D01*
G75*
G02*
X220040202Y-65989950I-53033J-53033D01*
G01*
X219103286Y-66926866D01*
G75*
G02*
X218997220Y-66926866I-53033J53033D01*
G01*
G37*
%TD.AperFunction*%
%TO.P,U1,10*%
%TO.N,GND*%
%TA.AperFunction,SMDPad,CuDef*%
G36*
G01*
X219350773Y-67280419D02*
X219244707Y-67174353D01*
G75*
G02*
X219244707Y-67068287I53033J53033D01*
G01*
X220181623Y-66131371D01*
G75*
G02*
X220287689Y-66131371I53033J-53033D01*
G01*
X220393755Y-66237437D01*
G75*
G02*
X220393755Y-66343503I-53033J-53033D01*
G01*
X219456839Y-67280419D01*
G75*
G02*
X219350773Y-67280419I-53033J53033D01*
G01*
G37*
%TD.AperFunction*%
%TO.P,U1,9*%
%TO.N,VDD_IO*%
%TA.AperFunction,SMDPad,CuDef*%
G36*
G01*
X219704327Y-67633973D02*
X219598261Y-67527907D01*
G75*
G02*
X219598261Y-67421841I53033J53033D01*
G01*
X220535177Y-66484925D01*
G75*
G02*
X220641243Y-66484925I53033J-53033D01*
G01*
X220747309Y-66590991D01*
G75*
G02*
X220747309Y-66697057I-53033J-53033D01*
G01*
X219810393Y-67633973D01*
G75*
G02*
X219704327Y-67633973I-53033J53033D01*
G01*
G37*
%TD.AperFunction*%
%TO.P,U1,8*%
%TO.N,GND*%
%TA.AperFunction,SMDPad,CuDef*%
G36*
G01*
X220057880Y-67987526D02*
X219951814Y-67881460D01*
G75*
G02*
X219951814Y-67775394I53033J53033D01*
G01*
X220888730Y-66838478D01*
G75*
G02*
X220994796Y-66838478I53033J-53033D01*
G01*
X221100862Y-66944544D01*
G75*
G02*
X221100862Y-67050610I-53033J-53033D01*
G01*
X220163946Y-67987526D01*
G75*
G02*
X220057880Y-67987526I-53033J53033D01*
G01*
G37*
%TD.AperFunction*%
%TO.P,U1,7*%
%TO.N,/Touch-sense controller/NRST*%
%TA.AperFunction,SMDPad,CuDef*%
G36*
G01*
X220411433Y-68341079D02*
X220305367Y-68235013D01*
G75*
G02*
X220305367Y-68128947I53033J53033D01*
G01*
X221242283Y-67192031D01*
G75*
G02*
X221348349Y-67192031I53033J-53033D01*
G01*
X221454415Y-67298097D01*
G75*
G02*
X221454415Y-67404163I-53033J-53033D01*
G01*
X220517499Y-68341079D01*
G75*
G02*
X220411433Y-68341079I-53033J53033D01*
G01*
G37*
%TD.AperFunction*%
%TO.P,U1,6*%
%TO.N,Net-(U1-Pad6)*%
%TA.AperFunction,SMDPad,CuDef*%
G36*
G01*
X220764987Y-68694633D02*
X220658921Y-68588567D01*
G75*
G02*
X220658921Y-68482501I53033J53033D01*
G01*
X221595837Y-67545585D01*
G75*
G02*
X221701903Y-67545585I53033J-53033D01*
G01*
X221807969Y-67651651D01*
G75*
G02*
X221807969Y-67757717I-53033J-53033D01*
G01*
X220871053Y-68694633D01*
G75*
G02*
X220764987Y-68694633I-53033J53033D01*
G01*
G37*
%TD.AperFunction*%
%TO.P,U1,5*%
%TO.N,Net-(U1-Pad5)*%
%TA.AperFunction,SMDPad,CuDef*%
G36*
G01*
X221118540Y-69048186D02*
X221012474Y-68942120D01*
G75*
G02*
X221012474Y-68836054I53033J53033D01*
G01*
X221949390Y-67899138D01*
G75*
G02*
X222055456Y-67899138I53033J-53033D01*
G01*
X222161522Y-68005204D01*
G75*
G02*
X222161522Y-68111270I-53033J-53033D01*
G01*
X221224606Y-69048186D01*
G75*
G02*
X221118540Y-69048186I-53033J53033D01*
G01*
G37*
%TD.AperFunction*%
%TO.P,U1,4*%
%TO.N,/Touch-sense controller/~AUX_IRQn~*%
%TA.AperFunction,SMDPad,CuDef*%
G36*
G01*
X221472093Y-69401739D02*
X221366027Y-69295673D01*
G75*
G02*
X221366027Y-69189607I53033J53033D01*
G01*
X222302943Y-68252691D01*
G75*
G02*
X222409009Y-68252691I53033J-53033D01*
G01*
X222515075Y-68358757D01*
G75*
G02*
X222515075Y-68464823I-53033J-53033D01*
G01*
X221578159Y-69401739D01*
G75*
G02*
X221472093Y-69401739I-53033J53033D01*
G01*
G37*
%TD.AperFunction*%
%TO.P,U1,3*%
%TO.N,Net-(D1-Pad3)*%
%TA.AperFunction,SMDPad,CuDef*%
G36*
G01*
X221825647Y-69755293D02*
X221719581Y-69649227D01*
G75*
G02*
X221719581Y-69543161I53033J53033D01*
G01*
X222656497Y-68606245D01*
G75*
G02*
X222762563Y-68606245I53033J-53033D01*
G01*
X222868629Y-68712311D01*
G75*
G02*
X222868629Y-68818377I-53033J-53033D01*
G01*
X221931713Y-69755293D01*
G75*
G02*
X221825647Y-69755293I-53033J53033D01*
G01*
G37*
%TD.AperFunction*%
%TO.P,U1,2*%
%TO.N,Net-(D1-Pad2)*%
%TA.AperFunction,SMDPad,CuDef*%
G36*
G01*
X222179200Y-70108846D02*
X222073134Y-70002780D01*
G75*
G02*
X222073134Y-69896714I53033J53033D01*
G01*
X223010050Y-68959798D01*
G75*
G02*
X223116116Y-68959798I53033J-53033D01*
G01*
X223222182Y-69065864D01*
G75*
G02*
X223222182Y-69171930I-53033J-53033D01*
G01*
X222285266Y-70108846D01*
G75*
G02*
X222179200Y-70108846I-53033J53033D01*
G01*
G37*
%TD.AperFunction*%
%TO.P,U1,1*%
%TO.N,VDD_IO*%
%TA.AperFunction,SMDPad,CuDef*%
G36*
G01*
X222532754Y-70462400D02*
X222426688Y-70356334D01*
G75*
G02*
X222426688Y-70250268I53033J53033D01*
G01*
X223363604Y-69313352D01*
G75*
G02*
X223469670Y-69313352I53033J-53033D01*
G01*
X223575736Y-69419418D01*
G75*
G02*
X223575736Y-69525484I-53033J-53033D01*
G01*
X222638820Y-70462400D01*
G75*
G02*
X222532754Y-70462400I-53033J53033D01*
G01*
G37*
%TD.AperFunction*%
%TD*%
D14*
%TO.N,GND*%
X216300000Y-60000000D03*
X214300000Y-60000000D03*
X97000000Y-59900000D03*
%TO.N,VDD_IO*%
X220900000Y-66400000D03*
X219000000Y-68115000D03*
X231150000Y-65050000D03*
%TO.N,/Touch-sense controller/LTS1_5*%
X175750000Y-55000000D03*
%TO.N,/Touch-sense controller/LTS1_1*%
X107000000Y-55000000D03*
X193000000Y-55000000D03*
%TO.N,/Touch-sense controller/LTS1_4*%
X158750000Y-55000000D03*
%TO.N,/Touch-sense controller/LTS1_3*%
X141250000Y-54750000D03*
%TO.N,/Touch-sense controller/LTS1_2*%
X124200000Y-55000000D03*
%TO.N,/Touch-sense controller/LTS2_5*%
X176000000Y-95500000D03*
%TO.N,/Touch-sense controller/LTS2_1*%
X107000000Y-95500000D03*
X193000000Y-95500000D03*
%TO.N,/Touch-sense controller/LTS2_4*%
X158950000Y-95500000D03*
%TO.N,/Touch-sense controller/LTS2_3*%
X141350000Y-95800000D03*
%TO.N,/Touch-sense controller/LTS2_2*%
X124950000Y-95200000D03*
%TD*%
D15*
%TO.N,GND*%
X227342947Y-73357053D02*
X227160051Y-73539949D01*
X227342947Y-71157053D02*
X227342947Y-73357053D01*
X227342947Y-71157053D02*
X226592947Y-70407053D01*
X226225073Y-70407053D02*
X226592947Y-70407053D01*
X225352342Y-69534322D02*
X226225073Y-70407053D01*
X229490000Y-79200000D02*
X229500000Y-79190000D01*
X227087500Y-79200000D02*
X229490000Y-79200000D01*
X219465678Y-63647658D02*
X218900000Y-63081980D01*
X218900000Y-63081980D02*
X218900000Y-62600000D01*
X218900000Y-62600000D02*
X216300000Y-60000000D01*
X97400000Y-59500000D02*
X96900000Y-60000000D01*
X214300000Y-60000000D02*
X213800000Y-59500000D01*
X213800000Y-59500000D02*
X97400000Y-59500000D01*
D16*
X231025010Y-73474990D02*
X229500000Y-75000000D01*
X229352211Y-69292579D02*
X231025018Y-70965386D01*
X231025018Y-70965386D02*
X231025018Y-73158892D01*
X229847789Y-67665809D02*
X229847789Y-67672467D01*
X228534322Y-66352342D02*
X229847789Y-67665809D01*
X231025010Y-73158900D02*
X231025010Y-73474990D01*
X231025018Y-73158892D02*
X231025010Y-73158900D01*
X230150000Y-67974678D02*
X230150000Y-68325000D01*
X229500000Y-75000000D02*
X229500000Y-79190000D01*
X230150000Y-68325000D02*
X229352211Y-69122789D01*
X229847789Y-67672467D02*
X230150000Y-67974678D01*
X229352211Y-69122789D02*
X229352211Y-69292579D01*
D15*
X218774999Y-77324999D02*
X218700000Y-77250000D01*
X224012500Y-77700000D02*
X222400000Y-77700000D01*
X222400000Y-77700000D02*
X222024999Y-77324999D01*
X225512500Y-79200000D02*
X224012500Y-77700000D01*
X222024999Y-77324999D02*
X218774999Y-77324999D01*
X220365000Y-75250000D02*
X220500000Y-75385000D01*
X218700000Y-75250000D02*
X220365000Y-75250000D01*
X221135000Y-73485000D02*
X220500000Y-73485000D01*
X221400000Y-74415000D02*
X221400000Y-73750000D01*
X221400000Y-73750000D02*
X221135000Y-73485000D01*
X227160051Y-73539949D02*
X226050000Y-74650000D01*
X226050000Y-74650000D02*
X222550000Y-74650000D01*
X222315000Y-74415000D02*
X221400000Y-74415000D01*
X222550000Y-74650000D02*
X222315000Y-74415000D01*
X220335000Y-78250000D02*
X220600000Y-78515000D01*
X218700000Y-78250000D02*
X220335000Y-78250000D01*
D17*
%TO.N,/Touch-sense controller/NRST*%
X220335000Y-74250000D02*
X220500000Y-74415000D01*
X218700000Y-74250000D02*
X220335000Y-74250000D01*
X220879891Y-67820109D02*
X220879891Y-67766555D01*
X220829891Y-67770109D02*
X220879891Y-67820109D01*
X217650000Y-74250000D02*
X217500000Y-74100000D01*
X218700000Y-74250000D02*
X217650000Y-74250000D01*
X217500000Y-74100000D02*
X217500000Y-72100000D01*
X217500000Y-72100000D02*
X220300000Y-69300000D01*
X220300000Y-68300000D02*
X220829891Y-67770109D01*
X220300000Y-69300000D02*
X220300000Y-68300000D01*
D15*
%TO.N,VDD_IO*%
X225907053Y-70796141D02*
X224998788Y-69887876D01*
X225907053Y-71092947D02*
X225907053Y-70796141D01*
X226657053Y-71842947D02*
X225907053Y-71092947D01*
D16*
X220600000Y-79485000D02*
X222150000Y-79485000D01*
X223700000Y-79485000D02*
X222150000Y-79485000D01*
D15*
X223519159Y-69369929D02*
X223001212Y-69887876D01*
X221600000Y-66400000D02*
X223519159Y-68319159D01*
X223519159Y-68319159D02*
X223519159Y-69369929D01*
X220172785Y-67059449D02*
X220832234Y-66400000D01*
X220832234Y-66400000D02*
X221600000Y-66400000D01*
X220265000Y-72750000D02*
X218700000Y-72750000D01*
X220500000Y-72515000D02*
X220265000Y-72750000D01*
X227227500Y-86810000D02*
X227187500Y-86850000D01*
X229500000Y-86810000D02*
X227227500Y-86810000D01*
X219117234Y-68115000D02*
X220172785Y-67059449D01*
X219000000Y-68115000D02*
X219117234Y-68115000D01*
X223542947Y-59570389D02*
X223001212Y-60112124D01*
X223542947Y-59442947D02*
X223542947Y-59570389D01*
X221600000Y-66400000D02*
X224000000Y-64000000D01*
X224000000Y-61110912D02*
X223001212Y-60112124D01*
X224000000Y-64000000D02*
X224000000Y-61110912D01*
X219865000Y-78750000D02*
X220600000Y-79485000D01*
X218700000Y-78750000D02*
X219865000Y-78750000D01*
X221985000Y-72515000D02*
X220500000Y-72515000D01*
D16*
X225600000Y-80700000D02*
X225600000Y-86837500D01*
X223700000Y-79485000D02*
X224385000Y-79485000D01*
X225600000Y-86837500D02*
X225612500Y-86850000D01*
X224385000Y-79485000D02*
X225600000Y-80700000D01*
D15*
X225794553Y-71092947D02*
X224837500Y-72050000D01*
X225907053Y-71092947D02*
X225794553Y-71092947D01*
X222627500Y-72685000D02*
X223262500Y-72050000D01*
X222100000Y-72685000D02*
X222627500Y-72685000D01*
X223262500Y-70149164D02*
X223001212Y-69887876D01*
X223262500Y-72050000D02*
X223262500Y-70149164D01*
X230165000Y-64065000D02*
X230000000Y-64065000D01*
X231150000Y-65050000D02*
X230165000Y-64065000D01*
X212985000Y-78750000D02*
X213000000Y-78735000D01*
X210985000Y-78750000D02*
X212985000Y-78750000D01*
X213000000Y-78735000D02*
X214000000Y-78735000D01*
X214015000Y-78750000D02*
X214000000Y-78735000D01*
X218700000Y-78750000D02*
X214015000Y-78750000D01*
X229585000Y-63650000D02*
X230000000Y-64065000D01*
X228887876Y-64001212D02*
X229239088Y-63650000D01*
X229239088Y-63650000D02*
X229585000Y-63650000D01*
D17*
%TO.N,/Touch-sense controller/SWCLK*%
X230000000Y-81730000D02*
X231570000Y-81730000D01*
X231570000Y-81730000D02*
X231850011Y-81449989D01*
X231850011Y-70099989D02*
X231850000Y-70100000D01*
X231850011Y-69850011D02*
X231850011Y-70099989D01*
X231850011Y-81449989D02*
X231850011Y-69850011D01*
X231850011Y-68735011D02*
X230000000Y-66885000D01*
X231850011Y-69850011D02*
X231850011Y-68735011D01*
%TO.N,/Touch-sense controller/SWDIO*%
X232150022Y-83849978D02*
X231730000Y-84270000D01*
X229942947Y-62592947D02*
X232150022Y-64800022D01*
X231730000Y-84270000D02*
X230000000Y-84270000D01*
X232150022Y-64800022D02*
X232150022Y-83849978D01*
%TO.N,/Touch-sense controller/BOOT0*%
X220000000Y-75950000D02*
X220835000Y-75950000D01*
X218700000Y-75750000D02*
X219800000Y-75750000D01*
X220835000Y-75950000D02*
X221400000Y-75385000D01*
X219800000Y-75750000D02*
X220000000Y-75950000D01*
X225400000Y-75000000D02*
X222500000Y-75000000D01*
X225600000Y-75200000D02*
X225400000Y-75000000D01*
X229000000Y-73800000D02*
X227600000Y-75200000D01*
X222500000Y-75000000D02*
X222115000Y-75385000D01*
X226413002Y-68473662D02*
X228250000Y-70310660D01*
X228250000Y-70700000D02*
X227941731Y-71008269D01*
X222115000Y-75385000D02*
X221400000Y-75385000D01*
X228250000Y-70310660D02*
X228250000Y-70700000D01*
X227600000Y-75200000D02*
X225600000Y-75200000D01*
X227941731Y-71008269D02*
X227941731Y-72200000D01*
X227941731Y-72200000D02*
X229000000Y-73258269D01*
X229000000Y-73258269D02*
X229000000Y-73800000D01*
%TO.N,Net-(R10-Pad2)*%
X229257053Y-62217821D02*
X228180769Y-63294105D01*
X229257053Y-61907053D02*
X229257053Y-62217821D01*
%TO.N,Net-(R13-Pad2)*%
X229785000Y-65700000D02*
X230000000Y-65915000D01*
X228887876Y-65998788D02*
X229186664Y-65700000D01*
X229186664Y-65700000D02*
X229785000Y-65700000D01*
%TO.N,/Touch-sense controller/USART1_RX*%
X227120109Y-62233445D02*
X226652161Y-62701393D01*
X226652161Y-66591501D02*
X227473662Y-67413002D01*
X226652161Y-62701393D02*
X226652161Y-66591501D01*
X228900000Y-69300000D02*
X228900000Y-68850000D01*
X230700010Y-71100010D02*
X228900000Y-69300000D01*
X230700000Y-73200000D02*
X230700000Y-73024278D01*
X228050000Y-75850000D02*
X230700000Y-73200000D01*
X225350000Y-75850000D02*
X228050000Y-75850000D01*
X227473662Y-67423662D02*
X227473662Y-67413002D01*
X222350000Y-76750000D02*
X222600000Y-76500000D01*
X228900000Y-68850000D02*
X227473662Y-67423662D01*
X218700000Y-76750000D02*
X222350000Y-76750000D01*
X230700010Y-73024268D02*
X230700010Y-71100010D01*
X230700000Y-73024278D02*
X230700010Y-73024268D01*
X222600000Y-76500000D02*
X222600000Y-75900000D01*
X222600000Y-75900000D02*
X222900000Y-75600000D01*
X222900000Y-75600000D02*
X225100000Y-75600000D01*
X225100000Y-75600000D02*
X225350000Y-75850000D01*
%TO.N,/Touch-sense controller/USART1_TX*%
X228550000Y-69200000D02*
X227120109Y-67770109D01*
X228550000Y-69430682D02*
X228550000Y-69200000D01*
X230400000Y-71280682D02*
X228550000Y-69430682D01*
X230400000Y-72900000D02*
X230400000Y-71280682D01*
X227750010Y-75549990D02*
X230400000Y-72900000D01*
X222250000Y-76250000D02*
X222250000Y-75750000D01*
X227120109Y-67770109D02*
X227120109Y-67766555D01*
X218700000Y-76250000D02*
X222250000Y-76250000D01*
X222250000Y-75750000D02*
X222700000Y-75300000D01*
X225499990Y-75549990D02*
X227750010Y-75549990D01*
X222700000Y-75300000D02*
X225250000Y-75300000D01*
X225250000Y-75300000D02*
X225499990Y-75549990D01*
X226298608Y-66945054D02*
X227120109Y-67766555D01*
X226766555Y-61879891D02*
X226766555Y-61883445D01*
X226298608Y-62351392D02*
X226298608Y-66945054D01*
X226766555Y-61883445D02*
X226298608Y-62351392D01*
%TO.N,/Touch-sense controller/~AUX_IRQn~*%
X218700000Y-71350000D02*
X218700000Y-72250000D01*
X220750000Y-69300000D02*
X218700000Y-71350000D01*
X221940551Y-68827215D02*
X221467766Y-69300000D01*
X221467766Y-69300000D02*
X220750000Y-69300000D01*
D16*
X219350000Y-72250000D02*
X218700000Y-72250000D01*
X220192893Y-70700000D02*
X220192893Y-71407107D01*
X220192893Y-71407107D02*
X219350000Y-72250000D01*
%TO.N,/Touch-sense controller/HWID*%
X214015000Y-77750000D02*
X214000000Y-77765000D01*
X218700000Y-77750000D02*
X214015000Y-77750000D01*
X214000000Y-77765000D02*
X213000000Y-77765000D01*
X212985000Y-77750000D02*
X213000000Y-77765000D01*
X210985000Y-77750000D02*
X212985000Y-77750000D01*
D17*
%TO.N,/Touch-sense controller/G3_4*%
X220542947Y-60482287D02*
X221586998Y-61526338D01*
X220542947Y-60192947D02*
X220542947Y-60482287D01*
%TO.N,/Touch-sense controller/G4_4*%
X228400000Y-61500000D02*
X228757053Y-61142947D01*
X228400000Y-62400000D02*
X228400000Y-61500000D01*
X227827215Y-62940551D02*
X227859449Y-62940551D01*
X227859449Y-62940551D02*
X228400000Y-62400000D01*
%TO.N,/Touch-sense controller/LTS1_5*%
X175750000Y-51200000D02*
X175750000Y-55000000D01*
X205325721Y-51000000D02*
X175950000Y-51000000D01*
X209325721Y-55000000D02*
X205325721Y-51000000D01*
X218657053Y-60657053D02*
X215400000Y-57400000D01*
X215400000Y-57400000D02*
X213425000Y-57400000D01*
X213425000Y-57400000D02*
X212750000Y-56725000D01*
X212750000Y-56725000D02*
X212750000Y-55550000D01*
X212750000Y-55550000D02*
X212200000Y-55000000D01*
X175950000Y-51000000D02*
X175750000Y-51200000D01*
X212200000Y-55000000D02*
X209325721Y-55000000D01*
%TO.N,/Touch-sense controller/LTS1_1*%
X107000000Y-58650000D02*
X107000000Y-55000000D01*
X107200000Y-58850000D02*
X107000000Y-58650000D01*
X196350000Y-58850000D02*
X107200000Y-58850000D01*
X217157053Y-61857053D02*
X217157053Y-62157053D01*
X196350000Y-58850000D02*
X214150000Y-58850000D01*
X214150000Y-58850000D02*
X217157053Y-61857053D01*
X193000000Y-58850000D02*
X196350000Y-58850000D01*
X193000000Y-55000000D02*
X193000000Y-58850000D01*
%TO.N,/Touch-sense controller/LTS1_4*%
X219657053Y-59307053D02*
X219857053Y-59507053D01*
X215250000Y-54900000D02*
X219657053Y-59307053D01*
X212550000Y-54900000D02*
X215250000Y-54900000D01*
X158750000Y-50950000D02*
X159000000Y-50700000D01*
X158750000Y-55000000D02*
X158750000Y-50950000D01*
X159000000Y-50700000D02*
X205450000Y-50700000D01*
X209450000Y-54700000D02*
X212350000Y-54700000D01*
X205450000Y-50700000D02*
X209450000Y-54700000D01*
X212350000Y-54700000D02*
X212550000Y-54900000D01*
%TO.N,/Touch-sense controller/LTS1_3*%
X227643153Y-58493153D02*
X228106847Y-58493153D01*
X141250000Y-50850000D02*
X141700000Y-50400000D01*
X141250000Y-54750000D02*
X141250000Y-50850000D01*
X141700000Y-50400000D02*
X221450000Y-50400000D01*
X221450000Y-50400000D02*
X227150000Y-56100000D01*
X227150000Y-56100000D02*
X227150000Y-58000000D01*
X227150000Y-58000000D02*
X227643153Y-58493153D01*
%TO.N,/Touch-sense controller/LTS1_2*%
X124200000Y-50400000D02*
X124200000Y-55000000D01*
X124500000Y-50100000D02*
X124200000Y-50400000D01*
X221600000Y-50100000D02*
X124500000Y-50100000D01*
X229442947Y-60457053D02*
X229442947Y-57942947D01*
X229442947Y-57942947D02*
X221600000Y-50100000D01*
%TO.N,/Touch-sense controller/LTS2_5*%
X195950000Y-92150000D02*
X176650000Y-92150000D01*
X196400000Y-92600000D02*
X195950000Y-92150000D01*
X196400000Y-93600000D02*
X196400000Y-92600000D01*
X224000000Y-76500000D02*
X225500000Y-76500000D01*
X176000000Y-92800000D02*
X176000000Y-95500000D01*
X176650000Y-92150000D02*
X176000000Y-92800000D01*
X226300000Y-92350000D02*
X224074269Y-94575731D01*
X224074269Y-94575731D02*
X197375731Y-94575731D01*
X225500000Y-76500000D02*
X226300000Y-77300000D01*
X226300000Y-77300000D02*
X226300000Y-92350000D01*
X197375731Y-94575731D02*
X196400000Y-93600000D01*
%TO.N,/Touch-sense controller/LTS2_1*%
X193000000Y-99300000D02*
X193000000Y-99000000D01*
X107100000Y-99500000D02*
X192800000Y-99500000D01*
X192800000Y-99500000D02*
X193000000Y-99300000D01*
X107000000Y-95500000D02*
X107000000Y-99400000D01*
X193000000Y-99000000D02*
X193000000Y-95500000D01*
X107000000Y-99400000D02*
X107100000Y-99500000D01*
X231200000Y-80450000D02*
X231550000Y-80100000D01*
X226950000Y-80450000D02*
X231200000Y-80450000D01*
X226750011Y-85200011D02*
X226750011Y-80649989D01*
X227150000Y-85600000D02*
X226750011Y-85200011D01*
X231400000Y-85600000D02*
X227150000Y-85600000D01*
X231550000Y-80100000D02*
X231550000Y-70350000D01*
X226750011Y-80649989D02*
X226950000Y-80450000D01*
X231650000Y-85850000D02*
X231400000Y-85600000D01*
X231550000Y-70350000D02*
X230400000Y-69200000D01*
X231650000Y-88074279D02*
X231650000Y-85850000D01*
X193000000Y-95500000D02*
X223650000Y-95500000D01*
X223650000Y-95500000D02*
X226725000Y-92425000D01*
X226725000Y-92425000D02*
X226725000Y-88525000D01*
X226725000Y-88525000D02*
X227012861Y-88237139D01*
X227012861Y-88237139D02*
X231487139Y-88237139D01*
X231487139Y-88237139D02*
X231650000Y-88074279D01*
%TO.N,/Touch-sense controller/LTS2_4*%
X159100000Y-91800000D02*
X158950000Y-91950000D01*
X196400000Y-90800000D02*
X195400000Y-91800000D01*
X198900000Y-72100000D02*
X196400000Y-74600000D01*
X216025000Y-67500000D02*
X215650000Y-67875000D01*
X216750000Y-67500000D02*
X216025000Y-67500000D01*
X196400000Y-74600000D02*
X196400000Y-90800000D01*
X203900000Y-72100000D02*
X198900000Y-72100000D01*
X204900000Y-71100000D02*
X203900000Y-72100000D01*
X215650000Y-67875000D02*
X215650000Y-70000000D01*
X195400000Y-91800000D02*
X159100000Y-91800000D01*
X215650000Y-70000000D02*
X214550000Y-71100000D01*
X158950000Y-91950000D02*
X158950000Y-95500000D01*
X214550000Y-71100000D02*
X204900000Y-71100000D01*
%TO.N,/Touch-sense controller/LTS2_3*%
X216857053Y-63757053D02*
X216857053Y-64557053D01*
X216300000Y-63200000D02*
X216857053Y-63757053D01*
X216300000Y-62900000D02*
X216300000Y-63200000D01*
X158925000Y-91500000D02*
X195200000Y-91500000D01*
X214250000Y-61150000D02*
X214550000Y-61150000D01*
X158725000Y-91700000D02*
X158925000Y-91500000D01*
X195200000Y-91500000D02*
X196000000Y-90700000D01*
X141350000Y-92050000D02*
X141700000Y-91700000D01*
X141700000Y-91700000D02*
X158725000Y-91700000D01*
X196000000Y-90700000D02*
X196000000Y-74524278D01*
X141350000Y-95800000D02*
X141350000Y-92050000D01*
X207300000Y-62750000D02*
X209500000Y-60550000D01*
X196000000Y-74524278D02*
X198724278Y-71800000D01*
X198724278Y-71800000D02*
X203600000Y-71800000D01*
X203600000Y-71800000D02*
X207300000Y-68100000D01*
X207300000Y-68100000D02*
X207300000Y-62750000D01*
X209500000Y-60550000D02*
X213650000Y-60550000D01*
X213650000Y-60550000D02*
X214250000Y-61150000D01*
X214550000Y-61150000D02*
X216300000Y-62900000D01*
%TO.N,/Touch-sense controller/LTS2_2*%
X124950000Y-91550000D02*
X124950000Y-95200000D01*
X198550010Y-71499990D02*
X195600000Y-74450000D01*
X203450010Y-71499990D02*
X198550010Y-71499990D01*
X125300000Y-91200000D02*
X124950000Y-91550000D01*
X207000000Y-67950000D02*
X203450010Y-71499990D01*
X195600000Y-74450000D02*
X195600000Y-90600000D01*
X217557053Y-63732774D02*
X214674268Y-60849989D01*
X195000000Y-91200000D02*
X125300000Y-91200000D01*
X195600000Y-90600000D02*
X195000000Y-91200000D01*
X217557053Y-63857053D02*
X217557053Y-63732774D01*
X214399989Y-60849989D02*
X213800000Y-60250000D01*
X214674268Y-60849989D02*
X214399989Y-60849989D01*
X213800000Y-60250000D02*
X209375721Y-60250000D01*
X207000000Y-62625721D02*
X207000000Y-67950000D01*
X209375721Y-60250000D02*
X207000000Y-62625721D01*
%TO.N,/Touch-sense controller/G3_2*%
X218357053Y-65242947D02*
X217542947Y-65242947D01*
X218488778Y-65111222D02*
X218357053Y-65242947D01*
X220000917Y-65111222D02*
X218488778Y-65111222D01*
X221600000Y-63512139D02*
X220000917Y-65111222D01*
X220879891Y-62233445D02*
X221600000Y-62953554D01*
X221600000Y-62953554D02*
X221600000Y-63512139D01*
%TO.N,/Touch-sense controller/G3_3*%
X220561944Y-61411944D02*
X220761944Y-61411944D01*
X221229891Y-61879891D02*
X221233445Y-61879891D01*
X215550000Y-56400000D02*
X220561944Y-61411944D01*
X214300000Y-55900000D02*
X214800000Y-56400000D01*
X220761944Y-61411944D02*
X221229891Y-61879891D01*
X214800000Y-56400000D02*
X215550000Y-56400000D01*
%TO.N,/Touch-sense controller/G1_2*%
X219465678Y-66334322D02*
X219465678Y-66352342D01*
X218250000Y-67000000D02*
X218800000Y-67000000D01*
X218800000Y-67000000D02*
X219465678Y-66334322D01*
X217685000Y-67500000D02*
X217750000Y-67500000D01*
X217750000Y-67500000D02*
X218250000Y-67000000D01*
%TO.N,/Touch-sense controller/G1_3*%
X218460912Y-66650000D02*
X219112124Y-65998788D01*
X216400000Y-66650000D02*
X218460912Y-66650000D01*
X215050000Y-68900000D02*
X214550000Y-69400000D01*
X215050000Y-68000000D02*
X215050000Y-68900000D01*
X215050000Y-68000000D02*
X216400000Y-66650000D01*
%TO.N,/Touch-sense controller/G5_2*%
X228917766Y-68150000D02*
X229300000Y-68150000D01*
X227827215Y-67059449D02*
X228917766Y-68150000D01*
D18*
%TO.N,/Touch-sense controller/G2_2*%
X219400000Y-64811212D02*
X219408043Y-64811213D01*
X219408043Y-64811213D02*
X219600000Y-64811213D01*
X219600000Y-64811213D02*
X219688787Y-64811213D01*
D17*
X218511212Y-64811212D02*
X219400000Y-64811212D01*
X218200000Y-64500000D02*
X218511212Y-64811212D01*
X219688787Y-64811213D02*
X220300000Y-64200000D01*
X220300000Y-63774874D02*
X219819231Y-63294105D01*
X220300000Y-64200000D02*
X220300000Y-63774874D01*
%TO.N,/Touch-sense controller/G2_3*%
X219282234Y-62050000D02*
X220172785Y-62940551D01*
X219173965Y-61941731D02*
X219282234Y-62050000D01*
X211500000Y-55950000D02*
X213250000Y-57700000D01*
X218488071Y-61255837D02*
X218744163Y-61511929D01*
X211300000Y-55950000D02*
X211500000Y-55950000D01*
X213250000Y-57700000D02*
X214932234Y-57700000D01*
X218744163Y-61514925D02*
X219170969Y-61941731D01*
X214932234Y-57700000D02*
X218058269Y-60826035D01*
X219170969Y-61941731D02*
X219173965Y-61941731D01*
X218485075Y-61255837D02*
X218488071Y-61255837D01*
X218058269Y-60829031D02*
X218485075Y-61255837D01*
X218744163Y-61511929D02*
X218744163Y-61514925D01*
X218058269Y-60826035D02*
X218058269Y-60829031D01*
%TO.N,/Touch-sense controller/G4_3*%
X227950000Y-62110660D02*
X227473662Y-62586998D01*
X227950000Y-59450000D02*
X227950000Y-62110660D01*
X224300000Y-55150000D02*
X224950000Y-55800000D01*
X226400000Y-57900000D02*
X227950000Y-59450000D01*
X224300000Y-55000000D02*
X224300000Y-55150000D01*
X224950000Y-55800000D02*
X225450000Y-55800000D01*
X225450000Y-55800000D02*
X226400000Y-56750000D01*
X226400000Y-56750000D02*
X226400000Y-57900000D01*
%TO.N,/Touch-sense controller/G6_2*%
X224000000Y-65750000D02*
X224000000Y-73700000D01*
X224500000Y-65250000D02*
X224000000Y-65750000D01*
X224998788Y-60112124D02*
X224500000Y-60610912D01*
X224500000Y-60610912D02*
X224500000Y-65250000D01*
%TO.N,/Touch-sense controller/G6_3*%
X225400000Y-57000000D02*
X225400000Y-57200000D01*
X226000000Y-59818020D02*
X225352342Y-60465678D01*
X224800000Y-57200000D02*
X224800000Y-57450000D01*
X226000000Y-58650000D02*
X226000000Y-59818020D01*
X224800000Y-57450000D02*
X226000000Y-58650000D01*
%TO.N,/Touch-sense controller/G5_4*%
X228950000Y-71370102D02*
X229139949Y-71560051D01*
X228950000Y-70300000D02*
X228950000Y-71370102D01*
X226766555Y-68120109D02*
X226770109Y-68120109D01*
X226770109Y-68120109D02*
X228950000Y-70300000D01*
%TO.N,/Touch-sense controller/G6_4*%
X225780769Y-60819231D02*
X225705895Y-60819231D01*
X226993153Y-59606847D02*
X225780769Y-60819231D01*
%TO.N,/Touch-sense controller/G2_4*%
X219342947Y-61392947D02*
X219342947Y-61342947D01*
X220526338Y-62586998D02*
X220526338Y-62576338D01*
X220526338Y-62576338D02*
X219342947Y-61392947D01*
%TO.N,/Touch-sense controller/G1_4*%
X219112124Y-64001212D02*
X219101212Y-64001212D01*
X217942947Y-62842947D02*
X217842947Y-62842947D01*
X219101212Y-64001212D02*
X217942947Y-62842947D01*
%TO.N,Net-(D1-Pad1)*%
X221792107Y-71407107D02*
X222100000Y-71715000D01*
X220900000Y-71407107D02*
X221792107Y-71407107D01*
%TO.N,Net-(D1-Pad2)*%
X221607107Y-70574873D02*
X222647658Y-69534322D01*
X221607107Y-70700000D02*
X221607107Y-70574873D01*
%TO.N,Net-(D1-Pad3)*%
X221481981Y-69992893D02*
X222294105Y-69180769D01*
X220900000Y-69992893D02*
X221481981Y-69992893D01*
D16*
%TO.N,Net-(R15-Pad1)*%
X210015000Y-77750000D02*
X210015000Y-78750000D01*
%TD*%
D18*
%TO.N,GND*%
X221104650Y-51501856D02*
X222795683Y-53827027D01*
X222936500Y-54260064D01*
X222936500Y-55750000D01*
X222937720Y-55762388D01*
X222942175Y-55776239D01*
X223130319Y-56190865D01*
X223136549Y-56201642D01*
X223146329Y-56212415D01*
X223359706Y-56399120D01*
X223536500Y-56788733D01*
X223536500Y-58825000D01*
X223537720Y-58837388D01*
X223541334Y-58849300D01*
X223544215Y-58856256D01*
X223489996Y-58861596D01*
X223460459Y-58870556D01*
X223470301Y-58858564D01*
X223490126Y-58821474D01*
X223502335Y-58781229D01*
X223506457Y-58739375D01*
X223502335Y-58697522D01*
X223490126Y-58657277D01*
X223470301Y-58620187D01*
X223443621Y-58587678D01*
X223297846Y-58443363D01*
X223222362Y-58443363D01*
X222908672Y-58757053D01*
X222922814Y-58771195D01*
X222871195Y-58822814D01*
X222857053Y-58808672D01*
X222543363Y-59122362D01*
X222543363Y-59197846D01*
X222654875Y-59310486D01*
X222642272Y-59306663D01*
X222585787Y-59301100D01*
X222529302Y-59306663D01*
X222474988Y-59323139D01*
X222424931Y-59349895D01*
X222381056Y-59385902D01*
X222274990Y-59491968D01*
X222238983Y-59535843D01*
X222212227Y-59585900D01*
X222199826Y-59626779D01*
X222190379Y-59627710D01*
X222150134Y-59639918D01*
X222113044Y-59659743D01*
X222080535Y-59686423D01*
X222038751Y-59729668D01*
X222038751Y-59805152D01*
X222647658Y-60414059D01*
X222661800Y-60399917D01*
X222713419Y-60451536D01*
X222699277Y-60465678D01*
X223308184Y-61074585D01*
X223383668Y-61074585D01*
X223426913Y-61032801D01*
X223434244Y-61023868D01*
X223661501Y-61251125D01*
X223661500Y-63857860D01*
X221933140Y-65566579D01*
X221925188Y-65576156D01*
X221919187Y-65587268D01*
X221908552Y-65612738D01*
X221459790Y-66061500D01*
X221287699Y-66061500D01*
X221227337Y-66001138D01*
X221143234Y-65944942D01*
X221049783Y-65906233D01*
X220950575Y-65886500D01*
X220849425Y-65886500D01*
X220750217Y-65906233D01*
X220656766Y-65944942D01*
X220572663Y-66001138D01*
X220501138Y-66072663D01*
X220484885Y-66096988D01*
X220479757Y-66096988D01*
X219870850Y-66705895D01*
X219884992Y-66720037D01*
X219833373Y-66771656D01*
X219819231Y-66757514D01*
X219210324Y-67366421D01*
X219210324Y-67441905D01*
X219252108Y-67485150D01*
X219261042Y-67492482D01*
X219148056Y-67605467D01*
X219070519Y-67605467D01*
X219050575Y-67601500D01*
X218949425Y-67601500D01*
X218929481Y-67605467D01*
X218827500Y-67605467D01*
X218756871Y-67612423D01*
X218688956Y-67633025D01*
X218626365Y-67666481D01*
X218571504Y-67711504D01*
X218526481Y-67766365D01*
X218493025Y-67828956D01*
X218472423Y-67896871D01*
X218465467Y-67967500D01*
X218465467Y-68262500D01*
X218472423Y-68333129D01*
X218493025Y-68401044D01*
X218526481Y-68463635D01*
X218571504Y-68518496D01*
X218626365Y-68563519D01*
X218653585Y-68578069D01*
X218638147Y-68579589D01*
X218597902Y-68591797D01*
X218560812Y-68611622D01*
X218528302Y-68638302D01*
X218501622Y-68670812D01*
X218481797Y-68707902D01*
X218469589Y-68748147D01*
X218465467Y-68790000D01*
X218466500Y-68995125D01*
X218519875Y-69048500D01*
X218963500Y-69048500D01*
X218963500Y-69028500D01*
X219036500Y-69028500D01*
X219036500Y-69048500D01*
X219480125Y-69048500D01*
X219533500Y-68995125D01*
X219534533Y-68790000D01*
X219530411Y-68748147D01*
X219518203Y-68707902D01*
X219498378Y-68670812D01*
X219471698Y-68638302D01*
X219439188Y-68611622D01*
X219402098Y-68591797D01*
X219361853Y-68579589D01*
X219346415Y-68578069D01*
X219373635Y-68563519D01*
X219428496Y-68518496D01*
X219473519Y-68463635D01*
X219506975Y-68401044D01*
X219527577Y-68333129D01*
X219534533Y-68262500D01*
X219534533Y-68176411D01*
X219739752Y-67971193D01*
X219747083Y-67980125D01*
X219790328Y-68021909D01*
X219865812Y-68021909D01*
X220474719Y-67413002D01*
X220460577Y-67398860D01*
X220512196Y-67347241D01*
X220526338Y-67361383D01*
X220540480Y-67347241D01*
X220592099Y-67398860D01*
X220577957Y-67413002D01*
X220592099Y-67427144D01*
X220540480Y-67478763D01*
X220526338Y-67464621D01*
X219917431Y-68073528D01*
X219917431Y-68149012D01*
X219959215Y-68192257D01*
X219991724Y-68218937D01*
X220018731Y-68233373D01*
X220017097Y-68238762D01*
X220015676Y-68243445D01*
X220010105Y-68300000D01*
X220011501Y-68314171D01*
X220011500Y-69180500D01*
X217306022Y-71885979D01*
X217295014Y-71895013D01*
X217278942Y-71914597D01*
X217258961Y-71938943D01*
X217232172Y-71989063D01*
X217225086Y-72012423D01*
X217217042Y-72038943D01*
X217215676Y-72043445D01*
X217210105Y-72100000D01*
X217211501Y-72114172D01*
X217211500Y-74085838D01*
X217210105Y-74100000D01*
X217211500Y-74114162D01*
X217211500Y-74114163D01*
X217215675Y-74156555D01*
X217226866Y-74193445D01*
X217232172Y-74210937D01*
X217258961Y-74261057D01*
X217264249Y-74267500D01*
X217295013Y-74304987D01*
X217306026Y-74314025D01*
X217435975Y-74443974D01*
X217445013Y-74454987D01*
X217488943Y-74491039D01*
X217539062Y-74517828D01*
X217593444Y-74534325D01*
X217635836Y-74538500D01*
X217635837Y-74538500D01*
X217649999Y-74539895D01*
X217664161Y-74538500D01*
X217695549Y-74538500D01*
X217689589Y-74558147D01*
X217685467Y-74600000D01*
X217686500Y-74660125D01*
X217739875Y-74713500D01*
X218663500Y-74713500D01*
X218663500Y-74693500D01*
X218736500Y-74693500D01*
X218736500Y-74713500D01*
X219660125Y-74713500D01*
X219713500Y-74660125D01*
X219714533Y-74600000D01*
X219710411Y-74558147D01*
X219704451Y-74538500D01*
X219965467Y-74538500D01*
X219965467Y-74562500D01*
X219972423Y-74633129D01*
X219993025Y-74701044D01*
X220026481Y-74763635D01*
X220071504Y-74818496D01*
X220126365Y-74863519D01*
X220153585Y-74878069D01*
X220138147Y-74879589D01*
X220097902Y-74891797D01*
X220060812Y-74911622D01*
X220028302Y-74938302D01*
X220001622Y-74970812D01*
X219981797Y-75007902D01*
X219969589Y-75048147D01*
X219965467Y-75090000D01*
X219966500Y-75295125D01*
X220019875Y-75348500D01*
X220463500Y-75348500D01*
X220463500Y-75328500D01*
X220536500Y-75328500D01*
X220536500Y-75348500D01*
X220556500Y-75348500D01*
X220556500Y-75421500D01*
X220536500Y-75421500D01*
X220536500Y-75441500D01*
X220463500Y-75441500D01*
X220463500Y-75421500D01*
X220019875Y-75421500D01*
X219966500Y-75474875D01*
X219966307Y-75513269D01*
X219961057Y-75508961D01*
X219910938Y-75482172D01*
X219856556Y-75465675D01*
X219814164Y-75461500D01*
X219814162Y-75461500D01*
X219800000Y-75460105D01*
X219785838Y-75461500D01*
X219704451Y-75461500D01*
X219710411Y-75441853D01*
X219714533Y-75400000D01*
X219713500Y-75339875D01*
X219660125Y-75286500D01*
X218736500Y-75286500D01*
X218736500Y-75306500D01*
X218663500Y-75306500D01*
X218663500Y-75286500D01*
X217739875Y-75286500D01*
X217686500Y-75339875D01*
X217685467Y-75400000D01*
X217689589Y-75441853D01*
X217701797Y-75482098D01*
X217711366Y-75500000D01*
X217701797Y-75517902D01*
X217689589Y-75558147D01*
X217685467Y-75600000D01*
X217685467Y-75900000D01*
X217689589Y-75941853D01*
X217701797Y-75982098D01*
X217711366Y-76000000D01*
X217701797Y-76017902D01*
X217689589Y-76058147D01*
X217685467Y-76100000D01*
X217685467Y-76400000D01*
X217689589Y-76441853D01*
X217701797Y-76482098D01*
X217711366Y-76500000D01*
X217701797Y-76517902D01*
X217689589Y-76558147D01*
X217685467Y-76600000D01*
X217685467Y-76900000D01*
X217689589Y-76941853D01*
X217701797Y-76982098D01*
X217711366Y-77000000D01*
X217701797Y-77017902D01*
X217689589Y-77058147D01*
X217685467Y-77100000D01*
X217686500Y-77160125D01*
X217739875Y-77213500D01*
X218663500Y-77213500D01*
X218663500Y-77193500D01*
X218736500Y-77193500D01*
X218736500Y-77213500D01*
X219660125Y-77213500D01*
X219713500Y-77160125D01*
X219714533Y-77100000D01*
X219710411Y-77058147D01*
X219704451Y-77038500D01*
X222335838Y-77038500D01*
X222350000Y-77039895D01*
X222364162Y-77038500D01*
X222364164Y-77038500D01*
X222406556Y-77034325D01*
X222460938Y-77017828D01*
X222511057Y-76991039D01*
X222554987Y-76954987D01*
X222564024Y-76943975D01*
X222793985Y-76714016D01*
X222804987Y-76704987D01*
X222841039Y-76661057D01*
X222867828Y-76610938D01*
X222884325Y-76556556D01*
X222888500Y-76514164D01*
X222888500Y-76514163D01*
X222889895Y-76500001D01*
X222888500Y-76485839D01*
X222888500Y-76019499D01*
X222939321Y-75968678D01*
X222919393Y-76034374D01*
X222910467Y-76125000D01*
X222910467Y-76875000D01*
X222919393Y-76965626D01*
X222945827Y-77052769D01*
X222988755Y-77133081D01*
X223046526Y-77203474D01*
X223116919Y-77261245D01*
X223197231Y-77304173D01*
X223284374Y-77330607D01*
X223375000Y-77339533D01*
X224625000Y-77339533D01*
X224715626Y-77330607D01*
X224802769Y-77304173D01*
X224883081Y-77261245D01*
X224953474Y-77203474D01*
X225011245Y-77133081D01*
X225054173Y-77052769D01*
X225080607Y-76965626D01*
X225089533Y-76875000D01*
X225089533Y-76788500D01*
X225380501Y-76788500D01*
X226011500Y-77419500D01*
X226011500Y-78520549D01*
X225991853Y-78514589D01*
X225950000Y-78510467D01*
X225602375Y-78511500D01*
X225549000Y-78564875D01*
X225549000Y-79163500D01*
X225569000Y-79163500D01*
X225569000Y-79236500D01*
X225549000Y-79236500D01*
X225549000Y-79835125D01*
X225602375Y-79888500D01*
X225950000Y-79889533D01*
X225991853Y-79885411D01*
X226011500Y-79879451D01*
X226011500Y-80428607D01*
X225771531Y-80428175D01*
X225232421Y-79889065D01*
X225422625Y-79888500D01*
X225476000Y-79835125D01*
X225476000Y-79236500D01*
X224914875Y-79236500D01*
X224861500Y-79289875D01*
X224860889Y-79517534D01*
X224617567Y-79274212D01*
X224607750Y-79262250D01*
X224560014Y-79223074D01*
X224505551Y-79193963D01*
X224446457Y-79176037D01*
X224400392Y-79171500D01*
X224385000Y-79169984D01*
X224369608Y-79171500D01*
X221092299Y-79171500D01*
X221073519Y-79136365D01*
X221028496Y-79081504D01*
X220973635Y-79036481D01*
X220946415Y-79021931D01*
X220961853Y-79020411D01*
X221002098Y-79008203D01*
X221039188Y-78988378D01*
X221071698Y-78961698D01*
X221098378Y-78929188D01*
X221118203Y-78892098D01*
X221130411Y-78851853D01*
X221134533Y-78810000D01*
X221134105Y-78725000D01*
X224860467Y-78725000D01*
X224861500Y-79110125D01*
X224914875Y-79163500D01*
X225476000Y-79163500D01*
X225476000Y-78564875D01*
X225422625Y-78511500D01*
X225075000Y-78510467D01*
X225033147Y-78514589D01*
X224992902Y-78526797D01*
X224955812Y-78546622D01*
X224923302Y-78573302D01*
X224896622Y-78605812D01*
X224876797Y-78642902D01*
X224864589Y-78683147D01*
X224860467Y-78725000D01*
X221134105Y-78725000D01*
X221133500Y-78604875D01*
X221080125Y-78551500D01*
X220636500Y-78551500D01*
X220636500Y-78571500D01*
X220563500Y-78571500D01*
X220563500Y-78551500D01*
X220543500Y-78551500D01*
X220543500Y-78478500D01*
X220563500Y-78478500D01*
X220563500Y-78059875D01*
X220636500Y-78059875D01*
X220636500Y-78478500D01*
X221080125Y-78478500D01*
X221133500Y-78425125D01*
X221134533Y-78220000D01*
X221130411Y-78178147D01*
X221118203Y-78137902D01*
X221098378Y-78100812D01*
X221071698Y-78068302D01*
X221039188Y-78041622D01*
X221002098Y-78021797D01*
X220961853Y-78009589D01*
X220920000Y-78005467D01*
X220689875Y-78006500D01*
X220636500Y-78059875D01*
X220563500Y-78059875D01*
X220510125Y-78006500D01*
X220280000Y-78005467D01*
X220238147Y-78009589D01*
X220197902Y-78021797D01*
X220160812Y-78041622D01*
X220128302Y-78068302D01*
X220101622Y-78100812D01*
X220081797Y-78137902D01*
X220069589Y-78178147D01*
X220065467Y-78220000D01*
X220066500Y-78425125D01*
X220119873Y-78478498D01*
X220067753Y-78478498D01*
X220053970Y-78467186D01*
X219995165Y-78435754D01*
X219931357Y-78416399D01*
X219881620Y-78411500D01*
X219881612Y-78411500D01*
X219865000Y-78409864D01*
X219848388Y-78411500D01*
X219713400Y-78411500D01*
X219714533Y-78400000D01*
X219713500Y-78339875D01*
X219660125Y-78286500D01*
X218736500Y-78286500D01*
X218736500Y-78306500D01*
X218663500Y-78306500D01*
X218663500Y-78286500D01*
X217739875Y-78286500D01*
X217686500Y-78339875D01*
X217685467Y-78400000D01*
X217686600Y-78411500D01*
X216563500Y-78411500D01*
X216563500Y-78063500D01*
X217689062Y-78063500D01*
X217685467Y-78100000D01*
X217686500Y-78160125D01*
X217739875Y-78213500D01*
X218663500Y-78213500D01*
X218663500Y-78193500D01*
X218736500Y-78193500D01*
X218736500Y-78213500D01*
X219660125Y-78213500D01*
X219713500Y-78160125D01*
X219714533Y-78100000D01*
X219710411Y-78058147D01*
X219698203Y-78017902D01*
X219688634Y-78000000D01*
X219698203Y-77982098D01*
X219710411Y-77941853D01*
X219714533Y-77900000D01*
X219714533Y-77600000D01*
X219710411Y-77558147D01*
X219698203Y-77517902D01*
X219688634Y-77500000D01*
X219698203Y-77482098D01*
X219710411Y-77441853D01*
X219714533Y-77400000D01*
X219713500Y-77339875D01*
X219660125Y-77286500D01*
X218736500Y-77286500D01*
X218736500Y-77306500D01*
X218663500Y-77306500D01*
X218663500Y-77286500D01*
X217739875Y-77286500D01*
X217686500Y-77339875D01*
X217685467Y-77400000D01*
X217689062Y-77436500D01*
X216563500Y-77436500D01*
X216563500Y-74900000D01*
X217685467Y-74900000D01*
X217689589Y-74941853D01*
X217701797Y-74982098D01*
X217711366Y-75000000D01*
X217701797Y-75017902D01*
X217689589Y-75058147D01*
X217685467Y-75100000D01*
X217686500Y-75160125D01*
X217739875Y-75213500D01*
X218663500Y-75213500D01*
X218663500Y-74786500D01*
X218736500Y-74786500D01*
X218736500Y-75213500D01*
X219660125Y-75213500D01*
X219713500Y-75160125D01*
X219714533Y-75100000D01*
X219710411Y-75058147D01*
X219698203Y-75017902D01*
X219688634Y-75000000D01*
X219698203Y-74982098D01*
X219710411Y-74941853D01*
X219714533Y-74900000D01*
X219713500Y-74839875D01*
X219660125Y-74786500D01*
X218736500Y-74786500D01*
X218663500Y-74786500D01*
X217739875Y-74786500D01*
X217686500Y-74839875D01*
X217685467Y-74900000D01*
X216563500Y-74900000D01*
X216563500Y-71714533D01*
X216600000Y-71714533D01*
X216641853Y-71710411D01*
X216682098Y-71698203D01*
X216719188Y-71678378D01*
X216751698Y-71651698D01*
X216778378Y-71619188D01*
X216798203Y-71582098D01*
X216810411Y-71541853D01*
X216814533Y-71500000D01*
X216814533Y-70700000D01*
X216810411Y-70658147D01*
X216798203Y-70617902D01*
X216778378Y-70580812D01*
X216751698Y-70548302D01*
X216719188Y-70521622D01*
X216682098Y-70501797D01*
X216641853Y-70489589D01*
X216600000Y-70485467D01*
X216563500Y-70485467D01*
X216563500Y-70414754D01*
X216573302Y-70426698D01*
X216605812Y-70453378D01*
X216642902Y-70473203D01*
X216683147Y-70485411D01*
X216725000Y-70489533D01*
X217260125Y-70488500D01*
X217313500Y-70435125D01*
X217313500Y-69436500D01*
X217386500Y-69436500D01*
X217386500Y-70435125D01*
X217439875Y-70488500D01*
X217975000Y-70489533D01*
X218016853Y-70485411D01*
X218057098Y-70473203D01*
X218094188Y-70453378D01*
X218126698Y-70426698D01*
X218153378Y-70394188D01*
X218173203Y-70357098D01*
X218185411Y-70316853D01*
X218189533Y-70275000D01*
X218188500Y-69489875D01*
X218135125Y-69436500D01*
X217386500Y-69436500D01*
X217313500Y-69436500D01*
X217293500Y-69436500D01*
X217293500Y-69380000D01*
X218465467Y-69380000D01*
X218469589Y-69421853D01*
X218481797Y-69462098D01*
X218501622Y-69499188D01*
X218528302Y-69531698D01*
X218560812Y-69558378D01*
X218597902Y-69578203D01*
X218638147Y-69590411D01*
X218680000Y-69594533D01*
X218910125Y-69593500D01*
X218963500Y-69540125D01*
X218963500Y-69121500D01*
X219036500Y-69121500D01*
X219036500Y-69540125D01*
X219089875Y-69593500D01*
X219320000Y-69594533D01*
X219361853Y-69590411D01*
X219402098Y-69578203D01*
X219439188Y-69558378D01*
X219471698Y-69531698D01*
X219498378Y-69499188D01*
X219518203Y-69462098D01*
X219530411Y-69421853D01*
X219534533Y-69380000D01*
X219533500Y-69174875D01*
X219480125Y-69121500D01*
X219036500Y-69121500D01*
X218963500Y-69121500D01*
X218519875Y-69121500D01*
X218466500Y-69174875D01*
X218465467Y-69380000D01*
X217293500Y-69380000D01*
X217293500Y-69363500D01*
X217313500Y-69363500D01*
X217313500Y-68364875D01*
X217386500Y-68364875D01*
X217386500Y-69363500D01*
X218135125Y-69363500D01*
X218188500Y-69310125D01*
X218189533Y-68525000D01*
X218185411Y-68483147D01*
X218173203Y-68442902D01*
X218153378Y-68405812D01*
X218126698Y-68373302D01*
X218094188Y-68346622D01*
X218057098Y-68326797D01*
X218016853Y-68314589D01*
X217975000Y-68310467D01*
X217439875Y-68311500D01*
X217386500Y-68364875D01*
X217313500Y-68364875D01*
X217260125Y-68311500D01*
X216725000Y-68310467D01*
X216683147Y-68314589D01*
X216642902Y-68326797D01*
X216605812Y-68346622D01*
X216573302Y-68373302D01*
X216563500Y-68385246D01*
X216563500Y-68034139D01*
X216567500Y-68034533D01*
X216862500Y-68034533D01*
X216933129Y-68027577D01*
X217001044Y-68006975D01*
X217063635Y-67973519D01*
X217118496Y-67928496D01*
X217163519Y-67873635D01*
X217196975Y-67811044D01*
X217200000Y-67801072D01*
X217203025Y-67811044D01*
X217236481Y-67873635D01*
X217281504Y-67928496D01*
X217336365Y-67973519D01*
X217398956Y-68006975D01*
X217466871Y-68027577D01*
X217537500Y-68034533D01*
X217832500Y-68034533D01*
X217903129Y-68027577D01*
X217971044Y-68006975D01*
X218033635Y-67973519D01*
X218088496Y-67928496D01*
X218133519Y-67873635D01*
X218166975Y-67811044D01*
X218187577Y-67743129D01*
X218194533Y-67672500D01*
X218194533Y-67463466D01*
X218369500Y-67288500D01*
X218785838Y-67288500D01*
X218800000Y-67289895D01*
X218814162Y-67288500D01*
X218814164Y-67288500D01*
X218856556Y-67284325D01*
X218910938Y-67267828D01*
X218961057Y-67241039D01*
X218997565Y-67211078D01*
X219013296Y-67240509D01*
X219039976Y-67273018D01*
X219083221Y-67314802D01*
X219158705Y-67314802D01*
X219767612Y-66705895D01*
X219753470Y-66691753D01*
X219805089Y-66640134D01*
X219819231Y-66654276D01*
X220428138Y-66045369D01*
X220428138Y-65969885D01*
X220386354Y-65926640D01*
X220353845Y-65899960D01*
X220316755Y-65880135D01*
X220276510Y-65867927D01*
X220267063Y-65866996D01*
X220254663Y-65826118D01*
X220227907Y-65776061D01*
X220191900Y-65732186D01*
X220085834Y-65626120D01*
X220063500Y-65607791D01*
X220063500Y-65393719D01*
X220111855Y-65379050D01*
X220161974Y-65352261D01*
X220205904Y-65316209D01*
X220214942Y-65305196D01*
X221793979Y-63726160D01*
X221804987Y-63717126D01*
X221841039Y-63673196D01*
X221867828Y-63623077D01*
X221884325Y-63568695D01*
X221888500Y-63526303D01*
X221888500Y-63526301D01*
X221889895Y-63512139D01*
X221888500Y-63497977D01*
X221888500Y-62967716D01*
X221889895Y-62953554D01*
X221887789Y-62932172D01*
X221884325Y-62896998D01*
X221867828Y-62842616D01*
X221841039Y-62792497D01*
X221804987Y-62748567D01*
X221793980Y-62739534D01*
X221731781Y-62677336D01*
X221759669Y-62668876D01*
X221809726Y-62642120D01*
X221853601Y-62606113D01*
X221959667Y-62500047D01*
X221995674Y-62456172D01*
X222022430Y-62406115D01*
X222038906Y-62351801D01*
X222040699Y-62333592D01*
X222058908Y-62331799D01*
X222113222Y-62315323D01*
X222163279Y-62288567D01*
X222207154Y-62252560D01*
X222313220Y-62146494D01*
X222349227Y-62102619D01*
X222375983Y-62052562D01*
X222388383Y-62011684D01*
X222397830Y-62010753D01*
X222438075Y-61998545D01*
X222475165Y-61978720D01*
X222507674Y-61952040D01*
X222549458Y-61908795D01*
X222549458Y-61833311D01*
X221940551Y-61224404D01*
X221926409Y-61238546D01*
X221874790Y-61186927D01*
X221888932Y-61172785D01*
X221992170Y-61172785D01*
X222601077Y-61781692D01*
X222676561Y-61781692D01*
X222719806Y-61739908D01*
X222746486Y-61707399D01*
X222766311Y-61670309D01*
X222772204Y-61650884D01*
X222791629Y-61644991D01*
X222828719Y-61625166D01*
X222861228Y-61598486D01*
X222903012Y-61555241D01*
X222903012Y-61479757D01*
X222294105Y-60870850D01*
X221992170Y-61172785D01*
X221888932Y-61172785D01*
X221280025Y-60563878D01*
X221204541Y-60563878D01*
X221161296Y-60605662D01*
X221134616Y-60638171D01*
X221124938Y-60656278D01*
X220962571Y-60493911D01*
X221019707Y-60436775D01*
X221331644Y-60436775D01*
X221331644Y-60512259D01*
X221940551Y-61121166D01*
X222242486Y-60819231D01*
X222345724Y-60819231D01*
X222954631Y-61428138D01*
X223030115Y-61428138D01*
X223073360Y-61386354D01*
X223100040Y-61353845D01*
X223119865Y-61316755D01*
X223125757Y-61297330D01*
X223145182Y-61291438D01*
X223182272Y-61271613D01*
X223214781Y-61244933D01*
X223256565Y-61201688D01*
X223256565Y-61126204D01*
X222647658Y-60517297D01*
X222345724Y-60819231D01*
X222242486Y-60819231D01*
X221633579Y-60210324D01*
X221558095Y-60210324D01*
X221514850Y-60252108D01*
X221488170Y-60284617D01*
X221468345Y-60321707D01*
X221462452Y-60341132D01*
X221443027Y-60347025D01*
X221405937Y-60366850D01*
X221373428Y-60393530D01*
X221331644Y-60436775D01*
X221019707Y-60436775D01*
X221025217Y-60431265D01*
X221070240Y-60376404D01*
X221103696Y-60313813D01*
X221124298Y-60245898D01*
X221131254Y-60175269D01*
X221124298Y-60104640D01*
X221117801Y-60083221D01*
X221685198Y-60083221D01*
X221685198Y-60158705D01*
X222294105Y-60767612D01*
X222596039Y-60465678D01*
X221987132Y-59856771D01*
X221911648Y-59856771D01*
X221868403Y-59898555D01*
X221841723Y-59931064D01*
X221821898Y-59968154D01*
X221816006Y-59987579D01*
X221796581Y-59993471D01*
X221759491Y-60013296D01*
X221726982Y-60039976D01*
X221685198Y-60083221D01*
X221117801Y-60083221D01*
X221103696Y-60036725D01*
X221070240Y-59974134D01*
X221025217Y-59919273D01*
X220816621Y-59710677D01*
X220761760Y-59665654D01*
X220699169Y-59632198D01*
X220631254Y-59611596D01*
X220560625Y-59604640D01*
X220489996Y-59611596D01*
X220422081Y-59632198D01*
X220412888Y-59637112D01*
X220417802Y-59627919D01*
X220438404Y-59560004D01*
X220445360Y-59489375D01*
X220438404Y-59418746D01*
X220417802Y-59350831D01*
X220384346Y-59288240D01*
X220339323Y-59233379D01*
X220130727Y-59024783D01*
X220075866Y-58979760D01*
X220063500Y-58973150D01*
X220063500Y-58774731D01*
X222207649Y-58774731D01*
X222211771Y-58816584D01*
X222223980Y-58856829D01*
X222243805Y-58893919D01*
X222270485Y-58926428D01*
X222416260Y-59070743D01*
X222491744Y-59070743D01*
X222805434Y-58757053D01*
X222509422Y-58461040D01*
X222433938Y-58461040D01*
X222270485Y-58623033D01*
X222243805Y-58655542D01*
X222223980Y-58692632D01*
X222211771Y-58732877D01*
X222207649Y-58774731D01*
X220063500Y-58774731D01*
X220063500Y-58500000D01*
X220062280Y-58487612D01*
X220058666Y-58475700D01*
X219892691Y-58075000D01*
X221160467Y-58075000D01*
X221164589Y-58116853D01*
X221176797Y-58157098D01*
X221196622Y-58194188D01*
X221223302Y-58226698D01*
X221255812Y-58253378D01*
X221292902Y-58273203D01*
X221333147Y-58285411D01*
X221375000Y-58289533D01*
X221910125Y-58288500D01*
X221963500Y-58235125D01*
X221963500Y-57236500D01*
X222036500Y-57236500D01*
X222036500Y-58235125D01*
X222089875Y-58288500D01*
X222605086Y-58289495D01*
X222561040Y-58333938D01*
X222561040Y-58409422D01*
X222857053Y-58705434D01*
X223170743Y-58391744D01*
X223170743Y-58316260D01*
X223026428Y-58170485D01*
X222993919Y-58143805D01*
X222956829Y-58123980D01*
X222916584Y-58111771D01*
X222874731Y-58107649D01*
X222835941Y-58111469D01*
X222839533Y-58075000D01*
X222838500Y-57289875D01*
X222785125Y-57236500D01*
X222036500Y-57236500D01*
X221963500Y-57236500D01*
X221214875Y-57236500D01*
X221161500Y-57289875D01*
X221160467Y-58075000D01*
X219892691Y-58075000D01*
X219881889Y-58048923D01*
X219876021Y-58037944D01*
X219868124Y-58028322D01*
X218164802Y-56325000D01*
X221160467Y-56325000D01*
X221161500Y-57110125D01*
X221214875Y-57163500D01*
X221963500Y-57163500D01*
X221963500Y-56164875D01*
X222036500Y-56164875D01*
X222036500Y-57163500D01*
X222785125Y-57163500D01*
X222838500Y-57110125D01*
X222839533Y-56325000D01*
X222835411Y-56283147D01*
X222823203Y-56242902D01*
X222803378Y-56205812D01*
X222776698Y-56173302D01*
X222744188Y-56146622D01*
X222707098Y-56126797D01*
X222666853Y-56114589D01*
X222625000Y-56110467D01*
X222089875Y-56111500D01*
X222036500Y-56164875D01*
X221963500Y-56164875D01*
X221910125Y-56111500D01*
X221375000Y-56110467D01*
X221333147Y-56114589D01*
X221292902Y-56126797D01*
X221255812Y-56146622D01*
X221223302Y-56173302D01*
X221196622Y-56205812D01*
X221176797Y-56242902D01*
X221164589Y-56283147D01*
X221160467Y-56325000D01*
X218164802Y-56325000D01*
X217714802Y-55875000D01*
X220660467Y-55875000D01*
X220664589Y-55916853D01*
X220676797Y-55957098D01*
X220696622Y-55994188D01*
X220723302Y-56026698D01*
X220755812Y-56053378D01*
X220792902Y-56073203D01*
X220833147Y-56085411D01*
X220875000Y-56089533D01*
X221410125Y-56088500D01*
X221463500Y-56035125D01*
X221463500Y-55036500D01*
X221536500Y-55036500D01*
X221536500Y-56035125D01*
X221589875Y-56088500D01*
X222125000Y-56089533D01*
X222166853Y-56085411D01*
X222207098Y-56073203D01*
X222244188Y-56053378D01*
X222276698Y-56026698D01*
X222303378Y-55994188D01*
X222323203Y-55957098D01*
X222335411Y-55916853D01*
X222339533Y-55875000D01*
X222338500Y-55089875D01*
X222285125Y-55036500D01*
X221536500Y-55036500D01*
X221463500Y-55036500D01*
X220714875Y-55036500D01*
X220661500Y-55089875D01*
X220660467Y-55875000D01*
X217714802Y-55875000D01*
X215964802Y-54125000D01*
X220660467Y-54125000D01*
X220661500Y-54910125D01*
X220714875Y-54963500D01*
X221463500Y-54963500D01*
X221463500Y-53964875D01*
X221536500Y-53964875D01*
X221536500Y-54963500D01*
X222285125Y-54963500D01*
X222338500Y-54910125D01*
X222339533Y-54125000D01*
X222335411Y-54083147D01*
X222323203Y-54042902D01*
X222303378Y-54005812D01*
X222276698Y-53973302D01*
X222244188Y-53946622D01*
X222207098Y-53926797D01*
X222166853Y-53914589D01*
X222125000Y-53910467D01*
X221589875Y-53911500D01*
X221536500Y-53964875D01*
X221463500Y-53964875D01*
X221410125Y-53911500D01*
X220875000Y-53910467D01*
X220833147Y-53914589D01*
X220792902Y-53926797D01*
X220755812Y-53946622D01*
X220723302Y-53973302D01*
X220696622Y-54005812D01*
X220676797Y-54042902D01*
X220664589Y-54083147D01*
X220660467Y-54125000D01*
X215964802Y-54125000D01*
X215721678Y-53881876D01*
X215712056Y-53873979D01*
X215701077Y-53868111D01*
X215388202Y-53738514D01*
X215389533Y-53725000D01*
X215388500Y-53189875D01*
X215335125Y-53136500D01*
X214336500Y-53136500D01*
X214336500Y-53156500D01*
X214263500Y-53156500D01*
X214263500Y-53136500D01*
X213264875Y-53136500D01*
X213211500Y-53189875D01*
X213210541Y-53686500D01*
X212389362Y-53686500D01*
X212388500Y-53239875D01*
X212335125Y-53186500D01*
X211336500Y-53186500D01*
X211336500Y-53206500D01*
X211263500Y-53206500D01*
X211263500Y-53186500D01*
X210264875Y-53186500D01*
X210211500Y-53239875D01*
X210210638Y-53686500D01*
X209776302Y-53686500D01*
X209563500Y-53473698D01*
X209563500Y-52525000D01*
X210210467Y-52525000D01*
X210211500Y-53060125D01*
X210264875Y-53113500D01*
X211263500Y-53113500D01*
X211263500Y-52364875D01*
X211336500Y-52364875D01*
X211336500Y-53113500D01*
X212335125Y-53113500D01*
X212388500Y-53060125D01*
X212389533Y-52525000D01*
X212385411Y-52483147D01*
X212382940Y-52475000D01*
X213210467Y-52475000D01*
X213211500Y-53010125D01*
X213264875Y-53063500D01*
X214263500Y-53063500D01*
X214263500Y-52314875D01*
X214336500Y-52314875D01*
X214336500Y-53063500D01*
X215335125Y-53063500D01*
X215388500Y-53010125D01*
X215389533Y-52475000D01*
X215385411Y-52433147D01*
X215373203Y-52392902D01*
X215353378Y-52355812D01*
X215326698Y-52323302D01*
X215294188Y-52296622D01*
X215257098Y-52276797D01*
X215216853Y-52264589D01*
X215175000Y-52260467D01*
X214389875Y-52261500D01*
X214336500Y-52314875D01*
X214263500Y-52314875D01*
X214210125Y-52261500D01*
X213425000Y-52260467D01*
X213383147Y-52264589D01*
X213342902Y-52276797D01*
X213305812Y-52296622D01*
X213273302Y-52323302D01*
X213246622Y-52355812D01*
X213226797Y-52392902D01*
X213214589Y-52433147D01*
X213210467Y-52475000D01*
X212382940Y-52475000D01*
X212373203Y-52442902D01*
X212353378Y-52405812D01*
X212326698Y-52373302D01*
X212294188Y-52346622D01*
X212257098Y-52326797D01*
X212216853Y-52314589D01*
X212175000Y-52310467D01*
X211389875Y-52311500D01*
X211336500Y-52364875D01*
X211263500Y-52364875D01*
X211210125Y-52311500D01*
X210425000Y-52310467D01*
X210383147Y-52314589D01*
X210342902Y-52326797D01*
X210305812Y-52346622D01*
X210273302Y-52373302D01*
X210246622Y-52405812D01*
X210226797Y-52442902D01*
X210214589Y-52483147D01*
X210210467Y-52525000D01*
X209563500Y-52525000D01*
X209563500Y-51526302D01*
X209776302Y-51313500D01*
X220734763Y-51313500D01*
X221104650Y-51501856D01*
%TA.AperFunction,Conductor*%
D19*
G36*
X221104650Y-51501856D02*
G01*
X222795683Y-53827027D01*
X222936500Y-54260064D01*
X222936500Y-55750000D01*
X222937720Y-55762388D01*
X222942175Y-55776239D01*
X223130319Y-56190865D01*
X223136549Y-56201642D01*
X223146329Y-56212415D01*
X223359706Y-56399120D01*
X223536500Y-56788733D01*
X223536500Y-58825000D01*
X223537720Y-58837388D01*
X223541334Y-58849300D01*
X223544215Y-58856256D01*
X223489996Y-58861596D01*
X223460459Y-58870556D01*
X223470301Y-58858564D01*
X223490126Y-58821474D01*
X223502335Y-58781229D01*
X223506457Y-58739375D01*
X223502335Y-58697522D01*
X223490126Y-58657277D01*
X223470301Y-58620187D01*
X223443621Y-58587678D01*
X223297846Y-58443363D01*
X223222362Y-58443363D01*
X222908672Y-58757053D01*
X222922814Y-58771195D01*
X222871195Y-58822814D01*
X222857053Y-58808672D01*
X222543363Y-59122362D01*
X222543363Y-59197846D01*
X222654875Y-59310486D01*
X222642272Y-59306663D01*
X222585787Y-59301100D01*
X222529302Y-59306663D01*
X222474988Y-59323139D01*
X222424931Y-59349895D01*
X222381056Y-59385902D01*
X222274990Y-59491968D01*
X222238983Y-59535843D01*
X222212227Y-59585900D01*
X222199826Y-59626779D01*
X222190379Y-59627710D01*
X222150134Y-59639918D01*
X222113044Y-59659743D01*
X222080535Y-59686423D01*
X222038751Y-59729668D01*
X222038751Y-59805152D01*
X222647658Y-60414059D01*
X222661800Y-60399917D01*
X222713419Y-60451536D01*
X222699277Y-60465678D01*
X223308184Y-61074585D01*
X223383668Y-61074585D01*
X223426913Y-61032801D01*
X223434244Y-61023868D01*
X223661501Y-61251125D01*
X223661500Y-63857860D01*
X221933140Y-65566579D01*
X221925188Y-65576156D01*
X221919187Y-65587268D01*
X221908552Y-65612738D01*
X221459790Y-66061500D01*
X221287699Y-66061500D01*
X221227337Y-66001138D01*
X221143234Y-65944942D01*
X221049783Y-65906233D01*
X220950575Y-65886500D01*
X220849425Y-65886500D01*
X220750217Y-65906233D01*
X220656766Y-65944942D01*
X220572663Y-66001138D01*
X220501138Y-66072663D01*
X220484885Y-66096988D01*
X220479757Y-66096988D01*
X219870850Y-66705895D01*
X219884992Y-66720037D01*
X219833373Y-66771656D01*
X219819231Y-66757514D01*
X219210324Y-67366421D01*
X219210324Y-67441905D01*
X219252108Y-67485150D01*
X219261042Y-67492482D01*
X219148056Y-67605467D01*
X219070519Y-67605467D01*
X219050575Y-67601500D01*
X218949425Y-67601500D01*
X218929481Y-67605467D01*
X218827500Y-67605467D01*
X218756871Y-67612423D01*
X218688956Y-67633025D01*
X218626365Y-67666481D01*
X218571504Y-67711504D01*
X218526481Y-67766365D01*
X218493025Y-67828956D01*
X218472423Y-67896871D01*
X218465467Y-67967500D01*
X218465467Y-68262500D01*
X218472423Y-68333129D01*
X218493025Y-68401044D01*
X218526481Y-68463635D01*
X218571504Y-68518496D01*
X218626365Y-68563519D01*
X218653585Y-68578069D01*
X218638147Y-68579589D01*
X218597902Y-68591797D01*
X218560812Y-68611622D01*
X218528302Y-68638302D01*
X218501622Y-68670812D01*
X218481797Y-68707902D01*
X218469589Y-68748147D01*
X218465467Y-68790000D01*
X218466500Y-68995125D01*
X218519875Y-69048500D01*
X218963500Y-69048500D01*
X218963500Y-69028500D01*
X219036500Y-69028500D01*
X219036500Y-69048500D01*
X219480125Y-69048500D01*
X219533500Y-68995125D01*
X219534533Y-68790000D01*
X219530411Y-68748147D01*
X219518203Y-68707902D01*
X219498378Y-68670812D01*
X219471698Y-68638302D01*
X219439188Y-68611622D01*
X219402098Y-68591797D01*
X219361853Y-68579589D01*
X219346415Y-68578069D01*
X219373635Y-68563519D01*
X219428496Y-68518496D01*
X219473519Y-68463635D01*
X219506975Y-68401044D01*
X219527577Y-68333129D01*
X219534533Y-68262500D01*
X219534533Y-68176411D01*
X219739752Y-67971193D01*
X219747083Y-67980125D01*
X219790328Y-68021909D01*
X219865812Y-68021909D01*
X220474719Y-67413002D01*
X220460577Y-67398860D01*
X220512196Y-67347241D01*
X220526338Y-67361383D01*
X220540480Y-67347241D01*
X220592099Y-67398860D01*
X220577957Y-67413002D01*
X220592099Y-67427144D01*
X220540480Y-67478763D01*
X220526338Y-67464621D01*
X219917431Y-68073528D01*
X219917431Y-68149012D01*
X219959215Y-68192257D01*
X219991724Y-68218937D01*
X220018731Y-68233373D01*
X220017097Y-68238762D01*
X220015676Y-68243445D01*
X220010105Y-68300000D01*
X220011501Y-68314171D01*
X220011500Y-69180500D01*
X217306022Y-71885979D01*
X217295014Y-71895013D01*
X217278942Y-71914597D01*
X217258961Y-71938943D01*
X217232172Y-71989063D01*
X217225086Y-72012423D01*
X217217042Y-72038943D01*
X217215676Y-72043445D01*
X217210105Y-72100000D01*
X217211501Y-72114172D01*
X217211500Y-74085838D01*
X217210105Y-74100000D01*
X217211500Y-74114162D01*
X217211500Y-74114163D01*
X217215675Y-74156555D01*
X217226866Y-74193445D01*
X217232172Y-74210937D01*
X217258961Y-74261057D01*
X217264249Y-74267500D01*
X217295013Y-74304987D01*
X217306026Y-74314025D01*
X217435975Y-74443974D01*
X217445013Y-74454987D01*
X217488943Y-74491039D01*
X217539062Y-74517828D01*
X217593444Y-74534325D01*
X217635836Y-74538500D01*
X217635837Y-74538500D01*
X217649999Y-74539895D01*
X217664161Y-74538500D01*
X217695549Y-74538500D01*
X217689589Y-74558147D01*
X217685467Y-74600000D01*
X217686500Y-74660125D01*
X217739875Y-74713500D01*
X218663500Y-74713500D01*
X218663500Y-74693500D01*
X218736500Y-74693500D01*
X218736500Y-74713500D01*
X219660125Y-74713500D01*
X219713500Y-74660125D01*
X219714533Y-74600000D01*
X219710411Y-74558147D01*
X219704451Y-74538500D01*
X219965467Y-74538500D01*
X219965467Y-74562500D01*
X219972423Y-74633129D01*
X219993025Y-74701044D01*
X220026481Y-74763635D01*
X220071504Y-74818496D01*
X220126365Y-74863519D01*
X220153585Y-74878069D01*
X220138147Y-74879589D01*
X220097902Y-74891797D01*
X220060812Y-74911622D01*
X220028302Y-74938302D01*
X220001622Y-74970812D01*
X219981797Y-75007902D01*
X219969589Y-75048147D01*
X219965467Y-75090000D01*
X219966500Y-75295125D01*
X220019875Y-75348500D01*
X220463500Y-75348500D01*
X220463500Y-75328500D01*
X220536500Y-75328500D01*
X220536500Y-75348500D01*
X220556500Y-75348500D01*
X220556500Y-75421500D01*
X220536500Y-75421500D01*
X220536500Y-75441500D01*
X220463500Y-75441500D01*
X220463500Y-75421500D01*
X220019875Y-75421500D01*
X219966500Y-75474875D01*
X219966307Y-75513269D01*
X219961057Y-75508961D01*
X219910938Y-75482172D01*
X219856556Y-75465675D01*
X219814164Y-75461500D01*
X219814162Y-75461500D01*
X219800000Y-75460105D01*
X219785838Y-75461500D01*
X219704451Y-75461500D01*
X219710411Y-75441853D01*
X219714533Y-75400000D01*
X219713500Y-75339875D01*
X219660125Y-75286500D01*
X218736500Y-75286500D01*
X218736500Y-75306500D01*
X218663500Y-75306500D01*
X218663500Y-75286500D01*
X217739875Y-75286500D01*
X217686500Y-75339875D01*
X217685467Y-75400000D01*
X217689589Y-75441853D01*
X217701797Y-75482098D01*
X217711366Y-75500000D01*
X217701797Y-75517902D01*
X217689589Y-75558147D01*
X217685467Y-75600000D01*
X217685467Y-75900000D01*
X217689589Y-75941853D01*
X217701797Y-75982098D01*
X217711366Y-76000000D01*
X217701797Y-76017902D01*
X217689589Y-76058147D01*
X217685467Y-76100000D01*
X217685467Y-76400000D01*
X217689589Y-76441853D01*
X217701797Y-76482098D01*
X217711366Y-76500000D01*
X217701797Y-76517902D01*
X217689589Y-76558147D01*
X217685467Y-76600000D01*
X217685467Y-76900000D01*
X217689589Y-76941853D01*
X217701797Y-76982098D01*
X217711366Y-77000000D01*
X217701797Y-77017902D01*
X217689589Y-77058147D01*
X217685467Y-77100000D01*
X217686500Y-77160125D01*
X217739875Y-77213500D01*
X218663500Y-77213500D01*
X218663500Y-77193500D01*
X218736500Y-77193500D01*
X218736500Y-77213500D01*
X219660125Y-77213500D01*
X219713500Y-77160125D01*
X219714533Y-77100000D01*
X219710411Y-77058147D01*
X219704451Y-77038500D01*
X222335838Y-77038500D01*
X222350000Y-77039895D01*
X222364162Y-77038500D01*
X222364164Y-77038500D01*
X222406556Y-77034325D01*
X222460938Y-77017828D01*
X222511057Y-76991039D01*
X222554987Y-76954987D01*
X222564024Y-76943975D01*
X222793985Y-76714016D01*
X222804987Y-76704987D01*
X222841039Y-76661057D01*
X222867828Y-76610938D01*
X222884325Y-76556556D01*
X222888500Y-76514164D01*
X222888500Y-76514163D01*
X222889895Y-76500001D01*
X222888500Y-76485839D01*
X222888500Y-76019499D01*
X222939321Y-75968678D01*
X222919393Y-76034374D01*
X222910467Y-76125000D01*
X222910467Y-76875000D01*
X222919393Y-76965626D01*
X222945827Y-77052769D01*
X222988755Y-77133081D01*
X223046526Y-77203474D01*
X223116919Y-77261245D01*
X223197231Y-77304173D01*
X223284374Y-77330607D01*
X223375000Y-77339533D01*
X224625000Y-77339533D01*
X224715626Y-77330607D01*
X224802769Y-77304173D01*
X224883081Y-77261245D01*
X224953474Y-77203474D01*
X225011245Y-77133081D01*
X225054173Y-77052769D01*
X225080607Y-76965626D01*
X225089533Y-76875000D01*
X225089533Y-76788500D01*
X225380501Y-76788500D01*
X226011500Y-77419500D01*
X226011500Y-78520549D01*
X225991853Y-78514589D01*
X225950000Y-78510467D01*
X225602375Y-78511500D01*
X225549000Y-78564875D01*
X225549000Y-79163500D01*
X225569000Y-79163500D01*
X225569000Y-79236500D01*
X225549000Y-79236500D01*
X225549000Y-79835125D01*
X225602375Y-79888500D01*
X225950000Y-79889533D01*
X225991853Y-79885411D01*
X226011500Y-79879451D01*
X226011500Y-80428607D01*
X225771531Y-80428175D01*
X225232421Y-79889065D01*
X225422625Y-79888500D01*
X225476000Y-79835125D01*
X225476000Y-79236500D01*
X224914875Y-79236500D01*
X224861500Y-79289875D01*
X224860889Y-79517534D01*
X224617567Y-79274212D01*
X224607750Y-79262250D01*
X224560014Y-79223074D01*
X224505551Y-79193963D01*
X224446457Y-79176037D01*
X224400392Y-79171500D01*
X224385000Y-79169984D01*
X224369608Y-79171500D01*
X221092299Y-79171500D01*
X221073519Y-79136365D01*
X221028496Y-79081504D01*
X220973635Y-79036481D01*
X220946415Y-79021931D01*
X220961853Y-79020411D01*
X221002098Y-79008203D01*
X221039188Y-78988378D01*
X221071698Y-78961698D01*
X221098378Y-78929188D01*
X221118203Y-78892098D01*
X221130411Y-78851853D01*
X221134533Y-78810000D01*
X221134105Y-78725000D01*
X224860467Y-78725000D01*
X224861500Y-79110125D01*
X224914875Y-79163500D01*
X225476000Y-79163500D01*
X225476000Y-78564875D01*
X225422625Y-78511500D01*
X225075000Y-78510467D01*
X225033147Y-78514589D01*
X224992902Y-78526797D01*
X224955812Y-78546622D01*
X224923302Y-78573302D01*
X224896622Y-78605812D01*
X224876797Y-78642902D01*
X224864589Y-78683147D01*
X224860467Y-78725000D01*
X221134105Y-78725000D01*
X221133500Y-78604875D01*
X221080125Y-78551500D01*
X220636500Y-78551500D01*
X220636500Y-78571500D01*
X220563500Y-78571500D01*
X220563500Y-78551500D01*
X220543500Y-78551500D01*
X220543500Y-78478500D01*
X220563500Y-78478500D01*
X220563500Y-78059875D01*
X220636500Y-78059875D01*
X220636500Y-78478500D01*
X221080125Y-78478500D01*
X221133500Y-78425125D01*
X221134533Y-78220000D01*
X221130411Y-78178147D01*
X221118203Y-78137902D01*
X221098378Y-78100812D01*
X221071698Y-78068302D01*
X221039188Y-78041622D01*
X221002098Y-78021797D01*
X220961853Y-78009589D01*
X220920000Y-78005467D01*
X220689875Y-78006500D01*
X220636500Y-78059875D01*
X220563500Y-78059875D01*
X220510125Y-78006500D01*
X220280000Y-78005467D01*
X220238147Y-78009589D01*
X220197902Y-78021797D01*
X220160812Y-78041622D01*
X220128302Y-78068302D01*
X220101622Y-78100812D01*
X220081797Y-78137902D01*
X220069589Y-78178147D01*
X220065467Y-78220000D01*
X220066500Y-78425125D01*
X220119873Y-78478498D01*
X220067753Y-78478498D01*
X220053970Y-78467186D01*
X219995165Y-78435754D01*
X219931357Y-78416399D01*
X219881620Y-78411500D01*
X219881612Y-78411500D01*
X219865000Y-78409864D01*
X219848388Y-78411500D01*
X219713400Y-78411500D01*
X219714533Y-78400000D01*
X219713500Y-78339875D01*
X219660125Y-78286500D01*
X218736500Y-78286500D01*
X218736500Y-78306500D01*
X218663500Y-78306500D01*
X218663500Y-78286500D01*
X217739875Y-78286500D01*
X217686500Y-78339875D01*
X217685467Y-78400000D01*
X217686600Y-78411500D01*
X216563500Y-78411500D01*
X216563500Y-78063500D01*
X217689062Y-78063500D01*
X217685467Y-78100000D01*
X217686500Y-78160125D01*
X217739875Y-78213500D01*
X218663500Y-78213500D01*
X218663500Y-78193500D01*
X218736500Y-78193500D01*
X218736500Y-78213500D01*
X219660125Y-78213500D01*
X219713500Y-78160125D01*
X219714533Y-78100000D01*
X219710411Y-78058147D01*
X219698203Y-78017902D01*
X219688634Y-78000000D01*
X219698203Y-77982098D01*
X219710411Y-77941853D01*
X219714533Y-77900000D01*
X219714533Y-77600000D01*
X219710411Y-77558147D01*
X219698203Y-77517902D01*
X219688634Y-77500000D01*
X219698203Y-77482098D01*
X219710411Y-77441853D01*
X219714533Y-77400000D01*
X219713500Y-77339875D01*
X219660125Y-77286500D01*
X218736500Y-77286500D01*
X218736500Y-77306500D01*
X218663500Y-77306500D01*
X218663500Y-77286500D01*
X217739875Y-77286500D01*
X217686500Y-77339875D01*
X217685467Y-77400000D01*
X217689062Y-77436500D01*
X216563500Y-77436500D01*
X216563500Y-74900000D01*
X217685467Y-74900000D01*
X217689589Y-74941853D01*
X217701797Y-74982098D01*
X217711366Y-75000000D01*
X217701797Y-75017902D01*
X217689589Y-75058147D01*
X217685467Y-75100000D01*
X217686500Y-75160125D01*
X217739875Y-75213500D01*
X218663500Y-75213500D01*
X218663500Y-74786500D01*
X218736500Y-74786500D01*
X218736500Y-75213500D01*
X219660125Y-75213500D01*
X219713500Y-75160125D01*
X219714533Y-75100000D01*
X219710411Y-75058147D01*
X219698203Y-75017902D01*
X219688634Y-75000000D01*
X219698203Y-74982098D01*
X219710411Y-74941853D01*
X219714533Y-74900000D01*
X219713500Y-74839875D01*
X219660125Y-74786500D01*
X218736500Y-74786500D01*
X218663500Y-74786500D01*
X217739875Y-74786500D01*
X217686500Y-74839875D01*
X217685467Y-74900000D01*
X216563500Y-74900000D01*
X216563500Y-71714533D01*
X216600000Y-71714533D01*
X216641853Y-71710411D01*
X216682098Y-71698203D01*
X216719188Y-71678378D01*
X216751698Y-71651698D01*
X216778378Y-71619188D01*
X216798203Y-71582098D01*
X216810411Y-71541853D01*
X216814533Y-71500000D01*
X216814533Y-70700000D01*
X216810411Y-70658147D01*
X216798203Y-70617902D01*
X216778378Y-70580812D01*
X216751698Y-70548302D01*
X216719188Y-70521622D01*
X216682098Y-70501797D01*
X216641853Y-70489589D01*
X216600000Y-70485467D01*
X216563500Y-70485467D01*
X216563500Y-70414754D01*
X216573302Y-70426698D01*
X216605812Y-70453378D01*
X216642902Y-70473203D01*
X216683147Y-70485411D01*
X216725000Y-70489533D01*
X217260125Y-70488500D01*
X217313500Y-70435125D01*
X217313500Y-69436500D01*
X217386500Y-69436500D01*
X217386500Y-70435125D01*
X217439875Y-70488500D01*
X217975000Y-70489533D01*
X218016853Y-70485411D01*
X218057098Y-70473203D01*
X218094188Y-70453378D01*
X218126698Y-70426698D01*
X218153378Y-70394188D01*
X218173203Y-70357098D01*
X218185411Y-70316853D01*
X218189533Y-70275000D01*
X218188500Y-69489875D01*
X218135125Y-69436500D01*
X217386500Y-69436500D01*
X217313500Y-69436500D01*
X217293500Y-69436500D01*
X217293500Y-69380000D01*
X218465467Y-69380000D01*
X218469589Y-69421853D01*
X218481797Y-69462098D01*
X218501622Y-69499188D01*
X218528302Y-69531698D01*
X218560812Y-69558378D01*
X218597902Y-69578203D01*
X218638147Y-69590411D01*
X218680000Y-69594533D01*
X218910125Y-69593500D01*
X218963500Y-69540125D01*
X218963500Y-69121500D01*
X219036500Y-69121500D01*
X219036500Y-69540125D01*
X219089875Y-69593500D01*
X219320000Y-69594533D01*
X219361853Y-69590411D01*
X219402098Y-69578203D01*
X219439188Y-69558378D01*
X219471698Y-69531698D01*
X219498378Y-69499188D01*
X219518203Y-69462098D01*
X219530411Y-69421853D01*
X219534533Y-69380000D01*
X219533500Y-69174875D01*
X219480125Y-69121500D01*
X219036500Y-69121500D01*
X218963500Y-69121500D01*
X218519875Y-69121500D01*
X218466500Y-69174875D01*
X218465467Y-69380000D01*
X217293500Y-69380000D01*
X217293500Y-69363500D01*
X217313500Y-69363500D01*
X217313500Y-68364875D01*
X217386500Y-68364875D01*
X217386500Y-69363500D01*
X218135125Y-69363500D01*
X218188500Y-69310125D01*
X218189533Y-68525000D01*
X218185411Y-68483147D01*
X218173203Y-68442902D01*
X218153378Y-68405812D01*
X218126698Y-68373302D01*
X218094188Y-68346622D01*
X218057098Y-68326797D01*
X218016853Y-68314589D01*
X217975000Y-68310467D01*
X217439875Y-68311500D01*
X217386500Y-68364875D01*
X217313500Y-68364875D01*
X217260125Y-68311500D01*
X216725000Y-68310467D01*
X216683147Y-68314589D01*
X216642902Y-68326797D01*
X216605812Y-68346622D01*
X216573302Y-68373302D01*
X216563500Y-68385246D01*
X216563500Y-68034139D01*
X216567500Y-68034533D01*
X216862500Y-68034533D01*
X216933129Y-68027577D01*
X217001044Y-68006975D01*
X217063635Y-67973519D01*
X217118496Y-67928496D01*
X217163519Y-67873635D01*
X217196975Y-67811044D01*
X217200000Y-67801072D01*
X217203025Y-67811044D01*
X217236481Y-67873635D01*
X217281504Y-67928496D01*
X217336365Y-67973519D01*
X217398956Y-68006975D01*
X217466871Y-68027577D01*
X217537500Y-68034533D01*
X217832500Y-68034533D01*
X217903129Y-68027577D01*
X217971044Y-68006975D01*
X218033635Y-67973519D01*
X218088496Y-67928496D01*
X218133519Y-67873635D01*
X218166975Y-67811044D01*
X218187577Y-67743129D01*
X218194533Y-67672500D01*
X218194533Y-67463466D01*
X218369500Y-67288500D01*
X218785838Y-67288500D01*
X218800000Y-67289895D01*
X218814162Y-67288500D01*
X218814164Y-67288500D01*
X218856556Y-67284325D01*
X218910938Y-67267828D01*
X218961057Y-67241039D01*
X218997565Y-67211078D01*
X219013296Y-67240509D01*
X219039976Y-67273018D01*
X219083221Y-67314802D01*
X219158705Y-67314802D01*
X219767612Y-66705895D01*
X219753470Y-66691753D01*
X219805089Y-66640134D01*
X219819231Y-66654276D01*
X220428138Y-66045369D01*
X220428138Y-65969885D01*
X220386354Y-65926640D01*
X220353845Y-65899960D01*
X220316755Y-65880135D01*
X220276510Y-65867927D01*
X220267063Y-65866996D01*
X220254663Y-65826118D01*
X220227907Y-65776061D01*
X220191900Y-65732186D01*
X220085834Y-65626120D01*
X220063500Y-65607791D01*
X220063500Y-65393719D01*
X220111855Y-65379050D01*
X220161974Y-65352261D01*
X220205904Y-65316209D01*
X220214942Y-65305196D01*
X221793979Y-63726160D01*
X221804987Y-63717126D01*
X221841039Y-63673196D01*
X221867828Y-63623077D01*
X221884325Y-63568695D01*
X221888500Y-63526303D01*
X221888500Y-63526301D01*
X221889895Y-63512139D01*
X221888500Y-63497977D01*
X221888500Y-62967716D01*
X221889895Y-62953554D01*
X221887789Y-62932172D01*
X221884325Y-62896998D01*
X221867828Y-62842616D01*
X221841039Y-62792497D01*
X221804987Y-62748567D01*
X221793980Y-62739534D01*
X221731781Y-62677336D01*
X221759669Y-62668876D01*
X221809726Y-62642120D01*
X221853601Y-62606113D01*
X221959667Y-62500047D01*
X221995674Y-62456172D01*
X222022430Y-62406115D01*
X222038906Y-62351801D01*
X222040699Y-62333592D01*
X222058908Y-62331799D01*
X222113222Y-62315323D01*
X222163279Y-62288567D01*
X222207154Y-62252560D01*
X222313220Y-62146494D01*
X222349227Y-62102619D01*
X222375983Y-62052562D01*
X222388383Y-62011684D01*
X222397830Y-62010753D01*
X222438075Y-61998545D01*
X222475165Y-61978720D01*
X222507674Y-61952040D01*
X222549458Y-61908795D01*
X222549458Y-61833311D01*
X221940551Y-61224404D01*
X221926409Y-61238546D01*
X221874790Y-61186927D01*
X221888932Y-61172785D01*
X221992170Y-61172785D01*
X222601077Y-61781692D01*
X222676561Y-61781692D01*
X222719806Y-61739908D01*
X222746486Y-61707399D01*
X222766311Y-61670309D01*
X222772204Y-61650884D01*
X222791629Y-61644991D01*
X222828719Y-61625166D01*
X222861228Y-61598486D01*
X222903012Y-61555241D01*
X222903012Y-61479757D01*
X222294105Y-60870850D01*
X221992170Y-61172785D01*
X221888932Y-61172785D01*
X221280025Y-60563878D01*
X221204541Y-60563878D01*
X221161296Y-60605662D01*
X221134616Y-60638171D01*
X221124938Y-60656278D01*
X220962571Y-60493911D01*
X221019707Y-60436775D01*
X221331644Y-60436775D01*
X221331644Y-60512259D01*
X221940551Y-61121166D01*
X222242486Y-60819231D01*
X222345724Y-60819231D01*
X222954631Y-61428138D01*
X223030115Y-61428138D01*
X223073360Y-61386354D01*
X223100040Y-61353845D01*
X223119865Y-61316755D01*
X223125757Y-61297330D01*
X223145182Y-61291438D01*
X223182272Y-61271613D01*
X223214781Y-61244933D01*
X223256565Y-61201688D01*
X223256565Y-61126204D01*
X222647658Y-60517297D01*
X222345724Y-60819231D01*
X222242486Y-60819231D01*
X221633579Y-60210324D01*
X221558095Y-60210324D01*
X221514850Y-60252108D01*
X221488170Y-60284617D01*
X221468345Y-60321707D01*
X221462452Y-60341132D01*
X221443027Y-60347025D01*
X221405937Y-60366850D01*
X221373428Y-60393530D01*
X221331644Y-60436775D01*
X221019707Y-60436775D01*
X221025217Y-60431265D01*
X221070240Y-60376404D01*
X221103696Y-60313813D01*
X221124298Y-60245898D01*
X221131254Y-60175269D01*
X221124298Y-60104640D01*
X221117801Y-60083221D01*
X221685198Y-60083221D01*
X221685198Y-60158705D01*
X222294105Y-60767612D01*
X222596039Y-60465678D01*
X221987132Y-59856771D01*
X221911648Y-59856771D01*
X221868403Y-59898555D01*
X221841723Y-59931064D01*
X221821898Y-59968154D01*
X221816006Y-59987579D01*
X221796581Y-59993471D01*
X221759491Y-60013296D01*
X221726982Y-60039976D01*
X221685198Y-60083221D01*
X221117801Y-60083221D01*
X221103696Y-60036725D01*
X221070240Y-59974134D01*
X221025217Y-59919273D01*
X220816621Y-59710677D01*
X220761760Y-59665654D01*
X220699169Y-59632198D01*
X220631254Y-59611596D01*
X220560625Y-59604640D01*
X220489996Y-59611596D01*
X220422081Y-59632198D01*
X220412888Y-59637112D01*
X220417802Y-59627919D01*
X220438404Y-59560004D01*
X220445360Y-59489375D01*
X220438404Y-59418746D01*
X220417802Y-59350831D01*
X220384346Y-59288240D01*
X220339323Y-59233379D01*
X220130727Y-59024783D01*
X220075866Y-58979760D01*
X220063500Y-58973150D01*
X220063500Y-58774731D01*
X222207649Y-58774731D01*
X222211771Y-58816584D01*
X222223980Y-58856829D01*
X222243805Y-58893919D01*
X222270485Y-58926428D01*
X222416260Y-59070743D01*
X222491744Y-59070743D01*
X222805434Y-58757053D01*
X222509422Y-58461040D01*
X222433938Y-58461040D01*
X222270485Y-58623033D01*
X222243805Y-58655542D01*
X222223980Y-58692632D01*
X222211771Y-58732877D01*
X222207649Y-58774731D01*
X220063500Y-58774731D01*
X220063500Y-58500000D01*
X220062280Y-58487612D01*
X220058666Y-58475700D01*
X219892691Y-58075000D01*
X221160467Y-58075000D01*
X221164589Y-58116853D01*
X221176797Y-58157098D01*
X221196622Y-58194188D01*
X221223302Y-58226698D01*
X221255812Y-58253378D01*
X221292902Y-58273203D01*
X221333147Y-58285411D01*
X221375000Y-58289533D01*
X221910125Y-58288500D01*
X221963500Y-58235125D01*
X221963500Y-57236500D01*
X222036500Y-57236500D01*
X222036500Y-58235125D01*
X222089875Y-58288500D01*
X222605086Y-58289495D01*
X222561040Y-58333938D01*
X222561040Y-58409422D01*
X222857053Y-58705434D01*
X223170743Y-58391744D01*
X223170743Y-58316260D01*
X223026428Y-58170485D01*
X222993919Y-58143805D01*
X222956829Y-58123980D01*
X222916584Y-58111771D01*
X222874731Y-58107649D01*
X222835941Y-58111469D01*
X222839533Y-58075000D01*
X222838500Y-57289875D01*
X222785125Y-57236500D01*
X222036500Y-57236500D01*
X221963500Y-57236500D01*
X221214875Y-57236500D01*
X221161500Y-57289875D01*
X221160467Y-58075000D01*
X219892691Y-58075000D01*
X219881889Y-58048923D01*
X219876021Y-58037944D01*
X219868124Y-58028322D01*
X218164802Y-56325000D01*
X221160467Y-56325000D01*
X221161500Y-57110125D01*
X221214875Y-57163500D01*
X221963500Y-57163500D01*
X221963500Y-56164875D01*
X222036500Y-56164875D01*
X222036500Y-57163500D01*
X222785125Y-57163500D01*
X222838500Y-57110125D01*
X222839533Y-56325000D01*
X222835411Y-56283147D01*
X222823203Y-56242902D01*
X222803378Y-56205812D01*
X222776698Y-56173302D01*
X222744188Y-56146622D01*
X222707098Y-56126797D01*
X222666853Y-56114589D01*
X222625000Y-56110467D01*
X222089875Y-56111500D01*
X222036500Y-56164875D01*
X221963500Y-56164875D01*
X221910125Y-56111500D01*
X221375000Y-56110467D01*
X221333147Y-56114589D01*
X221292902Y-56126797D01*
X221255812Y-56146622D01*
X221223302Y-56173302D01*
X221196622Y-56205812D01*
X221176797Y-56242902D01*
X221164589Y-56283147D01*
X221160467Y-56325000D01*
X218164802Y-56325000D01*
X217714802Y-55875000D01*
X220660467Y-55875000D01*
X220664589Y-55916853D01*
X220676797Y-55957098D01*
X220696622Y-55994188D01*
X220723302Y-56026698D01*
X220755812Y-56053378D01*
X220792902Y-56073203D01*
X220833147Y-56085411D01*
X220875000Y-56089533D01*
X221410125Y-56088500D01*
X221463500Y-56035125D01*
X221463500Y-55036500D01*
X221536500Y-55036500D01*
X221536500Y-56035125D01*
X221589875Y-56088500D01*
X222125000Y-56089533D01*
X222166853Y-56085411D01*
X222207098Y-56073203D01*
X222244188Y-56053378D01*
X222276698Y-56026698D01*
X222303378Y-55994188D01*
X222323203Y-55957098D01*
X222335411Y-55916853D01*
X222339533Y-55875000D01*
X222338500Y-55089875D01*
X222285125Y-55036500D01*
X221536500Y-55036500D01*
X221463500Y-55036500D01*
X220714875Y-55036500D01*
X220661500Y-55089875D01*
X220660467Y-55875000D01*
X217714802Y-55875000D01*
X215964802Y-54125000D01*
X220660467Y-54125000D01*
X220661500Y-54910125D01*
X220714875Y-54963500D01*
X221463500Y-54963500D01*
X221463500Y-53964875D01*
X221536500Y-53964875D01*
X221536500Y-54963500D01*
X222285125Y-54963500D01*
X222338500Y-54910125D01*
X222339533Y-54125000D01*
X222335411Y-54083147D01*
X222323203Y-54042902D01*
X222303378Y-54005812D01*
X222276698Y-53973302D01*
X222244188Y-53946622D01*
X222207098Y-53926797D01*
X222166853Y-53914589D01*
X222125000Y-53910467D01*
X221589875Y-53911500D01*
X221536500Y-53964875D01*
X221463500Y-53964875D01*
X221410125Y-53911500D01*
X220875000Y-53910467D01*
X220833147Y-53914589D01*
X220792902Y-53926797D01*
X220755812Y-53946622D01*
X220723302Y-53973302D01*
X220696622Y-54005812D01*
X220676797Y-54042902D01*
X220664589Y-54083147D01*
X220660467Y-54125000D01*
X215964802Y-54125000D01*
X215721678Y-53881876D01*
X215712056Y-53873979D01*
X215701077Y-53868111D01*
X215388202Y-53738514D01*
X215389533Y-53725000D01*
X215388500Y-53189875D01*
X215335125Y-53136500D01*
X214336500Y-53136500D01*
X214336500Y-53156500D01*
X214263500Y-53156500D01*
X214263500Y-53136500D01*
X213264875Y-53136500D01*
X213211500Y-53189875D01*
X213210541Y-53686500D01*
X212389362Y-53686500D01*
X212388500Y-53239875D01*
X212335125Y-53186500D01*
X211336500Y-53186500D01*
X211336500Y-53206500D01*
X211263500Y-53206500D01*
X211263500Y-53186500D01*
X210264875Y-53186500D01*
X210211500Y-53239875D01*
X210210638Y-53686500D01*
X209776302Y-53686500D01*
X209563500Y-53473698D01*
X209563500Y-52525000D01*
X210210467Y-52525000D01*
X210211500Y-53060125D01*
X210264875Y-53113500D01*
X211263500Y-53113500D01*
X211263500Y-52364875D01*
X211336500Y-52364875D01*
X211336500Y-53113500D01*
X212335125Y-53113500D01*
X212388500Y-53060125D01*
X212389533Y-52525000D01*
X212385411Y-52483147D01*
X212382940Y-52475000D01*
X213210467Y-52475000D01*
X213211500Y-53010125D01*
X213264875Y-53063500D01*
X214263500Y-53063500D01*
X214263500Y-52314875D01*
X214336500Y-52314875D01*
X214336500Y-53063500D01*
X215335125Y-53063500D01*
X215388500Y-53010125D01*
X215389533Y-52475000D01*
X215385411Y-52433147D01*
X215373203Y-52392902D01*
X215353378Y-52355812D01*
X215326698Y-52323302D01*
X215294188Y-52296622D01*
X215257098Y-52276797D01*
X215216853Y-52264589D01*
X215175000Y-52260467D01*
X214389875Y-52261500D01*
X214336500Y-52314875D01*
X214263500Y-52314875D01*
X214210125Y-52261500D01*
X213425000Y-52260467D01*
X213383147Y-52264589D01*
X213342902Y-52276797D01*
X213305812Y-52296622D01*
X213273302Y-52323302D01*
X213246622Y-52355812D01*
X213226797Y-52392902D01*
X213214589Y-52433147D01*
X213210467Y-52475000D01*
X212382940Y-52475000D01*
X212373203Y-52442902D01*
X212353378Y-52405812D01*
X212326698Y-52373302D01*
X212294188Y-52346622D01*
X212257098Y-52326797D01*
X212216853Y-52314589D01*
X212175000Y-52310467D01*
X211389875Y-52311500D01*
X211336500Y-52364875D01*
X211263500Y-52364875D01*
X211210125Y-52311500D01*
X210425000Y-52310467D01*
X210383147Y-52314589D01*
X210342902Y-52326797D01*
X210305812Y-52346622D01*
X210273302Y-52373302D01*
X210246622Y-52405812D01*
X210226797Y-52442902D01*
X210214589Y-52483147D01*
X210210467Y-52525000D01*
X209563500Y-52525000D01*
X209563500Y-51526302D01*
X209776302Y-51313500D01*
X220734763Y-51313500D01*
X221104650Y-51501856D01*
G37*
%TD.AperFunction*%
D18*
X230336500Y-78376173D02*
X229889875Y-78376500D01*
X229836500Y-78429875D01*
X229836500Y-79153500D01*
X229856500Y-79153500D01*
X229856500Y-79226500D01*
X229836500Y-79226500D01*
X229836500Y-79950125D01*
X229889875Y-80003500D01*
X230336500Y-80003827D01*
X230336500Y-80161500D01*
X226964161Y-80161500D01*
X226949999Y-80160105D01*
X226935837Y-80161500D01*
X226935836Y-80161500D01*
X226893444Y-80165675D01*
X226839062Y-80182172D01*
X226815731Y-80194643D01*
X226788942Y-80208961D01*
X226774125Y-80221122D01*
X226745013Y-80245013D01*
X226735979Y-80256021D01*
X226588500Y-80403501D01*
X226588500Y-79879451D01*
X226608147Y-79885411D01*
X226650000Y-79889533D01*
X226997625Y-79888500D01*
X227051000Y-79835125D01*
X227051000Y-79236500D01*
X227124000Y-79236500D01*
X227124000Y-79835125D01*
X227177375Y-79888500D01*
X227525000Y-79889533D01*
X227566853Y-79885411D01*
X227607098Y-79873203D01*
X227644188Y-79853378D01*
X227676698Y-79826698D01*
X227703378Y-79794188D01*
X227705616Y-79790000D01*
X228085467Y-79790000D01*
X228089589Y-79831853D01*
X228101797Y-79872098D01*
X228121622Y-79909188D01*
X228148302Y-79941698D01*
X228180812Y-79968378D01*
X228217902Y-79988203D01*
X228258147Y-80000411D01*
X228300000Y-80004533D01*
X229710125Y-80003500D01*
X229763500Y-79950125D01*
X229763500Y-79226500D01*
X228139875Y-79226500D01*
X228086500Y-79279875D01*
X228085467Y-79790000D01*
X227705616Y-79790000D01*
X227723203Y-79757098D01*
X227735411Y-79716853D01*
X227739533Y-79675000D01*
X227738500Y-79289875D01*
X227685125Y-79236500D01*
X227124000Y-79236500D01*
X227051000Y-79236500D01*
X227031000Y-79236500D01*
X227031000Y-79163500D01*
X227051000Y-79163500D01*
X227051000Y-78564875D01*
X227124000Y-78564875D01*
X227124000Y-79163500D01*
X227685125Y-79163500D01*
X227738500Y-79110125D01*
X227739533Y-78725000D01*
X227735411Y-78683147D01*
X227723203Y-78642902D01*
X227703378Y-78605812D01*
X227690402Y-78590000D01*
X228085467Y-78590000D01*
X228086500Y-79100125D01*
X228139875Y-79153500D01*
X229763500Y-79153500D01*
X229763500Y-78429875D01*
X229710125Y-78376500D01*
X228300000Y-78375467D01*
X228258147Y-78379589D01*
X228217902Y-78391797D01*
X228180812Y-78411622D01*
X228148302Y-78438302D01*
X228121622Y-78470812D01*
X228101797Y-78507902D01*
X228089589Y-78548147D01*
X228085467Y-78590000D01*
X227690402Y-78590000D01*
X227676698Y-78573302D01*
X227644188Y-78546622D01*
X227607098Y-78526797D01*
X227566853Y-78514589D01*
X227525000Y-78510467D01*
X227177375Y-78511500D01*
X227124000Y-78564875D01*
X227051000Y-78564875D01*
X226997625Y-78511500D01*
X226650000Y-78510467D01*
X226608147Y-78514589D01*
X226588500Y-78520549D01*
X226588500Y-77314162D01*
X226589895Y-77300000D01*
X226588223Y-77283025D01*
X226584325Y-77243444D01*
X226567828Y-77189062D01*
X226541039Y-77138943D01*
X226504987Y-77095013D01*
X226493980Y-77085980D01*
X225714025Y-76306026D01*
X225704987Y-76295013D01*
X225661057Y-76258961D01*
X225610938Y-76232172D01*
X225556556Y-76215675D01*
X225514164Y-76211500D01*
X225514162Y-76211500D01*
X225500000Y-76210105D01*
X225485838Y-76211500D01*
X225089533Y-76211500D01*
X225089533Y-76125000D01*
X225080607Y-76034374D01*
X225060679Y-75968679D01*
X225135983Y-76043984D01*
X225145013Y-76054987D01*
X225188943Y-76091039D01*
X225239062Y-76117828D01*
X225293444Y-76134325D01*
X225335836Y-76138500D01*
X225335837Y-76138500D01*
X225349999Y-76139895D01*
X225364161Y-76138500D01*
X228035838Y-76138500D01*
X228050000Y-76139895D01*
X228064162Y-76138500D01*
X228064164Y-76138500D01*
X228106556Y-76134325D01*
X228160938Y-76117828D01*
X228211057Y-76091039D01*
X228254987Y-76054987D01*
X228264025Y-76043974D01*
X230336500Y-73971500D01*
X230336500Y-78376173D01*
%TA.AperFunction,Conductor*%
D19*
G36*
X230336500Y-78376173D02*
G01*
X229889875Y-78376500D01*
X229836500Y-78429875D01*
X229836500Y-79153500D01*
X229856500Y-79153500D01*
X229856500Y-79226500D01*
X229836500Y-79226500D01*
X229836500Y-79950125D01*
X229889875Y-80003500D01*
X230336500Y-80003827D01*
X230336500Y-80161500D01*
X226964161Y-80161500D01*
X226949999Y-80160105D01*
X226935837Y-80161500D01*
X226935836Y-80161500D01*
X226893444Y-80165675D01*
X226839062Y-80182172D01*
X226815731Y-80194643D01*
X226788942Y-80208961D01*
X226774125Y-80221122D01*
X226745013Y-80245013D01*
X226735979Y-80256021D01*
X226588500Y-80403501D01*
X226588500Y-79879451D01*
X226608147Y-79885411D01*
X226650000Y-79889533D01*
X226997625Y-79888500D01*
X227051000Y-79835125D01*
X227051000Y-79236500D01*
X227124000Y-79236500D01*
X227124000Y-79835125D01*
X227177375Y-79888500D01*
X227525000Y-79889533D01*
X227566853Y-79885411D01*
X227607098Y-79873203D01*
X227644188Y-79853378D01*
X227676698Y-79826698D01*
X227703378Y-79794188D01*
X227705616Y-79790000D01*
X228085467Y-79790000D01*
X228089589Y-79831853D01*
X228101797Y-79872098D01*
X228121622Y-79909188D01*
X228148302Y-79941698D01*
X228180812Y-79968378D01*
X228217902Y-79988203D01*
X228258147Y-80000411D01*
X228300000Y-80004533D01*
X229710125Y-80003500D01*
X229763500Y-79950125D01*
X229763500Y-79226500D01*
X228139875Y-79226500D01*
X228086500Y-79279875D01*
X228085467Y-79790000D01*
X227705616Y-79790000D01*
X227723203Y-79757098D01*
X227735411Y-79716853D01*
X227739533Y-79675000D01*
X227738500Y-79289875D01*
X227685125Y-79236500D01*
X227124000Y-79236500D01*
X227051000Y-79236500D01*
X227031000Y-79236500D01*
X227031000Y-79163500D01*
X227051000Y-79163500D01*
X227051000Y-78564875D01*
X227124000Y-78564875D01*
X227124000Y-79163500D01*
X227685125Y-79163500D01*
X227738500Y-79110125D01*
X227739533Y-78725000D01*
X227735411Y-78683147D01*
X227723203Y-78642902D01*
X227703378Y-78605812D01*
X227690402Y-78590000D01*
X228085467Y-78590000D01*
X228086500Y-79100125D01*
X228139875Y-79153500D01*
X229763500Y-79153500D01*
X229763500Y-78429875D01*
X229710125Y-78376500D01*
X228300000Y-78375467D01*
X228258147Y-78379589D01*
X228217902Y-78391797D01*
X228180812Y-78411622D01*
X228148302Y-78438302D01*
X228121622Y-78470812D01*
X228101797Y-78507902D01*
X228089589Y-78548147D01*
X228085467Y-78590000D01*
X227690402Y-78590000D01*
X227676698Y-78573302D01*
X227644188Y-78546622D01*
X227607098Y-78526797D01*
X227566853Y-78514589D01*
X227525000Y-78510467D01*
X227177375Y-78511500D01*
X227124000Y-78564875D01*
X227051000Y-78564875D01*
X226997625Y-78511500D01*
X226650000Y-78510467D01*
X226608147Y-78514589D01*
X226588500Y-78520549D01*
X226588500Y-77314162D01*
X226589895Y-77300000D01*
X226588223Y-77283025D01*
X226584325Y-77243444D01*
X226567828Y-77189062D01*
X226541039Y-77138943D01*
X226504987Y-77095013D01*
X226493980Y-77085980D01*
X225714025Y-76306026D01*
X225704987Y-76295013D01*
X225661057Y-76258961D01*
X225610938Y-76232172D01*
X225556556Y-76215675D01*
X225514164Y-76211500D01*
X225514162Y-76211500D01*
X225500000Y-76210105D01*
X225485838Y-76211500D01*
X225089533Y-76211500D01*
X225089533Y-76125000D01*
X225080607Y-76034374D01*
X225060679Y-75968679D01*
X225135983Y-76043984D01*
X225145013Y-76054987D01*
X225188943Y-76091039D01*
X225239062Y-76117828D01*
X225293444Y-76134325D01*
X225335836Y-76138500D01*
X225335837Y-76138500D01*
X225349999Y-76139895D01*
X225364161Y-76138500D01*
X228035838Y-76138500D01*
X228050000Y-76139895D01*
X228064162Y-76138500D01*
X228064164Y-76138500D01*
X228106556Y-76134325D01*
X228160938Y-76117828D01*
X228211057Y-76091039D01*
X228254987Y-76054987D01*
X228264025Y-76043974D01*
X230336500Y-73971500D01*
X230336500Y-78376173D01*
G37*
%TD.AperFunction*%
D18*
X227653232Y-72185828D02*
X227651836Y-72200000D01*
X227655007Y-72232186D01*
X227657407Y-72256556D01*
X227659633Y-72263893D01*
X227673903Y-72310937D01*
X227700692Y-72361057D01*
X227708229Y-72370240D01*
X227736745Y-72404987D01*
X227747752Y-72414020D01*
X228711500Y-73377770D01*
X228711501Y-73680499D01*
X227480501Y-74911500D01*
X225719500Y-74911500D01*
X225614025Y-74806026D01*
X225604987Y-74795013D01*
X225561057Y-74758961D01*
X225510938Y-74732172D01*
X225456556Y-74715675D01*
X225414164Y-74711500D01*
X225414162Y-74711500D01*
X225400000Y-74710105D01*
X225385838Y-74711500D01*
X222514161Y-74711500D01*
X222499999Y-74710105D01*
X222485837Y-74711500D01*
X222485836Y-74711500D01*
X222443444Y-74715675D01*
X222389062Y-74732172D01*
X222365731Y-74744643D01*
X222338942Y-74758961D01*
X222314541Y-74778987D01*
X222295013Y-74795013D01*
X222285984Y-74806016D01*
X221995501Y-75096500D01*
X221905662Y-75096500D01*
X221873519Y-75036365D01*
X221828496Y-74981504D01*
X221773635Y-74936481D01*
X221746415Y-74921931D01*
X221761853Y-74920411D01*
X221802098Y-74908203D01*
X221839188Y-74888378D01*
X221871698Y-74861698D01*
X221898378Y-74829188D01*
X221918203Y-74792098D01*
X221930411Y-74751853D01*
X221934533Y-74710000D01*
X221933500Y-74504875D01*
X221880125Y-74451500D01*
X221436500Y-74451500D01*
X221436500Y-74471500D01*
X221363500Y-74471500D01*
X221363500Y-74451500D01*
X221343500Y-74451500D01*
X221343500Y-74378500D01*
X221363500Y-74378500D01*
X221363500Y-73959875D01*
X221436500Y-73959875D01*
X221436500Y-74378500D01*
X221880125Y-74378500D01*
X221933500Y-74325125D01*
X221934533Y-74120000D01*
X221930411Y-74078147D01*
X221918203Y-74037902D01*
X221898378Y-74000812D01*
X221871698Y-73968302D01*
X221839188Y-73941622D01*
X221802098Y-73921797D01*
X221761853Y-73909589D01*
X221720000Y-73905467D01*
X221489875Y-73906500D01*
X221436500Y-73959875D01*
X221363500Y-73959875D01*
X221310125Y-73906500D01*
X221080000Y-73905467D01*
X221038147Y-73909589D01*
X220997902Y-73921797D01*
X220960812Y-73941622D01*
X220928302Y-73968302D01*
X220907194Y-73994022D01*
X220891745Y-73981343D01*
X220902098Y-73978203D01*
X220939188Y-73958378D01*
X220971698Y-73931698D01*
X220998378Y-73899188D01*
X221018203Y-73862098D01*
X221030411Y-73821853D01*
X221034533Y-73780000D01*
X221033500Y-73574875D01*
X220980125Y-73521500D01*
X220536500Y-73521500D01*
X220536500Y-73541500D01*
X220463500Y-73541500D01*
X220463500Y-73521500D01*
X220019875Y-73521500D01*
X219966500Y-73574875D01*
X219965467Y-73780000D01*
X219969589Y-73821853D01*
X219981797Y-73862098D01*
X220001622Y-73899188D01*
X220028302Y-73931698D01*
X220060812Y-73958378D01*
X220066653Y-73961500D01*
X219704451Y-73961500D01*
X219710411Y-73941853D01*
X219714533Y-73900000D01*
X219713500Y-73839875D01*
X219660125Y-73786500D01*
X218736500Y-73786500D01*
X218736500Y-73806500D01*
X218663500Y-73806500D01*
X218663500Y-73786500D01*
X218643500Y-73786500D01*
X218643500Y-73713500D01*
X218663500Y-73713500D01*
X218663500Y-73286500D01*
X218736500Y-73286500D01*
X218736500Y-73713500D01*
X219660125Y-73713500D01*
X219713500Y-73660125D01*
X219714533Y-73600000D01*
X219710411Y-73558147D01*
X219698203Y-73517902D01*
X219688634Y-73500000D01*
X219698203Y-73482098D01*
X219710411Y-73441853D01*
X219714533Y-73400000D01*
X219713500Y-73339875D01*
X219660125Y-73286500D01*
X218736500Y-73286500D01*
X218663500Y-73286500D01*
X218643500Y-73286500D01*
X218643500Y-73213500D01*
X218663500Y-73213500D01*
X218663500Y-73193500D01*
X218736500Y-73193500D01*
X218736500Y-73213500D01*
X219660125Y-73213500D01*
X219713500Y-73160125D01*
X219714533Y-73100000D01*
X219713400Y-73088500D01*
X219992168Y-73088500D01*
X219981797Y-73107902D01*
X219969589Y-73148147D01*
X219965467Y-73190000D01*
X219966500Y-73395125D01*
X220019875Y-73448500D01*
X220463500Y-73448500D01*
X220463500Y-73428500D01*
X220536500Y-73428500D01*
X220536500Y-73448500D01*
X220980125Y-73448500D01*
X221033500Y-73395125D01*
X221034533Y-73190000D01*
X221030411Y-73148147D01*
X221018203Y-73107902D01*
X220998378Y-73070812D01*
X220971698Y-73038302D01*
X220939188Y-73011622D01*
X220902098Y-72991797D01*
X220861853Y-72979589D01*
X220846415Y-72978069D01*
X220873635Y-72963519D01*
X220928496Y-72918496D01*
X220973519Y-72863635D01*
X220978936Y-72853500D01*
X221567535Y-72853500D01*
X221572423Y-72903129D01*
X221593025Y-72971044D01*
X221626481Y-73033635D01*
X221671504Y-73088496D01*
X221726365Y-73133519D01*
X221788956Y-73166975D01*
X221856871Y-73187577D01*
X221927500Y-73194533D01*
X222272500Y-73194533D01*
X222343129Y-73187577D01*
X222411044Y-73166975D01*
X222473635Y-73133519D01*
X222528496Y-73088496D01*
X222573519Y-73033635D01*
X222578936Y-73023500D01*
X222610888Y-73023500D01*
X222627500Y-73025136D01*
X222644112Y-73023500D01*
X222644120Y-73023500D01*
X222693857Y-73018601D01*
X222757665Y-72999246D01*
X222816470Y-72967814D01*
X222868013Y-72925513D01*
X222878613Y-72912597D01*
X223051678Y-72739533D01*
X223481250Y-72739533D01*
X223565779Y-72731208D01*
X223647060Y-72706551D01*
X223711501Y-72672107D01*
X223711501Y-72860467D01*
X223375000Y-72860467D01*
X223284374Y-72869393D01*
X223197231Y-72895827D01*
X223116919Y-72938755D01*
X223046526Y-72996526D01*
X222988755Y-73066919D01*
X222945827Y-73147231D01*
X222919393Y-73234374D01*
X222910467Y-73325000D01*
X222910467Y-74075000D01*
X222919393Y-74165626D01*
X222945827Y-74252769D01*
X222988755Y-74333081D01*
X223046526Y-74403474D01*
X223116919Y-74461245D01*
X223197231Y-74504173D01*
X223284374Y-74530607D01*
X223375000Y-74539533D01*
X224625000Y-74539533D01*
X224715626Y-74530607D01*
X224802769Y-74504173D01*
X224883081Y-74461245D01*
X224953474Y-74403474D01*
X225011245Y-74333081D01*
X225054173Y-74252769D01*
X225080607Y-74165626D01*
X225085009Y-74120926D01*
X226630693Y-74120926D01*
X226630693Y-74196409D01*
X227185130Y-74752307D01*
X227217639Y-74778987D01*
X227254729Y-74798812D01*
X227294974Y-74811020D01*
X227336828Y-74815143D01*
X227378681Y-74811020D01*
X227418926Y-74798812D01*
X227456016Y-74778987D01*
X227488525Y-74752307D01*
X227866186Y-74373186D01*
X227866186Y-74297702D01*
X227160051Y-73591568D01*
X226630693Y-74120926D01*
X225085009Y-74120926D01*
X225089533Y-74075000D01*
X225089533Y-73363172D01*
X225884857Y-73363172D01*
X225888980Y-73405026D01*
X225901188Y-73445271D01*
X225921013Y-73482361D01*
X225947693Y-73514870D01*
X226503591Y-74069307D01*
X226579074Y-74069307D01*
X227108432Y-73539949D01*
X227211670Y-73539949D01*
X227917804Y-74246084D01*
X227993288Y-74246084D01*
X228372409Y-73868423D01*
X228399089Y-73835914D01*
X228418914Y-73798824D01*
X228431122Y-73758579D01*
X228435245Y-73716726D01*
X228431122Y-73674872D01*
X228418914Y-73634627D01*
X228399089Y-73597537D01*
X228372409Y-73565028D01*
X227816511Y-73010591D01*
X227741028Y-73010591D01*
X227211670Y-73539949D01*
X227108432Y-73539949D01*
X226402298Y-72833814D01*
X226326814Y-72833814D01*
X225947693Y-73211475D01*
X225921013Y-73243984D01*
X225901188Y-73281074D01*
X225888980Y-73321319D01*
X225884857Y-73363172D01*
X225089533Y-73363172D01*
X225089533Y-73325000D01*
X225080607Y-73234374D01*
X225054173Y-73147231D01*
X225011245Y-73066919D01*
X224953474Y-72996526D01*
X224883081Y-72938755D01*
X224802769Y-72895827D01*
X224715626Y-72869393D01*
X224625000Y-72860467D01*
X224288500Y-72860467D01*
X224288500Y-72583538D01*
X224312373Y-72612627D01*
X224378031Y-72666512D01*
X224452940Y-72706551D01*
X224534221Y-72731208D01*
X224618750Y-72739533D01*
X225056250Y-72739533D01*
X225140779Y-72731208D01*
X225222060Y-72706551D01*
X225296969Y-72666512D01*
X225362627Y-72612627D01*
X225416512Y-72546969D01*
X225456551Y-72472060D01*
X225481208Y-72390779D01*
X225489533Y-72306250D01*
X225489533Y-71876677D01*
X225738177Y-71628034D01*
X225786187Y-71653696D01*
X225854102Y-71674298D01*
X225924731Y-71681254D01*
X225995360Y-71674298D01*
X226006357Y-71670962D01*
X226079038Y-71743643D01*
X226075702Y-71754640D01*
X226068746Y-71825269D01*
X226075702Y-71895898D01*
X226096304Y-71963813D01*
X226129760Y-72026404D01*
X226174783Y-72081265D01*
X226418735Y-72325217D01*
X226473596Y-72370240D01*
X226536187Y-72403696D01*
X226604102Y-72424298D01*
X226674731Y-72431254D01*
X226734142Y-72425403D01*
X226453916Y-72706712D01*
X226453916Y-72782196D01*
X227160051Y-73488330D01*
X227689409Y-72958972D01*
X227689409Y-72883489D01*
X227134972Y-72327591D01*
X227102463Y-72300911D01*
X227065373Y-72281086D01*
X227025128Y-72268878D01*
X226990479Y-72265465D01*
X227139323Y-72116621D01*
X227184346Y-72061760D01*
X227217802Y-71999169D01*
X227238404Y-71931254D01*
X227245360Y-71860625D01*
X227238404Y-71789996D01*
X227229444Y-71760459D01*
X227241436Y-71770301D01*
X227278526Y-71790126D01*
X227318771Y-71802335D01*
X227360625Y-71806457D01*
X227402478Y-71802335D01*
X227442723Y-71790126D01*
X227479813Y-71770301D01*
X227512322Y-71743621D01*
X227653231Y-71601286D01*
X227653232Y-72185828D01*
%TA.AperFunction,Conductor*%
D19*
G36*
X227653232Y-72185828D02*
G01*
X227651836Y-72200000D01*
X227655007Y-72232186D01*
X227657407Y-72256556D01*
X227659633Y-72263893D01*
X227673903Y-72310937D01*
X227700692Y-72361057D01*
X227708229Y-72370240D01*
X227736745Y-72404987D01*
X227747752Y-72414020D01*
X228711500Y-73377770D01*
X228711501Y-73680499D01*
X227480501Y-74911500D01*
X225719500Y-74911500D01*
X225614025Y-74806026D01*
X225604987Y-74795013D01*
X225561057Y-74758961D01*
X225510938Y-74732172D01*
X225456556Y-74715675D01*
X225414164Y-74711500D01*
X225414162Y-74711500D01*
X225400000Y-74710105D01*
X225385838Y-74711500D01*
X222514161Y-74711500D01*
X222499999Y-74710105D01*
X222485837Y-74711500D01*
X222485836Y-74711500D01*
X222443444Y-74715675D01*
X222389062Y-74732172D01*
X222365731Y-74744643D01*
X222338942Y-74758961D01*
X222314541Y-74778987D01*
X222295013Y-74795013D01*
X222285984Y-74806016D01*
X221995501Y-75096500D01*
X221905662Y-75096500D01*
X221873519Y-75036365D01*
X221828496Y-74981504D01*
X221773635Y-74936481D01*
X221746415Y-74921931D01*
X221761853Y-74920411D01*
X221802098Y-74908203D01*
X221839188Y-74888378D01*
X221871698Y-74861698D01*
X221898378Y-74829188D01*
X221918203Y-74792098D01*
X221930411Y-74751853D01*
X221934533Y-74710000D01*
X221933500Y-74504875D01*
X221880125Y-74451500D01*
X221436500Y-74451500D01*
X221436500Y-74471500D01*
X221363500Y-74471500D01*
X221363500Y-74451500D01*
X221343500Y-74451500D01*
X221343500Y-74378500D01*
X221363500Y-74378500D01*
X221363500Y-73959875D01*
X221436500Y-73959875D01*
X221436500Y-74378500D01*
X221880125Y-74378500D01*
X221933500Y-74325125D01*
X221934533Y-74120000D01*
X221930411Y-74078147D01*
X221918203Y-74037902D01*
X221898378Y-74000812D01*
X221871698Y-73968302D01*
X221839188Y-73941622D01*
X221802098Y-73921797D01*
X221761853Y-73909589D01*
X221720000Y-73905467D01*
X221489875Y-73906500D01*
X221436500Y-73959875D01*
X221363500Y-73959875D01*
X221310125Y-73906500D01*
X221080000Y-73905467D01*
X221038147Y-73909589D01*
X220997902Y-73921797D01*
X220960812Y-73941622D01*
X220928302Y-73968302D01*
X220907194Y-73994022D01*
X220891745Y-73981343D01*
X220902098Y-73978203D01*
X220939188Y-73958378D01*
X220971698Y-73931698D01*
X220998378Y-73899188D01*
X221018203Y-73862098D01*
X221030411Y-73821853D01*
X221034533Y-73780000D01*
X221033500Y-73574875D01*
X220980125Y-73521500D01*
X220536500Y-73521500D01*
X220536500Y-73541500D01*
X220463500Y-73541500D01*
X220463500Y-73521500D01*
X220019875Y-73521500D01*
X219966500Y-73574875D01*
X219965467Y-73780000D01*
X219969589Y-73821853D01*
X219981797Y-73862098D01*
X220001622Y-73899188D01*
X220028302Y-73931698D01*
X220060812Y-73958378D01*
X220066653Y-73961500D01*
X219704451Y-73961500D01*
X219710411Y-73941853D01*
X219714533Y-73900000D01*
X219713500Y-73839875D01*
X219660125Y-73786500D01*
X218736500Y-73786500D01*
X218736500Y-73806500D01*
X218663500Y-73806500D01*
X218663500Y-73786500D01*
X218643500Y-73786500D01*
X218643500Y-73713500D01*
X218663500Y-73713500D01*
X218663500Y-73286500D01*
X218736500Y-73286500D01*
X218736500Y-73713500D01*
X219660125Y-73713500D01*
X219713500Y-73660125D01*
X219714533Y-73600000D01*
X219710411Y-73558147D01*
X219698203Y-73517902D01*
X219688634Y-73500000D01*
X219698203Y-73482098D01*
X219710411Y-73441853D01*
X219714533Y-73400000D01*
X219713500Y-73339875D01*
X219660125Y-73286500D01*
X218736500Y-73286500D01*
X218663500Y-73286500D01*
X218643500Y-73286500D01*
X218643500Y-73213500D01*
X218663500Y-73213500D01*
X218663500Y-73193500D01*
X218736500Y-73193500D01*
X218736500Y-73213500D01*
X219660125Y-73213500D01*
X219713500Y-73160125D01*
X219714533Y-73100000D01*
X219713400Y-73088500D01*
X219992168Y-73088500D01*
X219981797Y-73107902D01*
X219969589Y-73148147D01*
X219965467Y-73190000D01*
X219966500Y-73395125D01*
X220019875Y-73448500D01*
X220463500Y-73448500D01*
X220463500Y-73428500D01*
X220536500Y-73428500D01*
X220536500Y-73448500D01*
X220980125Y-73448500D01*
X221033500Y-73395125D01*
X221034533Y-73190000D01*
X221030411Y-73148147D01*
X221018203Y-73107902D01*
X220998378Y-73070812D01*
X220971698Y-73038302D01*
X220939188Y-73011622D01*
X220902098Y-72991797D01*
X220861853Y-72979589D01*
X220846415Y-72978069D01*
X220873635Y-72963519D01*
X220928496Y-72918496D01*
X220973519Y-72863635D01*
X220978936Y-72853500D01*
X221567535Y-72853500D01*
X221572423Y-72903129D01*
X221593025Y-72971044D01*
X221626481Y-73033635D01*
X221671504Y-73088496D01*
X221726365Y-73133519D01*
X221788956Y-73166975D01*
X221856871Y-73187577D01*
X221927500Y-73194533D01*
X222272500Y-73194533D01*
X222343129Y-73187577D01*
X222411044Y-73166975D01*
X222473635Y-73133519D01*
X222528496Y-73088496D01*
X222573519Y-73033635D01*
X222578936Y-73023500D01*
X222610888Y-73023500D01*
X222627500Y-73025136D01*
X222644112Y-73023500D01*
X222644120Y-73023500D01*
X222693857Y-73018601D01*
X222757665Y-72999246D01*
X222816470Y-72967814D01*
X222868013Y-72925513D01*
X222878613Y-72912597D01*
X223051678Y-72739533D01*
X223481250Y-72739533D01*
X223565779Y-72731208D01*
X223647060Y-72706551D01*
X223711501Y-72672107D01*
X223711501Y-72860467D01*
X223375000Y-72860467D01*
X223284374Y-72869393D01*
X223197231Y-72895827D01*
X223116919Y-72938755D01*
X223046526Y-72996526D01*
X222988755Y-73066919D01*
X222945827Y-73147231D01*
X222919393Y-73234374D01*
X222910467Y-73325000D01*
X222910467Y-74075000D01*
X222919393Y-74165626D01*
X222945827Y-74252769D01*
X222988755Y-74333081D01*
X223046526Y-74403474D01*
X223116919Y-74461245D01*
X223197231Y-74504173D01*
X223284374Y-74530607D01*
X223375000Y-74539533D01*
X224625000Y-74539533D01*
X224715626Y-74530607D01*
X224802769Y-74504173D01*
X224883081Y-74461245D01*
X224953474Y-74403474D01*
X225011245Y-74333081D01*
X225054173Y-74252769D01*
X225080607Y-74165626D01*
X225085009Y-74120926D01*
X226630693Y-74120926D01*
X226630693Y-74196409D01*
X227185130Y-74752307D01*
X227217639Y-74778987D01*
X227254729Y-74798812D01*
X227294974Y-74811020D01*
X227336828Y-74815143D01*
X227378681Y-74811020D01*
X227418926Y-74798812D01*
X227456016Y-74778987D01*
X227488525Y-74752307D01*
X227866186Y-74373186D01*
X227866186Y-74297702D01*
X227160051Y-73591568D01*
X226630693Y-74120926D01*
X225085009Y-74120926D01*
X225089533Y-74075000D01*
X225089533Y-73363172D01*
X225884857Y-73363172D01*
X225888980Y-73405026D01*
X225901188Y-73445271D01*
X225921013Y-73482361D01*
X225947693Y-73514870D01*
X226503591Y-74069307D01*
X226579074Y-74069307D01*
X227108432Y-73539949D01*
X227211670Y-73539949D01*
X227917804Y-74246084D01*
X227993288Y-74246084D01*
X228372409Y-73868423D01*
X228399089Y-73835914D01*
X228418914Y-73798824D01*
X228431122Y-73758579D01*
X228435245Y-73716726D01*
X228431122Y-73674872D01*
X228418914Y-73634627D01*
X228399089Y-73597537D01*
X228372409Y-73565028D01*
X227816511Y-73010591D01*
X227741028Y-73010591D01*
X227211670Y-73539949D01*
X227108432Y-73539949D01*
X226402298Y-72833814D01*
X226326814Y-72833814D01*
X225947693Y-73211475D01*
X225921013Y-73243984D01*
X225901188Y-73281074D01*
X225888980Y-73321319D01*
X225884857Y-73363172D01*
X225089533Y-73363172D01*
X225089533Y-73325000D01*
X225080607Y-73234374D01*
X225054173Y-73147231D01*
X225011245Y-73066919D01*
X224953474Y-72996526D01*
X224883081Y-72938755D01*
X224802769Y-72895827D01*
X224715626Y-72869393D01*
X224625000Y-72860467D01*
X224288500Y-72860467D01*
X224288500Y-72583538D01*
X224312373Y-72612627D01*
X224378031Y-72666512D01*
X224452940Y-72706551D01*
X224534221Y-72731208D01*
X224618750Y-72739533D01*
X225056250Y-72739533D01*
X225140779Y-72731208D01*
X225222060Y-72706551D01*
X225296969Y-72666512D01*
X225362627Y-72612627D01*
X225416512Y-72546969D01*
X225456551Y-72472060D01*
X225481208Y-72390779D01*
X225489533Y-72306250D01*
X225489533Y-71876677D01*
X225738177Y-71628034D01*
X225786187Y-71653696D01*
X225854102Y-71674298D01*
X225924731Y-71681254D01*
X225995360Y-71674298D01*
X226006357Y-71670962D01*
X226079038Y-71743643D01*
X226075702Y-71754640D01*
X226068746Y-71825269D01*
X226075702Y-71895898D01*
X226096304Y-71963813D01*
X226129760Y-72026404D01*
X226174783Y-72081265D01*
X226418735Y-72325217D01*
X226473596Y-72370240D01*
X226536187Y-72403696D01*
X226604102Y-72424298D01*
X226674731Y-72431254D01*
X226734142Y-72425403D01*
X226453916Y-72706712D01*
X226453916Y-72782196D01*
X227160051Y-73488330D01*
X227689409Y-72958972D01*
X227689409Y-72883489D01*
X227134972Y-72327591D01*
X227102463Y-72300911D01*
X227065373Y-72281086D01*
X227025128Y-72268878D01*
X226990479Y-72265465D01*
X227139323Y-72116621D01*
X227184346Y-72061760D01*
X227217802Y-71999169D01*
X227238404Y-71931254D01*
X227245360Y-71860625D01*
X227238404Y-71789996D01*
X227229444Y-71760459D01*
X227241436Y-71770301D01*
X227278526Y-71790126D01*
X227318771Y-71802335D01*
X227360625Y-71806457D01*
X227402478Y-71802335D01*
X227442723Y-71790126D01*
X227479813Y-71770301D01*
X227512322Y-71743621D01*
X227653231Y-71601286D01*
X227653232Y-72185828D01*
G37*
%TD.AperFunction*%
D18*
X224743435Y-68814848D02*
X224743435Y-68873796D01*
X225352342Y-69482703D01*
X225366484Y-69468561D01*
X225418103Y-69520180D01*
X225403961Y-69534322D01*
X226012868Y-70143229D01*
X226088352Y-70143229D01*
X226131597Y-70101445D01*
X226158277Y-70068936D01*
X226178102Y-70031846D01*
X226190310Y-69991601D01*
X226191241Y-69982154D01*
X226232119Y-69969754D01*
X226238655Y-69966260D01*
X226279257Y-69966260D01*
X226279257Y-70041744D01*
X226592947Y-70355434D01*
X226888960Y-70059422D01*
X226888960Y-69983938D01*
X226726967Y-69820485D01*
X226694458Y-69793805D01*
X226657368Y-69773980D01*
X226617123Y-69761771D01*
X226575269Y-69757649D01*
X226533416Y-69761771D01*
X226493171Y-69773980D01*
X226456081Y-69793805D01*
X226423572Y-69820485D01*
X226279257Y-69966260D01*
X226238655Y-69966260D01*
X226282176Y-69942998D01*
X226326051Y-69906991D01*
X226432117Y-69800925D01*
X226468124Y-69757050D01*
X226494880Y-69706993D01*
X226507281Y-69666114D01*
X226516728Y-69665183D01*
X226556973Y-69652975D01*
X226594063Y-69633150D01*
X226626572Y-69606470D01*
X226668356Y-69563225D01*
X226668356Y-69487741D01*
X226059449Y-68878834D01*
X226045307Y-68892976D01*
X225993688Y-68841357D01*
X225998309Y-68836736D01*
X226122759Y-68838906D01*
X226719975Y-69436122D01*
X226795459Y-69436122D01*
X226838704Y-69394338D01*
X226865384Y-69361829D01*
X226875062Y-69343722D01*
X227961500Y-70430161D01*
X227961500Y-70580500D01*
X227747757Y-70794244D01*
X227736744Y-70803282D01*
X227713027Y-70832182D01*
X227700692Y-70847212D01*
X227693301Y-70861040D01*
X227690578Y-70861040D01*
X227394566Y-71157053D01*
X227408708Y-71171195D01*
X227357089Y-71222814D01*
X227342947Y-71208672D01*
X227328805Y-71222814D01*
X227277186Y-71171195D01*
X227291328Y-71157053D01*
X226977638Y-70843363D01*
X226906637Y-70843363D01*
X226906637Y-70772362D01*
X226592947Y-70458672D01*
X226578805Y-70472814D01*
X226527186Y-70421195D01*
X226541328Y-70407053D01*
X226644566Y-70407053D01*
X226958256Y-70720743D01*
X227029257Y-70720743D01*
X227029257Y-70791744D01*
X227342947Y-71105434D01*
X227638960Y-70809422D01*
X227638960Y-70733938D01*
X227476967Y-70570485D01*
X227444458Y-70543805D01*
X227407368Y-70523980D01*
X227367123Y-70511771D01*
X227325269Y-70507649D01*
X227283416Y-70511771D01*
X227243171Y-70523980D01*
X227206326Y-70543674D01*
X227226020Y-70506829D01*
X227238229Y-70466584D01*
X227242351Y-70424731D01*
X227238229Y-70382877D01*
X227226020Y-70342632D01*
X227206195Y-70305542D01*
X227179515Y-70273033D01*
X227016062Y-70111040D01*
X226940578Y-70111040D01*
X226644566Y-70407053D01*
X226541328Y-70407053D01*
X226227638Y-70093363D01*
X226152154Y-70093363D01*
X226006379Y-70237678D01*
X225979699Y-70270187D01*
X225959874Y-70307277D01*
X225947665Y-70347522D01*
X225946722Y-70357099D01*
X225910531Y-70320909D01*
X225919465Y-70313577D01*
X225961249Y-70270332D01*
X225961249Y-70194848D01*
X225352342Y-69585941D01*
X225338200Y-69600083D01*
X225286581Y-69548464D01*
X225300723Y-69534322D01*
X224691816Y-68925415D01*
X224616332Y-68925415D01*
X224573087Y-68967199D01*
X224546407Y-68999708D01*
X224526582Y-69036798D01*
X224514374Y-69077043D01*
X224513443Y-69086490D01*
X224472564Y-69098891D01*
X224422507Y-69125647D01*
X224378632Y-69161654D01*
X224288500Y-69251786D01*
X224288500Y-68806913D01*
X224743435Y-68814848D01*
%TA.AperFunction,Conductor*%
D19*
G36*
X224743435Y-68814848D02*
G01*
X224743435Y-68873796D01*
X225352342Y-69482703D01*
X225366484Y-69468561D01*
X225418103Y-69520180D01*
X225403961Y-69534322D01*
X226012868Y-70143229D01*
X226088352Y-70143229D01*
X226131597Y-70101445D01*
X226158277Y-70068936D01*
X226178102Y-70031846D01*
X226190310Y-69991601D01*
X226191241Y-69982154D01*
X226232119Y-69969754D01*
X226238655Y-69966260D01*
X226279257Y-69966260D01*
X226279257Y-70041744D01*
X226592947Y-70355434D01*
X226888960Y-70059422D01*
X226888960Y-69983938D01*
X226726967Y-69820485D01*
X226694458Y-69793805D01*
X226657368Y-69773980D01*
X226617123Y-69761771D01*
X226575269Y-69757649D01*
X226533416Y-69761771D01*
X226493171Y-69773980D01*
X226456081Y-69793805D01*
X226423572Y-69820485D01*
X226279257Y-69966260D01*
X226238655Y-69966260D01*
X226282176Y-69942998D01*
X226326051Y-69906991D01*
X226432117Y-69800925D01*
X226468124Y-69757050D01*
X226494880Y-69706993D01*
X226507281Y-69666114D01*
X226516728Y-69665183D01*
X226556973Y-69652975D01*
X226594063Y-69633150D01*
X226626572Y-69606470D01*
X226668356Y-69563225D01*
X226668356Y-69487741D01*
X226059449Y-68878834D01*
X226045307Y-68892976D01*
X225993688Y-68841357D01*
X225998309Y-68836736D01*
X226122759Y-68838906D01*
X226719975Y-69436122D01*
X226795459Y-69436122D01*
X226838704Y-69394338D01*
X226865384Y-69361829D01*
X226875062Y-69343722D01*
X227961500Y-70430161D01*
X227961500Y-70580500D01*
X227747757Y-70794244D01*
X227736744Y-70803282D01*
X227713027Y-70832182D01*
X227700692Y-70847212D01*
X227693301Y-70861040D01*
X227690578Y-70861040D01*
X227394566Y-71157053D01*
X227408708Y-71171195D01*
X227357089Y-71222814D01*
X227342947Y-71208672D01*
X227328805Y-71222814D01*
X227277186Y-71171195D01*
X227291328Y-71157053D01*
X226977638Y-70843363D01*
X226906637Y-70843363D01*
X226906637Y-70772362D01*
X226592947Y-70458672D01*
X226578805Y-70472814D01*
X226527186Y-70421195D01*
X226541328Y-70407053D01*
X226644566Y-70407053D01*
X226958256Y-70720743D01*
X227029257Y-70720743D01*
X227029257Y-70791744D01*
X227342947Y-71105434D01*
X227638960Y-70809422D01*
X227638960Y-70733938D01*
X227476967Y-70570485D01*
X227444458Y-70543805D01*
X227407368Y-70523980D01*
X227367123Y-70511771D01*
X227325269Y-70507649D01*
X227283416Y-70511771D01*
X227243171Y-70523980D01*
X227206326Y-70543674D01*
X227226020Y-70506829D01*
X227238229Y-70466584D01*
X227242351Y-70424731D01*
X227238229Y-70382877D01*
X227226020Y-70342632D01*
X227206195Y-70305542D01*
X227179515Y-70273033D01*
X227016062Y-70111040D01*
X226940578Y-70111040D01*
X226644566Y-70407053D01*
X226541328Y-70407053D01*
X226227638Y-70093363D01*
X226152154Y-70093363D01*
X226006379Y-70237678D01*
X225979699Y-70270187D01*
X225959874Y-70307277D01*
X225947665Y-70347522D01*
X225946722Y-70357099D01*
X225910531Y-70320909D01*
X225919465Y-70313577D01*
X225961249Y-70270332D01*
X225961249Y-70194848D01*
X225352342Y-69585941D01*
X225338200Y-69600083D01*
X225286581Y-69548464D01*
X225300723Y-69534322D01*
X224691816Y-68925415D01*
X224616332Y-68925415D01*
X224573087Y-68967199D01*
X224546407Y-68999708D01*
X224526582Y-69036798D01*
X224514374Y-69077043D01*
X224513443Y-69086490D01*
X224472564Y-69098891D01*
X224422507Y-69125647D01*
X224378632Y-69161654D01*
X224288500Y-69251786D01*
X224288500Y-68806913D01*
X224743435Y-68814848D01*
G37*
%TD.AperFunction*%
D18*
X229739591Y-68901990D02*
X229714594Y-68926987D01*
X229660709Y-68992645D01*
X229620670Y-69067554D01*
X229596013Y-69148835D01*
X229587688Y-69233364D01*
X229596013Y-69317893D01*
X229620670Y-69399174D01*
X229660709Y-69474083D01*
X229714594Y-69539741D01*
X230023953Y-69849100D01*
X230089611Y-69902985D01*
X230164520Y-69943024D01*
X230245801Y-69967681D01*
X230330330Y-69976006D01*
X230336500Y-69975398D01*
X230336500Y-70328500D01*
X229188500Y-69180501D01*
X229188500Y-68892378D01*
X229739591Y-68901990D01*
%TA.AperFunction,Conductor*%
D19*
G36*
X229739591Y-68901990D02*
G01*
X229714594Y-68926987D01*
X229660709Y-68992645D01*
X229620670Y-69067554D01*
X229596013Y-69148835D01*
X229587688Y-69233364D01*
X229596013Y-69317893D01*
X229620670Y-69399174D01*
X229660709Y-69474083D01*
X229714594Y-69539741D01*
X230023953Y-69849100D01*
X230089611Y-69902985D01*
X230164520Y-69943024D01*
X230245801Y-69967681D01*
X230330330Y-69976006D01*
X230336500Y-69975398D01*
X230336500Y-70328500D01*
X229188500Y-69180501D01*
X229188500Y-68892378D01*
X229739591Y-68901990D01*
G37*
%TD.AperFunction*%
%TD*%
D18*
%TO.N,GND*%
X226111168Y-61200970D02*
X226073591Y-61238546D01*
X226059449Y-61224404D01*
X225424025Y-61859828D01*
X225424025Y-61952989D01*
X225456800Y-61987566D01*
X225496923Y-62020494D01*
X225542699Y-62044962D01*
X225592369Y-62060029D01*
X225629989Y-62063735D01*
X225650773Y-62102619D01*
X225686780Y-62146494D01*
X225792846Y-62252560D01*
X225836721Y-62288567D01*
X225886778Y-62315323D01*
X225941092Y-62331799D01*
X225959301Y-62333592D01*
X225961094Y-62351801D01*
X225977570Y-62406115D01*
X226004326Y-62456172D01*
X226010108Y-62463217D01*
X226010109Y-66930882D01*
X226008713Y-66945054D01*
X226014284Y-67001609D01*
X226030780Y-67055991D01*
X226057569Y-67106111D01*
X226071518Y-67123107D01*
X226093622Y-67150041D01*
X226104629Y-67159074D01*
X226268219Y-67322664D01*
X226240331Y-67331124D01*
X226190274Y-67357880D01*
X226146399Y-67393887D01*
X226040333Y-67499953D01*
X226004326Y-67543828D01*
X225977570Y-67593885D01*
X225961094Y-67648199D01*
X225959301Y-67666408D01*
X225941092Y-67668201D01*
X225886778Y-67684677D01*
X225836721Y-67711433D01*
X225792846Y-67747440D01*
X225686780Y-67853506D01*
X225650773Y-67897381D01*
X225629989Y-67936265D01*
X225592369Y-67939971D01*
X225542699Y-67955038D01*
X225496923Y-67979506D01*
X225456800Y-68012434D01*
X225424025Y-68047011D01*
X225424025Y-68140172D01*
X226059449Y-68775596D01*
X226073591Y-68761454D01*
X226125210Y-68813073D01*
X226111068Y-68827215D01*
X226125210Y-68841357D01*
X226073591Y-68892976D01*
X226059449Y-68878834D01*
X226045307Y-68892976D01*
X225993688Y-68841357D01*
X226007830Y-68827215D01*
X225372406Y-68191791D01*
X225279245Y-68191791D01*
X225244668Y-68224566D01*
X225211740Y-68264689D01*
X225187272Y-68310465D01*
X225172205Y-68360135D01*
X225168499Y-68397755D01*
X225129614Y-68418540D01*
X225085739Y-68454547D01*
X224979673Y-68560613D01*
X224943666Y-68604488D01*
X224922882Y-68643372D01*
X224885262Y-68647078D01*
X224835592Y-68662145D01*
X224789816Y-68686613D01*
X224749693Y-68719541D01*
X224716918Y-68754118D01*
X224716918Y-68847279D01*
X225306139Y-69436500D01*
X225202901Y-69436500D01*
X224665299Y-68898898D01*
X224572138Y-68898898D01*
X224537561Y-68931673D01*
X224504633Y-68971796D01*
X224480165Y-69017572D01*
X224465098Y-69067242D01*
X224463500Y-69083463D01*
X224463500Y-67862630D01*
X224630609Y-67459193D01*
X225068124Y-67021678D01*
X225076021Y-67012056D01*
X225081889Y-67001077D01*
X225258666Y-66574300D01*
X225262280Y-66562388D01*
X225263500Y-66550000D01*
X225263500Y-61793285D01*
X225279245Y-61808209D01*
X225372406Y-61808209D01*
X226007830Y-61172785D01*
X225993688Y-61158643D01*
X226031265Y-61121067D01*
X226111168Y-61200970D01*
%TA.AperFunction,Conductor*%
D19*
G36*
X226111168Y-61200970D02*
G01*
X226073591Y-61238546D01*
X226059449Y-61224404D01*
X225424025Y-61859828D01*
X225424025Y-61952989D01*
X225456800Y-61987566D01*
X225496923Y-62020494D01*
X225542699Y-62044962D01*
X225592369Y-62060029D01*
X225629989Y-62063735D01*
X225650773Y-62102619D01*
X225686780Y-62146494D01*
X225792846Y-62252560D01*
X225836721Y-62288567D01*
X225886778Y-62315323D01*
X225941092Y-62331799D01*
X225959301Y-62333592D01*
X225961094Y-62351801D01*
X225977570Y-62406115D01*
X226004326Y-62456172D01*
X226010108Y-62463217D01*
X226010109Y-66930882D01*
X226008713Y-66945054D01*
X226014284Y-67001609D01*
X226030780Y-67055991D01*
X226057569Y-67106111D01*
X226071518Y-67123107D01*
X226093622Y-67150041D01*
X226104629Y-67159074D01*
X226268219Y-67322664D01*
X226240331Y-67331124D01*
X226190274Y-67357880D01*
X226146399Y-67393887D01*
X226040333Y-67499953D01*
X226004326Y-67543828D01*
X225977570Y-67593885D01*
X225961094Y-67648199D01*
X225959301Y-67666408D01*
X225941092Y-67668201D01*
X225886778Y-67684677D01*
X225836721Y-67711433D01*
X225792846Y-67747440D01*
X225686780Y-67853506D01*
X225650773Y-67897381D01*
X225629989Y-67936265D01*
X225592369Y-67939971D01*
X225542699Y-67955038D01*
X225496923Y-67979506D01*
X225456800Y-68012434D01*
X225424025Y-68047011D01*
X225424025Y-68140172D01*
X226059449Y-68775596D01*
X226073591Y-68761454D01*
X226125210Y-68813073D01*
X226111068Y-68827215D01*
X226125210Y-68841357D01*
X226073591Y-68892976D01*
X226059449Y-68878834D01*
X226045307Y-68892976D01*
X225993688Y-68841357D01*
X226007830Y-68827215D01*
X225372406Y-68191791D01*
X225279245Y-68191791D01*
X225244668Y-68224566D01*
X225211740Y-68264689D01*
X225187272Y-68310465D01*
X225172205Y-68360135D01*
X225168499Y-68397755D01*
X225129614Y-68418540D01*
X225085739Y-68454547D01*
X224979673Y-68560613D01*
X224943666Y-68604488D01*
X224922882Y-68643372D01*
X224885262Y-68647078D01*
X224835592Y-68662145D01*
X224789816Y-68686613D01*
X224749693Y-68719541D01*
X224716918Y-68754118D01*
X224716918Y-68847279D01*
X225306139Y-69436500D01*
X225202901Y-69436500D01*
X224665299Y-68898898D01*
X224572138Y-68898898D01*
X224537561Y-68931673D01*
X224504633Y-68971796D01*
X224480165Y-69017572D01*
X224465098Y-69067242D01*
X224463500Y-69083463D01*
X224463500Y-67862630D01*
X224630609Y-67459193D01*
X225068124Y-67021678D01*
X225076021Y-67012056D01*
X225081889Y-67001077D01*
X225258666Y-66574300D01*
X225262280Y-66562388D01*
X225263500Y-66550000D01*
X225263500Y-61793285D01*
X225279245Y-61808209D01*
X225372406Y-61808209D01*
X226007830Y-61172785D01*
X225993688Y-61158643D01*
X226031265Y-61121067D01*
X226111168Y-61200970D01*
G37*
%TD.AperFunction*%
D18*
X229361596Y-62539996D02*
X229354640Y-62610625D01*
X229361596Y-62681254D01*
X229382198Y-62749169D01*
X229415654Y-62811760D01*
X229460677Y-62866621D01*
X229669273Y-63075217D01*
X229724134Y-63120240D01*
X229786725Y-63153696D01*
X229854640Y-63174298D01*
X229925269Y-63181254D01*
X229995898Y-63174298D01*
X230063813Y-63153696D01*
X230084591Y-63142590D01*
X231861522Y-64919523D01*
X231861522Y-67298676D01*
X231723698Y-67436500D01*
X230959500Y-67436500D01*
X230534533Y-67011534D01*
X230534533Y-66737500D01*
X230527577Y-66666871D01*
X230506975Y-66598956D01*
X230473519Y-66536365D01*
X230428496Y-66481504D01*
X230373635Y-66436481D01*
X230311044Y-66403025D01*
X230301072Y-66400000D01*
X230311044Y-66396975D01*
X230373635Y-66363519D01*
X230428496Y-66318496D01*
X230473519Y-66263635D01*
X230506975Y-66201044D01*
X230527577Y-66133129D01*
X230534533Y-66062500D01*
X230534533Y-65767500D01*
X230527577Y-65696871D01*
X230506975Y-65628956D01*
X230473519Y-65566365D01*
X230462314Y-65552711D01*
X230467101Y-65550152D01*
X230507224Y-65517224D01*
X230540152Y-65477101D01*
X230564620Y-65431325D01*
X230579687Y-65381655D01*
X230584775Y-65330000D01*
X230583500Y-65137375D01*
X230517625Y-65071500D01*
X230036500Y-65071500D01*
X230036500Y-65091500D01*
X229963500Y-65091500D01*
X229963500Y-65071500D01*
X229482375Y-65071500D01*
X229416500Y-65137375D01*
X229415225Y-65330000D01*
X229420313Y-65381655D01*
X229429366Y-65411500D01*
X229200825Y-65411500D01*
X229186663Y-65410105D01*
X229172501Y-65411500D01*
X229172500Y-65411500D01*
X229130108Y-65415675D01*
X229075726Y-65432172D01*
X229053625Y-65443985D01*
X229025606Y-65458961D01*
X229010789Y-65471122D01*
X228981677Y-65495013D01*
X228972643Y-65506021D01*
X228941640Y-65537024D01*
X228677182Y-65272566D01*
X228633307Y-65236559D01*
X228583250Y-65209803D01*
X228528936Y-65193327D01*
X228472451Y-65187764D01*
X228415966Y-65193327D01*
X228361652Y-65209803D01*
X228311595Y-65236559D01*
X228267720Y-65272566D01*
X228161654Y-65378632D01*
X228125647Y-65422507D01*
X228104862Y-65461392D01*
X228067242Y-65465098D01*
X228017572Y-65480165D01*
X227971796Y-65504633D01*
X227931673Y-65537561D01*
X227898898Y-65572138D01*
X227898898Y-65665299D01*
X228534322Y-66300723D01*
X228548464Y-66286581D01*
X228600083Y-66338200D01*
X228585941Y-66352342D01*
X229221365Y-66987766D01*
X229314526Y-66987766D01*
X229349103Y-66954991D01*
X229382031Y-66914868D01*
X229406499Y-66869092D01*
X229421566Y-66819422D01*
X229425272Y-66781802D01*
X229464157Y-66761017D01*
X229465467Y-66759942D01*
X229465467Y-67032500D01*
X229472423Y-67103129D01*
X229493025Y-67171044D01*
X229526481Y-67233635D01*
X229571504Y-67288496D01*
X229626365Y-67333519D01*
X229688956Y-67366975D01*
X229756871Y-67387577D01*
X229827500Y-67394533D01*
X230101534Y-67394533D01*
X230143501Y-67436500D01*
X229558501Y-67436500D01*
X229510389Y-67397015D01*
X229435480Y-67356976D01*
X229354199Y-67332319D01*
X229269670Y-67323994D01*
X229185141Y-67332319D01*
X229103860Y-67356976D01*
X229028951Y-67397015D01*
X228980839Y-67436500D01*
X228795584Y-67436500D01*
X228800925Y-67432117D01*
X228906991Y-67326051D01*
X228942998Y-67282176D01*
X228963782Y-67243292D01*
X229001402Y-67239586D01*
X229051072Y-67224519D01*
X229096848Y-67200051D01*
X229136971Y-67167123D01*
X229169746Y-67132546D01*
X229169746Y-67039385D01*
X228534322Y-66403961D01*
X228520180Y-66418103D01*
X228468561Y-66366484D01*
X228482703Y-66352342D01*
X227847279Y-65716918D01*
X227754118Y-65716918D01*
X227719541Y-65749693D01*
X227686613Y-65789816D01*
X227662145Y-65835592D01*
X227647078Y-65885262D01*
X227643372Y-65922882D01*
X227604488Y-65943666D01*
X227560613Y-65979673D01*
X227454547Y-66085739D01*
X227418540Y-66129614D01*
X227391784Y-66179671D01*
X227375308Y-66233985D01*
X227373515Y-66252195D01*
X227355305Y-66253988D01*
X227300991Y-66270464D01*
X227250934Y-66297220D01*
X227207059Y-66333227D01*
X227100993Y-66439293D01*
X227064986Y-66483168D01*
X227038230Y-66533225D01*
X227029771Y-66561111D01*
X226940661Y-66472002D01*
X226940661Y-64334701D01*
X227898898Y-64334701D01*
X227898898Y-64427862D01*
X227931673Y-64462439D01*
X227971796Y-64495367D01*
X228017572Y-64519835D01*
X228067242Y-64534902D01*
X228104862Y-64538608D01*
X228125647Y-64577493D01*
X228161654Y-64621368D01*
X228267720Y-64727434D01*
X228311595Y-64763441D01*
X228361652Y-64790197D01*
X228415966Y-64806673D01*
X228472451Y-64812236D01*
X228528936Y-64806673D01*
X228583250Y-64790197D01*
X228633307Y-64763441D01*
X228677182Y-64727434D01*
X229416116Y-63988500D01*
X229444789Y-63988500D01*
X229465467Y-64009178D01*
X229465467Y-64212500D01*
X229472423Y-64283129D01*
X229493025Y-64351044D01*
X229526481Y-64413635D01*
X229571504Y-64468496D01*
X229597357Y-64489713D01*
X229578675Y-64495380D01*
X229532899Y-64519848D01*
X229492776Y-64552776D01*
X229459848Y-64592899D01*
X229435380Y-64638675D01*
X229420313Y-64688345D01*
X229415225Y-64740000D01*
X229416500Y-64932625D01*
X229482375Y-64998500D01*
X229963500Y-64998500D01*
X229963500Y-64978500D01*
X230036500Y-64978500D01*
X230036500Y-64998500D01*
X230517625Y-64998500D01*
X230568707Y-64947418D01*
X230636500Y-65015211D01*
X230636500Y-65100575D01*
X230656233Y-65199783D01*
X230694942Y-65293234D01*
X230751138Y-65377337D01*
X230822663Y-65448862D01*
X230906766Y-65505058D01*
X231000217Y-65543767D01*
X231099425Y-65563500D01*
X231200575Y-65563500D01*
X231299783Y-65543767D01*
X231393234Y-65505058D01*
X231477337Y-65448862D01*
X231548862Y-65377337D01*
X231605058Y-65293234D01*
X231643767Y-65199783D01*
X231663500Y-65100575D01*
X231663500Y-64999425D01*
X231643767Y-64900217D01*
X231605058Y-64806766D01*
X231548862Y-64722663D01*
X231477337Y-64651138D01*
X231393234Y-64594942D01*
X231299783Y-64556233D01*
X231200575Y-64536500D01*
X231115211Y-64536500D01*
X230534533Y-63955823D01*
X230534533Y-63917500D01*
X230527577Y-63846871D01*
X230506975Y-63778956D01*
X230473519Y-63716365D01*
X230428496Y-63661504D01*
X230373635Y-63616481D01*
X230311044Y-63583025D01*
X230243129Y-63562423D01*
X230172500Y-63555467D01*
X229969178Y-63555467D01*
X229836113Y-63422403D01*
X229825513Y-63409487D01*
X229773970Y-63367186D01*
X229715165Y-63335754D01*
X229651357Y-63316399D01*
X229601620Y-63311500D01*
X229601612Y-63311500D01*
X229585000Y-63309864D01*
X229568388Y-63311500D01*
X229544542Y-63311500D01*
X229508032Y-63274990D01*
X229464157Y-63238983D01*
X229425272Y-63218198D01*
X229421566Y-63180578D01*
X229406499Y-63130908D01*
X229382031Y-63085132D01*
X229349103Y-63045009D01*
X229314526Y-63012234D01*
X229221365Y-63012234D01*
X228585941Y-63647658D01*
X228600083Y-63661800D01*
X228548464Y-63713419D01*
X228534322Y-63699277D01*
X227898898Y-64334701D01*
X226940661Y-64334701D01*
X226940661Y-63372361D01*
X226947438Y-63375983D01*
X227001752Y-63392459D01*
X227019961Y-63394252D01*
X227021754Y-63412461D01*
X227038230Y-63466775D01*
X227064986Y-63516832D01*
X227100993Y-63560707D01*
X227207059Y-63666773D01*
X227250934Y-63702780D01*
X227300991Y-63729536D01*
X227355305Y-63746012D01*
X227373515Y-63747805D01*
X227375308Y-63766015D01*
X227391784Y-63820329D01*
X227418540Y-63870386D01*
X227454547Y-63914261D01*
X227560613Y-64020327D01*
X227604488Y-64056334D01*
X227643372Y-64077118D01*
X227647078Y-64114738D01*
X227662145Y-64164408D01*
X227686613Y-64210184D01*
X227719541Y-64250307D01*
X227754118Y-64283082D01*
X227847279Y-64283082D01*
X228482703Y-63647658D01*
X228468561Y-63633516D01*
X228520180Y-63581897D01*
X228534322Y-63596039D01*
X229169746Y-62960615D01*
X229169746Y-62867454D01*
X229136971Y-62832877D01*
X229096848Y-62799949D01*
X229087775Y-62795099D01*
X229369746Y-62513129D01*
X229361596Y-62539996D01*
%TA.AperFunction,Conductor*%
D19*
G36*
X229361596Y-62539996D02*
G01*
X229354640Y-62610625D01*
X229361596Y-62681254D01*
X229382198Y-62749169D01*
X229415654Y-62811760D01*
X229460677Y-62866621D01*
X229669273Y-63075217D01*
X229724134Y-63120240D01*
X229786725Y-63153696D01*
X229854640Y-63174298D01*
X229925269Y-63181254D01*
X229995898Y-63174298D01*
X230063813Y-63153696D01*
X230084591Y-63142590D01*
X231861522Y-64919523D01*
X231861522Y-67298676D01*
X231723698Y-67436500D01*
X230959500Y-67436500D01*
X230534533Y-67011534D01*
X230534533Y-66737500D01*
X230527577Y-66666871D01*
X230506975Y-66598956D01*
X230473519Y-66536365D01*
X230428496Y-66481504D01*
X230373635Y-66436481D01*
X230311044Y-66403025D01*
X230301072Y-66400000D01*
X230311044Y-66396975D01*
X230373635Y-66363519D01*
X230428496Y-66318496D01*
X230473519Y-66263635D01*
X230506975Y-66201044D01*
X230527577Y-66133129D01*
X230534533Y-66062500D01*
X230534533Y-65767500D01*
X230527577Y-65696871D01*
X230506975Y-65628956D01*
X230473519Y-65566365D01*
X230462314Y-65552711D01*
X230467101Y-65550152D01*
X230507224Y-65517224D01*
X230540152Y-65477101D01*
X230564620Y-65431325D01*
X230579687Y-65381655D01*
X230584775Y-65330000D01*
X230583500Y-65137375D01*
X230517625Y-65071500D01*
X230036500Y-65071500D01*
X230036500Y-65091500D01*
X229963500Y-65091500D01*
X229963500Y-65071500D01*
X229482375Y-65071500D01*
X229416500Y-65137375D01*
X229415225Y-65330000D01*
X229420313Y-65381655D01*
X229429366Y-65411500D01*
X229200825Y-65411500D01*
X229186663Y-65410105D01*
X229172501Y-65411500D01*
X229172500Y-65411500D01*
X229130108Y-65415675D01*
X229075726Y-65432172D01*
X229053625Y-65443985D01*
X229025606Y-65458961D01*
X229010789Y-65471122D01*
X228981677Y-65495013D01*
X228972643Y-65506021D01*
X228941640Y-65537024D01*
X228677182Y-65272566D01*
X228633307Y-65236559D01*
X228583250Y-65209803D01*
X228528936Y-65193327D01*
X228472451Y-65187764D01*
X228415966Y-65193327D01*
X228361652Y-65209803D01*
X228311595Y-65236559D01*
X228267720Y-65272566D01*
X228161654Y-65378632D01*
X228125647Y-65422507D01*
X228104862Y-65461392D01*
X228067242Y-65465098D01*
X228017572Y-65480165D01*
X227971796Y-65504633D01*
X227931673Y-65537561D01*
X227898898Y-65572138D01*
X227898898Y-65665299D01*
X228534322Y-66300723D01*
X228548464Y-66286581D01*
X228600083Y-66338200D01*
X228585941Y-66352342D01*
X229221365Y-66987766D01*
X229314526Y-66987766D01*
X229349103Y-66954991D01*
X229382031Y-66914868D01*
X229406499Y-66869092D01*
X229421566Y-66819422D01*
X229425272Y-66781802D01*
X229464157Y-66761017D01*
X229465467Y-66759942D01*
X229465467Y-67032500D01*
X229472423Y-67103129D01*
X229493025Y-67171044D01*
X229526481Y-67233635D01*
X229571504Y-67288496D01*
X229626365Y-67333519D01*
X229688956Y-67366975D01*
X229756871Y-67387577D01*
X229827500Y-67394533D01*
X230101534Y-67394533D01*
X230143501Y-67436500D01*
X229558501Y-67436500D01*
X229510389Y-67397015D01*
X229435480Y-67356976D01*
X229354199Y-67332319D01*
X229269670Y-67323994D01*
X229185141Y-67332319D01*
X229103860Y-67356976D01*
X229028951Y-67397015D01*
X228980839Y-67436500D01*
X228795584Y-67436500D01*
X228800925Y-67432117D01*
X228906991Y-67326051D01*
X228942998Y-67282176D01*
X228963782Y-67243292D01*
X229001402Y-67239586D01*
X229051072Y-67224519D01*
X229096848Y-67200051D01*
X229136971Y-67167123D01*
X229169746Y-67132546D01*
X229169746Y-67039385D01*
X228534322Y-66403961D01*
X228520180Y-66418103D01*
X228468561Y-66366484D01*
X228482703Y-66352342D01*
X227847279Y-65716918D01*
X227754118Y-65716918D01*
X227719541Y-65749693D01*
X227686613Y-65789816D01*
X227662145Y-65835592D01*
X227647078Y-65885262D01*
X227643372Y-65922882D01*
X227604488Y-65943666D01*
X227560613Y-65979673D01*
X227454547Y-66085739D01*
X227418540Y-66129614D01*
X227391784Y-66179671D01*
X227375308Y-66233985D01*
X227373515Y-66252195D01*
X227355305Y-66253988D01*
X227300991Y-66270464D01*
X227250934Y-66297220D01*
X227207059Y-66333227D01*
X227100993Y-66439293D01*
X227064986Y-66483168D01*
X227038230Y-66533225D01*
X227029771Y-66561111D01*
X226940661Y-66472002D01*
X226940661Y-64334701D01*
X227898898Y-64334701D01*
X227898898Y-64427862D01*
X227931673Y-64462439D01*
X227971796Y-64495367D01*
X228017572Y-64519835D01*
X228067242Y-64534902D01*
X228104862Y-64538608D01*
X228125647Y-64577493D01*
X228161654Y-64621368D01*
X228267720Y-64727434D01*
X228311595Y-64763441D01*
X228361652Y-64790197D01*
X228415966Y-64806673D01*
X228472451Y-64812236D01*
X228528936Y-64806673D01*
X228583250Y-64790197D01*
X228633307Y-64763441D01*
X228677182Y-64727434D01*
X229416116Y-63988500D01*
X229444789Y-63988500D01*
X229465467Y-64009178D01*
X229465467Y-64212500D01*
X229472423Y-64283129D01*
X229493025Y-64351044D01*
X229526481Y-64413635D01*
X229571504Y-64468496D01*
X229597357Y-64489713D01*
X229578675Y-64495380D01*
X229532899Y-64519848D01*
X229492776Y-64552776D01*
X229459848Y-64592899D01*
X229435380Y-64638675D01*
X229420313Y-64688345D01*
X229415225Y-64740000D01*
X229416500Y-64932625D01*
X229482375Y-64998500D01*
X229963500Y-64998500D01*
X229963500Y-64978500D01*
X230036500Y-64978500D01*
X230036500Y-64998500D01*
X230517625Y-64998500D01*
X230568707Y-64947418D01*
X230636500Y-65015211D01*
X230636500Y-65100575D01*
X230656233Y-65199783D01*
X230694942Y-65293234D01*
X230751138Y-65377337D01*
X230822663Y-65448862D01*
X230906766Y-65505058D01*
X231000217Y-65543767D01*
X231099425Y-65563500D01*
X231200575Y-65563500D01*
X231299783Y-65543767D01*
X231393234Y-65505058D01*
X231477337Y-65448862D01*
X231548862Y-65377337D01*
X231605058Y-65293234D01*
X231643767Y-65199783D01*
X231663500Y-65100575D01*
X231663500Y-64999425D01*
X231643767Y-64900217D01*
X231605058Y-64806766D01*
X231548862Y-64722663D01*
X231477337Y-64651138D01*
X231393234Y-64594942D01*
X231299783Y-64556233D01*
X231200575Y-64536500D01*
X231115211Y-64536500D01*
X230534533Y-63955823D01*
X230534533Y-63917500D01*
X230527577Y-63846871D01*
X230506975Y-63778956D01*
X230473519Y-63716365D01*
X230428496Y-63661504D01*
X230373635Y-63616481D01*
X230311044Y-63583025D01*
X230243129Y-63562423D01*
X230172500Y-63555467D01*
X229969178Y-63555467D01*
X229836113Y-63422403D01*
X229825513Y-63409487D01*
X229773970Y-63367186D01*
X229715165Y-63335754D01*
X229651357Y-63316399D01*
X229601620Y-63311500D01*
X229601612Y-63311500D01*
X229585000Y-63309864D01*
X229568388Y-63311500D01*
X229544542Y-63311500D01*
X229508032Y-63274990D01*
X229464157Y-63238983D01*
X229425272Y-63218198D01*
X229421566Y-63180578D01*
X229406499Y-63130908D01*
X229382031Y-63085132D01*
X229349103Y-63045009D01*
X229314526Y-63012234D01*
X229221365Y-63012234D01*
X228585941Y-63647658D01*
X228600083Y-63661800D01*
X228548464Y-63713419D01*
X228534322Y-63699277D01*
X227898898Y-64334701D01*
X226940661Y-64334701D01*
X226940661Y-63372361D01*
X226947438Y-63375983D01*
X227001752Y-63392459D01*
X227019961Y-63394252D01*
X227021754Y-63412461D01*
X227038230Y-63466775D01*
X227064986Y-63516832D01*
X227100993Y-63560707D01*
X227207059Y-63666773D01*
X227250934Y-63702780D01*
X227300991Y-63729536D01*
X227355305Y-63746012D01*
X227373515Y-63747805D01*
X227375308Y-63766015D01*
X227391784Y-63820329D01*
X227418540Y-63870386D01*
X227454547Y-63914261D01*
X227560613Y-64020327D01*
X227604488Y-64056334D01*
X227643372Y-64077118D01*
X227647078Y-64114738D01*
X227662145Y-64164408D01*
X227686613Y-64210184D01*
X227719541Y-64250307D01*
X227754118Y-64283082D01*
X227847279Y-64283082D01*
X228482703Y-63647658D01*
X228468561Y-63633516D01*
X228520180Y-63581897D01*
X228534322Y-63596039D01*
X229169746Y-62960615D01*
X229169746Y-62867454D01*
X229136971Y-62832877D01*
X229096848Y-62799949D01*
X229087775Y-62795099D01*
X229369746Y-62513129D01*
X229361596Y-62539996D01*
G37*
%TD.AperFunction*%
%TD*%
M02*
