%TF.GenerationSoftware,KiCad,Pcbnew,5.1.9-73d0e3b20d~88~ubuntu18.04.1*%
%TF.CreationDate,2020-12-31T14:05:02+01:00*%
%TF.ProjectId,ss_frontpanel_outer_plate,73735f66-726f-46e7-9470-616e656c5f6f,rev?*%
%TF.SameCoordinates,Original*%
%TF.FileFunction,Copper,L1,Top*%
%TF.FilePolarity,Positive*%
%FSLAX46Y46*%
G04 Gerber Fmt 4.6, Leading zero omitted, Abs format (unit mm)*
G04 Created by KiCad (PCBNEW 5.1.9-73d0e3b20d~88~ubuntu18.04.1) date 2020-12-31 14:05:02*
%MOMM*%
%LPD*%
G01*
G04 APERTURE LIST*
%TA.AperFunction,SMDPad,CuDef*%
%ADD10C,0.100000*%
%TD*%
%TA.AperFunction,ViaPad*%
%ADD11C,0.600000*%
%TD*%
%TA.AperFunction,Conductor*%
%ADD12C,0.250000*%
%TD*%
%TA.AperFunction,Conductor*%
%ADD13C,0.150000*%
%TD*%
%TA.AperFunction,Conductor*%
%ADD14C,0.127000*%
%TD*%
%TA.AperFunction,Conductor*%
%ADD15C,0.100000*%
%TD*%
G04 APERTURE END LIST*
%TA.AperFunction,SMDPad,CuDef*%
D10*
%TO.P,LTS2,5*%
%TO.N,/Touch-sense controller/LTS2_5*%
G36*
X190800000Y-91750000D02*
G01*
X177800000Y-93200000D01*
X177800000Y-93900000D01*
X190800000Y-95350000D01*
X190800000Y-95650000D01*
X177800000Y-97100000D01*
X177800000Y-97800000D01*
X190800000Y-99250000D01*
X190800000Y-99400000D01*
X173800000Y-99400000D01*
X173800000Y-99050000D01*
X160800000Y-97600000D01*
X160800000Y-97300000D01*
X173800000Y-95850000D01*
X173800000Y-95150000D01*
X160800000Y-93700000D01*
X160800000Y-93400000D01*
X173800000Y-91950000D01*
X173800000Y-91600000D01*
X190800000Y-91600000D01*
X190800000Y-91750000D01*
G37*
%TD.AperFunction*%
%TA.AperFunction,SMDPad,CuDef*%
%TO.P,LTS2,1*%
%TO.N,/Touch-sense controller/LTS2_1*%
G36*
X195000000Y-99400000D02*
G01*
X191000000Y-99400000D01*
X191000000Y-99050000D01*
X178000000Y-97600000D01*
X178000000Y-97300000D01*
X191000000Y-95850000D01*
X191000000Y-95150000D01*
X178000000Y-93700000D01*
X178000000Y-93400000D01*
X191000000Y-91950000D01*
X191000000Y-91600000D01*
X195000000Y-91600000D01*
X195000000Y-99400000D01*
G37*
%TD.AperFunction*%
%TA.AperFunction,SMDPad,CuDef*%
%TO.P,LTS2,4*%
%TO.N,/Touch-sense controller/LTS2_4*%
G36*
X173600000Y-91750000D02*
G01*
X160600000Y-93200000D01*
X160600000Y-93900000D01*
X173600000Y-95350000D01*
X173600000Y-95650000D01*
X160600000Y-97100000D01*
X160600000Y-97800000D01*
X173600000Y-99250000D01*
X173600000Y-99400000D01*
X156600000Y-99400000D01*
X156600000Y-99050000D01*
X143600000Y-97600000D01*
X143600000Y-97300000D01*
X156600000Y-95850000D01*
X156600000Y-95150000D01*
X143600000Y-93700000D01*
X143600000Y-93400000D01*
X156600000Y-91950000D01*
X156600000Y-91600000D01*
X173600000Y-91600000D01*
X173600000Y-91750000D01*
G37*
%TD.AperFunction*%
%TA.AperFunction,SMDPad,CuDef*%
%TO.P,LTS2,3*%
%TO.N,/Touch-sense controller/LTS2_3*%
G36*
X156400000Y-91750000D02*
G01*
X143400000Y-93200000D01*
X143400000Y-93900000D01*
X156400000Y-95350000D01*
X156400000Y-95650000D01*
X143400000Y-97100000D01*
X143400000Y-97800000D01*
X156400000Y-99250000D01*
X156400000Y-99400000D01*
X139400000Y-99400000D01*
X139400000Y-99050000D01*
X126400000Y-97600000D01*
X126400000Y-97300000D01*
X139400000Y-95850000D01*
X139400000Y-95150000D01*
X126400000Y-93700000D01*
X126400000Y-93400000D01*
X139400000Y-91950000D01*
X139400000Y-91600000D01*
X156400000Y-91600000D01*
X156400000Y-91750000D01*
G37*
%TD.AperFunction*%
%TA.AperFunction,SMDPad,CuDef*%
%TO.P,LTS2,2*%
%TO.N,/Touch-sense controller/LTS2_2*%
G36*
X139200000Y-91750000D02*
G01*
X126200000Y-93200000D01*
X126200000Y-93900000D01*
X139200000Y-95350000D01*
X139200000Y-95650000D01*
X126200000Y-97100000D01*
X126200000Y-97800000D01*
X139200000Y-99250000D01*
X139200000Y-99400000D01*
X122200000Y-99400000D01*
X122200000Y-99050000D01*
X109200000Y-97600000D01*
X109200000Y-97300000D01*
X122200000Y-95850000D01*
X122200000Y-95150000D01*
X109200000Y-93700000D01*
X109200000Y-93400000D01*
X122200000Y-91950000D01*
X122200000Y-91600000D01*
X139200000Y-91600000D01*
X139200000Y-91750000D01*
G37*
%TD.AperFunction*%
%TA.AperFunction,SMDPad,CuDef*%
%TO.P,LTS2,1*%
%TO.N,/Touch-sense controller/LTS2_1*%
G36*
X122000000Y-91750000D02*
G01*
X109000000Y-93200000D01*
X109000000Y-93900000D01*
X122000000Y-95350000D01*
X122000000Y-95650000D01*
X109000000Y-97100000D01*
X109000000Y-97800000D01*
X122000000Y-99250000D01*
X122000000Y-99400000D01*
X105000000Y-99400000D01*
X105000000Y-91600000D01*
X122000000Y-91600000D01*
X122000000Y-91750000D01*
G37*
%TD.AperFunction*%
%TD*%
%TA.AperFunction,SMDPad,CuDef*%
%TO.P,LTS1,5*%
%TO.N,/Touch-sense controller/LTS1_5*%
G36*
X190800000Y-51250000D02*
G01*
X177800000Y-52700000D01*
X177800000Y-53400000D01*
X190800000Y-54850000D01*
X190800000Y-55150000D01*
X177800000Y-56600000D01*
X177800000Y-57300000D01*
X190800000Y-58750000D01*
X190800000Y-58900000D01*
X173800000Y-58900000D01*
X173800000Y-58550000D01*
X160800000Y-57100000D01*
X160800000Y-56800000D01*
X173800000Y-55350000D01*
X173800000Y-54650000D01*
X160800000Y-53200000D01*
X160800000Y-52900000D01*
X173800000Y-51450000D01*
X173800000Y-51100000D01*
X190800000Y-51100000D01*
X190800000Y-51250000D01*
G37*
%TD.AperFunction*%
%TA.AperFunction,SMDPad,CuDef*%
%TO.P,LTS1,1*%
%TO.N,/Touch-sense controller/LTS1_1*%
G36*
X195000000Y-58900000D02*
G01*
X191000000Y-58900000D01*
X191000000Y-58550000D01*
X178000000Y-57100000D01*
X178000000Y-56800000D01*
X191000000Y-55350000D01*
X191000000Y-54650000D01*
X178000000Y-53200000D01*
X178000000Y-52900000D01*
X191000000Y-51450000D01*
X191000000Y-51100000D01*
X195000000Y-51100000D01*
X195000000Y-58900000D01*
G37*
%TD.AperFunction*%
%TA.AperFunction,SMDPad,CuDef*%
%TO.P,LTS1,4*%
%TO.N,/Touch-sense controller/LTS1_4*%
G36*
X173600000Y-51250000D02*
G01*
X160600000Y-52700000D01*
X160600000Y-53400000D01*
X173600000Y-54850000D01*
X173600000Y-55150000D01*
X160600000Y-56600000D01*
X160600000Y-57300000D01*
X173600000Y-58750000D01*
X173600000Y-58900000D01*
X156600000Y-58900000D01*
X156600000Y-58550000D01*
X143600000Y-57100000D01*
X143600000Y-56800000D01*
X156600000Y-55350000D01*
X156600000Y-54650000D01*
X143600000Y-53200000D01*
X143600000Y-52900000D01*
X156600000Y-51450000D01*
X156600000Y-51100000D01*
X173600000Y-51100000D01*
X173600000Y-51250000D01*
G37*
%TD.AperFunction*%
%TA.AperFunction,SMDPad,CuDef*%
%TO.P,LTS1,3*%
%TO.N,/Touch-sense controller/LTS1_3*%
G36*
X156400000Y-51250000D02*
G01*
X143400000Y-52700000D01*
X143400000Y-53400000D01*
X156400000Y-54850000D01*
X156400000Y-55150000D01*
X143400000Y-56600000D01*
X143400000Y-57300000D01*
X156400000Y-58750000D01*
X156400000Y-58900000D01*
X139400000Y-58900000D01*
X139400000Y-58550000D01*
X126400000Y-57100000D01*
X126400000Y-56800000D01*
X139400000Y-55350000D01*
X139400000Y-54650000D01*
X126400000Y-53200000D01*
X126400000Y-52900000D01*
X139400000Y-51450000D01*
X139400000Y-51100000D01*
X156400000Y-51100000D01*
X156400000Y-51250000D01*
G37*
%TD.AperFunction*%
%TA.AperFunction,SMDPad,CuDef*%
%TO.P,LTS1,2*%
%TO.N,/Touch-sense controller/LTS1_2*%
G36*
X139200000Y-51250000D02*
G01*
X126200000Y-52700000D01*
X126200000Y-53400000D01*
X139200000Y-54850000D01*
X139200000Y-55150000D01*
X126200000Y-56600000D01*
X126200000Y-57300000D01*
X139200000Y-58750000D01*
X139200000Y-58900000D01*
X122200000Y-58900000D01*
X122200000Y-58550000D01*
X109200000Y-57100000D01*
X109200000Y-56800000D01*
X122200000Y-55350000D01*
X122200000Y-54650000D01*
X109200000Y-53200000D01*
X109200000Y-52900000D01*
X122200000Y-51450000D01*
X122200000Y-51100000D01*
X139200000Y-51100000D01*
X139200000Y-51250000D01*
G37*
%TD.AperFunction*%
%TA.AperFunction,SMDPad,CuDef*%
%TO.P,LTS1,1*%
%TO.N,/Touch-sense controller/LTS1_1*%
G36*
X122000000Y-51250000D02*
G01*
X109000000Y-52700000D01*
X109000000Y-53400000D01*
X122000000Y-54850000D01*
X122000000Y-55150000D01*
X109000000Y-56600000D01*
X109000000Y-57300000D01*
X122000000Y-58750000D01*
X122000000Y-58900000D01*
X105000000Y-58900000D01*
X105000000Y-51100000D01*
X122000000Y-51100000D01*
X122000000Y-51250000D01*
G37*
%TD.AperFunction*%
%TD*%
D11*
%TO.N,GND*%
X216300000Y-60000000D03*
X214300000Y-60000000D03*
X97000000Y-59900000D03*
%TO.N,VDD_IO*%
X220900000Y-66400000D03*
X219000000Y-68115000D03*
X231150000Y-65050000D03*
%TO.N,/Touch-sense controller/LTS1_5*%
X175750000Y-55000000D03*
%TO.N,/Touch-sense controller/LTS1_1*%
X107000000Y-55000000D03*
X193000000Y-55000000D03*
%TO.N,/Touch-sense controller/LTS1_4*%
X158750000Y-55000000D03*
%TO.N,/Touch-sense controller/LTS1_3*%
X141250000Y-54750000D03*
%TO.N,/Touch-sense controller/LTS1_2*%
X124200000Y-55000000D03*
%TO.N,/Touch-sense controller/LTS2_5*%
X176000000Y-95500000D03*
%TO.N,/Touch-sense controller/LTS2_1*%
X107000000Y-95500000D03*
X193000000Y-95500000D03*
%TO.N,/Touch-sense controller/LTS2_4*%
X158950000Y-95500000D03*
%TO.N,/Touch-sense controller/LTS2_3*%
X141350000Y-95800000D03*
%TO.N,/Touch-sense controller/LTS2_2*%
X124950000Y-95200000D03*
%TD*%
D12*
%TO.N,GND*%
X216300000Y-60000000D02*
X215200000Y-60000000D01*
X215200000Y-60000000D02*
X214300000Y-60000000D01*
D13*
%TO.N,/Touch-sense controller/LTS1_5*%
X175800000Y-55000000D02*
X175750000Y-55000000D01*
%TO.N,/Touch-sense controller/LTS1_4*%
X158600000Y-55000000D02*
X158750000Y-55000000D01*
%TO.N,/Touch-sense controller/LTS1_3*%
X141400000Y-54900000D02*
X141250000Y-54750000D01*
X141400000Y-55000000D02*
X141400000Y-54900000D01*
%TO.N,/Touch-sense controller/LTS1_2*%
X124250000Y-55000000D02*
X124200000Y-55000000D01*
%TO.N,/Touch-sense controller/LTS2_5*%
X175800000Y-95500000D02*
X176000000Y-95500000D01*
%TO.N,/Touch-sense controller/LTS2_4*%
X158600000Y-95500000D02*
X158950000Y-95500000D01*
%TO.N,/Touch-sense controller/LTS2_3*%
X141400000Y-95500000D02*
X141400000Y-95750000D01*
X141400000Y-95750000D02*
X141350000Y-95800000D01*
%TO.N,/Touch-sense controller/LTS2_2*%
X124200000Y-95500000D02*
X124650000Y-95500000D01*
X124650000Y-95500000D02*
X124950000Y-95200000D01*
%TD*%
D14*
%TO.N,GND*%
X104206512Y-49184351D02*
X103848034Y-49375961D01*
X103533825Y-49633825D01*
X103275961Y-49948034D01*
X103084351Y-50306512D01*
X102966357Y-50695483D01*
X102926516Y-51100000D01*
X102926516Y-58900000D01*
X102966357Y-59304517D01*
X103084351Y-59693488D01*
X103275961Y-60051966D01*
X103533825Y-60366175D01*
X103848034Y-60624039D01*
X104206512Y-60815649D01*
X104595483Y-60933643D01*
X105000000Y-60973484D01*
X105076500Y-60973484D01*
X105076501Y-89526516D01*
X105000000Y-89526516D01*
X104595483Y-89566357D01*
X104206512Y-89684351D01*
X103848034Y-89875961D01*
X103533825Y-90133825D01*
X103275961Y-90448034D01*
X103084351Y-90806512D01*
X102966357Y-91195483D01*
X102926516Y-91600000D01*
X102926516Y-99400000D01*
X102957196Y-99711500D01*
X71404108Y-99711500D01*
X70690736Y-99641554D01*
X70018101Y-99438473D01*
X69397729Y-99108616D01*
X68853235Y-98664538D01*
X68405368Y-98123159D01*
X68071186Y-97505104D01*
X67863415Y-96833905D01*
X67788542Y-96121528D01*
X67788500Y-96109563D01*
X67788500Y-95898272D01*
X69186500Y-95898272D01*
X69186500Y-96501728D01*
X69304229Y-97093590D01*
X69535161Y-97651111D01*
X69870424Y-98152867D01*
X70297133Y-98579576D01*
X70798889Y-98914839D01*
X71356410Y-99145771D01*
X71948272Y-99263500D01*
X72551728Y-99263500D01*
X73143590Y-99145771D01*
X73701111Y-98914839D01*
X74202867Y-98579576D01*
X74629576Y-98152867D01*
X74964839Y-97651111D01*
X75195771Y-97093590D01*
X75313500Y-96501728D01*
X75313500Y-95898272D01*
X75195771Y-95306410D01*
X74964839Y-94748889D01*
X74629576Y-94247133D01*
X74202867Y-93820424D01*
X73701111Y-93485161D01*
X73143590Y-93254229D01*
X72551728Y-93136500D01*
X71948272Y-93136500D01*
X71356410Y-93254229D01*
X70798889Y-93485161D01*
X70297133Y-93820424D01*
X69870424Y-94247133D01*
X69535161Y-94748889D01*
X69304229Y-95306410D01*
X69186500Y-95898272D01*
X67788500Y-95898272D01*
X67788500Y-81084111D01*
X74876500Y-81084111D01*
X74876501Y-92915890D01*
X74877865Y-92929743D01*
X74877844Y-92932810D01*
X74878284Y-92937305D01*
X74888484Y-93034354D01*
X74894383Y-93063090D01*
X74899874Y-93091876D01*
X74901179Y-93096200D01*
X74930035Y-93189419D01*
X74941391Y-93216433D01*
X74952382Y-93243635D01*
X74954502Y-93247624D01*
X75000915Y-93333462D01*
X75017346Y-93357822D01*
X75033366Y-93382302D01*
X75036220Y-93385803D01*
X75098422Y-93460992D01*
X75119237Y-93481662D01*
X75139739Y-93502598D01*
X75143219Y-93505478D01*
X75218840Y-93567154D01*
X75243256Y-93583376D01*
X75267458Y-93599947D01*
X75271432Y-93602095D01*
X75357592Y-93647907D01*
X75384700Y-93659080D01*
X75411647Y-93670629D01*
X75415962Y-93671965D01*
X75509380Y-93700170D01*
X75538116Y-93705860D01*
X75566824Y-93711962D01*
X75571312Y-93712434D01*
X75571316Y-93712434D01*
X75668434Y-93721956D01*
X75684110Y-93723500D01*
X100315890Y-93723500D01*
X100329752Y-93722135D01*
X100332810Y-93722156D01*
X100337305Y-93721716D01*
X100434354Y-93711516D01*
X100463090Y-93705617D01*
X100491876Y-93700126D01*
X100496198Y-93698822D01*
X100496204Y-93698820D01*
X100589419Y-93669965D01*
X100616433Y-93658609D01*
X100643635Y-93647618D01*
X100647624Y-93645498D01*
X100733462Y-93599085D01*
X100757822Y-93582654D01*
X100782302Y-93566634D01*
X100785803Y-93563780D01*
X100860992Y-93501578D01*
X100881662Y-93480763D01*
X100902598Y-93460261D01*
X100905478Y-93456781D01*
X100967154Y-93381160D01*
X100983376Y-93356744D01*
X100999947Y-93332542D01*
X101002095Y-93328568D01*
X101047907Y-93242408D01*
X101059080Y-93215300D01*
X101070629Y-93188353D01*
X101071965Y-93184038D01*
X101100170Y-93090620D01*
X101105860Y-93061884D01*
X101111962Y-93033176D01*
X101112434Y-93028684D01*
X101121956Y-92931566D01*
X101123500Y-92915890D01*
X101123500Y-81084110D01*
X101122135Y-81070248D01*
X101122156Y-81067191D01*
X101121716Y-81062695D01*
X101111516Y-80965647D01*
X101105620Y-80936924D01*
X101100126Y-80908124D01*
X101098821Y-80903800D01*
X101069965Y-80810581D01*
X101058603Y-80783552D01*
X101047618Y-80756364D01*
X101045497Y-80752376D01*
X100999085Y-80666538D01*
X100982654Y-80642178D01*
X100966634Y-80617698D01*
X100963780Y-80614197D01*
X100901578Y-80539008D01*
X100880763Y-80518338D01*
X100860261Y-80497402D01*
X100856780Y-80494522D01*
X100781160Y-80432846D01*
X100756744Y-80416624D01*
X100732542Y-80400053D01*
X100728568Y-80397905D01*
X100642407Y-80352093D01*
X100615313Y-80340926D01*
X100588353Y-80329371D01*
X100584038Y-80328035D01*
X100490620Y-80299830D01*
X100461884Y-80294140D01*
X100433176Y-80288038D01*
X100428688Y-80287566D01*
X100428684Y-80287566D01*
X100331567Y-80278044D01*
X100331566Y-80278044D01*
X100315890Y-80276500D01*
X75684110Y-80276500D01*
X75670248Y-80277865D01*
X75667191Y-80277844D01*
X75662695Y-80278284D01*
X75565647Y-80288484D01*
X75536924Y-80294380D01*
X75508124Y-80299874D01*
X75503800Y-80301179D01*
X75410581Y-80330035D01*
X75383552Y-80341397D01*
X75356364Y-80352382D01*
X75352376Y-80354503D01*
X75266538Y-80400915D01*
X75242178Y-80417346D01*
X75217698Y-80433366D01*
X75214197Y-80436220D01*
X75139008Y-80498422D01*
X75118338Y-80519237D01*
X75097402Y-80539739D01*
X75094522Y-80543220D01*
X75032846Y-80618840D01*
X75016624Y-80643256D01*
X75000053Y-80667458D01*
X74997905Y-80671432D01*
X74952093Y-80757593D01*
X74940926Y-80784687D01*
X74929371Y-80811647D01*
X74928035Y-80815962D01*
X74899830Y-80909380D01*
X74894140Y-80938116D01*
X74888038Y-80966824D01*
X74887566Y-80971316D01*
X74878168Y-81067171D01*
X74876500Y-81084111D01*
X67788500Y-81084111D01*
X67788500Y-65000000D01*
X78006500Y-65000000D01*
X78088546Y-66277940D01*
X78333339Y-67534897D01*
X78736857Y-68750231D01*
X79292477Y-69903986D01*
X79991073Y-70977218D01*
X80821176Y-71952304D01*
X81769155Y-72813233D01*
X82819444Y-73545869D01*
X83954798Y-74138183D01*
X85156574Y-74580447D01*
X86405038Y-74865401D01*
X87679693Y-74988366D01*
X88959606Y-74947321D01*
X90223763Y-74742942D01*
X91451406Y-74378584D01*
X92622376Y-73860230D01*
X93717448Y-73196391D01*
X94718639Y-72397968D01*
X95609510Y-71478070D01*
X96375433Y-70451803D01*
X97003832Y-69336017D01*
X97484389Y-68149034D01*
X97809211Y-66910344D01*
X97972967Y-65640286D01*
X97972967Y-64359714D01*
X97809211Y-63089656D01*
X97484389Y-61850966D01*
X97003832Y-60663983D01*
X96375433Y-59548197D01*
X95609510Y-58521930D01*
X94718639Y-57602032D01*
X93717448Y-56803609D01*
X92622376Y-56139770D01*
X91451406Y-55621416D01*
X90223763Y-55257058D01*
X88959606Y-55052679D01*
X87679693Y-55011634D01*
X86405038Y-55134599D01*
X85156574Y-55419553D01*
X83954798Y-55861817D01*
X82819444Y-56454131D01*
X81769155Y-57186767D01*
X80821176Y-58047696D01*
X79991073Y-59022782D01*
X79292477Y-60096014D01*
X78736857Y-61249769D01*
X78333339Y-62465103D01*
X78088546Y-63722060D01*
X78006500Y-65000000D01*
X67788500Y-65000000D01*
X67788500Y-52774108D01*
X67828292Y-52368272D01*
X69186500Y-52368272D01*
X69186500Y-52971728D01*
X69304229Y-53563590D01*
X69535161Y-54121111D01*
X69870424Y-54622867D01*
X70297133Y-55049576D01*
X70798889Y-55384839D01*
X71356410Y-55615771D01*
X71948272Y-55733500D01*
X72551728Y-55733500D01*
X73143590Y-55615771D01*
X73701111Y-55384839D01*
X74202867Y-55049576D01*
X74629576Y-54622867D01*
X74964839Y-54121111D01*
X75195771Y-53563590D01*
X75313500Y-52971728D01*
X75313500Y-52368272D01*
X75195771Y-51776410D01*
X74964839Y-51218889D01*
X74629576Y-50717133D01*
X74202867Y-50290424D01*
X73701111Y-49955161D01*
X73143590Y-49724229D01*
X72551728Y-49606500D01*
X71948272Y-49606500D01*
X71356410Y-49724229D01*
X70798889Y-49955161D01*
X70297133Y-50290424D01*
X69870424Y-50717133D01*
X69535161Y-51218889D01*
X69304229Y-51776410D01*
X69186500Y-52368272D01*
X67828292Y-52368272D01*
X67858446Y-52060736D01*
X68061528Y-51388097D01*
X68391386Y-50767727D01*
X68835462Y-50223235D01*
X69376843Y-49775367D01*
X69994896Y-49441186D01*
X70666094Y-49233415D01*
X71378472Y-49158542D01*
X71390437Y-49158500D01*
X104291731Y-49158500D01*
X104206512Y-49184351D01*
%TA.AperFunction,Conductor*%
D15*
G36*
X104206512Y-49184351D02*
G01*
X103848034Y-49375961D01*
X103533825Y-49633825D01*
X103275961Y-49948034D01*
X103084351Y-50306512D01*
X102966357Y-50695483D01*
X102926516Y-51100000D01*
X102926516Y-58900000D01*
X102966357Y-59304517D01*
X103084351Y-59693488D01*
X103275961Y-60051966D01*
X103533825Y-60366175D01*
X103848034Y-60624039D01*
X104206512Y-60815649D01*
X104595483Y-60933643D01*
X105000000Y-60973484D01*
X105076500Y-60973484D01*
X105076501Y-89526516D01*
X105000000Y-89526516D01*
X104595483Y-89566357D01*
X104206512Y-89684351D01*
X103848034Y-89875961D01*
X103533825Y-90133825D01*
X103275961Y-90448034D01*
X103084351Y-90806512D01*
X102966357Y-91195483D01*
X102926516Y-91600000D01*
X102926516Y-99400000D01*
X102957196Y-99711500D01*
X71404108Y-99711500D01*
X70690736Y-99641554D01*
X70018101Y-99438473D01*
X69397729Y-99108616D01*
X68853235Y-98664538D01*
X68405368Y-98123159D01*
X68071186Y-97505104D01*
X67863415Y-96833905D01*
X67788542Y-96121528D01*
X67788500Y-96109563D01*
X67788500Y-95898272D01*
X69186500Y-95898272D01*
X69186500Y-96501728D01*
X69304229Y-97093590D01*
X69535161Y-97651111D01*
X69870424Y-98152867D01*
X70297133Y-98579576D01*
X70798889Y-98914839D01*
X71356410Y-99145771D01*
X71948272Y-99263500D01*
X72551728Y-99263500D01*
X73143590Y-99145771D01*
X73701111Y-98914839D01*
X74202867Y-98579576D01*
X74629576Y-98152867D01*
X74964839Y-97651111D01*
X75195771Y-97093590D01*
X75313500Y-96501728D01*
X75313500Y-95898272D01*
X75195771Y-95306410D01*
X74964839Y-94748889D01*
X74629576Y-94247133D01*
X74202867Y-93820424D01*
X73701111Y-93485161D01*
X73143590Y-93254229D01*
X72551728Y-93136500D01*
X71948272Y-93136500D01*
X71356410Y-93254229D01*
X70798889Y-93485161D01*
X70297133Y-93820424D01*
X69870424Y-94247133D01*
X69535161Y-94748889D01*
X69304229Y-95306410D01*
X69186500Y-95898272D01*
X67788500Y-95898272D01*
X67788500Y-81084111D01*
X74876500Y-81084111D01*
X74876501Y-92915890D01*
X74877865Y-92929743D01*
X74877844Y-92932810D01*
X74878284Y-92937305D01*
X74888484Y-93034354D01*
X74894383Y-93063090D01*
X74899874Y-93091876D01*
X74901179Y-93096200D01*
X74930035Y-93189419D01*
X74941391Y-93216433D01*
X74952382Y-93243635D01*
X74954502Y-93247624D01*
X75000915Y-93333462D01*
X75017346Y-93357822D01*
X75033366Y-93382302D01*
X75036220Y-93385803D01*
X75098422Y-93460992D01*
X75119237Y-93481662D01*
X75139739Y-93502598D01*
X75143219Y-93505478D01*
X75218840Y-93567154D01*
X75243256Y-93583376D01*
X75267458Y-93599947D01*
X75271432Y-93602095D01*
X75357592Y-93647907D01*
X75384700Y-93659080D01*
X75411647Y-93670629D01*
X75415962Y-93671965D01*
X75509380Y-93700170D01*
X75538116Y-93705860D01*
X75566824Y-93711962D01*
X75571312Y-93712434D01*
X75571316Y-93712434D01*
X75668434Y-93721956D01*
X75684110Y-93723500D01*
X100315890Y-93723500D01*
X100329752Y-93722135D01*
X100332810Y-93722156D01*
X100337305Y-93721716D01*
X100434354Y-93711516D01*
X100463090Y-93705617D01*
X100491876Y-93700126D01*
X100496198Y-93698822D01*
X100496204Y-93698820D01*
X100589419Y-93669965D01*
X100616433Y-93658609D01*
X100643635Y-93647618D01*
X100647624Y-93645498D01*
X100733462Y-93599085D01*
X100757822Y-93582654D01*
X100782302Y-93566634D01*
X100785803Y-93563780D01*
X100860992Y-93501578D01*
X100881662Y-93480763D01*
X100902598Y-93460261D01*
X100905478Y-93456781D01*
X100967154Y-93381160D01*
X100983376Y-93356744D01*
X100999947Y-93332542D01*
X101002095Y-93328568D01*
X101047907Y-93242408D01*
X101059080Y-93215300D01*
X101070629Y-93188353D01*
X101071965Y-93184038D01*
X101100170Y-93090620D01*
X101105860Y-93061884D01*
X101111962Y-93033176D01*
X101112434Y-93028684D01*
X101121956Y-92931566D01*
X101123500Y-92915890D01*
X101123500Y-81084110D01*
X101122135Y-81070248D01*
X101122156Y-81067191D01*
X101121716Y-81062695D01*
X101111516Y-80965647D01*
X101105620Y-80936924D01*
X101100126Y-80908124D01*
X101098821Y-80903800D01*
X101069965Y-80810581D01*
X101058603Y-80783552D01*
X101047618Y-80756364D01*
X101045497Y-80752376D01*
X100999085Y-80666538D01*
X100982654Y-80642178D01*
X100966634Y-80617698D01*
X100963780Y-80614197D01*
X100901578Y-80539008D01*
X100880763Y-80518338D01*
X100860261Y-80497402D01*
X100856780Y-80494522D01*
X100781160Y-80432846D01*
X100756744Y-80416624D01*
X100732542Y-80400053D01*
X100728568Y-80397905D01*
X100642407Y-80352093D01*
X100615313Y-80340926D01*
X100588353Y-80329371D01*
X100584038Y-80328035D01*
X100490620Y-80299830D01*
X100461884Y-80294140D01*
X100433176Y-80288038D01*
X100428688Y-80287566D01*
X100428684Y-80287566D01*
X100331567Y-80278044D01*
X100331566Y-80278044D01*
X100315890Y-80276500D01*
X75684110Y-80276500D01*
X75670248Y-80277865D01*
X75667191Y-80277844D01*
X75662695Y-80278284D01*
X75565647Y-80288484D01*
X75536924Y-80294380D01*
X75508124Y-80299874D01*
X75503800Y-80301179D01*
X75410581Y-80330035D01*
X75383552Y-80341397D01*
X75356364Y-80352382D01*
X75352376Y-80354503D01*
X75266538Y-80400915D01*
X75242178Y-80417346D01*
X75217698Y-80433366D01*
X75214197Y-80436220D01*
X75139008Y-80498422D01*
X75118338Y-80519237D01*
X75097402Y-80539739D01*
X75094522Y-80543220D01*
X75032846Y-80618840D01*
X75016624Y-80643256D01*
X75000053Y-80667458D01*
X74997905Y-80671432D01*
X74952093Y-80757593D01*
X74940926Y-80784687D01*
X74929371Y-80811647D01*
X74928035Y-80815962D01*
X74899830Y-80909380D01*
X74894140Y-80938116D01*
X74888038Y-80966824D01*
X74887566Y-80971316D01*
X74878168Y-81067171D01*
X74876500Y-81084111D01*
X67788500Y-81084111D01*
X67788500Y-65000000D01*
X78006500Y-65000000D01*
X78088546Y-66277940D01*
X78333339Y-67534897D01*
X78736857Y-68750231D01*
X79292477Y-69903986D01*
X79991073Y-70977218D01*
X80821176Y-71952304D01*
X81769155Y-72813233D01*
X82819444Y-73545869D01*
X83954798Y-74138183D01*
X85156574Y-74580447D01*
X86405038Y-74865401D01*
X87679693Y-74988366D01*
X88959606Y-74947321D01*
X90223763Y-74742942D01*
X91451406Y-74378584D01*
X92622376Y-73860230D01*
X93717448Y-73196391D01*
X94718639Y-72397968D01*
X95609510Y-71478070D01*
X96375433Y-70451803D01*
X97003832Y-69336017D01*
X97484389Y-68149034D01*
X97809211Y-66910344D01*
X97972967Y-65640286D01*
X97972967Y-64359714D01*
X97809211Y-63089656D01*
X97484389Y-61850966D01*
X97003832Y-60663983D01*
X96375433Y-59548197D01*
X95609510Y-58521930D01*
X94718639Y-57602032D01*
X93717448Y-56803609D01*
X92622376Y-56139770D01*
X91451406Y-55621416D01*
X90223763Y-55257058D01*
X88959606Y-55052679D01*
X87679693Y-55011634D01*
X86405038Y-55134599D01*
X85156574Y-55419553D01*
X83954798Y-55861817D01*
X82819444Y-56454131D01*
X81769155Y-57186767D01*
X80821176Y-58047696D01*
X79991073Y-59022782D01*
X79292477Y-60096014D01*
X78736857Y-61249769D01*
X78333339Y-62465103D01*
X78088546Y-63722060D01*
X78006500Y-65000000D01*
X67788500Y-65000000D01*
X67788500Y-52774108D01*
X67828292Y-52368272D01*
X69186500Y-52368272D01*
X69186500Y-52971728D01*
X69304229Y-53563590D01*
X69535161Y-54121111D01*
X69870424Y-54622867D01*
X70297133Y-55049576D01*
X70798889Y-55384839D01*
X71356410Y-55615771D01*
X71948272Y-55733500D01*
X72551728Y-55733500D01*
X73143590Y-55615771D01*
X73701111Y-55384839D01*
X74202867Y-55049576D01*
X74629576Y-54622867D01*
X74964839Y-54121111D01*
X75195771Y-53563590D01*
X75313500Y-52971728D01*
X75313500Y-52368272D01*
X75195771Y-51776410D01*
X74964839Y-51218889D01*
X74629576Y-50717133D01*
X74202867Y-50290424D01*
X73701111Y-49955161D01*
X73143590Y-49724229D01*
X72551728Y-49606500D01*
X71948272Y-49606500D01*
X71356410Y-49724229D01*
X70798889Y-49955161D01*
X70297133Y-50290424D01*
X69870424Y-50717133D01*
X69535161Y-51218889D01*
X69304229Y-51776410D01*
X69186500Y-52368272D01*
X67828292Y-52368272D01*
X67858446Y-52060736D01*
X68061528Y-51388097D01*
X68391386Y-50767727D01*
X68835462Y-50223235D01*
X69376843Y-49775367D01*
X69994896Y-49441186D01*
X70666094Y-49233415D01*
X71378472Y-49158542D01*
X71390437Y-49158500D01*
X104291731Y-49158500D01*
X104206512Y-49184351D01*
G37*
%TD.AperFunction*%
%TD*%
D14*
%TO.N,VDD_IO*%
X229309264Y-49228446D02*
X229981903Y-49431528D01*
X230602273Y-49761386D01*
X231146765Y-50205462D01*
X231594633Y-50746843D01*
X231928814Y-51364896D01*
X232136585Y-52036094D01*
X232211458Y-52748472D01*
X232211500Y-52760437D01*
X232211501Y-96095882D01*
X232141554Y-96809264D01*
X231938473Y-97481899D01*
X231608616Y-98102271D01*
X231164538Y-98646765D01*
X230623159Y-99094632D01*
X230005104Y-99428814D01*
X229333905Y-99636585D01*
X228621528Y-99711458D01*
X228609563Y-99711500D01*
X197042804Y-99711500D01*
X197073484Y-99400000D01*
X197073484Y-95898272D01*
X224686500Y-95898272D01*
X224686500Y-96501728D01*
X224804229Y-97093590D01*
X225035161Y-97651111D01*
X225370424Y-98152867D01*
X225797133Y-98579576D01*
X226298889Y-98914839D01*
X226856410Y-99145771D01*
X227448272Y-99263500D01*
X228051728Y-99263500D01*
X228643590Y-99145771D01*
X229201111Y-98914839D01*
X229702867Y-98579576D01*
X230129576Y-98152867D01*
X230464839Y-97651111D01*
X230695771Y-97093590D01*
X230813500Y-96501728D01*
X230813500Y-95898272D01*
X230695771Y-95306410D01*
X230464839Y-94748889D01*
X230129576Y-94247133D01*
X229702867Y-93820424D01*
X229201111Y-93485161D01*
X228643590Y-93254229D01*
X228051728Y-93136500D01*
X227448272Y-93136500D01*
X226856410Y-93254229D01*
X226298889Y-93485161D01*
X225797133Y-93820424D01*
X225370424Y-94247133D01*
X225035161Y-94748889D01*
X224804229Y-95306410D01*
X224686500Y-95898272D01*
X197073484Y-95898272D01*
X197073484Y-91600000D01*
X197033643Y-91195483D01*
X196915649Y-90806512D01*
X196724039Y-90448034D01*
X196466175Y-90133825D01*
X196151966Y-89875961D01*
X195793488Y-89684351D01*
X195404517Y-89566357D01*
X195000000Y-89526516D01*
X194923500Y-89526516D01*
X194923500Y-81084111D01*
X198876500Y-81084111D01*
X198876501Y-92915890D01*
X198877865Y-92929743D01*
X198877844Y-92932810D01*
X198878284Y-92937305D01*
X198888484Y-93034354D01*
X198894383Y-93063090D01*
X198899874Y-93091876D01*
X198901179Y-93096200D01*
X198930035Y-93189419D01*
X198941391Y-93216433D01*
X198952382Y-93243635D01*
X198954502Y-93247624D01*
X199000915Y-93333462D01*
X199017346Y-93357822D01*
X199033366Y-93382302D01*
X199036220Y-93385803D01*
X199098422Y-93460992D01*
X199119237Y-93481662D01*
X199139739Y-93502598D01*
X199143219Y-93505478D01*
X199218840Y-93567154D01*
X199243256Y-93583376D01*
X199267458Y-93599947D01*
X199271432Y-93602095D01*
X199357592Y-93647907D01*
X199384700Y-93659080D01*
X199411647Y-93670629D01*
X199415962Y-93671965D01*
X199509380Y-93700170D01*
X199538116Y-93705860D01*
X199566824Y-93711962D01*
X199571312Y-93712434D01*
X199571316Y-93712434D01*
X199668434Y-93721956D01*
X199684110Y-93723500D01*
X224315890Y-93723500D01*
X224329752Y-93722135D01*
X224332810Y-93722156D01*
X224337305Y-93721716D01*
X224434354Y-93711516D01*
X224463090Y-93705617D01*
X224491876Y-93700126D01*
X224496198Y-93698822D01*
X224496204Y-93698820D01*
X224589419Y-93669965D01*
X224616433Y-93658609D01*
X224643635Y-93647618D01*
X224647624Y-93645498D01*
X224733462Y-93599085D01*
X224757822Y-93582654D01*
X224782302Y-93566634D01*
X224785803Y-93563780D01*
X224860992Y-93501578D01*
X224881662Y-93480763D01*
X224902598Y-93460261D01*
X224905478Y-93456781D01*
X224967154Y-93381160D01*
X224983376Y-93356744D01*
X224999947Y-93332542D01*
X225002095Y-93328568D01*
X225047907Y-93242408D01*
X225059080Y-93215300D01*
X225070629Y-93188353D01*
X225071965Y-93184038D01*
X225100170Y-93090620D01*
X225105860Y-93061884D01*
X225111962Y-93033176D01*
X225112434Y-93028684D01*
X225121956Y-92931566D01*
X225123500Y-92915890D01*
X225123500Y-81084110D01*
X225122135Y-81070248D01*
X225122156Y-81067191D01*
X225121716Y-81062695D01*
X225111516Y-80965647D01*
X225105620Y-80936924D01*
X225100126Y-80908124D01*
X225098821Y-80903800D01*
X225069965Y-80810581D01*
X225058603Y-80783552D01*
X225047618Y-80756364D01*
X225045497Y-80752376D01*
X224999085Y-80666538D01*
X224982654Y-80642178D01*
X224966634Y-80617698D01*
X224963780Y-80614197D01*
X224901578Y-80539008D01*
X224880763Y-80518338D01*
X224860261Y-80497402D01*
X224856780Y-80494522D01*
X224781160Y-80432846D01*
X224756744Y-80416624D01*
X224732542Y-80400053D01*
X224728568Y-80397905D01*
X224642407Y-80352093D01*
X224615313Y-80340926D01*
X224588353Y-80329371D01*
X224584038Y-80328035D01*
X224490620Y-80299830D01*
X224461884Y-80294140D01*
X224433176Y-80288038D01*
X224428688Y-80287566D01*
X224428684Y-80287566D01*
X224331567Y-80278044D01*
X224331566Y-80278044D01*
X224315890Y-80276500D01*
X199684110Y-80276500D01*
X199670248Y-80277865D01*
X199667191Y-80277844D01*
X199662695Y-80278284D01*
X199565647Y-80288484D01*
X199536924Y-80294380D01*
X199508124Y-80299874D01*
X199503800Y-80301179D01*
X199410581Y-80330035D01*
X199383552Y-80341397D01*
X199356364Y-80352382D01*
X199352376Y-80354503D01*
X199266538Y-80400915D01*
X199242178Y-80417346D01*
X199217698Y-80433366D01*
X199214197Y-80436220D01*
X199139008Y-80498422D01*
X199118338Y-80519237D01*
X199097402Y-80539739D01*
X199094522Y-80543220D01*
X199032846Y-80618840D01*
X199016624Y-80643256D01*
X199000053Y-80667458D01*
X198997905Y-80671432D01*
X198952093Y-80757593D01*
X198940926Y-80784687D01*
X198929371Y-80811647D01*
X198928035Y-80815962D01*
X198899830Y-80909380D01*
X198894140Y-80938116D01*
X198888038Y-80966824D01*
X198887566Y-80971316D01*
X198878168Y-81067171D01*
X198876500Y-81084111D01*
X194923500Y-81084111D01*
X194923500Y-64594856D01*
X207886500Y-64594856D01*
X207886500Y-65405144D01*
X208044580Y-66199864D01*
X208354664Y-66948473D01*
X208804836Y-67622203D01*
X209377797Y-68195164D01*
X210051527Y-68645336D01*
X210800136Y-68955420D01*
X211594856Y-69113500D01*
X212405144Y-69113500D01*
X213199864Y-68955420D01*
X213948473Y-68645336D01*
X214622203Y-68195164D01*
X215195164Y-67622203D01*
X215645336Y-66948473D01*
X215955420Y-66199864D01*
X216113500Y-65405144D01*
X216113500Y-64594856D01*
X215955420Y-63800136D01*
X215645336Y-63051527D01*
X215195164Y-62377797D01*
X214622203Y-61804836D01*
X213948473Y-61354664D01*
X213199864Y-61044580D01*
X212405144Y-60886500D01*
X211594856Y-60886500D01*
X210800136Y-61044580D01*
X210051527Y-61354664D01*
X209377797Y-61804836D01*
X208804836Y-62377797D01*
X208354664Y-63051527D01*
X208044580Y-63800136D01*
X207886500Y-64594856D01*
X194923500Y-64594856D01*
X194923500Y-60973484D01*
X195000000Y-60973484D01*
X195404517Y-60933643D01*
X195793488Y-60815649D01*
X196151966Y-60624039D01*
X196466175Y-60366175D01*
X196724039Y-60051966D01*
X196781480Y-59944500D01*
X213736500Y-59944500D01*
X213736500Y-60055500D01*
X213758155Y-60164367D01*
X213800632Y-60266918D01*
X213862301Y-60359211D01*
X213940789Y-60437699D01*
X214033082Y-60499368D01*
X214135633Y-60541845D01*
X214244500Y-60563500D01*
X214355500Y-60563500D01*
X214464367Y-60541845D01*
X214566918Y-60499368D01*
X214659211Y-60437699D01*
X214708410Y-60388500D01*
X215891590Y-60388500D01*
X215940789Y-60437699D01*
X216033082Y-60499368D01*
X216135633Y-60541845D01*
X216244500Y-60563500D01*
X216355500Y-60563500D01*
X216464367Y-60541845D01*
X216566918Y-60499368D01*
X216659211Y-60437699D01*
X216737699Y-60359211D01*
X216799368Y-60266918D01*
X216841845Y-60164367D01*
X216863500Y-60055500D01*
X216863500Y-59944500D01*
X216841845Y-59835633D01*
X216799368Y-59733082D01*
X216737699Y-59640789D01*
X216659211Y-59562301D01*
X216566918Y-59500632D01*
X216464367Y-59458155D01*
X216355500Y-59436500D01*
X216244500Y-59436500D01*
X216135633Y-59458155D01*
X216033082Y-59500632D01*
X215940789Y-59562301D01*
X215891590Y-59611500D01*
X214708410Y-59611500D01*
X214659211Y-59562301D01*
X214566918Y-59500632D01*
X214464367Y-59458155D01*
X214355500Y-59436500D01*
X214244500Y-59436500D01*
X214135633Y-59458155D01*
X214033082Y-59500632D01*
X213940789Y-59562301D01*
X213862301Y-59640789D01*
X213800632Y-59733082D01*
X213758155Y-59835633D01*
X213736500Y-59944500D01*
X196781480Y-59944500D01*
X196915649Y-59693488D01*
X197033643Y-59304517D01*
X197073484Y-58900000D01*
X197073484Y-52368272D01*
X224686500Y-52368272D01*
X224686500Y-52971728D01*
X224804229Y-53563590D01*
X225035161Y-54121111D01*
X225370424Y-54622867D01*
X225797133Y-55049576D01*
X226298889Y-55384839D01*
X226856410Y-55615771D01*
X227448272Y-55733500D01*
X228051728Y-55733500D01*
X228643590Y-55615771D01*
X229201111Y-55384839D01*
X229702867Y-55049576D01*
X230129576Y-54622867D01*
X230464839Y-54121111D01*
X230695771Y-53563590D01*
X230813500Y-52971728D01*
X230813500Y-52368272D01*
X230695771Y-51776410D01*
X230464839Y-51218889D01*
X230129576Y-50717133D01*
X229702867Y-50290424D01*
X229201111Y-49955161D01*
X228643590Y-49724229D01*
X228051728Y-49606500D01*
X227448272Y-49606500D01*
X226856410Y-49724229D01*
X226298889Y-49955161D01*
X225797133Y-50290424D01*
X225370424Y-50717133D01*
X225035161Y-51218889D01*
X224804229Y-51776410D01*
X224686500Y-52368272D01*
X197073484Y-52368272D01*
X197073484Y-51100000D01*
X197033643Y-50695483D01*
X196915649Y-50306512D01*
X196724039Y-49948034D01*
X196466175Y-49633825D01*
X196151966Y-49375961D01*
X195793488Y-49184351D01*
X195708269Y-49158500D01*
X228595892Y-49158500D01*
X229309264Y-49228446D01*
%TA.AperFunction,Conductor*%
D15*
G36*
X229309264Y-49228446D02*
G01*
X229981903Y-49431528D01*
X230602273Y-49761386D01*
X231146765Y-50205462D01*
X231594633Y-50746843D01*
X231928814Y-51364896D01*
X232136585Y-52036094D01*
X232211458Y-52748472D01*
X232211500Y-52760437D01*
X232211501Y-96095882D01*
X232141554Y-96809264D01*
X231938473Y-97481899D01*
X231608616Y-98102271D01*
X231164538Y-98646765D01*
X230623159Y-99094632D01*
X230005104Y-99428814D01*
X229333905Y-99636585D01*
X228621528Y-99711458D01*
X228609563Y-99711500D01*
X197042804Y-99711500D01*
X197073484Y-99400000D01*
X197073484Y-95898272D01*
X224686500Y-95898272D01*
X224686500Y-96501728D01*
X224804229Y-97093590D01*
X225035161Y-97651111D01*
X225370424Y-98152867D01*
X225797133Y-98579576D01*
X226298889Y-98914839D01*
X226856410Y-99145771D01*
X227448272Y-99263500D01*
X228051728Y-99263500D01*
X228643590Y-99145771D01*
X229201111Y-98914839D01*
X229702867Y-98579576D01*
X230129576Y-98152867D01*
X230464839Y-97651111D01*
X230695771Y-97093590D01*
X230813500Y-96501728D01*
X230813500Y-95898272D01*
X230695771Y-95306410D01*
X230464839Y-94748889D01*
X230129576Y-94247133D01*
X229702867Y-93820424D01*
X229201111Y-93485161D01*
X228643590Y-93254229D01*
X228051728Y-93136500D01*
X227448272Y-93136500D01*
X226856410Y-93254229D01*
X226298889Y-93485161D01*
X225797133Y-93820424D01*
X225370424Y-94247133D01*
X225035161Y-94748889D01*
X224804229Y-95306410D01*
X224686500Y-95898272D01*
X197073484Y-95898272D01*
X197073484Y-91600000D01*
X197033643Y-91195483D01*
X196915649Y-90806512D01*
X196724039Y-90448034D01*
X196466175Y-90133825D01*
X196151966Y-89875961D01*
X195793488Y-89684351D01*
X195404517Y-89566357D01*
X195000000Y-89526516D01*
X194923500Y-89526516D01*
X194923500Y-81084111D01*
X198876500Y-81084111D01*
X198876501Y-92915890D01*
X198877865Y-92929743D01*
X198877844Y-92932810D01*
X198878284Y-92937305D01*
X198888484Y-93034354D01*
X198894383Y-93063090D01*
X198899874Y-93091876D01*
X198901179Y-93096200D01*
X198930035Y-93189419D01*
X198941391Y-93216433D01*
X198952382Y-93243635D01*
X198954502Y-93247624D01*
X199000915Y-93333462D01*
X199017346Y-93357822D01*
X199033366Y-93382302D01*
X199036220Y-93385803D01*
X199098422Y-93460992D01*
X199119237Y-93481662D01*
X199139739Y-93502598D01*
X199143219Y-93505478D01*
X199218840Y-93567154D01*
X199243256Y-93583376D01*
X199267458Y-93599947D01*
X199271432Y-93602095D01*
X199357592Y-93647907D01*
X199384700Y-93659080D01*
X199411647Y-93670629D01*
X199415962Y-93671965D01*
X199509380Y-93700170D01*
X199538116Y-93705860D01*
X199566824Y-93711962D01*
X199571312Y-93712434D01*
X199571316Y-93712434D01*
X199668434Y-93721956D01*
X199684110Y-93723500D01*
X224315890Y-93723500D01*
X224329752Y-93722135D01*
X224332810Y-93722156D01*
X224337305Y-93721716D01*
X224434354Y-93711516D01*
X224463090Y-93705617D01*
X224491876Y-93700126D01*
X224496198Y-93698822D01*
X224496204Y-93698820D01*
X224589419Y-93669965D01*
X224616433Y-93658609D01*
X224643635Y-93647618D01*
X224647624Y-93645498D01*
X224733462Y-93599085D01*
X224757822Y-93582654D01*
X224782302Y-93566634D01*
X224785803Y-93563780D01*
X224860992Y-93501578D01*
X224881662Y-93480763D01*
X224902598Y-93460261D01*
X224905478Y-93456781D01*
X224967154Y-93381160D01*
X224983376Y-93356744D01*
X224999947Y-93332542D01*
X225002095Y-93328568D01*
X225047907Y-93242408D01*
X225059080Y-93215300D01*
X225070629Y-93188353D01*
X225071965Y-93184038D01*
X225100170Y-93090620D01*
X225105860Y-93061884D01*
X225111962Y-93033176D01*
X225112434Y-93028684D01*
X225121956Y-92931566D01*
X225123500Y-92915890D01*
X225123500Y-81084110D01*
X225122135Y-81070248D01*
X225122156Y-81067191D01*
X225121716Y-81062695D01*
X225111516Y-80965647D01*
X225105620Y-80936924D01*
X225100126Y-80908124D01*
X225098821Y-80903800D01*
X225069965Y-80810581D01*
X225058603Y-80783552D01*
X225047618Y-80756364D01*
X225045497Y-80752376D01*
X224999085Y-80666538D01*
X224982654Y-80642178D01*
X224966634Y-80617698D01*
X224963780Y-80614197D01*
X224901578Y-80539008D01*
X224880763Y-80518338D01*
X224860261Y-80497402D01*
X224856780Y-80494522D01*
X224781160Y-80432846D01*
X224756744Y-80416624D01*
X224732542Y-80400053D01*
X224728568Y-80397905D01*
X224642407Y-80352093D01*
X224615313Y-80340926D01*
X224588353Y-80329371D01*
X224584038Y-80328035D01*
X224490620Y-80299830D01*
X224461884Y-80294140D01*
X224433176Y-80288038D01*
X224428688Y-80287566D01*
X224428684Y-80287566D01*
X224331567Y-80278044D01*
X224331566Y-80278044D01*
X224315890Y-80276500D01*
X199684110Y-80276500D01*
X199670248Y-80277865D01*
X199667191Y-80277844D01*
X199662695Y-80278284D01*
X199565647Y-80288484D01*
X199536924Y-80294380D01*
X199508124Y-80299874D01*
X199503800Y-80301179D01*
X199410581Y-80330035D01*
X199383552Y-80341397D01*
X199356364Y-80352382D01*
X199352376Y-80354503D01*
X199266538Y-80400915D01*
X199242178Y-80417346D01*
X199217698Y-80433366D01*
X199214197Y-80436220D01*
X199139008Y-80498422D01*
X199118338Y-80519237D01*
X199097402Y-80539739D01*
X199094522Y-80543220D01*
X199032846Y-80618840D01*
X199016624Y-80643256D01*
X199000053Y-80667458D01*
X198997905Y-80671432D01*
X198952093Y-80757593D01*
X198940926Y-80784687D01*
X198929371Y-80811647D01*
X198928035Y-80815962D01*
X198899830Y-80909380D01*
X198894140Y-80938116D01*
X198888038Y-80966824D01*
X198887566Y-80971316D01*
X198878168Y-81067171D01*
X198876500Y-81084111D01*
X194923500Y-81084111D01*
X194923500Y-64594856D01*
X207886500Y-64594856D01*
X207886500Y-65405144D01*
X208044580Y-66199864D01*
X208354664Y-66948473D01*
X208804836Y-67622203D01*
X209377797Y-68195164D01*
X210051527Y-68645336D01*
X210800136Y-68955420D01*
X211594856Y-69113500D01*
X212405144Y-69113500D01*
X213199864Y-68955420D01*
X213948473Y-68645336D01*
X214622203Y-68195164D01*
X215195164Y-67622203D01*
X215645336Y-66948473D01*
X215955420Y-66199864D01*
X216113500Y-65405144D01*
X216113500Y-64594856D01*
X215955420Y-63800136D01*
X215645336Y-63051527D01*
X215195164Y-62377797D01*
X214622203Y-61804836D01*
X213948473Y-61354664D01*
X213199864Y-61044580D01*
X212405144Y-60886500D01*
X211594856Y-60886500D01*
X210800136Y-61044580D01*
X210051527Y-61354664D01*
X209377797Y-61804836D01*
X208804836Y-62377797D01*
X208354664Y-63051527D01*
X208044580Y-63800136D01*
X207886500Y-64594856D01*
X194923500Y-64594856D01*
X194923500Y-60973484D01*
X195000000Y-60973484D01*
X195404517Y-60933643D01*
X195793488Y-60815649D01*
X196151966Y-60624039D01*
X196466175Y-60366175D01*
X196724039Y-60051966D01*
X196781480Y-59944500D01*
X213736500Y-59944500D01*
X213736500Y-60055500D01*
X213758155Y-60164367D01*
X213800632Y-60266918D01*
X213862301Y-60359211D01*
X213940789Y-60437699D01*
X214033082Y-60499368D01*
X214135633Y-60541845D01*
X214244500Y-60563500D01*
X214355500Y-60563500D01*
X214464367Y-60541845D01*
X214566918Y-60499368D01*
X214659211Y-60437699D01*
X214708410Y-60388500D01*
X215891590Y-60388500D01*
X215940789Y-60437699D01*
X216033082Y-60499368D01*
X216135633Y-60541845D01*
X216244500Y-60563500D01*
X216355500Y-60563500D01*
X216464367Y-60541845D01*
X216566918Y-60499368D01*
X216659211Y-60437699D01*
X216737699Y-60359211D01*
X216799368Y-60266918D01*
X216841845Y-60164367D01*
X216863500Y-60055500D01*
X216863500Y-59944500D01*
X216841845Y-59835633D01*
X216799368Y-59733082D01*
X216737699Y-59640789D01*
X216659211Y-59562301D01*
X216566918Y-59500632D01*
X216464367Y-59458155D01*
X216355500Y-59436500D01*
X216244500Y-59436500D01*
X216135633Y-59458155D01*
X216033082Y-59500632D01*
X215940789Y-59562301D01*
X215891590Y-59611500D01*
X214708410Y-59611500D01*
X214659211Y-59562301D01*
X214566918Y-59500632D01*
X214464367Y-59458155D01*
X214355500Y-59436500D01*
X214244500Y-59436500D01*
X214135633Y-59458155D01*
X214033082Y-59500632D01*
X213940789Y-59562301D01*
X213862301Y-59640789D01*
X213800632Y-59733082D01*
X213758155Y-59835633D01*
X213736500Y-59944500D01*
X196781480Y-59944500D01*
X196915649Y-59693488D01*
X197033643Y-59304517D01*
X197073484Y-58900000D01*
X197073484Y-52368272D01*
X224686500Y-52368272D01*
X224686500Y-52971728D01*
X224804229Y-53563590D01*
X225035161Y-54121111D01*
X225370424Y-54622867D01*
X225797133Y-55049576D01*
X226298889Y-55384839D01*
X226856410Y-55615771D01*
X227448272Y-55733500D01*
X228051728Y-55733500D01*
X228643590Y-55615771D01*
X229201111Y-55384839D01*
X229702867Y-55049576D01*
X230129576Y-54622867D01*
X230464839Y-54121111D01*
X230695771Y-53563590D01*
X230813500Y-52971728D01*
X230813500Y-52368272D01*
X230695771Y-51776410D01*
X230464839Y-51218889D01*
X230129576Y-50717133D01*
X229702867Y-50290424D01*
X229201111Y-49955161D01*
X228643590Y-49724229D01*
X228051728Y-49606500D01*
X227448272Y-49606500D01*
X226856410Y-49724229D01*
X226298889Y-49955161D01*
X225797133Y-50290424D01*
X225370424Y-50717133D01*
X225035161Y-51218889D01*
X224804229Y-51776410D01*
X224686500Y-52368272D01*
X197073484Y-52368272D01*
X197073484Y-51100000D01*
X197033643Y-50695483D01*
X196915649Y-50306512D01*
X196724039Y-49948034D01*
X196466175Y-49633825D01*
X196151966Y-49375961D01*
X195793488Y-49184351D01*
X195708269Y-49158500D01*
X228595892Y-49158500D01*
X229309264Y-49228446D01*
G37*
%TD.AperFunction*%
%TD*%
M02*
