<?xml version="1.0" encoding="UTF-8"?>
<!DOCTYPE svg PUBLIC "-//W3C//DTD SVG 1.1//EN" "http://www.w3.org/Graphics/SVG/1.1/DTD/svg11.dtd">

<svg xmlns="http://www.w3.org/2000/svg" xmlns:xlink="http://www.w3.org/1999/xlink" xmlns:xs="http://www.w3.org/2001/XMLSchema" xmlns:wb="http://www.ti.com/webench" version="1.1" width="100%" height="100%" viewBox="0 0 1395.0 530.0" preserveAspectRatio="xMidYMid meet">
  <defs>
    <g id="WB_CONTINUATION">
      <circle xmlns="" opacity="0.01" fill="#ffffff" stroke="#000000" stroke-width="0" cx="0" cy="0" r="14" />
      <line fill="none" stroke="#CC0000" stroke-width="2" x1="0" y1="10" x2="0" y2="-10" />
      <line fill="none" stroke="#CC0000" stroke-width="2" x1="-10" y1="-10" x2="10" y2="-10" />
    </g>
    <g id="WB_BLOCK_IO">
      <circle xmlns="" opacity="0.01" fill="#ffffff" stroke="#000000" stroke-width="0" cx="0" cy="0" r="14" />
      <line stroke="#CC0000" fill="none" stroke-width="2" x1="-5" y1="0" x2="5" y2="0" />
    </g>
    <g id="WB_RESISTOR">
      <circle xmlns="" opacity="0.01" fill="#ffffff" stroke="#000000" stroke-width="0" cx="0" cy="0" r="14" />
      <polyline fill="none" stroke="#115566" stroke-width="2" stroke-linecap="round" stroke-linejoin="round" points="30,0 20,0 15,-6 7.5,6 0,-6 -7.5,6 -15,-6 -20,0 -30,0" />
    </g>
    <g id="WB_STARTUP_VOLTAGE_SOURCE">
      <circle xmlns="" opacity="0.01" fill="#ffffff" stroke="#000000" stroke-width="0" cx="0" cy="0" r="14" />
      <circle fill-opacity="0.01" fill="#CC0000" stroke="#CC0000" stroke-width="2" cx="0" cy="0" r="14" />
      <polyline fill="none" stroke="#CC0000" stroke-width="2" points="-6,-11 -6,7 5,9 5,12 " />
      <line fill="none" stroke="#CC0000" stroke-width="2" x1="16" y1="-12" x2="16" y2="-18" />
      <line fill="none" stroke="#CC0000" stroke-width="2" x1="-17" y1="-12" x2="-17" y2="-18" />
      <line fill="none" stroke="#CC0000" stroke-width="2" x1="-14" y1="-15" x2="-20" y2="-15" />
      <line fill="none" stroke="#CC0000" stroke-width="2" x1="-15" y1="0" x2="-30" y2="0" />
      <line fill="none" stroke="#CC0000" stroke-width="2" x1="30" y1="0" x2="15" y2="0" />
    </g>
    <g id="WB_SOURCE_RESISTOR">
      <circle xmlns="" opacity="0.01" fill="#ffffff" stroke="#000000" stroke-width="0" cx="0" cy="0" r="14" />
      <polyline fill="none" stroke="#CC0000" stroke-width="2" stroke-linecap="round" stroke-linejoin="round" points="30,0 20,0 15,-6 7.5,6 0,-6 -7.5,6 -15,-6 -20,0 -30,0" />
    </g>
    <g id="WB_PRIM_STARTUP_VOLTAGE_SOURCE">
      <circle xmlns="" opacity="0.01" fill="#ffffff" stroke="#000000" stroke-width="0" cx="0" cy="0" r="14" />
      <circle fill-opacity="0.01" fill="#CC0000" stroke="#CC0000" stroke-width="2" cx="0" cy="0" r="14" />
      <polyline fill="none" stroke="#CC0000" stroke-width="2" points="-6,-11 -6,7 5,9 5,12 " />
      <line fill="none" stroke="#CC0000" stroke-width="2" x1="16" y1="-12" x2="16" y2="-18" />
      <line fill="none" stroke="#CC0000" stroke-width="2" x1="-17" y1="-12" x2="-17" y2="-18" />
      <line fill="none" stroke="#CC0000" stroke-width="2" x1="-14" y1="-15" x2="-20" y2="-15" />
      <line fill="none" stroke="#CC0000" stroke-width="2" x1="-15" y1="0" x2="-30" y2="0" />
      <line fill="none" stroke="#CC0000" stroke-width="2" x1="30" y1="0" x2="15" y2="0" />
    </g>
    <g id="WB_CURRENT_PROBE">
      <circle xmlns="" opacity="0.01" fill="#ffffff" stroke="#000000" stroke-width="0" cx="0" cy="0" r="14" />
      <line stroke="#CC0000" stroke-width="2" stroke-linecap="square" stroke-linejoin="round" x1="-16" y1="0" x2="-10" y2="0" />
      <polyline stroke="#CC0000" stroke-width="2" stroke-linecap="square" stroke-linejoin="round" points="6,0 3,-3.5 3,3.5 6,0 -6,0 " />
      <line stroke="#CC0000" stroke-width="2" stroke-linecap="square" stroke-linejoin="round" x1="10" y1="0" x2="16" y2="0" />
      <rect stroke-width="1" x="-9.5" y="-7" fill="none" stroke="#CC0000" width="19" height="14" />
    </g>
    <g id="WB_PWL_CURRENT_LOAD">
      <circle xmlns="" opacity="0.01" fill="#ffffff" stroke="#000000" stroke-width="0" cx="0" cy="0" r="14" />
      <circle fill-opacity="0.01" fill="#CC0000" stroke="#CC0000" stroke-width="2" cx="0" cy="0" r="14" />
      <line y1="0" x2="-20" stroke="#CC0000" x1="-30" fill="none" stroke-width="2" y2="0" />
      <line y1="0" x2="20" stroke="#CC0000" x1="30" fill="none" stroke-width="2" y2="0" />
      <polyline stroke="#CC0000" points="-7,6 4,8  " stroke-linejoin="round" fill="none" stroke-width="2" stroke-linecap="round" />
      <polyline stroke="#CC0000" points="-7,-6 4,-8  " stroke-linejoin="round" fill="none" stroke-width="2" stroke-linecap="round" />
      <polyline stroke="#CC0000" points="-20,0 -15,0  " stroke-linejoin="round" fill="none" stroke-width="2" stroke-linecap="round" />
      <polyline stroke="#CC0000" points="20,0 15,0  " stroke-linejoin="round" fill="none" stroke-width="2" stroke-linecap="round" />
      <polyline stroke="#CC0000" points="-7,-6 -7,6  " stroke-linejoin="round" fill="none" stroke-width="2" stroke-linecap="round" />
      <polyline stroke="#CC0000" points="4,-8 4,-11  " stroke-linejoin="round" fill="none" stroke-width="2" stroke-linecap="round" />
      <polyline stroke="#CC0000" points="4,8 4,11  " stroke-linejoin="round" fill="none" stroke-width="2" stroke-linecap="round" />
      <line x1="23" y1="-13" x2="23" y2="-7" stroke="#CC0000" fill="none" stroke-width="2" stroke-linecap="round" />
      <line x1="-23" y1="-13" x2="-23" y2="-7" stroke="#CC0000" fill="none" stroke-width="2" stroke-linecap="round" />
      <line x1="-26" y1="-10" x2="-20" y2="-10" stroke="#CC0000" fill="none" stroke-width="2" stroke-linecap="round" />
    </g>
    <g id="WB_CAPACITOR">
      <circle xmlns="" opacity="0.01" fill="#ffffff" stroke="#000000" stroke-width="0" cx="0" cy="0" r="14" />
      <line y1="0" x2="20" stroke="#115566" x1="30" fill="none" stroke-width="2" y2="0" />
      <line y1="0" x2="-20" stroke="#115566" x1="-30" fill="none" stroke-width="2" y2="0" />
      <polyline stroke="#115566" points="3,12 3,-12  " stroke-linejoin="round" fill="none" stroke-width="2" stroke-linecap="round" />
      <polyline stroke="#115566" points="-20,0 -3,0  " stroke-linejoin="round" fill="none" stroke-width="2" stroke-linecap="round" />
      <polyline stroke="#115566" points="3,0 20,0  " stroke-linejoin="round" fill="none" stroke-width="2" stroke-linecap="round" />
      <polyline stroke="#115566" points="-3,12 -3,-12  " stroke-linejoin="round" fill="none" stroke-width="2" stroke-linecap="round" />
    </g>
    <g id="WB_VOLTAGE_PROBE">
      <circle xmlns="" opacity="0.01" fill="#ffffff" stroke="#000000" stroke-width="0" cx="0" cy="0" r="14" />
      <rect stroke-width="1" width="20" stroke="#CC0000" x="-10" height="19.5" y="-30" fill="#CC0000" fill-opacity="0.01" />
      <polyline stroke="#CC0000" points="7,-27 4,-22 3,-26 0,-18 -1,-22 -5,-14  " stroke-linejoin="round" fill="none" stroke-width="2" stroke-linecap="round" />
      <line y1="0" x2="0" stroke="#CC0000" x1="0" fill="none" stroke-width="2" y2="-10" />
    </g>
    <g id="WB_TPS54332">
      <circle xmlns="" opacity="0.01" fill="#ffffff" stroke="#000000" stroke-width="0" cx="0" cy="0" r="14" />
      <rect width="140" height="250" x="-70" y="-125" stroke="#000000" stroke-width="4" fill="#F2F2F2" stroke-linecap="round" stroke-linejoin="round" />
      <text id="partNumber_label" x="0" y="-15" style="font-family:arial;font-weight:bold;font-size:16;text-anchor:middle;">TPS54332</text>
      <line fill="none" stroke="#000000" stroke-width="2" stroke-linecap="round" stroke-linejoin="round" x1="80" y1="-80" x2="70" y2="-80" />
      <text id="1" x="64" y="-76" style="font-family:arial;font-weight:normal;font-size:11;text-anchor:end;">BOOT</text>
      <line fill="none" stroke="#000000" stroke-width="2" stroke-linecap="round" stroke-linejoin="round" x1="-80" y1="-110" x2="-70" y2="-110" />
      <text id="2" x="-64" y="-106" style="font-family:arial;font-weight:normal;font-size:11;text-anchor:start;">VIN</text>
      <line fill="none" stroke="#000000" stroke-width="2" stroke-linecap="round" stroke-linejoin="round" x1="-80" y1="-50" x2="-70" y2="-50" />
      <text id="3" x="-64" y="-46" style="font-family:arial;font-weight:normal;font-size:11;text-anchor:start;">EN</text>
      <line fill="none" stroke="#000000" stroke-width="2" stroke-linecap="round" stroke-linejoin="round" x1="-80" y1="50" x2="-70" y2="50" />
      <text id="4" x="-64" y="54" style="font-family:arial;font-weight:normal;font-size:11;text-anchor:start;">SS</text>
      <line fill="none" stroke="#000000" stroke-width="2" stroke-linecap="round" stroke-linejoin="round" x1="80" y1="80" x2="70" y2="80" />
      <text id="5" x="64" y="84" style="font-family:arial;font-weight:normal;font-size:11;text-anchor:end;">VSENSE</text>
      <line fill="none" stroke="#000000" stroke-width="2" stroke-linecap="round" stroke-linejoin="round" x1="-80" y1="20" x2="-70" y2="20" />
      <text id="6" x="-64" y="24" style="font-family:arial;font-weight:normal;font-size:11;text-anchor:start;">COMP</text>
      <line fill="none" stroke="#000000" stroke-width="2" stroke-linecap="round" stroke-linejoin="round" x1="80" y1="110" x2="70" y2="110" />
      <text id="7" x="64" y="114" style="font-family:arial;font-weight:normal;font-size:11;text-anchor:end;">GND</text>
      <line fill="none" stroke="#000000" stroke-width="2" stroke-linecap="round" stroke-linejoin="round" x1="80" y1="-50" x2="70" y2="-50" />
      <text id="8" x="64" y="-46" style="font-family:arial;font-weight:normal;font-size:11;text-anchor:end;">PH</text>
    </g>
    <g id="WB_GND">
      <circle xmlns="" opacity="0.01" fill="#ffffff" stroke="#000000" stroke-width="0" cx="0" cy="0" r="14" />
      <line fill="none" stroke="black" stroke-width="2" x1="0" y1="-10" x2="0" y2="0" />
      <line fill="none" stroke="black" stroke-width="2" x1="-13" y1="0" x2="13" y2="0" />
      <line fill="none" stroke="black" stroke-width="2" x1="-9" y1="4" x2="9" y2="4" />
      <line fill="none" stroke="black" stroke-width="2" x1="-3" y1="8" x2="3" y2="8" />
    </g>
    <g id="WB_INDUCTOR">
      <circle xmlns="" opacity="0.01" fill="#ffffff" stroke="#000000" stroke-width="0" cx="0" cy="0" r="14" />
      <path fill="none" stroke="#115566" stroke-width="2" stroke-linecap="round" stroke-linejoin="round" d="M-10,0c0-0.6-0.2-1.8-0.6-3.3c-0.5-2.4-2-3.7-4.4-4c-2.4,0.3-3.8,1.6-4.3,4c-0.6,2.3-0.8,3.6-0.7,3M-20,0H-30" />
      <path fill="none" stroke="#115566" stroke-width="2" stroke-linecap="round" stroke-linejoin="round" d="M0,0c0-0.6-0.2-1.8-0.6-3.3c-0.5-2.4-2-3.7-4.4-4c-2.4,0.3-3.8,1.6-4.3,4c-0.6,2.3-0.8,3.6-0.7,4" />
      <path fill="none" stroke="#115566" stroke-width="2" stroke-linecap="round" stroke-linejoin="round" d="M10,0c0-0.6-0.2-1.8-0.6-3.3c-0.5-2.4-2-3.7-4.4-4c-2.4,0.3-3.8,1.6-4.3,4c-0.6,2.3-0.8,3.6-0.7,4" />
      <path fill="none" stroke="#115566" stroke-width="2" stroke-linecap="round" stroke-linejoin="round" d="M30,0H20c0-0.6-0.2-1.8-0.6-3.3c-0.5-2.4-2-3.7-4.4-4c-2.4,0.3-3.8,1.6-4.3,4c-0.6,2.3-0.8,3.6-0.7,4" />
      <path fill="none" stroke="#115566" stroke-width="2" stroke-linecap="round" stroke-linejoin="round" d=" M10,0 c0.1,0.4,0.1,0.6,0,0.7" />
      <path fill="none" stroke="#115566" stroke-width="2" stroke-linecap="round" stroke-linejoin="round" d=" M0,0  c0.1,0.4,0.1,0.6,0,0.7" />
      <path fill="none" stroke="#115566" stroke-width="2" stroke-linecap="round" stroke-linejoin="round" d=" M-10,0c0.1,0.4,0.1,0.6,0,0.7" />
    </g>
    <g id="WB_DIODE">
      <circle xmlns="" opacity="0.01" fill="#ffffff" stroke="#000000" stroke-width="0" cx="0" cy="0" r="14" />
      <path fill="#115566" d="M-11,0L10,-12,10,12 -11,0" />
      <line fill="none" stroke="#115566" stroke-width="2" x1="30" y1="0" x2="-30" y2="0" />
      <line fill="none" stroke="#115566" stroke-width="2" x1="-10" y1="12" x2="-10" y2="-12" />
    </g>
    <g id="WB_CURRENT_LOAD">
      <circle xmlns="" opacity="0.01" fill="#ffffff" stroke="#000000" stroke-width="0" cx="0" cy="0" r="14" />
      <path fill="none" stroke="#CC0000" stroke-width="2" stroke-linecap="round" stroke-linejoin="round" d="M-15,0c 0.1, 4.2, 1.6, 7.7, 4.4, 10.6c 2.8, 2.8, 6.4, 4.3, 10.6, 4.4c 4.3-0.1, 7.8-1.6, 10.6 -4.4c 2.9-2.9, 4.3-6.4, 4.4-10.6" />
      <path fill="none" stroke="#CC0000" stroke-width="2" stroke-linecap="round" stroke-linejoin="round" d="M15,0c -0.1,-4.2,-1.6,-7.7,-4.4,-10.6c-2.8,-2.8,-6.4,-4.3,-10.6,-4.4c-4.3,0.1 -7.8,1.6 -10.6,4.4c-2.9,2.9 -4.3,6.4 -4.4,10.6" />
      <line fill="none" stroke="#CC0000" stroke-width="2" x1="30" y1="0" x2="15" y2="0" />
      <line fill="none" stroke="#CC0000" stroke-width="2" x1="-15" y1="0" x2="-30" y2="0" />
      <line fill="none" stroke="#CC0000" stroke-width="2" stroke-linecap="round" stroke-linejoin="round" x1="3" y1="7" x2="12" y2="0" />
      <line fill="none" stroke="#CC0000" stroke-width="2" stroke-linecap="round" stroke-linejoin="round" x1="3" y1="-7" x2="12" y2="0" />
      <line fill="none" stroke="#CC0000" stroke-width="2" stroke-linecap="round" stroke-linejoin="round" x1="12" y1="0" x2="-12" y2="0" />
    </g>
    <g id="WB_PRIM_AC_VOLTAGE_SOURCE">
      <circle xmlns="" opacity="0.01" fill="#ffffff" stroke="#000000" stroke-width="0" cx="0" cy="0" r="14" />
      <circle fill-opacity="0.01" fill="#CC0000" stroke="#CC0000" stroke-width="2" cx="0" cy="0" r="14" />
      <line y1="0" x2="-20" stroke="#CC0000" x1="-30" fill="none" stroke-width="2" y2="0" />
      <line y1="0" x2="20" stroke="#CC0000" x1="30" fill="none" stroke-width="2" y2="0" />
      <polyline stroke="#CC0000" points="-20,0 -15,0  " stroke-linejoin="round" fill="none" stroke-width="2" stroke-linecap="round" />
      <polyline stroke="#CC0000" points="20,0 15,0  " stroke-linejoin="round" fill="none" stroke-width="2" stroke-linecap="round" />
      <path stroke="#CC0000" d="M0,10A5,5 0 0,1 0,0 " fill="none" stroke-width="2" stroke-linecap="round" />
      <path stroke="#CC0000" d="M0-10A5,5 0 1,1 0,0 " fill="none" stroke-width="2" stroke-linecap="round" />
      <line x1="23" y1="-13" x2="23" y2="-7" stroke="#CC0000" fill="none" stroke-width="2" stroke-linecap="round" />
      <line x1="-23" y1="-13" x2="-23" y2="-7" stroke="#CC0000" fill="none" stroke-width="2" stroke-linecap="round" />
      <line x1="-26" y1="-10" x2="-20" y2="-10" stroke="#CC0000" fill="none" stroke-width="2" stroke-linecap="round" />
    </g>
    <g id="WB_PRIMITIVE_CAPACITOR">
      <circle xmlns="" opacity="0.01" fill="#ffffff" stroke="#000000" stroke-width="0" cx="0" cy="0" r="14" />
      <line y1="0" x2="20" stroke="#CC0000" x1="30" fill="none" stroke-width="2" y2="0" />
      <line y1="0" x2="-20" stroke="#CC0000" x1="-30" fill="none" stroke-width="2" y2="0" />
      <polyline stroke="#CC0000" points="3,12 3,-12  " stroke-linejoin="round" fill="none" stroke-width="2" stroke-linecap="round" />
      <polyline stroke="#CC0000" points="-20,0 -3,0  " stroke-linejoin="round" fill="none" stroke-width="2" stroke-linecap="round" />
      <polyline stroke="#CC0000" points="3,0 20,0  " stroke-linejoin="round" fill="none" stroke-width="2" stroke-linecap="round" />
      <polyline stroke="#CC0000" points="-3,12 -3,-12  " stroke-linejoin="round" fill="none" stroke-width="2" stroke-linecap="round" />
    </g>
    <g id="WB_PRIMITIVE_INDUCTOR">
      <circle xmlns="" opacity="0.01" fill="#ffffff" stroke="#000000" stroke-width="0" cx="0" cy="0" r="14" />
      <path fill="none" stroke="#CC0000" stroke-width="2" stroke-linecap="round" stroke-linejoin="round" d="M-10,0c0-0.6-0.2-1.8-0.6-3.3c-0.5-2.4-2-3.7-4.4-4c-2.4,0.3-3.8,1.6-4.3,4c-0.6,2.3-0.8,3.6-0.7,3M-20,0H-30" />
      <path fill="none" stroke="#CC0000" stroke-width="2" stroke-linecap="round" stroke-linejoin="round" d="M0,0c0-0.6-0.2-1.8-0.6-3.3c-0.5-2.4-2-3.7-4.4-4c-2.4,0.3-3.8,1.6-4.3,4c-0.6,2.3-0.8,3.6-0.7,4" />
      <path fill="none" stroke="#CC0000" stroke-width="2" stroke-linecap="round" stroke-linejoin="round" d="M10,0c0-0.6-0.2-1.8-0.6-3.3c-0.5-2.4-2-3.7-4.4-4c-2.4,0.3-3.8,1.6-4.3,4c-0.6,2.3-0.8,3.6-0.7,4" />
      <path fill="none" stroke="#CC0000" stroke-width="2" stroke-linecap="round" stroke-linejoin="round" d="M30,0H20c0-0.6-0.2-1.8-0.6-3.3c-0.5-2.4-2-3.7-4.4-4c-2.4,0.3-3.8,1.6-4.3,4c-0.6,2.3-0.8,3.6-0.7,4" />
      <path fill="none" stroke="#CC0000" stroke-width="2" stroke-linecap="round" stroke-linejoin="round" d=" M10,0 c0.1,0.4,0.1,0.6,0,0.7" />
      <path fill="none" stroke="#CC0000" stroke-width="2" stroke-linecap="round" stroke-linejoin="round" d=" M0,0  c0.1,0.4,0.1,0.6,0,0.7" />
      <path fill="none" stroke="#CC0000" stroke-width="2" stroke-linecap="round" stroke-linejoin="round" d=" M-10,0c0.1,0.4,0.1,0.6,0,0.7" />
    </g>
    <g id="WB_PWL_VOLTAGE_SOURCE">
      <circle xmlns="" opacity="0.01" fill="#ffffff" stroke="#000000" stroke-width="0" cx="0" cy="0" r="14" />
      <circle fill-opacity="0.01" fill="#CC0000" stroke="#CC0000" stroke-width="2" cx="0" cy="0" r="14" />
      <line y1="0" x2="-20" stroke="#CC0000" x1="-30" fill="none" stroke-width="2" y2="0" />
      <line y1="0" x2="20" stroke="#CC0000" x1="30" fill="none" stroke-width="2" y2="0" />
      <polyline stroke="#CC0000" points="-7,6 4,8  " stroke-linejoin="round" fill="none" stroke-width="2" stroke-linecap="round" />
      <polyline stroke="#CC0000" points="-7,-6 4,-8  " stroke-linejoin="round" fill="none" stroke-width="2" stroke-linecap="round" />
      <polyline stroke="#CC0000" points="-20,0 -15,0  " stroke-linejoin="round" fill="none" stroke-width="2" stroke-linecap="round" />
      <polyline stroke="#CC0000" points="20,0 15,0  " stroke-linejoin="round" fill="none" stroke-width="2" stroke-linecap="round" />
      <polyline stroke="#CC0000" points="-7,-6 -7,6  " stroke-linejoin="round" fill="none" stroke-width="2" stroke-linecap="round" />
      <polyline stroke="#CC0000" points="4,-8 4,-11  " stroke-linejoin="round" fill="none" stroke-width="2" stroke-linecap="round" />
      <polyline stroke="#CC0000" points="4,8 4,11  " stroke-linejoin="round" fill="none" stroke-width="2" stroke-linecap="round" />
      <line x1="23" y1="-13" x2="23" y2="-7" stroke="#CC0000" fill="none" stroke-width="2" stroke-linecap="round" />
      <line x1="-23" y1="-13" x2="-23" y2="-7" stroke="#CC0000" fill="none" stroke-width="2" stroke-linecap="round" />
      <line x1="-26" y1="-10" x2="-20" y2="-10" stroke="#CC0000" fill="none" stroke-width="2" stroke-linecap="round" />
    </g>
    <g id="WB_PRIM_PWL_VOLTAGE_SOURCE">
      <circle xmlns="" opacity="0.01" fill="#ffffff" stroke="#000000" stroke-width="0" cx="0" cy="0" r="14" />
      <circle fill-opacity="0.01" fill="#CC0000" stroke="#CC0000" stroke-width="2" cx="0" cy="0" r="14" />
      <line x1="-30" y1="0" x2="-15" y2="0" stroke="#CC0000" fill="none" stroke-width="2" />
      <line x1="30" y1="0" x2="15" y2="0" stroke="#CC0000" fill="none" stroke-width="2" />
      <polyline stroke="#CC0000" points="0,13 0,8 -7,6 -7,0 7,-4 0,-8 0,-13" stroke-linejoin="round" fill="none" stroke-width="2" stroke-linecap="round" />
      <line x1="23" y1="-13" x2="23" y2="-7" stroke="#CC0000" fill="none" stroke-width="2" stroke-linecap="round" />
      <line x1="-23" y1="-13" x2="-23" y2="-7" stroke="#CC0000" fill="none" stroke-width="2" stroke-linecap="round" />
      <line x1="-26" y1="-10" x2="-20" y2="-10" stroke="#CC0000" fill="none" stroke-width="2" stroke-linecap="round" />
    </g>
    <g id="WB_LOAD_RESISTOR">
      <circle xmlns="" opacity="0.01" fill="#ffffff" stroke="#000000" stroke-width="0" cx="0" cy="0" r="14" />
      <polyline fill="none" stroke="#CC0000" stroke-width="2" stroke-linecap="round" stroke-linejoin="round" points="30,0 20,0 15,-6 7.5,6 0,-6 -7.5,6 -15,-6 -20,0 -30,0" />
    </g>
    <g id="WB_PRIMITIVE_BATTERY">
      <circle xmlns="" opacity="0.01" fill="#ffffff" stroke="#000000" stroke-width="0" cx="0" cy="0" r="14" />
      <line fill="none" stroke="#CC0000" stroke-width="2" x1="-8" y1="0" x2="-30" y2="0" />
      <line fill="none" stroke="#CC0000" stroke-width="2" x1="-7" y1="12" x2="-7" y2="-12" />
      <line fill="none" stroke="#CC0000" stroke-width="2" x1="4" y1="12" x2="4" y2="-12" />
      <line fill="none" stroke="#CC0000" stroke-width="2" x1="30" y1="0" x2="11" y2="0" />
      <line fill="none" stroke="#CC0000" stroke-width="2" x1="-2" y1="5" x2="-2" y2="-5" />
      <line fill="none" stroke="#CC0000" stroke-width="2" x1="-1" y1="5" x2="-1" y2="-5" />
      <line fill="none" stroke="#CC0000" stroke-width="2" x1="-14" y1="-9" x2="-14" y2="-15" />
      <line fill="none" stroke="#CC0000" stroke-width="2" x1="-11" y1="-12" x2="-17" y2="-12" />
      <line fill="none" stroke="#CC0000" stroke-width="2" x1="13" y1="-10" x2="13" y2="-15" />
      <line fill="none" stroke="#CC0000" stroke-width="2" x1="10" y1="5" x2="10" y2="-5" />
      <line fill="none" stroke="#CC0000" stroke-width="2" x1="9" y1="5" x2="9" y2="-5" />
    </g>
    <g id="WB_BATTERY">
      <circle xmlns="" opacity="0.01" fill="#ffffff" stroke="#000000" stroke-width="0" cx="0" cy="0" r="14" />
      <line fill="none" stroke="#CC0000" stroke-width="2" x1="-8" y1="0" x2="-30" y2="0" />
      <line fill="none" stroke="#CC0000" stroke-width="2" x1="-7" y1="12" x2="-7" y2="-12" />
      <line fill="none" stroke="#CC0000" stroke-width="2" x1="4" y1="12" x2="4" y2="-12" />
      <line fill="none" stroke="#CC0000" stroke-width="2" x1="30" y1="0" x2="11" y2="0" />
      <line fill="none" stroke="#CC0000" stroke-width="2" x1="-2" y1="5" x2="-2" y2="-5" />
      <line fill="none" stroke="#CC0000" stroke-width="2" x1="-1" y1="5" x2="-1" y2="-5" />
      <line fill="none" stroke="#CC0000" stroke-width="2" x1="-14" y1="-9" x2="-14" y2="-15" />
      <line fill="none" stroke="#CC0000" stroke-width="2" x1="-11" y1="-12" x2="-17" y2="-12" />
      <line fill="none" stroke="#CC0000" stroke-width="2" x1="13" y1="-10" x2="13" y2="-15" />
      <line fill="none" stroke="#CC0000" stroke-width="2" x1="10" y1="5" x2="10" y2="-5" />
      <line fill="none" stroke="#CC0000" stroke-width="2" x1="9" y1="5" x2="9" y2="-5" />
    </g>
  </defs>
  <use id="Css" class="comp" xlink:href="#WB_CAPACITOR" x="535.0" y="370.0" transform="rotate(-90, 535.0, 370.0)" cap="15nF" partNo="GRM155R71C153KA01D" thermalId="0402" esr="1mOhm" manufacturer="MuRata" />
  <text for="Css" x="550.0" y="370.0" style="font-family:arial;font-size:13px;stroke-width:0.5;stroke:#115566;fill:#115566;">Css</text>
  <text for="Css" x="550.0" y="380.0" style="font-family:arial;font-size:10px;stroke-width:0.1;stroke:#CC0000;fill:#CC0000;">15nF</text>
  <text for="Css" x="550.0" y="390.0" style="font-family:arial;font-size:10px;stroke-width:0.1;stroke:#CC0000;fill:#CC0000;">1mOhm</text>
  <use id="Ccomp2" class="comp" xlink:href="#WB_CAPACITOR" x="355.0" y="370.0" transform="rotate(-90, 355.0, 370.0)" cap="10pF" partNo="CL21C100JBANNNC" thermalId="0805" esr="0Ohm" manufacturer="Samsung Electro-Mechanics" />
  <text for="Ccomp2" x="370.0" y="370.0" style="font-family:arial;font-size:13px;stroke-width:0.5;stroke:#115566;fill:#115566;">Ccomp2</text>
  <text for="Ccomp2" x="370.0" y="380.0" style="font-family:arial;font-size:10px;stroke-width:0.1;stroke:#CC0000;fill:#CC0000;">10pF</text>
  <text for="Ccomp2" x="370.0" y="390.0" style="font-family:arial;font-size:10px;stroke-width:0.1;stroke:#CC0000;fill:#CC0000;">0Ohm</text>
  <use id="U1" class="comp" xlink:href="#WB_TPS54332" x="675.0" y="250.0" />
  <text for="U1" x="655.0" y="250.0" style="font-family:arial;font-size:13px;stroke-width:0.5;stroke:#115566;fill:#115566;">U1</text>
  <use id="Rfbb" class="comp" xlink:href="#WB_RESISTOR" x="1100.0" y="380.0" transform="rotate(-90, 1100.0, 380.0)" partNo="RC0603FR-071K8L" manufacturer="Yageo" thermalId="0603" resistance="1.8kOhm" />
  <text for="Rfbb" x="1115.0" y="380.0" style="font-family:arial;font-size:13px;stroke-width:0.5;stroke:#115566;fill:#115566;">Rfbb</text>
  <text for="Rfbb" x="1115.0" y="390.0" style="font-family:arial;font-size:10px;stroke-width:0.1;stroke:#CC0000;fill:#CC0000;">1.8kOhm</text>
  <use id="GND" class="other" xlink:href="#WB_GND" x="685.0" y="430.0" />
  <use id="RenB" class="comp" xlink:href="#WB_RESISTOR" x="290.0" y="280.0" transform="rotate(-90, 290.0, 280.0)" partNo="RC0603FR-0768KL" manufacturer="Yageo" thermalId="0603" resistance="68kOhm" />
  <text for="RenB" x="305.0" y="280.0" style="font-family:arial;font-size:13px;stroke-width:0.5;stroke:#115566;fill:#115566;">RenB</text>
  <text for="RenB" x="305.0" y="290.0" style="font-family:arial;font-size:10px;stroke-width:0.1;stroke:#CC0000;fill:#CC0000;">68kOhm</text>
  <use id="RenT" class="comp" xlink:href="#WB_RESISTOR" x="290.0" y="180.0" transform="rotate(-90, 290.0, 180.0)" partNo="RC0603FR-07330KL" manufacturer="Yageo" thermalId="0603" resistance="330kOhm" />
  <text for="RenT" x="305.0" y="180.0" style="font-family:arial;font-size:13px;stroke-width:0.5;stroke:#115566;fill:#115566;">RenT</text>
  <text for="RenT" x="305.0" y="190.0" style="font-family:arial;font-size:10px;stroke-width:0.1;stroke:#CC0000;fill:#CC0000;">330kOhm</text>
  <use id="Cboot" class="comp" xlink:href="#WB_CAPACITOR" x="845.0" y="170.0" transform="rotate(-90, 845.0, 170.0)" cap="100nF" partNo="GRM155R71A104KA01D" thermalId="0402" esr="1mOhm" manufacturer="MuRata" />
  <text for="Cboot" x="860.0" y="170.0" style="font-family:arial;font-size:13px;stroke-width:0.5;stroke:#115566;fill:#115566;">Cboot</text>
  <text for="Cboot" x="860.0" y="180.0" style="font-family:arial;font-size:10px;stroke-width:0.1;stroke:#CC0000;fill:#CC0000;">100nF</text>
  <text for="Cboot" x="860.0" y="190.0" style="font-family:arial;font-size:10px;stroke-width:0.1;stroke:#CC0000;fill:#CC0000;">1mOhm</text>
  <use id="Cin" class="comp" xlink:href="#WB_CAPACITOR" x="195.0" y="285.0" transform="rotate(-90, 195.0, 285.0)" cap="22uF" partNo="GRM32ER61E226KE15L" thermalId="1210" esr="2mOhm" manufacturer="MuRata" />
  <text for="Cin" x="210.0" y="285.0" style="font-family:arial;font-size:13px;stroke-width:0.5;stroke:#115566;fill:#115566;">Cin</text>
  <text for="Cin" x="210.0" y="295.0" style="font-family:arial;font-size:10px;stroke-width:0.1;stroke:#CC0000;fill:#CC0000;">22uF</text>
  <text for="Cin" x="210.0" y="305.0" style="font-family:arial;font-size:10px;stroke-width:0.1;stroke:#CC0000;fill:#CC0000;">2mOhm</text>
  <use id="L1" class="comp" xlink:href="#WB_INDUCTOR" x="1055.0" y="200.0" transform="rotate(-180, 1055.0, 200.0) scale(1,-1) translate(0,-400.0)" partNo="SRR7032-3R3M" manufacturer="Bourns" thermalId="SRR7032" l="3.3uH" dcr="27mOhm" />
  <text for="L1" x="1035.0" y="185.0" style="font-family:arial;font-size:13px;stroke-width:0.5;stroke:#115566;fill:#115566;">L1</text>
  <text for="L1" x="1035.0" y="220.0" style="font-family:arial;font-size:10px;stroke-width:0.1;stroke:#CC0000;fill:#CC0000;">3.3uH</text>
  <text for="L1" x="1035.0" y="230.0" style="font-family:arial;font-size:10px;stroke-width:0.1;stroke:#CC0000;fill:#CC0000;">27mOhm</text>
  <use id="Rfbt" class="comp" xlink:href="#WB_RESISTOR" x="1100.0" y="260.0" transform="rotate(-90, 1100.0, 260.0)" partNo="RC0603FR-0710KL" manufacturer="Yageo" thermalId="0603" resistance="10kOhm" />
  <text for="Rfbt" x="1115.0" y="260.0" style="font-family:arial;font-size:13px;stroke-width:0.5;stroke:#115566;fill:#115566;">Rfbt</text>
  <text for="Rfbt" x="1115.0" y="270.0" style="font-family:arial;font-size:10px;stroke-width:0.1;stroke:#CC0000;fill:#CC0000;">10kOhm</text>
  <use id="GND2" class="other" xlink:href="#WB_GND" x="960.0" y="295.0" />
  <use id="Cout" class="comp" xlink:href="#WB_CAPACITOR" x="1190.0" y="320.0" transform="rotate(-90, 1190.0, 320.0)" cap="10uF" partNo="C0805C106K8PACTU" thermalId="0805" esr="3mOhm" manufacturer="Kemet" />
  <text for="Cout" x="1205.0" y="320.0" style="font-family:arial;font-size:13px;stroke-width:0.5;stroke:#115566;fill:#115566;">Cout</text>
  <text for="Cout" x="1205.0" y="330.0" style="font-family:arial;font-size:10px;stroke-width:0.1;stroke:#CC0000;fill:#CC0000;">10uF</text>
  <text for="Cout" x="1205.0" y="340.0" style="font-family:arial;font-size:10px;stroke-width:0.1;stroke:#CC0000;fill:#CC0000;">3mOhm</text>
  <text for="Cout" x="1205.0" y="350.0" style="font-family:arial;font-size:10px;stroke-width:0.1;stroke:#CC0000;fill:#CC0000;">Qty=2</text>
  <use id="D1" class="comp" xlink:href="#WB_DIODE" x="960.0" y="245.0" transform="rotate(-270, 960.0, 245.0)" vfatio="525mV" partNo="MBRS340T3G" manufacturer="ON Semiconductor" thermalId="SMC" io="3A" vrrm="" />
  <text for="D1" x="975.0" y="245.0" style="font-family:arial;font-size:13px;stroke-width:0.5;stroke:#115566;fill:#115566;">D1</text>
  <text for="D1" x="975.0" y="255.0" style="font-family:arial;font-size:10px;stroke-width:0.1;stroke:#CC0000;fill:#CC0000;">525mV</text>
  <text for="D1" x="975.0" y="265.0" style="font-family:arial;font-size:10px;stroke-width:0.1;stroke:#CC0000;fill:#CC0000;">3A</text>
  <use id="Ccomp" class="comp" xlink:href="#WB_CAPACITOR" x="455.0" y="375.0" transform="rotate(-90, 455.0, 375.0)" cap="3.9nF" partNo="CGA4C2C0G1H392J060AA" thermalId="0805" esr="0Ohm" manufacturer="TDK" />
  <text for="Ccomp" x="470.0" y="375.0" style="font-family:arial;font-size:13px;stroke-width:0.5;stroke:#115566;fill:#115566;">Ccomp</text>
  <text for="Ccomp" x="470.0" y="385.0" style="font-family:arial;font-size:10px;stroke-width:0.1;stroke:#CC0000;fill:#CC0000;">3.9nF</text>
  <text for="Ccomp" x="470.0" y="395.0" style="font-family:arial;font-size:10px;stroke-width:0.1;stroke:#CC0000;fill:#CC0000;">0Ohm</text>
  <use id="Rcomp" class="comp" xlink:href="#WB_RESISTOR" x="455.0" y="310.0" transform="rotate(-90, 455.0, 310.0)" partNo="RC0603FR-0710KL" manufacturer="Yageo" thermalId="0603" resistance="10kOhm" />
  <text for="Rcomp" x="470.0" y="310.0" style="font-family:arial;font-size:13px;stroke-width:0.5;stroke:#115566;fill:#115566;">Rcomp</text>
  <text for="Rcomp" x="470.0" y="320.0" style="font-family:arial;font-size:10px;stroke-width:0.1;stroke:#CC0000;fill:#CC0000;">10kOhm</text>
  <use id="Vin" class="other" xlink:href="#WB_BATTERY" x="100.0" y="280.0" transform="rotate(-270, 100.0, 280.0)" />
  <text for="Vin" x="115.0" y="280.0" style="font-family:arial;font-size:13px;stroke-width:0.5;stroke:#CC0000;fill:#CC0000;">Vin</text>
  <use id="Iout" class="other" xlink:href="#WB_CURRENT_LOAD" x="1280.0" y="340.0" transform="rotate(-270, 1280.0, 340.0)" />
  <text for="Iout" x="1295.0" y="340.0" style="font-family:arial;font-size:13px;stroke-width:0.5;stroke:#CC0000;fill:#CC0000;">Iout</text>
  <line x1="290.0" y1="250.0" x2="290.0" y2="210.0" stroke="#000000" stroke-width="2" fill="none" />
  <line x1="290.0" y1="215.0" x2="495.0" y2="215.0" stroke="#000000" stroke-width="2" fill="none" />
  <line x1="495.0" y1="215.0" x2="495.0" y2="200.0" stroke="#000000" stroke-width="2" fill="none" />
  <line x1="290.0" y1="150.0" x2="290.0" y2="140.0" stroke="#000000" stroke-width="2" fill="none" />
  <line x1="290.0" y1="420.0" x2="290.0" y2="310.0" stroke="#000000" stroke-width="2" fill="none" />
  <line x1="290.0" y1="150.0" x2="290.0" y2="140.0" stroke="#000000" stroke-width="2" fill="none" />
  <line x1="290.0" y1="420.0" x2="290.0" y2="410.0" stroke="#000000" stroke-width="2" fill="none" />
  <line x1="290.0" y1="150.0" x2="290.0" y2="140.0" stroke="#000000" stroke-width="2" fill="none" />
  <line x1="290.0" y1="420.0" x2="290.0" y2="410.0" stroke="#000000" stroke-width="2" fill="none" />
  <line x1="290.0" y1="150.0" x2="290.0" y2="140.0" stroke="#000000" stroke-width="2" fill="none" />
  <line x1="290.0" y1="420.0" x2="290.0" y2="410.0" stroke="#000000" stroke-width="2" fill="none" />
  <line x1="290.0" y1="150.0" x2="290.0" y2="140.0" stroke="#000000" stroke-width="2" fill="none" />
  <line x1="290.0" y1="420.0" x2="290.0" y2="410.0" stroke="#000000" stroke-width="2" fill="none" />
  <line x1="290.0" y1="150.0" x2="290.0" y2="140.0" stroke="#000000" stroke-width="2" fill="none" />
  <line x1="290.0" y1="420.0" x2="290.0" y2="410.0" stroke="#000000" stroke-width="2" fill="none" />
  <line x1="290.0" y1="150.0" x2="290.0" y2="140.0" stroke="#000000" stroke-width="2" fill="none" />
  <line x1="290.0" y1="420.0" x2="290.0" y2="410.0" stroke="#000000" stroke-width="2" fill="none" />
  <line x1="290.0" y1="150.0" x2="290.0" y2="140.0" stroke="#000000" stroke-width="2" fill="none" />
  <line x1="290.0" y1="420.0" x2="290.0" y2="410.0" stroke="#000000" stroke-width="2" fill="none" />
  <line x1="290.0" y1="150.0" x2="290.0" y2="140.0" stroke="#000000" stroke-width="2" fill="none" />
  <line x1="290.0" y1="420.0" x2="290.0" y2="410.0" stroke="#000000" stroke-width="2" fill="none" />
  <line x1="290.0" y1="150.0" x2="290.0" y2="140.0" stroke="#000000" stroke-width="2" fill="none" />
  <line x1="290.0" y1="420.0" x2="290.0" y2="410.0" stroke="#000000" stroke-width="2" fill="none" />
  <line x1="290.0" y1="150.0" x2="290.0" y2="140.0" stroke="#000000" stroke-width="2" fill="none" />
  <line x1="290.0" y1="420.0" x2="290.0" y2="410.0" stroke="#000000" stroke-width="2" fill="none" />
  <line x1="290.0" y1="150.0" x2="290.0" y2="140.0" stroke="#000000" stroke-width="2" fill="none" />
  <line x1="290.0" y1="420.0" x2="290.0" y2="410.0" stroke="#000000" stroke-width="2" fill="none" />
  <line x1="290.0" y1="150.0" x2="290.0" y2="140.0" stroke="#000000" stroke-width="2" fill="none" />
  <line x1="290.0" y1="420.0" x2="290.0" y2="410.0" stroke="#000000" stroke-width="2" fill="none" />
  <line x1="290.0" y1="150.0" x2="290.0" y2="140.0" stroke="#000000" stroke-width="2" fill="none" />
  <line x1="290.0" y1="420.0" x2="290.0" y2="410.0" stroke="#000000" stroke-width="2" fill="none" />
  <line x1="290.0" y1="150.0" x2="290.0" y2="140.0" stroke="#000000" stroke-width="2" fill="none" />
  <line x1="290.0" y1="420.0" x2="290.0" y2="410.0" stroke="#000000" stroke-width="2" fill="none" />
  <line x1="195.0" y1="315.0" x2="195.0" y2="420.0" stroke="#000000" stroke-width="2" fill="none" />
  <line x1="195.0" y1="255.0" x2="195.0" y2="140.0" stroke="#000000" stroke-width="2" fill="none" />
  <line x1="355.0" y1="400.0" x2="355.0" y2="420.0" stroke="#000000" stroke-width="2" fill="none" />
  <line x1="355.0" y1="340.0" x2="355.0" y2="270.0" stroke="#000000" stroke-width="2" fill="none" />
  <line x1="455.0" y1="420.0" x2="455.0" y2="405.0" stroke="#000000" stroke-width="2" fill="none" />
  <line x1="455.0" y1="340.0" x2="455.0" y2="345.0" stroke="#000000" stroke-width="2" fill="none" />
  <line x1="455.0" y1="280.0" x2="455.0" y2="270.0" stroke="#000000" stroke-width="2" fill="none" />
  <line x1="535.0" y1="400.0" x2="535.0" y2="420.0" stroke="#000000" stroke-width="2" fill="none" />
  <line x1="535.0" y1="340.0" x2="535.0" y2="300.0" stroke="#000000" stroke-width="2" fill="none" />
  <line x1="535.0" y1="300.0" x2="595.0" y2="300.0" stroke="#000000" stroke-width="2" fill="none" />
  <line x1="595.0" y1="270.0" x2="355.0" y2="270.0" stroke="#000000" stroke-width="2" fill="none" />
  <line x1="595.0" y1="200.0" x2="495.0" y2="200.0" stroke="#000000" stroke-width="2" fill="none" />
  <line x1="755.0" y1="360.0" x2="755.0" y2="420.0" stroke="#000000" stroke-width="2" fill="none" />
  <line x1="755.0" y1="330.0" x2="1100.0" y2="330.0" stroke="#000000" stroke-width="2" fill="none" />
  <line x1="755.0" y1="170.0" x2="770.0" y2="170.0" stroke="#000000" stroke-width="2" fill="none" />
  <line x1="770.0" y1="170.0" x2="770.0" y2="110.0" stroke="#000000" stroke-width="2" fill="none" />
  <line x1="770.0" y1="110.0" x2="845.0" y2="110.0" stroke="#000000" stroke-width="2" fill="none" />
  <line x1="845.0" y1="110.0" x2="845.0" y2="140.0" stroke="#000000" stroke-width="2" fill="none" />
  <line x1="960.0" y1="285.0" x2="960.0" y2="275.0" stroke="#000000" stroke-width="2" fill="none" />
  <line x1="960.0" y1="200.0" x2="960.0" y2="215.0" stroke="#000000" stroke-width="2" fill="none" />
  <line x1="1100.0" y1="420.0" x2="1100.0" y2="410.0" stroke="#000000" stroke-width="2" fill="none" />
  <line x1="1100.0" y1="350.0" x2="1100.0" y2="290.0" stroke="#000000" stroke-width="2" fill="none" />
  <line x1="1100.0" y1="230.0" x2="1100.0" y2="200.0" stroke="#000000" stroke-width="2" fill="none" />
  <line x1="1190.0" y1="350.0" x2="1190.0" y2="420.0" stroke="#000000" stroke-width="2" fill="none" />
  <line x1="1190.0" y1="290.0" x2="1190.0" y2="200.0" stroke="#000000" stroke-width="2" fill="none" />
  <line x1="755.0" y1="200.0" x2="1025.0" y2="200.0" stroke="#000000" stroke-width="2" fill="none" />
  <line x1="100.0" y1="140.0" x2="595.0" y2="140.0" stroke="#000000" stroke-width="2" fill="none" />
  <line x1="1190.0" y1="275.0" x2="1190.0" y2="245.0" stroke="#000000" stroke-width="2" fill="none" />
  <line x1="1085.0" y1="200.0" x2="1280.0" y2="200.0" stroke="#000000" stroke-width="2" fill="none" />
  <line x1="980.0" y1="200.0" x2="1010.0" y2="200.0" stroke="#000000" stroke-width="2" fill="none" />
  <line x1="125.0" y1="140.0" x2="155.0" y2="140.0" stroke="#000000" stroke-width="2" fill="none" />
  <line x1="1190.0" y1="275.0" x2="1190.0" y2="245.0" stroke="#000000" stroke-width="2" fill="none" />
  <line x1="980.0" y1="200.0" x2="1010.0" y2="200.0" stroke="#000000" stroke-width="2" fill="none" />
  <line x1="125.0" y1="140.0" x2="155.0" y2="140.0" stroke="#000000" stroke-width="2" fill="none" />
  <line x1="1190.0" y1="275.0" x2="1190.0" y2="245.0" stroke="#000000" stroke-width="2" fill="none" />
  <line x1="980.0" y1="200.0" x2="1010.0" y2="200.0" stroke="#000000" stroke-width="2" fill="none" />
  <line x1="125.0" y1="140.0" x2="155.0" y2="140.0" stroke="#000000" stroke-width="2" fill="none" />
  <line x1="1190.0" y1="275.0" x2="1190.0" y2="245.0" stroke="#000000" stroke-width="2" fill="none" />
  <line x1="980.0" y1="200.0" x2="1010.0" y2="200.0" stroke="#000000" stroke-width="2" fill="none" />
  <line x1="125.0" y1="140.0" x2="155.0" y2="140.0" stroke="#000000" stroke-width="2" fill="none" />
  <line x1="1190.0" y1="275.0" x2="1190.0" y2="245.0" stroke="#000000" stroke-width="2" fill="none" />
  <line x1="980.0" y1="200.0" x2="1010.0" y2="200.0" stroke="#000000" stroke-width="2" fill="none" />
  <line x1="125.0" y1="140.0" x2="155.0" y2="140.0" stroke="#000000" stroke-width="2" fill="none" />
  <line x1="1190.0" y1="275.0" x2="1190.0" y2="245.0" stroke="#000000" stroke-width="2" fill="none" />
  <line x1="980.0" y1="200.0" x2="1010.0" y2="200.0" stroke="#000000" stroke-width="2" fill="none" />
  <line x1="125.0" y1="140.0" x2="155.0" y2="140.0" stroke="#000000" stroke-width="2" fill="none" />
  <line x1="1190.0" y1="275.0" x2="1190.0" y2="245.0" stroke="#000000" stroke-width="2" fill="none" />
  <line x1="980.0" y1="200.0" x2="1010.0" y2="200.0" stroke="#000000" stroke-width="2" fill="none" />
  <line x1="125.0" y1="140.0" x2="155.0" y2="140.0" stroke="#000000" stroke-width="2" fill="none" />
  <line x1="1190.0" y1="275.0" x2="1190.0" y2="245.0" stroke="#000000" stroke-width="2" fill="none" />
  <line x1="980.0" y1="200.0" x2="1010.0" y2="200.0" stroke="#000000" stroke-width="2" fill="none" />
  <line x1="125.0" y1="140.0" x2="155.0" y2="140.0" stroke="#000000" stroke-width="2" fill="none" />
  <line x1="1190.0" y1="275.0" x2="1190.0" y2="245.0" stroke="#000000" stroke-width="2" fill="none" />
  <line x1="980.0" y1="200.0" x2="1010.0" y2="200.0" stroke="#000000" stroke-width="2" fill="none" />
  <line x1="125.0" y1="140.0" x2="155.0" y2="140.0" stroke="#000000" stroke-width="2" fill="none" />
  <line x1="1190.0" y1="275.0" x2="1190.0" y2="245.0" stroke="#000000" stroke-width="2" fill="none" />
  <line x1="980.0" y1="200.0" x2="1010.0" y2="200.0" stroke="#000000" stroke-width="2" fill="none" />
  <line x1="125.0" y1="140.0" x2="155.0" y2="140.0" stroke="#000000" stroke-width="2" fill="none" />
  <line x1="1190.0" y1="275.0" x2="1190.0" y2="245.0" stroke="#000000" stroke-width="2" fill="none" />
  <line x1="980.0" y1="200.0" x2="1010.0" y2="200.0" stroke="#000000" stroke-width="2" fill="none" />
  <line x1="125.0" y1="140.0" x2="155.0" y2="140.0" stroke="#000000" stroke-width="2" fill="none" />
  <line x1="1190.0" y1="275.0" x2="1190.0" y2="245.0" stroke="#000000" stroke-width="2" fill="none" />
  <line x1="980.0" y1="200.0" x2="1010.0" y2="200.0" stroke="#000000" stroke-width="2" fill="none" />
  <line x1="125.0" y1="140.0" x2="155.0" y2="140.0" stroke="#000000" stroke-width="2" fill="none" />
  <line x1="1190.0" y1="275.0" x2="1190.0" y2="245.0" stroke="#000000" stroke-width="2" fill="none" />
  <line x1="980.0" y1="200.0" x2="1010.0" y2="200.0" stroke="#000000" stroke-width="2" fill="none" />
  <line x1="125.0" y1="140.0" x2="155.0" y2="140.0" stroke="#000000" stroke-width="2" fill="none" />
  <line x1="1190.0" y1="275.0" x2="1190.0" y2="245.0" stroke="#000000" stroke-width="2" fill="none" />
  <line x1="980.0" y1="200.0" x2="1010.0" y2="200.0" stroke="#000000" stroke-width="2" fill="none" />
  <line x1="125.0" y1="140.0" x2="155.0" y2="140.0" stroke="#000000" stroke-width="2" fill="none" />
  <line x1="100.0" y1="420.0" x2="1280.0" y2="420.0" stroke="#000000" stroke-width="2" fill="none" />
  <line x1="100.0" y1="250.0" x2="100.0" y2="140.0" stroke="#000000" stroke-width="2" fill="none" />
  <line x1="100.0" y1="420.0" x2="100.0" y2="310.0" stroke="#000000" stroke-width="2" fill="none" />
  <line x1="100.0" y1="420.0" x2="100.0" y2="410.0" stroke="#000000" stroke-width="2" fill="none" />
  <line x1="100.0" y1="420.0" x2="100.0" y2="410.0" stroke="#000000" stroke-width="2" fill="none" />
  <line x1="100.0" y1="420.0" x2="100.0" y2="410.0" stroke="#000000" stroke-width="2" fill="none" />
  <line x1="100.0" y1="420.0" x2="100.0" y2="410.0" stroke="#000000" stroke-width="2" fill="none" />
  <line x1="100.0" y1="420.0" x2="100.0" y2="410.0" stroke="#000000" stroke-width="2" fill="none" />
  <line x1="100.0" y1="420.0" x2="100.0" y2="410.0" stroke="#000000" stroke-width="2" fill="none" />
  <line x1="100.0" y1="420.0" x2="100.0" y2="410.0" stroke="#000000" stroke-width="2" fill="none" />
  <line x1="100.0" y1="420.0" x2="100.0" y2="410.0" stroke="#000000" stroke-width="2" fill="none" />
  <line x1="100.0" y1="420.0" x2="100.0" y2="410.0" stroke="#000000" stroke-width="2" fill="none" />
  <line x1="100.0" y1="420.0" x2="100.0" y2="410.0" stroke="#000000" stroke-width="2" fill="none" />
  <line x1="100.0" y1="420.0" x2="100.0" y2="410.0" stroke="#000000" stroke-width="2" fill="none" />
  <line x1="100.0" y1="420.0" x2="100.0" y2="410.0" stroke="#000000" stroke-width="2" fill="none" />
  <line x1="100.0" y1="420.0" x2="100.0" y2="410.0" stroke="#000000" stroke-width="2" fill="none" />
  <line x1="100.0" y1="420.0" x2="100.0" y2="410.0" stroke="#000000" stroke-width="2" fill="none" />
  <line x1="1280.0" y1="310.0" x2="1280.0" y2="200.0" stroke="#000000" stroke-width="2" fill="none" />
  <line x1="1280.0" y1="420.0" x2="1280.0" y2="370.0" stroke="#000000" stroke-width="2" fill="none" />
  <line x1="1280.0" y1="210.0" x2="1280.0" y2="200.0" stroke="#000000" stroke-width="2" fill="none" />
  <line x1="1280.0" y1="420.0" x2="1280.0" y2="410.0" stroke="#000000" stroke-width="2" fill="none" />
  <line x1="1280.0" y1="210.0" x2="1280.0" y2="200.0" stroke="#000000" stroke-width="2" fill="none" />
  <line x1="1280.0" y1="420.0" x2="1280.0" y2="410.0" stroke="#000000" stroke-width="2" fill="none" />
  <line x1="1280.0" y1="210.0" x2="1280.0" y2="200.0" stroke="#000000" stroke-width="2" fill="none" />
  <line x1="1280.0" y1="420.0" x2="1280.0" y2="410.0" stroke="#000000" stroke-width="2" fill="none" />
  <line x1="1280.0" y1="210.0" x2="1280.0" y2="200.0" stroke="#000000" stroke-width="2" fill="none" />
  <line x1="1280.0" y1="420.0" x2="1280.0" y2="410.0" stroke="#000000" stroke-width="2" fill="none" />
  <line x1="1280.0" y1="210.0" x2="1280.0" y2="200.0" stroke="#000000" stroke-width="2" fill="none" />
  <line x1="1280.0" y1="420.0" x2="1280.0" y2="410.0" stroke="#000000" stroke-width="2" fill="none" />
  <line x1="1280.0" y1="210.0" x2="1280.0" y2="200.0" stroke="#000000" stroke-width="2" fill="none" />
  <line x1="1280.0" y1="420.0" x2="1280.0" y2="410.0" stroke="#000000" stroke-width="2" fill="none" />
  <line x1="1280.0" y1="210.0" x2="1280.0" y2="200.0" stroke="#000000" stroke-width="2" fill="none" />
  <line x1="1280.0" y1="420.0" x2="1280.0" y2="410.0" stroke="#000000" stroke-width="2" fill="none" />
  <line x1="1280.0" y1="210.0" x2="1280.0" y2="200.0" stroke="#000000" stroke-width="2" fill="none" />
  <line x1="1280.0" y1="420.0" x2="1280.0" y2="410.0" stroke="#000000" stroke-width="2" fill="none" />
  <line x1="1280.0" y1="210.0" x2="1280.0" y2="200.0" stroke="#000000" stroke-width="2" fill="none" />
  <line x1="1280.0" y1="420.0" x2="1280.0" y2="410.0" stroke="#000000" stroke-width="2" fill="none" />
  <line x1="1280.0" y1="210.0" x2="1280.0" y2="200.0" stroke="#000000" stroke-width="2" fill="none" />
  <line x1="1280.0" y1="420.0" x2="1280.0" y2="410.0" stroke="#000000" stroke-width="2" fill="none" />
  <line x1="1280.0" y1="210.0" x2="1280.0" y2="200.0" stroke="#000000" stroke-width="2" fill="none" />
  <line x1="1280.0" y1="420.0" x2="1280.0" y2="410.0" stroke="#000000" stroke-width="2" fill="none" />
  <line x1="1280.0" y1="210.0" x2="1280.0" y2="200.0" stroke="#000000" stroke-width="2" fill="none" />
  <line x1="1280.0" y1="420.0" x2="1280.0" y2="410.0" stroke="#000000" stroke-width="2" fill="none" />
  <line x1="1280.0" y1="210.0" x2="1280.0" y2="200.0" stroke="#000000" stroke-width="2" fill="none" />
  <line x1="1280.0" y1="420.0" x2="1280.0" y2="410.0" stroke="#000000" stroke-width="2" fill="none" />
  <line x1="1280.0" y1="210.0" x2="1280.0" y2="200.0" stroke="#000000" stroke-width="2" fill="none" />
  <line x1="1280.0" y1="420.0" x2="1280.0" y2="410.0" stroke="#000000" stroke-width="2" fill="none" />
  <circle cx="290.0" cy="215.0" r="5" stroke="#000000" stroke-width="0" fill="#000000" />
  <circle cx="455.0" cy="270.0" r="5" stroke="#000000" stroke-width="0" fill="#000000" />
  <circle cx="1100.0" cy="330.0" r="5" stroke="#000000" stroke-width="0" fill="#000000" />
  <circle cx="960.0" cy="200.0" r="5" stroke="#000000" stroke-width="0" fill="#000000" />
  <circle cx="290.0" cy="140.0" r="5" stroke="#000000" stroke-width="0" fill="#000000" />
  <circle cx="195.0" cy="140.0" r="5" stroke="#000000" stroke-width="0" fill="#000000" />
  <circle cx="1100.0" cy="200.0" r="5" stroke="#000000" stroke-width="0" fill="#000000" />
  <circle cx="1190.0" cy="200.0" r="5" stroke="#000000" stroke-width="0" fill="#000000" />
  <circle cx="290.0" cy="420.0" r="5" stroke="#000000" stroke-width="0" fill="#000000" />
  <circle cx="195.0" cy="420.0" r="5" stroke="#000000" stroke-width="0" fill="#000000" />
  <circle cx="355.0" cy="420.0" r="5" stroke="#000000" stroke-width="0" fill="#000000" />
  <circle cx="455.0" cy="420.0" r="5" stroke="#000000" stroke-width="0" fill="#000000" />
  <circle cx="535.0" cy="420.0" r="5" stroke="#000000" stroke-width="0" fill="#000000" />
  <circle cx="755.0" cy="420.0" r="5" stroke="#000000" stroke-width="0" fill="#000000" />
  <circle cx="1100.0" cy="420.0" r="5" stroke="#000000" stroke-width="0" fill="#000000" />
  <circle cx="1190.0" cy="420.0" r="5" stroke="#000000" stroke-width="0" fill="#000000" />
  <circle cx="845.0" cy="200.0" r="5" stroke="#000000" stroke-width="0" fill="#000000" />
  <circle cx="685.0" cy="420.0" r="5" stroke="#000000" stroke-width="0" fill="#000000" />
</svg>

