%TF.GenerationSoftware,KiCad,Pcbnew,6.0.1-79c1e3a40b~116~ubuntu18.04.1*%
%TF.CreationDate,2022-01-19T06:10:37+01:00*%
%TF.ProjectId,ss_frontpanel_outer_plate_Al,73735f66-726f-46e7-9470-616e656c5f6f,rev?*%
%TF.SameCoordinates,Original*%
%TF.FileFunction,Profile,NP*%
%FSLAX46Y46*%
G04 Gerber Fmt 4.6, Leading zero omitted, Abs format (unit mm)*
G04 Created by KiCad (PCBNEW 6.0.1-79c1e3a40b~116~ubuntu18.04.1) date 2022-01-19 06:10:37*
%MOMM*%
%LPD*%
G01*
G04 APERTURE LIST*
%TA.AperFunction,Profile*%
%ADD10C,0.050000*%
%TD*%
%TA.AperFunction,Profile*%
%ADD11C,0.120000*%
%TD*%
G04 APERTURE END LIST*
D10*
X232500000Y-52760000D02*
G75*
G03*
X228610000Y-48870000I-3890001J-1D01*
G01*
X71390000Y-48870000D02*
G75*
G03*
X67500000Y-52760000I1J-3890001D01*
G01*
X71390000Y-48870000D02*
X228610000Y-48870000D01*
X232500000Y-52760000D02*
X232500000Y-96110000D01*
X228610000Y-100000000D02*
G75*
G03*
X232500000Y-96110000I-1J3890001D01*
G01*
X228610000Y-100000000D02*
X71390000Y-100000000D01*
X67500000Y-96110000D02*
G75*
G03*
X71390000Y-100000000I3890001J1D01*
G01*
X67500000Y-96110000D02*
X67500000Y-52760000D01*
D11*
%TO.C,M2*%
X100800000Y-92900000D02*
X100800000Y-81100000D01*
X75200000Y-81100000D02*
X75200000Y-92900000D01*
X100300000Y-80600000D02*
X75700000Y-80600000D01*
X75700000Y-93400000D02*
X100300000Y-93400000D01*
X75700000Y-80600000D02*
G75*
G03*
X75200000Y-81100000I1J-500001D01*
G01*
X100800000Y-81100000D02*
G75*
G03*
X100300000Y-80600000I-500001J-1D01*
G01*
X75200000Y-92900000D02*
G75*
G03*
X75700000Y-93400000I500001J1D01*
G01*
X100300000Y-93400000D02*
G75*
G03*
X100800000Y-92900000I-1J500001D01*
G01*
X97600000Y-65000000D02*
G75*
G03*
X97600000Y-65000000I-9600000J0D01*
G01*
%TO.C,M3*%
X199200000Y-81100000D02*
X199200000Y-92900000D01*
X199700000Y-93400000D02*
X224300000Y-93400000D01*
X224300000Y-80600000D02*
X199700000Y-80600000D01*
X224800000Y-92900000D02*
X224800000Y-81100000D01*
X224800000Y-81100000D02*
G75*
G03*
X224300000Y-80600000I-500001J-1D01*
G01*
X199700000Y-80600000D02*
G75*
G03*
X199200000Y-81100000I1J-500001D01*
G01*
X199200000Y-92900000D02*
G75*
G03*
X199700000Y-93400000I500001J1D01*
G01*
X224300000Y-93400000D02*
G75*
G03*
X224800000Y-92900000I-1J500001D01*
G01*
X215550000Y-65000000D02*
G75*
G03*
X215550000Y-65000000I-3550000J0D01*
G01*
%TO.C,M1*%
X119000000Y-90000000D02*
X119000000Y-90400000D01*
X105400000Y-60200000D02*
X105400000Y-90000000D01*
X181000000Y-90400000D02*
X181000000Y-90000000D01*
X105400000Y-90000000D02*
X119000000Y-90000000D01*
X194600000Y-90000000D02*
X194600000Y-60200000D01*
X119000000Y-90400000D02*
X181000000Y-90400000D01*
X181000000Y-90000000D02*
X194600000Y-90000000D01*
X194600000Y-60200000D02*
X105400000Y-60200000D01*
%TD*%
M02*
