%TF.GenerationSoftware,KiCad,Pcbnew,6.0.1-79c1e3a40b~116~ubuntu18.04.1*%
%TF.CreationDate,2022-01-19T05:38:22+01:00*%
%TF.ProjectId,ss_backpanel-mirrored_Al,73735f62-6163-46b7-9061-6e656c2d6d69,rev?*%
%TF.SameCoordinates,Original*%
%TF.FileFunction,Copper,L1,Top*%
%TF.FilePolarity,Positive*%
%FSLAX46Y46*%
G04 Gerber Fmt 4.6, Leading zero omitted, Abs format (unit mm)*
G04 Created by KiCad (PCBNEW 6.0.1-79c1e3a40b~116~ubuntu18.04.1) date 2022-01-19 05:38:22*
%MOMM*%
%LPD*%
G01*
G04 APERTURE LIST*
G04 APERTURE END LIST*
%TA.AperFunction,NonConductor*%
G36*
X228610000Y-48897060D02*
G01*
X228614446Y-48895218D01*
X228718316Y-48900321D01*
X228985105Y-48913428D01*
X228992527Y-48914159D01*
X229360329Y-48968717D01*
X229367645Y-48970172D01*
X229728328Y-49060519D01*
X229735465Y-49062684D01*
X229855050Y-49105472D01*
X230085562Y-49187950D01*
X230092442Y-49190800D01*
X230221186Y-49251692D01*
X230428573Y-49349779D01*
X230435151Y-49353295D01*
X230754074Y-49544449D01*
X230760275Y-49548592D01*
X231058930Y-49770090D01*
X231064696Y-49774822D01*
X231340201Y-50024526D01*
X231345474Y-50029799D01*
X231595178Y-50305304D01*
X231599910Y-50311070D01*
X231821408Y-50609725D01*
X231825551Y-50615926D01*
X232016705Y-50934849D01*
X232020221Y-50941427D01*
X232153880Y-51224023D01*
X232179198Y-51277554D01*
X232182052Y-51284444D01*
X232307316Y-51634535D01*
X232309481Y-51641672D01*
X232399828Y-52002355D01*
X232401283Y-52009671D01*
X232455841Y-52377473D01*
X232456572Y-52384895D01*
X232470052Y-52659268D01*
X232474782Y-52755554D01*
X232472940Y-52760000D01*
X232475000Y-52764973D01*
X232475000Y-96105027D01*
X232472940Y-96110000D01*
X232474782Y-96114446D01*
X232469679Y-96218316D01*
X232456572Y-96485105D01*
X232455841Y-96492527D01*
X232401283Y-96860329D01*
X232399828Y-96867645D01*
X232309481Y-97228328D01*
X232307316Y-97235465D01*
X232182052Y-97585556D01*
X232179200Y-97592442D01*
X232115073Y-97728026D01*
X232020221Y-97928573D01*
X232016705Y-97935151D01*
X231825551Y-98254074D01*
X231821408Y-98260275D01*
X231599910Y-98558930D01*
X231595178Y-98564696D01*
X231345474Y-98840201D01*
X231340201Y-98845474D01*
X231064696Y-99095178D01*
X231058930Y-99099910D01*
X230760275Y-99321408D01*
X230754074Y-99325551D01*
X230435151Y-99516705D01*
X230428573Y-99520221D01*
X230260510Y-99599709D01*
X230092442Y-99679200D01*
X230085562Y-99682050D01*
X229910511Y-99744684D01*
X229735465Y-99807316D01*
X229728328Y-99809481D01*
X229367645Y-99899828D01*
X229360329Y-99901283D01*
X228992527Y-99955841D01*
X228985105Y-99956572D01*
X228630172Y-99974009D01*
X228630171Y-99974009D01*
X228614446Y-99974782D01*
X228610000Y-99972940D01*
X228605027Y-99975000D01*
X71394973Y-99975000D01*
X71390000Y-99972940D01*
X71385554Y-99974782D01*
X71281684Y-99969679D01*
X71014895Y-99956572D01*
X71007473Y-99955841D01*
X70639671Y-99901283D01*
X70632355Y-99899828D01*
X70271672Y-99809481D01*
X70264535Y-99807316D01*
X70089489Y-99744684D01*
X69914438Y-99682050D01*
X69907558Y-99679200D01*
X69739490Y-99599709D01*
X69571427Y-99520221D01*
X69564849Y-99516705D01*
X69245926Y-99325551D01*
X69239725Y-99321408D01*
X68941070Y-99099910D01*
X68935304Y-99095178D01*
X68659799Y-98845474D01*
X68654526Y-98840201D01*
X68404822Y-98564696D01*
X68400090Y-98558930D01*
X68178592Y-98260275D01*
X68174449Y-98254074D01*
X67983295Y-97935151D01*
X67979779Y-97928573D01*
X67884927Y-97728026D01*
X67820800Y-97592442D01*
X67817948Y-97585556D01*
X67692684Y-97235465D01*
X67690519Y-97228328D01*
X67600172Y-96867645D01*
X67598717Y-96860329D01*
X67544159Y-96492527D01*
X67543428Y-96485105D01*
X67535605Y-96325861D01*
X69247051Y-96325861D01*
X69247268Y-96328032D01*
X69247268Y-96328039D01*
X69262946Y-96485105D01*
X69281419Y-96670177D01*
X69281887Y-96672322D01*
X69281887Y-96672324D01*
X69316298Y-96830148D01*
X69355133Y-97008261D01*
X69355839Y-97010324D01*
X69355841Y-97010330D01*
X69432922Y-97235465D01*
X69467217Y-97335633D01*
X69616186Y-97647952D01*
X69800064Y-97941079D01*
X69801434Y-97942790D01*
X69801439Y-97942796D01*
X69862358Y-98018835D01*
X70016415Y-98211129D01*
X70262371Y-98454523D01*
X70264087Y-98455869D01*
X70264091Y-98455872D01*
X70340575Y-98515843D01*
X70534672Y-98668034D01*
X70829709Y-98848832D01*
X71143570Y-98994522D01*
X71145648Y-98995209D01*
X71145655Y-98995212D01*
X71246373Y-99028521D01*
X71472097Y-99103172D01*
X71474237Y-99103615D01*
X71474240Y-99103616D01*
X71808790Y-99172898D01*
X71808794Y-99172899D01*
X71810935Y-99173342D01*
X71813118Y-99173537D01*
X71813119Y-99173537D01*
X72113539Y-99200349D01*
X72113543Y-99200349D01*
X72115233Y-99200500D01*
X72338189Y-99200500D01*
X72595453Y-99185666D01*
X72936328Y-99126174D01*
X73062271Y-99088868D01*
X73266001Y-99028521D01*
X73266008Y-99028518D01*
X73268106Y-99027897D01*
X73270125Y-99027036D01*
X73584376Y-98892997D01*
X73584381Y-98892994D01*
X73586389Y-98892138D01*
X73672595Y-98842967D01*
X73885068Y-98721775D01*
X73885073Y-98721772D01*
X73886959Y-98720696D01*
X74165832Y-98515843D01*
X74213191Y-98471835D01*
X74417714Y-98281780D01*
X74419312Y-98280295D01*
X74644038Y-98017174D01*
X74701308Y-97931948D01*
X74835814Y-97731781D01*
X74837033Y-97729967D01*
X74838035Y-97728026D01*
X74994737Y-97424424D01*
X74994739Y-97424419D01*
X74995739Y-97422482D01*
X75118050Y-97098793D01*
X75140271Y-97010330D01*
X75201815Y-96765311D01*
X75202348Y-96763190D01*
X75247513Y-96420124D01*
X75248994Y-96325861D01*
X224747051Y-96325861D01*
X224747268Y-96328032D01*
X224747268Y-96328039D01*
X224762946Y-96485105D01*
X224781419Y-96670177D01*
X224781887Y-96672322D01*
X224781887Y-96672324D01*
X224816298Y-96830148D01*
X224855133Y-97008261D01*
X224855839Y-97010324D01*
X224855841Y-97010330D01*
X224932922Y-97235465D01*
X224967217Y-97335633D01*
X225116186Y-97647952D01*
X225300064Y-97941079D01*
X225301434Y-97942790D01*
X225301439Y-97942796D01*
X225362358Y-98018835D01*
X225516415Y-98211129D01*
X225762371Y-98454523D01*
X225764087Y-98455869D01*
X225764091Y-98455872D01*
X225840575Y-98515843D01*
X226034672Y-98668034D01*
X226329709Y-98848832D01*
X226643570Y-98994522D01*
X226645648Y-98995209D01*
X226645655Y-98995212D01*
X226746373Y-99028521D01*
X226972097Y-99103172D01*
X226974237Y-99103615D01*
X226974240Y-99103616D01*
X227308790Y-99172898D01*
X227308794Y-99172899D01*
X227310935Y-99173342D01*
X227313118Y-99173537D01*
X227313119Y-99173537D01*
X227613539Y-99200349D01*
X227613543Y-99200349D01*
X227615233Y-99200500D01*
X227838189Y-99200500D01*
X228095453Y-99185666D01*
X228436328Y-99126174D01*
X228562271Y-99088868D01*
X228766001Y-99028521D01*
X228766008Y-99028518D01*
X228768106Y-99027897D01*
X228770125Y-99027036D01*
X229084376Y-98892997D01*
X229084381Y-98892994D01*
X229086389Y-98892138D01*
X229172595Y-98842967D01*
X229385068Y-98721775D01*
X229385073Y-98721772D01*
X229386959Y-98720696D01*
X229665832Y-98515843D01*
X229713191Y-98471835D01*
X229917714Y-98281780D01*
X229919312Y-98280295D01*
X230144038Y-98017174D01*
X230201308Y-97931948D01*
X230335814Y-97731781D01*
X230337033Y-97729967D01*
X230338035Y-97728026D01*
X230494737Y-97424424D01*
X230494739Y-97424419D01*
X230495739Y-97422482D01*
X230618050Y-97098793D01*
X230640271Y-97010330D01*
X230701815Y-96765311D01*
X230702348Y-96763190D01*
X230747513Y-96420124D01*
X230752107Y-96127711D01*
X230752915Y-96076322D01*
X230752915Y-96076317D01*
X230752949Y-96074139D01*
X230743759Y-95982063D01*
X230718799Y-95732007D01*
X230718581Y-95729823D01*
X230697839Y-95634689D01*
X230645335Y-95393885D01*
X230645335Y-95393883D01*
X230644867Y-95391739D01*
X230643724Y-95388399D01*
X230533491Y-95066435D01*
X230532783Y-95064367D01*
X230383814Y-94752048D01*
X230291154Y-94604335D01*
X230201107Y-94460787D01*
X230201103Y-94460781D01*
X230199936Y-94458921D01*
X230198566Y-94457210D01*
X230198561Y-94457204D01*
X229984948Y-94190572D01*
X229984946Y-94190570D01*
X229983585Y-94188871D01*
X229737629Y-93945477D01*
X229661328Y-93885649D01*
X229467047Y-93733314D01*
X229465328Y-93731966D01*
X229170291Y-93551168D01*
X228856430Y-93405478D01*
X228854352Y-93404791D01*
X228854345Y-93404788D01*
X228620516Y-93327457D01*
X228527903Y-93296828D01*
X228525763Y-93296385D01*
X228525760Y-93296384D01*
X228191210Y-93227102D01*
X228191206Y-93227101D01*
X228189065Y-93226658D01*
X228186882Y-93226463D01*
X228186881Y-93226463D01*
X227886461Y-93199651D01*
X227886457Y-93199651D01*
X227884767Y-93199500D01*
X227661811Y-93199500D01*
X227404547Y-93214334D01*
X227063672Y-93273826D01*
X226978973Y-93298915D01*
X226733999Y-93371479D01*
X226733992Y-93371482D01*
X226731894Y-93372103D01*
X226729878Y-93372963D01*
X226729875Y-93372964D01*
X226415624Y-93507003D01*
X226415619Y-93507006D01*
X226413611Y-93507862D01*
X226411714Y-93508944D01*
X226411712Y-93508945D01*
X226114932Y-93678225D01*
X226114927Y-93678228D01*
X226113041Y-93679304D01*
X225954792Y-93795550D01*
X225887342Y-93845097D01*
X225834168Y-93884157D01*
X225832566Y-93885646D01*
X225832562Y-93885649D01*
X225609435Y-94092992D01*
X225580688Y-94119705D01*
X225355962Y-94382826D01*
X225354747Y-94384634D01*
X225354744Y-94384638D01*
X225203331Y-94609965D01*
X225162967Y-94670033D01*
X225161966Y-94671972D01*
X225161965Y-94671974D01*
X225051124Y-94886724D01*
X225004261Y-94977518D01*
X224881950Y-95301207D01*
X224881418Y-95303324D01*
X224881417Y-95303328D01*
X224858671Y-95393885D01*
X224797652Y-95636810D01*
X224752487Y-95979876D01*
X224750164Y-96127711D01*
X224748458Y-96236335D01*
X224747051Y-96325861D01*
X75248994Y-96325861D01*
X75252107Y-96127711D01*
X75252915Y-96076322D01*
X75252915Y-96076317D01*
X75252949Y-96074139D01*
X75243759Y-95982063D01*
X75218799Y-95732007D01*
X75218581Y-95729823D01*
X75197839Y-95634689D01*
X75145335Y-95393885D01*
X75145335Y-95393883D01*
X75144867Y-95391739D01*
X75143724Y-95388399D01*
X75033491Y-95066435D01*
X75032783Y-95064367D01*
X74883814Y-94752048D01*
X74791154Y-94604335D01*
X74701107Y-94460787D01*
X74701103Y-94460781D01*
X74699936Y-94458921D01*
X74698566Y-94457210D01*
X74698561Y-94457204D01*
X74484948Y-94190572D01*
X74484946Y-94190570D01*
X74483585Y-94188871D01*
X74237629Y-93945477D01*
X74161328Y-93885649D01*
X73967047Y-93733314D01*
X73965328Y-93731966D01*
X73670291Y-93551168D01*
X73356430Y-93405478D01*
X73354352Y-93404791D01*
X73354345Y-93404788D01*
X73120516Y-93327457D01*
X73027903Y-93296828D01*
X73025763Y-93296385D01*
X73025760Y-93296384D01*
X72691210Y-93227102D01*
X72691206Y-93227101D01*
X72689065Y-93226658D01*
X72686882Y-93226463D01*
X72686881Y-93226463D01*
X72386461Y-93199651D01*
X72386457Y-93199651D01*
X72384767Y-93199500D01*
X72161811Y-93199500D01*
X71904547Y-93214334D01*
X71563672Y-93273826D01*
X71478973Y-93298915D01*
X71233999Y-93371479D01*
X71233992Y-93371482D01*
X71231894Y-93372103D01*
X71229878Y-93372963D01*
X71229875Y-93372964D01*
X70915624Y-93507003D01*
X70915619Y-93507006D01*
X70913611Y-93507862D01*
X70911714Y-93508944D01*
X70911712Y-93508945D01*
X70614932Y-93678225D01*
X70614927Y-93678228D01*
X70613041Y-93679304D01*
X70454792Y-93795550D01*
X70387342Y-93845097D01*
X70334168Y-93884157D01*
X70332566Y-93885646D01*
X70332562Y-93885649D01*
X70109435Y-94092992D01*
X70080688Y-94119705D01*
X69855962Y-94382826D01*
X69854747Y-94384634D01*
X69854744Y-94384638D01*
X69703331Y-94609965D01*
X69662967Y-94670033D01*
X69661966Y-94671972D01*
X69661965Y-94671974D01*
X69551124Y-94886724D01*
X69504261Y-94977518D01*
X69381950Y-95301207D01*
X69381418Y-95303324D01*
X69381417Y-95303328D01*
X69358671Y-95393885D01*
X69297652Y-95636810D01*
X69252487Y-95979876D01*
X69250164Y-96127711D01*
X69248458Y-96236335D01*
X69247051Y-96325861D01*
X67535605Y-96325861D01*
X67525991Y-96130172D01*
X67525991Y-96130171D01*
X67525218Y-96114446D01*
X67527060Y-96110000D01*
X67525000Y-96105027D01*
X67525000Y-86095303D01*
X85174663Y-86095303D01*
X85191122Y-86682887D01*
X85191241Y-86684141D01*
X85244825Y-87248753D01*
X85246658Y-87268072D01*
X85341025Y-87848262D01*
X85473805Y-88420883D01*
X85474172Y-88422092D01*
X85474173Y-88422097D01*
X85482524Y-88449632D01*
X85644408Y-88983395D01*
X85852078Y-89533303D01*
X86095893Y-90068167D01*
X86374772Y-90585615D01*
X86687477Y-91083350D01*
X87032622Y-91559166D01*
X87408674Y-92010951D01*
X87813967Y-92436701D01*
X87862175Y-92481020D01*
X88233421Y-92822317D01*
X88246702Y-92834527D01*
X88247714Y-92835340D01*
X88703972Y-93201872D01*
X88703985Y-93201882D01*
X88704960Y-93202665D01*
X89186707Y-93539481D01*
X89689806Y-93843482D01*
X90212026Y-94113318D01*
X90751051Y-94347793D01*
X90752224Y-94348213D01*
X90752232Y-94348216D01*
X91303285Y-94545437D01*
X91303290Y-94545439D01*
X91304487Y-94545867D01*
X91305702Y-94546212D01*
X91305719Y-94546218D01*
X91868654Y-94706311D01*
X91868661Y-94706313D01*
X91869882Y-94706660D01*
X91871119Y-94706924D01*
X91871126Y-94706926D01*
X92049867Y-94745109D01*
X92364878Y-94812402D01*
X92408936Y-94839995D01*
X92425000Y-94886724D01*
X92425000Y-95895027D01*
X92422940Y-95900000D01*
X92425000Y-95904973D01*
X92430866Y-95919134D01*
X92450000Y-95927060D01*
X92454973Y-95925000D01*
X95545027Y-95925000D01*
X95550000Y-95927060D01*
X95554973Y-95925000D01*
X95569134Y-95919134D01*
X95577060Y-95900000D01*
X95575000Y-95895027D01*
X95575000Y-94886724D01*
X95592781Y-94837872D01*
X95635122Y-94812402D01*
X95950133Y-94745109D01*
X96128874Y-94706926D01*
X96128881Y-94706924D01*
X96130118Y-94706660D01*
X96131339Y-94706313D01*
X96131346Y-94706311D01*
X96694281Y-94546218D01*
X96694298Y-94546212D01*
X96695513Y-94545867D01*
X96696710Y-94545439D01*
X96696715Y-94545437D01*
X97247768Y-94348216D01*
X97247776Y-94348213D01*
X97248949Y-94347793D01*
X97787974Y-94113318D01*
X98310194Y-93843482D01*
X98813293Y-93539481D01*
X99295040Y-93202665D01*
X99296015Y-93201882D01*
X99296028Y-93201872D01*
X99752286Y-92835340D01*
X99753298Y-92834527D01*
X99766580Y-92822317D01*
X100137825Y-92481020D01*
X100186033Y-92436701D01*
X100591326Y-92010951D01*
X100967378Y-91559166D01*
X101312523Y-91083350D01*
X101625228Y-90585615D01*
X101904107Y-90068167D01*
X102147922Y-89533303D01*
X102355592Y-88983395D01*
X102517476Y-88449632D01*
X102525827Y-88422097D01*
X102525828Y-88422092D01*
X102526195Y-88420883D01*
X102658975Y-87848262D01*
X102753342Y-87268072D01*
X102755176Y-87248753D01*
X102808759Y-86684141D01*
X102808878Y-86682887D01*
X102825337Y-86095303D01*
X125174663Y-86095303D01*
X125191122Y-86682887D01*
X125191241Y-86684141D01*
X125244825Y-87248753D01*
X125246658Y-87268072D01*
X125341025Y-87848262D01*
X125473805Y-88420883D01*
X125474172Y-88422092D01*
X125474173Y-88422097D01*
X125482524Y-88449632D01*
X125644408Y-88983395D01*
X125852078Y-89533303D01*
X126095893Y-90068167D01*
X126374772Y-90585615D01*
X126687477Y-91083350D01*
X127032622Y-91559166D01*
X127408674Y-92010951D01*
X127813967Y-92436701D01*
X127862175Y-92481020D01*
X128233421Y-92822317D01*
X128246702Y-92834527D01*
X128247714Y-92835340D01*
X128703972Y-93201872D01*
X128703985Y-93201882D01*
X128704960Y-93202665D01*
X129186707Y-93539481D01*
X129689806Y-93843482D01*
X130212026Y-94113318D01*
X130751051Y-94347793D01*
X130752224Y-94348213D01*
X130752232Y-94348216D01*
X131303285Y-94545437D01*
X131303290Y-94545439D01*
X131304487Y-94545867D01*
X131305702Y-94546212D01*
X131305719Y-94546218D01*
X131868654Y-94706311D01*
X131868661Y-94706313D01*
X131869882Y-94706660D01*
X131871119Y-94706924D01*
X131871126Y-94706926D01*
X132049867Y-94745109D01*
X132364878Y-94812402D01*
X132408936Y-94839995D01*
X132425000Y-94886724D01*
X132425000Y-95895027D01*
X132422940Y-95900000D01*
X132425000Y-95904973D01*
X132430866Y-95919134D01*
X132450000Y-95927060D01*
X132454973Y-95925000D01*
X135545027Y-95925000D01*
X135550000Y-95927060D01*
X135554973Y-95925000D01*
X135569134Y-95919134D01*
X135577060Y-95900000D01*
X135575000Y-95895027D01*
X135575000Y-94886724D01*
X135592781Y-94837872D01*
X135635122Y-94812402D01*
X135950133Y-94745109D01*
X136128874Y-94706926D01*
X136128881Y-94706924D01*
X136130118Y-94706660D01*
X136131339Y-94706313D01*
X136131346Y-94706311D01*
X136479973Y-94607165D01*
X192247866Y-94607165D01*
X192248247Y-94609964D01*
X192248247Y-94609965D01*
X192277546Y-94825245D01*
X192282952Y-94864970D01*
X192283740Y-94867672D01*
X192283740Y-94867674D01*
X192341071Y-95064367D01*
X192355758Y-95114757D01*
X192464686Y-95351039D01*
X192607341Y-95568625D01*
X192609226Y-95570737D01*
X192749300Y-95727676D01*
X192780591Y-95762735D01*
X192980629Y-95929105D01*
X193203061Y-96064080D01*
X193443001Y-96164695D01*
X193695177Y-96228739D01*
X193697977Y-96229021D01*
X193697983Y-96229022D01*
X193909385Y-96250309D01*
X193909393Y-96250309D01*
X193911286Y-96250500D01*
X194066044Y-96250500D01*
X194068614Y-96250309D01*
X194256657Y-96236335D01*
X194256660Y-96236335D01*
X194259466Y-96236126D01*
X194373787Y-96210258D01*
X194510481Y-96179328D01*
X194510487Y-96179326D01*
X194513232Y-96178705D01*
X194689906Y-96110000D01*
X194753096Y-96085427D01*
X194753101Y-96085425D01*
X194755723Y-96084405D01*
X194981612Y-95955299D01*
X194983831Y-95953550D01*
X194983835Y-95953547D01*
X195183719Y-95795971D01*
X195183721Y-95795969D01*
X195185936Y-95794223D01*
X195364208Y-95604714D01*
X195512511Y-95390937D01*
X195532187Y-95351039D01*
X195626339Y-95160116D01*
X195626340Y-95160114D01*
X195627586Y-95157587D01*
X195706906Y-94909792D01*
X195748728Y-94652994D01*
X195752134Y-94392835D01*
X195724607Y-94190572D01*
X195717428Y-94137820D01*
X195717427Y-94137816D01*
X195717048Y-94135030D01*
X195713065Y-94121363D01*
X195645032Y-93887953D01*
X195645032Y-93887952D01*
X195644242Y-93885243D01*
X195535314Y-93648961D01*
X195471947Y-93552309D01*
X195394210Y-93433741D01*
X195392659Y-93431375D01*
X195360448Y-93395286D01*
X195221290Y-93239372D01*
X195221287Y-93239369D01*
X195219409Y-93237265D01*
X195049702Y-93096121D01*
X195021538Y-93072697D01*
X195021536Y-93072695D01*
X195019371Y-93070895D01*
X194973664Y-93043159D01*
X194939050Y-93022155D01*
X194796939Y-92935920D01*
X194556999Y-92835305D01*
X194304823Y-92771261D01*
X194302023Y-92770979D01*
X194302017Y-92770978D01*
X194090615Y-92749691D01*
X194090607Y-92749691D01*
X194088714Y-92749500D01*
X193933956Y-92749500D01*
X193932543Y-92749605D01*
X193743343Y-92763665D01*
X193743340Y-92763665D01*
X193740534Y-92763874D01*
X193626213Y-92789742D01*
X193489519Y-92820672D01*
X193489513Y-92820674D01*
X193486768Y-92821295D01*
X193388180Y-92859634D01*
X193246904Y-92914573D01*
X193246899Y-92914575D01*
X193244277Y-92915595D01*
X193018388Y-93044701D01*
X193016169Y-93046450D01*
X193016165Y-93046453D01*
X192817094Y-93203388D01*
X192814064Y-93205777D01*
X192635792Y-93395286D01*
X192487489Y-93609063D01*
X192486239Y-93611597D01*
X192486237Y-93611601D01*
X192466553Y-93651517D01*
X192372414Y-93842413D01*
X192293094Y-94090208D01*
X192251272Y-94347006D01*
X192251235Y-94349826D01*
X192251235Y-94349827D01*
X192248664Y-94546218D01*
X192247866Y-94607165D01*
X136479973Y-94607165D01*
X136694281Y-94546218D01*
X136694298Y-94546212D01*
X136695513Y-94545867D01*
X136696710Y-94545439D01*
X136696715Y-94545437D01*
X137247768Y-94348216D01*
X137247776Y-94348213D01*
X137248949Y-94347793D01*
X137787974Y-94113318D01*
X138310194Y-93843482D01*
X138813293Y-93539481D01*
X139295040Y-93202665D01*
X139296015Y-93201882D01*
X139296028Y-93201872D01*
X139752286Y-92835340D01*
X139753298Y-92834527D01*
X139766580Y-92822317D01*
X140137825Y-92481020D01*
X140186033Y-92436701D01*
X140591326Y-92010951D01*
X140967378Y-91559166D01*
X141312523Y-91083350D01*
X141625228Y-90585615D01*
X141904107Y-90068167D01*
X142147922Y-89533303D01*
X142297063Y-89138380D01*
X149596684Y-89138380D01*
X149629249Y-89552154D01*
X149700608Y-89961028D01*
X149810130Y-90361371D01*
X149810758Y-90363034D01*
X149810760Y-90363039D01*
X149860236Y-90493972D01*
X149956841Y-90749631D01*
X149957633Y-90751247D01*
X150119803Y-91082276D01*
X150139440Y-91122361D01*
X150356305Y-91476253D01*
X150605512Y-91808165D01*
X150884848Y-92115152D01*
X151191835Y-92394488D01*
X151523747Y-92643695D01*
X151877639Y-92860560D01*
X152250369Y-93043159D01*
X152392075Y-93096705D01*
X152636961Y-93189240D01*
X152636966Y-93189242D01*
X152638629Y-93189870D01*
X153038972Y-93299392D01*
X153040750Y-93299702D01*
X153040753Y-93299703D01*
X153446074Y-93370442D01*
X153446079Y-93370443D01*
X153447846Y-93370751D01*
X153449623Y-93370891D01*
X153449632Y-93370892D01*
X153637599Y-93385685D01*
X153825840Y-93400500D01*
X154105811Y-93400500D01*
X154106671Y-93400459D01*
X154106690Y-93400459D01*
X154412801Y-93386023D01*
X154412811Y-93386022D01*
X154414593Y-93385938D01*
X154416371Y-93385685D01*
X154823744Y-93327708D01*
X154823746Y-93327708D01*
X154825507Y-93327457D01*
X154827240Y-93327041D01*
X155227353Y-93230982D01*
X155227358Y-93230981D01*
X155229093Y-93230564D01*
X155621769Y-93096121D01*
X155673648Y-93072697D01*
X155761202Y-93033165D01*
X156000051Y-92925320D01*
X156360580Y-92719678D01*
X156700156Y-92481020D01*
X156751023Y-92437576D01*
X157014407Y-92212624D01*
X157014409Y-92212622D01*
X157015765Y-92211464D01*
X157017001Y-92210188D01*
X157017009Y-92210181D01*
X157303362Y-91914688D01*
X157303365Y-91914685D01*
X157304607Y-91913403D01*
X157564116Y-91589482D01*
X157583390Y-91560141D01*
X157791008Y-91244072D01*
X157791990Y-91242577D01*
X157986207Y-90875766D01*
X158033635Y-90761264D01*
X158144352Y-90493972D01*
X158144356Y-90493960D01*
X158145041Y-90492307D01*
X158267083Y-90095601D01*
X158351251Y-89689170D01*
X158396797Y-89276623D01*
X158403316Y-88861620D01*
X158401749Y-88841707D01*
X158370892Y-88449632D01*
X158370891Y-88449623D01*
X158370751Y-88447846D01*
X158366046Y-88420883D01*
X158299703Y-88040753D01*
X158299702Y-88040750D01*
X158299392Y-88038972D01*
X158189870Y-87638629D01*
X158142501Y-87513269D01*
X158137487Y-87500000D01*
X163971105Y-87500000D01*
X163986667Y-87717584D01*
X164033036Y-87930739D01*
X164033984Y-87933280D01*
X164033984Y-87933281D01*
X164108319Y-88132583D01*
X164108322Y-88132589D01*
X164109268Y-88135126D01*
X164213812Y-88326583D01*
X164344539Y-88501213D01*
X164498787Y-88655461D01*
X164673417Y-88786188D01*
X164864874Y-88890732D01*
X164867411Y-88891678D01*
X164867417Y-88891681D01*
X165066719Y-88966016D01*
X165069261Y-88966964D01*
X165282416Y-89013333D01*
X165500000Y-89028895D01*
X165500000Y-89027060D01*
X165503655Y-89025546D01*
X165507563Y-89025000D01*
X222482057Y-89025000D01*
X222493124Y-89027965D01*
X222500000Y-89028320D01*
X222500000Y-89028895D01*
X222717584Y-89013333D01*
X222930739Y-88966964D01*
X222933281Y-88966016D01*
X223132583Y-88891681D01*
X223132589Y-88891678D01*
X223135126Y-88890732D01*
X223326583Y-88786188D01*
X223501213Y-88655461D01*
X223655461Y-88501213D01*
X223786188Y-88326583D01*
X223890732Y-88135126D01*
X223891678Y-88132589D01*
X223891681Y-88132583D01*
X223966016Y-87933281D01*
X223966016Y-87933280D01*
X223966964Y-87930739D01*
X224013333Y-87717584D01*
X224028895Y-87500000D01*
X224027060Y-87500000D01*
X224025546Y-87496345D01*
X224025000Y-87492437D01*
X224025000Y-61517943D01*
X224027965Y-61506876D01*
X224028320Y-61500000D01*
X224028895Y-61500000D01*
X224013333Y-61282416D01*
X223966964Y-61069261D01*
X223951017Y-61026506D01*
X223891681Y-60867417D01*
X223891678Y-60867411D01*
X223890732Y-60864874D01*
X223786188Y-60673417D01*
X223681882Y-60534081D01*
X223657087Y-60500959D01*
X223655461Y-60498787D01*
X223501213Y-60344539D01*
X223326583Y-60213812D01*
X223135126Y-60109268D01*
X223132589Y-60108322D01*
X223132583Y-60108319D01*
X222933281Y-60033984D01*
X222933280Y-60033984D01*
X222930739Y-60033036D01*
X222717584Y-59986667D01*
X222500000Y-59971105D01*
X222500000Y-59972940D01*
X222496345Y-59974454D01*
X222492437Y-59975000D01*
X165517943Y-59975000D01*
X165506876Y-59972035D01*
X165500000Y-59971680D01*
X165500000Y-59971105D01*
X165282416Y-59986667D01*
X165069261Y-60033036D01*
X165066720Y-60033984D01*
X165066719Y-60033984D01*
X164867417Y-60108319D01*
X164867411Y-60108322D01*
X164864874Y-60109268D01*
X164673417Y-60213812D01*
X164498787Y-60344539D01*
X164344539Y-60498787D01*
X164342913Y-60500959D01*
X164318118Y-60534081D01*
X164213812Y-60673417D01*
X164109268Y-60864874D01*
X164108322Y-60867411D01*
X164108319Y-60867417D01*
X164048983Y-61026506D01*
X164033036Y-61069261D01*
X163986667Y-61282416D01*
X163971105Y-61500000D01*
X163972940Y-61500000D01*
X163974454Y-61503655D01*
X163975000Y-61507563D01*
X163975000Y-87482057D01*
X163972035Y-87493124D01*
X163971680Y-87500000D01*
X163971105Y-87500000D01*
X158137487Y-87500000D01*
X158043793Y-87252048D01*
X158043159Y-87250369D01*
X157860560Y-86877639D01*
X157643695Y-86523747D01*
X157394488Y-86191835D01*
X157115152Y-85884848D01*
X156808165Y-85605512D01*
X156476253Y-85356305D01*
X156122361Y-85139440D01*
X155749631Y-84956841D01*
X155513878Y-84867758D01*
X155363039Y-84810760D01*
X155363034Y-84810758D01*
X155361371Y-84810130D01*
X154961028Y-84700608D01*
X154959250Y-84700298D01*
X154959247Y-84700297D01*
X154553926Y-84629558D01*
X154553921Y-84629557D01*
X154552154Y-84629249D01*
X154550377Y-84629109D01*
X154550368Y-84629108D01*
X154358106Y-84613977D01*
X154174160Y-84599500D01*
X153894189Y-84599500D01*
X153893329Y-84599541D01*
X153893310Y-84599541D01*
X153587199Y-84613977D01*
X153587189Y-84613978D01*
X153585407Y-84614062D01*
X153583630Y-84614315D01*
X153583629Y-84614315D01*
X153176256Y-84672292D01*
X153176254Y-84672292D01*
X153174493Y-84672543D01*
X153172761Y-84672959D01*
X153172760Y-84672959D01*
X152772647Y-84769018D01*
X152772642Y-84769019D01*
X152770907Y-84769436D01*
X152378231Y-84903879D01*
X151999949Y-85074680D01*
X151639420Y-85280322D01*
X151299844Y-85518980D01*
X151298481Y-85520144D01*
X151298476Y-85520148D01*
X150985593Y-85787376D01*
X150984235Y-85788536D01*
X150982999Y-85789812D01*
X150982991Y-85789819D01*
X150696638Y-86085312D01*
X150695393Y-86086597D01*
X150435884Y-86410518D01*
X150208010Y-86757423D01*
X150013793Y-87124234D01*
X150013109Y-87125886D01*
X149855648Y-87506028D01*
X149855644Y-87506040D01*
X149854959Y-87507693D01*
X149854428Y-87509419D01*
X149749807Y-87849498D01*
X149732917Y-87904399D01*
X149648749Y-88310830D01*
X149603203Y-88723377D01*
X149596684Y-89138380D01*
X142297063Y-89138380D01*
X142355592Y-88983395D01*
X142517476Y-88449632D01*
X142525827Y-88422097D01*
X142525828Y-88422092D01*
X142526195Y-88420883D01*
X142658975Y-87848262D01*
X142753342Y-87268072D01*
X142755176Y-87248753D01*
X142808759Y-86684141D01*
X142808878Y-86682887D01*
X142825337Y-86095303D01*
X142817160Y-85883646D01*
X142802694Y-85509186D01*
X142802693Y-85509175D01*
X142802645Y-85507927D01*
X142740904Y-84923365D01*
X142640387Y-84344209D01*
X142501539Y-83773029D01*
X142324978Y-83212358D01*
X142111486Y-82664684D01*
X141862011Y-82132437D01*
X141577658Y-81617977D01*
X141259690Y-81123587D01*
X140909517Y-80651459D01*
X140528692Y-80203689D01*
X140118905Y-79782263D01*
X139681974Y-79389050D01*
X139219836Y-79025795D01*
X139218801Y-79025088D01*
X139218792Y-79025081D01*
X138735579Y-78694816D01*
X138735577Y-78694815D01*
X138734543Y-78694108D01*
X138309985Y-78443676D01*
X138229334Y-78396103D01*
X138229330Y-78396101D01*
X138228247Y-78395462D01*
X138227137Y-78394903D01*
X138227131Y-78394900D01*
X137704292Y-78131734D01*
X137704288Y-78131732D01*
X137703193Y-78131181D01*
X137161712Y-77902438D01*
X137085277Y-77875993D01*
X136607412Y-77710664D01*
X136607396Y-77710659D01*
X136606205Y-77710247D01*
X136039136Y-77555462D01*
X135463022Y-77438767D01*
X135461760Y-77438598D01*
X135461749Y-77438596D01*
X134881689Y-77360852D01*
X134881675Y-77360851D01*
X134880417Y-77360682D01*
X134293907Y-77321553D01*
X133706093Y-77321553D01*
X133119583Y-77360682D01*
X133118325Y-77360851D01*
X133118311Y-77360852D01*
X132538251Y-77438596D01*
X132538240Y-77438598D01*
X132536978Y-77438767D01*
X131960864Y-77555462D01*
X131393795Y-77710247D01*
X131392604Y-77710659D01*
X131392588Y-77710664D01*
X130914723Y-77875993D01*
X130838288Y-77902438D01*
X130296807Y-78131181D01*
X130295712Y-78131732D01*
X130295708Y-78131734D01*
X129772869Y-78394900D01*
X129772863Y-78394903D01*
X129771753Y-78395462D01*
X129770670Y-78396101D01*
X129770666Y-78396103D01*
X129690016Y-78443676D01*
X129265457Y-78694108D01*
X129264423Y-78694815D01*
X129264421Y-78694816D01*
X128781208Y-79025081D01*
X128781199Y-79025088D01*
X128780164Y-79025795D01*
X128318026Y-79389050D01*
X127881095Y-79782263D01*
X127471308Y-80203689D01*
X127090483Y-80651459D01*
X126740310Y-81123587D01*
X126422342Y-81617977D01*
X126137989Y-82132437D01*
X125888514Y-82664684D01*
X125675022Y-83212358D01*
X125498461Y-83773029D01*
X125359613Y-84344209D01*
X125259096Y-84923365D01*
X125197355Y-85507927D01*
X125197307Y-85509175D01*
X125197306Y-85509186D01*
X125182840Y-85883646D01*
X125174663Y-86095303D01*
X102825337Y-86095303D01*
X102817160Y-85883646D01*
X102802694Y-85509186D01*
X102802693Y-85509175D01*
X102802645Y-85507927D01*
X102740904Y-84923365D01*
X102640387Y-84344209D01*
X102501539Y-83773029D01*
X102324978Y-83212358D01*
X102111486Y-82664684D01*
X101862011Y-82132437D01*
X101577658Y-81617977D01*
X101259690Y-81123587D01*
X100909517Y-80651459D01*
X100528692Y-80203689D01*
X100118905Y-79782263D01*
X99681974Y-79389050D01*
X99219836Y-79025795D01*
X99218801Y-79025088D01*
X99218792Y-79025081D01*
X98735579Y-78694816D01*
X98735577Y-78694815D01*
X98734543Y-78694108D01*
X98309985Y-78443676D01*
X98229334Y-78396103D01*
X98229330Y-78396101D01*
X98228247Y-78395462D01*
X98227137Y-78394903D01*
X98227131Y-78394900D01*
X97704292Y-78131734D01*
X97704288Y-78131732D01*
X97703193Y-78131181D01*
X97161712Y-77902438D01*
X97085277Y-77875993D01*
X96607412Y-77710664D01*
X96607396Y-77710659D01*
X96606205Y-77710247D01*
X96039136Y-77555462D01*
X95463022Y-77438767D01*
X95461760Y-77438598D01*
X95461749Y-77438596D01*
X94881689Y-77360852D01*
X94881675Y-77360851D01*
X94880417Y-77360682D01*
X94293907Y-77321553D01*
X93706093Y-77321553D01*
X93119583Y-77360682D01*
X93118325Y-77360851D01*
X93118311Y-77360852D01*
X92538251Y-77438596D01*
X92538240Y-77438598D01*
X92536978Y-77438767D01*
X91960864Y-77555462D01*
X91393795Y-77710247D01*
X91392604Y-77710659D01*
X91392588Y-77710664D01*
X90914723Y-77875993D01*
X90838288Y-77902438D01*
X90296807Y-78131181D01*
X90295712Y-78131732D01*
X90295708Y-78131734D01*
X89772869Y-78394900D01*
X89772863Y-78394903D01*
X89771753Y-78395462D01*
X89770670Y-78396101D01*
X89770666Y-78396103D01*
X89690016Y-78443676D01*
X89265457Y-78694108D01*
X89264423Y-78694815D01*
X89264421Y-78694816D01*
X88781208Y-79025081D01*
X88781199Y-79025088D01*
X88780164Y-79025795D01*
X88318026Y-79389050D01*
X87881095Y-79782263D01*
X87471308Y-80203689D01*
X87090483Y-80651459D01*
X86740310Y-81123587D01*
X86422342Y-81617977D01*
X86137989Y-82132437D01*
X85888514Y-82664684D01*
X85675022Y-83212358D01*
X85498461Y-83773029D01*
X85359613Y-84344209D01*
X85259096Y-84923365D01*
X85197355Y-85507927D01*
X85197307Y-85509175D01*
X85197306Y-85509186D01*
X85182840Y-85883646D01*
X85174663Y-86095303D01*
X67525000Y-86095303D01*
X67525000Y-75000000D01*
X105922940Y-75000000D01*
X105925000Y-75004973D01*
X105930866Y-75019134D01*
X105950000Y-75027060D01*
X105954973Y-75025000D01*
X122045027Y-75025000D01*
X122050000Y-75027060D01*
X122054973Y-75025000D01*
X122069134Y-75019134D01*
X122077060Y-75000000D01*
X122075000Y-74995027D01*
X122075000Y-72100000D01*
X127872940Y-72100000D01*
X127875000Y-72104973D01*
X127880866Y-72119134D01*
X127900000Y-72127060D01*
X127904973Y-72125000D01*
X140095027Y-72125000D01*
X140100000Y-72127060D01*
X140104973Y-72125000D01*
X140119134Y-72119134D01*
X140127060Y-72100000D01*
X140125000Y-72095027D01*
X140125000Y-63497744D01*
X150746163Y-63497744D01*
X150754592Y-63855419D01*
X150802220Y-64210009D01*
X150888470Y-64557232D01*
X151012302Y-64892892D01*
X151013235Y-64894760D01*
X151013238Y-64894766D01*
X151105669Y-65079749D01*
X151172220Y-65212937D01*
X151366291Y-65513501D01*
X151592173Y-65790954D01*
X151847137Y-66041944D01*
X151848780Y-66043239D01*
X152126463Y-66262148D01*
X152126473Y-66262155D01*
X152128103Y-66263440D01*
X152129870Y-66264542D01*
X152429910Y-66451664D01*
X152429918Y-66451669D01*
X152431678Y-66452766D01*
X152433547Y-66453663D01*
X152433557Y-66453669D01*
X152625031Y-66545613D01*
X152754196Y-66607637D01*
X152756155Y-66608325D01*
X152756160Y-66608327D01*
X152957815Y-66679143D01*
X153091760Y-66726181D01*
X153440295Y-66806967D01*
X153564352Y-66821650D01*
X153793948Y-66848825D01*
X153793953Y-66848825D01*
X153795589Y-66849019D01*
X153842714Y-66850500D01*
X154089817Y-66850500D01*
X154090847Y-66850443D01*
X154090858Y-66850443D01*
X154221707Y-66843242D01*
X154357234Y-66835783D01*
X154710153Y-66777041D01*
X154712158Y-66776476D01*
X154712165Y-66776474D01*
X155052488Y-66680493D01*
X155054495Y-66679927D01*
X155386100Y-66545613D01*
X155558175Y-66452766D01*
X155699134Y-66376709D01*
X155699142Y-66376704D01*
X155700964Y-66375721D01*
X155995284Y-66172305D01*
X156265504Y-65937819D01*
X156508362Y-65675097D01*
X156720923Y-65387312D01*
X156900621Y-65077940D01*
X156982430Y-64892892D01*
X157044437Y-64752636D01*
X157044439Y-64752630D01*
X157045285Y-64750717D01*
X157153167Y-64409596D01*
X157222966Y-64058696D01*
X157253837Y-63702256D01*
X157245408Y-63344581D01*
X157197780Y-62989991D01*
X157111530Y-62642768D01*
X156987698Y-62307108D01*
X156896191Y-62123973D01*
X156828722Y-61988948D01*
X156828721Y-61988946D01*
X156827780Y-61987063D01*
X156633709Y-61686499D01*
X156407827Y-61409046D01*
X156310788Y-61313519D01*
X156154352Y-61159522D01*
X156152863Y-61158056D01*
X156054948Y-61080866D01*
X155873537Y-60937852D01*
X155873527Y-60937845D01*
X155871897Y-60936560D01*
X155690276Y-60823291D01*
X155570090Y-60748336D01*
X155570082Y-60748331D01*
X155568322Y-60747234D01*
X155566453Y-60746337D01*
X155566443Y-60746331D01*
X155247680Y-60593264D01*
X155245804Y-60592363D01*
X155243845Y-60591675D01*
X155243840Y-60591673D01*
X154973874Y-60496868D01*
X154908240Y-60473819D01*
X154559705Y-60393033D01*
X154435648Y-60378350D01*
X154206052Y-60351175D01*
X154206047Y-60351175D01*
X154204411Y-60350981D01*
X154157286Y-60349500D01*
X153910183Y-60349500D01*
X153909153Y-60349557D01*
X153909142Y-60349557D01*
X153778293Y-60356758D01*
X153642766Y-60364217D01*
X153289847Y-60422959D01*
X153287842Y-60423524D01*
X153287835Y-60423526D01*
X153107056Y-60474511D01*
X152945505Y-60520073D01*
X152613900Y-60654387D01*
X152574224Y-60675795D01*
X152300866Y-60823291D01*
X152300858Y-60823296D01*
X152299036Y-60824279D01*
X152004716Y-61027695D01*
X151734496Y-61262181D01*
X151733077Y-61263716D01*
X151733076Y-61263717D01*
X151694939Y-61304973D01*
X151491638Y-61524903D01*
X151279077Y-61812688D01*
X151099379Y-62122060D01*
X151098535Y-62123969D01*
X151098533Y-62123973D01*
X151016705Y-62309065D01*
X150954715Y-62449283D01*
X150846833Y-62790404D01*
X150777034Y-63141304D01*
X150746163Y-63497744D01*
X140125000Y-63497744D01*
X140125000Y-61304973D01*
X140127060Y-61300000D01*
X140119134Y-61280866D01*
X140104973Y-61275000D01*
X140100000Y-61272940D01*
X140095027Y-61275000D01*
X127904973Y-61275000D01*
X127900000Y-61272940D01*
X127895027Y-61275000D01*
X127880866Y-61280866D01*
X127872940Y-61300000D01*
X127875000Y-61304973D01*
X127875000Y-72095027D01*
X127872940Y-72100000D01*
X122075000Y-72100000D01*
X122075000Y-61104973D01*
X122077060Y-61100000D01*
X122069134Y-61080866D01*
X122054973Y-61075000D01*
X122050000Y-61072940D01*
X122045027Y-61075000D01*
X105954973Y-61075000D01*
X105950000Y-61072940D01*
X105945027Y-61075000D01*
X105930866Y-61080866D01*
X105922940Y-61100000D01*
X105925000Y-61104973D01*
X105925000Y-74995027D01*
X105922940Y-75000000D01*
X67525000Y-75000000D01*
X67525000Y-70008821D01*
X73720515Y-70008821D01*
X73720631Y-70010862D01*
X73720631Y-70010871D01*
X73737343Y-70304973D01*
X73740625Y-70362729D01*
X73740960Y-70364744D01*
X73740961Y-70364750D01*
X73798477Y-70710377D01*
X73798479Y-70710386D01*
X73798814Y-70712399D01*
X73894405Y-71053745D01*
X73895167Y-71055647D01*
X73895168Y-71055649D01*
X74025517Y-71380881D01*
X74025521Y-71380889D01*
X74026279Y-71382781D01*
X74192895Y-71695661D01*
X74194056Y-71697367D01*
X74369693Y-71955492D01*
X74392309Y-71988730D01*
X74622188Y-72258564D01*
X74623680Y-72259974D01*
X74623686Y-72259980D01*
X74770186Y-72398398D01*
X74879848Y-72502011D01*
X75162279Y-72716226D01*
X75466180Y-72898707D01*
X75788001Y-73047321D01*
X75789946Y-73047975D01*
X75789948Y-73047976D01*
X76122040Y-73159679D01*
X76122044Y-73159680D01*
X76123982Y-73160332D01*
X76125977Y-73160770D01*
X76125979Y-73160771D01*
X76224305Y-73182380D01*
X76470199Y-73236420D01*
X76472234Y-73236641D01*
X76472240Y-73236642D01*
X76620745Y-73252772D01*
X76822605Y-73274697D01*
X76999672Y-73274705D01*
X77175024Y-73274714D01*
X77177083Y-73274714D01*
X77421162Y-73248227D01*
X77527449Y-73236693D01*
X77527452Y-73236692D01*
X77529493Y-73236471D01*
X77702605Y-73198443D01*
X77873710Y-73160857D01*
X77873716Y-73160855D01*
X77875716Y-73160416D01*
X78211709Y-73047437D01*
X78213567Y-73046579D01*
X78213575Y-73046576D01*
X78531665Y-72899722D01*
X78531673Y-72899718D01*
X78533544Y-72898854D01*
X78837463Y-72716402D01*
X78839088Y-72715170D01*
X78839095Y-72715165D01*
X79118267Y-72503463D01*
X79118268Y-72503463D01*
X79119914Y-72502214D01*
X79377597Y-72258792D01*
X79378926Y-72257232D01*
X79378932Y-72257226D01*
X79606167Y-71990548D01*
X79606168Y-71990547D01*
X79607503Y-71988980D01*
X79806944Y-71695930D01*
X79807901Y-71694133D01*
X79807906Y-71694125D01*
X79972624Y-71384881D01*
X79973591Y-71383066D01*
X80105496Y-71054043D01*
X80201119Y-70712706D01*
X80259343Y-70363042D01*
X80259689Y-70356974D01*
X80262932Y-70300000D01*
X83802940Y-70300000D01*
X83805000Y-70304973D01*
X83810866Y-70319134D01*
X83830000Y-70327060D01*
X83834973Y-70325000D01*
X104325027Y-70325000D01*
X104330000Y-70327060D01*
X104334973Y-70325000D01*
X104349134Y-70319134D01*
X104357060Y-70300000D01*
X104355000Y-70295027D01*
X104355000Y-61304973D01*
X104357060Y-61300000D01*
X104349134Y-61280866D01*
X104334973Y-61275000D01*
X104330000Y-61272940D01*
X104325027Y-61275000D01*
X83834973Y-61275000D01*
X83830000Y-61272940D01*
X83825027Y-61275000D01*
X83810866Y-61280866D01*
X83802940Y-61300000D01*
X83805000Y-61304973D01*
X83805000Y-70295027D01*
X83802940Y-70300000D01*
X80262932Y-70300000D01*
X80279369Y-70011196D01*
X80279369Y-70011191D01*
X80279486Y-70009136D01*
X80261315Y-69655123D01*
X80205040Y-69305140D01*
X80204414Y-69302856D01*
X80111863Y-68965254D01*
X80111860Y-68965246D01*
X80111320Y-68963275D01*
X79981250Y-68633522D01*
X79816349Y-68319735D01*
X79640734Y-68058577D01*
X79619691Y-68027283D01*
X79619687Y-68027277D01*
X79618544Y-68025578D01*
X79617228Y-68024017D01*
X79617222Y-68024008D01*
X79421764Y-67792018D01*
X79390145Y-67754489D01*
X79133822Y-67509635D01*
X78852568Y-67293877D01*
X78850823Y-67292816D01*
X78850814Y-67292810D01*
X78628888Y-67157894D01*
X78549671Y-67109735D01*
X78403900Y-67041448D01*
X78240803Y-66965045D01*
X78240801Y-66965045D01*
X78228668Y-66959361D01*
X78227638Y-66961911D01*
X78217646Y-66961998D01*
X78217114Y-66962000D01*
X78210056Y-66962000D01*
X78209135Y-66961958D01*
X78209004Y-66962000D01*
X76523711Y-66961919D01*
X75786608Y-66961883D01*
X75782924Y-66961883D01*
X75772655Y-66961793D01*
X75771625Y-66959243D01*
X75450608Y-67109587D01*
X75147693Y-67293699D01*
X74866419Y-67509431D01*
X74610072Y-67754260D01*
X74381648Y-68025327D01*
X74183814Y-68319465D01*
X74018883Y-68633236D01*
X74018130Y-68635145D01*
X73889534Y-68961067D01*
X73889531Y-68961077D01*
X73888781Y-68962977D01*
X73888239Y-68964952D01*
X73888239Y-68964953D01*
X73888157Y-68965254D01*
X73795028Y-69304833D01*
X73738720Y-69654810D01*
X73720515Y-70008821D01*
X67525000Y-70008821D01*
X67525000Y-59500000D01*
X76172940Y-59500000D01*
X76175000Y-59504973D01*
X76180866Y-59519134D01*
X76200000Y-59527060D01*
X76204973Y-59525000D01*
X83795027Y-59525000D01*
X83800000Y-59527060D01*
X83804973Y-59525000D01*
X83819134Y-59519134D01*
X83827060Y-59500000D01*
X83825000Y-59495027D01*
X83825000Y-56850000D01*
X127371105Y-56850000D01*
X127386667Y-57067584D01*
X127433036Y-57280739D01*
X127433984Y-57283280D01*
X127433984Y-57283281D01*
X127508319Y-57482583D01*
X127508322Y-57482589D01*
X127509268Y-57485126D01*
X127613812Y-57676583D01*
X127744539Y-57851213D01*
X127898787Y-58005461D01*
X128073417Y-58136188D01*
X128264874Y-58240732D01*
X128267411Y-58241678D01*
X128267417Y-58241681D01*
X128466719Y-58316016D01*
X128469261Y-58316964D01*
X128682416Y-58363333D01*
X128900000Y-58378895D01*
X128900000Y-58377060D01*
X128903655Y-58375546D01*
X128907563Y-58375000D01*
X139086023Y-58375000D01*
X139101084Y-58378536D01*
X139101783Y-58378528D01*
X139101819Y-58379102D01*
X139106454Y-58378478D01*
X139106456Y-58378478D01*
X139329942Y-58348392D01*
X139329947Y-58348391D01*
X139332628Y-58348030D01*
X139556666Y-58284427D01*
X139559147Y-58283321D01*
X139559152Y-58283319D01*
X139670851Y-58233515D01*
X139769372Y-58189587D01*
X139966415Y-58065441D01*
X140143785Y-57914517D01*
X140297871Y-57739886D01*
X140425536Y-57545104D01*
X140524181Y-57334136D01*
X140591798Y-57111277D01*
X140627011Y-56881063D01*
X140629102Y-56648181D01*
X140627007Y-56648312D01*
X140626834Y-56647958D01*
X140625000Y-56637278D01*
X140625000Y-54607165D01*
X192247866Y-54607165D01*
X192248247Y-54609964D01*
X192248247Y-54609965D01*
X192267120Y-54748637D01*
X192282952Y-54864970D01*
X192283740Y-54867672D01*
X192283740Y-54867674D01*
X192299862Y-54922986D01*
X192355758Y-55114757D01*
X192464686Y-55351039D01*
X192466227Y-55353390D01*
X192466229Y-55353393D01*
X192472526Y-55362997D01*
X192607341Y-55568625D01*
X192609226Y-55570737D01*
X192685141Y-55655792D01*
X192780591Y-55762735D01*
X192980629Y-55929105D01*
X193203061Y-56064080D01*
X193443001Y-56164695D01*
X193695177Y-56228739D01*
X193697977Y-56229021D01*
X193697983Y-56229022D01*
X193909385Y-56250309D01*
X193909393Y-56250309D01*
X193911286Y-56250500D01*
X194066044Y-56250500D01*
X194068614Y-56250309D01*
X194256657Y-56236335D01*
X194256660Y-56236335D01*
X194259466Y-56236126D01*
X194373787Y-56210258D01*
X194510481Y-56179328D01*
X194510487Y-56179326D01*
X194513232Y-56178705D01*
X194634478Y-56131555D01*
X194753096Y-56085427D01*
X194753101Y-56085425D01*
X194755723Y-56084405D01*
X194981612Y-55955299D01*
X194983831Y-55953550D01*
X194983835Y-55953547D01*
X195183719Y-55795971D01*
X195183721Y-55795969D01*
X195185936Y-55794223D01*
X195364208Y-55604714D01*
X195454194Y-55475000D01*
X195510899Y-55393261D01*
X195510900Y-55393259D01*
X195512511Y-55390937D01*
X195526290Y-55362997D01*
X195626339Y-55160116D01*
X195626340Y-55160114D01*
X195627586Y-55157587D01*
X195706906Y-54909792D01*
X195748728Y-54652994D01*
X195752134Y-54392835D01*
X195745519Y-54344226D01*
X195717428Y-54137820D01*
X195717427Y-54137816D01*
X195717048Y-54135030D01*
X195703201Y-54087521D01*
X195645032Y-53887953D01*
X195645032Y-53887952D01*
X195644242Y-53885243D01*
X195535314Y-53648961D01*
X195517580Y-53621911D01*
X195394210Y-53433741D01*
X195392659Y-53431375D01*
X195360448Y-53395286D01*
X195221290Y-53239372D01*
X195221287Y-53239369D01*
X195219409Y-53237265D01*
X195097595Y-53135953D01*
X195021538Y-53072697D01*
X195021536Y-53072695D01*
X195019371Y-53070895D01*
X194986518Y-53050959D01*
X194939050Y-53022155D01*
X194796939Y-52935920D01*
X194556999Y-52835305D01*
X194401687Y-52795861D01*
X224747051Y-52795861D01*
X224747268Y-52798032D01*
X224747268Y-52798039D01*
X224757092Y-52896458D01*
X224781419Y-53140177D01*
X224781887Y-53142322D01*
X224781887Y-53142324D01*
X224837548Y-53397607D01*
X224855133Y-53478261D01*
X224855839Y-53480324D01*
X224855841Y-53480330D01*
X224957893Y-53778399D01*
X224967217Y-53805633D01*
X225116186Y-54117952D01*
X225117349Y-54119806D01*
X225290395Y-54395665D01*
X225300064Y-54411079D01*
X225301434Y-54412790D01*
X225301439Y-54412796D01*
X225496102Y-54655774D01*
X225516415Y-54681129D01*
X225762371Y-54924523D01*
X225764087Y-54925869D01*
X225764091Y-54925872D01*
X225840575Y-54985843D01*
X226034672Y-55138034D01*
X226329709Y-55318832D01*
X226643570Y-55464522D01*
X226645648Y-55465209D01*
X226645655Y-55465212D01*
X226765882Y-55504973D01*
X226972097Y-55573172D01*
X226974237Y-55573615D01*
X226974240Y-55573616D01*
X227308790Y-55642898D01*
X227308794Y-55642899D01*
X227310935Y-55643342D01*
X227313118Y-55643537D01*
X227313119Y-55643537D01*
X227613539Y-55670349D01*
X227613543Y-55670349D01*
X227615233Y-55670500D01*
X227838189Y-55670500D01*
X228095453Y-55655666D01*
X228436328Y-55596174D01*
X228562271Y-55558868D01*
X228766001Y-55498521D01*
X228766008Y-55498518D01*
X228768106Y-55497897D01*
X228774835Y-55495027D01*
X229084376Y-55362997D01*
X229084381Y-55362994D01*
X229086389Y-55362138D01*
X229164313Y-55317691D01*
X229385068Y-55191775D01*
X229385073Y-55191772D01*
X229386959Y-55190696D01*
X229665832Y-54985843D01*
X229731821Y-54924523D01*
X229917714Y-54751780D01*
X229919312Y-54750295D01*
X230144038Y-54487174D01*
X230205530Y-54395665D01*
X230335814Y-54201781D01*
X230337033Y-54199967D01*
X230370550Y-54135030D01*
X230494737Y-53894424D01*
X230494739Y-53894419D01*
X230495739Y-53892482D01*
X230618050Y-53568793D01*
X230640271Y-53480330D01*
X230701815Y-53235311D01*
X230702348Y-53233190D01*
X230747513Y-52890124D01*
X230751155Y-52658319D01*
X230752915Y-52546322D01*
X230752915Y-52546317D01*
X230752949Y-52544139D01*
X230752204Y-52536667D01*
X230718799Y-52202007D01*
X230718581Y-52199823D01*
X230697839Y-52104689D01*
X230645335Y-51863885D01*
X230645335Y-51863883D01*
X230644867Y-51861739D01*
X230614598Y-51773328D01*
X230533491Y-51536435D01*
X230532783Y-51534367D01*
X230383814Y-51222048D01*
X230199936Y-50928921D01*
X230198566Y-50927210D01*
X230198561Y-50927204D01*
X229984948Y-50660572D01*
X229984946Y-50660570D01*
X229983585Y-50658871D01*
X229737629Y-50415477D01*
X229715551Y-50398165D01*
X229467047Y-50203314D01*
X229465328Y-50201966D01*
X229170291Y-50021168D01*
X228856430Y-49875478D01*
X228854352Y-49874791D01*
X228854345Y-49874788D01*
X228690744Y-49820683D01*
X228527903Y-49766828D01*
X228525763Y-49766385D01*
X228525760Y-49766384D01*
X228191210Y-49697102D01*
X228191206Y-49697101D01*
X228189065Y-49696658D01*
X228186882Y-49696463D01*
X228186881Y-49696463D01*
X227886461Y-49669651D01*
X227886457Y-49669651D01*
X227884767Y-49669500D01*
X227661811Y-49669500D01*
X227404547Y-49684334D01*
X227063672Y-49743826D01*
X226975006Y-49770090D01*
X226733999Y-49841479D01*
X226733992Y-49841482D01*
X226731894Y-49842103D01*
X226729878Y-49842963D01*
X226729875Y-49842964D01*
X226415624Y-49977003D01*
X226415619Y-49977006D01*
X226413611Y-49977862D01*
X226411714Y-49978944D01*
X226411712Y-49978945D01*
X226114932Y-50148225D01*
X226114927Y-50148228D01*
X226113041Y-50149304D01*
X225834168Y-50354157D01*
X225832566Y-50355646D01*
X225832562Y-50355649D01*
X225582286Y-50588220D01*
X225580688Y-50589705D01*
X225355962Y-50852826D01*
X225354747Y-50854634D01*
X225354744Y-50854638D01*
X225183310Y-51109760D01*
X225162967Y-51140033D01*
X225161966Y-51141972D01*
X225161965Y-51141974D01*
X225090245Y-51280929D01*
X225004261Y-51447518D01*
X224881950Y-51771207D01*
X224881418Y-51773324D01*
X224881417Y-51773328D01*
X224859210Y-51861739D01*
X224797652Y-52106810D01*
X224752487Y-52449876D01*
X224751114Y-52537246D01*
X224747288Y-52780799D01*
X224747051Y-52795861D01*
X194401687Y-52795861D01*
X194304823Y-52771261D01*
X194302023Y-52770979D01*
X194302017Y-52770978D01*
X194090615Y-52749691D01*
X194090607Y-52749691D01*
X194088714Y-52749500D01*
X193933956Y-52749500D01*
X193932543Y-52749605D01*
X193743343Y-52763665D01*
X193743340Y-52763665D01*
X193740534Y-52763874D01*
X193665736Y-52780799D01*
X193489519Y-52820672D01*
X193489513Y-52820674D01*
X193486768Y-52821295D01*
X193365522Y-52868445D01*
X193246904Y-52914573D01*
X193246899Y-52914575D01*
X193244277Y-52915595D01*
X193018388Y-53044701D01*
X193016169Y-53046450D01*
X193016165Y-53046453D01*
X192816281Y-53204029D01*
X192814064Y-53205777D01*
X192635792Y-53395286D01*
X192487489Y-53609063D01*
X192486239Y-53611597D01*
X192486237Y-53611601D01*
X192390552Y-53805633D01*
X192372414Y-53842413D01*
X192357042Y-53890436D01*
X192310244Y-54036633D01*
X192293094Y-54090208D01*
X192251272Y-54347006D01*
X192247866Y-54607165D01*
X140625000Y-54607165D01*
X140625000Y-54067943D01*
X140627965Y-54056876D01*
X140628320Y-54050000D01*
X140628895Y-54050000D01*
X140613333Y-53832416D01*
X140566964Y-53619261D01*
X140548141Y-53568793D01*
X140491681Y-53417417D01*
X140491678Y-53417411D01*
X140490732Y-53414874D01*
X140386188Y-53223417D01*
X140272011Y-53070895D01*
X140257087Y-53050959D01*
X140255461Y-53048787D01*
X140101213Y-52894539D01*
X139926583Y-52763812D01*
X139735126Y-52659268D01*
X139732589Y-52658322D01*
X139732583Y-52658319D01*
X139533281Y-52583984D01*
X139533280Y-52583984D01*
X139530739Y-52583036D01*
X139317584Y-52536667D01*
X139100000Y-52521105D01*
X139100000Y-52522940D01*
X139096345Y-52524454D01*
X139092437Y-52525000D01*
X128917943Y-52525000D01*
X128906876Y-52522035D01*
X128900000Y-52521680D01*
X128900000Y-52521105D01*
X128682416Y-52536667D01*
X128469261Y-52583036D01*
X128466720Y-52583984D01*
X128466719Y-52583984D01*
X128267417Y-52658319D01*
X128267411Y-52658322D01*
X128264874Y-52659268D01*
X128073417Y-52763812D01*
X127898787Y-52894539D01*
X127744539Y-53048787D01*
X127742913Y-53050959D01*
X127727989Y-53070895D01*
X127613812Y-53223417D01*
X127509268Y-53414874D01*
X127508322Y-53417411D01*
X127508319Y-53417417D01*
X127451859Y-53568793D01*
X127433036Y-53619261D01*
X127386667Y-53832416D01*
X127371105Y-54050000D01*
X127372940Y-54050000D01*
X127374454Y-54053655D01*
X127375000Y-54057563D01*
X127375000Y-56832057D01*
X127372035Y-56843124D01*
X127371680Y-56850000D01*
X127371105Y-56850000D01*
X83825000Y-56850000D01*
X83825000Y-55504973D01*
X83827060Y-55500000D01*
X83819134Y-55480866D01*
X83804973Y-55475000D01*
X83800000Y-55472940D01*
X83795027Y-55475000D01*
X83101000Y-55475000D01*
X83052148Y-55457219D01*
X83026155Y-55412197D01*
X83025000Y-55399000D01*
X83025000Y-52404973D01*
X83027060Y-52400000D01*
X83019134Y-52380866D01*
X83004973Y-52375000D01*
X83000000Y-52372940D01*
X82995027Y-52375000D01*
X77004973Y-52375000D01*
X77000000Y-52372940D01*
X76995027Y-52375000D01*
X76980866Y-52380866D01*
X76972940Y-52400000D01*
X76975000Y-52404973D01*
X76975000Y-55399000D01*
X76957219Y-55447852D01*
X76912197Y-55473845D01*
X76899000Y-55475000D01*
X76204973Y-55475000D01*
X76200000Y-55472940D01*
X76195027Y-55475000D01*
X76180866Y-55480866D01*
X76172940Y-55500000D01*
X76175000Y-55504973D01*
X76175000Y-59495027D01*
X76172940Y-59500000D01*
X67525000Y-59500000D01*
X67525000Y-52795861D01*
X69247051Y-52795861D01*
X69247268Y-52798032D01*
X69247268Y-52798039D01*
X69257092Y-52896458D01*
X69281419Y-53140177D01*
X69281887Y-53142322D01*
X69281887Y-53142324D01*
X69337548Y-53397607D01*
X69355133Y-53478261D01*
X69355839Y-53480324D01*
X69355841Y-53480330D01*
X69457893Y-53778399D01*
X69467217Y-53805633D01*
X69616186Y-54117952D01*
X69617349Y-54119806D01*
X69790395Y-54395665D01*
X69800064Y-54411079D01*
X69801434Y-54412790D01*
X69801439Y-54412796D01*
X69996102Y-54655774D01*
X70016415Y-54681129D01*
X70262371Y-54924523D01*
X70264087Y-54925869D01*
X70264091Y-54925872D01*
X70340575Y-54985843D01*
X70534672Y-55138034D01*
X70829709Y-55318832D01*
X71143570Y-55464522D01*
X71145648Y-55465209D01*
X71145655Y-55465212D01*
X71265882Y-55504973D01*
X71472097Y-55573172D01*
X71474237Y-55573615D01*
X71474240Y-55573616D01*
X71808790Y-55642898D01*
X71808794Y-55642899D01*
X71810935Y-55643342D01*
X71813118Y-55643537D01*
X71813119Y-55643537D01*
X72113539Y-55670349D01*
X72113543Y-55670349D01*
X72115233Y-55670500D01*
X72338189Y-55670500D01*
X72595453Y-55655666D01*
X72936328Y-55596174D01*
X73062271Y-55558868D01*
X73266001Y-55498521D01*
X73266008Y-55498518D01*
X73268106Y-55497897D01*
X73274835Y-55495027D01*
X73584376Y-55362997D01*
X73584381Y-55362994D01*
X73586389Y-55362138D01*
X73664313Y-55317691D01*
X73885068Y-55191775D01*
X73885073Y-55191772D01*
X73886959Y-55190696D01*
X74165832Y-54985843D01*
X74231821Y-54924523D01*
X74417714Y-54751780D01*
X74419312Y-54750295D01*
X74644038Y-54487174D01*
X74705530Y-54395665D01*
X74835814Y-54201781D01*
X74837033Y-54199967D01*
X74870550Y-54135030D01*
X74994737Y-53894424D01*
X74994739Y-53894419D01*
X74995739Y-53892482D01*
X75118050Y-53568793D01*
X75140271Y-53480330D01*
X75201815Y-53235311D01*
X75202348Y-53233190D01*
X75247513Y-52890124D01*
X75251155Y-52658319D01*
X75252915Y-52546322D01*
X75252915Y-52546317D01*
X75252949Y-52544139D01*
X75252204Y-52536667D01*
X75218799Y-52202007D01*
X75218581Y-52199823D01*
X75197839Y-52104689D01*
X75145335Y-51863885D01*
X75145335Y-51863883D01*
X75144867Y-51861739D01*
X75114598Y-51773328D01*
X75033491Y-51536435D01*
X75032783Y-51534367D01*
X74883814Y-51222048D01*
X74699936Y-50928921D01*
X74698566Y-50927210D01*
X74698561Y-50927204D01*
X74484948Y-50660572D01*
X74484946Y-50660570D01*
X74483585Y-50658871D01*
X74237629Y-50415477D01*
X74215551Y-50398165D01*
X73967047Y-50203314D01*
X73965328Y-50201966D01*
X73670291Y-50021168D01*
X73356430Y-49875478D01*
X73354352Y-49874791D01*
X73354345Y-49874788D01*
X73190744Y-49820683D01*
X73027903Y-49766828D01*
X73025763Y-49766385D01*
X73025760Y-49766384D01*
X72691210Y-49697102D01*
X72691206Y-49697101D01*
X72689065Y-49696658D01*
X72686882Y-49696463D01*
X72686881Y-49696463D01*
X72386461Y-49669651D01*
X72386457Y-49669651D01*
X72384767Y-49669500D01*
X72161811Y-49669500D01*
X71904547Y-49684334D01*
X71563672Y-49743826D01*
X71475006Y-49770090D01*
X71233999Y-49841479D01*
X71233992Y-49841482D01*
X71231894Y-49842103D01*
X71229878Y-49842963D01*
X71229875Y-49842964D01*
X70915624Y-49977003D01*
X70915619Y-49977006D01*
X70913611Y-49977862D01*
X70911714Y-49978944D01*
X70911712Y-49978945D01*
X70614932Y-50148225D01*
X70614927Y-50148228D01*
X70613041Y-50149304D01*
X70334168Y-50354157D01*
X70332566Y-50355646D01*
X70332562Y-50355649D01*
X70082286Y-50588220D01*
X70080688Y-50589705D01*
X69855962Y-50852826D01*
X69854747Y-50854634D01*
X69854744Y-50854638D01*
X69683310Y-51109760D01*
X69662967Y-51140033D01*
X69661966Y-51141972D01*
X69661965Y-51141974D01*
X69590245Y-51280929D01*
X69504261Y-51447518D01*
X69381950Y-51771207D01*
X69381418Y-51773324D01*
X69381417Y-51773328D01*
X69359210Y-51861739D01*
X69297652Y-52106810D01*
X69252487Y-52449876D01*
X69251114Y-52537246D01*
X69247288Y-52780799D01*
X69247051Y-52795861D01*
X67525000Y-52795861D01*
X67525000Y-52764973D01*
X67527060Y-52760000D01*
X67525218Y-52755554D01*
X67533647Y-52583984D01*
X67543428Y-52384895D01*
X67544159Y-52377473D01*
X67598717Y-52009671D01*
X67600172Y-52002355D01*
X67690519Y-51641672D01*
X67692684Y-51634535D01*
X67817948Y-51284444D01*
X67820802Y-51277554D01*
X67846121Y-51224023D01*
X67979779Y-50941427D01*
X67983295Y-50934849D01*
X68174449Y-50615926D01*
X68178592Y-50609725D01*
X68400090Y-50311070D01*
X68404822Y-50305304D01*
X68654526Y-50029799D01*
X68659799Y-50024526D01*
X68935304Y-49774822D01*
X68941070Y-49770090D01*
X69239725Y-49548592D01*
X69245926Y-49544449D01*
X69564849Y-49353295D01*
X69571427Y-49349779D01*
X69778814Y-49251692D01*
X69907558Y-49190800D01*
X69914438Y-49187950D01*
X70144950Y-49105472D01*
X70264535Y-49062684D01*
X70271672Y-49060519D01*
X70632355Y-48970172D01*
X70639671Y-48968717D01*
X71007473Y-48914159D01*
X71014895Y-48913428D01*
X71369828Y-48895991D01*
X71369829Y-48895991D01*
X71385554Y-48895218D01*
X71390000Y-48897060D01*
X71394973Y-48895000D01*
X228605027Y-48895000D01*
X228610000Y-48897060D01*
G37*
%TD.AperFunction*%
M02*
