M48
; DRILL file {KiCad 5.1.9-73d0e3b20d~88~ubuntu18.04.1} date Thu Dec 31 09:15:52 2020
; FORMAT={-:-/ absolute / metric / decimal}
; #@! TF.CreationDate,2020-12-31T09:15:52+01:00
; #@! TF.GenerationSoftware,Kicad,Pcbnew,5.1.9-73d0e3b20d~88~ubuntu18.04.1
; #@! TF.FileFunction,Plated,1,4,PTH
FMAT,2
METRIC
T1C0.300
T2C0.800
T3C1.000
T4C1.020
T5C1.300
T6C1.500
T7C2.410
T8C3.200
%
G90
G05
T1
X0.5Y-6.0
X0.5Y-9.0
X0.5Y-12.0
X0.5Y-15.0
X0.5Y-18.0
X0.5Y-21.0
X0.5Y-24.0
X0.5Y-27.0
X0.5Y-30.0
X0.5Y-33.0
X0.5Y-36.0
X0.5Y-39.0
X0.5Y-42.0
X0.5Y-45.0
X0.5Y-48.0
X0.5Y-51.0
X0.5Y-54.0
X0.5Y-57.0
X0.5Y-60.0
X0.5Y-63.0
X0.5Y-66.0
X0.5Y-71.75
X0.5Y-75.25
X0.5Y-78.0
X0.5Y-81.0
X0.5Y-84.0
X0.5Y-87.0
X0.5Y-90.0
X0.5Y-93.0
X1.0Y-1.0
X1.0Y-99.0
X1.3Y-71.2
X2.0Y-66.5
X2.0Y-77.0
X2.0Y-87.5
X2.8Y-59.2
X3.5Y-78.5
X4.5Y-28.5
X4.75Y-63.75
X5.5Y-49.0
X6.0Y-56.5
X6.0Y-59.5
X6.0Y-99.0
X6.25Y-13.75
X6.75Y-50.5
X7.0Y-1.0
X7.5Y-81.5
X7.548Y-53.75
X8.0Y-49.0
X9.0Y-99.0
X9.1Y-61.3
X9.1Y-28.6
X9.1Y-41.3
X9.1Y-69.5
X9.5Y-78.5
X9.75Y-63.75
X10.0Y-1.0
X10.0Y-51.25
X10.0Y-53.75
X10.5Y-56.5
X10.5Y-59.5
X10.5Y-62.0
X11.0Y-37.0
X11.0Y-38.5
X11.0Y-40.5
X11.0Y-70.5
X11.0Y-71.9
X11.25Y-32.75
X11.25Y-35.75
X11.5Y-42.0
X11.5Y-44.0
X11.5Y-46.0
X11.5Y-48.0
X11.5Y-63.75
X12.0Y-99.0
X12.25Y-27.5
X12.25Y-32.75
X12.25Y-35.75
X12.5Y-40.5
X12.5Y-41.5
X12.5Y-46.5
X13.0Y-1.0
X13.25Y-32.75
X13.25Y-35.75
X13.25Y-62.75
X13.25Y-64.0
X13.25Y-65.25
X13.275Y-36.875
X13.5Y-40.5
X13.5Y-41.5
X13.5Y-46.5
X14.1Y-38.7
X14.25Y-48.0
X14.25Y-87.5
X14.5Y-40.5
X14.5Y-41.5
X14.5Y-46.5
X14.5Y-78.5
X14.775Y-50.225
X14.8Y-82.0
X15.0Y-90.5
X15.0Y-99.0
X15.5Y-67.75
X15.75Y-32.75
X15.75Y-35.75
X15.75Y-38.5
X15.75Y-40.5
X16.0Y-1.0
X16.0Y-78.5
X16.5Y-48.0
X16.5Y-49.25
X16.6Y-69.5
X16.75Y-99.0
X17.0Y-54.75
X17.22Y-40.22
X17.25Y-38.5
X17.25Y-55.5
X17.25Y-81.75
X17.5Y-13.75
X17.5Y-63.75
X17.555Y-74.055
X18.0Y-50.0
X18.0Y-52.0
X18.25Y-29.75
X18.25Y-32.75
X18.25Y-35.75
X18.25Y-37.5
X18.75Y-55.5
X18.75Y-78.25
X19.0Y-1.0
X19.0Y-48.0
X19.25Y-39.5
X19.75Y-78.0
X19.79Y-68.802
X19.875Y-38.875
X20.0Y-9.25
X20.0Y-41.0
X20.0Y-75.2
X20.25Y-82.0
X20.578Y-67.698
X20.75Y-30.0
X20.75Y-34.0
X20.75Y-35.0
X20.75Y-57.75
X21.0Y-99.0
X21.25Y-13.75
X21.405Y-62.595
X21.5Y-36.5
X21.5Y-38.0
X21.5Y-39.25
X21.5Y-73.0
X21.75Y-31.75
X21.75Y-34.0
X21.75Y-35.0
X22.0Y-0.5
X22.5Y-52.5
X22.5Y-55.0
X22.5Y-60.25
X22.75Y-34.0
X22.75Y-35.0
X22.75Y-62.5
X23.25Y-41.0
X23.5Y-34.5
X23.5Y-48.0
X23.5Y-52.5
X23.5Y-99.0
X23.75Y-30.0
X23.9Y-90.7
X24.0Y-37.4
X24.25Y-39.25
X24.25Y-57.75
X24.5Y-52.5
X24.7Y-33.4
X24.7Y-34.6
X24.75Y-78.25
X25.0Y-1.0
X25.5Y-41.0
X25.5Y-52.5
X25.75Y-73.0
X25.9Y-33.4
X25.9Y-34.6
X26.5Y-30.0
X26.5Y-63.0
X27.0Y-99.0
X27.2Y-33.4
X27.2Y-34.6
X27.5Y-63.75
X28.0Y-1.0
X28.0Y-37.5
X28.25Y-48.0
X28.3Y-33.4
X28.3Y-34.6
X28.5Y-38.5
X29.0Y-36.0
X29.0Y-37.5
X29.25Y-30.0
X29.5Y-32.5
X29.5Y-34.25
X29.5Y-53.25
X29.5Y-78.5
X29.75Y-36.75
X30.0Y-99.0
X30.5Y-28.5
X30.5Y-42.75
X30.5Y-44.0
X30.5Y-45.25
X30.5Y-51.75
X30.5Y-53.0
X30.75Y-41.5
X30.75Y-46.5
X31.0Y-1.0
X31.25Y-29.25
X31.25Y-92.5
X31.75Y-63.75
X32.0Y-41.5
X32.0Y-46.5
X32.5Y-13.75
X33.0Y-99.0
X33.1Y-92.4
X33.25Y-28.5
X33.25Y-32.25
X33.25Y-41.5
X33.25Y-46.5
X33.25Y-48.0
X33.3Y-52.0
X34.0Y-1.0
X34.075Y-34.55
X34.25Y-41.5
X34.25Y-46.5
X34.25Y-63.75
X34.5Y-42.75
X34.5Y-44.0
X34.5Y-45.25
X34.548Y-74.7
X34.548Y-90.1
X34.75Y-33.975
X35.1Y-91.5
X35.148Y-49.1
X35.5Y-6.75
X35.8Y-94.1
X36.0Y-99.0
X36.75Y-91.5
X37.0Y-1.0
X38.8Y-95.75
X39.0Y-6.75
X39.0Y-99.0
X39.64Y-94.86
X39.7Y-95.7
X39.75Y-90.85
X40.0Y-1.0
X40.2Y-94.2
X41.0Y-90.5
X41.0Y-96.0
X42.0Y-99.0
X42.2Y-90.4
X42.2Y-91.6
X42.25Y-94.0
X43.0Y-1.0
X44.0Y-92.75
X45.0Y-99.0
X45.25Y-29.0
X45.5Y-46.75
X45.832Y-51.918
X46.0Y-1.0
X46.25Y-13.25
X46.25Y-24.5
X46.25Y-26.75
X46.25Y-54.0
X46.25Y-78.5
X46.4Y-90.3
X46.5Y-63.75
X46.9Y-94.6
X47.25Y-38.75
X47.3Y-40.4
X47.6Y-36.4
X47.6Y-35.6
X47.75Y-29.0
X48.0Y-14.0
X48.0Y-22.0
X48.0Y-32.5
X48.0Y-96.0
X48.0Y-99.0
X48.2Y-41.9
X48.2Y-87.1
X48.752Y-61.6
X48.8Y-30.3
X48.9Y-15.5
X49.0Y-1.0
X49.25Y-63.75
X49.25Y-78.5
X49.7Y-58.1
X49.7Y-54.4
X50.25Y-86.0
X50.5Y-42.6
X50.6Y-38.3
X50.975Y-63.75
X51.0Y-99.0
X51.25Y-29.0
X51.5Y-37.2
X51.5Y-41.75
X51.75Y-89.25
X52.0Y-1.0
X52.0Y-15.5
X52.25Y-23.25
X52.5Y-52.75
X52.5Y-66.75
X52.9Y-29.0
X53.0Y-78.5
X53.5Y-13.75
X53.5Y-16.5
X53.5Y-71.25
X54.0Y-99.0
X54.2Y-29.0
X54.5Y-22.25
X54.75Y-90.5
X55.0Y-1.0
X55.0Y-96.0
X55.252Y-62.5
X55.5Y-63.75
X56.25Y-44.0
X56.25Y-47.75
X56.25Y-60.75
X56.367Y-23.617
X56.4Y-46.5
X57.0Y-45.1
X57.0Y-99.0
X57.25Y-13.75
X57.25Y-24.5
X57.25Y-59.5
X58.0Y-1.0
X58.0Y-31.75
X58.25Y-29.0
X58.25Y-54.25
X58.25Y-78.5
X58.3Y-47.2
X58.5Y-40.7
X58.6Y-44.7
X59.0Y-6.0
X60.0Y-99.0
X60.5Y-7.5
X61.0Y-1.0
X61.25Y-62.0
X61.375Y-30.7
X61.5Y-7.5
X61.575Y-28.225
X61.7Y-52.1
X61.9Y-26.025
X62.0Y-96.0
X62.1Y-87.5
X62.25Y-58.5
X62.3Y-44.7
X62.3Y-48.8
X62.3Y-56.2
X62.5Y-90.5
X62.68Y-25.32
X62.7Y-55.3
X62.925Y-39.45
X63.0Y-41.9
X63.0Y-99.0
X63.25Y-60.25
X63.25Y-78.5
X63.4Y-51.0
X63.4Y-85.0
X63.5Y-13.75
X63.661Y-40.175
X63.75Y-26.75
X63.75Y-29.75
X63.75Y-94.5
X64.0Y-1.0
X64.0Y-63.25
X64.0Y-89.75
X64.25Y-71.25
X64.45Y-43.9
X64.7Y-32.0
X64.813Y-52.469
X65.0Y-29.0
X65.1Y-86.25
X65.25Y-50.75
X65.5Y-51.75
X65.7Y-28.2
X65.75Y-44.75
X65.75Y-63.5
X65.9Y-38.3
X66.0Y-87.75
X66.0Y-99.0
X66.25Y-44.0
X66.25Y-78.5
X66.462Y-29.037
X66.5Y-46.75
X66.7Y-39.3
X66.74Y-41.64
X66.75Y-25.5
X66.75Y-48.25
X66.948Y-90.75
X67.0Y-1.0
X67.0Y-50.75
X67.25Y-9.75
X67.25Y-22.0
X67.5Y-13.75
X67.75Y-59.75
X68.0Y-44.5
X68.25Y-45.5
X68.25Y-54.198
X68.25Y-86.5
X68.29Y-39.3
X68.3Y-73.6
X68.425Y-41.925
X68.5Y-47.5
X68.5Y-51.0
X68.75Y-63.0
X69.0Y-21.25
X69.0Y-55.25
X69.0Y-58.25
X69.0Y-96.0
X69.0Y-99.0
X69.15Y-38.3
X69.25Y-42.896
X69.25Y-44.0
X69.302Y-69.5
X69.5Y-35.85
X69.75Y-25.5
X69.75Y-28.5
X69.75Y-54.198
X69.8Y-20.2
X70.0Y-1.0
X70.0Y-46.0
X70.0Y-63.75
X70.25Y-53.0
X70.75Y-35.5
X71.0Y-21.25
X71.0Y-45.25
X71.25Y-37.5
X71.25Y-40.0
X71.75Y-36.25
X72.0Y-78.5
X72.0Y-99.0
X72.2Y-63.8
X72.5Y-13.75
X72.7Y-61.6
X72.75Y-28.5
X73.0Y-1.0
X73.0Y-59.4
X73.025Y-38.25
X73.25Y-44.25
X73.3Y-42.7
X73.4Y-57.3
X73.5Y-45.5
X73.65Y-48.15
X73.7Y-30.725
X73.7Y-55.0
X73.75Y-33.0
X73.9Y-49.4
X74.0Y-41.25
X74.0Y-52.0
X74.25Y-46.75
X74.75Y-72.5
X74.75Y-91.302
X75.0Y-99.0
X76.0Y-1.0
X76.0Y-12.75
X76.0Y-88.0
X76.5Y-39.0
X76.7Y-88.8
X76.75Y-28.25
X76.75Y-44.25
X76.75Y-63.25
X76.75Y-87.25
X77.0Y-52.25
X77.0Y-95.0
X77.25Y-12.5
X77.5Y-72.5
X77.75Y-13.75
X77.75Y-25.25
X77.75Y-46.75
X77.75Y-78.25
X77.9Y-48.0
X78.0Y-19.25
X78.0Y-99.0
X78.223Y-20.25
X78.25Y-14.5
X78.5Y-28.25
X78.5Y-41.75
X78.5Y-52.0
X78.5Y-54.5
X78.5Y-60.75
X78.75Y-65.75
X79.0Y-1.0
X79.0Y-4.5
X79.75Y-75.55
X79.9Y-28.3
X79.9Y-41.75
X80.198Y-30.75
X80.223Y-25.25
X80.25Y-16.5
X80.5Y-27.5
X80.9Y-74.8
X81.0Y-93.0
X81.0Y-99.0
X81.3Y-27.2
X81.75Y-50.75
X81.9Y-61.6
X82.0Y-1.0
X82.2Y-29.0
X82.302Y-58.25
X82.5Y-78.25
X82.75Y-5.0
X83.0Y-28.3
X83.15Y-48.45
X83.75Y-38.0
X83.8Y-17.3
X84.0Y-91.0
X84.0Y-99.0
X84.01Y-57.6
X84.25Y-13.75
X84.35Y-28.3
X84.75Y-4.75
X85.0Y-1.0
X85.0Y-43.25
X85.0Y-50.0
X85.15Y-48.55
X85.25Y-15.7
X85.25Y-59.5
X85.7Y-94.0
X85.75Y-28.3
X86.25Y-26.5
X86.5Y-34.25
X86.7Y-94.5
X86.75Y-41.5
X86.75Y-65.75
X86.75Y-84.75
X87.0Y-99.0
X87.25Y-13.75
X87.25Y-28.3
X87.5Y-42.25
X87.75Y-4.75
X87.8Y-95.6
X87.9Y-45.25
X87.9Y-91.9
X88.0Y-61.0
X88.0Y-1.0
X88.0Y-49.2
X88.329Y-56.75
X88.5Y-29.0
X88.65Y-58.9
X88.9Y-92.9
X89.0Y-14.25
X89.0Y-26.75
X89.1Y-61.6
X89.35Y-49.25
X89.6Y-77.3
X89.85Y-7.325
X90.0Y-99.0
X90.5Y-6.75
X91.0Y-1.0
X93.0Y-6.75
X93.0Y-99.0
X93.65Y-7.3
X94.0Y-1.0
X96.4Y-8.5
X96.425Y-7.4
X97.15Y-7.375
X97.15Y-8.475
X99.0Y-1.0
X99.0Y-99.0
X99.5Y-7.0
X99.5Y-10.0
X99.5Y-13.0
X99.5Y-16.0
X99.5Y-19.0
X99.5Y-22.0
X99.5Y-25.0
X99.5Y-28.0
X99.5Y-31.0
X99.5Y-34.0
X99.5Y-37.0
X99.5Y-40.0
X99.5Y-43.0
X99.5Y-46.0
X99.5Y-49.0
X99.5Y-52.0
X99.5Y-55.0
X99.5Y-58.0
X99.5Y-61.0
X99.5Y-64.0
X99.5Y-67.0
X99.5Y-70.0
X99.5Y-73.0
X99.5Y-76.0
X99.5Y-79.0
X99.5Y-82.0
X99.5Y-85.0
X99.5Y-88.0
X99.5Y-91.0
X99.5Y-94.0
T3
X16.15Y-85.0
X18.69Y-85.0
X20.25Y-95.0
X21.23Y-85.0
X22.79Y-95.0
X23.77Y-85.0
X26.31Y-85.0
X28.85Y-85.0
X37.04Y-10.0
X37.04Y-12.54
X37.04Y-15.08
X37.04Y-17.62
X37.04Y-20.16
X37.04Y-22.7
X37.04Y-25.24
X37.04Y-27.78
X37.04Y-30.32
X37.04Y-32.86
X37.04Y-35.4
X37.04Y-37.94
X37.04Y-40.48
X37.04Y-43.02
X37.04Y-45.56
X37.04Y-48.1
X37.04Y-50.64
X37.04Y-53.18
X37.04Y-55.72
X37.04Y-58.26
X37.04Y-60.8
X37.04Y-63.34
X37.04Y-65.88
X37.04Y-68.42
X37.04Y-70.96
X37.04Y-73.5
X37.04Y-76.04
X37.04Y-78.58
X37.04Y-81.12
X37.04Y-83.66
X37.04Y-86.2
X37.04Y-88.74
X39.58Y-10.0
X39.58Y-12.54
X39.58Y-15.08
X39.58Y-17.62
X39.58Y-20.16
X39.58Y-22.7
X39.58Y-25.24
X39.58Y-27.78
X39.58Y-30.32
X39.58Y-32.86
X39.58Y-35.4
X39.58Y-37.94
X39.58Y-40.48
X39.58Y-43.02
X39.58Y-45.56
X39.58Y-48.1
X39.58Y-50.64
X39.58Y-53.18
X39.58Y-55.72
X39.58Y-58.26
X39.58Y-60.8
X39.58Y-63.34
X39.58Y-65.88
X39.58Y-68.42
X39.58Y-70.96
X39.58Y-73.5
X39.58Y-76.04
X39.58Y-78.58
X39.58Y-81.12
X39.58Y-83.66
X39.58Y-86.2
X39.58Y-88.74
X42.12Y-10.0
X42.12Y-12.54
X42.12Y-15.08
X42.12Y-17.62
X42.12Y-20.16
X42.12Y-22.7
X42.12Y-25.24
X42.12Y-27.78
X42.12Y-30.32
X42.12Y-32.86
X42.12Y-35.4
X42.12Y-37.94
X42.12Y-40.48
X42.12Y-43.02
X42.12Y-45.56
X42.12Y-48.1
X42.12Y-50.64
X42.12Y-53.18
X42.12Y-55.72
X42.12Y-58.26
X42.12Y-60.8
X42.12Y-63.34
X42.12Y-65.88
X42.12Y-68.42
X42.12Y-70.96
X42.12Y-73.5
X42.12Y-76.04
X42.12Y-78.58
X42.12Y-81.12
X42.12Y-83.66
X42.12Y-86.2
X42.12Y-88.74
X44.66Y-10.0
X44.66Y-12.54
X44.66Y-15.08
X44.66Y-17.62
X44.66Y-20.16
X44.66Y-22.7
X44.66Y-25.24
X44.66Y-27.78
X44.66Y-30.32
X44.66Y-32.86
X44.66Y-35.4
X44.66Y-37.94
X44.66Y-40.48
X44.66Y-43.02
X44.66Y-45.56
X44.66Y-48.1
X44.66Y-50.64
X44.66Y-53.18
X44.66Y-55.72
X44.66Y-58.26
X44.66Y-60.8
X44.66Y-63.34
X44.66Y-65.88
X44.66Y-68.42
X44.66Y-70.96
X44.66Y-73.5
X44.66Y-76.04
X44.66Y-78.58
X44.66Y-81.12
X44.66Y-83.66
X44.66Y-86.2
X44.66Y-88.74
X59.9Y-20.0
X59.9Y-22.54
X59.9Y-25.08
X59.9Y-27.62
X59.9Y-30.16
X59.9Y-32.7
X59.9Y-35.24
X59.9Y-37.78
X59.9Y-40.32
X59.9Y-42.86
X59.9Y-45.4
X59.9Y-47.94
X59.9Y-50.48
X59.9Y-53.02
X59.9Y-55.56
X59.9Y-58.1
X59.9Y-60.64
X59.9Y-63.18
X59.9Y-65.72
X59.9Y-68.26
X63.71Y-7.5
X65.25Y-56.5
X66.25Y-7.5
X67.79Y-56.5
X68.79Y-7.5
X70.33Y-56.5
X71.33Y-7.5
X75.14Y-20.0
X75.14Y-22.54
X75.14Y-25.08
X75.14Y-27.62
X75.14Y-30.16
X75.14Y-32.7
X75.14Y-35.24
X75.14Y-37.78
X75.14Y-40.32
X75.14Y-42.86
X75.14Y-45.4
X75.14Y-47.94
X75.14Y-50.48
X75.14Y-53.02
X75.14Y-55.56
X75.14Y-58.1
X75.14Y-60.64
X75.14Y-63.18
X75.14Y-65.72
X75.14Y-68.26
X90.38Y-10.0
X90.38Y-12.54
X90.38Y-15.08
X90.38Y-17.62
X90.38Y-20.16
X90.38Y-22.7
X90.38Y-25.24
X90.38Y-27.78
X90.38Y-30.32
X90.38Y-32.86
X90.38Y-35.4
X90.38Y-37.94
X90.38Y-40.48
X90.38Y-43.02
X90.38Y-45.56
X90.38Y-48.1
X90.38Y-50.64
X90.38Y-53.18
X90.38Y-55.72
X90.38Y-58.26
X90.38Y-60.8
X90.38Y-63.34
X90.38Y-65.88
X90.38Y-68.42
X90.38Y-70.96
X90.38Y-73.5
X90.38Y-76.04
X90.38Y-78.58
X90.38Y-81.12
X90.38Y-83.66
X90.38Y-86.2
X90.38Y-88.74
X92.92Y-10.0
X92.92Y-12.54
X92.92Y-15.08
X92.92Y-17.62
X92.92Y-20.16
X92.92Y-22.7
X92.92Y-25.24
X92.92Y-27.78
X92.92Y-30.32
X92.92Y-32.86
X92.92Y-35.4
X92.92Y-37.94
X92.92Y-40.48
X92.92Y-43.02
X92.92Y-45.56
X92.92Y-48.1
X92.92Y-50.64
X92.92Y-53.18
X92.92Y-55.72
X92.92Y-58.26
X92.92Y-60.8
X92.92Y-63.34
X92.92Y-65.88
X92.92Y-68.42
X92.92Y-70.96
X92.92Y-73.5
X92.92Y-76.04
X92.92Y-78.58
X92.92Y-81.12
X92.92Y-83.66
X92.92Y-86.2
X92.92Y-88.74
X95.46Y-10.0
X95.46Y-12.54
X95.46Y-15.08
X95.46Y-17.62
X95.46Y-20.16
X95.46Y-22.7
X95.46Y-25.24
X95.46Y-27.78
X95.46Y-30.32
X95.46Y-32.86
X95.46Y-35.4
X95.46Y-37.94
X95.46Y-40.48
X95.46Y-43.02
X95.46Y-45.56
X95.46Y-48.1
X95.46Y-50.64
X95.46Y-53.18
X95.46Y-55.72
X95.46Y-58.26
X95.46Y-60.8
X95.46Y-63.34
X95.46Y-65.88
X95.46Y-68.42
X95.46Y-70.96
X95.46Y-73.5
X95.46Y-76.04
X95.46Y-78.58
X95.46Y-81.12
X95.46Y-83.66
X95.46Y-86.2
X95.46Y-88.74
X98.0Y-10.0
X98.0Y-12.54
X98.0Y-15.08
X98.0Y-17.62
X98.0Y-20.16
X98.0Y-22.7
X98.0Y-25.24
X98.0Y-27.78
X98.0Y-30.32
X98.0Y-32.86
X98.0Y-35.4
X98.0Y-37.94
X98.0Y-40.48
X98.0Y-43.02
X98.0Y-45.56
X98.0Y-48.1
X98.0Y-50.64
X98.0Y-53.18
X98.0Y-55.72
X98.0Y-58.26
X98.0Y-60.8
X98.0Y-63.34
X98.0Y-65.88
X98.0Y-68.42
X98.0Y-70.96
X98.0Y-73.5
X98.0Y-76.04
X98.0Y-78.58
X98.0Y-81.12
X98.0Y-83.66
X98.0Y-86.2
X98.0Y-88.74
T4
X6.0Y-70.0
X6.0Y-72.54
X6.0Y-75.08
X6.0Y-77.62
X12.0Y-10.0
X12.0Y-13.0
X15.0Y-10.0
X15.0Y-13.0
T5
X4.5Y-21.9
X4.5Y-44.25
T6
X14.38Y-19.46
X14.38Y-24.54
X19.46Y-19.46
X19.46Y-24.54
X24.54Y-19.46
X24.54Y-24.54
X29.62Y-19.46
X29.62Y-24.54
T7
X9.85Y-5.68
X17.15Y-5.68
T8
X4.0Y-4.0
X4.0Y-96.0
X96.0Y-4.0
X96.0Y-96.0
T2
G00X23.3Y-9.4
M15
G01X23.3Y-11.6
M16
G05
G00X29.1Y-7.5
M15
G01X26.9Y-7.5
M16
G05
G00X29.35Y-13.7
M15
G01X26.65Y-13.7
M16
G05
T0
M30
