%TF.GenerationSoftware,KiCad,Pcbnew,5.1.9-73d0e3b20d~88~ubuntu18.04.1*%
%TF.CreationDate,2020-12-31T09:15:49+01:00*%
%TF.ProjectId,frontpanel_dev_adapter,66726f6e-7470-4616-9e65-6c5f6465765f,r0.1*%
%TF.SameCoordinates,PX2faf080PY2faf080*%
%TF.FileFunction,Soldermask,Bot*%
%TF.FilePolarity,Negative*%
%FSLAX46Y46*%
G04 Gerber Fmt 4.6, Leading zero omitted, Abs format (unit mm)*
G04 Created by KiCad (PCBNEW 5.1.9-73d0e3b20d~88~ubuntu18.04.1) date 2020-12-31 09:15:49*
%MOMM*%
%LPD*%
G01*
G04 APERTURE LIST*
%ADD10C,0.100000*%
%ADD11C,3.100000*%
%ADD12R,3.100000X3.100000*%
%ADD13O,1.700000X1.700000*%
%ADD14R,1.700000X1.700000*%
%ADD15C,1.448000*%
%ADD16C,1.600000*%
%ADD17C,5.700000*%
%ADD18O,1.600000X2.400000*%
%ADD19C,3.000000*%
%ADD20C,1.100000*%
%ADD21O,2.030000X1.730000*%
%ADD22R,2.030000X1.730000*%
%ADD23C,1.500000*%
%ADD24C,3.410000*%
%ADD25R,1.300000X3.500000*%
%ADD26R,4.000000X1.300000*%
%ADD27R,3.500000X1.300000*%
%ADD28C,2.300000*%
G04 APERTURE END LIST*
D10*
%TO.C,JP603*%
G36*
X47100000Y-35700000D02*
G01*
X47100000Y-35300000D01*
X46900000Y-35300000D01*
X46900000Y-35700000D01*
X47100000Y-35700000D01*
G37*
X47100000Y-35700000D02*
X47100000Y-35300000D01*
X46900000Y-35300000D01*
X46900000Y-35700000D01*
X47100000Y-35700000D01*
%TO.C,JP602*%
G36*
X96150000Y-7900000D02*
G01*
X95750000Y-7900000D01*
X95750000Y-8100000D01*
X96150000Y-8100000D01*
X96150000Y-7900000D01*
G37*
X96150000Y-7900000D02*
X95750000Y-7900000D01*
X95750000Y-8100000D01*
X96150000Y-8100000D01*
X96150000Y-7900000D01*
%TO.C,JP601*%
G36*
X97800000Y-7900000D02*
G01*
X97400000Y-7900000D01*
X97400000Y-8100000D01*
X97800000Y-8100000D01*
X97800000Y-7900000D01*
G37*
X97800000Y-7900000D02*
X97400000Y-7900000D01*
X97400000Y-8100000D01*
X97800000Y-8100000D01*
X97800000Y-7900000D01*
%TD*%
D11*
%TO.C,J202*%
X29620000Y-24540000D03*
X29620000Y-19460000D03*
X24540000Y-24540000D03*
X24540000Y-19460000D03*
X19460000Y-19460000D03*
X19460000Y-24540000D03*
D12*
X14380000Y-19460000D03*
X14380000Y-24540000D03*
%TD*%
D13*
%TO.C,J304*%
X22790000Y-95000000D03*
D14*
X20250000Y-95000000D03*
%TD*%
D15*
%TO.C,M103*%
X91000000Y-4000000D03*
%TD*%
%TO.C,M102*%
X91000000Y-96000000D03*
%TD*%
%TO.C,M101*%
X9000000Y-96000000D03*
%TD*%
D16*
%TO.C,J504*%
X53000000Y-3500000D03*
X53000000Y-10500000D03*
%TD*%
D13*
%TO.C,J505*%
X70330000Y-56500000D03*
X67790000Y-56500000D03*
D14*
X65250000Y-56500000D03*
%TD*%
D17*
%TO.C,H104*%
X96000000Y-96000000D03*
%TD*%
%TO.C,H103*%
X4000000Y-96000000D03*
%TD*%
%TO.C,H102*%
X96000000Y-4000000D03*
%TD*%
%TO.C,H101*%
X4000000Y-4000000D03*
%TD*%
D18*
%TO.C,RTC501*%
X28850000Y-85000000D03*
X26310000Y-85000000D03*
X23770000Y-85000000D03*
X21230000Y-85000000D03*
X18690000Y-85000000D03*
G36*
G01*
X16550000Y-86400000D02*
X15750000Y-86400000D01*
G75*
G02*
X15350000Y-86000000I0J400000D01*
G01*
X15350000Y-84000000D01*
G75*
G02*
X15750000Y-83600000I400000J0D01*
G01*
X16550000Y-83600000D01*
G75*
G02*
X16950000Y-84000000I0J-400000D01*
G01*
X16950000Y-86000000D01*
G75*
G02*
X16550000Y-86400000I-400000J0D01*
G01*
G37*
D19*
X12975000Y-53250000D03*
X32025000Y-79920000D03*
X12975000Y-79920000D03*
%TD*%
D20*
%TO.C,M401*%
X8160000Y-75080000D03*
D21*
X6000000Y-77620000D03*
X6000000Y-75080000D03*
X6000000Y-72540000D03*
D22*
X6000000Y-70000000D03*
%TD*%
%TO.C,JP603*%
G36*
G01*
X46700000Y-35700000D02*
X47300000Y-35700000D01*
G75*
G02*
X47350000Y-35750000I0J-50000D01*
G01*
X47350000Y-36150000D01*
G75*
G02*
X47300000Y-36200000I-50000J0D01*
G01*
X46700000Y-36200000D01*
G75*
G02*
X46650000Y-36150000I0J50000D01*
G01*
X46650000Y-35750000D01*
G75*
G02*
X46700000Y-35700000I50000J0D01*
G01*
G37*
G36*
G01*
X46700000Y-34800000D02*
X47300000Y-34800000D01*
G75*
G02*
X47350000Y-34850000I0J-50000D01*
G01*
X47350000Y-35250000D01*
G75*
G02*
X47300000Y-35300000I-50000J0D01*
G01*
X46700000Y-35300000D01*
G75*
G02*
X46650000Y-35250000I0J50000D01*
G01*
X46650000Y-34850000D01*
G75*
G02*
X46700000Y-34800000I50000J0D01*
G01*
G37*
%TD*%
%TO.C,JP602*%
G36*
G01*
X96150000Y-8300000D02*
X96150000Y-7700000D01*
G75*
G02*
X96200000Y-7650000I50000J0D01*
G01*
X96600000Y-7650000D01*
G75*
G02*
X96650000Y-7700000I0J-50000D01*
G01*
X96650000Y-8300000D01*
G75*
G02*
X96600000Y-8350000I-50000J0D01*
G01*
X96200000Y-8350000D01*
G75*
G02*
X96150000Y-8300000I0J50000D01*
G01*
G37*
G36*
G01*
X95250000Y-8300000D02*
X95250000Y-7700000D01*
G75*
G02*
X95300000Y-7650000I50000J0D01*
G01*
X95700000Y-7650000D01*
G75*
G02*
X95750000Y-7700000I0J-50000D01*
G01*
X95750000Y-8300000D01*
G75*
G02*
X95700000Y-8350000I-50000J0D01*
G01*
X95300000Y-8350000D01*
G75*
G02*
X95250000Y-8300000I0J50000D01*
G01*
G37*
%TD*%
%TO.C,JP601*%
G36*
G01*
X97800000Y-8300000D02*
X97800000Y-7700000D01*
G75*
G02*
X97850000Y-7650000I50000J0D01*
G01*
X98250000Y-7650000D01*
G75*
G02*
X98300000Y-7700000I0J-50000D01*
G01*
X98300000Y-8300000D01*
G75*
G02*
X98250000Y-8350000I-50000J0D01*
G01*
X97850000Y-8350000D01*
G75*
G02*
X97800000Y-8300000I0J50000D01*
G01*
G37*
G36*
G01*
X96900000Y-8300000D02*
X96900000Y-7700000D01*
G75*
G02*
X96950000Y-7650000I50000J0D01*
G01*
X97350000Y-7650000D01*
G75*
G02*
X97400000Y-7700000I0J-50000D01*
G01*
X97400000Y-8300000D01*
G75*
G02*
X97350000Y-8350000I-50000J0D01*
G01*
X96950000Y-8350000D01*
G75*
G02*
X96900000Y-8300000I0J50000D01*
G01*
G37*
%TD*%
D13*
%TO.C,J604*%
X90380000Y-88740000D03*
X92920000Y-88740000D03*
X90380000Y-86200000D03*
X92920000Y-86200000D03*
X90380000Y-83660000D03*
X92920000Y-83660000D03*
X90380000Y-81120000D03*
X92920000Y-81120000D03*
X90380000Y-78580000D03*
X92920000Y-78580000D03*
X90380000Y-76040000D03*
X92920000Y-76040000D03*
X90380000Y-73500000D03*
X92920000Y-73500000D03*
X90380000Y-70960000D03*
X92920000Y-70960000D03*
X90380000Y-68420000D03*
X92920000Y-68420000D03*
X90380000Y-65880000D03*
X92920000Y-65880000D03*
X90380000Y-63340000D03*
X92920000Y-63340000D03*
X90380000Y-60800000D03*
X92920000Y-60800000D03*
X90380000Y-58260000D03*
X92920000Y-58260000D03*
X90380000Y-55720000D03*
X92920000Y-55720000D03*
X90380000Y-53180000D03*
X92920000Y-53180000D03*
X90380000Y-50640000D03*
X92920000Y-50640000D03*
X90380000Y-48100000D03*
X92920000Y-48100000D03*
X90380000Y-45560000D03*
X92920000Y-45560000D03*
X90380000Y-43020000D03*
X92920000Y-43020000D03*
X90380000Y-40480000D03*
X92920000Y-40480000D03*
X90380000Y-37940000D03*
X92920000Y-37940000D03*
X90380000Y-35400000D03*
X92920000Y-35400000D03*
X90380000Y-32860000D03*
X92920000Y-32860000D03*
X90380000Y-30320000D03*
X92920000Y-30320000D03*
X90380000Y-27780000D03*
X92920000Y-27780000D03*
X90380000Y-25240000D03*
X92920000Y-25240000D03*
X90380000Y-22700000D03*
X92920000Y-22700000D03*
X90380000Y-20160000D03*
X92920000Y-20160000D03*
X90380000Y-17620000D03*
X92920000Y-17620000D03*
X90380000Y-15080000D03*
X92920000Y-15080000D03*
X90380000Y-12540000D03*
X92920000Y-12540000D03*
X90380000Y-10000000D03*
D14*
X92920000Y-10000000D03*
%TD*%
D13*
%TO.C,J603*%
X37040000Y-88740000D03*
X39580000Y-88740000D03*
X37040000Y-86200000D03*
X39580000Y-86200000D03*
X37040000Y-83660000D03*
X39580000Y-83660000D03*
X37040000Y-81120000D03*
X39580000Y-81120000D03*
X37040000Y-78580000D03*
X39580000Y-78580000D03*
X37040000Y-76040000D03*
X39580000Y-76040000D03*
X37040000Y-73500000D03*
X39580000Y-73500000D03*
X37040000Y-70960000D03*
X39580000Y-70960000D03*
X37040000Y-68420000D03*
X39580000Y-68420000D03*
X37040000Y-65880000D03*
X39580000Y-65880000D03*
X37040000Y-63340000D03*
X39580000Y-63340000D03*
X37040000Y-60800000D03*
X39580000Y-60800000D03*
X37040000Y-58260000D03*
X39580000Y-58260000D03*
X37040000Y-55720000D03*
X39580000Y-55720000D03*
X37040000Y-53180000D03*
X39580000Y-53180000D03*
X37040000Y-50640000D03*
X39580000Y-50640000D03*
X37040000Y-48100000D03*
X39580000Y-48100000D03*
X37040000Y-45560000D03*
X39580000Y-45560000D03*
X37040000Y-43020000D03*
X39580000Y-43020000D03*
X37040000Y-40480000D03*
X39580000Y-40480000D03*
X37040000Y-37940000D03*
X39580000Y-37940000D03*
X37040000Y-35400000D03*
X39580000Y-35400000D03*
X37040000Y-32860000D03*
X39580000Y-32860000D03*
X37040000Y-30320000D03*
X39580000Y-30320000D03*
X37040000Y-27780000D03*
X39580000Y-27780000D03*
X37040000Y-25240000D03*
X39580000Y-25240000D03*
X37040000Y-22700000D03*
X39580000Y-22700000D03*
X37040000Y-20160000D03*
X39580000Y-20160000D03*
X37040000Y-17620000D03*
X39580000Y-17620000D03*
X37040000Y-15080000D03*
X39580000Y-15080000D03*
X37040000Y-12540000D03*
X39580000Y-12540000D03*
X37040000Y-10000000D03*
D14*
X39580000Y-10000000D03*
%TD*%
D13*
%TO.C,J602*%
X95460000Y-88740000D03*
X98000000Y-88740000D03*
X95460000Y-86200000D03*
X98000000Y-86200000D03*
X95460000Y-83660000D03*
X98000000Y-83660000D03*
X95460000Y-81120000D03*
X98000000Y-81120000D03*
X95460000Y-78580000D03*
X98000000Y-78580000D03*
X95460000Y-76040000D03*
X98000000Y-76040000D03*
X95460000Y-73500000D03*
X98000000Y-73500000D03*
X95460000Y-70960000D03*
X98000000Y-70960000D03*
X95460000Y-68420000D03*
X98000000Y-68420000D03*
X95460000Y-65880000D03*
X98000000Y-65880000D03*
X95460000Y-63340000D03*
X98000000Y-63340000D03*
X95460000Y-60800000D03*
X98000000Y-60800000D03*
X95460000Y-58260000D03*
X98000000Y-58260000D03*
X95460000Y-55720000D03*
X98000000Y-55720000D03*
X95460000Y-53180000D03*
X98000000Y-53180000D03*
X95460000Y-50640000D03*
X98000000Y-50640000D03*
X95460000Y-48100000D03*
X98000000Y-48100000D03*
X95460000Y-45560000D03*
X98000000Y-45560000D03*
X95460000Y-43020000D03*
X98000000Y-43020000D03*
X95460000Y-40480000D03*
X98000000Y-40480000D03*
X95460000Y-37940000D03*
X98000000Y-37940000D03*
X95460000Y-35400000D03*
X98000000Y-35400000D03*
X95460000Y-32860000D03*
X98000000Y-32860000D03*
X95460000Y-30320000D03*
X98000000Y-30320000D03*
X95460000Y-27780000D03*
X98000000Y-27780000D03*
X95460000Y-25240000D03*
X98000000Y-25240000D03*
X95460000Y-22700000D03*
X98000000Y-22700000D03*
X95460000Y-20160000D03*
X98000000Y-20160000D03*
X95460000Y-17620000D03*
X98000000Y-17620000D03*
X95460000Y-15080000D03*
X98000000Y-15080000D03*
X95460000Y-12540000D03*
X98000000Y-12540000D03*
X95460000Y-10000000D03*
D14*
X98000000Y-10000000D03*
%TD*%
D13*
%TO.C,J601*%
X42120000Y-88740000D03*
X44660000Y-88740000D03*
X42120000Y-86200000D03*
X44660000Y-86200000D03*
X42120000Y-83660000D03*
X44660000Y-83660000D03*
X42120000Y-81120000D03*
X44660000Y-81120000D03*
X42120000Y-78580000D03*
X44660000Y-78580000D03*
X42120000Y-76040000D03*
X44660000Y-76040000D03*
X42120000Y-73500000D03*
X44660000Y-73500000D03*
X42120000Y-70960000D03*
X44660000Y-70960000D03*
X42120000Y-68420000D03*
X44660000Y-68420000D03*
X42120000Y-65880000D03*
X44660000Y-65880000D03*
X42120000Y-63340000D03*
X44660000Y-63340000D03*
X42120000Y-60800000D03*
X44660000Y-60800000D03*
X42120000Y-58260000D03*
X44660000Y-58260000D03*
X42120000Y-55720000D03*
X44660000Y-55720000D03*
X42120000Y-53180000D03*
X44660000Y-53180000D03*
X42120000Y-50640000D03*
X44660000Y-50640000D03*
X42120000Y-48100000D03*
X44660000Y-48100000D03*
X42120000Y-45560000D03*
X44660000Y-45560000D03*
X42120000Y-43020000D03*
X44660000Y-43020000D03*
X42120000Y-40480000D03*
X44660000Y-40480000D03*
X42120000Y-37940000D03*
X44660000Y-37940000D03*
X42120000Y-35400000D03*
X44660000Y-35400000D03*
X42120000Y-32860000D03*
X44660000Y-32860000D03*
X42120000Y-30320000D03*
X44660000Y-30320000D03*
X42120000Y-27780000D03*
X44660000Y-27780000D03*
X42120000Y-25240000D03*
X44660000Y-25240000D03*
X42120000Y-22700000D03*
X44660000Y-22700000D03*
X42120000Y-20160000D03*
X44660000Y-20160000D03*
X42120000Y-17620000D03*
X44660000Y-17620000D03*
X42120000Y-15080000D03*
X44660000Y-15080000D03*
X42120000Y-12540000D03*
X44660000Y-12540000D03*
X42120000Y-10000000D03*
D14*
X44660000Y-10000000D03*
%TD*%
D13*
%TO.C,J503*%
X71330000Y-7500000D03*
X68790000Y-7500000D03*
X66250000Y-7500000D03*
D14*
X63710000Y-7500000D03*
%TD*%
D13*
%TO.C,J502*%
X75140000Y-68260000D03*
X75140000Y-65720000D03*
X75140000Y-63180000D03*
X75140000Y-60640000D03*
X75140000Y-58100000D03*
X75140000Y-55560000D03*
X75140000Y-53020000D03*
X75140000Y-50480000D03*
X75140000Y-47940000D03*
X75140000Y-45400000D03*
X75140000Y-42860000D03*
X75140000Y-40320000D03*
X75140000Y-37780000D03*
X75140000Y-35240000D03*
X75140000Y-32700000D03*
X75140000Y-30160000D03*
X75140000Y-27620000D03*
X75140000Y-25080000D03*
X75140000Y-22540000D03*
D14*
X75140000Y-20000000D03*
%TD*%
D13*
%TO.C,J501*%
X59900000Y-68260000D03*
X59900000Y-65720000D03*
X59900000Y-63180000D03*
X59900000Y-60640000D03*
X59900000Y-58100000D03*
X59900000Y-55560000D03*
X59900000Y-53020000D03*
X59900000Y-50480000D03*
X59900000Y-47940000D03*
X59900000Y-45400000D03*
X59900000Y-42860000D03*
X59900000Y-40320000D03*
X59900000Y-37780000D03*
X59900000Y-35240000D03*
X59900000Y-32700000D03*
X59900000Y-30160000D03*
X59900000Y-27620000D03*
X59900000Y-25080000D03*
X59900000Y-22540000D03*
D14*
X59900000Y-20000000D03*
%TD*%
D23*
%TO.C,J203*%
X15000000Y-13000000D03*
X12000000Y-13000000D03*
X15000000Y-10000000D03*
G36*
G01*
X11250000Y-10500000D02*
X11250000Y-9500000D01*
G75*
G02*
X11500000Y-9250000I250000J0D01*
G01*
X12500000Y-9250000D01*
G75*
G02*
X12750000Y-9500000I0J-250000D01*
G01*
X12750000Y-10500000D01*
G75*
G02*
X12500000Y-10750000I-250000J0D01*
G01*
X11500000Y-10750000D01*
G75*
G02*
X11250000Y-10500000I0J250000D01*
G01*
G37*
D24*
X17150000Y-5680000D03*
X9850000Y-5680000D03*
%TD*%
D25*
%TO.C,J201*%
X23300000Y-10500000D03*
D26*
X28000000Y-13700000D03*
D27*
X28000000Y-7500000D03*
%TD*%
D19*
%TO.C,F201*%
X4500000Y-33000000D03*
D28*
X4500000Y-44250000D03*
X4500000Y-21900000D03*
%TD*%
%TO.C,BT501*%
G36*
G01*
X21010000Y-77300000D02*
X23990000Y-77300000D01*
G75*
G02*
X24300000Y-77610000I0J-310000D01*
G01*
X24300000Y-80090000D01*
G75*
G02*
X23990000Y-80400000I-310000J0D01*
G01*
X21010000Y-80400000D01*
G75*
G02*
X20700000Y-80090000I0J310000D01*
G01*
X20700000Y-77610000D01*
G75*
G02*
X21010000Y-77300000I310000J0D01*
G01*
G37*
G36*
G01*
X21460000Y-55400000D02*
X23540000Y-55400000D01*
G75*
G02*
X23800000Y-55660000I0J-260000D01*
G01*
X23800000Y-59640000D01*
G75*
G02*
X23540000Y-59900000I-260000J0D01*
G01*
X21460000Y-59900000D01*
G75*
G02*
X21200000Y-59640000I0J260000D01*
G01*
X21200000Y-55660000D01*
G75*
G02*
X21460000Y-55400000I260000J0D01*
G01*
G37*
%TD*%
M02*
