%TF.GenerationSoftware,KiCad,Pcbnew,5.1.9-73d0e3b20d~88~ubuntu18.04.1*%
%TF.CreationDate,2021-01-03T17:57:53+01:00*%
%TF.ProjectId,ss_frontpanel_inner_plate,73735f66-726f-46e7-9470-616e656c5f69,rev?*%
%TF.SameCoordinates,Original*%
%TF.FileFunction,Profile,NP*%
%FSLAX46Y46*%
G04 Gerber Fmt 4.6, Leading zero omitted, Abs format (unit mm)*
G04 Created by KiCad (PCBNEW 5.1.9-73d0e3b20d~88~ubuntu18.04.1) date 2021-01-03 17:57:53*
%MOMM*%
%LPD*%
G01*
G04 APERTURE LIST*
%TA.AperFunction,Profile*%
%ADD10C,0.050000*%
%TD*%
%TA.AperFunction,Profile*%
%ADD11C,0.120000*%
%TD*%
G04 APERTURE END LIST*
D10*
X71500000Y-100000000D02*
G75*
G02*
X67500000Y-96000000I0J4000000D01*
G01*
X71500000Y-100000000D02*
X228500000Y-100000000D01*
X232500000Y-96000000D02*
X232500000Y-52900000D01*
X228500000Y-48900000D02*
G75*
G02*
X232500000Y-52900000I0J-4000000D01*
G01*
X228500000Y-48900000D02*
X71500000Y-48900000D01*
X67500000Y-52900000D02*
X67500000Y-96000000D01*
X148000000Y-52350000D02*
G75*
G02*
X148000000Y-51050000I0J650000D01*
G01*
X152000000Y-51050000D02*
G75*
G02*
X152000000Y-52350000I0J-650000D01*
G01*
X148000000Y-52350000D02*
X152000000Y-52350000D01*
X148000000Y-51050000D02*
X152000000Y-51050000D01*
X148000000Y-97850000D02*
G75*
G02*
X148000000Y-96550000I0J650000D01*
G01*
X152000000Y-96550000D02*
G75*
G02*
X152000000Y-97850000I0J-650000D01*
G01*
X148000000Y-97850000D02*
X152000000Y-97850000D01*
X148000000Y-96550000D02*
X152000000Y-96550000D01*
X232500000Y-96000000D02*
G75*
G02*
X228500000Y-100000000I-4000000J0D01*
G01*
X67500000Y-52900000D02*
G75*
G02*
X71500000Y-48900000I4000000J0D01*
G01*
D11*
%TO.C,ASM1*%
X97650000Y-65000000D02*
G75*
G03*
X97650000Y-65000000I-9650000J0D01*
G01*
X76000000Y-93600000D02*
X100000000Y-93600000D01*
X75000000Y-81400000D02*
X75000000Y-92600000D01*
X100000000Y-80400000D02*
X76000000Y-80400000D01*
X101000000Y-92600000D02*
X101000000Y-81400000D01*
X100000000Y-93600000D02*
G75*
G03*
X101000000Y-92600000I0J1000000D01*
G01*
X75000000Y-92600000D02*
G75*
G03*
X76000000Y-93600000I1000000J0D01*
G01*
X76000000Y-80400000D02*
G75*
G03*
X75000000Y-81400000I0J-1000000D01*
G01*
X101000000Y-81400000D02*
G75*
G03*
X100000000Y-80400000I-1000000J0D01*
G01*
%TO.C,ASM2*%
X200000000Y-93600000D02*
X224000000Y-93600000D01*
X199000000Y-81500000D02*
X199000000Y-92600000D01*
X224000000Y-80500000D02*
X200000000Y-80500000D01*
X225000000Y-92600000D02*
X225000000Y-81500000D01*
X215650000Y-65000000D02*
G75*
G03*
X215650000Y-65000000I-3650000J0D01*
G01*
X225000000Y-81500000D02*
G75*
G03*
X224000000Y-80500000I-1000000J0D01*
G01*
X200000000Y-80500000D02*
G75*
G03*
X199000000Y-81500000I0J-1000000D01*
G01*
X199000000Y-92600000D02*
G75*
G03*
X200000000Y-93600000I1000000J0D01*
G01*
X224000000Y-93600000D02*
G75*
G03*
X225000000Y-92600000I0J1000000D01*
G01*
%TO.C,OLED1*%
X166000000Y-79000000D02*
X180500000Y-83000000D01*
X119500000Y-83000000D02*
X134000000Y-79000000D01*
X180500000Y-92100000D02*
X119500000Y-92100000D01*
X119500000Y-92100000D02*
X119500000Y-83000000D01*
X139000000Y-79000000D02*
X139000000Y-72500000D01*
X139000000Y-72500000D02*
X161000000Y-72500000D01*
X161000000Y-72500000D02*
X161000000Y-79000000D01*
X180500000Y-83000000D02*
X180500000Y-92100000D01*
X172500000Y-68000000D02*
X172500000Y-74500000D01*
X172500000Y-74500000D02*
X162500000Y-74500000D01*
X162500000Y-74500000D02*
X162500000Y-63000000D01*
X162500000Y-63000000D02*
X168500000Y-63000000D01*
X168500000Y-63000000D02*
X168500000Y-68000000D01*
X168500000Y-68000000D02*
X172500000Y-68000000D01*
X142000000Y-64000000D02*
X142000000Y-68000000D01*
X142000000Y-68000000D02*
X135500000Y-68000000D01*
X135500000Y-68000000D02*
X135500000Y-77500000D01*
X135500000Y-77500000D02*
X125500000Y-77500000D01*
X120000000Y-79500000D02*
X120000000Y-64000000D01*
X120000000Y-64000000D02*
X142000000Y-64000000D01*
X125500000Y-77500000D02*
X125500000Y-79500000D01*
X125500000Y-79500000D02*
X120000000Y-79500000D01*
X134000000Y-79000000D02*
X139000000Y-79000000D01*
X161000000Y-79000000D02*
X166000000Y-79000000D01*
%TD*%
M02*
