%TF.GenerationSoftware,KiCad,Pcbnew,5.1.9-73d0e3b20d~88~ubuntu18.04.1*%
%TF.CreationDate,2021-01-03T17:57:53+01:00*%
%TF.ProjectId,ss_frontpanel_inner_plate,73735f66-726f-46e7-9470-616e656c5f69,rev?*%
%TF.SameCoordinates,Original*%
%TF.FileFunction,Soldermask,Bot*%
%TF.FilePolarity,Negative*%
%FSLAX46Y46*%
G04 Gerber Fmt 4.6, Leading zero omitted, Abs format (unit mm)*
G04 Created by KiCad (PCBNEW 5.1.9-73d0e3b20d~88~ubuntu18.04.1) date 2021-01-03 17:57:53*
%MOMM*%
%LPD*%
G01*
G04 APERTURE LIST*
%ADD10C,3.000000*%
%ADD11O,2.200000X1.600000*%
%ADD12C,2.000000*%
%ADD13C,6.000000*%
%ADD14C,5.800000*%
%ADD15C,7.300000*%
%ADD16C,3.200000*%
%ADD17O,1.600000X2.200000*%
%ADD18C,5.500000*%
%ADD19C,5.000000*%
%ADD20R,2.000000X2.000000*%
%ADD21R,1.560000X0.650000*%
%ADD22C,4.600000*%
%ADD23R,1.060000X0.650000*%
%ADD24R,1.000000X1.500000*%
%ADD25R,2.000000X1.500000*%
%ADD26R,0.300000X1.500000*%
G04 APERTURE END LIST*
D10*
%TO.C,ASM1*%
X79500000Y-56500000D03*
X98500000Y-58000000D03*
D11*
X74500000Y-65000000D03*
X74500000Y-62460000D03*
G36*
G01*
X75600000Y-59320000D02*
X75600000Y-60520000D01*
G75*
G02*
X75400000Y-60720000I-200000J0D01*
G01*
X73600000Y-60720000D01*
G75*
G02*
X73400000Y-60520000I0J200000D01*
G01*
X73400000Y-59320000D01*
G75*
G02*
X73600000Y-59120000I200000J0D01*
G01*
X75400000Y-59120000D01*
G75*
G02*
X75600000Y-59320000I0J-200000D01*
G01*
G37*
X74500000Y-70080000D03*
X74500000Y-67540000D03*
G36*
G01*
X83920000Y-95090000D02*
X83920000Y-96690000D01*
G75*
G02*
X83720000Y-96890000I-200000J0D01*
G01*
X82120000Y-96890000D01*
G75*
G02*
X81920000Y-96690000I0J200000D01*
G01*
X81920000Y-95090000D01*
G75*
G02*
X82120000Y-94890000I200000J0D01*
G01*
X83720000Y-94890000D01*
G75*
G02*
X83920000Y-95090000I0J-200000D01*
G01*
G37*
D12*
X85460000Y-95890000D03*
X88000000Y-95890000D03*
D13*
X77000000Y-76000000D03*
X99000000Y-76000000D03*
%TD*%
D14*
%TO.C,ASM2*%
X223000000Y-77500000D03*
D15*
X212000000Y-65000000D03*
D16*
X218000000Y-56500000D03*
X204000000Y-56500000D03*
D11*
X199000000Y-65000000D03*
X199000000Y-62460000D03*
G36*
G01*
X200100000Y-59320000D02*
X200100000Y-60520000D01*
G75*
G02*
X199900000Y-60720000I-200000J0D01*
G01*
X198100000Y-60720000D01*
G75*
G02*
X197900000Y-60520000I0J200000D01*
G01*
X197900000Y-59320000D01*
G75*
G02*
X198100000Y-59120000I200000J0D01*
G01*
X199900000Y-59120000D01*
G75*
G02*
X200100000Y-59320000I0J-200000D01*
G01*
G37*
X199000000Y-67540000D03*
X199000000Y-70080000D03*
D14*
X201000000Y-77500000D03*
D17*
X212000000Y-95890000D03*
X209460000Y-95890000D03*
G36*
G01*
X207720000Y-95100000D02*
X207720000Y-96900000D01*
G75*
G02*
X207520000Y-97100000I-200000J0D01*
G01*
X206320000Y-97100000D01*
G75*
G02*
X206120000Y-96900000I0J200000D01*
G01*
X206120000Y-95100000D01*
G75*
G02*
X206320000Y-94900000I200000J0D01*
G01*
X207520000Y-94900000D01*
G75*
G02*
X207720000Y-95100000I0J-200000D01*
G01*
G37*
%TD*%
D18*
%TO.C,OLED1*%
X116000000Y-88800000D03*
X184000000Y-88800000D03*
X116000000Y-61500000D03*
X184000000Y-61500000D03*
D19*
X191600000Y-55500000D03*
X191600000Y-93500000D03*
X108400000Y-93500000D03*
X108400000Y-55500000D03*
D12*
X125870000Y-55000000D03*
X128410000Y-55000000D03*
X130950000Y-55000000D03*
X133490000Y-55000000D03*
X136030000Y-55000000D03*
X138570000Y-55000000D03*
X141110000Y-55000000D03*
X143650000Y-55000000D03*
X146190000Y-55000000D03*
X148730000Y-55000000D03*
X151270000Y-55000000D03*
X153810000Y-55000000D03*
X156350000Y-55000000D03*
X158890000Y-55000000D03*
X161430000Y-55000000D03*
X163970000Y-55000000D03*
X166510000Y-55000000D03*
X169050000Y-55000000D03*
X171590000Y-55000000D03*
D20*
X174130000Y-55000000D03*
%TD*%
%TO.C,C13*%
G36*
G01*
X187950000Y-74656250D02*
X187950000Y-74143750D01*
G75*
G02*
X188168750Y-73925000I218750J0D01*
G01*
X188606250Y-73925000D01*
G75*
G02*
X188825000Y-74143750I0J-218750D01*
G01*
X188825000Y-74656250D01*
G75*
G02*
X188606250Y-74875000I-218750J0D01*
G01*
X188168750Y-74875000D01*
G75*
G02*
X187950000Y-74656250I0J218750D01*
G01*
G37*
G36*
G01*
X186375000Y-74656250D02*
X186375000Y-74143750D01*
G75*
G02*
X186593750Y-73925000I218750J0D01*
G01*
X187031250Y-73925000D01*
G75*
G02*
X187250000Y-74143750I0J-218750D01*
G01*
X187250000Y-74656250D01*
G75*
G02*
X187031250Y-74875000I-218750J0D01*
G01*
X186593750Y-74875000D01*
G75*
G02*
X186375000Y-74656250I0J218750D01*
G01*
G37*
%TD*%
D21*
%TO.C,U6*%
X186250000Y-77000000D03*
X186250000Y-76050000D03*
X186250000Y-77950000D03*
X188950000Y-77950000D03*
X188950000Y-77000000D03*
X188950000Y-76050000D03*
%TD*%
D22*
%TO.C,H4*%
X72250000Y-52670000D03*
%TD*%
%TO.C,H3*%
X227750000Y-52670000D03*
%TD*%
%TO.C,H2*%
X227750000Y-96200000D03*
%TD*%
%TO.C,H1*%
X72250000Y-96200000D03*
%TD*%
%TO.C,M4*%
G36*
G01*
X158000000Y-92750800D02*
X158000000Y-94449200D01*
G75*
G02*
X157749200Y-94700000I-250800J0D01*
G01*
X154250800Y-94700000D01*
G75*
G02*
X154000000Y-94449200I0J250800D01*
G01*
X154000000Y-92750800D01*
G75*
G02*
X154250800Y-92500000I250800J0D01*
G01*
X157749200Y-92500000D01*
G75*
G02*
X158000000Y-92750800I0J-250800D01*
G01*
G37*
G36*
G01*
X142000000Y-94449200D02*
X142000000Y-92750800D01*
G75*
G02*
X142250800Y-92500000I250800J0D01*
G01*
X145749200Y-92500000D01*
G75*
G02*
X146000000Y-92750800I0J-250800D01*
G01*
X146000000Y-94449200D01*
G75*
G02*
X145749200Y-94700000I-250800J0D01*
G01*
X142250800Y-94700000D01*
G75*
G02*
X142000000Y-94449200I0J250800D01*
G01*
G37*
%TD*%
%TO.C,M5*%
G36*
G01*
X184000000Y-76150800D02*
X184000000Y-77849200D01*
G75*
G02*
X183749200Y-78100000I-250800J0D01*
G01*
X180250800Y-78100000D01*
G75*
G02*
X180000000Y-77849200I0J250800D01*
G01*
X180000000Y-76150800D01*
G75*
G02*
X180250800Y-75900000I250800J0D01*
G01*
X183749200Y-75900000D01*
G75*
G02*
X184000000Y-76150800I0J-250800D01*
G01*
G37*
G36*
G01*
X168000000Y-77849200D02*
X168000000Y-76150800D01*
G75*
G02*
X168250800Y-75900000I250800J0D01*
G01*
X171749200Y-75900000D01*
G75*
G02*
X172000000Y-76150800I0J-250800D01*
G01*
X172000000Y-77849200D01*
G75*
G02*
X171749200Y-78100000I-250800J0D01*
G01*
X168250800Y-78100000D01*
G75*
G02*
X168000000Y-77849200I0J250800D01*
G01*
G37*
%TD*%
D23*
%TO.C,U5*%
X103100000Y-53000000D03*
X103100000Y-53950000D03*
X103100000Y-52050000D03*
X100900000Y-52050000D03*
X100900000Y-53000000D03*
X100900000Y-53950000D03*
%TD*%
%TO.C,U4*%
X151100000Y-58500000D03*
X151100000Y-59450000D03*
X151100000Y-57550000D03*
X148900000Y-57550000D03*
X148900000Y-58500000D03*
X148900000Y-59450000D03*
%TD*%
%TO.C,U3*%
X183900000Y-53000000D03*
X183900000Y-52050000D03*
X183900000Y-53950000D03*
X186100000Y-53950000D03*
X186100000Y-53000000D03*
X186100000Y-52050000D03*
%TD*%
%TO.C,R7*%
G36*
G01*
X193756250Y-76650000D02*
X193243750Y-76650000D01*
G75*
G02*
X193025000Y-76431250I0J218750D01*
G01*
X193025000Y-75993750D01*
G75*
G02*
X193243750Y-75775000I218750J0D01*
G01*
X193756250Y-75775000D01*
G75*
G02*
X193975000Y-75993750I0J-218750D01*
G01*
X193975000Y-76431250D01*
G75*
G02*
X193756250Y-76650000I-218750J0D01*
G01*
G37*
G36*
G01*
X193756250Y-78225000D02*
X193243750Y-78225000D01*
G75*
G02*
X193025000Y-78006250I0J218750D01*
G01*
X193025000Y-77568750D01*
G75*
G02*
X193243750Y-77350000I218750J0D01*
G01*
X193756250Y-77350000D01*
G75*
G02*
X193975000Y-77568750I0J-218750D01*
G01*
X193975000Y-78006250D01*
G75*
G02*
X193756250Y-78225000I-218750J0D01*
G01*
G37*
%TD*%
%TO.C,R3*%
G36*
G01*
X192256250Y-80150000D02*
X191743750Y-80150000D01*
G75*
G02*
X191525000Y-79931250I0J218750D01*
G01*
X191525000Y-79493750D01*
G75*
G02*
X191743750Y-79275000I218750J0D01*
G01*
X192256250Y-79275000D01*
G75*
G02*
X192475000Y-79493750I0J-218750D01*
G01*
X192475000Y-79931250D01*
G75*
G02*
X192256250Y-80150000I-218750J0D01*
G01*
G37*
G36*
G01*
X192256250Y-81725000D02*
X191743750Y-81725000D01*
G75*
G02*
X191525000Y-81506250I0J218750D01*
G01*
X191525000Y-81068750D01*
G75*
G02*
X191743750Y-80850000I218750J0D01*
G01*
X192256250Y-80850000D01*
G75*
G02*
X192475000Y-81068750I0J-218750D01*
G01*
X192475000Y-81506250D01*
G75*
G02*
X192256250Y-81725000I-218750J0D01*
G01*
G37*
%TD*%
%TO.C,R2*%
G36*
G01*
X195256250Y-80150000D02*
X194743750Y-80150000D01*
G75*
G02*
X194525000Y-79931250I0J218750D01*
G01*
X194525000Y-79493750D01*
G75*
G02*
X194743750Y-79275000I218750J0D01*
G01*
X195256250Y-79275000D01*
G75*
G02*
X195475000Y-79493750I0J-218750D01*
G01*
X195475000Y-79931250D01*
G75*
G02*
X195256250Y-80150000I-218750J0D01*
G01*
G37*
G36*
G01*
X195256250Y-81725000D02*
X194743750Y-81725000D01*
G75*
G02*
X194525000Y-81506250I0J218750D01*
G01*
X194525000Y-81068750D01*
G75*
G02*
X194743750Y-80850000I218750J0D01*
G01*
X195256250Y-80850000D01*
G75*
G02*
X195475000Y-81068750I0J-218750D01*
G01*
X195475000Y-81506250D01*
G75*
G02*
X195256250Y-81725000I-218750J0D01*
G01*
G37*
%TD*%
%TO.C,C12*%
G36*
G01*
X99093750Y-52850000D02*
X99606250Y-52850000D01*
G75*
G02*
X99825000Y-53068750I0J-218750D01*
G01*
X99825000Y-53506250D01*
G75*
G02*
X99606250Y-53725000I-218750J0D01*
G01*
X99093750Y-53725000D01*
G75*
G02*
X98875000Y-53506250I0J218750D01*
G01*
X98875000Y-53068750D01*
G75*
G02*
X99093750Y-52850000I218750J0D01*
G01*
G37*
G36*
G01*
X99093750Y-51275000D02*
X99606250Y-51275000D01*
G75*
G02*
X99825000Y-51493750I0J-218750D01*
G01*
X99825000Y-51931250D01*
G75*
G02*
X99606250Y-52150000I-218750J0D01*
G01*
X99093750Y-52150000D01*
G75*
G02*
X98875000Y-51931250I0J218750D01*
G01*
X98875000Y-51493750D01*
G75*
G02*
X99093750Y-51275000I218750J0D01*
G01*
G37*
%TD*%
%TO.C,C11*%
G36*
G01*
X146743750Y-58350000D02*
X147256250Y-58350000D01*
G75*
G02*
X147475000Y-58568750I0J-218750D01*
G01*
X147475000Y-59006250D01*
G75*
G02*
X147256250Y-59225000I-218750J0D01*
G01*
X146743750Y-59225000D01*
G75*
G02*
X146525000Y-59006250I0J218750D01*
G01*
X146525000Y-58568750D01*
G75*
G02*
X146743750Y-58350000I218750J0D01*
G01*
G37*
G36*
G01*
X146743750Y-56775000D02*
X147256250Y-56775000D01*
G75*
G02*
X147475000Y-56993750I0J-218750D01*
G01*
X147475000Y-57431250D01*
G75*
G02*
X147256250Y-57650000I-218750J0D01*
G01*
X146743750Y-57650000D01*
G75*
G02*
X146525000Y-57431250I0J218750D01*
G01*
X146525000Y-56993750D01*
G75*
G02*
X146743750Y-56775000I218750J0D01*
G01*
G37*
%TD*%
%TO.C,C10*%
G36*
G01*
X188006250Y-53400000D02*
X187493750Y-53400000D01*
G75*
G02*
X187275000Y-53181250I0J218750D01*
G01*
X187275000Y-52743750D01*
G75*
G02*
X187493750Y-52525000I218750J0D01*
G01*
X188006250Y-52525000D01*
G75*
G02*
X188225000Y-52743750I0J-218750D01*
G01*
X188225000Y-53181250D01*
G75*
G02*
X188006250Y-53400000I-218750J0D01*
G01*
G37*
G36*
G01*
X188006250Y-54975000D02*
X187493750Y-54975000D01*
G75*
G02*
X187275000Y-54756250I0J218750D01*
G01*
X187275000Y-54318750D01*
G75*
G02*
X187493750Y-54100000I218750J0D01*
G01*
X188006250Y-54100000D01*
G75*
G02*
X188225000Y-54318750I0J-218750D01*
G01*
X188225000Y-54756250D01*
G75*
G02*
X188006250Y-54975000I-218750J0D01*
G01*
G37*
%TD*%
%TO.C,C7*%
G36*
G01*
X191743750Y-77350000D02*
X192256250Y-77350000D01*
G75*
G02*
X192475000Y-77568750I0J-218750D01*
G01*
X192475000Y-78006250D01*
G75*
G02*
X192256250Y-78225000I-218750J0D01*
G01*
X191743750Y-78225000D01*
G75*
G02*
X191525000Y-78006250I0J218750D01*
G01*
X191525000Y-77568750D01*
G75*
G02*
X191743750Y-77350000I218750J0D01*
G01*
G37*
G36*
G01*
X191743750Y-75775000D02*
X192256250Y-75775000D01*
G75*
G02*
X192475000Y-75993750I0J-218750D01*
G01*
X192475000Y-76431250D01*
G75*
G02*
X192256250Y-76650000I-218750J0D01*
G01*
X191743750Y-76650000D01*
G75*
G02*
X191525000Y-76431250I0J218750D01*
G01*
X191525000Y-75993750D01*
G75*
G02*
X191743750Y-75775000I218750J0D01*
G01*
G37*
%TD*%
%TO.C,C6*%
G36*
G01*
X172850000Y-53006250D02*
X172850000Y-52493750D01*
G75*
G02*
X173068750Y-52275000I218750J0D01*
G01*
X173506250Y-52275000D01*
G75*
G02*
X173725000Y-52493750I0J-218750D01*
G01*
X173725000Y-53006250D01*
G75*
G02*
X173506250Y-53225000I-218750J0D01*
G01*
X173068750Y-53225000D01*
G75*
G02*
X172850000Y-53006250I0J218750D01*
G01*
G37*
G36*
G01*
X171275000Y-53006250D02*
X171275000Y-52493750D01*
G75*
G02*
X171493750Y-52275000I218750J0D01*
G01*
X171931250Y-52275000D01*
G75*
G02*
X172150000Y-52493750I0J-218750D01*
G01*
X172150000Y-53006250D01*
G75*
G02*
X171931250Y-53225000I-218750J0D01*
G01*
X171493750Y-53225000D01*
G75*
G02*
X171275000Y-53006250I0J218750D01*
G01*
G37*
%TD*%
%TO.C,C5*%
G36*
G01*
X172850000Y-57756250D02*
X172850000Y-57243750D01*
G75*
G02*
X173068750Y-57025000I218750J0D01*
G01*
X173506250Y-57025000D01*
G75*
G02*
X173725000Y-57243750I0J-218750D01*
G01*
X173725000Y-57756250D01*
G75*
G02*
X173506250Y-57975000I-218750J0D01*
G01*
X173068750Y-57975000D01*
G75*
G02*
X172850000Y-57756250I0J218750D01*
G01*
G37*
G36*
G01*
X171275000Y-57756250D02*
X171275000Y-57243750D01*
G75*
G02*
X171493750Y-57025000I218750J0D01*
G01*
X171931250Y-57025000D01*
G75*
G02*
X172150000Y-57243750I0J-218750D01*
G01*
X172150000Y-57756250D01*
G75*
G02*
X171931250Y-57975000I-218750J0D01*
G01*
X171493750Y-57975000D01*
G75*
G02*
X171275000Y-57756250I0J218750D01*
G01*
G37*
%TD*%
%TO.C,C4*%
G36*
G01*
X175400000Y-60243750D02*
X175400000Y-60756250D01*
G75*
G02*
X175181250Y-60975000I-218750J0D01*
G01*
X174743750Y-60975000D01*
G75*
G02*
X174525000Y-60756250I0J218750D01*
G01*
X174525000Y-60243750D01*
G75*
G02*
X174743750Y-60025000I218750J0D01*
G01*
X175181250Y-60025000D01*
G75*
G02*
X175400000Y-60243750I0J-218750D01*
G01*
G37*
G36*
G01*
X176975000Y-60243750D02*
X176975000Y-60756250D01*
G75*
G02*
X176756250Y-60975000I-218750J0D01*
G01*
X176318750Y-60975000D01*
G75*
G02*
X176100000Y-60756250I0J218750D01*
G01*
X176100000Y-60243750D01*
G75*
G02*
X176318750Y-60025000I218750J0D01*
G01*
X176756250Y-60025000D01*
G75*
G02*
X176975000Y-60243750I0J-218750D01*
G01*
G37*
%TD*%
%TO.C,C3*%
G36*
G01*
X172850000Y-60756250D02*
X172850000Y-60243750D01*
G75*
G02*
X173068750Y-60025000I218750J0D01*
G01*
X173506250Y-60025000D01*
G75*
G02*
X173725000Y-60243750I0J-218750D01*
G01*
X173725000Y-60756250D01*
G75*
G02*
X173506250Y-60975000I-218750J0D01*
G01*
X173068750Y-60975000D01*
G75*
G02*
X172850000Y-60756250I0J218750D01*
G01*
G37*
G36*
G01*
X171275000Y-60756250D02*
X171275000Y-60243750D01*
G75*
G02*
X171493750Y-60025000I218750J0D01*
G01*
X171931250Y-60025000D01*
G75*
G02*
X172150000Y-60243750I0J-218750D01*
G01*
X172150000Y-60756250D01*
G75*
G02*
X171931250Y-60975000I-218750J0D01*
G01*
X171493750Y-60975000D01*
G75*
G02*
X171275000Y-60756250I0J218750D01*
G01*
G37*
%TD*%
%TO.C,C2*%
G36*
G01*
X155850000Y-60756250D02*
X155850000Y-60243750D01*
G75*
G02*
X156068750Y-60025000I218750J0D01*
G01*
X156506250Y-60025000D01*
G75*
G02*
X156725000Y-60243750I0J-218750D01*
G01*
X156725000Y-60756250D01*
G75*
G02*
X156506250Y-60975000I-218750J0D01*
G01*
X156068750Y-60975000D01*
G75*
G02*
X155850000Y-60756250I0J218750D01*
G01*
G37*
G36*
G01*
X154275000Y-60756250D02*
X154275000Y-60243750D01*
G75*
G02*
X154493750Y-60025000I218750J0D01*
G01*
X154931250Y-60025000D01*
G75*
G02*
X155150000Y-60243750I0J-218750D01*
G01*
X155150000Y-60756250D01*
G75*
G02*
X154931250Y-60975000I-218750J0D01*
G01*
X154493750Y-60975000D01*
G75*
G02*
X154275000Y-60756250I0J218750D01*
G01*
G37*
%TD*%
%TO.C,C1*%
G36*
G01*
X127637500Y-57756250D02*
X127637500Y-57243750D01*
G75*
G02*
X127856250Y-57025000I218750J0D01*
G01*
X128293750Y-57025000D01*
G75*
G02*
X128512500Y-57243750I0J-218750D01*
G01*
X128512500Y-57756250D01*
G75*
G02*
X128293750Y-57975000I-218750J0D01*
G01*
X127856250Y-57975000D01*
G75*
G02*
X127637500Y-57756250I0J218750D01*
G01*
G37*
G36*
G01*
X126062500Y-57756250D02*
X126062500Y-57243750D01*
G75*
G02*
X126281250Y-57025000I218750J0D01*
G01*
X126718750Y-57025000D01*
G75*
G02*
X126937500Y-57243750I0J-218750D01*
G01*
X126937500Y-57756250D01*
G75*
G02*
X126718750Y-57975000I-218750J0D01*
G01*
X126281250Y-57975000D01*
G75*
G02*
X126062500Y-57756250I0J218750D01*
G01*
G37*
%TD*%
D24*
%TO.C,J1*%
X145600000Y-65500000D03*
X154400000Y-65500000D03*
D25*
X144300000Y-65700000D03*
X155700000Y-65700000D03*
D26*
X146750000Y-62800000D03*
X147250000Y-62800000D03*
X147750000Y-62800000D03*
X148250000Y-62800000D03*
X148750000Y-62800000D03*
X149250000Y-62800000D03*
X149750000Y-62800000D03*
X150250000Y-62800000D03*
X150750000Y-62800000D03*
X151250000Y-62800000D03*
X151750000Y-62800000D03*
X152250000Y-62800000D03*
X152750000Y-62800000D03*
X153250000Y-62800000D03*
%TD*%
D24*
%TO.C,J2*%
X171600000Y-65500000D03*
X180400000Y-65500000D03*
D25*
X170300000Y-65700000D03*
X181700000Y-65700000D03*
D26*
X172750000Y-62800000D03*
X173250000Y-62800000D03*
X173750000Y-62800000D03*
X174250000Y-62800000D03*
X174750000Y-62800000D03*
X175250000Y-62800000D03*
X175750000Y-62800000D03*
X176250000Y-62800000D03*
X176750000Y-62800000D03*
X177250000Y-62800000D03*
X177750000Y-62800000D03*
X178250000Y-62800000D03*
X178750000Y-62800000D03*
X179250000Y-62800000D03*
%TD*%
M02*
