M48
; DRILL file {KiCad 5.1.9-73d0e3b20d~88~ubuntu18.04.1} date Thu Dec 31 14:24:06 2020
; FORMAT={-:-/ absolute / metric / decimal}
; #@! TF.CreationDate,2020-12-31T14:24:06+01:00
; #@! TF.GenerationSoftware,Kicad,Pcbnew,5.1.9-73d0e3b20d~88~ubuntu18.04.1
; #@! TF.FileFunction,Plated,1,2,PTH
FMAT,2
METRIC
T1C0.300
T2C0.400
T3C0.700
T4C1.000
T5C1.200
T6C2.700
T7C3.200
T8C3.600
%
G90
G05
T1
X72.45Y-79.0
X76.3Y-54.4
X77.55Y-70.1
X82.7Y-76.35
X93.6Y-53.3
X94.55Y-79.45
X94.571Y-74.721
X95.8Y-55.2
X98.75Y-53.3
X98.9Y-71.3
X99.85Y-72.1
X100.0Y-64.95
X100.2Y-66.1
X100.4Y-55.5
X101.2Y-53.9
X101.7Y-94.3
X102.0Y-56.25
X102.6Y-87.4
X103.5Y-56.25
X103.75Y-53.0
X104.25Y-61.2
X104.25Y-96.0
X104.7Y-89.8
X104.728Y-50.25
X105.8Y-57.8
X111.25Y-87.25
X112.325Y-89.5
X112.875Y-80.875
X113.1Y-65.85
X114.5Y-67.0
X118.2Y-65.35
X119.85Y-57.45
X120.035Y-61.829
X120.064Y-62.775
X121.2Y-60.85
X126.425Y-79.8
X128.5Y-57.0
X128.5Y-58.0
X129.55Y-78.65
X133.5Y-59.8
X135.2Y-62.6
X135.75Y-62.0
X136.3Y-56.9
X136.4Y-63.125
X136.8Y-77.925
X137.375Y-70.25
X142.8Y-64.75
X143.0Y-62.2
X143.484Y-64.442
X145.0Y-56.9
X146.65Y-62.2
X147.15Y-63.95
X147.257Y-61.759
X147.6Y-69.95
X147.9Y-59.9
X148.75Y-61.1
X149.75Y-64.7
X150.0Y-53.25
X150.75Y-64.75
X152.2Y-64.1
X152.3Y-61.429
X153.45Y-61.9
X153.835Y-59.443
X154.0Y-58.25
X154.0Y-50.25
X156.3Y-58.0
X156.8Y-60.5
X158.7Y-59.0
X160.1Y-56.9
X166.5Y-61.55
X168.75Y-57.0
X173.22Y-79.78
X173.4Y-59.85
X173.518Y-61.582
X173.8Y-78.5
X174.5Y-73.75
X174.65Y-59.85
X175.1Y-57.35
X175.25Y-61.5
X175.5Y-72.25
X175.75Y-58.5
X177.0Y-70.0
X177.2Y-57.55
X177.25Y-61.767
X177.5Y-68.75
X178.0Y-67.5
X178.5Y-66.25
X179.0Y-65.0
X180.0Y-63.0
X180.65Y-81.6
X180.75Y-58.5
X181.4Y-80.55
X181.5Y-85.1
X182.5Y-83.4
X183.75Y-50.25
X184.4Y-74.0
X186.75Y-85.2
X187.0Y-52.0
X187.15Y-98.1
X188.164Y-77.014
X188.25Y-52.55
X188.3Y-84.1
X188.4Y-97.3
X188.75Y-74.0
X188.75Y-74.75
X189.8Y-77.0
X191.75Y-76.0
X192.0Y-79.712
X193.75Y-76.0
X195.0Y-74.5
X195.0Y-79.7
X196.1Y-97.25
X196.15Y-94.2
X196.75Y-66.25
X196.75Y-68.75
X200.0Y-74.0
X201.5Y-73.0
X202.6Y-58.8
X202.75Y-72.25
X203.3Y-64.4
X204.05Y-71.0
X204.25Y-75.0
X204.7Y-77.7
X205.5Y-79.0
X207.2Y-65.7
X207.5Y-72.75
X208.75Y-52.5
X208.75Y-54.3
X208.9Y-76.5
X209.45Y-98.4
X210.95Y-50.5
X211.05Y-54.3
X211.25Y-59.2
T2
X146.2Y-58.6
T3
X145.0Y-93.6
X155.0Y-93.6
X171.0Y-77.0
X181.0Y-77.0
T4
X74.5Y-59.92
X74.5Y-62.46
X74.5Y-65.0
X74.5Y-67.54
X74.5Y-70.08
X82.92Y-95.89
X85.46Y-95.89
X88.0Y-95.89
X126.08Y-87.84
X128.62Y-87.84
X136.24Y-82.76
X138.78Y-82.76
X138.78Y-87.84
X141.32Y-82.76
X141.32Y-87.84
X143.86Y-87.84
X146.4Y-87.84
X154.08Y-87.84
X156.62Y-87.84
X159.16Y-82.76
X159.16Y-87.84
X161.7Y-82.76
X161.7Y-87.84
X164.24Y-82.76
X171.86Y-87.84
X174.4Y-87.84
X199.0Y-59.92
X199.0Y-62.46
X199.0Y-65.0
X199.0Y-67.54
X199.0Y-70.08
X206.92Y-96.0
X209.46Y-95.89
X212.0Y-95.89
T5
X125.87Y-55.0
X128.41Y-55.0
X130.95Y-55.0
X133.49Y-55.0
X136.03Y-55.0
X138.57Y-55.0
X141.11Y-55.0
X143.65Y-55.0
X146.19Y-55.0
X148.73Y-55.0
X151.27Y-55.0
X153.81Y-55.0
X156.35Y-55.0
X158.89Y-55.0
X161.43Y-55.0
X163.97Y-55.0
X166.51Y-55.0
X169.05Y-55.0
X171.59Y-55.0
X174.13Y-55.0
T6
X108.4Y-55.5
X108.4Y-93.5
X191.6Y-55.5
X191.6Y-93.5
T7
X77.0Y-76.0
X99.0Y-76.0
X201.0Y-77.5
X223.0Y-77.5
T8
X72.25Y-52.67
X72.25Y-96.2
X227.75Y-52.67
X227.75Y-96.2
T0
M30
