%TF.GenerationSoftware,KiCad,Pcbnew,5.1.9-73d0e3b20d~88~ubuntu18.04.1*%
%TF.CreationDate,2020-12-31T14:23:56+01:00*%
%TF.ProjectId,ss_frontpanel_inner_plate,73735f66-726f-46e7-9470-616e656c5f69,rev?*%
%TF.SameCoordinates,Original*%
%TF.FileFunction,Soldermask,Top*%
%TF.FilePolarity,Negative*%
%FSLAX46Y46*%
G04 Gerber Fmt 4.6, Leading zero omitted, Abs format (unit mm)*
G04 Created by KiCad (PCBNEW 5.1.9-73d0e3b20d~88~ubuntu18.04.1) date 2020-12-31 14:23:56*
%MOMM*%
%LPD*%
G01*
G04 APERTURE LIST*
%ADD10C,3.000000*%
%ADD11O,2.200000X1.600000*%
%ADD12C,2.000000*%
%ADD13C,6.000000*%
%ADD14C,5.800000*%
%ADD15C,7.300000*%
%ADD16C,3.200000*%
%ADD17O,1.600000X2.200000*%
%ADD18C,5.500000*%
%ADD19C,5.000000*%
%ADD20R,2.000000X2.000000*%
%ADD21C,4.600000*%
%ADD22C,0.800000*%
%ADD23O,1.700000X1.700000*%
%ADD24R,1.700000X1.700000*%
%ADD25R,1.200000X0.800000*%
%ADD26R,1.600000X0.300000*%
%ADD27R,1.060000X0.650000*%
G04 APERTURE END LIST*
D10*
%TO.C,ASM1*%
X79500000Y-56500000D03*
X98500000Y-58000000D03*
D11*
X74500000Y-65000000D03*
X74500000Y-62460000D03*
G36*
G01*
X75600000Y-59320000D02*
X75600000Y-60520000D01*
G75*
G02*
X75400000Y-60720000I-200000J0D01*
G01*
X73600000Y-60720000D01*
G75*
G02*
X73400000Y-60520000I0J200000D01*
G01*
X73400000Y-59320000D01*
G75*
G02*
X73600000Y-59120000I200000J0D01*
G01*
X75400000Y-59120000D01*
G75*
G02*
X75600000Y-59320000I0J-200000D01*
G01*
G37*
X74500000Y-70080000D03*
X74500000Y-67540000D03*
G36*
G01*
X83920000Y-95090000D02*
X83920000Y-96690000D01*
G75*
G02*
X83720000Y-96890000I-200000J0D01*
G01*
X82120000Y-96890000D01*
G75*
G02*
X81920000Y-96690000I0J200000D01*
G01*
X81920000Y-95090000D01*
G75*
G02*
X82120000Y-94890000I200000J0D01*
G01*
X83720000Y-94890000D01*
G75*
G02*
X83920000Y-95090000I0J-200000D01*
G01*
G37*
D12*
X85460000Y-95890000D03*
X88000000Y-95890000D03*
D13*
X77000000Y-76000000D03*
X99000000Y-76000000D03*
%TD*%
D14*
%TO.C,ASM2*%
X223000000Y-77500000D03*
D15*
X212000000Y-65000000D03*
D16*
X218000000Y-56500000D03*
X204000000Y-56500000D03*
D11*
X199000000Y-65000000D03*
X199000000Y-62460000D03*
G36*
G01*
X200100000Y-59320000D02*
X200100000Y-60520000D01*
G75*
G02*
X199900000Y-60720000I-200000J0D01*
G01*
X198100000Y-60720000D01*
G75*
G02*
X197900000Y-60520000I0J200000D01*
G01*
X197900000Y-59320000D01*
G75*
G02*
X198100000Y-59120000I200000J0D01*
G01*
X199900000Y-59120000D01*
G75*
G02*
X200100000Y-59320000I0J-200000D01*
G01*
G37*
X199000000Y-67540000D03*
X199000000Y-70080000D03*
D14*
X201000000Y-77500000D03*
D17*
X212000000Y-95890000D03*
X209460000Y-95890000D03*
G36*
G01*
X207720000Y-95100000D02*
X207720000Y-96900000D01*
G75*
G02*
X207520000Y-97100000I-200000J0D01*
G01*
X206320000Y-97100000D01*
G75*
G02*
X206120000Y-96900000I0J200000D01*
G01*
X206120000Y-95100000D01*
G75*
G02*
X206320000Y-94900000I200000J0D01*
G01*
X207520000Y-94900000D01*
G75*
G02*
X207720000Y-95100000I0J-200000D01*
G01*
G37*
%TD*%
D18*
%TO.C,OLED1*%
X116000000Y-88800000D03*
X184000000Y-88800000D03*
X116000000Y-61500000D03*
X184000000Y-61500000D03*
D19*
X191600000Y-55500000D03*
X191600000Y-93500000D03*
X108400000Y-93500000D03*
X108400000Y-55500000D03*
D12*
X125870000Y-55000000D03*
X128410000Y-55000000D03*
X130950000Y-55000000D03*
X133490000Y-55000000D03*
X136030000Y-55000000D03*
X138570000Y-55000000D03*
X141110000Y-55000000D03*
X143650000Y-55000000D03*
X146190000Y-55000000D03*
X148730000Y-55000000D03*
X151270000Y-55000000D03*
X153810000Y-55000000D03*
X156350000Y-55000000D03*
X158890000Y-55000000D03*
X161430000Y-55000000D03*
X163970000Y-55000000D03*
X166510000Y-55000000D03*
X169050000Y-55000000D03*
X171590000Y-55000000D03*
D20*
X174130000Y-55000000D03*
%TD*%
D21*
%TO.C,H4*%
X72250000Y-52670000D03*
%TD*%
%TO.C,H3*%
X227750000Y-52670000D03*
%TD*%
%TO.C,H2*%
X227750000Y-96200000D03*
%TD*%
%TO.C,H1*%
X72250000Y-96200000D03*
%TD*%
D22*
%TO.C,M3*%
X165500000Y-79500000D03*
X161500000Y-79500000D03*
X164500000Y-79500000D03*
X162500000Y-79500000D03*
X163500000Y-79500000D03*
%TD*%
%TO.C,M2*%
X150000000Y-84500000D03*
X150000000Y-88500000D03*
X150000000Y-85500000D03*
X150000000Y-87500000D03*
X150000000Y-86500000D03*
%TD*%
%TO.C,M1*%
X138500000Y-79500000D03*
X134500000Y-79500000D03*
X137500000Y-79500000D03*
X135500000Y-79500000D03*
X136500000Y-79500000D03*
%TD*%
D23*
%TO.C,J6*%
X141320000Y-82760000D03*
X138780000Y-82760000D03*
D24*
X136240000Y-82760000D03*
%TD*%
D23*
%TO.C,J9*%
X159160000Y-82760000D03*
X161700000Y-82760000D03*
D24*
X164240000Y-82760000D03*
%TD*%
D23*
%TO.C,J8*%
X154080000Y-87840000D03*
X156620000Y-87840000D03*
X159160000Y-87840000D03*
D24*
X161700000Y-87840000D03*
%TD*%
D23*
%TO.C,J7*%
X171860000Y-87840000D03*
D24*
X174400000Y-87840000D03*
%TD*%
D23*
%TO.C,J5*%
X146400000Y-87840000D03*
X143860000Y-87840000D03*
X141320000Y-87840000D03*
D24*
X138780000Y-87840000D03*
%TD*%
D23*
%TO.C,J4*%
X128620000Y-87840000D03*
D24*
X126080000Y-87840000D03*
%TD*%
D25*
%TO.C,J3*%
X209000000Y-71100000D03*
X209000000Y-79900000D03*
D26*
X206300000Y-72250000D03*
X206300000Y-72750000D03*
X206300000Y-73250000D03*
X206300000Y-73750000D03*
X206300000Y-74250000D03*
X206300000Y-74750000D03*
X206300000Y-75250000D03*
X206300000Y-75750000D03*
X206300000Y-76250000D03*
X206300000Y-76750000D03*
X206300000Y-77250000D03*
X206300000Y-77750000D03*
X206300000Y-78250000D03*
X206300000Y-78750000D03*
%TD*%
D27*
%TO.C,U2*%
X211100000Y-56000000D03*
X211100000Y-55050000D03*
X211100000Y-56950000D03*
X208900000Y-56950000D03*
X208900000Y-56000000D03*
X208900000Y-55050000D03*
%TD*%
%TO.C,U1*%
X104100000Y-58000000D03*
X104100000Y-57050000D03*
X104100000Y-58950000D03*
X101900000Y-58950000D03*
X101900000Y-58000000D03*
X101900000Y-57050000D03*
%TD*%
%TO.C,C9*%
G36*
G01*
X209650000Y-58443750D02*
X209650000Y-58956250D01*
G75*
G02*
X209431250Y-59175000I-218750J0D01*
G01*
X208993750Y-59175000D01*
G75*
G02*
X208775000Y-58956250I0J218750D01*
G01*
X208775000Y-58443750D01*
G75*
G02*
X208993750Y-58225000I218750J0D01*
G01*
X209431250Y-58225000D01*
G75*
G02*
X209650000Y-58443750I0J-218750D01*
G01*
G37*
G36*
G01*
X211225000Y-58443750D02*
X211225000Y-58956250D01*
G75*
G02*
X211006250Y-59175000I-218750J0D01*
G01*
X210568750Y-59175000D01*
G75*
G02*
X210350000Y-58956250I0J218750D01*
G01*
X210350000Y-58443750D01*
G75*
G02*
X210568750Y-58225000I218750J0D01*
G01*
X211006250Y-58225000D01*
G75*
G02*
X211225000Y-58443750I0J-218750D01*
G01*
G37*
%TD*%
%TO.C,C8*%
G36*
G01*
X102650000Y-60443750D02*
X102650000Y-60956250D01*
G75*
G02*
X102431250Y-61175000I-218750J0D01*
G01*
X101993750Y-61175000D01*
G75*
G02*
X101775000Y-60956250I0J218750D01*
G01*
X101775000Y-60443750D01*
G75*
G02*
X101993750Y-60225000I218750J0D01*
G01*
X102431250Y-60225000D01*
G75*
G02*
X102650000Y-60443750I0J-218750D01*
G01*
G37*
G36*
G01*
X104225000Y-60443750D02*
X104225000Y-60956250D01*
G75*
G02*
X104006250Y-61175000I-218750J0D01*
G01*
X103568750Y-61175000D01*
G75*
G02*
X103350000Y-60956250I0J218750D01*
G01*
X103350000Y-60443750D01*
G75*
G02*
X103568750Y-60225000I218750J0D01*
G01*
X104006250Y-60225000D01*
G75*
G02*
X104225000Y-60443750I0J-218750D01*
G01*
G37*
%TD*%
M02*
