M48
; DRILL file {KiCad 5.1.9-73d0e3b20d~88~ubuntu18.04.1} date Thu Dec 31 14:24:06 2020
; FORMAT={-:-/ absolute / metric / decimal}
; #@! TF.CreationDate,2020-12-31T14:24:06+01:00
; #@! TF.GenerationSoftware,Kicad,Pcbnew,5.1.9-73d0e3b20d~88~ubuntu18.04.1
; #@! TF.FileFunction,NonPlated,1,2,NPTH
FMAT,2
METRIC
T1C0.700
T2C3.000
T3C3.200
T4C5.500
T5C7.300
%
G90
G05
T1
X134.5Y-79.5
X135.5Y-79.5
X136.5Y-79.5
X137.5Y-79.5
X138.5Y-79.5
X150.0Y-84.5
X150.0Y-85.5
X150.0Y-86.5
X150.0Y-87.5
X150.0Y-88.5
X161.5Y-79.5
X162.5Y-79.5
X163.5Y-79.5
X164.5Y-79.5
X165.5Y-79.5
T2
X79.5Y-56.5
X98.5Y-58.0
T3
X204.0Y-56.5
X218.0Y-56.5
T4
X116.0Y-61.5
X116.0Y-88.8
X184.0Y-61.5
X184.0Y-88.8
T5
X212.0Y-65.0
T0
M30
