%TF.GenerationSoftware,KiCad,Pcbnew,5.1.9-73d0e3b20d~88~ubuntu18.04.1*%
%TF.CreationDate,2020-12-31T14:23:56+01:00*%
%TF.ProjectId,ss_frontpanel_inner_plate,73735f66-726f-46e7-9470-616e656c5f69,rev?*%
%TF.SameCoordinates,Original*%
%TF.FileFunction,Legend,Bot*%
%TF.FilePolarity,Positive*%
%FSLAX46Y46*%
G04 Gerber Fmt 4.6, Leading zero omitted, Abs format (unit mm)*
G04 Created by KiCad (PCBNEW 5.1.9-73d0e3b20d~88~ubuntu18.04.1) date 2020-12-31 14:23:56*
%MOMM*%
%LPD*%
G01*
G04 APERTURE LIST*
%ADD10C,0.350000*%
%ADD11C,0.500000*%
%ADD12C,0.250000*%
%ADD13C,0.300000*%
%ADD14C,0.150000*%
%ADD15C,0.120000*%
%ADD16C,0.100000*%
%ADD17C,0.010000*%
%ADD18C,0.200000*%
G04 APERTURE END LIST*
D10*
X113483333Y-74200000D02*
X113483333Y-72100000D01*
X113016666Y-73600000D01*
X112550000Y-72100000D01*
X112550000Y-74200000D01*
X111283333Y-74200000D02*
X111283333Y-73100000D01*
X111350000Y-72900000D01*
X111483333Y-72800000D01*
X111750000Y-72800000D01*
X111883333Y-72900000D01*
X111283333Y-74100000D02*
X111416666Y-74200000D01*
X111750000Y-74200000D01*
X111883333Y-74100000D01*
X111950000Y-73900000D01*
X111950000Y-73700000D01*
X111883333Y-73500000D01*
X111750000Y-73400000D01*
X111416666Y-73400000D01*
X111283333Y-73300000D01*
X110816666Y-72800000D02*
X110283333Y-72800000D01*
X110616666Y-72100000D02*
X110616666Y-73900000D01*
X110550000Y-74100000D01*
X110416666Y-74200000D01*
X110283333Y-74200000D01*
X109816666Y-74200000D02*
X109816666Y-72100000D01*
X109216666Y-74200000D02*
X109216666Y-73100000D01*
X109283333Y-72900000D01*
X109416666Y-72800000D01*
X109616666Y-72800000D01*
X109750000Y-72900000D01*
X109816666Y-73000000D01*
X108550000Y-74200000D02*
X108550000Y-72800000D01*
X108550000Y-72100000D02*
X108616666Y-72200000D01*
X108550000Y-72300000D01*
X108483333Y-72200000D01*
X108550000Y-72100000D01*
X108550000Y-72300000D01*
X107283333Y-74200000D02*
X107283333Y-73100000D01*
X107350000Y-72900000D01*
X107483333Y-72800000D01*
X107750000Y-72800000D01*
X107883333Y-72900000D01*
X107283333Y-74100000D02*
X107416666Y-74200000D01*
X107750000Y-74200000D01*
X107883333Y-74100000D01*
X107950000Y-73900000D01*
X107950000Y-73700000D01*
X107883333Y-73500000D01*
X107750000Y-73400000D01*
X107416666Y-73400000D01*
X107283333Y-73300000D01*
X106683333Y-74100000D02*
X106550000Y-74200000D01*
X106283333Y-74200000D01*
X106150000Y-74100000D01*
X106083333Y-73900000D01*
X106083333Y-73800000D01*
X106150000Y-73600000D01*
X106283333Y-73500000D01*
X106483333Y-73500000D01*
X106616666Y-73400000D01*
X106683333Y-73200000D01*
X106683333Y-73100000D01*
X106616666Y-72900000D01*
X106483333Y-72800000D01*
X106283333Y-72800000D01*
X106150000Y-72900000D01*
X104016666Y-72100000D02*
X104016666Y-73600000D01*
X104083333Y-73900000D01*
X104216666Y-74100000D01*
X104416666Y-74200000D01*
X104550000Y-74200000D01*
X113350000Y-75800000D02*
X113283333Y-75700000D01*
X113150000Y-75600000D01*
X112816666Y-75600000D01*
X112683333Y-75700000D01*
X112616666Y-75800000D01*
X112550000Y-76000000D01*
X112550000Y-76200000D01*
X112616666Y-76500000D01*
X113416666Y-77700000D01*
X112550000Y-77700000D01*
X111683333Y-75600000D02*
X111550000Y-75600000D01*
X111416666Y-75700000D01*
X111350000Y-75800000D01*
X111283333Y-76000000D01*
X111216666Y-76400000D01*
X111216666Y-76900000D01*
X111283333Y-77300000D01*
X111350000Y-77500000D01*
X111416666Y-77600000D01*
X111550000Y-77700000D01*
X111683333Y-77700000D01*
X111816666Y-77600000D01*
X111883333Y-77500000D01*
X111950000Y-77300000D01*
X112016666Y-76900000D01*
X112016666Y-76400000D01*
X111950000Y-76000000D01*
X111883333Y-75800000D01*
X111816666Y-75700000D01*
X111683333Y-75600000D01*
X110683333Y-75800000D02*
X110616666Y-75700000D01*
X110483333Y-75600000D01*
X110150000Y-75600000D01*
X110016666Y-75700000D01*
X109950000Y-75800000D01*
X109883333Y-76000000D01*
X109883333Y-76200000D01*
X109950000Y-76500000D01*
X110750000Y-77700000D01*
X109883333Y-77700000D01*
X109016666Y-75600000D02*
X108883333Y-75600000D01*
X108750000Y-75700000D01*
X108683333Y-75800000D01*
X108616666Y-76000000D01*
X108550000Y-76400000D01*
X108550000Y-76900000D01*
X108616666Y-77300000D01*
X108683333Y-77500000D01*
X108750000Y-77600000D01*
X108883333Y-77700000D01*
X109016666Y-77700000D01*
X109150000Y-77600000D01*
X109216666Y-77500000D01*
X109283333Y-77300000D01*
X109350000Y-76900000D01*
X109350000Y-76400000D01*
X109283333Y-76000000D01*
X109216666Y-75800000D01*
X109150000Y-75700000D01*
X109016666Y-75600000D01*
X107950000Y-76900000D02*
X106883333Y-76900000D01*
X105950000Y-75600000D02*
X105816666Y-75600000D01*
X105683333Y-75700000D01*
X105616666Y-75800000D01*
X105550000Y-76000000D01*
X105483333Y-76400000D01*
X105483333Y-76900000D01*
X105550000Y-77300000D01*
X105616666Y-77500000D01*
X105683333Y-77600000D01*
X105816666Y-77700000D01*
X105950000Y-77700000D01*
X106083333Y-77600000D01*
X106150000Y-77500000D01*
X106216666Y-77300000D01*
X106283333Y-76900000D01*
X106283333Y-76400000D01*
X106216666Y-76000000D01*
X106150000Y-75800000D01*
X106083333Y-75700000D01*
X105950000Y-75600000D01*
X104683333Y-76500000D02*
X104816666Y-76400000D01*
X104883333Y-76300000D01*
X104950000Y-76100000D01*
X104950000Y-76000000D01*
X104883333Y-75800000D01*
X104816666Y-75700000D01*
X104683333Y-75600000D01*
X104416666Y-75600000D01*
X104283333Y-75700000D01*
X104216666Y-75800000D01*
X104150000Y-76000000D01*
X104150000Y-76100000D01*
X104216666Y-76300000D01*
X104283333Y-76400000D01*
X104416666Y-76500000D01*
X104683333Y-76500000D01*
X104816666Y-76600000D01*
X104883333Y-76700000D01*
X104950000Y-76900000D01*
X104950000Y-77300000D01*
X104883333Y-77500000D01*
X104816666Y-77600000D01*
X104683333Y-77700000D01*
X104416666Y-77700000D01*
X104283333Y-77600000D01*
X104216666Y-77500000D01*
X104150000Y-77300000D01*
X104150000Y-76900000D01*
X104216666Y-76700000D01*
X104283333Y-76600000D01*
X104416666Y-76500000D01*
D11*
X182339285Y-97045238D02*
X182017857Y-97197619D01*
X181482142Y-97197619D01*
X181267857Y-97045238D01*
X181160714Y-96892857D01*
X181053571Y-96588095D01*
X181053571Y-96283333D01*
X181160714Y-95978571D01*
X181267857Y-95826190D01*
X181482142Y-95673809D01*
X181910714Y-95521428D01*
X182125000Y-95369047D01*
X182232142Y-95216666D01*
X182339285Y-94911904D01*
X182339285Y-94607142D01*
X182232142Y-94302380D01*
X182125000Y-94150000D01*
X181910714Y-93997619D01*
X181375000Y-93997619D01*
X181053571Y-94150000D01*
X179767857Y-97197619D02*
X179982142Y-97045238D01*
X180089285Y-96892857D01*
X180196428Y-96588095D01*
X180196428Y-95673809D01*
X180089285Y-95369047D01*
X179982142Y-95216666D01*
X179767857Y-95064285D01*
X179446428Y-95064285D01*
X179232142Y-95216666D01*
X179125000Y-95369047D01*
X179017857Y-95673809D01*
X179017857Y-96588095D01*
X179125000Y-96892857D01*
X179232142Y-97045238D01*
X179446428Y-97197619D01*
X179767857Y-97197619D01*
X177732142Y-97197619D02*
X177946428Y-97045238D01*
X178053571Y-96740476D01*
X178053571Y-93997619D01*
X175910714Y-97197619D02*
X175910714Y-93997619D01*
X175910714Y-97045238D02*
X176125000Y-97197619D01*
X176553571Y-97197619D01*
X176767857Y-97045238D01*
X176875000Y-96892857D01*
X176982142Y-96588095D01*
X176982142Y-95673809D01*
X176875000Y-95369047D01*
X176767857Y-95216666D01*
X176553571Y-95064285D01*
X176125000Y-95064285D01*
X175910714Y-95216666D01*
X173982142Y-97045238D02*
X174196428Y-97197619D01*
X174625000Y-97197619D01*
X174839285Y-97045238D01*
X174946428Y-96740476D01*
X174946428Y-95521428D01*
X174839285Y-95216666D01*
X174625000Y-95064285D01*
X174196428Y-95064285D01*
X173982142Y-95216666D01*
X173875000Y-95521428D01*
X173875000Y-95826190D01*
X174946428Y-96130952D01*
X172910714Y-97197619D02*
X172910714Y-95064285D01*
X172910714Y-95673809D02*
X172803571Y-95369047D01*
X172696428Y-95216666D01*
X172482142Y-95064285D01*
X172267857Y-95064285D01*
X171625000Y-97045238D02*
X171303571Y-97197619D01*
X170767857Y-97197619D01*
X170553571Y-97045238D01*
X170446428Y-96892857D01*
X170339285Y-96588095D01*
X170339285Y-96283333D01*
X170446428Y-95978571D01*
X170553571Y-95826190D01*
X170767857Y-95673809D01*
X171196428Y-95521428D01*
X171410714Y-95369047D01*
X171517857Y-95216666D01*
X171625000Y-94911904D01*
X171625000Y-94607142D01*
X171517857Y-94302380D01*
X171410714Y-94150000D01*
X171196428Y-93997619D01*
X170660714Y-93997619D01*
X170339285Y-94150000D01*
X169696428Y-95064285D02*
X168839285Y-95064285D01*
X169375000Y-93997619D02*
X169375000Y-96740476D01*
X169267857Y-97045238D01*
X169053571Y-97197619D01*
X168839285Y-97197619D01*
X167125000Y-97197619D02*
X167125000Y-95521428D01*
X167232142Y-95216666D01*
X167446428Y-95064285D01*
X167875000Y-95064285D01*
X168089285Y-95216666D01*
X167125000Y-97045238D02*
X167339285Y-97197619D01*
X167875000Y-97197619D01*
X168089285Y-97045238D01*
X168196428Y-96740476D01*
X168196428Y-96435714D01*
X168089285Y-96130952D01*
X167875000Y-95978571D01*
X167339285Y-95978571D01*
X167125000Y-95826190D01*
X166375000Y-95064285D02*
X165517857Y-95064285D01*
X166053571Y-93997619D02*
X166053571Y-96740476D01*
X165946428Y-97045238D01*
X165732142Y-97197619D01*
X165517857Y-97197619D01*
X164767857Y-97197619D02*
X164767857Y-95064285D01*
X164767857Y-93997619D02*
X164875000Y-94150000D01*
X164767857Y-94302380D01*
X164660714Y-94150000D01*
X164767857Y-93997619D01*
X164767857Y-94302380D01*
X163375000Y-97197619D02*
X163589285Y-97045238D01*
X163696428Y-96892857D01*
X163803571Y-96588095D01*
X163803571Y-95673809D01*
X163696428Y-95369047D01*
X163589285Y-95216666D01*
X163375000Y-95064285D01*
X163053571Y-95064285D01*
X162839285Y-95216666D01*
X162732142Y-95369047D01*
X162625000Y-95673809D01*
X162625000Y-96588095D01*
X162732142Y-96892857D01*
X162839285Y-97045238D01*
X163053571Y-97197619D01*
X163375000Y-97197619D01*
X161660714Y-95064285D02*
X161660714Y-97197619D01*
X161660714Y-95369047D02*
X161553571Y-95216666D01*
X161339285Y-95064285D01*
X161017857Y-95064285D01*
X160803571Y-95216666D01*
X160696428Y-95521428D01*
X160696428Y-97197619D01*
X139053571Y-97197619D02*
X139053571Y-93997619D01*
X138517857Y-93997619D01*
X138196428Y-94150000D01*
X137982142Y-94454761D01*
X137875000Y-94759523D01*
X137767857Y-95369047D01*
X137767857Y-95826190D01*
X137875000Y-96435714D01*
X137982142Y-96740476D01*
X138196428Y-97045238D01*
X138517857Y-97197619D01*
X139053571Y-97197619D01*
X136803571Y-97197619D02*
X136803571Y-95064285D01*
X136803571Y-93997619D02*
X136910714Y-94150000D01*
X136803571Y-94302380D01*
X136696428Y-94150000D01*
X136803571Y-93997619D01*
X136803571Y-94302380D01*
X135839285Y-97045238D02*
X135625000Y-97197619D01*
X135196428Y-97197619D01*
X134982142Y-97045238D01*
X134875000Y-96740476D01*
X134875000Y-96588095D01*
X134982142Y-96283333D01*
X135196428Y-96130952D01*
X135517857Y-96130952D01*
X135732142Y-95978571D01*
X135839285Y-95673809D01*
X135839285Y-95521428D01*
X135732142Y-95216666D01*
X135517857Y-95064285D01*
X135196428Y-95064285D01*
X134982142Y-95216666D01*
X133910714Y-95064285D02*
X133910714Y-98264285D01*
X133910714Y-95216666D02*
X133696428Y-95064285D01*
X133267857Y-95064285D01*
X133053571Y-95216666D01*
X132946428Y-95369047D01*
X132839285Y-95673809D01*
X132839285Y-96588095D01*
X132946428Y-96892857D01*
X133053571Y-97045238D01*
X133267857Y-97197619D01*
X133696428Y-97197619D01*
X133910714Y-97045238D01*
X131553571Y-97197619D02*
X131767857Y-97045238D01*
X131875000Y-96740476D01*
X131875000Y-93997619D01*
X129732142Y-97197619D02*
X129732142Y-95521428D01*
X129839285Y-95216666D01*
X130053571Y-95064285D01*
X130482142Y-95064285D01*
X130696428Y-95216666D01*
X129732142Y-97045238D02*
X129946428Y-97197619D01*
X130482142Y-97197619D01*
X130696428Y-97045238D01*
X130803571Y-96740476D01*
X130803571Y-96435714D01*
X130696428Y-96130952D01*
X130482142Y-95978571D01*
X129946428Y-95978571D01*
X129732142Y-95826190D01*
X128875000Y-95064285D02*
X128339285Y-97197619D01*
X127803571Y-95064285D02*
X128339285Y-97197619D01*
X128553571Y-97959523D01*
X128660714Y-98111904D01*
X128875000Y-98264285D01*
X125232142Y-97197619D02*
X125232142Y-93997619D01*
X125232142Y-95216666D02*
X125017857Y-95064285D01*
X124589285Y-95064285D01*
X124375000Y-95216666D01*
X124267857Y-95369047D01*
X124160714Y-95673809D01*
X124160714Y-96588095D01*
X124267857Y-96892857D01*
X124375000Y-97045238D01*
X124589285Y-97197619D01*
X125017857Y-97197619D01*
X125232142Y-97045238D01*
X122875000Y-97197619D02*
X123089285Y-97045238D01*
X123196428Y-96892857D01*
X123303571Y-96588095D01*
X123303571Y-95673809D01*
X123196428Y-95369047D01*
X123089285Y-95216666D01*
X122875000Y-95064285D01*
X122553571Y-95064285D01*
X122339285Y-95216666D01*
X122232142Y-95369047D01*
X122125000Y-95673809D01*
X122125000Y-96588095D01*
X122232142Y-96892857D01*
X122339285Y-97045238D01*
X122553571Y-97197619D01*
X122875000Y-97197619D01*
X120196428Y-97197619D02*
X120196428Y-95521428D01*
X120303571Y-95216666D01*
X120517857Y-95064285D01*
X120946428Y-95064285D01*
X121160714Y-95216666D01*
X120196428Y-97045238D02*
X120410714Y-97197619D01*
X120946428Y-97197619D01*
X121160714Y-97045238D01*
X121267857Y-96740476D01*
X121267857Y-96435714D01*
X121160714Y-96130952D01*
X120946428Y-95978571D01*
X120410714Y-95978571D01*
X120196428Y-95826190D01*
X119125000Y-97197619D02*
X119125000Y-95064285D01*
X119125000Y-95673809D02*
X119017857Y-95369047D01*
X118910714Y-95216666D01*
X118696428Y-95064285D01*
X118482142Y-95064285D01*
X116767857Y-97197619D02*
X116767857Y-93997619D01*
X116767857Y-97045238D02*
X116982142Y-97197619D01*
X117410714Y-97197619D01*
X117625000Y-97045238D01*
X117732142Y-96892857D01*
X117839285Y-96588095D01*
X117839285Y-95673809D01*
X117732142Y-95369047D01*
X117625000Y-95216666D01*
X117410714Y-95064285D01*
X116982142Y-95064285D01*
X116767857Y-95216666D01*
D12*
X188923809Y-81808333D02*
X188971428Y-81732142D01*
X189066666Y-81503571D01*
X189114285Y-81351190D01*
X189161904Y-81122619D01*
X189209523Y-80741666D01*
X189209523Y-80436904D01*
X189161904Y-80055952D01*
X189114285Y-79827380D01*
X189066666Y-79675000D01*
X188971428Y-79446428D01*
X188923809Y-79370238D01*
X188542857Y-80589285D02*
X187780952Y-80589285D01*
X188161904Y-81198809D02*
X188161904Y-79979761D01*
X187304761Y-81198809D02*
X187304761Y-79598809D01*
X187304761Y-80208333D02*
X187209523Y-80132142D01*
X187019047Y-80132142D01*
X186923809Y-80208333D01*
X186876190Y-80284523D01*
X186828571Y-80436904D01*
X186828571Y-80894047D01*
X186876190Y-81046428D01*
X186923809Y-81122619D01*
X187019047Y-81198809D01*
X187209523Y-81198809D01*
X187304761Y-81122619D01*
X186209523Y-79598809D02*
X186114285Y-79598809D01*
X186019047Y-79675000D01*
X185971428Y-79751190D01*
X185923809Y-79903571D01*
X185876190Y-80208333D01*
X185876190Y-80589285D01*
X185923809Y-80894047D01*
X185971428Y-81046428D01*
X186019047Y-81122619D01*
X186114285Y-81198809D01*
X186209523Y-81198809D01*
X186304761Y-81122619D01*
X186352380Y-81046428D01*
X186400000Y-80894047D01*
X186447619Y-80589285D01*
X186447619Y-80208333D01*
X186400000Y-79903571D01*
X186352380Y-79751190D01*
X186304761Y-79675000D01*
X186209523Y-79598809D01*
X185400000Y-81122619D02*
X185400000Y-81198809D01*
X185447619Y-81351190D01*
X185495238Y-81427380D01*
X184971428Y-81198809D02*
X184971428Y-79598809D01*
X184971428Y-80208333D02*
X184876190Y-80132142D01*
X184685714Y-80132142D01*
X184590476Y-80208333D01*
X184542857Y-80284523D01*
X184495238Y-80436904D01*
X184495238Y-80894047D01*
X184542857Y-81046428D01*
X184590476Y-81122619D01*
X184685714Y-81198809D01*
X184876190Y-81198809D01*
X184971428Y-81122619D01*
X183542857Y-81198809D02*
X184114285Y-81198809D01*
X183828571Y-81198809D02*
X183828571Y-79598809D01*
X183923809Y-79827380D01*
X184019047Y-79979761D01*
X184114285Y-80055952D01*
X189376190Y-82782142D02*
X188995238Y-82782142D01*
X189233333Y-83848809D02*
X189233333Y-82477380D01*
X189185714Y-82325000D01*
X189090476Y-82248809D01*
X188995238Y-82248809D01*
X188661904Y-83848809D02*
X188661904Y-82782142D01*
X188661904Y-83086904D02*
X188614285Y-82934523D01*
X188566666Y-82858333D01*
X188471428Y-82782142D01*
X188376190Y-82782142D01*
X187900000Y-83848809D02*
X187995238Y-83772619D01*
X188042857Y-83696428D01*
X188090476Y-83544047D01*
X188090476Y-83086904D01*
X188042857Y-82934523D01*
X187995238Y-82858333D01*
X187900000Y-82782142D01*
X187757142Y-82782142D01*
X187661904Y-82858333D01*
X187614285Y-82934523D01*
X187566666Y-83086904D01*
X187566666Y-83544047D01*
X187614285Y-83696428D01*
X187661904Y-83772619D01*
X187757142Y-83848809D01*
X187900000Y-83848809D01*
X187138095Y-83848809D02*
X187138095Y-82782142D01*
X187138095Y-82934523D02*
X187090476Y-82858333D01*
X186995238Y-82782142D01*
X186852380Y-82782142D01*
X186757142Y-82858333D01*
X186709523Y-83010714D01*
X186709523Y-83848809D01*
X186709523Y-83010714D02*
X186661904Y-82858333D01*
X186566666Y-82782142D01*
X186423809Y-82782142D01*
X186328571Y-82858333D01*
X186280952Y-83010714D01*
X186280952Y-83848809D01*
X185185714Y-82782142D02*
X184804761Y-82782142D01*
X185042857Y-83848809D02*
X185042857Y-82477380D01*
X184995238Y-82325000D01*
X184900000Y-82248809D01*
X184804761Y-82248809D01*
X184471428Y-83848809D02*
X184471428Y-82782142D01*
X184471428Y-83086904D02*
X184423809Y-82934523D01*
X184376190Y-82858333D01*
X184280952Y-82782142D01*
X184185714Y-82782142D01*
X183709523Y-83848809D02*
X183804761Y-83772619D01*
X183852380Y-83696428D01*
X183900000Y-83544047D01*
X183900000Y-83086904D01*
X183852380Y-82934523D01*
X183804761Y-82858333D01*
X183709523Y-82782142D01*
X183566666Y-82782142D01*
X183471428Y-82858333D01*
X183423809Y-82934523D01*
X183376190Y-83086904D01*
X183376190Y-83544047D01*
X183423809Y-83696428D01*
X183471428Y-83772619D01*
X183566666Y-83848809D01*
X183709523Y-83848809D01*
X182947619Y-82782142D02*
X182947619Y-83848809D01*
X182947619Y-82934523D02*
X182900000Y-82858333D01*
X182804761Y-82782142D01*
X182661904Y-82782142D01*
X182566666Y-82858333D01*
X182519047Y-83010714D01*
X182519047Y-83848809D01*
X182185714Y-82782142D02*
X181804761Y-82782142D01*
X182042857Y-82248809D02*
X182042857Y-83620238D01*
X181995238Y-83772619D01*
X181900000Y-83848809D01*
X181804761Y-83848809D01*
X181566666Y-84458333D02*
X181519047Y-84382142D01*
X181423809Y-84153571D01*
X181376190Y-84001190D01*
X181328571Y-83772619D01*
X181280952Y-83391666D01*
X181280952Y-83086904D01*
X181328571Y-82705952D01*
X181376190Y-82477380D01*
X181423809Y-82325000D01*
X181519047Y-82096428D01*
X181566666Y-82020238D01*
X196195238Y-84457142D02*
X196433333Y-84457142D01*
X196433333Y-82171428D01*
X196195238Y-82171428D01*
X195814285Y-83923809D02*
X195814285Y-82323809D01*
X195814285Y-82933333D02*
X195719047Y-82857142D01*
X195528571Y-82857142D01*
X195433333Y-82933333D01*
X195385714Y-83009523D01*
X195338095Y-83161904D01*
X195338095Y-83619047D01*
X195385714Y-83771428D01*
X195433333Y-83847619D01*
X195528571Y-83923809D01*
X195719047Y-83923809D01*
X195814285Y-83847619D01*
X195004761Y-82323809D02*
X194385714Y-82323809D01*
X194719047Y-82933333D01*
X194576190Y-82933333D01*
X194480952Y-83009523D01*
X194433333Y-83085714D01*
X194385714Y-83238095D01*
X194385714Y-83619047D01*
X194433333Y-83771428D01*
X194480952Y-83847619D01*
X194576190Y-83923809D01*
X194861904Y-83923809D01*
X194957142Y-83847619D01*
X195004761Y-83771428D01*
X194052380Y-84457142D02*
X193814285Y-84457142D01*
X193814285Y-82171428D01*
X194052380Y-82171428D01*
X192242857Y-84457142D02*
X192480952Y-84457142D01*
X192480952Y-82171428D01*
X192242857Y-82171428D01*
X191909523Y-82476190D02*
X191861904Y-82400000D01*
X191766666Y-82323809D01*
X191528571Y-82323809D01*
X191433333Y-82400000D01*
X191385714Y-82476190D01*
X191338095Y-82628571D01*
X191338095Y-82780952D01*
X191385714Y-83009523D01*
X191957142Y-83923809D01*
X191338095Y-83923809D01*
X191004761Y-84457142D02*
X190766666Y-84457142D01*
X190766666Y-82171428D01*
X191004761Y-82171428D01*
D13*
X198066666Y-85795238D02*
X198000000Y-85700000D01*
X197866666Y-85604761D01*
X197533333Y-85604761D01*
X197400000Y-85700000D01*
X197333333Y-85795238D01*
X197266666Y-85985714D01*
X197266666Y-86176190D01*
X197333333Y-86461904D01*
X198133333Y-87604761D01*
X197266666Y-87604761D01*
X196666666Y-86842857D02*
X195600000Y-86842857D01*
X196133333Y-87604761D02*
X196133333Y-86080952D01*
X195000000Y-85795238D02*
X194933333Y-85700000D01*
X194800000Y-85604761D01*
X194466666Y-85604761D01*
X194333333Y-85700000D01*
X194266666Y-85795238D01*
X194200000Y-85985714D01*
X194200000Y-86176190D01*
X194266666Y-86461904D01*
X195066666Y-87604761D01*
X194200000Y-87604761D01*
X193600000Y-87604761D02*
X193600000Y-85604761D01*
X193600000Y-86366666D02*
X193466666Y-86271428D01*
X193200000Y-86271428D01*
X193066666Y-86366666D01*
X193000000Y-86461904D01*
X192933333Y-86652380D01*
X192933333Y-87223809D01*
X193000000Y-87414285D01*
X193066666Y-87509523D01*
X193200000Y-87604761D01*
X193466666Y-87604761D01*
X193600000Y-87509523D01*
X191266666Y-87604761D02*
X191266666Y-85604761D01*
X191266666Y-86557142D02*
X190466666Y-86557142D01*
X190466666Y-87604761D02*
X190466666Y-85604761D01*
X189933333Y-85604761D02*
X189600000Y-87604761D01*
X189333333Y-86176190D01*
X189066666Y-87604761D01*
X188733333Y-85604761D01*
X188200000Y-87604761D02*
X188200000Y-85604761D01*
X187533333Y-87604761D02*
X187533333Y-85604761D01*
X187200000Y-85604761D01*
X187000000Y-85700000D01*
X186866666Y-85890476D01*
X186800000Y-86080952D01*
X186733333Y-86461904D01*
X186733333Y-86747619D01*
X186800000Y-87128571D01*
X186866666Y-87319047D01*
X187000000Y-87509523D01*
X187200000Y-87604761D01*
X187533333Y-87604761D01*
D14*
X169678571Y-88611904D02*
X169678571Y-87811904D01*
X169478571Y-88383333D01*
X169278571Y-87811904D01*
X169278571Y-88611904D01*
X168821428Y-87811904D02*
X168821428Y-88383333D01*
X168850000Y-88497619D01*
X168907142Y-88573809D01*
X168992857Y-88611904D01*
X169050000Y-88611904D01*
X75250000Y-52800000D02*
G75*
G02*
X72250000Y-55800000I-3000000J0D01*
G01*
X152750000Y-97750000D02*
X223750000Y-97750000D01*
X69550000Y-56800000D02*
G75*
G02*
X70550000Y-55800000I1000000J0D01*
G01*
X76250000Y-97750001D02*
X147250000Y-97750000D01*
X224750000Y-52800000D02*
X224750000Y-52250000D01*
X229450000Y-55800000D02*
X227750000Y-55800000D01*
X147250001Y-51250001D02*
X76250000Y-51250000D01*
X227750000Y-93200000D02*
X229450000Y-93200000D01*
X76250000Y-97750001D02*
G75*
G02*
X75250000Y-96750001I0J1000000D01*
G01*
X75250000Y-52250000D02*
G75*
G02*
X76250000Y-51250000I1000000J0D01*
G01*
X223750000Y-51250000D02*
X152750000Y-51250001D01*
X69550000Y-56800000D02*
X69550000Y-92200000D01*
X224750000Y-96200000D02*
G75*
G02*
X227750000Y-93200000I3000000J0D01*
G01*
X227750000Y-55800000D02*
G75*
G02*
X224750000Y-52800000I0J3000000D01*
G01*
X70550000Y-93200000D02*
G75*
G02*
X69550000Y-92200000I0J1000000D01*
G01*
X75250000Y-96200001D02*
X75250000Y-96750001D01*
X230450000Y-92200000D02*
X230450000Y-56800000D01*
X224750000Y-96750000D02*
X224750000Y-96200001D01*
X230450000Y-92200000D02*
G75*
G02*
X229450000Y-93200000I-1000000J0D01*
G01*
X152750000Y-51250001D02*
X147250001Y-51250001D01*
X223750000Y-51250000D02*
G75*
G02*
X224750000Y-52250000I0J-1000000D01*
G01*
X75250000Y-52250000D02*
X75250000Y-52800000D01*
X224750000Y-96750000D02*
G75*
G02*
X223750000Y-97750000I-1000000J0D01*
G01*
X72250000Y-55800000D02*
X70550000Y-55800000D01*
X72250000Y-93200001D02*
G75*
G02*
X75250000Y-96200001I0J-3000000D01*
G01*
X70550000Y-93200000D02*
X72250000Y-93200000D01*
X229450000Y-55800000D02*
G75*
G02*
X230450000Y-56800000I0J-1000000D01*
G01*
X147250000Y-97750000D02*
X152750000Y-97750000D01*
D15*
%TO.C,C13*%
X187437221Y-73890000D02*
X187762779Y-73890000D01*
X187437221Y-74910000D02*
X187762779Y-74910000D01*
%TO.C,U6*%
X186700000Y-75390000D02*
X189650000Y-75390000D01*
X188500000Y-78610000D02*
X186700000Y-78610000D01*
D16*
%TO.C,OLED1*%
G36*
X105400000Y-88000000D02*
G01*
X105400000Y-90000000D01*
X107400000Y-90000000D01*
X105400000Y-88000000D01*
G37*
X105400000Y-88000000D02*
X105400000Y-90000000D01*
X107400000Y-90000000D01*
X105400000Y-88000000D01*
G36*
X107400000Y-60200000D02*
G01*
X105400000Y-60200000D01*
X105400000Y-62200000D01*
X107400000Y-60200000D01*
G37*
X107400000Y-60200000D02*
X105400000Y-60200000D01*
X105400000Y-62200000D01*
X107400000Y-60200000D01*
G36*
X194600000Y-62200000D02*
G01*
X194600000Y-60200000D01*
X192600000Y-60200000D01*
X194600000Y-62200000D01*
G37*
X194600000Y-62200000D02*
X194600000Y-60200000D01*
X192600000Y-60200000D01*
X194600000Y-62200000D01*
G36*
X192600000Y-90000000D02*
G01*
X194600000Y-90000000D01*
X194600000Y-88000000D01*
X192600000Y-90000000D01*
G37*
X192600000Y-90000000D02*
X194600000Y-90000000D01*
X194600000Y-88000000D01*
X192600000Y-90000000D01*
D17*
%TO.C,Logo4*%
G36*
X112892692Y-78265609D02*
G01*
X112876150Y-78289658D01*
X112702665Y-78373218D01*
X112614654Y-78357143D01*
X112458754Y-78353207D01*
X112437001Y-78396040D01*
X112350862Y-78551178D01*
X112122797Y-78830781D01*
X111798332Y-79187914D01*
X111422994Y-79575644D01*
X111042309Y-79947038D01*
X110701805Y-80255161D01*
X110447008Y-80453080D01*
X110433087Y-80461886D01*
X110043944Y-80644533D01*
X109654596Y-80744171D01*
X109622433Y-80747103D01*
X109334526Y-80825678D01*
X109089762Y-80986209D01*
X108926801Y-81177508D01*
X108884303Y-81348384D01*
X109000927Y-81447648D01*
X109087051Y-81456000D01*
X109221735Y-81489928D01*
X109148852Y-81629648D01*
X109136369Y-81644850D01*
X109037181Y-81942974D01*
X109147538Y-82354270D01*
X109470344Y-82887901D01*
X109575011Y-83028989D01*
X109797360Y-83347227D01*
X109919965Y-83577614D01*
X109924293Y-83657082D01*
X109617949Y-83785112D01*
X109239179Y-83887412D01*
X108897543Y-83939322D01*
X108723131Y-83927447D01*
X108621535Y-83859994D01*
X108593858Y-83742000D01*
X108246000Y-83742000D01*
X108199533Y-83846535D01*
X108161334Y-83826666D01*
X108146134Y-83675947D01*
X108161334Y-83657333D01*
X108236835Y-83674766D01*
X108246000Y-83742000D01*
X108593858Y-83742000D01*
X108589108Y-83721752D01*
X108624882Y-83451755D01*
X108709488Y-83067571D01*
X108802087Y-82584168D01*
X108852917Y-82142499D01*
X108854493Y-81901325D01*
X108826324Y-81701550D01*
X108783423Y-81682658D01*
X108703808Y-81867047D01*
X108606024Y-82154500D01*
X108464964Y-82604187D01*
X108347548Y-83019575D01*
X108310833Y-83168704D01*
X108242590Y-83412807D01*
X108174135Y-83433822D01*
X108096773Y-83316771D01*
X107912280Y-83152223D01*
X107645556Y-83166416D01*
X107479392Y-83199794D01*
X107427255Y-83162479D01*
X107499889Y-83013642D01*
X107708036Y-82712453D01*
X107798031Y-82586952D01*
X107961760Y-82345000D01*
X107230000Y-82345000D01*
X107183533Y-82449535D01*
X107145334Y-82429666D01*
X107130134Y-82278947D01*
X107145334Y-82260333D01*
X107220835Y-82277766D01*
X107230000Y-82345000D01*
X107961760Y-82345000D01*
X108041699Y-82226870D01*
X108126810Y-82040607D01*
X108061027Y-82009923D01*
X108036936Y-82018262D01*
X107729044Y-82115054D01*
X107576784Y-82072655D01*
X107541371Y-81964000D01*
X107357000Y-81964000D01*
X107310533Y-82068535D01*
X107272334Y-82048666D01*
X107263500Y-81961070D01*
X106992684Y-81961070D01*
X106863661Y-82028213D01*
X106777295Y-82006777D01*
X106614403Y-81881620D01*
X106595000Y-81823412D01*
X106488842Y-81730312D01*
X106348496Y-81710000D01*
X106105854Y-81652386D01*
X106024400Y-81584454D01*
X106045474Y-81513598D01*
X106156722Y-81539460D01*
X106390493Y-81524012D01*
X106475134Y-81444457D01*
X106587127Y-81350386D01*
X106744447Y-81445374D01*
X106821237Y-81523941D01*
X106980583Y-81770559D01*
X106992684Y-81961070D01*
X107263500Y-81961070D01*
X107257134Y-81897947D01*
X107272334Y-81879333D01*
X107347835Y-81896766D01*
X107357000Y-81964000D01*
X107541371Y-81964000D01*
X107510411Y-81869010D01*
X107507590Y-81850873D01*
X107510915Y-81634064D01*
X107635433Y-81614227D01*
X107650446Y-81619695D01*
X107870433Y-81589916D01*
X108188573Y-81421582D01*
X108534041Y-81165774D01*
X108836008Y-80873574D01*
X108999183Y-80646975D01*
X109020082Y-80580151D01*
X108609945Y-80580151D01*
X108585979Y-80649284D01*
X108504410Y-80750914D01*
X108235291Y-80984540D01*
X108059910Y-81081156D01*
X107795118Y-81176506D01*
X107749878Y-81153565D01*
X107916468Y-81007456D01*
X107928500Y-80998155D01*
X108240060Y-80781858D01*
X108436500Y-80663901D01*
X108609945Y-80580151D01*
X109020082Y-80580151D01*
X109111730Y-80287120D01*
X108997319Y-80039066D01*
X108650913Y-79892483D01*
X108628941Y-79887938D01*
X108210844Y-79881502D01*
X107836350Y-80004080D01*
X107576104Y-80218685D01*
X107499577Y-80479206D01*
X107486352Y-80830855D01*
X107390216Y-81139223D01*
X107244132Y-81314111D01*
X107189692Y-81327151D01*
X106803886Y-81249882D01*
X106317844Y-81055540D01*
X105826920Y-80789101D01*
X105426469Y-80495541D01*
X105426312Y-80495400D01*
X105107997Y-80222403D01*
X104923529Y-80222403D01*
X104892628Y-80293377D01*
X104764752Y-80429717D01*
X104691237Y-80401749D01*
X104690000Y-80383995D01*
X104780206Y-80276576D01*
X104836623Y-80237372D01*
X104923529Y-80222403D01*
X105107997Y-80222403D01*
X105094275Y-80210635D01*
X104880916Y-80085454D01*
X104726419Y-80098732D01*
X104597202Y-80202598D01*
X104488003Y-80266621D01*
X104483459Y-80142774D01*
X104559935Y-79910371D01*
X104601658Y-79851009D01*
X104642664Y-79765627D01*
X104415142Y-79765627D01*
X104387442Y-79935333D01*
X104360084Y-79965582D01*
X104185744Y-80000318D01*
X104016436Y-79884301D01*
X103970334Y-79753459D01*
X104067220Y-79638426D01*
X104203167Y-79646737D01*
X104415142Y-79765627D01*
X104642664Y-79765627D01*
X104692810Y-79661216D01*
X104650611Y-79497841D01*
X104503176Y-79468516D01*
X104266626Y-79449079D01*
X104142773Y-79366629D01*
X103930954Y-79260112D01*
X103773990Y-79387756D01*
X103706690Y-79649400D01*
X103774452Y-79925968D01*
X103992440Y-80082535D01*
X104226342Y-80244897D01*
X104309000Y-80396885D01*
X104412257Y-80556594D01*
X104499500Y-80582875D01*
X104746426Y-80607341D01*
X104804927Y-80614625D01*
X104979706Y-80716104D01*
X105273048Y-80963518D01*
X105635452Y-81312355D01*
X105954045Y-81647917D01*
X106249113Y-81913980D01*
X106541331Y-82094422D01*
X106557295Y-82100806D01*
X106781441Y-82252263D01*
X106849000Y-82394773D01*
X106929895Y-82588289D01*
X106987004Y-82623834D01*
X107030678Y-82768267D01*
X106953043Y-83125036D01*
X106852072Y-83428167D01*
X106656402Y-83985705D01*
X106546185Y-84363451D01*
X106516782Y-84619103D01*
X106563554Y-84810353D01*
X106681863Y-84994898D01*
X106721941Y-85046579D01*
X106987199Y-85294464D01*
X107324100Y-85387011D01*
X107493218Y-85393000D01*
X107992000Y-85393000D01*
X107993945Y-86440750D01*
X108007328Y-86948303D01*
X108041154Y-87367394D01*
X108088874Y-87625347D01*
X108103668Y-87658540D01*
X108149114Y-87934994D01*
X108010415Y-88220431D01*
X107741151Y-88434378D01*
X107547500Y-88493826D01*
X106393061Y-88675395D01*
X105492235Y-88853360D01*
X104845200Y-89027686D01*
X104838153Y-89030031D01*
X104388416Y-89193140D01*
X104183392Y-89295394D01*
X104219661Y-89330207D01*
X104493803Y-89290993D01*
X104922169Y-89191780D01*
X105506163Y-89067248D01*
X106194355Y-88954791D01*
X106834254Y-88879115D01*
X107871396Y-88788644D01*
X107745222Y-89120507D01*
X107683838Y-89383345D01*
X107785036Y-89536364D01*
X107859824Y-89581229D01*
X108145306Y-89654070D01*
X108300300Y-89633456D01*
X108468953Y-89634273D01*
X108500000Y-89697412D01*
X108602644Y-89822053D01*
X108690500Y-89838000D01*
X108863116Y-89895140D01*
X108819151Y-90046677D01*
X108627000Y-90219000D01*
X108431997Y-90395278D01*
X108373000Y-90501036D01*
X108470159Y-90589922D01*
X108700671Y-90573550D01*
X108973091Y-90464904D01*
X109068332Y-90402310D01*
X109238841Y-90203252D01*
X109195332Y-89993599D01*
X109123768Y-89726374D01*
X109107508Y-89351593D01*
X109111845Y-89282687D01*
X109146571Y-88859353D01*
X108345662Y-88859353D01*
X108317735Y-89150771D01*
X108311519Y-89176673D01*
X108238237Y-89396711D01*
X108162902Y-89391625D01*
X108109015Y-89307646D01*
X108057145Y-89019606D01*
X108098038Y-88811478D01*
X108206762Y-88640010D01*
X108298987Y-88672534D01*
X108345662Y-88859353D01*
X109146571Y-88859353D01*
X109152189Y-88790874D01*
X110018906Y-88876278D01*
X110602606Y-88953237D01*
X111278887Y-89070682D01*
X111862228Y-89194357D01*
X112300719Y-89291296D01*
X112609391Y-89344801D01*
X112737875Y-89346712D01*
X112733167Y-89335486D01*
X112502370Y-89214963D01*
X112090711Y-89069207D01*
X111567461Y-88917129D01*
X111001893Y-88777639D01*
X110463279Y-88669647D01*
X110112314Y-88620041D01*
X109664053Y-88563143D01*
X109310676Y-88498322D01*
X109141906Y-88445267D01*
X109127262Y-88393050D01*
X108754000Y-88393050D01*
X108692223Y-88431064D01*
X108571080Y-88314000D01*
X108246000Y-88314000D01*
X108199533Y-88418535D01*
X108161334Y-88398666D01*
X108146134Y-88247947D01*
X108161334Y-88229333D01*
X108236835Y-88246766D01*
X108246000Y-88314000D01*
X108571080Y-88314000D01*
X108523393Y-88267920D01*
X108483801Y-88218750D01*
X108373965Y-88068319D01*
X108439732Y-88099855D01*
X108531750Y-88170800D01*
X108707640Y-88327467D01*
X108754000Y-88393050D01*
X109127262Y-88393050D01*
X109102948Y-88306360D01*
X109183552Y-87995520D01*
X109389497Y-87492072D01*
X109439153Y-87381970D01*
X109633572Y-86941359D01*
X109769960Y-86604766D01*
X109827377Y-86425112D01*
X109824136Y-86409000D01*
X109843985Y-86307240D01*
X109956026Y-86044274D01*
X110085361Y-85778221D01*
X110297727Y-85341923D01*
X110387899Y-85103789D01*
X110360488Y-85041903D01*
X110220997Y-85133608D01*
X110062245Y-85351694D01*
X109910239Y-85690119D01*
X109889343Y-85752408D01*
X109748671Y-86132988D01*
X109600377Y-86445945D01*
X109584603Y-86472500D01*
X109439872Y-86763766D01*
X109290731Y-87145271D01*
X109271992Y-87200981D01*
X109114163Y-87596311D01*
X108987634Y-87758813D01*
X108910096Y-87687087D01*
X108899238Y-87379733D01*
X108905731Y-87308583D01*
X108753911Y-87308583D01*
X108698397Y-87639250D01*
X108561238Y-87803421D01*
X108386835Y-87766978D01*
X108297378Y-87659386D01*
X108210104Y-87418989D01*
X108175628Y-87229114D01*
X108202012Y-87016061D01*
X108392461Y-86960929D01*
X108449156Y-86962978D01*
X108681647Y-87034948D01*
X108753060Y-87261594D01*
X108753911Y-87308583D01*
X108905731Y-87308583D01*
X108912958Y-87229401D01*
X108924177Y-86719900D01*
X108812757Y-86359484D01*
X108782912Y-86310534D01*
X108659873Y-86071923D01*
X108702854Y-85937514D01*
X108748563Y-85904360D01*
X108843439Y-85726749D01*
X108809392Y-85629449D01*
X108760412Y-85521637D01*
X108867091Y-85587975D01*
X108907521Y-85620342D01*
X109031495Y-85689604D01*
X109104668Y-85611445D01*
X109153483Y-85341339D01*
X109171478Y-85175842D01*
X109234445Y-84649352D01*
X109263483Y-84523488D01*
X108346300Y-84523488D01*
X108299182Y-84675593D01*
X108180292Y-84818467D01*
X108106957Y-84814056D01*
X108083535Y-84680540D01*
X108152015Y-84573595D01*
X108314360Y-84440071D01*
X108346300Y-84523488D01*
X109263483Y-84523488D01*
X109311465Y-84315523D01*
X109430333Y-84113391D01*
X109618845Y-83981988D01*
X109741018Y-83926646D01*
X110137277Y-83760031D01*
X110175889Y-84290765D01*
X110215693Y-84624924D01*
X110300769Y-84770199D01*
X110477891Y-84791705D01*
X110532000Y-84786497D01*
X110872240Y-84756695D01*
X111069250Y-84746666D01*
X111276211Y-84700996D01*
X111345994Y-84555548D01*
X111274735Y-84279583D01*
X111058566Y-83842360D01*
X110925953Y-83607266D01*
X110657836Y-83112476D01*
X110426249Y-82632314D01*
X110276623Y-82261732D01*
X110265975Y-82227944D01*
X110119641Y-81739523D01*
X111103711Y-80777548D01*
X111518524Y-80380092D01*
X111875304Y-80053084D01*
X112130326Y-79835717D01*
X112230641Y-79767439D01*
X112301279Y-79668654D01*
X112215852Y-79528217D01*
X112129255Y-79309676D01*
X112250370Y-79181007D01*
X112338662Y-79169999D01*
X112394698Y-79249060D01*
X112373501Y-79297000D01*
X112324555Y-79420242D01*
X112429682Y-79370040D01*
X112669843Y-79158827D01*
X112837051Y-78994265D01*
X112855066Y-78973761D01*
X112480725Y-78973761D01*
X112474534Y-79101981D01*
X112367033Y-79086444D01*
X112204089Y-79001155D01*
X112183000Y-78973407D01*
X112266233Y-78866771D01*
X112418273Y-78894737D01*
X112480725Y-78973761D01*
X112855066Y-78973761D01*
X113099213Y-78695897D01*
X113270078Y-78438464D01*
X113299818Y-78359265D01*
X113243342Y-78196470D01*
X113069819Y-78159039D01*
X112892692Y-78265609D01*
G37*
X112892692Y-78265609D02*
X112876150Y-78289658D01*
X112702665Y-78373218D01*
X112614654Y-78357143D01*
X112458754Y-78353207D01*
X112437001Y-78396040D01*
X112350862Y-78551178D01*
X112122797Y-78830781D01*
X111798332Y-79187914D01*
X111422994Y-79575644D01*
X111042309Y-79947038D01*
X110701805Y-80255161D01*
X110447008Y-80453080D01*
X110433087Y-80461886D01*
X110043944Y-80644533D01*
X109654596Y-80744171D01*
X109622433Y-80747103D01*
X109334526Y-80825678D01*
X109089762Y-80986209D01*
X108926801Y-81177508D01*
X108884303Y-81348384D01*
X109000927Y-81447648D01*
X109087051Y-81456000D01*
X109221735Y-81489928D01*
X109148852Y-81629648D01*
X109136369Y-81644850D01*
X109037181Y-81942974D01*
X109147538Y-82354270D01*
X109470344Y-82887901D01*
X109575011Y-83028989D01*
X109797360Y-83347227D01*
X109919965Y-83577614D01*
X109924293Y-83657082D01*
X109617949Y-83785112D01*
X109239179Y-83887412D01*
X108897543Y-83939322D01*
X108723131Y-83927447D01*
X108621535Y-83859994D01*
X108593858Y-83742000D01*
X108246000Y-83742000D01*
X108199533Y-83846535D01*
X108161334Y-83826666D01*
X108146134Y-83675947D01*
X108161334Y-83657333D01*
X108236835Y-83674766D01*
X108246000Y-83742000D01*
X108593858Y-83742000D01*
X108589108Y-83721752D01*
X108624882Y-83451755D01*
X108709488Y-83067571D01*
X108802087Y-82584168D01*
X108852917Y-82142499D01*
X108854493Y-81901325D01*
X108826324Y-81701550D01*
X108783423Y-81682658D01*
X108703808Y-81867047D01*
X108606024Y-82154500D01*
X108464964Y-82604187D01*
X108347548Y-83019575D01*
X108310833Y-83168704D01*
X108242590Y-83412807D01*
X108174135Y-83433822D01*
X108096773Y-83316771D01*
X107912280Y-83152223D01*
X107645556Y-83166416D01*
X107479392Y-83199794D01*
X107427255Y-83162479D01*
X107499889Y-83013642D01*
X107708036Y-82712453D01*
X107798031Y-82586952D01*
X107961760Y-82345000D01*
X107230000Y-82345000D01*
X107183533Y-82449535D01*
X107145334Y-82429666D01*
X107130134Y-82278947D01*
X107145334Y-82260333D01*
X107220835Y-82277766D01*
X107230000Y-82345000D01*
X107961760Y-82345000D01*
X108041699Y-82226870D01*
X108126810Y-82040607D01*
X108061027Y-82009923D01*
X108036936Y-82018262D01*
X107729044Y-82115054D01*
X107576784Y-82072655D01*
X107541371Y-81964000D01*
X107357000Y-81964000D01*
X107310533Y-82068535D01*
X107272334Y-82048666D01*
X107263500Y-81961070D01*
X106992684Y-81961070D01*
X106863661Y-82028213D01*
X106777295Y-82006777D01*
X106614403Y-81881620D01*
X106595000Y-81823412D01*
X106488842Y-81730312D01*
X106348496Y-81710000D01*
X106105854Y-81652386D01*
X106024400Y-81584454D01*
X106045474Y-81513598D01*
X106156722Y-81539460D01*
X106390493Y-81524012D01*
X106475134Y-81444457D01*
X106587127Y-81350386D01*
X106744447Y-81445374D01*
X106821237Y-81523941D01*
X106980583Y-81770559D01*
X106992684Y-81961070D01*
X107263500Y-81961070D01*
X107257134Y-81897947D01*
X107272334Y-81879333D01*
X107347835Y-81896766D01*
X107357000Y-81964000D01*
X107541371Y-81964000D01*
X107510411Y-81869010D01*
X107507590Y-81850873D01*
X107510915Y-81634064D01*
X107635433Y-81614227D01*
X107650446Y-81619695D01*
X107870433Y-81589916D01*
X108188573Y-81421582D01*
X108534041Y-81165774D01*
X108836008Y-80873574D01*
X108999183Y-80646975D01*
X109020082Y-80580151D01*
X108609945Y-80580151D01*
X108585979Y-80649284D01*
X108504410Y-80750914D01*
X108235291Y-80984540D01*
X108059910Y-81081156D01*
X107795118Y-81176506D01*
X107749878Y-81153565D01*
X107916468Y-81007456D01*
X107928500Y-80998155D01*
X108240060Y-80781858D01*
X108436500Y-80663901D01*
X108609945Y-80580151D01*
X109020082Y-80580151D01*
X109111730Y-80287120D01*
X108997319Y-80039066D01*
X108650913Y-79892483D01*
X108628941Y-79887938D01*
X108210844Y-79881502D01*
X107836350Y-80004080D01*
X107576104Y-80218685D01*
X107499577Y-80479206D01*
X107486352Y-80830855D01*
X107390216Y-81139223D01*
X107244132Y-81314111D01*
X107189692Y-81327151D01*
X106803886Y-81249882D01*
X106317844Y-81055540D01*
X105826920Y-80789101D01*
X105426469Y-80495541D01*
X105426312Y-80495400D01*
X105107997Y-80222403D01*
X104923529Y-80222403D01*
X104892628Y-80293377D01*
X104764752Y-80429717D01*
X104691237Y-80401749D01*
X104690000Y-80383995D01*
X104780206Y-80276576D01*
X104836623Y-80237372D01*
X104923529Y-80222403D01*
X105107997Y-80222403D01*
X105094275Y-80210635D01*
X104880916Y-80085454D01*
X104726419Y-80098732D01*
X104597202Y-80202598D01*
X104488003Y-80266621D01*
X104483459Y-80142774D01*
X104559935Y-79910371D01*
X104601658Y-79851009D01*
X104642664Y-79765627D01*
X104415142Y-79765627D01*
X104387442Y-79935333D01*
X104360084Y-79965582D01*
X104185744Y-80000318D01*
X104016436Y-79884301D01*
X103970334Y-79753459D01*
X104067220Y-79638426D01*
X104203167Y-79646737D01*
X104415142Y-79765627D01*
X104642664Y-79765627D01*
X104692810Y-79661216D01*
X104650611Y-79497841D01*
X104503176Y-79468516D01*
X104266626Y-79449079D01*
X104142773Y-79366629D01*
X103930954Y-79260112D01*
X103773990Y-79387756D01*
X103706690Y-79649400D01*
X103774452Y-79925968D01*
X103992440Y-80082535D01*
X104226342Y-80244897D01*
X104309000Y-80396885D01*
X104412257Y-80556594D01*
X104499500Y-80582875D01*
X104746426Y-80607341D01*
X104804927Y-80614625D01*
X104979706Y-80716104D01*
X105273048Y-80963518D01*
X105635452Y-81312355D01*
X105954045Y-81647917D01*
X106249113Y-81913980D01*
X106541331Y-82094422D01*
X106557295Y-82100806D01*
X106781441Y-82252263D01*
X106849000Y-82394773D01*
X106929895Y-82588289D01*
X106987004Y-82623834D01*
X107030678Y-82768267D01*
X106953043Y-83125036D01*
X106852072Y-83428167D01*
X106656402Y-83985705D01*
X106546185Y-84363451D01*
X106516782Y-84619103D01*
X106563554Y-84810353D01*
X106681863Y-84994898D01*
X106721941Y-85046579D01*
X106987199Y-85294464D01*
X107324100Y-85387011D01*
X107493218Y-85393000D01*
X107992000Y-85393000D01*
X107993945Y-86440750D01*
X108007328Y-86948303D01*
X108041154Y-87367394D01*
X108088874Y-87625347D01*
X108103668Y-87658540D01*
X108149114Y-87934994D01*
X108010415Y-88220431D01*
X107741151Y-88434378D01*
X107547500Y-88493826D01*
X106393061Y-88675395D01*
X105492235Y-88853360D01*
X104845200Y-89027686D01*
X104838153Y-89030031D01*
X104388416Y-89193140D01*
X104183392Y-89295394D01*
X104219661Y-89330207D01*
X104493803Y-89290993D01*
X104922169Y-89191780D01*
X105506163Y-89067248D01*
X106194355Y-88954791D01*
X106834254Y-88879115D01*
X107871396Y-88788644D01*
X107745222Y-89120507D01*
X107683838Y-89383345D01*
X107785036Y-89536364D01*
X107859824Y-89581229D01*
X108145306Y-89654070D01*
X108300300Y-89633456D01*
X108468953Y-89634273D01*
X108500000Y-89697412D01*
X108602644Y-89822053D01*
X108690500Y-89838000D01*
X108863116Y-89895140D01*
X108819151Y-90046677D01*
X108627000Y-90219000D01*
X108431997Y-90395278D01*
X108373000Y-90501036D01*
X108470159Y-90589922D01*
X108700671Y-90573550D01*
X108973091Y-90464904D01*
X109068332Y-90402310D01*
X109238841Y-90203252D01*
X109195332Y-89993599D01*
X109123768Y-89726374D01*
X109107508Y-89351593D01*
X109111845Y-89282687D01*
X109146571Y-88859353D01*
X108345662Y-88859353D01*
X108317735Y-89150771D01*
X108311519Y-89176673D01*
X108238237Y-89396711D01*
X108162902Y-89391625D01*
X108109015Y-89307646D01*
X108057145Y-89019606D01*
X108098038Y-88811478D01*
X108206762Y-88640010D01*
X108298987Y-88672534D01*
X108345662Y-88859353D01*
X109146571Y-88859353D01*
X109152189Y-88790874D01*
X110018906Y-88876278D01*
X110602606Y-88953237D01*
X111278887Y-89070682D01*
X111862228Y-89194357D01*
X112300719Y-89291296D01*
X112609391Y-89344801D01*
X112737875Y-89346712D01*
X112733167Y-89335486D01*
X112502370Y-89214963D01*
X112090711Y-89069207D01*
X111567461Y-88917129D01*
X111001893Y-88777639D01*
X110463279Y-88669647D01*
X110112314Y-88620041D01*
X109664053Y-88563143D01*
X109310676Y-88498322D01*
X109141906Y-88445267D01*
X109127262Y-88393050D01*
X108754000Y-88393050D01*
X108692223Y-88431064D01*
X108571080Y-88314000D01*
X108246000Y-88314000D01*
X108199533Y-88418535D01*
X108161334Y-88398666D01*
X108146134Y-88247947D01*
X108161334Y-88229333D01*
X108236835Y-88246766D01*
X108246000Y-88314000D01*
X108571080Y-88314000D01*
X108523393Y-88267920D01*
X108483801Y-88218750D01*
X108373965Y-88068319D01*
X108439732Y-88099855D01*
X108531750Y-88170800D01*
X108707640Y-88327467D01*
X108754000Y-88393050D01*
X109127262Y-88393050D01*
X109102948Y-88306360D01*
X109183552Y-87995520D01*
X109389497Y-87492072D01*
X109439153Y-87381970D01*
X109633572Y-86941359D01*
X109769960Y-86604766D01*
X109827377Y-86425112D01*
X109824136Y-86409000D01*
X109843985Y-86307240D01*
X109956026Y-86044274D01*
X110085361Y-85778221D01*
X110297727Y-85341923D01*
X110387899Y-85103789D01*
X110360488Y-85041903D01*
X110220997Y-85133608D01*
X110062245Y-85351694D01*
X109910239Y-85690119D01*
X109889343Y-85752408D01*
X109748671Y-86132988D01*
X109600377Y-86445945D01*
X109584603Y-86472500D01*
X109439872Y-86763766D01*
X109290731Y-87145271D01*
X109271992Y-87200981D01*
X109114163Y-87596311D01*
X108987634Y-87758813D01*
X108910096Y-87687087D01*
X108899238Y-87379733D01*
X108905731Y-87308583D01*
X108753911Y-87308583D01*
X108698397Y-87639250D01*
X108561238Y-87803421D01*
X108386835Y-87766978D01*
X108297378Y-87659386D01*
X108210104Y-87418989D01*
X108175628Y-87229114D01*
X108202012Y-87016061D01*
X108392461Y-86960929D01*
X108449156Y-86962978D01*
X108681647Y-87034948D01*
X108753060Y-87261594D01*
X108753911Y-87308583D01*
X108905731Y-87308583D01*
X108912958Y-87229401D01*
X108924177Y-86719900D01*
X108812757Y-86359484D01*
X108782912Y-86310534D01*
X108659873Y-86071923D01*
X108702854Y-85937514D01*
X108748563Y-85904360D01*
X108843439Y-85726749D01*
X108809392Y-85629449D01*
X108760412Y-85521637D01*
X108867091Y-85587975D01*
X108907521Y-85620342D01*
X109031495Y-85689604D01*
X109104668Y-85611445D01*
X109153483Y-85341339D01*
X109171478Y-85175842D01*
X109234445Y-84649352D01*
X109263483Y-84523488D01*
X108346300Y-84523488D01*
X108299182Y-84675593D01*
X108180292Y-84818467D01*
X108106957Y-84814056D01*
X108083535Y-84680540D01*
X108152015Y-84573595D01*
X108314360Y-84440071D01*
X108346300Y-84523488D01*
X109263483Y-84523488D01*
X109311465Y-84315523D01*
X109430333Y-84113391D01*
X109618845Y-83981988D01*
X109741018Y-83926646D01*
X110137277Y-83760031D01*
X110175889Y-84290765D01*
X110215693Y-84624924D01*
X110300769Y-84770199D01*
X110477891Y-84791705D01*
X110532000Y-84786497D01*
X110872240Y-84756695D01*
X111069250Y-84746666D01*
X111276211Y-84700996D01*
X111345994Y-84555548D01*
X111274735Y-84279583D01*
X111058566Y-83842360D01*
X110925953Y-83607266D01*
X110657836Y-83112476D01*
X110426249Y-82632314D01*
X110276623Y-82261732D01*
X110265975Y-82227944D01*
X110119641Y-81739523D01*
X111103711Y-80777548D01*
X111518524Y-80380092D01*
X111875304Y-80053084D01*
X112130326Y-79835717D01*
X112230641Y-79767439D01*
X112301279Y-79668654D01*
X112215852Y-79528217D01*
X112129255Y-79309676D01*
X112250370Y-79181007D01*
X112338662Y-79169999D01*
X112394698Y-79249060D01*
X112373501Y-79297000D01*
X112324555Y-79420242D01*
X112429682Y-79370040D01*
X112669843Y-79158827D01*
X112837051Y-78994265D01*
X112855066Y-78973761D01*
X112480725Y-78973761D01*
X112474534Y-79101981D01*
X112367033Y-79086444D01*
X112204089Y-79001155D01*
X112183000Y-78973407D01*
X112266233Y-78866771D01*
X112418273Y-78894737D01*
X112480725Y-78973761D01*
X112855066Y-78973761D01*
X113099213Y-78695897D01*
X113270078Y-78438464D01*
X113299818Y-78359265D01*
X113243342Y-78196470D01*
X113069819Y-78159039D01*
X112892692Y-78265609D01*
G36*
X107542288Y-89799403D02*
G01*
X107503760Y-89853554D01*
X107420313Y-90055201D01*
X107531553Y-90165816D01*
X107576374Y-90184285D01*
X107705370Y-90256219D01*
X107615335Y-90319474D01*
X107484000Y-90359243D01*
X107166500Y-90447681D01*
X107515750Y-90460340D01*
X107776691Y-90419426D01*
X107874717Y-90314250D01*
X107906842Y-90050345D01*
X107925691Y-89942030D01*
X107891150Y-89727236D01*
X107734141Y-89673569D01*
X107542288Y-89799403D01*
G37*
X107542288Y-89799403D02*
X107503760Y-89853554D01*
X107420313Y-90055201D01*
X107531553Y-90165816D01*
X107576374Y-90184285D01*
X107705370Y-90256219D01*
X107615335Y-90319474D01*
X107484000Y-90359243D01*
X107166500Y-90447681D01*
X107515750Y-90460340D01*
X107776691Y-90419426D01*
X107874717Y-90314250D01*
X107906842Y-90050345D01*
X107925691Y-89942030D01*
X107891150Y-89727236D01*
X107734141Y-89673569D01*
X107542288Y-89799403D01*
G36*
X103801000Y-89393500D02*
G01*
X103864500Y-89457000D01*
X103928000Y-89393500D01*
X103864500Y-89330000D01*
X103801000Y-89393500D01*
G37*
X103801000Y-89393500D02*
X103864500Y-89457000D01*
X103928000Y-89393500D01*
X103864500Y-89330000D01*
X103801000Y-89393500D01*
G36*
X106633773Y-81650487D02*
G01*
X106706241Y-81743866D01*
X106813023Y-81824123D01*
X106786376Y-81696866D01*
X106777335Y-81672772D01*
X106676727Y-81517255D01*
X106619528Y-81516139D01*
X106633773Y-81650487D01*
G37*
X106633773Y-81650487D02*
X106706241Y-81743866D01*
X106813023Y-81824123D01*
X106786376Y-81696866D01*
X106777335Y-81672772D01*
X106676727Y-81517255D01*
X106619528Y-81516139D01*
X106633773Y-81650487D01*
D18*
%TO.C,M4*%
X146250000Y-92600000D02*
X146250000Y-94600000D01*
X153750000Y-92600000D02*
X146250000Y-92600000D01*
X153750000Y-94600000D02*
X153750000Y-92600000D01*
X146250000Y-94600000D02*
X153750000Y-94600000D01*
%TO.C,M5*%
X172250000Y-76000000D02*
X172250000Y-78000000D01*
X179750000Y-76000000D02*
X172250000Y-76000000D01*
X179750000Y-78000000D02*
X179750000Y-76000000D01*
X172250000Y-78000000D02*
X179750000Y-78000000D01*
D17*
%TO.C,Logo2*%
G36*
X169730670Y-84453118D02*
G01*
X169723396Y-84463608D01*
X169651111Y-84498425D01*
X169614439Y-84491727D01*
X169549510Y-84490712D01*
X169540417Y-84509172D01*
X169504809Y-84570499D01*
X169410248Y-84684954D01*
X169275125Y-84833427D01*
X169117830Y-84996807D01*
X168956756Y-85155983D01*
X168810293Y-85291846D01*
X168698289Y-85384227D01*
X168535344Y-85473779D01*
X168406729Y-85488156D01*
X168273131Y-85505453D01*
X168177295Y-85570765D01*
X168079281Y-85684889D01*
X168070274Y-85757826D01*
X168148709Y-85782917D01*
X168207083Y-85797245D01*
X168175167Y-85846417D01*
X168122147Y-85932285D01*
X168127620Y-86040955D01*
X168196587Y-86190814D01*
X168320658Y-86381216D01*
X168419413Y-86531979D01*
X168481294Y-86646039D01*
X168493605Y-86699825D01*
X168492637Y-86700540D01*
X168365307Y-86753613D01*
X168207720Y-86796062D01*
X168065569Y-86817627D01*
X167993042Y-86812714D01*
X167949543Y-86783158D01*
X167937122Y-86722341D01*
X167954982Y-86603766D01*
X167983081Y-86480546D01*
X168023360Y-86277489D01*
X168048320Y-86084552D01*
X168052549Y-85994584D01*
X168050117Y-85809375D01*
X167969444Y-85994584D01*
X167913171Y-86155017D01*
X167858015Y-86361483D01*
X167832571Y-86481686D01*
X167795563Y-86637843D01*
X167756706Y-86735919D01*
X167730200Y-86755045D01*
X167705534Y-86688148D01*
X167714792Y-86629584D01*
X167714058Y-86527813D01*
X167641997Y-86490997D01*
X167526145Y-86525590D01*
X167434281Y-86566332D01*
X167405312Y-86552275D01*
X167441198Y-86475928D01*
X167543900Y-86329800D01*
X167595181Y-86261849D01*
X167705597Y-86108660D01*
X167747263Y-86027288D01*
X167723050Y-86011635D01*
X167711071Y-86015652D01*
X167581193Y-86057048D01*
X167516653Y-86041528D01*
X167511728Y-86027300D01*
X167414564Y-86027300D01*
X167385110Y-86126462D01*
X167333780Y-86197808D01*
X167310785Y-86206250D01*
X167282528Y-86164073D01*
X167294466Y-86087188D01*
X167338269Y-85969320D01*
X167376152Y-85938586D01*
X167402123Y-85955318D01*
X167414564Y-86027300D01*
X167511728Y-86027300D01*
X167488537Y-85960312D01*
X167486496Y-85947448D01*
X167487881Y-85857110D01*
X167539764Y-85848845D01*
X167546019Y-85851123D01*
X167637680Y-85838715D01*
X167770239Y-85768576D01*
X167914184Y-85661990D01*
X168040003Y-85540240D01*
X168107993Y-85445823D01*
X168111950Y-85433171D01*
X167939739Y-85433171D01*
X167901837Y-85489189D01*
X167789673Y-85586506D01*
X167716629Y-85626732D01*
X167619162Y-85665005D01*
X167585927Y-85666488D01*
X167582500Y-85632700D01*
X167582500Y-85632661D01*
X167630547Y-85576723D01*
X167765982Y-85495561D01*
X167926458Y-85418822D01*
X167939739Y-85433171D01*
X168111950Y-85433171D01*
X168154888Y-85295884D01*
X168107216Y-85192528D01*
X167962880Y-85131452D01*
X167953725Y-85129558D01*
X167784688Y-85128198D01*
X167627181Y-85179121D01*
X167513873Y-85266481D01*
X167476667Y-85360942D01*
X167500666Y-85446163D01*
X167533363Y-85465417D01*
X167548123Y-85494843D01*
X167511630Y-85543847D01*
X167436529Y-85638100D01*
X167412020Y-85685816D01*
X167351399Y-85719320D01*
X167226489Y-85704914D01*
X167062293Y-85651501D01*
X166883811Y-85567987D01*
X166716046Y-85463273D01*
X166656891Y-85416896D01*
X166512355Y-85298996D01*
X166493794Y-85284997D01*
X166392764Y-85284997D01*
X166388448Y-85312212D01*
X166312380Y-85358061D01*
X166243383Y-85325744D01*
X166227309Y-85264360D01*
X166281222Y-85228175D01*
X166340349Y-85235148D01*
X166392764Y-85284997D01*
X166493794Y-85284997D01*
X166386243Y-85203884D01*
X166334187Y-85169262D01*
X166269166Y-85113277D01*
X166272652Y-85035272D01*
X166299174Y-84970825D01*
X166334518Y-84862607D01*
X166302379Y-84835400D01*
X166208442Y-84881117D01*
X166101687Y-84895982D01*
X166061642Y-84872766D01*
X165981738Y-84841149D01*
X165930902Y-84907173D01*
X165910493Y-85015607D01*
X165938137Y-85149117D01*
X166002609Y-85204905D01*
X166133158Y-85288394D01*
X166197443Y-85338586D01*
X166424708Y-85532763D01*
X166640803Y-85712196D01*
X166830405Y-85864676D01*
X166978189Y-85977993D01*
X167068830Y-86039935D01*
X167087573Y-86047835D01*
X167141997Y-86089474D01*
X167213448Y-86190282D01*
X167219285Y-86200370D01*
X167265875Y-86295109D01*
X167277182Y-86380619D01*
X167251755Y-86495048D01*
X167202703Y-86636598D01*
X167123838Y-86860934D01*
X167081786Y-87012032D01*
X167074829Y-87115225D01*
X167101250Y-87195848D01*
X167159142Y-87278992D01*
X167269666Y-87382277D01*
X167410041Y-87420838D01*
X167480508Y-87423334D01*
X167688333Y-87423334D01*
X167689144Y-87859896D01*
X167694992Y-88071989D01*
X167709804Y-88247824D01*
X167730711Y-88356816D01*
X167737119Y-88370960D01*
X167758934Y-88489979D01*
X167700686Y-88608218D01*
X167583512Y-88693923D01*
X167508261Y-88714819D01*
X167107434Y-88776713D01*
X166783971Y-88839129D01*
X166509551Y-88908196D01*
X166286042Y-88979379D01*
X166108594Y-89047502D01*
X166027104Y-89091539D01*
X166034112Y-89109870D01*
X166122153Y-89100874D01*
X166283765Y-89062929D01*
X166448337Y-89014632D01*
X166665827Y-88959533D01*
X166932843Y-88910224D01*
X167193176Y-88877016D01*
X167203732Y-88876074D01*
X167638081Y-88838185D01*
X167584412Y-88979346D01*
X167557239Y-89085561D01*
X167596115Y-89141095D01*
X167649226Y-89164550D01*
X167766567Y-89190268D01*
X167829074Y-89185262D01*
X167895178Y-89199270D01*
X167927892Y-89278623D01*
X167922304Y-89386736D01*
X167873500Y-89487024D01*
X167870110Y-89490876D01*
X167810262Y-89565296D01*
X167832785Y-89589725D01*
X167905028Y-89591234D01*
X168050117Y-89557627D01*
X168136805Y-89510546D01*
X168207850Y-89427605D01*
X168189722Y-89340250D01*
X168159461Y-89228018D01*
X168153055Y-89072890D01*
X168154549Y-89050521D01*
X168174834Y-88919178D01*
X168179364Y-88913780D01*
X167829816Y-88913780D01*
X167816461Y-89023953D01*
X167778643Y-89092800D01*
X167745344Y-89077411D01*
X167724302Y-88999333D01*
X167723254Y-88880115D01*
X167735373Y-88798125D01*
X167774030Y-88613959D01*
X167812694Y-88763979D01*
X167829816Y-88913780D01*
X168179364Y-88913780D01*
X168221821Y-88863194D01*
X168308964Y-88852084D01*
X168485249Y-88864991D01*
X168723243Y-88898894D01*
X168982654Y-88946565D01*
X169223191Y-89000777D01*
X169370287Y-89042462D01*
X169564498Y-89099234D01*
X169671499Y-89114561D01*
X169687125Y-89088079D01*
X169670063Y-89068700D01*
X169576983Y-89017635D01*
X169407529Y-88956487D01*
X169189664Y-88892890D01*
X168951354Y-88834475D01*
X168720564Y-88788875D01*
X168565686Y-88767308D01*
X168380596Y-88743736D01*
X168235250Y-88716841D01*
X168168022Y-88695458D01*
X168157108Y-88673355D01*
X168005833Y-88673355D01*
X167980093Y-88689194D01*
X167909747Y-88621217D01*
X167893250Y-88600729D01*
X167847485Y-88538050D01*
X167874888Y-88551190D01*
X167913229Y-88580750D01*
X167986517Y-88646028D01*
X168005833Y-88673355D01*
X168157108Y-88673355D01*
X168152318Y-88663657D01*
X168160622Y-88593858D01*
X168196818Y-88475498D01*
X168264790Y-88298015D01*
X168368423Y-88050846D01*
X168511601Y-87723428D01*
X168592063Y-87542396D01*
X168641163Y-87409015D01*
X168650056Y-87329032D01*
X168637446Y-87317500D01*
X168585396Y-87362114D01*
X168522838Y-87473383D01*
X168504916Y-87515938D01*
X168432956Y-87692663D01*
X168360947Y-87859022D01*
X168354527Y-87873125D01*
X168281266Y-88042401D01*
X168216271Y-88204990D01*
X168146237Y-88358359D01*
X168094544Y-88410320D01*
X168067026Y-88361540D01*
X168069490Y-88214144D01*
X168005833Y-88214144D01*
X167983335Y-88363003D01*
X167926214Y-88427689D01*
X167850029Y-88400269D01*
X167793792Y-88322216D01*
X167767445Y-88193597D01*
X167828399Y-88103324D01*
X167913229Y-88077442D01*
X167984335Y-88103881D01*
X168005826Y-88211057D01*
X168005833Y-88214144D01*
X168069490Y-88214144D01*
X168069515Y-88212685D01*
X168072066Y-88188501D01*
X168075881Y-87969575D01*
X168026166Y-87818486D01*
X168021752Y-87811549D01*
X167971225Y-87714743D01*
X167988439Y-87648437D01*
X168020819Y-87612455D01*
X168096675Y-87562991D01*
X168131826Y-87566964D01*
X168153058Y-87543213D01*
X168164128Y-87443011D01*
X168164583Y-87412309D01*
X168177843Y-87162613D01*
X168205439Y-87061037D01*
X167835958Y-87061037D01*
X167816326Y-87124414D01*
X167766788Y-87183945D01*
X167736232Y-87182107D01*
X167726473Y-87126476D01*
X167755006Y-87081915D01*
X167822650Y-87026280D01*
X167835958Y-87061037D01*
X168205439Y-87061037D01*
X168223855Y-86993255D01*
X168311971Y-86881359D01*
X168404921Y-86824394D01*
X168582052Y-86739926D01*
X168598214Y-86962567D01*
X168614724Y-87102416D01*
X168649800Y-87163504D01*
X168722757Y-87172900D01*
X168746667Y-87170624D01*
X168888433Y-87158207D01*
X168970521Y-87154028D01*
X169056754Y-87134999D01*
X169085831Y-87074396D01*
X169056139Y-86959410D01*
X168966069Y-86777234D01*
X168910814Y-86679278D01*
X168799098Y-86473115D01*
X168702604Y-86273048D01*
X168640259Y-86118639D01*
X168635823Y-86104560D01*
X168574850Y-85901052D01*
X168991488Y-85499798D01*
X169164422Y-85332842D01*
X169309774Y-85191755D01*
X169410135Y-85093483D01*
X169446325Y-85057084D01*
X169510926Y-84985721D01*
X169421609Y-84985721D01*
X169414371Y-84989167D01*
X169366080Y-84951915D01*
X169355208Y-84936250D01*
X169341724Y-84886779D01*
X169348963Y-84883334D01*
X169397253Y-84920586D01*
X169408125Y-84936250D01*
X169421609Y-84985721D01*
X169510926Y-84985721D01*
X169645931Y-84836586D01*
X169557784Y-84836586D01*
X169503474Y-84883662D01*
X169432027Y-84861757D01*
X169411831Y-84836413D01*
X169421461Y-84768245D01*
X169455445Y-84729229D01*
X169523161Y-84699047D01*
X169557049Y-84744518D01*
X169557784Y-84836586D01*
X169645931Y-84836586D01*
X169650800Y-84831208D01*
X169788716Y-84668703D01*
X169868845Y-84558603D01*
X169899924Y-84490134D01*
X169876440Y-84424161D01*
X169804207Y-84409445D01*
X169730670Y-84453118D01*
G37*
X169730670Y-84453118D02*
X169723396Y-84463608D01*
X169651111Y-84498425D01*
X169614439Y-84491727D01*
X169549510Y-84490712D01*
X169540417Y-84509172D01*
X169504809Y-84570499D01*
X169410248Y-84684954D01*
X169275125Y-84833427D01*
X169117830Y-84996807D01*
X168956756Y-85155983D01*
X168810293Y-85291846D01*
X168698289Y-85384227D01*
X168535344Y-85473779D01*
X168406729Y-85488156D01*
X168273131Y-85505453D01*
X168177295Y-85570765D01*
X168079281Y-85684889D01*
X168070274Y-85757826D01*
X168148709Y-85782917D01*
X168207083Y-85797245D01*
X168175167Y-85846417D01*
X168122147Y-85932285D01*
X168127620Y-86040955D01*
X168196587Y-86190814D01*
X168320658Y-86381216D01*
X168419413Y-86531979D01*
X168481294Y-86646039D01*
X168493605Y-86699825D01*
X168492637Y-86700540D01*
X168365307Y-86753613D01*
X168207720Y-86796062D01*
X168065569Y-86817627D01*
X167993042Y-86812714D01*
X167949543Y-86783158D01*
X167937122Y-86722341D01*
X167954982Y-86603766D01*
X167983081Y-86480546D01*
X168023360Y-86277489D01*
X168048320Y-86084552D01*
X168052549Y-85994584D01*
X168050117Y-85809375D01*
X167969444Y-85994584D01*
X167913171Y-86155017D01*
X167858015Y-86361483D01*
X167832571Y-86481686D01*
X167795563Y-86637843D01*
X167756706Y-86735919D01*
X167730200Y-86755045D01*
X167705534Y-86688148D01*
X167714792Y-86629584D01*
X167714058Y-86527813D01*
X167641997Y-86490997D01*
X167526145Y-86525590D01*
X167434281Y-86566332D01*
X167405312Y-86552275D01*
X167441198Y-86475928D01*
X167543900Y-86329800D01*
X167595181Y-86261849D01*
X167705597Y-86108660D01*
X167747263Y-86027288D01*
X167723050Y-86011635D01*
X167711071Y-86015652D01*
X167581193Y-86057048D01*
X167516653Y-86041528D01*
X167511728Y-86027300D01*
X167414564Y-86027300D01*
X167385110Y-86126462D01*
X167333780Y-86197808D01*
X167310785Y-86206250D01*
X167282528Y-86164073D01*
X167294466Y-86087188D01*
X167338269Y-85969320D01*
X167376152Y-85938586D01*
X167402123Y-85955318D01*
X167414564Y-86027300D01*
X167511728Y-86027300D01*
X167488537Y-85960312D01*
X167486496Y-85947448D01*
X167487881Y-85857110D01*
X167539764Y-85848845D01*
X167546019Y-85851123D01*
X167637680Y-85838715D01*
X167770239Y-85768576D01*
X167914184Y-85661990D01*
X168040003Y-85540240D01*
X168107993Y-85445823D01*
X168111950Y-85433171D01*
X167939739Y-85433171D01*
X167901837Y-85489189D01*
X167789673Y-85586506D01*
X167716629Y-85626732D01*
X167619162Y-85665005D01*
X167585927Y-85666488D01*
X167582500Y-85632700D01*
X167582500Y-85632661D01*
X167630547Y-85576723D01*
X167765982Y-85495561D01*
X167926458Y-85418822D01*
X167939739Y-85433171D01*
X168111950Y-85433171D01*
X168154888Y-85295884D01*
X168107216Y-85192528D01*
X167962880Y-85131452D01*
X167953725Y-85129558D01*
X167784688Y-85128198D01*
X167627181Y-85179121D01*
X167513873Y-85266481D01*
X167476667Y-85360942D01*
X167500666Y-85446163D01*
X167533363Y-85465417D01*
X167548123Y-85494843D01*
X167511630Y-85543847D01*
X167436529Y-85638100D01*
X167412020Y-85685816D01*
X167351399Y-85719320D01*
X167226489Y-85704914D01*
X167062293Y-85651501D01*
X166883811Y-85567987D01*
X166716046Y-85463273D01*
X166656891Y-85416896D01*
X166512355Y-85298996D01*
X166493794Y-85284997D01*
X166392764Y-85284997D01*
X166388448Y-85312212D01*
X166312380Y-85358061D01*
X166243383Y-85325744D01*
X166227309Y-85264360D01*
X166281222Y-85228175D01*
X166340349Y-85235148D01*
X166392764Y-85284997D01*
X166493794Y-85284997D01*
X166386243Y-85203884D01*
X166334187Y-85169262D01*
X166269166Y-85113277D01*
X166272652Y-85035272D01*
X166299174Y-84970825D01*
X166334518Y-84862607D01*
X166302379Y-84835400D01*
X166208442Y-84881117D01*
X166101687Y-84895982D01*
X166061642Y-84872766D01*
X165981738Y-84841149D01*
X165930902Y-84907173D01*
X165910493Y-85015607D01*
X165938137Y-85149117D01*
X166002609Y-85204905D01*
X166133158Y-85288394D01*
X166197443Y-85338586D01*
X166424708Y-85532763D01*
X166640803Y-85712196D01*
X166830405Y-85864676D01*
X166978189Y-85977993D01*
X167068830Y-86039935D01*
X167087573Y-86047835D01*
X167141997Y-86089474D01*
X167213448Y-86190282D01*
X167219285Y-86200370D01*
X167265875Y-86295109D01*
X167277182Y-86380619D01*
X167251755Y-86495048D01*
X167202703Y-86636598D01*
X167123838Y-86860934D01*
X167081786Y-87012032D01*
X167074829Y-87115225D01*
X167101250Y-87195848D01*
X167159142Y-87278992D01*
X167269666Y-87382277D01*
X167410041Y-87420838D01*
X167480508Y-87423334D01*
X167688333Y-87423334D01*
X167689144Y-87859896D01*
X167694992Y-88071989D01*
X167709804Y-88247824D01*
X167730711Y-88356816D01*
X167737119Y-88370960D01*
X167758934Y-88489979D01*
X167700686Y-88608218D01*
X167583512Y-88693923D01*
X167508261Y-88714819D01*
X167107434Y-88776713D01*
X166783971Y-88839129D01*
X166509551Y-88908196D01*
X166286042Y-88979379D01*
X166108594Y-89047502D01*
X166027104Y-89091539D01*
X166034112Y-89109870D01*
X166122153Y-89100874D01*
X166283765Y-89062929D01*
X166448337Y-89014632D01*
X166665827Y-88959533D01*
X166932843Y-88910224D01*
X167193176Y-88877016D01*
X167203732Y-88876074D01*
X167638081Y-88838185D01*
X167584412Y-88979346D01*
X167557239Y-89085561D01*
X167596115Y-89141095D01*
X167649226Y-89164550D01*
X167766567Y-89190268D01*
X167829074Y-89185262D01*
X167895178Y-89199270D01*
X167927892Y-89278623D01*
X167922304Y-89386736D01*
X167873500Y-89487024D01*
X167870110Y-89490876D01*
X167810262Y-89565296D01*
X167832785Y-89589725D01*
X167905028Y-89591234D01*
X168050117Y-89557627D01*
X168136805Y-89510546D01*
X168207850Y-89427605D01*
X168189722Y-89340250D01*
X168159461Y-89228018D01*
X168153055Y-89072890D01*
X168154549Y-89050521D01*
X168174834Y-88919178D01*
X168179364Y-88913780D01*
X167829816Y-88913780D01*
X167816461Y-89023953D01*
X167778643Y-89092800D01*
X167745344Y-89077411D01*
X167724302Y-88999333D01*
X167723254Y-88880115D01*
X167735373Y-88798125D01*
X167774030Y-88613959D01*
X167812694Y-88763979D01*
X167829816Y-88913780D01*
X168179364Y-88913780D01*
X168221821Y-88863194D01*
X168308964Y-88852084D01*
X168485249Y-88864991D01*
X168723243Y-88898894D01*
X168982654Y-88946565D01*
X169223191Y-89000777D01*
X169370287Y-89042462D01*
X169564498Y-89099234D01*
X169671499Y-89114561D01*
X169687125Y-89088079D01*
X169670063Y-89068700D01*
X169576983Y-89017635D01*
X169407529Y-88956487D01*
X169189664Y-88892890D01*
X168951354Y-88834475D01*
X168720564Y-88788875D01*
X168565686Y-88767308D01*
X168380596Y-88743736D01*
X168235250Y-88716841D01*
X168168022Y-88695458D01*
X168157108Y-88673355D01*
X168005833Y-88673355D01*
X167980093Y-88689194D01*
X167909747Y-88621217D01*
X167893250Y-88600729D01*
X167847485Y-88538050D01*
X167874888Y-88551190D01*
X167913229Y-88580750D01*
X167986517Y-88646028D01*
X168005833Y-88673355D01*
X168157108Y-88673355D01*
X168152318Y-88663657D01*
X168160622Y-88593858D01*
X168196818Y-88475498D01*
X168264790Y-88298015D01*
X168368423Y-88050846D01*
X168511601Y-87723428D01*
X168592063Y-87542396D01*
X168641163Y-87409015D01*
X168650056Y-87329032D01*
X168637446Y-87317500D01*
X168585396Y-87362114D01*
X168522838Y-87473383D01*
X168504916Y-87515938D01*
X168432956Y-87692663D01*
X168360947Y-87859022D01*
X168354527Y-87873125D01*
X168281266Y-88042401D01*
X168216271Y-88204990D01*
X168146237Y-88358359D01*
X168094544Y-88410320D01*
X168067026Y-88361540D01*
X168069490Y-88214144D01*
X168005833Y-88214144D01*
X167983335Y-88363003D01*
X167926214Y-88427689D01*
X167850029Y-88400269D01*
X167793792Y-88322216D01*
X167767445Y-88193597D01*
X167828399Y-88103324D01*
X167913229Y-88077442D01*
X167984335Y-88103881D01*
X168005826Y-88211057D01*
X168005833Y-88214144D01*
X168069490Y-88214144D01*
X168069515Y-88212685D01*
X168072066Y-88188501D01*
X168075881Y-87969575D01*
X168026166Y-87818486D01*
X168021752Y-87811549D01*
X167971225Y-87714743D01*
X167988439Y-87648437D01*
X168020819Y-87612455D01*
X168096675Y-87562991D01*
X168131826Y-87566964D01*
X168153058Y-87543213D01*
X168164128Y-87443011D01*
X168164583Y-87412309D01*
X168177843Y-87162613D01*
X168205439Y-87061037D01*
X167835958Y-87061037D01*
X167816326Y-87124414D01*
X167766788Y-87183945D01*
X167736232Y-87182107D01*
X167726473Y-87126476D01*
X167755006Y-87081915D01*
X167822650Y-87026280D01*
X167835958Y-87061037D01*
X168205439Y-87061037D01*
X168223855Y-86993255D01*
X168311971Y-86881359D01*
X168404921Y-86824394D01*
X168582052Y-86739926D01*
X168598214Y-86962567D01*
X168614724Y-87102416D01*
X168649800Y-87163504D01*
X168722757Y-87172900D01*
X168746667Y-87170624D01*
X168888433Y-87158207D01*
X168970521Y-87154028D01*
X169056754Y-87134999D01*
X169085831Y-87074396D01*
X169056139Y-86959410D01*
X168966069Y-86777234D01*
X168910814Y-86679278D01*
X168799098Y-86473115D01*
X168702604Y-86273048D01*
X168640259Y-86118639D01*
X168635823Y-86104560D01*
X168574850Y-85901052D01*
X168991488Y-85499798D01*
X169164422Y-85332842D01*
X169309774Y-85191755D01*
X169410135Y-85093483D01*
X169446325Y-85057084D01*
X169510926Y-84985721D01*
X169421609Y-84985721D01*
X169414371Y-84989167D01*
X169366080Y-84951915D01*
X169355208Y-84936250D01*
X169341724Y-84886779D01*
X169348963Y-84883334D01*
X169397253Y-84920586D01*
X169408125Y-84936250D01*
X169421609Y-84985721D01*
X169510926Y-84985721D01*
X169645931Y-84836586D01*
X169557784Y-84836586D01*
X169503474Y-84883662D01*
X169432027Y-84861757D01*
X169411831Y-84836413D01*
X169421461Y-84768245D01*
X169455445Y-84729229D01*
X169523161Y-84699047D01*
X169557049Y-84744518D01*
X169557784Y-84836586D01*
X169645931Y-84836586D01*
X169650800Y-84831208D01*
X169788716Y-84668703D01*
X169868845Y-84558603D01*
X169899924Y-84490134D01*
X169876440Y-84424161D01*
X169804207Y-84409445D01*
X169730670Y-84453118D01*
G36*
X167541772Y-89220801D02*
G01*
X167497634Y-89265417D01*
X167455597Y-89354216D01*
X167458024Y-89393896D01*
X167439157Y-89428988D01*
X167403538Y-89434167D01*
X167312111Y-89465216D01*
X167291458Y-89487084D01*
X167313471Y-89523390D01*
X167420306Y-89539716D01*
X167441349Y-89540000D01*
X167571604Y-89526102D01*
X167635890Y-89468059D01*
X167659207Y-89399499D01*
X167663023Y-89276010D01*
X167616308Y-89210161D01*
X167541772Y-89220801D01*
G37*
X167541772Y-89220801D02*
X167497634Y-89265417D01*
X167455597Y-89354216D01*
X167458024Y-89393896D01*
X167439157Y-89428988D01*
X167403538Y-89434167D01*
X167312111Y-89465216D01*
X167291458Y-89487084D01*
X167313471Y-89523390D01*
X167420306Y-89539716D01*
X167441349Y-89540000D01*
X167571604Y-89526102D01*
X167635890Y-89468059D01*
X167659207Y-89399499D01*
X167663023Y-89276010D01*
X167616308Y-89210161D01*
X167541772Y-89220801D01*
G36*
X166259583Y-85280209D02*
G01*
X166286042Y-85306667D01*
X166312500Y-85280209D01*
X166286042Y-85253750D01*
X166259583Y-85280209D01*
G37*
X166259583Y-85280209D02*
X166286042Y-85306667D01*
X166312500Y-85280209D01*
X166286042Y-85253750D01*
X166259583Y-85280209D01*
D15*
%TO.C,J9*%
X165570000Y-82760000D02*
X165570000Y-81430000D01*
X165570000Y-81430000D02*
X164240000Y-81430000D01*
X162970000Y-81430000D02*
X157830000Y-81430000D01*
X157830000Y-84090000D02*
X157830000Y-81430000D01*
X162970000Y-84090000D02*
X157830000Y-84090000D01*
X162970000Y-84090000D02*
X162970000Y-81430000D01*
%TO.C,J8*%
X163030000Y-87840000D02*
X163030000Y-86510000D01*
X163030000Y-86510000D02*
X161700000Y-86510000D01*
X160430000Y-86510000D02*
X152750000Y-86510000D01*
X152750000Y-89170000D02*
X152750000Y-86510000D01*
X160430000Y-89170000D02*
X152750000Y-89170000D01*
X160430000Y-89170000D02*
X160430000Y-86510000D01*
%TO.C,J7*%
X175730000Y-87840000D02*
X175730000Y-86510000D01*
X175730000Y-86510000D02*
X174400000Y-86510000D01*
X173130000Y-86510000D02*
X170530000Y-86510000D01*
X170530000Y-89170000D02*
X170530000Y-86510000D01*
X173130000Y-89170000D02*
X170530000Y-89170000D01*
X173130000Y-89170000D02*
X173130000Y-86510000D01*
%TO.C,U5*%
X102900000Y-54610000D02*
X100450000Y-54610000D01*
X101100000Y-51390000D02*
X102900000Y-51390000D01*
%TO.C,U4*%
X150900000Y-60110000D02*
X148450000Y-60110000D01*
X149100000Y-56890000D02*
X150900000Y-56890000D01*
%TO.C,U3*%
X184100000Y-51390000D02*
X186550000Y-51390000D01*
X185900000Y-54610000D02*
X184100000Y-54610000D01*
%TO.C,R7*%
X192990000Y-77162779D02*
X192990000Y-76837221D01*
X194010000Y-77162779D02*
X194010000Y-76837221D01*
%TO.C,R3*%
X191490000Y-80662779D02*
X191490000Y-80337221D01*
X192510000Y-80662779D02*
X192510000Y-80337221D01*
%TO.C,R2*%
X194490000Y-80662779D02*
X194490000Y-80337221D01*
X195510000Y-80662779D02*
X195510000Y-80337221D01*
%TO.C,C12*%
X99860000Y-52337221D02*
X99860000Y-52662779D01*
X98840000Y-52337221D02*
X98840000Y-52662779D01*
%TO.C,C11*%
X147510000Y-57837221D02*
X147510000Y-58162779D01*
X146490000Y-57837221D02*
X146490000Y-58162779D01*
%TO.C,C10*%
X187240000Y-53912779D02*
X187240000Y-53587221D01*
X188260000Y-53912779D02*
X188260000Y-53587221D01*
%TO.C,C7*%
X192510000Y-76837221D02*
X192510000Y-77162779D01*
X191490000Y-76837221D02*
X191490000Y-77162779D01*
%TO.C,C6*%
X172337221Y-52240000D02*
X172662779Y-52240000D01*
X172337221Y-53260000D02*
X172662779Y-53260000D01*
%TO.C,C5*%
X172337221Y-56990000D02*
X172662779Y-56990000D01*
X172337221Y-58010000D02*
X172662779Y-58010000D01*
%TO.C,C4*%
X175912779Y-61010000D02*
X175587221Y-61010000D01*
X175912779Y-59990000D02*
X175587221Y-59990000D01*
%TO.C,C3*%
X172337221Y-59990000D02*
X172662779Y-59990000D01*
X172337221Y-61010000D02*
X172662779Y-61010000D01*
%TO.C,C2*%
X155337221Y-59990000D02*
X155662779Y-59990000D01*
X155337221Y-61010000D02*
X155662779Y-61010000D01*
%TO.C,C1*%
X127124721Y-56990000D02*
X127450279Y-56990000D01*
X127124721Y-58010000D02*
X127450279Y-58010000D01*
%TO.C,U6*%
D14*
X188361904Y-73552380D02*
X188361904Y-74361904D01*
X188314285Y-74457142D01*
X188266666Y-74504761D01*
X188171428Y-74552380D01*
X187980952Y-74552380D01*
X187885714Y-74504761D01*
X187838095Y-74457142D01*
X187790476Y-74361904D01*
X187790476Y-73552380D01*
X186885714Y-73552380D02*
X187076190Y-73552380D01*
X187171428Y-73600000D01*
X187219047Y-73647619D01*
X187314285Y-73790476D01*
X187361904Y-73980952D01*
X187361904Y-74361904D01*
X187314285Y-74457142D01*
X187266666Y-74504761D01*
X187171428Y-74552380D01*
X186980952Y-74552380D01*
X186885714Y-74504761D01*
X186838095Y-74457142D01*
X186790476Y-74361904D01*
X186790476Y-74123809D01*
X186838095Y-74028571D01*
X186885714Y-73980952D01*
X186980952Y-73933333D01*
X187171428Y-73933333D01*
X187266666Y-73980952D01*
X187314285Y-74028571D01*
X187361904Y-74123809D01*
%TO.C,U5*%
X102761904Y-55352380D02*
X102761904Y-56161904D01*
X102714285Y-56257142D01*
X102666666Y-56304761D01*
X102571428Y-56352380D01*
X102380952Y-56352380D01*
X102285714Y-56304761D01*
X102238095Y-56257142D01*
X102190476Y-56161904D01*
X102190476Y-55352380D01*
X101238095Y-55352380D02*
X101714285Y-55352380D01*
X101761904Y-55828571D01*
X101714285Y-55780952D01*
X101619047Y-55733333D01*
X101380952Y-55733333D01*
X101285714Y-55780952D01*
X101238095Y-55828571D01*
X101190476Y-55923809D01*
X101190476Y-56161904D01*
X101238095Y-56257142D01*
X101285714Y-56304761D01*
X101380952Y-56352380D01*
X101619047Y-56352380D01*
X101714285Y-56304761D01*
X101761904Y-56257142D01*
%TO.C,U4*%
X150761904Y-60852380D02*
X150761904Y-61661904D01*
X150714285Y-61757142D01*
X150666666Y-61804761D01*
X150571428Y-61852380D01*
X150380952Y-61852380D01*
X150285714Y-61804761D01*
X150238095Y-61757142D01*
X150190476Y-61661904D01*
X150190476Y-60852380D01*
X149285714Y-61185714D02*
X149285714Y-61852380D01*
X149523809Y-60804761D02*
X149761904Y-61519047D01*
X149142857Y-61519047D01*
%TO.C,U3*%
X185761904Y-49552380D02*
X185761904Y-50361904D01*
X185714285Y-50457142D01*
X185666666Y-50504761D01*
X185571428Y-50552380D01*
X185380952Y-50552380D01*
X185285714Y-50504761D01*
X185238095Y-50457142D01*
X185190476Y-50361904D01*
X185190476Y-49552380D01*
X184809523Y-49552380D02*
X184190476Y-49552380D01*
X184523809Y-49933333D01*
X184380952Y-49933333D01*
X184285714Y-49980952D01*
X184238095Y-50028571D01*
X184190476Y-50123809D01*
X184190476Y-50361904D01*
X184238095Y-50457142D01*
X184285714Y-50504761D01*
X184380952Y-50552380D01*
X184666666Y-50552380D01*
X184761904Y-50504761D01*
X184809523Y-50457142D01*
%TO.C,R7*%
X194547619Y-75833333D02*
X194500000Y-75880952D01*
X194452380Y-75976190D01*
X194452380Y-76214285D01*
X194500000Y-76309523D01*
X194547619Y-76357142D01*
X194642857Y-76404761D01*
X194738095Y-76404761D01*
X194880952Y-76357142D01*
X195452380Y-75785714D01*
X195452380Y-76404761D01*
X194452380Y-76738095D02*
X194452380Y-77404761D01*
X195452380Y-76976190D01*
X195452380Y-77785714D02*
X194452380Y-77785714D01*
X195071428Y-77880952D02*
X195452380Y-78166666D01*
X194785714Y-78166666D02*
X195166666Y-77785714D01*
%TO.C,R3*%
X192947619Y-79333333D02*
X192900000Y-79380952D01*
X192852380Y-79476190D01*
X192852380Y-79714285D01*
X192900000Y-79809523D01*
X192947619Y-79857142D01*
X193042857Y-79904761D01*
X193138095Y-79904761D01*
X193280952Y-79857142D01*
X193852380Y-79285714D01*
X193852380Y-79904761D01*
X192852380Y-80523809D02*
X192852380Y-80619047D01*
X192900000Y-80714285D01*
X192947619Y-80761904D01*
X193042857Y-80809523D01*
X193233333Y-80857142D01*
X193471428Y-80857142D01*
X193661904Y-80809523D01*
X193757142Y-80761904D01*
X193804761Y-80714285D01*
X193852380Y-80619047D01*
X193852380Y-80523809D01*
X193804761Y-80428571D01*
X193757142Y-80380952D01*
X193661904Y-80333333D01*
X193471428Y-80285714D01*
X193233333Y-80285714D01*
X193042857Y-80333333D01*
X192947619Y-80380952D01*
X192900000Y-80428571D01*
X192852380Y-80523809D01*
X193852380Y-81285714D02*
X192852380Y-81285714D01*
X193471428Y-81380952D02*
X193852380Y-81666666D01*
X193185714Y-81666666D02*
X193566666Y-81285714D01*
%TO.C,R2*%
X196952380Y-79904761D02*
X196952380Y-79333333D01*
X196952380Y-79619047D02*
X195952380Y-79619047D01*
X196095238Y-79523809D01*
X196190476Y-79428571D01*
X196238095Y-79333333D01*
X195952380Y-80523809D02*
X195952380Y-80619047D01*
X196000000Y-80714285D01*
X196047619Y-80761904D01*
X196142857Y-80809523D01*
X196333333Y-80857142D01*
X196571428Y-80857142D01*
X196761904Y-80809523D01*
X196857142Y-80761904D01*
X196904761Y-80714285D01*
X196952380Y-80619047D01*
X196952380Y-80523809D01*
X196904761Y-80428571D01*
X196857142Y-80380952D01*
X196761904Y-80333333D01*
X196571428Y-80285714D01*
X196333333Y-80285714D01*
X196142857Y-80333333D01*
X196047619Y-80380952D01*
X196000000Y-80428571D01*
X195952380Y-80523809D01*
X196952380Y-81285714D02*
X195952380Y-81285714D01*
X196571428Y-81380952D02*
X196952380Y-81666666D01*
X196285714Y-81666666D02*
X196666666Y-81285714D01*
%TO.C,C7*%
X191202380Y-75880952D02*
X191202380Y-75309523D01*
X191202380Y-75595238D02*
X190202380Y-75595238D01*
X190345238Y-75500000D01*
X190440476Y-75404761D01*
X190488095Y-75309523D01*
X190202380Y-76500000D02*
X190202380Y-76595238D01*
X190250000Y-76690476D01*
X190297619Y-76738095D01*
X190392857Y-76785714D01*
X190583333Y-76833333D01*
X190821428Y-76833333D01*
X191011904Y-76785714D01*
X191107142Y-76738095D01*
X191154761Y-76690476D01*
X191202380Y-76595238D01*
X191202380Y-76500000D01*
X191154761Y-76404761D01*
X191107142Y-76357142D01*
X191011904Y-76309523D01*
X190821428Y-76261904D01*
X190583333Y-76261904D01*
X190392857Y-76309523D01*
X190297619Y-76357142D01*
X190250000Y-76404761D01*
X190202380Y-76500000D01*
X190202380Y-77452380D02*
X190202380Y-77547619D01*
X190250000Y-77642857D01*
X190297619Y-77690476D01*
X190392857Y-77738095D01*
X190583333Y-77785714D01*
X190821428Y-77785714D01*
X191011904Y-77738095D01*
X191107142Y-77690476D01*
X191154761Y-77642857D01*
X191202380Y-77547619D01*
X191202380Y-77452380D01*
X191154761Y-77357142D01*
X191107142Y-77309523D01*
X191011904Y-77261904D01*
X190821428Y-77214285D01*
X190583333Y-77214285D01*
X190392857Y-77261904D01*
X190297619Y-77309523D01*
X190250000Y-77357142D01*
X190202380Y-77452380D01*
X190535714Y-78214285D02*
X191202380Y-78214285D01*
X190630952Y-78214285D02*
X190583333Y-78261904D01*
X190535714Y-78357142D01*
X190535714Y-78500000D01*
X190583333Y-78595238D01*
X190678571Y-78642857D01*
X191202380Y-78642857D01*
%TO.C,J1*%
D18*
X158366666Y-63788095D02*
X158366666Y-64716666D01*
X158419047Y-64902380D01*
X158523809Y-65026190D01*
X158680952Y-65088095D01*
X158785714Y-65088095D01*
X157266666Y-65088095D02*
X157895238Y-65088095D01*
X157580952Y-65088095D02*
X157580952Y-63788095D01*
X157685714Y-63973809D01*
X157790476Y-64097619D01*
X157895238Y-64159523D01*
%TO.C,J2*%
X184366666Y-64788095D02*
X184366666Y-65716666D01*
X184419047Y-65902380D01*
X184523809Y-66026190D01*
X184680952Y-66088095D01*
X184785714Y-66088095D01*
X183895238Y-64911904D02*
X183842857Y-64850000D01*
X183738095Y-64788095D01*
X183476190Y-64788095D01*
X183371428Y-64850000D01*
X183319047Y-64911904D01*
X183266666Y-65035714D01*
X183266666Y-65159523D01*
X183319047Y-65345238D01*
X183947619Y-66088095D01*
X183266666Y-66088095D01*
%TD*%
M02*
