%TF.GenerationSoftware,KiCad,Pcbnew,6.0.1-79c1e3a40b~116~ubuntu18.04.1*%
%TF.CreationDate,2022-01-20T05:24:45+01:00*%
%TF.ProjectId,ss_mb_mockup,73735f6d-625f-46d6-9f63-6b75702e6b69,Rev0.1*%
%TF.SameCoordinates,PX42c1d80PY93d1cc0*%
%TF.FileFunction,Soldermask,Top*%
%TF.FilePolarity,Negative*%
%FSLAX46Y46*%
G04 Gerber Fmt 4.6, Leading zero omitted, Abs format (unit mm)*
G04 Created by KiCad (PCBNEW 6.0.1-79c1e3a40b~116~ubuntu18.04.1) date 2022-01-20 05:24:45*
%MOMM*%
%LPD*%
G01*
G04 APERTURE LIST*
G04 Aperture macros list*
%AMRoundRect*
0 Rectangle with rounded corners*
0 $1 Rounding radius*
0 $2 $3 $4 $5 $6 $7 $8 $9 X,Y pos of 4 corners*
0 Add a 4 corners polygon primitive as box body*
4,1,4,$2,$3,$4,$5,$6,$7,$8,$9,$2,$3,0*
0 Add four circle primitives for the rounded corners*
1,1,$1+$1,$2,$3*
1,1,$1+$1,$4,$5*
1,1,$1+$1,$6,$7*
1,1,$1+$1,$8,$9*
0 Add four rect primitives between the rounded corners*
20,1,$1+$1,$2,$3,$4,$5,0*
20,1,$1+$1,$4,$5,$6,$7,0*
20,1,$1+$1,$6,$7,$8,$9,0*
20,1,$1+$1,$8,$9,$2,$3,0*%
G04 Aperture macros list end*
%ADD10C,0.100000*%
%ADD11RoundRect,0.140000X-0.170000X0.140000X-0.170000X-0.140000X0.170000X-0.140000X0.170000X0.140000X0*%
%ADD12RoundRect,0.250000X0.550000X-1.500000X0.550000X1.500000X-0.550000X1.500000X-0.550000X-1.500000X0*%
%ADD13R,0.650000X1.220000*%
%ADD14RoundRect,0.150000X-0.150000X0.725000X-0.150000X-0.725000X0.150000X-0.725000X0.150000X0.725000X0*%
%ADD15C,1.300000*%
%ADD16R,0.900000X2.500000*%
%ADD17R,2.500000X5.150000*%
%ADD18RoundRect,0.140000X-0.140000X-0.170000X0.140000X-0.170000X0.140000X0.170000X-0.140000X0.170000X0*%
%ADD19R,1.250000X2.900000*%
%ADD20R,1.100000X9.000000*%
%ADD21C,0.800000*%
%ADD22C,7.000000*%
%ADD23R,0.900000X0.800000*%
%ADD24RoundRect,0.050000X0.200000X0.300000X-0.200000X0.300000X-0.200000X-0.300000X0.200000X-0.300000X0*%
%ADD25RoundRect,0.050000X-0.300000X0.200000X-0.300000X-0.200000X0.300000X-0.200000X0.300000X0.200000X0*%
%ADD26C,1.200000*%
%ADD27RoundRect,0.140000X0.170000X-0.140000X0.170000X0.140000X-0.170000X0.140000X-0.170000X-0.140000X0*%
%ADD28RoundRect,0.135000X-0.135000X-0.185000X0.135000X-0.185000X0.135000X0.185000X-0.135000X0.185000X0*%
%ADD29R,1.220000X0.650000*%
%ADD30RoundRect,0.135000X0.185000X-0.135000X0.185000X0.135000X-0.185000X0.135000X-0.185000X-0.135000X0*%
%ADD31C,1.600000*%
%ADD32R,1.500000X2.600000*%
%ADD33RoundRect,0.135000X0.135000X0.185000X-0.135000X0.185000X-0.135000X-0.185000X0.135000X-0.185000X0*%
%ADD34C,3.200000*%
%ADD35R,1.300000X1.300000*%
%ADD36C,2.000000*%
%ADD37C,1.700000*%
%ADD38RoundRect,0.250000X-0.600000X0.600000X-0.600000X-0.600000X0.600000X-0.600000X0.600000X0.600000X0*%
%ADD39C,3.100000*%
%ADD40C,1.500000*%
%ADD41RoundRect,0.600000X-0.400000X0.000000X0.400000X0.000000X0.400000X0.000000X-0.400000X0.000000X0*%
%ADD42RoundRect,0.600000X0.000000X-0.400000X0.000000X0.400000X0.000000X0.400000X0.000000X-0.400000X0*%
%ADD43C,2.250000*%
%ADD44C,3.000000*%
%ADD45RoundRect,0.400000X1.000000X0.400000X-1.000000X0.400000X-1.000000X-0.400000X1.000000X-0.400000X0*%
%ADD46O,2.400000X1.600000*%
G04 APERTURE END LIST*
D10*
%TO.C,JP2203*%
X133750000Y-31950000D02*
X134150000Y-31950000D01*
X134150000Y-31950000D02*
X134150000Y-32150000D01*
X134150000Y-32150000D02*
X133750000Y-32150000D01*
X133750000Y-32150000D02*
X133750000Y-31950000D01*
G36*
X134150000Y-32150000D02*
G01*
X133750000Y-32150000D01*
X133750000Y-31950000D01*
X134150000Y-31950000D01*
X134150000Y-32150000D01*
G37*
X134150000Y-32150000D02*
X133750000Y-32150000D01*
X133750000Y-31950000D01*
X134150000Y-31950000D01*
X134150000Y-32150000D01*
%TO.C,JP2204*%
X135900000Y-32700000D02*
X135900000Y-32300000D01*
X135900000Y-32300000D02*
X136100000Y-32300000D01*
X136100000Y-32300000D02*
X136100000Y-32700000D01*
X136100000Y-32700000D02*
X135900000Y-32700000D01*
G36*
X136100000Y-32700000D02*
G01*
X135900000Y-32700000D01*
X135900000Y-32300000D01*
X136100000Y-32300000D01*
X136100000Y-32700000D01*
G37*
X136100000Y-32700000D02*
X135900000Y-32700000D01*
X135900000Y-32300000D01*
X136100000Y-32300000D01*
X136100000Y-32700000D01*
%TD*%
D11*
%TO.C,C322*%
X54250000Y-79520000D03*
X54250000Y-80480000D03*
%TD*%
D12*
%TO.C,C323*%
X57000000Y-77700000D03*
X57000000Y-72300000D03*
%TD*%
D13*
%TO.C,D1005*%
X23050000Y-93310000D03*
X24000000Y-93310000D03*
X24950000Y-93310000D03*
X24950000Y-90690000D03*
X24000000Y-90690000D03*
X23050000Y-90690000D03*
%TD*%
%TO.C,U1003*%
X64950000Y-75690000D03*
X64000000Y-75690000D03*
X63050000Y-75690000D03*
X63050000Y-78310000D03*
X64000000Y-78310000D03*
X64950000Y-78310000D03*
%TD*%
D14*
%TO.C,U1801*%
X91905000Y-34425000D03*
X90635000Y-34425000D03*
X89365000Y-34425000D03*
X88095000Y-34425000D03*
X88095000Y-39575000D03*
X89365000Y-39575000D03*
X90635000Y-39575000D03*
X91905000Y-39575000D03*
%TD*%
%TO.C,U1802*%
X100905000Y-34425000D03*
X99635000Y-34425000D03*
X98365000Y-34425000D03*
X97095000Y-34425000D03*
X97095000Y-39575000D03*
X98365000Y-39575000D03*
X99635000Y-39575000D03*
X100905000Y-39575000D03*
%TD*%
D15*
%TO.C,J1008*%
X66500000Y-86650000D03*
X61500000Y-86650000D03*
D16*
X60500000Y-82570000D03*
X63000000Y-82570000D03*
X65000000Y-82570000D03*
X67500000Y-82570000D03*
D17*
X56750000Y-85050000D03*
X71250000Y-85050000D03*
%TD*%
D18*
%TO.C,C1012*%
X9520000Y-84000000D03*
X10480000Y-84000000D03*
%TD*%
D19*
%TO.C,J1009*%
X11250000Y-87370000D03*
X8750000Y-87370000D03*
D20*
X13220000Y-92200000D03*
X6180000Y-92200000D03*
%TD*%
D21*
%TO.C,H301*%
X152856155Y-20856155D03*
X151000000Y-21625000D03*
X152856155Y-17143845D03*
D22*
X151000000Y-19000000D03*
D21*
X149143845Y-17143845D03*
X151000000Y-16375000D03*
X148375000Y-19000000D03*
X153625000Y-19000000D03*
X149143845Y-20856155D03*
%TD*%
D23*
%TO.C,D2202*%
X136000000Y-30950000D03*
X136000000Y-29050000D03*
X134000000Y-30000000D03*
%TD*%
D24*
%TO.C,JP2203*%
X134400000Y-32050000D03*
X133500000Y-32050000D03*
%TD*%
D25*
%TO.C,JP2204*%
X136000000Y-32050000D03*
X136000000Y-32950000D03*
%TD*%
D26*
%TO.C,TP2001*%
X91000000Y-53000000D03*
%TD*%
D27*
%TO.C,C1007*%
X17000000Y-86980000D03*
X17000000Y-86020000D03*
%TD*%
%TO.C,C1011*%
X21500000Y-92480000D03*
X21500000Y-91520000D03*
%TD*%
D11*
%TO.C,C1009*%
X61500000Y-76520000D03*
X61500000Y-77480000D03*
%TD*%
D28*
%TO.C,R309*%
X49990000Y-76000000D03*
X51010000Y-76000000D03*
%TD*%
D18*
%TO.C,C321*%
X50000000Y-81000000D03*
X50960000Y-81000000D03*
%TD*%
D29*
%TO.C,U305*%
X52560000Y-79450000D03*
X52560000Y-78500000D03*
X52560000Y-77550000D03*
X49940000Y-77550000D03*
X49940000Y-79450000D03*
%TD*%
D30*
%TO.C,R2102*%
X86750000Y-58760000D03*
X86750000Y-57740000D03*
%TD*%
D31*
%TO.C,J1011*%
X3500000Y-74500000D03*
X10500000Y-74500000D03*
D32*
X2400000Y-78350000D03*
X11700000Y-78250000D03*
X4300000Y-70650000D03*
%TD*%
D33*
%TO.C,R1010*%
X15010000Y-79000000D03*
X13990000Y-79000000D03*
%TD*%
D34*
%TO.C,J201*%
X49715000Y-88000000D03*
X38285000Y-88000000D03*
D35*
X39560000Y-79110000D03*
D15*
X40830000Y-81650000D03*
X42100000Y-79110000D03*
X43370000Y-81650000D03*
X44640000Y-79110000D03*
X45910000Y-81650000D03*
X47180000Y-79110000D03*
X48450000Y-81650000D03*
X37275000Y-90540000D03*
X37275000Y-92570000D03*
X50725000Y-90540000D03*
X50725000Y-92570000D03*
D36*
X36125000Y-84950000D03*
X51875000Y-84950000D03*
%TD*%
D37*
%TO.C,J1006*%
X66750000Y-90000000D03*
X61250000Y-90000000D03*
%TD*%
D38*
%TO.C,J1007*%
X19000000Y-85000000D03*
D37*
X19000000Y-87540000D03*
X21540000Y-85000000D03*
X21540000Y-87540000D03*
X24080000Y-85000000D03*
X24080000Y-87540000D03*
X26620000Y-85000000D03*
X26620000Y-87540000D03*
X29160000Y-85000000D03*
X29160000Y-87540000D03*
%TD*%
D39*
%TO.C,J303*%
X148460000Y-9540000D03*
X153540000Y-9540000D03*
X153540000Y-4460000D03*
X148460000Y-4460000D03*
%TD*%
D40*
%TO.C,J1001*%
X84000000Y-87100000D03*
X79000000Y-82100000D03*
X89000000Y-94600000D03*
X79000000Y-92100000D03*
X89000000Y-82100000D03*
X79000000Y-94600000D03*
X89000000Y-92100000D03*
D41*
X84000000Y-92100000D03*
D42*
X79000000Y-87100000D03*
X89000000Y-87100000D03*
D40*
X86500000Y-82100000D03*
X84000000Y-82100000D03*
X81500000Y-82100000D03*
X86500000Y-79600000D03*
X84000000Y-79600000D03*
X81500000Y-79600000D03*
D42*
X81500000Y-87100000D03*
X86500000Y-87100000D03*
%TD*%
D39*
%TO.C,J1002*%
X12920000Y-58540000D03*
X12920000Y-53460000D03*
X18000000Y-58540000D03*
X18000000Y-53460000D03*
X23080000Y-58540000D03*
X23080000Y-53460000D03*
%TD*%
%TO.C,J1003*%
X39920000Y-58540000D03*
X39920000Y-53460000D03*
X45000000Y-58540000D03*
X45000000Y-53460000D03*
X50080000Y-53460000D03*
X50080000Y-58540000D03*
%TD*%
D43*
%TO.C,J2203*%
X136000000Y-38000000D03*
X138540000Y-40540000D03*
X133460000Y-35460000D03*
X138540000Y-35460000D03*
X133460000Y-40540000D03*
%TD*%
D44*
%TO.C,RTC2101*%
X57250000Y-51475000D03*
X83920000Y-51475000D03*
X83920000Y-70525000D03*
D45*
X89000000Y-54650000D03*
D46*
X89000000Y-57190000D03*
X89000000Y-59730000D03*
X89000000Y-62270000D03*
X89000000Y-64810000D03*
X89000000Y-67350000D03*
%TD*%
M02*
