M48
; DRILL file {KiCad 6.0.1-79c1e3a40b~116~ubuntu18.04.1} date Thu 20 Jan 2022 05:24:57 AM CET
; FORMAT={-:-/ absolute / inch / decimal}
; #@! TF.CreationDate,2022-01-20T05:24:57+01:00
; #@! TF.GenerationSoftware,Kicad,Pcbnew,6.0.1-79c1e3a40b~116~ubuntu18.04.1
; #@! TF.FileFunction,Plated,1,4,PTH
FMAT,2
INCH
; #@! TA.AperFunction,Plated,PTH,ComponentDrill
T1C0.0118
; #@! TA.AperFunction,Plated,PTH,ComponentDrill
T2C0.0197
; #@! TA.AperFunction,Plated,PTH,ComponentDrill
T3C0.0315
; #@! TA.AperFunction,Plated,PTH,ComponentDrill
T4C0.0354
; #@! TA.AperFunction,Plated,PTH,ComponentDrill
T5C0.0394
; #@! TA.AperFunction,Plated,PTH,ComponentDrill
T6C0.0472
; #@! TA.AperFunction,Plated,PTH,ComponentDrill
T7C0.0551
; #@! TA.AperFunction,Plated,PTH,ComponentDrill
T8C0.0591
; #@! TA.AperFunction,Plated,PTH,ComponentDrill
T9C0.0669
; #@! TA.AperFunction,Plated,PTH,ComponentDrill
T10C0.1378
%
G90
G05
T1
X0.7047Y-0.8976
X0.7047Y-0.9409
X0.7047Y-0.9843
X0.7047Y-1.0276
X0.7047Y-1.0709
X0.748Y-0.8976
X0.748Y-0.9409
X0.748Y-0.9843
X0.748Y-1.0276
X0.748Y-1.0709
X0.7913Y-0.8976
X0.7913Y-0.9409
X0.7913Y-0.9843
X0.7913Y-1.0276
X0.7913Y-1.0709
X1.8071Y-0.8976
X1.8071Y-0.9409
X1.8071Y-0.9843
X1.8071Y-1.0276
X1.8071Y-1.0709
X1.8504Y-0.8976
X1.8504Y-0.9409
X1.8504Y-0.9843
X1.8504Y-1.0276
X1.8504Y-1.0709
X1.8937Y-0.8976
X1.8937Y-0.9409
X1.8937Y-0.9843
X1.8937Y-1.0276
X1.8937Y-1.0709
T2
X5.8415Y-0.748
X5.8718Y-0.675
X5.8718Y-0.8211
X5.9449Y-0.6447
X5.9449Y-0.8514
X6.018Y-0.675
X6.018Y-0.8211
X6.0482Y-0.748
T4
X1.4675Y-3.5646
X1.4675Y-3.6445
X1.5575Y-3.1146
X1.6075Y-3.2146
X1.6575Y-3.1146
X1.7075Y-3.2146
X1.7575Y-3.1146
X1.8075Y-3.2146
X1.8575Y-3.1146
X1.9075Y-3.2146
X1.997Y-3.5646
X1.997Y-3.6445
T5
X0.748Y-3.3465
X0.748Y-3.4465
X0.848Y-3.3465
X0.848Y-3.4465
X0.948Y-3.3465
X0.948Y-3.4465
X1.048Y-3.3465
X1.048Y-3.4465
X1.148Y-3.3465
X1.148Y-3.4465
X3.2087Y-3.1339
X3.2087Y-3.2323
X3.3071Y-3.1339
X3.3071Y-3.2323
X3.4055Y-3.1339
X3.4055Y-3.2323
X3.5039Y-2.1516
X3.5039Y-2.2516
X3.5039Y-2.3516
X3.5039Y-2.4516
X3.5039Y-2.5516
X3.5039Y-2.6516
T6
X3.1102Y-3.2323
X3.1102Y-3.626
X3.1102Y-3.7244
X3.3071Y-3.4291
X3.5039Y-3.2323
X3.5039Y-3.626
X3.5039Y-3.7244
T7
X2.4114Y-3.5433
X2.628Y-3.5433
T8
X0.5087Y-2.1047
X0.5087Y-2.3047
X0.7087Y-2.1047
X0.7087Y-2.3047
X0.9087Y-2.1047
X0.9087Y-2.3047
X1.5717Y-2.1047
X1.5717Y-2.3047
X1.7717Y-2.1047
X1.7717Y-2.3047
X1.9717Y-2.1047
X1.9717Y-2.3047
X5.2543Y-1.3961
X5.2543Y-1.5961
X5.3543Y-1.4961
X5.4543Y-1.3961
X5.4543Y-1.5961
X5.8449Y-0.1756
X5.8449Y-0.3756
X6.0449Y-0.1756
X6.0449Y-0.3756
T9
X1.4222Y-3.3445
X2.0423Y-3.3445
T10
X5.9449Y-0.748
T3
G00X3.1102Y-3.4449
M15
G01X3.1102Y-3.4134
M16
G05
G00X3.2087Y-3.4449
M15
G01X3.2087Y-3.4134
M16
G05
G00X3.2913Y-3.626
M15
G01X3.3228Y-3.626
M16
G05
G00X3.4055Y-3.4449
M15
G01X3.4055Y-3.4134
M16
G05
G00X3.5039Y-3.4449
M15
G01X3.5039Y-3.4134
M16
G05
T0
M30
