%TF.GenerationSoftware,KiCad,Pcbnew,6.0.1-79c1e3a40b~116~ubuntu18.04.1*%
%TF.CreationDate,2022-01-20T05:24:45+01:00*%
%TF.ProjectId,ss_mb_mockup,73735f6d-625f-46d6-9f63-6b75702e6b69,Rev0.1*%
%TF.SameCoordinates,PX42c1d80PY93d1cc0*%
%TF.FileFunction,Legend,Top*%
%TF.FilePolarity,Positive*%
%FSLAX46Y46*%
G04 Gerber Fmt 4.6, Leading zero omitted, Abs format (unit mm)*
G04 Created by KiCad (PCBNEW 6.0.1-79c1e3a40b~116~ubuntu18.04.1) date 2022-01-20 05:24:45*
%MOMM*%
%LPD*%
G01*
G04 APERTURE LIST*
%ADD10C,0.200000*%
%ADD11C,0.120000*%
%ADD12C,0.127000*%
%ADD13C,0.300000*%
G04 APERTURE END LIST*
D10*
X157000000Y0D02*
X157000000Y-93000000D01*
X3000000Y0D02*
X3000000Y-95000000D01*
X78785714Y-93910714D02*
X78928571Y-93970238D01*
X78976190Y-94029761D01*
X79023809Y-94148809D01*
X79023809Y-94327380D01*
X78976190Y-94446428D01*
X78928571Y-94505952D01*
X78833333Y-94565476D01*
X78452380Y-94565476D01*
X78452380Y-93315476D01*
X78785714Y-93315476D01*
X78880952Y-93375000D01*
X78928571Y-93434523D01*
X78976190Y-93553571D01*
X78976190Y-93672619D01*
X78928571Y-93791666D01*
X78880952Y-93851190D01*
X78785714Y-93910714D01*
X78452380Y-93910714D01*
X79880952Y-94565476D02*
X79880952Y-93910714D01*
X79833333Y-93791666D01*
X79738095Y-93732142D01*
X79547619Y-93732142D01*
X79452380Y-93791666D01*
X79880952Y-94505952D02*
X79785714Y-94565476D01*
X79547619Y-94565476D01*
X79452380Y-94505952D01*
X79404761Y-94386904D01*
X79404761Y-94267857D01*
X79452380Y-94148809D01*
X79547619Y-94089285D01*
X79785714Y-94089285D01*
X79880952Y-94029761D01*
X80785714Y-94505952D02*
X80690476Y-94565476D01*
X80500000Y-94565476D01*
X80404761Y-94505952D01*
X80357142Y-94446428D01*
X80309523Y-94327380D01*
X80309523Y-93970238D01*
X80357142Y-93851190D01*
X80404761Y-93791666D01*
X80500000Y-93732142D01*
X80690476Y-93732142D01*
X80785714Y-93791666D01*
X81214285Y-94565476D02*
X81214285Y-93315476D01*
X81309523Y-94089285D02*
X81595238Y-94565476D01*
X81595238Y-93732142D02*
X81214285Y-94208333D01*
D11*
%TO.C,C322*%
X53890000Y-79892164D02*
X53890000Y-80107836D01*
X54610000Y-79892164D02*
X54610000Y-80107836D01*
%TO.C,C323*%
X53590000Y-71590000D02*
X55940000Y-71590000D01*
X54654437Y-78410000D02*
X53590000Y-77345563D01*
X59345563Y-78410000D02*
X58060000Y-78410000D01*
X55152500Y-79437500D02*
X55152500Y-78650000D01*
X60410000Y-77345563D02*
X60410000Y-71590000D01*
X54758750Y-79043750D02*
X55546250Y-79043750D01*
X60410000Y-71590000D02*
X58060000Y-71590000D01*
X53590000Y-77345563D02*
X53590000Y-71590000D01*
X54654437Y-78410000D02*
X55940000Y-78410000D01*
X59345563Y-78410000D02*
X60410000Y-77345563D01*
%TO.C,D1005*%
X22490000Y-91120000D02*
X22490000Y-93550000D01*
X25560000Y-92880000D02*
X25560000Y-91120000D01*
%TO.C,U1003*%
X65510000Y-77880000D02*
X65510000Y-75450000D01*
X62440000Y-76120000D02*
X62440000Y-77880000D01*
%TO.C,U1801*%
X92560000Y-37000000D02*
X92560000Y-38950000D01*
X92560000Y-37000000D02*
X92560000Y-33550000D01*
X87440000Y-37000000D02*
X87440000Y-38950000D01*
X87440000Y-37000000D02*
X87440000Y-35050000D01*
%TO.C,U1802*%
X96440000Y-37000000D02*
X96440000Y-38950000D01*
X101560000Y-37000000D02*
X101560000Y-33550000D01*
X96440000Y-37000000D02*
X96440000Y-35050000D01*
X101560000Y-37000000D02*
X101560000Y-38950000D01*
D12*
%TO.C,J1008*%
X57450000Y-96550000D02*
X70550000Y-96550000D01*
X59700000Y-82550000D02*
X58300000Y-82550000D01*
X61300000Y-82550000D02*
X62200000Y-82550000D01*
X70550000Y-96550000D02*
X70550000Y-87950000D01*
X68400000Y-82550000D02*
X69700000Y-82550000D01*
X57450000Y-87950000D02*
X57450000Y-96550000D01*
X65900000Y-82550000D02*
X66700000Y-82550000D01*
X63800000Y-82550000D02*
X64200000Y-82550000D01*
D13*
X59500000Y-81350000D02*
G75*
G03*
X59500000Y-81350000I-150000J0D01*
G01*
D11*
%TO.C,C1012*%
X9892164Y-83640000D02*
X10107836Y-83640000D01*
X9892164Y-84360000D02*
X10107836Y-84360000D01*
%TO.C,J1009*%
X5330000Y-96600000D02*
X5330000Y-87910000D01*
X14070000Y-96600000D02*
X5330000Y-96600000D01*
X5330000Y-87910000D02*
X8430000Y-87910000D01*
X8430000Y-86620000D02*
X11570000Y-86620000D01*
X11570000Y-87910000D02*
X14070000Y-87910000D01*
X11570000Y-86620000D02*
X11570000Y-87910000D01*
X14070000Y-87910000D02*
X14070000Y-96600000D01*
X8430000Y-87910000D02*
X8430000Y-86620000D01*
D13*
X12641421Y-87000000D02*
G75*
G03*
X12641421Y-87000000I-141421J0D01*
G01*
D11*
%TO.C,D2202*%
X134240000Y-31580000D02*
X134240000Y-30650000D01*
X134240000Y-28420000D02*
X134240000Y-29350000D01*
X134240000Y-31580000D02*
X136400000Y-31580000D01*
X134240000Y-28420000D02*
X135700000Y-28420000D01*
%TO.C,C1007*%
X17360000Y-86607836D02*
X17360000Y-86392164D01*
X16640000Y-86607836D02*
X16640000Y-86392164D01*
%TO.C,C1011*%
X21140000Y-92107836D02*
X21140000Y-91892164D01*
X21860000Y-92107836D02*
X21860000Y-91892164D01*
%TO.C,C1009*%
X61140000Y-76892164D02*
X61140000Y-77107836D01*
X61860000Y-76892164D02*
X61860000Y-77107836D01*
%TO.C,R309*%
X50346359Y-75620000D02*
X50653641Y-75620000D01*
X50346359Y-76380000D02*
X50653641Y-76380000D01*
%TO.C,C321*%
X50372164Y-80640000D02*
X50587836Y-80640000D01*
X50372164Y-81360000D02*
X50587836Y-81360000D01*
%TO.C,U305*%
X50370000Y-80010000D02*
X52800000Y-80010000D01*
X52130000Y-76940000D02*
X50370000Y-76940000D01*
%TO.C,R2102*%
X87130000Y-58403641D02*
X87130000Y-58096359D01*
X86370000Y-58403641D02*
X86370000Y-58096359D01*
%TO.C,R1010*%
X14653641Y-78620000D02*
X14346359Y-78620000D01*
X14653641Y-79380000D02*
X14346359Y-79380000D01*
%TD*%
M02*
