%TF.GenerationSoftware,KiCad,Pcbnew,6.0.1-79c1e3a40b~116~ubuntu18.04.1*%
%TF.CreationDate,2022-01-20T05:24:45+01:00*%
%TF.ProjectId,ss_mb_mockup,73735f6d-625f-46d6-9f63-6b75702e6b69,Rev0.1*%
%TF.SameCoordinates,PX42c1d80PY93d1cc0*%
%TF.FileFunction,Soldermask,Bot*%
%TF.FilePolarity,Negative*%
%FSLAX46Y46*%
G04 Gerber Fmt 4.6, Leading zero omitted, Abs format (unit mm)*
G04 Created by KiCad (PCBNEW 6.0.1-79c1e3a40b~116~ubuntu18.04.1) date 2022-01-20 05:24:45*
%MOMM*%
%LPD*%
G01*
G04 APERTURE LIST*
G04 Aperture macros list*
%AMRoundRect*
0 Rectangle with rounded corners*
0 $1 Rounding radius*
0 $2 $3 $4 $5 $6 $7 $8 $9 X,Y pos of 4 corners*
0 Add a 4 corners polygon primitive as box body*
4,1,4,$2,$3,$4,$5,$6,$7,$8,$9,$2,$3,0*
0 Add four circle primitives for the rounded corners*
1,1,$1+$1,$2,$3*
1,1,$1+$1,$4,$5*
1,1,$1+$1,$6,$7*
1,1,$1+$1,$8,$9*
0 Add four rect primitives between the rounded corners*
20,1,$1+$1,$2,$3,$4,$5,0*
20,1,$1+$1,$4,$5,$6,$7,0*
20,1,$1+$1,$6,$7,$8,$9,0*
20,1,$1+$1,$8,$9,$2,$3,0*%
G04 Aperture macros list end*
%ADD10C,1.300000*%
%ADD11C,0.800000*%
%ADD12C,7.000000*%
%ADD13C,1.600000*%
%ADD14RoundRect,0.140000X-0.170000X0.140000X-0.170000X-0.140000X0.170000X-0.140000X0.170000X0.140000X0*%
%ADD15C,3.200000*%
%ADD16R,1.300000X1.300000*%
%ADD17C,2.000000*%
%ADD18RoundRect,0.250000X-0.625000X0.375000X-0.625000X-0.375000X0.625000X-0.375000X0.625000X0.375000X0*%
%ADD19RoundRect,0.250000X0.625000X-0.375000X0.625000X0.375000X-0.625000X0.375000X-0.625000X-0.375000X0*%
%ADD20R,2.200000X1.400000*%
%ADD21RoundRect,0.075000X0.075000X-0.662500X0.075000X0.662500X-0.075000X0.662500X-0.075000X-0.662500X0*%
%ADD22RoundRect,0.075000X0.662500X-0.075000X0.662500X0.075000X-0.662500X0.075000X-0.662500X-0.075000X0*%
%ADD23R,1.500000X0.400000*%
%ADD24R,0.650000X1.220000*%
%ADD25RoundRect,0.075000X-0.650000X-0.075000X0.650000X-0.075000X0.650000X0.075000X-0.650000X0.075000X0*%
%ADD26RoundRect,0.075000X0.650000X0.075000X-0.650000X0.075000X-0.650000X-0.075000X0.650000X-0.075000X0*%
%ADD27R,1.150000X1.400000*%
%ADD28C,1.700000*%
%ADD29RoundRect,0.005000X-0.350000X1.700000X-0.350000X-1.700000X0.350000X-1.700000X0.350000X1.700000X0*%
%ADD30RoundRect,0.005000X-1.700000X3.050000X-1.700000X-3.050000X1.700000X-3.050000X1.700000X3.050000X0*%
%ADD31RoundRect,0.250000X-0.600000X0.600000X-0.600000X-0.600000X0.600000X-0.600000X0.600000X0.600000X0*%
%ADD32RoundRect,0.135000X-0.185000X0.135000X-0.185000X-0.135000X0.185000X-0.135000X0.185000X0.135000X0*%
%ADD33R,0.600000X0.700000*%
%ADD34C,3.100000*%
%ADD35C,1.500000*%
%ADD36RoundRect,0.600000X-0.400000X0.000000X0.400000X0.000000X0.400000X0.000000X-0.400000X0.000000X0*%
%ADD37RoundRect,0.600000X0.000000X-0.400000X0.000000X0.400000X0.000000X0.400000X0.000000X-0.400000X0*%
%ADD38C,2.250000*%
%ADD39RoundRect,0.135000X0.135000X0.185000X-0.135000X0.185000X-0.135000X-0.185000X0.135000X-0.185000X0*%
%ADD40RoundRect,0.140000X0.170000X-0.140000X0.170000X0.140000X-0.170000X0.140000X-0.170000X-0.140000X0*%
%ADD41RoundRect,0.147500X-0.172500X0.147500X-0.172500X-0.147500X0.172500X-0.147500X0.172500X0.147500X0*%
%ADD42R,3.000000X3.000000*%
%ADD43R,1.050000X0.450000*%
%ADD44C,3.000000*%
%ADD45RoundRect,0.400000X1.000000X0.400000X-1.000000X0.400000X-1.000000X-0.400000X1.000000X-0.400000X0*%
%ADD46O,2.400000X1.600000*%
%ADD47RoundRect,0.135000X-0.135000X-0.185000X0.135000X-0.185000X0.135000X0.185000X-0.135000X0.185000X0*%
G04 APERTURE END LIST*
D10*
%TO.C,J1008*%
X66500000Y-86650000D03*
X61500000Y-86650000D03*
%TD*%
D11*
%TO.C,H301*%
X152856155Y-20856155D03*
X151000000Y-21625000D03*
X152856155Y-17143845D03*
D12*
X151000000Y-19000000D03*
D11*
X149143845Y-17143845D03*
X151000000Y-16375000D03*
X148375000Y-19000000D03*
X153625000Y-19000000D03*
X149143845Y-20856155D03*
%TD*%
D13*
%TO.C,J1011*%
X3500000Y-74500000D03*
X10500000Y-74500000D03*
%TD*%
D14*
%TO.C,C210*%
X70000000Y-51520000D03*
X70000000Y-52480000D03*
%TD*%
%TO.C,C1010*%
X21800000Y-78220000D03*
X21800000Y-79180000D03*
%TD*%
D15*
%TO.C,J201*%
X49715000Y-88000000D03*
X38285000Y-88000000D03*
D16*
X39560000Y-79110000D03*
D10*
X40830000Y-81650000D03*
X42100000Y-79110000D03*
X43370000Y-81650000D03*
X44640000Y-79110000D03*
X45910000Y-81650000D03*
X47180000Y-79110000D03*
X48450000Y-81650000D03*
X37275000Y-90540000D03*
X37275000Y-92570000D03*
X50725000Y-90540000D03*
X50725000Y-92570000D03*
D17*
X36125000Y-84950000D03*
X51875000Y-84950000D03*
%TD*%
D18*
%TO.C,R1212*%
X17000000Y-33600000D03*
X17000000Y-36400000D03*
%TD*%
D19*
%TO.C,R1505*%
X49000000Y-36400000D03*
X49000000Y-33600000D03*
%TD*%
D18*
%TO.C,R1512*%
X45000000Y-33600000D03*
X45000000Y-36400000D03*
%TD*%
D20*
%TO.C,SW2001*%
X4340000Y-76750000D03*
X13140000Y-76750000D03*
X4340000Y-81250000D03*
X13140000Y-81250000D03*
%TD*%
D21*
%TO.C,U201*%
X63750000Y-65162500D03*
X63250000Y-65162500D03*
X62750000Y-65162500D03*
X62250000Y-65162500D03*
X61750000Y-65162500D03*
X61250000Y-65162500D03*
X60750000Y-65162500D03*
X60250000Y-65162500D03*
X59750000Y-65162500D03*
X59250000Y-65162500D03*
X58750000Y-65162500D03*
X58250000Y-65162500D03*
D22*
X56837500Y-63750000D03*
X56837500Y-63250000D03*
X56837500Y-62750000D03*
X56837500Y-62250000D03*
X56837500Y-61750000D03*
X56837500Y-61250000D03*
X56837500Y-60750000D03*
X56837500Y-60250000D03*
X56837500Y-59750000D03*
X56837500Y-59250000D03*
X56837500Y-58750000D03*
X56837500Y-58250000D03*
D21*
X58250000Y-56837500D03*
X58750000Y-56837500D03*
X59250000Y-56837500D03*
X59750000Y-56837500D03*
X60250000Y-56837500D03*
X60750000Y-56837500D03*
X61250000Y-56837500D03*
X61750000Y-56837500D03*
X62250000Y-56837500D03*
X62750000Y-56837500D03*
X63250000Y-56837500D03*
X63750000Y-56837500D03*
D22*
X65162500Y-58250000D03*
X65162500Y-58750000D03*
X65162500Y-59250000D03*
X65162500Y-59750000D03*
X65162500Y-60250000D03*
X65162500Y-60750000D03*
X65162500Y-61250000D03*
X65162500Y-61750000D03*
X65162500Y-62250000D03*
X65162500Y-62750000D03*
X65162500Y-63250000D03*
X65162500Y-63750000D03*
%TD*%
D23*
%TO.C,U202*%
X68330000Y-51350000D03*
X68330000Y-52000000D03*
X68330000Y-52650000D03*
X65670000Y-52650000D03*
X65670000Y-51350000D03*
%TD*%
D24*
%TO.C,U1001*%
X64300000Y-76000000D03*
X65250000Y-76000000D03*
X66200000Y-76000000D03*
X66200000Y-78620000D03*
X65250000Y-78620000D03*
X64300000Y-78620000D03*
%TD*%
D25*
%TO.C,U1202*%
X24800000Y-36000000D03*
X24800000Y-35500000D03*
X24800000Y-35000000D03*
X24800000Y-34500000D03*
X24800000Y-34000000D03*
X29200000Y-34000000D03*
X29200000Y-34500000D03*
X29200000Y-35000000D03*
X29200000Y-35500000D03*
X29200000Y-36000000D03*
%TD*%
D26*
%TO.C,U1204*%
X13200000Y-34000000D03*
X13200000Y-34500000D03*
X13200000Y-35000000D03*
X13200000Y-35500000D03*
X13200000Y-36000000D03*
X8800000Y-36000000D03*
X8800000Y-35500000D03*
X8800000Y-35000000D03*
X8800000Y-34500000D03*
X8800000Y-34000000D03*
%TD*%
D25*
%TO.C,U1502*%
X52800000Y-36000000D03*
X52800000Y-35500000D03*
X52800000Y-35000000D03*
X52800000Y-34500000D03*
X52800000Y-34000000D03*
X57200000Y-34000000D03*
X57200000Y-34500000D03*
X57200000Y-35000000D03*
X57200000Y-35500000D03*
X57200000Y-36000000D03*
%TD*%
D26*
%TO.C,U1504*%
X41200000Y-34000000D03*
X41200000Y-34500000D03*
X41200000Y-35000000D03*
X41200000Y-35500000D03*
X41200000Y-36000000D03*
X36800000Y-36000000D03*
X36800000Y-35500000D03*
X36800000Y-35000000D03*
X36800000Y-34500000D03*
X36800000Y-34000000D03*
%TD*%
D27*
%TO.C,Y201*%
X70800000Y-57900000D03*
X70800000Y-60100000D03*
X69200000Y-60100000D03*
X69200000Y-57900000D03*
%TD*%
D28*
%TO.C,J1006*%
X66750000Y-90000000D03*
X61250000Y-90000000D03*
D29*
X62125000Y-82800000D03*
X64625000Y-82800000D03*
X65875000Y-82800000D03*
X63375000Y-82800000D03*
D30*
X57080000Y-89420000D03*
X70920000Y-89420000D03*
%TD*%
D31*
%TO.C,J1007*%
X19000000Y-85000000D03*
D28*
X19000000Y-87540000D03*
X21540000Y-85000000D03*
X21540000Y-87540000D03*
X24080000Y-85000000D03*
X24080000Y-87540000D03*
X26620000Y-85000000D03*
X26620000Y-87540000D03*
X29160000Y-85000000D03*
X29160000Y-87540000D03*
%TD*%
D32*
%TO.C,R1007*%
X28500000Y-78990000D03*
X28500000Y-80010000D03*
%TD*%
D33*
%TO.C,D1004*%
X23700000Y-82000000D03*
X22300000Y-82000000D03*
%TD*%
D34*
%TO.C,J303*%
X148460000Y-9540000D03*
X153540000Y-9540000D03*
X153540000Y-4460000D03*
X148460000Y-4460000D03*
%TD*%
D35*
%TO.C,J1001*%
X84000000Y-87100000D03*
X79000000Y-82100000D03*
X89000000Y-94600000D03*
X79000000Y-92100000D03*
X89000000Y-82100000D03*
X79000000Y-94600000D03*
X89000000Y-92100000D03*
D36*
X84000000Y-92100000D03*
D37*
X79000000Y-87100000D03*
X89000000Y-87100000D03*
D35*
X86500000Y-82100000D03*
X84000000Y-82100000D03*
X81500000Y-82100000D03*
X86500000Y-79600000D03*
X84000000Y-79600000D03*
X81500000Y-79600000D03*
D37*
X81500000Y-87100000D03*
X86500000Y-87100000D03*
%TD*%
D34*
%TO.C,J1002*%
X12920000Y-58540000D03*
X12920000Y-53460000D03*
X18000000Y-58540000D03*
X18000000Y-53460000D03*
X23080000Y-58540000D03*
X23080000Y-53460000D03*
%TD*%
%TO.C,J1003*%
X39920000Y-58540000D03*
X39920000Y-53460000D03*
X45000000Y-58540000D03*
X45000000Y-53460000D03*
X50080000Y-53460000D03*
X50080000Y-58540000D03*
%TD*%
D38*
%TO.C,J2203*%
X136000000Y-38000000D03*
X138540000Y-40540000D03*
X133460000Y-35460000D03*
X138540000Y-35460000D03*
X133460000Y-40540000D03*
%TD*%
D19*
%TO.C,R1205*%
X21000000Y-36400000D03*
X21000000Y-33600000D03*
%TD*%
D39*
%TO.C,R1008*%
X26510000Y-82000000D03*
X25490000Y-82000000D03*
%TD*%
D23*
%TO.C,U1002*%
X23670000Y-80150000D03*
X23670000Y-79500000D03*
X23670000Y-78850000D03*
X26330000Y-78850000D03*
X26330000Y-79500000D03*
X26330000Y-80150000D03*
%TD*%
D14*
%TO.C,C1004*%
X62000000Y-76520000D03*
X62000000Y-77480000D03*
%TD*%
D40*
%TO.C,C1008*%
X17000000Y-86980000D03*
X17000000Y-86020000D03*
%TD*%
D41*
%TO.C,R210*%
X67000000Y-57515000D03*
X67000000Y-58485000D03*
%TD*%
D42*
%TO.C,U1503*%
X47000000Y-25000000D03*
D43*
X49775000Y-22725000D03*
X49775000Y-23375000D03*
X49775000Y-24025000D03*
X49775000Y-24675000D03*
X49775000Y-25325000D03*
X49775000Y-25975000D03*
X49775000Y-26625000D03*
X49775000Y-27275000D03*
X44225000Y-27275000D03*
X44225000Y-26625000D03*
X44225000Y-25975000D03*
X44225000Y-25325000D03*
X44225000Y-24675000D03*
X44225000Y-24025000D03*
X44225000Y-23375000D03*
X44225000Y-22725000D03*
%TD*%
D42*
%TO.C,U1203*%
X19000000Y-25000000D03*
D43*
X21775000Y-22725000D03*
X21775000Y-23375000D03*
X21775000Y-24025000D03*
X21775000Y-24675000D03*
X21775000Y-25325000D03*
X21775000Y-25975000D03*
X21775000Y-26625000D03*
X21775000Y-27275000D03*
X16225000Y-27275000D03*
X16225000Y-26625000D03*
X16225000Y-25975000D03*
X16225000Y-25325000D03*
X16225000Y-24675000D03*
X16225000Y-24025000D03*
X16225000Y-23375000D03*
X16225000Y-22725000D03*
%TD*%
D20*
%TO.C,SW2002*%
X4340000Y-66750000D03*
X13140000Y-66750000D03*
X4340000Y-71250000D03*
X13140000Y-71250000D03*
%TD*%
D40*
%TO.C,C2101*%
X86750000Y-66480000D03*
X86750000Y-65520000D03*
%TD*%
D44*
%TO.C,RTC2101*%
X57250000Y-51475000D03*
X83920000Y-51475000D03*
X83920000Y-70525000D03*
D45*
X89000000Y-54650000D03*
D46*
X89000000Y-57190000D03*
X89000000Y-59730000D03*
X89000000Y-62270000D03*
X89000000Y-64810000D03*
X89000000Y-67350000D03*
%TD*%
D47*
%TO.C,R1009*%
X21090000Y-80700000D03*
X22110000Y-80700000D03*
%TD*%
M02*
