%TF.GenerationSoftware,KiCad,Pcbnew,6.0.1-79c1e3a40b~116~ubuntu18.04.1*%
%TF.CreationDate,2022-01-20T05:24:45+01:00*%
%TF.ProjectId,ss_mb_mockup,73735f6d-625f-46d6-9f63-6b75702e6b69,Rev0.1*%
%TF.SameCoordinates,PX42c1d80PY93d1cc0*%
%TF.FileFunction,Legend,Bot*%
%TF.FilePolarity,Positive*%
%FSLAX46Y46*%
G04 Gerber Fmt 4.6, Leading zero omitted, Abs format (unit mm)*
G04 Created by KiCad (PCBNEW 6.0.1-79c1e3a40b~116~ubuntu18.04.1) date 2022-01-20 05:24:45*
%MOMM*%
%LPD*%
G01*
G04 APERTURE LIST*
%ADD10C,0.200000*%
%ADD11C,0.120000*%
%ADD12C,0.100000*%
%ADD13C,0.400000*%
%ADD14C,0.150000*%
G04 APERTURE END LIST*
D10*
X157000000Y0D02*
X157000000Y-93000000D01*
X3000000Y0D02*
X3000000Y-95000000D01*
D11*
%TO.C,C210*%
X69640000Y-51892164D02*
X69640000Y-52107836D01*
X70360000Y-51892164D02*
X70360000Y-52107836D01*
%TO.C,C1010*%
X21440000Y-78592164D02*
X21440000Y-78807836D01*
X22160000Y-78592164D02*
X22160000Y-78807836D01*
D12*
%TO.C,J201*%
X38666000Y-79110000D02*
X37904000Y-78856000D01*
X37904000Y-78856000D02*
X37904000Y-79364000D01*
X37904000Y-79364000D02*
X38666000Y-79110000D01*
G36*
X38666000Y-79110000D02*
G01*
X37904000Y-79364000D01*
X37904000Y-78856000D01*
X38666000Y-79110000D01*
G37*
X38666000Y-79110000D02*
X37904000Y-79364000D01*
X37904000Y-78856000D01*
X38666000Y-79110000D01*
D11*
%TO.C,R1212*%
X17910000Y-34397936D02*
X17910000Y-35602064D01*
X16090000Y-34397936D02*
X16090000Y-35602064D01*
%TO.C,R1505*%
X48090000Y-35602064D02*
X48090000Y-34397936D01*
X49910000Y-35602064D02*
X49910000Y-34397936D01*
%TO.C,R1512*%
X44090000Y-34397936D02*
X44090000Y-35602064D01*
X45910000Y-34397936D02*
X45910000Y-35602064D01*
%TO.C,SW2001*%
X5740000Y-76000000D02*
X5740000Y-82000000D01*
X11740000Y-76000000D02*
X5740000Y-76000000D01*
X5740000Y-82000000D02*
X11740000Y-82000000D01*
X11740000Y-82000000D02*
X11740000Y-76000000D01*
%TO.C,U201*%
X57390000Y-57840000D02*
X57390000Y-57390000D01*
X57390000Y-57390000D02*
X57840000Y-57390000D01*
X57390000Y-64610000D02*
X57840000Y-64610000D01*
X64610000Y-57840000D02*
X64610000Y-57390000D01*
X64610000Y-64610000D02*
X64160000Y-64610000D01*
X64610000Y-57390000D02*
X64160000Y-57390000D01*
X64610000Y-64160000D02*
X64610000Y-64610000D01*
X57390000Y-64160000D02*
X57390000Y-64610000D01*
X64160000Y-64610000D02*
X64160000Y-65900000D01*
%TO.C,U202*%
X67700000Y-53160000D02*
X66300000Y-53160000D01*
X66300000Y-50840000D02*
X68200000Y-50840000D01*
%TO.C,U1001*%
X66810000Y-76430000D02*
X66810000Y-78190000D01*
X63740000Y-78190000D02*
X63740000Y-75760000D01*
%TO.C,U1202*%
X27000000Y-33390000D02*
X28500000Y-33390000D01*
X27000000Y-33390000D02*
X25500000Y-33390000D01*
X27000000Y-36610000D02*
X28500000Y-36610000D01*
X27000000Y-36610000D02*
X24075000Y-36610000D01*
%TO.C,U1204*%
X11000000Y-33390000D02*
X9500000Y-33390000D01*
X11000000Y-36610000D02*
X12500000Y-36610000D01*
X11000000Y-33390000D02*
X13925000Y-33390000D01*
X11000000Y-36610000D02*
X9500000Y-36610000D01*
%TO.C,U1502*%
X55000000Y-33390000D02*
X56500000Y-33390000D01*
X55000000Y-33390000D02*
X53500000Y-33390000D01*
X55000000Y-36610000D02*
X56500000Y-36610000D01*
X55000000Y-36610000D02*
X52075000Y-36610000D01*
%TO.C,U1504*%
X39000000Y-33390000D02*
X37500000Y-33390000D01*
X39000000Y-33390000D02*
X41925000Y-33390000D01*
X39000000Y-36610000D02*
X40500000Y-36610000D01*
X39000000Y-36610000D02*
X37500000Y-36610000D01*
%TO.C,Y201*%
X71575000Y-57000000D02*
X71575000Y-61000000D01*
X68425000Y-57000000D02*
X71575000Y-57000000D01*
D10*
%TO.C,J1006*%
X70000000Y-83000000D02*
X70000000Y-84000000D01*
X58000000Y-83000000D02*
X59000000Y-83000000D01*
X58000000Y-84000000D02*
X58000000Y-83000000D01*
X69000000Y-83000000D02*
X70000000Y-83000000D01*
D13*
X61200000Y-84000000D02*
G75*
G03*
X61200000Y-84000000I-200000J0D01*
G01*
D11*
%TO.C,J1007*%
X19000000Y-83650000D02*
X18500000Y-82650000D01*
X13790000Y-98390000D02*
X34370000Y-98390000D01*
X34370000Y-98390000D02*
X34370000Y-89270000D01*
X19500000Y-82650000D02*
X19000000Y-83650000D01*
X18500000Y-82650000D02*
X19500000Y-82650000D01*
X34370000Y-89270000D02*
X13790000Y-89270000D01*
X22030000Y-89270000D02*
X22030000Y-98390000D01*
X26130000Y-89270000D02*
X26130000Y-98390000D01*
X13790000Y-89270000D02*
X13790000Y-98390000D01*
%TO.C,R1007*%
X28880000Y-79346359D02*
X28880000Y-79653641D01*
X28120000Y-79346359D02*
X28120000Y-79653641D01*
%TO.C,D1004*%
X23250000Y-81750000D02*
X23250000Y-82250000D01*
D10*
%TO.C,J303*%
X146750000Y-2500000D02*
X146750000Y-11500000D01*
X155250000Y-10750000D02*
X154250000Y-11500000D01*
X155250000Y-2500000D02*
X146750000Y-2500000D01*
X146750000Y-11500000D02*
X154250000Y-11500000D01*
X155250000Y-10750000D02*
X155250000Y-2500000D01*
X155350000Y-11500000D02*
G75*
G03*
X155350000Y-11500000I-100000J0D01*
G01*
%TO.C,J1001*%
X78000000Y-95600000D02*
X81000000Y-95600000D01*
X78000000Y-94600000D02*
X78000000Y-95600000D01*
X90000000Y-95600000D02*
X90000000Y-94600000D01*
X81000000Y-96100000D02*
X81000000Y-95600000D01*
X87000000Y-95600000D02*
X90000000Y-95600000D01*
X87000000Y-95600000D02*
X87000000Y-96100000D01*
%TO.C,J1002*%
X25540000Y-51750000D02*
X10540000Y-51750000D01*
X10540000Y-51750000D02*
X10540000Y-59250000D01*
X11290000Y-60250000D02*
X25540000Y-60250000D01*
X25540000Y-60250000D02*
X25540000Y-51750000D01*
X11290000Y-60250000D02*
X10540000Y-59250000D01*
X10640000Y-60250000D02*
G75*
G03*
X10640000Y-60250000I-100000J0D01*
G01*
%TO.C,J1003*%
X38290000Y-60250000D02*
X37540000Y-59250000D01*
X52540000Y-51750000D02*
X37540000Y-51750000D01*
X38290000Y-60250000D02*
X52540000Y-60250000D01*
X37540000Y-51750000D02*
X37540000Y-59250000D01*
X52540000Y-60250000D02*
X52540000Y-51750000D01*
X37640000Y-60250000D02*
G75*
G03*
X37640000Y-60250000I-100000J0D01*
G01*
D11*
%TO.C,J2203*%
X137300000Y-41200000D02*
X134700000Y-41200000D01*
X139600000Y-36400000D02*
X139600000Y-39600000D01*
X137800000Y-34320000D02*
X134200000Y-34320000D01*
X132400000Y-36400000D02*
X132400000Y-39600000D01*
%TO.C,R1205*%
X21910000Y-35602064D02*
X21910000Y-34397936D01*
X20090000Y-35602064D02*
X20090000Y-34397936D01*
%TO.C,R1008*%
X26153641Y-82380000D02*
X25846359Y-82380000D01*
X26153641Y-81620000D02*
X25846359Y-81620000D01*
%TO.C,U1002*%
X24300000Y-78340000D02*
X25700000Y-78340000D01*
X25700000Y-80660000D02*
X23800000Y-80660000D01*
%TO.C,C1004*%
X62360000Y-76892164D02*
X62360000Y-77107836D01*
X61640000Y-76892164D02*
X61640000Y-77107836D01*
%TO.C,C1008*%
X17360000Y-86607836D02*
X17360000Y-86392164D01*
X16640000Y-86607836D02*
X16640000Y-86392164D01*
D14*
%TO.C,U1503*%
X49250000Y-27725000D02*
X44750000Y-27725000D01*
X50375000Y-22175000D02*
X44750000Y-22175000D01*
%TO.C,U1203*%
X21250000Y-27725000D02*
X16750000Y-27725000D01*
X22375000Y-22175000D02*
X16750000Y-22175000D01*
D11*
%TO.C,SW2002*%
X5740000Y-72000000D02*
X11740000Y-72000000D01*
X5740000Y-66000000D02*
X5740000Y-72000000D01*
X11740000Y-66000000D02*
X5740000Y-66000000D01*
X11740000Y-72000000D02*
X11740000Y-66000000D01*
%TO.C,C2101*%
X87110000Y-66107836D02*
X87110000Y-65892164D01*
X86390000Y-66107836D02*
X86390000Y-65892164D01*
%TO.C,R1009*%
X21446359Y-81080000D02*
X21753641Y-81080000D01*
X21446359Y-80320000D02*
X21753641Y-80320000D01*
%TD*%
M02*
