  0
SECTION
  2
HEADER
  9
$ANGBASE
  50
0.0
  9
$ANGDIR
  70
1
  9
$MEASUREMENT
  70
1
  0
ENDSEC
  0
SECTION
  2
TABLES
  0
TABLE
  2
LTYPE
  70
4
  0
LTYPE
  5
40F
  2
CONTINUOUS
  70
0
  3
Solid line
  72
65
  73
0
  40
0.0
  0
LTYPE
  5
410
  2
DASHDOT
 70
0
  3
Dash Dot ____ _ ____ _
 72
65
 73
4
 40
2.0
 49
1.25
 49
-0.25
 49
0.25
 49
-0.25
  0
LTYPE
  5
411
  2
DASHED
 70
0
  3
Dashed __ __ __ __ __
 72
65
 73
2
 40
0.75
 49
0.5
 49
-0.25
  0
LTYPE
  5
43B
  2
DOTTED
 70
0
  3
Dotted .  .  .  .
 72
65
 73
2
 40
0.2
 49
0.0
 49
-0.2
  0
ENDTAB
  0
TABLE
  2
STYLE
  70
4
  0
STYLE
  2
KICAD
  70
0
  40
0
  41
1
  42
1
  50
0
  71
0
  3
isocp.shx
  0
STYLE
  2
KICADB
  70
0
  40
0
  41
1
  42
1
  50
0
  71
0
  3
isocp.shx
  0
STYLE
  2
KICADI
  70
0
  40
0
  41
1
  42
1
  50
15
  71
0
  3
isocp.shx
  0
STYLE
  2
KICADBI
  70
0
  40
0
  41
1
  42
1
  50
15
  71
0
  3
isocp.shx
  0
ENDTAB
  0
TABLE
  2
LAYER
  70
1
  0
LAYER
  2
BLACK
  70
0
  62
7
  6
CONTINUOUS
  0
ENDTAB
  0
ENDSEC
  0
SECTION
  2
ENTITIES
0
LINE
8
BLACK
6
CONTINUOUS
10
18.6476
20
-9.08743
11
18.63
21
-9.045
0
LINE
8
BLACK
6
CONTINUOUS
10
18.63
20
-9.045
11
18.63
21
-6.385
0
LINE
8
BLACK
6
CONTINUOUS
10
18.63
20
-6.385
11
18.6476
21
-6.34257
0
LINE
8
BLACK
6
CONTINUOUS
10
18.6476
20
-6.34257
11
18.69
21
-6.325
0
LINE
8
BLACK
6
CONTINUOUS
10
18.69
20
-6.325
11
21.29
21
-6.325
0
LINE
8
BLACK
6
CONTINUOUS
10
21.29
20
-6.325
11
21.3324
21
-6.34257
0
LINE
8
BLACK
6
CONTINUOUS
10
21.3324
20
-6.34257
11
21.35
21
-6.385
0
LINE
8
BLACK
6
CONTINUOUS
10
21.35
20
-6.385
11
21.35
21
-9.045
0
LINE
8
BLACK
6
CONTINUOUS
10
21.35
20
-9.045
11
21.3324
21
-9.08743
0
LINE
8
BLACK
6
CONTINUOUS
10
21.3324
20
-9.08743
11
21.29
21
-9.105
0
LINE
8
BLACK
6
CONTINUOUS
10
21.29
20
-9.105
11
18.69
21
-9.105
0
LINE
8
BLACK
6
CONTINUOUS
10
18.69
20
-9.105
11
18.6476
21
-9.08743
0
LINE
8
BLACK
6
CONTINUOUS
10
18.75
20
-6.445
11
18.75
21
-8.985
0
LINE
8
BLACK
6
CONTINUOUS
10
18.75
20
-8.985
11
21.23
21
-8.985
0
LINE
8
BLACK
6
CONTINUOUS
10
21.23
20
-8.985
11
21.23
21
-6.445
0
LINE
8
BLACK
6
CONTINUOUS
10
21.23
20
-6.445
11
18.75
21
-6.445
0
LINE
8
BLACK
6
CONTINUOUS
10
0.867574
20
-9.08743
11
0.85
21
-9.045
0
LINE
8
BLACK
6
CONTINUOUS
10
0.85
20
-9.045
11
0.85
21
-6.385
0
LINE
8
BLACK
6
CONTINUOUS
10
0.85
20
-6.385
11
0.867574
21
-6.34257
0
LINE
8
BLACK
6
CONTINUOUS
10
0.867574
20
-6.34257
11
0.91
21
-6.325
0
LINE
8
BLACK
6
CONTINUOUS
10
0.91
20
-6.325
11
8.59
21
-6.325
0
LINE
8
BLACK
6
CONTINUOUS
10
8.59
20
-6.325
11
8.63243
21
-6.34257
0
LINE
8
BLACK
6
CONTINUOUS
10
8.63243
20
-6.34257
11
8.65
21
-6.385
0
LINE
8
BLACK
6
CONTINUOUS
10
8.65
20
-6.385
11
8.65
21
-9.045
0
LINE
8
BLACK
6
CONTINUOUS
10
8.65
20
-9.045
11
8.63243
21
-9.08743
0
LINE
8
BLACK
6
CONTINUOUS
10
8.63243
20
-9.08743
11
8.59
21
-9.105
0
LINE
8
BLACK
6
CONTINUOUS
10
8.59
20
-9.105
11
0.91
21
-9.105
0
LINE
8
BLACK
6
CONTINUOUS
10
0.91
20
-9.105
11
0.867574
21
-9.08743
0
LINE
8
BLACK
6
CONTINUOUS
10
0.97
20
-6.445
11
0.97
21
-8.985
0
LINE
8
BLACK
6
CONTINUOUS
10
0.97
20
-8.985
11
8.53
21
-8.985
0
LINE
8
BLACK
6
CONTINUOUS
10
8.53
20
-8.985
11
8.53
21
-6.445
0
LINE
8
BLACK
6
CONTINUOUS
10
8.53
20
-6.445
11
0.97
21
-6.445
0
LINE
8
BLACK
6
CONTINUOUS
10
23.9324
20
-6.34257
11
23.95
21
-6.385
0
LINE
8
BLACK
6
CONTINUOUS
10
23.95
20
-6.385
11
23.95
21
-7.715
0
LINE
8
BLACK
6
CONTINUOUS
10
23.95
20
-7.715
11
23.9324
21
-7.75743
0
LINE
8
BLACK
6
CONTINUOUS
10
23.9324
20
-7.75743
11
23.89
21
-7.775
0
LINE
8
BLACK
6
CONTINUOUS
10
23.89
20
-7.775
11
23.8476
21
-7.75743
0
LINE
8
BLACK
6
CONTINUOUS
10
23.8476
20
-7.75743
11
23.83
21
-7.715
0
LINE
8
BLACK
6
CONTINUOUS
10
23.83
20
-7.715
11
23.83
21
-6.445
0
LINE
8
BLACK
6
CONTINUOUS
10
23.83
20
-6.445
11
22.56
21
-6.445
0
LINE
8
BLACK
6
CONTINUOUS
10
22.56
20
-6.445
11
22.5176
21
-6.42743
0
LINE
8
BLACK
6
CONTINUOUS
10
22.5176
20
-6.42743
11
22.5
21
-6.385
0
LINE
8
BLACK
6
CONTINUOUS
10
22.5
20
-6.385
11
22.5176
21
-6.34257
0
LINE
8
BLACK
6
CONTINUOUS
10
22.5176
20
-6.34257
11
22.56
21
-6.325
0
LINE
8
BLACK
6
CONTINUOUS
10
22.56
20
-6.325
11
23.89
21
-6.325
0
LINE
8
BLACK
6
CONTINUOUS
10
23.89
20
-6.325
11
23.9324
21
-6.34257
0
LINE
8
BLACK
6
CONTINUOUS
10
11.2324
20
-6.34257
11
11.25
21
-6.385
0
LINE
8
BLACK
6
CONTINUOUS
10
11.25
20
-6.385
11
11.25
21
-7.715
0
LINE
8
BLACK
6
CONTINUOUS
10
11.25
20
-7.715
11
11.2324
21
-7.75743
0
LINE
8
BLACK
6
CONTINUOUS
10
11.2324
20
-7.75743
11
11.19
21
-7.775
0
LINE
8
BLACK
6
CONTINUOUS
10
11.19
20
-7.775
11
11.1476
21
-7.75743
0
LINE
8
BLACK
6
CONTINUOUS
10
11.1476
20
-7.75743
11
11.13
21
-7.715
0
LINE
8
BLACK
6
CONTINUOUS
10
11.13
20
-7.715
11
11.13
21
-6.445
0
LINE
8
BLACK
6
CONTINUOUS
10
11.13
20
-6.445
11
9.86
21
-6.445
0
LINE
8
BLACK
6
CONTINUOUS
10
9.86
20
-6.445
11
9.81757
21
-6.42743
0
LINE
8
BLACK
6
CONTINUOUS
10
9.81757
20
-6.42743
11
9.8
21
-6.385
0
LINE
8
BLACK
6
CONTINUOUS
10
9.8
20
-6.385
11
9.81757
21
-6.34257
0
LINE
8
BLACK
6
CONTINUOUS
10
9.81757
20
-6.34257
11
9.86
21
-6.325
0
LINE
8
BLACK
6
CONTINUOUS
10
9.86
20
-6.325
11
11.19
21
-6.325
0
LINE
8
BLACK
6
CONTINUOUS
10
11.19
20
-6.325
11
11.2324
21
-6.34257
0
LINE
8
BLACK
6
CONTINUOUS
10
5.94757
20
-4.00743
11
5.93
21
-3.965
0
LINE
8
BLACK
6
CONTINUOUS
10
5.93
20
-3.965
11
5.93
21
-1.305
0
LINE
8
BLACK
6
CONTINUOUS
10
5.93
20
-1.305
11
5.94757
21
-1.26257
0
LINE
8
BLACK
6
CONTINUOUS
10
5.94757
20
-1.26257
11
5.99
21
-1.245
0
LINE
8
BLACK
6
CONTINUOUS
10
5.99
20
-1.245
11
11.13
21
-1.245
0
LINE
8
BLACK
6
CONTINUOUS
10
11.13
20
-1.245
11
11.1724
21
-1.26257
0
LINE
8
BLACK
6
CONTINUOUS
10
11.1724
20
-1.26257
11
11.19
21
-1.305
0
LINE
8
BLACK
6
CONTINUOUS
10
11.19
20
-1.305
11
11.19
21
-3.965
0
LINE
8
BLACK
6
CONTINUOUS
10
11.19
20
-3.965
11
11.1724
21
-4.00743
0
LINE
8
BLACK
6
CONTINUOUS
10
11.1724
20
-4.00743
11
11.13
21
-4.025
0
LINE
8
BLACK
6
CONTINUOUS
10
11.13
20
-4.025
11
5.99
21
-4.025
0
LINE
8
BLACK
6
CONTINUOUS
10
5.99
20
-4.025
11
5.94757
21
-4.00743
0
LINE
8
BLACK
6
CONTINUOUS
10
6.05
20
-1.365
11
6.05
21
-3.905
0
LINE
8
BLACK
6
CONTINUOUS
10
6.05
20
-3.905
11
11.07
21
-3.905
0
LINE
8
BLACK
6
CONTINUOUS
10
11.07
20
-3.905
11
11.07
21
-1.365
0
LINE
8
BLACK
6
CONTINUOUS
10
11.07
20
-1.365
11
6.05
21
-1.365
0
LINE
8
BLACK
6
CONTINUOUS
10
13.7724
20
-1.26257
11
13.79
21
-1.305
0
LINE
8
BLACK
6
CONTINUOUS
10
13.79
20
-1.305
11
13.79
21
-2.635
0
LINE
8
BLACK
6
CONTINUOUS
10
13.79
20
-2.635
11
13.7724
21
-2.67743
0
LINE
8
BLACK
6
CONTINUOUS
10
13.7724
20
-2.67743
11
13.73
21
-2.695
0
LINE
8
BLACK
6
CONTINUOUS
10
13.73
20
-2.695
11
13.6876
21
-2.67743
0
LINE
8
BLACK
6
CONTINUOUS
10
13.6876
20
-2.67743
11
13.67
21
-2.635
0
LINE
8
BLACK
6
CONTINUOUS
10
13.67
20
-2.635
11
13.67
21
-1.365
0
LINE
8
BLACK
6
CONTINUOUS
10
13.67
20
-1.365
11
12.4
21
-1.365
0
LINE
8
BLACK
6
CONTINUOUS
10
12.4
20
-1.365
11
12.3576
21
-1.34743
0
LINE
8
BLACK
6
CONTINUOUS
10
12.3576
20
-1.34743
11
12.34
21
-1.305
0
LINE
8
BLACK
6
CONTINUOUS
10
12.34
20
-1.305
11
12.3576
21
-1.26257
0
LINE
8
BLACK
6
CONTINUOUS
10
12.3576
20
-1.26257
11
12.4
21
-1.245
0
LINE
8
BLACK
6
CONTINUOUS
10
12.4
20
-1.245
11
13.73
21
-1.245
0
LINE
8
BLACK
6
CONTINUOUS
10
13.73
20
-1.245
11
13.7724
21
-1.26257
  0
ENDSEC
  0
EOF
