  0
SECTION
  2
HEADER
  9
$ANGBASE
  50
0.0
  9
$ANGDIR
  70
1
  9
$MEASUREMENT
  70
1
  0
ENDSEC
  0
SECTION
  2
TABLES
  0
TABLE
  2
LTYPE
  70
4
  0
LTYPE
  5
40F
  2
CONTINUOUS
  70
0
  3
Solid line
  72
65
  73
0
  40
0.0
  0
LTYPE
  5
410
  2
DASHDOT
 70
0
  3
Dash Dot ____ _ ____ _
 72
65
 73
4
 40
2.0
 49
1.25
 49
-0.25
 49
0.25
 49
-0.25
  0
LTYPE
  5
411
  2
DASHED
 70
0
  3
Dashed __ __ __ __ __
 72
65
 73
2
 40
0.75
 49
0.5
 49
-0.25
  0
LTYPE
  5
43B
  2
DOTTED
 70
0
  3
Dotted .  .  .  .
 72
65
 73
2
 40
0.2
 49
0.0
 49
-0.2
  0
ENDTAB
  0
TABLE
  2
STYLE
  70
4
  0
STYLE
  2
KICAD
  70
0
  40
0
  41
1
  42
1
  50
0
  71
0
  3
isocp.shx
  0
STYLE
  2
KICADB
  70
0
  40
0
  41
1
  42
1
  50
0
  71
0
  3
isocp.shx
  0
STYLE
  2
KICADI
  70
0
  40
0
  41
1
  42
1
  50
15
  71
0
  3
isocp.shx
  0
STYLE
  2
KICADBI
  70
0
  40
0
  41
1
  42
1
  50
15
  71
0
  3
isocp.shx
  0
ENDTAB
  0
TABLE
  2
LAYER
  70
1
  0
LAYER
  2
BLACK
  70
0
  62
7
  6
CONTINUOUS
  0
ENDTAB
  0
ENDSEC
  0
SECTION
  2
ENTITIES
0
LINE
8
BLACK
6
CONTINUOUS
10
13.0366
20
-4.48489
11
13.0383
21
-4.48515
0
LINE
8
BLACK
6
CONTINUOUS
10
13.0383
20
-4.48515
11
13.1119
21
-4.52882
0
LINE
8
BLACK
6
CONTINUOUS
10
13.1119
20
-4.52882
11
13.1125
21
-4.52968
0
LINE
8
BLACK
6
CONTINUOUS
10
13.1125
20
-4.52968
11
13.1134
21
-4.53027
0
LINE
8
BLACK
6
CONTINUOUS
10
13.1134
20
-4.53027
11
13.12
21
-4.53967
0
LINE
8
BLACK
6
CONTINUOUS
10
13.12
20
-4.53967
11
13.1896
21
-4.57321
0
LINE
8
BLACK
6
CONTINUOUS
10
13.1896
20
-4.57321
11
13.2247
21
-4.56681
0
LINE
8
BLACK
6
CONTINUOUS
10
13.2247
20
-4.56681
11
13.2251
21
-4.5669
0
LINE
8
BLACK
6
CONTINUOUS
10
13.2251
20
-4.5669
11
13.2255
21
-4.56673
0
LINE
8
BLACK
6
CONTINUOUS
10
13.2255
20
-4.56673
11
13.2904
21
-4.56571
0
LINE
8
BLACK
6
CONTINUOUS
10
13.2904
20
-4.56571
11
13.2912
21
-4.56603
0
LINE
8
BLACK
6
CONTINUOUS
10
13.2912
20
-4.56603
11
13.2921
21
-4.56598
0
LINE
8
BLACK
6
CONTINUOUS
10
13.2921
20
-4.56598
11
13.2929
21
-4.56671
0
LINE
8
BLACK
6
CONTINUOUS
10
13.2929
20
-4.56671
11
13.294
21
-4.56712
0
LINE
8
BLACK
6
CONTINUOUS
10
13.294
20
-4.56712
11
13.2943
21
-4.56793
0
LINE
8
BLACK
6
CONTINUOUS
10
13.2943
20
-4.56793
11
13.295
21
-4.5685
0
LINE
8
BLACK
6
CONTINUOUS
10
13.295
20
-4.5685
11
13.304
21
-4.5868
0
LINE
8
BLACK
6
CONTINUOUS
10
13.304
20
-4.5868
11
13.3393
21
-4.64763
0
LINE
8
BLACK
6
CONTINUOUS
10
13.3393
20
-4.64763
11
13.4335
21
-4.76168
0
LINE
8
BLACK
6
CONTINUOUS
10
13.4335
20
-4.76168
11
13.5685
21
-4.91
0
LINE
8
BLACK
6
CONTINUOUS
10
13.5685
20
-4.91
11
13.7257
21
-5.0733
0
LINE
8
BLACK
6
CONTINUOUS
10
13.7257
20
-5.0733
11
13.8867
21
-5.23237
0
LINE
8
BLACK
6
CONTINUOUS
10
13.8867
20
-5.23237
11
14.033
21
-5.36809
0
LINE
8
BLACK
6
CONTINUOUS
10
14.033
20
-5.36809
11
14.1445
21
-5.46007
0
LINE
8
BLACK
6
CONTINUOUS
10
14.1445
20
-5.46007
11
14.3062
21
-5.54892
0
LINE
8
BLACK
6
CONTINUOUS
10
14.3062
20
-5.54892
11
14.4338
21
-5.56319
0
LINE
8
BLACK
6
CONTINUOUS
10
14.4338
20
-5.56319
11
14.4339
21
-5.56321
0
LINE
8
BLACK
6
CONTINUOUS
10
14.4339
20
-5.56321
11
14.4339
21
-5.5632
0
LINE
8
BLACK
6
CONTINUOUS
10
14.4339
20
-5.5632
11
14.5675
21
-5.58049
0
LINE
8
BLACK
6
CONTINUOUS
10
14.5675
20
-5.58049
11
14.5685
21
-5.58108
0
LINE
8
BLACK
6
CONTINUOUS
10
14.5685
20
-5.58108
11
14.5697
21
-5.58132
0
LINE
8
BLACK
6
CONTINUOUS
10
14.5697
20
-5.58132
11
14.6655
21
-5.64663
0
LINE
8
BLACK
6
CONTINUOUS
10
14.6655
20
-5.64663
11
14.6659
21
-5.6472
0
LINE
8
BLACK
6
CONTINUOUS
10
14.6659
20
-5.6472
11
14.6665
21
-5.64751
0
LINE
8
BLACK
6
CONTINUOUS
10
14.6665
20
-5.64751
11
14.7645
21
-5.76163
0
LINE
8
BLACK
6
CONTINUOUS
10
14.7645
20
-5.76163
11
14.765
21
-5.76301
0
LINE
8
BLACK
6
CONTINUOUS
10
14.765
20
-5.76301
11
14.7657
21
-5.76428
0
LINE
8
BLACK
6
CONTINUOUS
10
14.7657
20
-5.76428
11
14.7747
21
-5.83721
0
LINE
8
BLACK
6
CONTINUOUS
10
14.7747
20
-5.83721
11
14.7743
21
-5.83864
0
LINE
8
BLACK
6
CONTINUOUS
10
14.7743
20
-5.83864
11
14.7742
21
-5.84012
0
LINE
8
BLACK
6
CONTINUOUS
10
14.7742
20
-5.84012
11
14.7738
21
-5.84043
0
LINE
8
BLACK
6
CONTINUOUS
10
14.7738
20
-5.84043
11
14.7737
21
-5.8409
0
LINE
8
BLACK
6
CONTINUOUS
10
14.7737
20
-5.8409
11
14.7724
21
-5.84163
0
LINE
8
BLACK
6
CONTINUOUS
10
14.7724
20
-5.84163
11
14.7713
21
-5.84259
0
LINE
8
BLACK
6
CONTINUOUS
10
14.7713
20
-5.84259
11
14.6928
21
-5.86768
0
LINE
8
BLACK
6
CONTINUOUS
10
14.6928
20
-5.86768
11
14.6926
21
-5.86766
0
LINE
8
BLACK
6
CONTINUOUS
10
14.6926
20
-5.86766
11
14.6925
21
-5.86777
0
LINE
8
BLACK
6
CONTINUOUS
10
14.6925
20
-5.86777
11
14.6409
21
-5.88042
0
LINE
8
BLACK
6
CONTINUOUS
10
14.6409
20
-5.88042
11
14.669
21
-5.92369
0
LINE
8
BLACK
6
CONTINUOUS
10
14.669
20
-5.92369
11
14.669
21
-5.92375
0
LINE
8
BLACK
6
CONTINUOUS
10
14.669
20
-5.92375
11
14.6691
21
-5.92379
0
LINE
8
BLACK
6
CONTINUOUS
10
14.6691
20
-5.92379
11
14.7221
21
-6.00966
0
LINE
8
BLACK
6
CONTINUOUS
10
14.7221
20
-6.00966
11
14.7223
21
-6.01113
0
LINE
8
BLACK
6
CONTINUOUS
10
14.7223
20
-6.01113
11
14.7228
21
-6.01254
0
LINE
8
BLACK
6
CONTINUOUS
10
14.7228
20
-6.01254
11
14.7174
21
-6.12121
0
LINE
8
BLACK
6
CONTINUOUS
10
14.7174
20
-6.12121
11
14.717
21
-6.12208
0
LINE
8
BLACK
6
CONTINUOUS
10
14.717
20
-6.12208
11
14.7169
21
-6.12304
0
LINE
8
BLACK
6
CONTINUOUS
10
14.7169
20
-6.12304
11
14.648
21
-6.2729
0
LINE
8
BLACK
6
CONTINUOUS
10
14.648
20
-6.2729
11
14.6477
21
-6.27316
0
LINE
8
BLACK
6
CONTINUOUS
10
14.6477
20
-6.27316
11
14.6476
21
-6.27354
0
LINE
8
BLACK
6
CONTINUOUS
10
14.6476
20
-6.27354
11
14.5235
21
-6.46395
0
LINE
8
BLACK
6
CONTINUOUS
10
14.5235
20
-6.46395
11
14.5235
21
-6.46395
0
LINE
8
BLACK
6
CONTINUOUS
10
14.5235
20
-6.46395
11
14.5235
21
-6.46395
0
LINE
8
BLACK
6
CONTINUOUS
10
14.5235
20
-6.46395
11
14.4249
21
-6.61455
0
LINE
8
BLACK
6
CONTINUOUS
10
14.4249
20
-6.61455
11
14.3634
21
-6.72782
0
LINE
8
BLACK
6
CONTINUOUS
10
14.3634
20
-6.72782
11
14.3521
21
-6.77712
0
LINE
8
BLACK
6
CONTINUOUS
10
14.3521
20
-6.77712
11
14.4763
21
-6.82887
0
LINE
8
BLACK
6
CONTINUOUS
10
14.4763
20
-6.82887
11
14.6333
21
-6.87116
0
LINE
8
BLACK
6
CONTINUOUS
10
14.6333
20
-6.87116
11
14.7746
21
-6.8926
0
LINE
8
BLACK
6
CONTINUOUS
10
14.7746
20
-6.8926
11
14.8453
21
-6.88782
0
LINE
8
BLACK
6
CONTINUOUS
10
14.8453
20
-6.88782
11
14.886
21
-6.86016
0
LINE
8
BLACK
6
CONTINUOUS
10
14.886
20
-6.86016
11
14.8978
21
-6.80221
0
LINE
8
BLACK
6
CONTINUOUS
10
14.8978
20
-6.80221
11
14.8801
21
-6.6847
0
LINE
8
BLACK
6
CONTINUOUS
10
14.8801
20
-6.6847
11
14.852
21
-6.56166
0
LINE
8
BLACK
6
CONTINUOUS
10
14.852
20
-6.56166
11
14.8521
21
-6.56158
0
LINE
8
BLACK
6
CONTINUOUS
10
14.8521
20
-6.56158
11
14.852
21
-6.56152
0
LINE
8
BLACK
6
CONTINUOUS
10
14.852
20
-6.56152
11
14.8117
21
-6.35846
0
LINE
8
BLACK
6
CONTINUOUS
10
14.8117
20
-6.35846
11
14.8118
21
-6.35829
0
LINE
8
BLACK
6
CONTINUOUS
10
14.8118
20
-6.35829
11
14.8117
21
-6.35813
0
LINE
8
BLACK
6
CONTINUOUS
10
14.8117
20
-6.35813
11
14.7867
21
-6.16519
0
LINE
8
BLACK
6
CONTINUOUS
10
14.7867
20
-6.16519
11
14.7868
21
-6.16498
0
LINE
8
BLACK
6
CONTINUOUS
10
14.7868
20
-6.16498
11
14.7867
21
-6.16479
0
LINE
8
BLACK
6
CONTINUOUS
10
14.7867
20
-6.16479
11
14.7825
21
-6.07482
0
LINE
8
BLACK
6
CONTINUOUS
10
14.7825
20
-6.07482
11
14.7825
21
-6.07467
0
LINE
8
BLACK
6
CONTINUOUS
10
14.7825
20
-6.07467
11
14.7825
21
-6.07452
0
LINE
8
BLACK
6
CONTINUOUS
10
14.7825
20
-6.07452
11
14.7849
21
-5.88931
0
LINE
8
BLACK
6
CONTINUOUS
10
14.7849
20
-5.88931
11
14.7852
21
-5.88847
0
LINE
8
BLACK
6
CONTINUOUS
10
14.7852
20
-5.88847
11
14.7852
21
-5.88754
0
LINE
8
BLACK
6
CONTINUOUS
10
14.7852
20
-5.88754
11
14.786
21
-5.88678
0
LINE
8
BLACK
6
CONTINUOUS
10
14.786
20
-5.88678
11
14.7864
21
-5.88579
0
LINE
8
BLACK
6
CONTINUOUS
10
14.7864
20
-5.88579
11
14.7872
21
-5.88545
0
LINE
8
BLACK
6
CONTINUOUS
10
14.7872
20
-5.88545
11
14.7879
21
-5.88479
0
LINE
8
BLACK
6
CONTINUOUS
10
14.7879
20
-5.88479
11
14.789
21
-5.88477
0
LINE
8
BLACK
6
CONTINUOUS
10
14.789
20
-5.88477
11
14.7899
21
-5.88437
0
LINE
8
BLACK
6
CONTINUOUS
10
14.7899
20
-5.88437
11
14.7908
21
-5.88474
0
LINE
8
BLACK
6
CONTINUOUS
10
14.7908
20
-5.88474
11
14.7917
21
-5.88472
0
LINE
8
BLACK
6
CONTINUOUS
10
14.7917
20
-5.88472
11
14.7925
21
-5.88546
0
LINE
8
BLACK
6
CONTINUOUS
10
14.7925
20
-5.88546
11
14.7935
21
-5.88589
0
LINE
8
BLACK
6
CONTINUOUS
10
14.7935
20
-5.88589
11
14.7938
21
-5.88674
0
LINE
8
BLACK
6
CONTINUOUS
10
14.7938
20
-5.88674
11
14.7945
21
-5.88738
0
LINE
8
BLACK
6
CONTINUOUS
10
14.7945
20
-5.88738
11
14.8751
21
-6.07259
0
LINE
8
BLACK
6
CONTINUOUS
10
14.8751
20
-6.07259
11
14.8751
21
-6.07278
0
LINE
8
BLACK
6
CONTINUOUS
10
14.8751
20
-6.07278
11
14.8753
21
-6.07293
0
LINE
8
BLACK
6
CONTINUOUS
10
14.8753
20
-6.07293
11
14.9315
21
-6.23336
0
LINE
8
BLACK
6
CONTINUOUS
10
14.9315
20
-6.23336
11
14.9315
21
-6.23356
0
LINE
8
BLACK
6
CONTINUOUS
10
14.9315
20
-6.23356
11
14.9317
21
-6.23373
0
LINE
8
BLACK
6
CONTINUOUS
10
14.9317
20
-6.23373
11
14.9868
21
-6.44019
0
LINE
8
BLACK
6
CONTINUOUS
10
14.9868
20
-6.44019
11
14.9868
21
-6.44033
0
LINE
8
BLACK
6
CONTINUOUS
10
14.9868
20
-6.44033
11
14.9869
21
-6.44045
0
LINE
8
BLACK
6
CONTINUOUS
10
14.9869
20
-6.44045
11
15.0123
21
-6.56062
0
LINE
8
BLACK
6
CONTINUOUS
10
15.0123
20
-6.56062
11
15.0492
21
-6.71634
0
LINE
8
BLACK
6
CONTINUOUS
10
15.0492
20
-6.71634
11
15.0874
21
-6.81272
0
LINE
8
BLACK
6
CONTINUOUS
10
15.0874
20
-6.81272
11
15.1074
21
-6.82714
0
LINE
8
BLACK
6
CONTINUOUS
10
15.1074
20
-6.82714
11
15.1293
21
-6.76764
0
LINE
8
BLACK
6
CONTINUOUS
10
15.1293
20
-6.76764
11
15.1203
21
-6.71036
0
LINE
8
BLACK
6
CONTINUOUS
10
15.1203
20
-6.71036
11
15.1204
21
-6.70995
0
LINE
8
BLACK
6
CONTINUOUS
10
15.1204
20
-6.70995
11
15.1202
21
-6.70955
0
LINE
8
BLACK
6
CONTINUOUS
10
15.1202
20
-6.70955
11
15.1209
21
-6.60778
0
LINE
8
BLACK
6
CONTINUOUS
10
15.1209
20
-6.60778
11
15.1212
21
-6.60706
0
LINE
8
BLACK
6
CONTINUOUS
10
15.1212
20
-6.60706
11
15.1212
21
-6.60627
0
LINE
8
BLACK
6
CONTINUOUS
10
15.1212
20
-6.60627
11
15.122
21
-6.60536
0
LINE
8
BLACK
6
CONTINUOUS
10
15.122
20
-6.60536
11
15.1224
21
-6.60425
0
LINE
8
BLACK
6
CONTINUOUS
10
15.1224
20
-6.60425
11
15.1232
21
-6.60396
0
LINE
8
BLACK
6
CONTINUOUS
10
15.1232
20
-6.60396
11
15.1237
21
-6.60336
0
LINE
8
BLACK
6
CONTINUOUS
10
15.1237
20
-6.60336
11
15.1957
21
-6.56654
0
LINE
8
BLACK
6
CONTINUOUS
10
15.1957
20
-6.56654
11
15.1976
21
-6.56639
0
LINE
8
BLACK
6
CONTINUOUS
10
15.1976
20
-6.56639
11
15.1994
21
-6.56621
0
LINE
8
BLACK
6
CONTINUOUS
10
15.1994
20
-6.56621
11
15.3153
21
-6.6008
0
LINE
8
BLACK
6
CONTINUOUS
10
15.3153
20
-6.6008
11
15.3155
21
-6.60101
0
LINE
8
BLACK
6
CONTINUOUS
10
15.3155
20
-6.60101
11
15.3159
21
-6.60102
0
LINE
8
BLACK
6
CONTINUOUS
10
15.3159
20
-6.60102
11
15.4056
21
-6.64082
0
LINE
8
BLACK
6
CONTINUOUS
10
15.4056
20
-6.64082
11
15.4281
21
-6.62993
0
LINE
8
BLACK
6
CONTINUOUS
10
15.4281
20
-6.62993
11
15.3945
21
-6.55845
0
LINE
8
BLACK
6
CONTINUOUS
10
15.3945
20
-6.55845
11
15.2921
21
-6.41274
0
LINE
8
BLACK
6
CONTINUOUS
10
15.2921
20
-6.41274
11
15.2408
21
-6.34486
0
LINE
8
BLACK
6
CONTINUOUS
10
15.2408
20
-6.34486
11
15.2408
21
-6.3448
0
LINE
8
BLACK
6
CONTINUOUS
10
15.2408
20
-6.3448
11
15.2408
21
-6.34477
0
LINE
8
BLACK
6
CONTINUOUS
10
15.2408
20
-6.34477
11
15.1303
21
-6.19158
0
LINE
8
BLACK
6
CONTINUOUS
10
15.1303
20
-6.19158
11
15.1303
21
-6.1912
0
LINE
8
BLACK
6
CONTINUOUS
10
15.1303
20
-6.1912
11
15.13
21
-6.19094
0
LINE
8
BLACK
6
CONTINUOUS
10
15.13
20
-6.19094
11
15.0883
21
-6.10957
0
LINE
8
BLACK
6
CONTINUOUS
10
15.0883
20
-6.10957
11
15.0882
21
-6.10789
0
LINE
8
BLACK
6
CONTINUOUS
10
15.0882
20
-6.10789
11
15.0878
21
-6.10624
0
LINE
8
BLACK
6
CONTINUOUS
10
15.0878
20
-6.10624
11
15.088
21
-6.10602
0
LINE
8
BLACK
6
CONTINUOUS
10
15.088
20
-6.10602
11
15.088
21
-6.10575
0
LINE
8
BLACK
6
CONTINUOUS
10
15.088
20
-6.10575
11
15.0891
21
-6.10447
0
LINE
8
BLACK
6
CONTINUOUS
10
15.0891
20
-6.10447
11
15.09
21
-6.10309
0
LINE
8
BLACK
6
CONTINUOUS
10
15.09
20
-6.10309
11
15.1142
21
-6.08744
0
LINE
8
BLACK
6
CONTINUOUS
10
15.1142
20
-6.08744
11
15.1145
21
-6.08738
0
LINE
8
BLACK
6
CONTINUOUS
10
15.1145
20
-6.08738
11
15.1147
21
-6.08716
0
LINE
8
BLACK
6
CONTINUOUS
10
15.1147
20
-6.08716
11
15.1164
21
-6.08704
0
LINE
8
BLACK
6
CONTINUOUS
10
15.1164
20
-6.08704
11
15.118
21
-6.08675
0
LINE
8
BLACK
6
CONTINUOUS
10
15.118
20
-6.08675
11
15.1182
21
-6.08691
0
LINE
8
BLACK
6
CONTINUOUS
10
15.1182
20
-6.08691
11
15.1185
21
-6.08689
0
LINE
8
BLACK
6
CONTINUOUS
10
15.1185
20
-6.08689
11
15.1304
21
-6.09089
0
LINE
8
BLACK
6
CONTINUOUS
10
15.1304
20
-6.09089
11
15.259
21
-6.13186
0
LINE
8
BLACK
6
CONTINUOUS
10
15.259
20
-6.13186
11
15.3195
21
-6.11731
0
LINE
8
BLACK
6
CONTINUOUS
10
15.3195
20
-6.11731
11
15.3235
21
-6.10567
0
LINE
8
BLACK
6
CONTINUOUS
10
15.3235
20
-6.10567
11
15.3235
21
-6.10566
0
LINE
8
BLACK
6
CONTINUOUS
10
15.3235
20
-6.10566
11
15.3466
21
-6.03909
0
LINE
8
BLACK
6
CONTINUOUS
10
15.3466
20
-6.03909
11
15.3485
21
-6.02709
0
LINE
8
BLACK
6
CONTINUOUS
10
15.3485
20
-6.02709
11
15.3472
21
-5.94139
0
LINE
8
BLACK
6
CONTINUOUS
10
15.3472
20
-5.94139
11
15.3007
21
-5.93399
0
LINE
8
BLACK
6
CONTINUOUS
10
15.3007
20
-5.93399
11
15.2957
21
-5.93582
0
LINE
8
BLACK
6
CONTINUOUS
10
15.2957
20
-5.93582
11
15.2945
21
-5.93577
0
LINE
8
BLACK
6
CONTINUOUS
10
15.2945
20
-5.93577
11
15.2933
21
-5.93608
0
LINE
8
BLACK
6
CONTINUOUS
10
15.2933
20
-5.93608
11
15.2016
21
-5.92367
0
LINE
8
BLACK
6
CONTINUOUS
10
15.2016
20
-5.92367
11
15.2009
21
-5.92322
0
LINE
8
BLACK
6
CONTINUOUS
10
15.2009
20
-5.92322
11
15.2
21
-5.92313
0
LINE
8
BLACK
6
CONTINUOUS
10
15.2
20
-5.92313
11
15.0674
21
-5.85299
0
LINE
8
BLACK
6
CONTINUOUS
10
15.0674
20
-5.85299
11
15.0672
21
-5.85269
0
LINE
8
BLACK
6
CONTINUOUS
10
15.0672
20
-5.85269
11
15.0668
21
-5.85259
0
LINE
8
BLACK
6
CONTINUOUS
10
15.0668
20
-5.85259
11
14.9228
21
-5.74601
0
LINE
8
BLACK
6
CONTINUOUS
10
14.9228
20
-5.74601
11
14.9227
21
-5.74571
0
LINE
8
BLACK
6
CONTINUOUS
10
14.9227
20
-5.74571
11
14.9223
21
-5.74558
0
LINE
8
BLACK
6
CONTINUOUS
10
14.9223
20
-5.74558
11
14.7965
21
-5.62383
0
LINE
8
BLACK
6
CONTINUOUS
10
14.7965
20
-5.62383
11
14.7963
21
-5.62341
0
LINE
8
BLACK
6
CONTINUOUS
10
14.7963
20
-5.62341
11
14.7959
21
-5.62316
0
LINE
8
BLACK
6
CONTINUOUS
10
14.7959
20
-5.62316
11
14.7279
21
-5.52874
0
LINE
8
BLACK
6
CONTINUOUS
10
14.7279
20
-5.52874
11
14.7278
21
-5.52794
0
LINE
8
BLACK
6
CONTINUOUS
10
14.7278
20
-5.52794
11
14.7272
21
-5.52731
0
LINE
8
BLACK
6
CONTINUOUS
10
14.7272
20
-5.52731
11
14.7233
21
-5.51466
0
LINE
8
BLACK
6
CONTINUOUS
10
14.7233
20
-5.51466
11
14.6803
21
-5.37738
0
LINE
8
BLACK
6
CONTINUOUS
10
14.6803
20
-5.37738
11
14.6805
21
-5.37559
0
LINE
8
BLACK
6
CONTINUOUS
10
14.6805
20
-5.37559
11
14.6806
21
-5.37379
0
LINE
8
BLACK
6
CONTINUOUS
10
14.6806
20
-5.37379
11
14.7282
21
-5.27043
0
LINE
8
BLACK
6
CONTINUOUS
10
14.7282
20
-5.27043
11
14.7296
21
-5.2692
0
LINE
8
BLACK
6
CONTINUOUS
10
14.7296
20
-5.2692
11
14.7308
21
-5.26792
0
LINE
8
BLACK
6
CONTINUOUS
10
14.7308
20
-5.26792
11
14.8752
21
-5.20685
0
LINE
8
BLACK
6
CONTINUOUS
10
14.8752
20
-5.20685
11
14.8757
21
-5.20684
0
LINE
8
BLACK
6
CONTINUOUS
10
14.8757
20
-5.20684
11
14.8761
21
-5.20656
0
LINE
8
BLACK
6
CONTINUOUS
10
14.8761
20
-5.20656
11
14.8853
21
-5.20466
0
LINE
8
BLACK
6
CONTINUOUS
10
14.8853
20
-5.20466
11
14.8858
21
-5.20476
0
LINE
8
BLACK
6
CONTINUOUS
10
14.8858
20
-5.20476
11
14.8862
21
-5.20456
0
LINE
8
BLACK
6
CONTINUOUS
10
14.8862
20
-5.20456
11
15.0553
21
-5.2032
0
LINE
8
BLACK
6
CONTINUOUS
10
15.0553
20
-5.2032
11
15.056
21
-5.20351
0
LINE
8
BLACK
6
CONTINUOUS
10
15.056
20
-5.20351
11
15.0568
21
-5.20344
0
LINE
8
BLACK
6
CONTINUOUS
10
15.0568
20
-5.20344
11
15.2144
21
-5.25436
0
LINE
8
BLACK
6
CONTINUOUS
10
15.2144
20
-5.25436
11
15.215
21
-5.25493
0
LINE
8
BLACK
6
CONTINUOUS
10
15.215
20
-5.25493
11
15.2159
21
-5.25516
0
LINE
8
BLACK
6
CONTINUOUS
10
15.2159
20
-5.25516
11
15.3292
21
-5.34252
0
LINE
8
BLACK
6
CONTINUOUS
10
15.3292
20
-5.34252
11
15.3298
21
-5.34368
0
LINE
8
BLACK
6
CONTINUOUS
10
15.3298
20
-5.34368
11
15.3308
21
-5.34465
0
LINE
8
BLACK
6
CONTINUOUS
10
15.3308
20
-5.34465
11
15.368
21
-5.43911
0
LINE
8
BLACK
6
CONTINUOUS
10
15.368
20
-5.43911
11
15.368
21
-5.44071
0
LINE
8
BLACK
6
CONTINUOUS
10
15.368
20
-5.44071
11
15.3681
21
-5.4423
0
LINE
8
BLACK
6
CONTINUOUS
10
15.3681
20
-5.4423
11
15.3441
21
-5.52752
0
LINE
8
BLACK
6
CONTINUOUS
10
15.3441
20
-5.52752
11
15.343
21
-5.52899
0
LINE
8
BLACK
6
CONTINUOUS
10
15.343
20
-5.52899
11
15.3419
21
-5.53047
0
LINE
8
BLACK
6
CONTINUOUS
10
15.3419
20
-5.53047
11
15.3104
21
-5.54898
0
LINE
8
BLACK
6
CONTINUOUS
10
15.3104
20
-5.54898
11
15.2977
21
-5.57433
0
LINE
8
BLACK
6
CONTINUOUS
10
15.2977
20
-5.57433
11
15.3323
21
-5.62081
0
LINE
8
BLACK
6
CONTINUOUS
10
15.3323
20
-5.62081
11
15.4074
21
-5.71498
0
LINE
8
BLACK
6
CONTINUOUS
10
15.4074
20
-5.71498
11
15.4075
21
-5.71548
0
LINE
8
BLACK
6
CONTINUOUS
10
15.4075
20
-5.71548
11
15.4079
21
-5.71582
0
LINE
8
BLACK
6
CONTINUOUS
10
15.4079
20
-5.71582
11
15.4317
21
-5.76218
0
LINE
8
BLACK
6
CONTINUOUS
10
15.4317
20
-5.76218
11
15.4896
21
-5.79417
0
LINE
8
BLACK
6
CONTINUOUS
10
15.4896
20
-5.79417
11
15.6124
21
-5.78001
0
LINE
8
BLACK
6
CONTINUOUS
10
15.6124
20
-5.78001
11
15.7759
21
-5.72684
0
LINE
8
BLACK
6
CONTINUOUS
10
15.7759
20
-5.72684
11
15.9538
21
-5.64358
0
LINE
8
BLACK
6
CONTINUOUS
10
15.9538
20
-5.64358
11
16.1211
21
-5.53917
0
LINE
8
BLACK
6
CONTINUOUS
10
16.1211
20
-5.53917
11
16.18
21
-5.49296
0
LINE
8
BLACK
6
CONTINUOUS
10
16.18
20
-5.49296
11
16.3245
21
-5.37512
0
LINE
8
BLACK
6
CONTINUOUS
10
16.3245
20
-5.37512
11
16.3246
21
-5.37509
0
LINE
8
BLACK
6
CONTINUOUS
10
16.3246
20
-5.37509
11
16.3246
21
-5.375
0
LINE
8
BLACK
6
CONTINUOUS
10
16.3246
20
-5.375
11
16.3432
21
-5.361
0
LINE
8
BLACK
6
CONTINUOUS
10
16.3432
20
-5.361
11
16.4507
21
-5.27989
0
LINE
8
BLACK
6
CONTINUOUS
10
16.4507
20
-5.27989
11
16.4509
21
-5.27985
0
LINE
8
BLACK
6
CONTINUOUS
10
16.4509
20
-5.27985
11
16.451
21
-5.27972
0
LINE
8
BLACK
6
CONTINUOUS
10
16.451
20
-5.27972
11
16.5028
21
-5.24527
0
LINE
8
BLACK
6
CONTINUOUS
10
16.5028
20
-5.24527
11
16.5657
21
-5.19107
0
LINE
8
BLACK
6
CONTINUOUS
10
16.5657
20
-5.19107
11
16.5624
21
-5.11637
0
LINE
8
BLACK
6
CONTINUOUS
10
16.5624
20
-5.11637
11
16.5362
21
-5.05273
0
LINE
8
BLACK
6
CONTINUOUS
10
16.5362
20
-5.05273
11
16.5362
21
-5.05253
0
LINE
8
BLACK
6
CONTINUOUS
10
16.5362
20
-5.05253
11
16.5361
21
-5.05238
0
LINE
8
BLACK
6
CONTINUOUS
10
16.5361
20
-5.05238
11
16.5007
21
-4.94416
0
LINE
8
BLACK
6
CONTINUOUS
10
16.5007
20
-4.94416
11
16.5008
21
-4.94315
0
LINE
8
BLACK
6
CONTINUOUS
10
16.5008
20
-4.94315
11
16.5005
21
-4.94219
0
LINE
8
BLACK
6
CONTINUOUS
10
16.5005
20
-4.94219
11
16.5009
21
-4.94132
0
LINE
8
BLACK
6
CONTINUOUS
10
16.5009
20
-4.94132
11
16.501
21
-4.94034
0
LINE
8
BLACK
6
CONTINUOUS
10
16.501
20
-4.94034
11
16.5018
21
-4.93969
0
LINE
8
BLACK
6
CONTINUOUS
10
16.5018
20
-4.93969
11
16.5023
21
-4.93879
0
LINE
8
BLACK
6
CONTINUOUS
10
16.5023
20
-4.93879
11
16.5344
21
-4.91158
0
LINE
8
BLACK
6
CONTINUOUS
10
16.5344
20
-4.91158
11
16.5353
21
-4.9113
0
LINE
8
BLACK
6
CONTINUOUS
10
16.5353
20
-4.9113
11
16.536
21
-4.91067
0
LINE
8
BLACK
6
CONTINUOUS
10
16.536
20
-4.91067
11
16.537
21
-4.91074
0
LINE
8
BLACK
6
CONTINUOUS
10
16.537
20
-4.91074
11
16.538
21
-4.91042
0
LINE
8
BLACK
6
CONTINUOUS
10
16.538
20
-4.91042
11
16.5389
21
-4.91085
0
LINE
8
BLACK
6
CONTINUOUS
10
16.5389
20
-4.91085
11
16.5398
21
-4.9109
0
LINE
8
BLACK
6
CONTINUOUS
10
16.5398
20
-4.9109
11
16.633
21
-4.95627
0
LINE
8
BLACK
6
CONTINUOUS
10
16.633
20
-4.95627
11
16.7373
21
-4.97079
0
LINE
8
BLACK
6
CONTINUOUS
10
16.7373
20
-4.97079
11
16.7758
21
-4.94844
0
LINE
8
BLACK
6
CONTINUOUS
10
16.7758
20
-4.94844
11
16.7762
21
-4.94839
0
LINE
8
BLACK
6
CONTINUOUS
10
16.7762
20
-4.94839
11
16.7765
21
-4.94812
0
LINE
8
BLACK
6
CONTINUOUS
10
16.7765
20
-4.94812
11
16.8564
21
-4.9165
0
LINE
8
BLACK
6
CONTINUOUS
10
16.8564
20
-4.9165
11
16.8577
21
-4.91652
0
LINE
8
BLACK
6
CONTINUOUS
10
16.8577
20
-4.91652
11
16.8589
21
-4.91619
0
LINE
8
BLACK
6
CONTINUOUS
10
16.8589
20
-4.91619
11
16.8595
21
-4.91655
0
LINE
8
BLACK
6
CONTINUOUS
10
16.8595
20
-4.91655
11
16.8602
21
-4.91656
0
LINE
8
BLACK
6
CONTINUOUS
10
16.8602
20
-4.91656
11
16.8611
21
-4.91747
0
LINE
8
BLACK
6
CONTINUOUS
10
16.8611
20
-4.91747
11
16.8622
21
-4.9181
0
LINE
8
BLACK
6
CONTINUOUS
10
16.8622
20
-4.9181
11
16.9131
21
-4.98412
0
LINE
8
BLACK
6
CONTINUOUS
10
16.9131
20
-4.98412
11
16.9134
21
-4.98526
0
LINE
8
BLACK
6
CONTINUOUS
10
16.9134
20
-4.98526
11
16.914
21
-4.98625
0
LINE
8
BLACK
6
CONTINUOUS
10
16.914
20
-4.98625
11
16.9344
21
-5.09468
0
LINE
8
BLACK
6
CONTINUOUS
10
16.9344
20
-5.09468
11
16.9342
21
-5.09565
0
LINE
8
BLACK
6
CONTINUOUS
10
16.9342
20
-5.09565
11
16.9344
21
-5.09662
0
LINE
8
BLACK
6
CONTINUOUS
10
16.9344
20
-5.09662
11
16.9068
21
-5.23013
0
LINE
8
BLACK
6
CONTINUOUS
10
16.9068
20
-5.23013
11
16.9059
21
-5.23146
0
LINE
8
BLACK
6
CONTINUOUS
10
16.9059
20
-5.23146
11
16.9051
21
-5.2329
0
LINE
8
BLACK
6
CONTINUOUS
10
16.9051
20
-5.2329
11
16.8407
21
-5.28869
0
LINE
8
BLACK
6
CONTINUOUS
10
16.8407
20
-5.28869
11
16.8403
21
-5.28881
0
LINE
8
BLACK
6
CONTINUOUS
10
16.8403
20
-5.28881
11
16.8401
21
-5.28912
0
LINE
8
BLACK
6
CONTINUOUS
10
16.8401
20
-5.28912
11
16.7097
21
-5.37248
0
LINE
8
BLACK
6
CONTINUOUS
10
16.7097
20
-5.37248
11
16.6457
21
-5.42246
0
LINE
8
BLACK
6
CONTINUOUS
10
16.6457
20
-5.42246
11
16.4185
21
-5.61656
0
LINE
8
BLACK
6
CONTINUOUS
10
16.4185
20
-5.61656
11
16.4185
21
-5.61658
0
LINE
8
BLACK
6
CONTINUOUS
10
16.4185
20
-5.61658
11
16.4185
21
-5.61661
0
LINE
8
BLACK
6
CONTINUOUS
10
16.4185
20
-5.61661
11
16.2024
21
-5.79604
0
LINE
8
BLACK
6
CONTINUOUS
10
16.2024
20
-5.79604
11
16.2024
21
-5.79605
0
LINE
8
BLACK
6
CONTINUOUS
10
16.2024
20
-5.79605
11
16.2023
21
-5.79609
0
LINE
8
BLACK
6
CONTINUOUS
10
16.2023
20
-5.79609
11
16.0127
21
-5.94857
0
LINE
8
BLACK
6
CONTINUOUS
10
16.0127
20
-5.94857
11
16.0127
21
-5.94859
0
LINE
8
BLACK
6
CONTINUOUS
10
16.0127
20
-5.94859
11
16.0126
21
-5.94864
0
LINE
8
BLACK
6
CONTINUOUS
10
16.0126
20
-5.94864
11
15.8649
21
-6.06196
0
LINE
8
BLACK
6
CONTINUOUS
10
15.8649
20
-6.06196
11
15.8647
21
-6.062
0
LINE
8
BLACK
6
CONTINUOUS
10
15.8647
20
-6.062
11
15.8646
21
-6.06212
0
LINE
8
BLACK
6
CONTINUOUS
10
15.8646
20
-6.06212
11
15.774
21
-6.12406
0
LINE
8
BLACK
6
CONTINUOUS
10
15.774
20
-6.12406
11
15.7735
21
-6.12417
0
LINE
8
BLACK
6
CONTINUOUS
10
15.7735
20
-6.12417
11
15.7731
21
-6.12454
0
LINE
8
BLACK
6
CONTINUOUS
10
15.7731
20
-6.12454
11
15.755
21
-6.13219
0
LINE
8
BLACK
6
CONTINUOUS
10
15.755
20
-6.13219
11
15.7016
21
-6.17298
0
LINE
8
BLACK
6
CONTINUOUS
10
15.7016
20
-6.17298
11
15.6308
21
-6.27298
0
LINE
8
BLACK
6
CONTINUOUS
10
15.6308
20
-6.27298
11
15.6251
21
-6.28273
0
LINE
8
BLACK
6
CONTINUOUS
10
15.6251
20
-6.28273
11
15.579
21
-6.37658
0
LINE
8
BLACK
6
CONTINUOUS
10
15.579
20
-6.37658
11
15.5679
21
-6.4604
0
LINE
8
BLACK
6
CONTINUOUS
10
15.5679
20
-6.4604
11
15.5931
21
-6.57369
0
LINE
8
BLACK
6
CONTINUOUS
10
15.5931
20
-6.57369
11
15.642
21
-6.71494
0
LINE
8
BLACK
6
CONTINUOUS
10
15.642
20
-6.71494
11
15.642
21
-6.71494
0
LINE
8
BLACK
6
CONTINUOUS
10
15.642
20
-6.71494
11
15.7209
21
-6.93928
0
LINE
8
BLACK
6
CONTINUOUS
10
15.7209
20
-6.93928
11
15.7209
21
-6.93945
0
LINE
8
BLACK
6
CONTINUOUS
10
15.7209
20
-6.93945
11
15.721
21
-6.93959
0
LINE
8
BLACK
6
CONTINUOUS
10
15.721
20
-6.93959
11
15.763
21
-7.09069
0
LINE
8
BLACK
6
CONTINUOUS
10
15.763
20
-7.09069
11
15.763
21
-7.09122
0
LINE
8
BLACK
6
CONTINUOUS
10
15.763
20
-7.09122
11
15.7632
21
-7.0917
0
LINE
8
BLACK
6
CONTINUOUS
10
15.7632
20
-7.0917
11
15.7702
21
-7.19489
0
LINE
8
BLACK
6
CONTINUOUS
10
15.7702
20
-7.19489
11
15.7698
21
-7.19581
0
LINE
8
BLACK
6
CONTINUOUS
10
15.7698
20
-7.19581
11
15.7699
21
-7.19678
0
LINE
8
BLACK
6
CONTINUOUS
10
15.7699
20
-7.19678
11
15.7435
21
-7.2774
0
LINE
8
BLACK
6
CONTINUOUS
10
15.7435
20
-7.2774
11
15.743
21
-7.27797
0
LINE
8
BLACK
6
CONTINUOUS
10
15.743
20
-7.27797
11
15.7429
21
-7.2787
0
LINE
8
BLACK
6
CONTINUOUS
10
15.7429
20
-7.2787
11
15.685
21
-7.36185
0
LINE
8
BLACK
6
CONTINUOUS
10
15.685
20
-7.36185
11
15.6845
21
-7.36214
0
LINE
8
BLACK
6
CONTINUOUS
10
15.6845
20
-7.36214
11
15.6843
21
-7.36264
0
LINE
8
BLACK
6
CONTINUOUS
10
15.6843
20
-7.36264
11
15.5737
21
-7.46593
0
LINE
8
BLACK
6
CONTINUOUS
10
15.5737
20
-7.46593
11
15.5726
21
-7.46636
0
LINE
8
BLACK
6
CONTINUOUS
10
15.5726
20
-7.46636
11
15.5717
21
-7.4671
0
LINE
8
BLACK
6
CONTINUOUS
10
15.5717
20
-7.4671
11
15.4313
21
-7.50566
0
LINE
8
BLACK
6
CONTINUOUS
10
15.4313
20
-7.50566
11
15.4307
21
-7.50558
0
LINE
8
BLACK
6
CONTINUOUS
10
15.4307
20
-7.50558
11
15.4301
21
-7.50583
0
LINE
8
BLACK
6
CONTINUOUS
10
15.4301
20
-7.50583
11
15.3597
21
-7.50833
0
LINE
8
BLACK
6
CONTINUOUS
10
15.3597
20
-7.50833
11
15.3596
21
-7.5083
0
LINE
8
BLACK
6
CONTINUOUS
10
15.3596
20
-7.5083
11
15.3595
21
-7.50833
0
LINE
8
BLACK
6
CONTINUOUS
10
15.3595
20
-7.50833
11
15.1567
21
-7.50833
0
LINE
8
BLACK
6
CONTINUOUS
10
15.1567
20
-7.50833
11
15.1559
21
-7.9399
0
LINE
8
BLACK
6
CONTINUOUS
10
15.1559
20
-7.9399
11
15.1558
21
-7.93997
0
LINE
8
BLACK
6
CONTINUOUS
10
15.1558
20
-7.93997
11
15.1559
21
-7.94003
0
LINE
8
BLACK
6
CONTINUOUS
10
15.1559
20
-7.94003
11
15.15
21
-8.15213
0
LINE
8
BLACK
6
CONTINUOUS
10
15.15
20
-8.15213
11
15.1499
21
-8.15226
0
LINE
8
BLACK
6
CONTINUOUS
10
15.1499
20
-8.15226
11
15.15
21
-8.15241
0
LINE
8
BLACK
6
CONTINUOUS
10
15.15
20
-8.15241
11
15.1352
21
-8.32824
0
LINE
8
BLACK
6
CONTINUOUS
10
15.1352
20
-8.32824
11
15.135
21
-8.32849
0
LINE
8
BLACK
6
CONTINUOUS
10
15.135
20
-8.32849
11
15.1351
21
-8.32877
0
LINE
8
BLACK
6
CONTINUOUS
10
15.1351
20
-8.32877
11
15.1142
21
-8.43776
0
LINE
8
BLACK
6
CONTINUOUS
10
15.1142
20
-8.43776
11
15.1139
21
-8.43827
0
LINE
8
BLACK
6
CONTINUOUS
10
15.1139
20
-8.43827
11
15.1138
21
-8.43888
0
LINE
8
BLACK
6
CONTINUOUS
10
15.1138
20
-8.43888
11
15.1077
21
-8.45246
0
LINE
8
BLACK
6
CONTINUOUS
10
15.1077
20
-8.45246
11
15.0863
21
-8.56925
0
LINE
8
BLACK
6
CONTINUOUS
10
15.0863
20
-8.56925
11
15.1433
21
-8.68491
0
LINE
8
BLACK
6
CONTINUOUS
10
15.1433
20
-8.68491
11
15.2587
21
-8.76935
0
LINE
8
BLACK
6
CONTINUOUS
10
15.2587
20
-8.76935
11
15.3328
21
-8.78992
0
LINE
8
BLACK
6
CONTINUOUS
10
15.3328
20
-8.78992
11
15.7333
21
-8.85177
0
LINE
8
BLACK
6
CONTINUOUS
10
15.7333
20
-8.85177
11
15.7334
21
-8.85182
0
LINE
8
BLACK
6
CONTINUOUS
10
15.7334
20
-8.85182
11
15.7335
21
-8.8518
0
LINE
8
BLACK
6
CONTINUOUS
10
15.7335
20
-8.8518
11
16.057
21
-8.91422
0
LINE
8
BLACK
6
CONTINUOUS
10
16.057
20
-8.91422
11
16.0571
21
-8.9143
0
LINE
8
BLACK
6
CONTINUOUS
10
16.0571
20
-8.9143
11
16.0572
21
-8.91428
0
LINE
8
BLACK
6
CONTINUOUS
10
16.0572
20
-8.91428
11
16.3317
21
-8.98335
0
LINE
8
BLACK
6
CONTINUOUS
10
16.3317
20
-8.98335
11
16.3318
21
-8.98345
0
LINE
8
BLACK
6
CONTINUOUS
10
16.3318
20
-8.98345
11
16.332
21
-8.98343
0
LINE
8
BLACK
6
CONTINUOUS
10
16.332
20
-8.98343
11
16.5555
21
-9.05462
0
LINE
8
BLACK
6
CONTINUOUS
10
16.5555
20
-9.05462
11
16.5556
21
-9.05471
0
LINE
8
BLACK
6
CONTINUOUS
10
16.5556
20
-9.05471
11
16.5557
21
-9.05471
0
LINE
8
BLACK
6
CONTINUOUS
10
16.5557
20
-9.05471
11
16.7332
21
-9.12283
0
LINE
8
BLACK
6
CONTINUOUS
10
16.7332
20
-9.12283
11
16.7334
21
-9.12307
0
LINE
8
BLACK
6
CONTINUOUS
10
16.7334
20
-9.12307
11
16.7338
21
-9.1231
0
LINE
8
BLACK
6
CONTINUOUS
10
16.7338
20
-9.1231
11
16.8153
21
-9.16714
0
LINE
8
BLACK
6
CONTINUOUS
10
16.8153
20
-9.16714
11
16.8163
21
-9.16839
0
LINE
8
BLACK
6
CONTINUOUS
10
16.8163
20
-9.16839
11
16.8175
21
-9.1695
0
LINE
8
BLACK
6
CONTINUOUS
10
16.8175
20
-9.1695
11
16.8175
21
-9.16984
0
LINE
8
BLACK
6
CONTINUOUS
10
16.8175
20
-9.16984
11
16.8177
21
-9.17011
0
LINE
8
BLACK
6
CONTINUOUS
10
16.8177
20
-9.17011
11
16.8175
21
-9.17171
0
LINE
8
BLACK
6
CONTINUOUS
10
16.8175
20
-9.17171
11
16.8176
21
-9.17332
0
LINE
8
BLACK
6
CONTINUOUS
10
16.8176
20
-9.17332
11
16.8106
21
-9.19165
0
LINE
8
BLACK
6
CONTINUOUS
10
16.8106
20
-9.19165
11
16.8097
21
-9.1926
0
LINE
8
BLACK
6
CONTINUOUS
10
16.8097
20
-9.1926
11
16.809
21
-9.19375
0
LINE
8
BLACK
6
CONTINUOUS
10
16.809
20
-9.19375
11
16.8084
21
-9.19394
0
LINE
8
BLACK
6
CONTINUOUS
10
16.8084
20
-9.19394
11
16.8079
21
-9.19444
0
LINE
8
BLACK
6
CONTINUOUS
10
16.8079
20
-9.19444
11
16.8066
21
-9.19447
0
LINE
8
BLACK
6
CONTINUOUS
10
16.8066
20
-9.19447
11
16.8054
21
-9.19484
0
LINE
8
BLACK
6
CONTINUOUS
10
16.8054
20
-9.19484
11
16.7173
21
-9.18585
0
LINE
8
BLACK
6
CONTINUOUS
10
16.7173
20
-9.18585
11
16.717
21
-9.18569
0
LINE
8
BLACK
6
CONTINUOUS
10
16.717
20
-9.18569
11
16.7167
21
-9.18574
0
LINE
8
BLACK
6
CONTINUOUS
10
16.7167
20
-9.18574
11
16.5551
21
-9.1478
0
LINE
8
BLACK
6
CONTINUOUS
10
16.5551
20
-9.1478
11
16.555
21
-9.14771
0
LINE
8
BLACK
6
CONTINUOUS
10
16.555
20
-9.14771
11
16.5548
21
-9.14773
0
LINE
8
BLACK
6
CONTINUOUS
10
16.5548
20
-9.14773
11
16.3903
21
-9.09945
0
LINE
8
BLACK
6
CONTINUOUS
10
16.3903
20
-9.09945
11
16.1731
21
-9.04442
0
LINE
8
BLACK
6
CONTINUOUS
10
16.1731
20
-9.04442
11
15.9064
21
-8.99517
0
LINE
8
BLACK
6
CONTINUOUS
10
15.9064
20
-8.99517
11
15.6463
21
-8.96199
0
LINE
8
BLACK
6
CONTINUOUS
10
15.6463
20
-8.96199
11
15.6358
21
-8.96105
0
LINE
8
BLACK
6
CONTINUOUS
10
15.6358
20
-8.96105
11
15.2094
21
-8.92386
0
LINE
8
BLACK
6
CONTINUOUS
10
15.2094
20
-8.92386
11
15.2603
21
-9.05757
0
LINE
8
BLACK
6
CONTINUOUS
10
15.2603
20
-9.05757
11
15.2603
21
-9.05787
0
LINE
8
BLACK
6
CONTINUOUS
10
15.2603
20
-9.05787
11
15.2604
21
-9.05811
0
LINE
8
BLACK
6
CONTINUOUS
10
15.2604
20
-9.05811
11
15.2876
21
-9.16432
0
LINE
8
BLACK
6
CONTINUOUS
10
15.2876
20
-9.16432
11
15.2876
21
-9.16452
0
LINE
8
BLACK
6
CONTINUOUS
10
15.2876
20
-9.16452
11
15.2877
21
-9.16469
0
LINE
8
BLACK
6
CONTINUOUS
10
15.2877
20
-9.16469
11
15.2873
21
-9.16639
0
LINE
8
BLACK
6
CONTINUOUS
10
15.2873
20
-9.16639
11
15.2871
21
-9.16811
0
LINE
8
BLACK
6
CONTINUOUS
10
15.2871
20
-9.16811
11
15.2869
21
-9.16823
0
LINE
8
BLACK
6
CONTINUOUS
10
15.2869
20
-9.16823
11
15.2869
21
-9.16843
0
LINE
8
BLACK
6
CONTINUOUS
10
15.2869
20
-9.16843
11
15.248
21
-9.22396
0
LINE
8
BLACK
6
CONTINUOUS
10
15.248
20
-9.22396
11
15.2468
21
-9.22469
0
LINE
8
BLACK
6
CONTINUOUS
10
15.2468
20
-9.22469
11
15.2459
21
-9.22567
0
LINE
8
BLACK
6
CONTINUOUS
10
15.2459
20
-9.22567
11
15.1928
21
-9.24912
0
LINE
8
BLACK
6
CONTINUOUS
10
15.1928
20
-9.24912
11
15.1923
21
-9.24914
0
LINE
8
BLACK
6
CONTINUOUS
10
15.1923
20
-9.24914
11
15.1918
21
-9.24943
0
LINE
8
BLACK
6
CONTINUOUS
10
15.1918
20
-9.24943
11
15.0745
21
-9.27515
0
LINE
8
BLACK
6
CONTINUOUS
10
15.0745
20
-9.27515
11
15.0738
21
-9.27502
0
LINE
8
BLACK
6
CONTINUOUS
10
15.0738
20
-9.27502
11
15.073
21
-9.27525
0
LINE
8
BLACK
6
CONTINUOUS
10
15.073
20
-9.27525
11
15.0113
21
-9.2703
0
LINE
8
BLACK
6
CONTINUOUS
10
15.0113
20
-9.2703
11
14.9484
21
-9.28361
0
LINE
8
BLACK
6
CONTINUOUS
10
14.9484
20
-9.28361
11
14.9172
21
-9.35949
0
LINE
8
BLACK
6
CONTINUOUS
10
14.9172
20
-9.35949
11
14.9226
21
-9.46546
0
LINE
8
BLACK
6
CONTINUOUS
10
14.9226
20
-9.46546
11
14.9707
21
-9.56423
0
LINE
8
BLACK
6
CONTINUOUS
10
14.9707
20
-9.56423
11
14.9736
21
-9.56757
0
LINE
8
BLACK
6
CONTINUOUS
10
14.9736
20
-9.56757
11
14.9737
21
-9.56769
0
LINE
8
BLACK
6
CONTINUOUS
10
14.9737
20
-9.56769
11
14.9738
21
-9.56774
0
LINE
8
BLACK
6
CONTINUOUS
10
14.9738
20
-9.56774
11
15.0336
21
-9.64216
0
LINE
8
BLACK
6
CONTINUOUS
10
15.0336
20
-9.64216
11
15.0341
21
-9.64367
0
LINE
8
BLACK
6
CONTINUOUS
10
15.0341
20
-9.64367
11
15.0347
21
-9.64509
0
LINE
8
BLACK
6
CONTINUOUS
10
15.0347
20
-9.64509
11
15.0346
21
-9.64546
0
LINE
8
BLACK
6
CONTINUOUS
10
15.0346
20
-9.64546
11
15.0347
21
-9.64583
0
LINE
8
BLACK
6
CONTINUOUS
10
15.0347
20
-9.64583
11
15.034
21
-9.64721
0
LINE
8
BLACK
6
CONTINUOUS
10
15.034
20
-9.64721
11
15.0334
21
-9.64869
0
LINE
8
BLACK
6
CONTINUOUS
10
15.0334
20
-9.64869
11
15.0109
21
-9.67311
0
LINE
8
BLACK
6
CONTINUOUS
10
15.0109
20
-9.67311
11
15.0108
21
-9.67314
0
LINE
8
BLACK
6
CONTINUOUS
10
15.0108
20
-9.67314
11
15.0108
21
-9.67319
0
LINE
8
BLACK
6
CONTINUOUS
10
15.0108
20
-9.67319
11
15.0091
21
-9.67393
0
LINE
8
BLACK
6
CONTINUOUS
10
15.0091
20
-9.67393
11
15.0074
21
-9.67472
0
LINE
8
BLACK
6
CONTINUOUS
10
15.0074
20
-9.67472
11
15.0074
21
-9.6747
0
LINE
8
BLACK
6
CONTINUOUS
10
15.0074
20
-9.6747
11
15.0073
21
-9.67472
0
LINE
8
BLACK
6
CONTINUOUS
10
15.0073
20
-9.67472
11
14.9351
21
-9.67623
0
LINE
8
BLACK
6
CONTINUOUS
10
14.9351
20
-9.67623
11
14.9345
21
-9.676
0
LINE
8
BLACK
6
CONTINUOUS
10
14.9345
20
-9.676
11
14.9338
21
-9.6761
0
LINE
8
BLACK
6
CONTINUOUS
10
14.9338
20
-9.6761
11
14.7888
21
-9.6425
0
LINE
8
BLACK
6
CONTINUOUS
10
14.7888
20
-9.6425
11
14.7882
21
-9.64209
0
LINE
8
BLACK
6
CONTINUOUS
10
14.7882
20
-9.64209
11
14.7875
21
-9.64202
0
LINE
8
BLACK
6
CONTINUOUS
10
14.7875
20
-9.64202
11
14.7008
21
-9.59494
0
LINE
8
BLACK
6
CONTINUOUS
10
14.7008
20
-9.59494
11
14.7002
21
-9.59422
0
LINE
8
BLACK
6
CONTINUOUS
10
14.7002
20
-9.59422
11
14.6994
21
-9.5938
0
LINE
8
BLACK
6
CONTINUOUS
10
14.6994
20
-9.5938
11
14.6284
21
-9.51086
0
LINE
8
BLACK
6
CONTINUOUS
10
14.6284
20
-9.51086
11
14.6282
21
-9.51054
0
LINE
8
BLACK
6
CONTINUOUS
10
14.6282
20
-9.51054
11
14.628
21
-9.51035
0
LINE
8
BLACK
6
CONTINUOUS
10
14.628
20
-9.51035
11
14.6277
21
-9.50876
0
LINE
8
BLACK
6
CONTINUOUS
10
14.6277
20
-9.50876
11
14.6272
21
-9.50722
0
LINE
8
BLACK
6
CONTINUOUS
10
14.6272
20
-9.50722
11
14.6273
21
-9.50692
0
LINE
8
BLACK
6
CONTINUOUS
10
14.6273
20
-9.50692
11
14.6273
21
-9.50659
0
LINE
8
BLACK
6
CONTINUOUS
10
14.6273
20
-9.50659
11
14.6454
21
-9.41923
0
LINE
8
BLACK
6
CONTINUOUS
10
14.6454
20
-9.41923
11
14.6455
21
-9.4191
0
LINE
8
BLACK
6
CONTINUOUS
10
14.6455
20
-9.4191
11
14.6454
21
-9.41895
0
LINE
8
BLACK
6
CONTINUOUS
10
14.6454
20
-9.41895
11
14.6756
21
-9.30725
0
LINE
8
BLACK
6
CONTINUOUS
10
14.6756
20
-9.30725
11
14.6819
21
-9.15295
0
LINE
8
BLACK
6
CONTINUOUS
10
14.6819
20
-9.15295
11
14.6805
21
-9.13106
0
LINE
8
BLACK
6
CONTINUOUS
10
14.6805
20
-9.13106
11
14.6604
21
-9.00132
0
LINE
8
BLACK
6
CONTINUOUS
10
14.6604
20
-9.00132
11
14.6568
21
-8.99699
0
LINE
8
BLACK
6
CONTINUOUS
10
14.6568
20
-8.99699
11
14.6156
21
-8.94791
0
LINE
8
BLACK
6
CONTINUOUS
10
14.6156
20
-8.94791
11
14.5309
21
-8.93711
0
LINE
8
BLACK
6
CONTINUOUS
10
14.5309
20
-8.93711
11
14.3553
21
-8.94997
0
LINE
8
BLACK
6
CONTINUOUS
10
14.3553
20
-8.94997
11
14.1176
21
-8.98383
0
LINE
8
BLACK
6
CONTINUOUS
10
14.1176
20
-8.98383
11
13.8583
21
-9.03147
0
LINE
8
BLACK
6
CONTINUOUS
10
13.8583
20
-9.03147
11
13.618
21
-9.08563
0
LINE
8
BLACK
6
CONTINUOUS
10
13.618
20
-9.08563
11
13.4711
21
-9.12727
0
LINE
8
BLACK
6
CONTINUOUS
10
13.4711
20
-9.12727
11
13.4711
21
-9.12727
0
LINE
8
BLACK
6
CONTINUOUS
10
13.4711
20
-9.12727
11
13.2769
21
-9.18403
0
LINE
8
BLACK
6
CONTINUOUS
10
13.2769
20
-9.18403
11
13.2765
21
-9.18399
0
LINE
8
BLACK
6
CONTINUOUS
10
13.2765
20
-9.18399
11
13.2762
21
-9.18418
0
LINE
8
BLACK
6
CONTINUOUS
10
13.2762
20
-9.18418
11
13.1692
21
-9.19951
0
LINE
8
BLACK
6
CONTINUOUS
10
13.1692
20
-9.19951
11
13.1682
21
-9.19926
0
LINE
8
BLACK
6
CONTINUOUS
10
13.1682
20
-9.19926
11
13.1673
21
-9.1994
0
LINE
8
BLACK
6
CONTINUOUS
10
13.1673
20
-9.1994
11
13.1665
21
-9.19881
0
LINE
8
BLACK
6
CONTINUOUS
10
13.1665
20
-9.19881
11
13.1655
21
-9.19856
0
LINE
8
BLACK
6
CONTINUOUS
10
13.1655
20
-9.19856
11
13.165
21
-9.1977
0
LINE
8
BLACK
6
CONTINUOUS
10
13.165
20
-9.1977
11
13.1642
21
-9.1971
0
LINE
8
BLACK
6
CONTINUOUS
10
13.1642
20
-9.1971
11
13.1486
21
-9.17062
0
LINE
8
BLACK
6
CONTINUOUS
10
13.1486
20
-9.17062
11
13.1484
21
-9.16946
0
LINE
8
BLACK
6
CONTINUOUS
10
13.1484
20
-9.16946
11
13.1479
21
-9.1684
0
LINE
8
BLACK
6
CONTINUOUS
10
13.1479
20
-9.1684
11
13.1481
21
-9.16763
0
LINE
8
BLACK
6
CONTINUOUS
10
13.1481
20
-9.16763
11
13.148
21
-9.16683
0
LINE
8
BLACK
6
CONTINUOUS
10
13.148
20
-9.16683
11
13.1487
21
-9.16589
0
LINE
8
BLACK
6
CONTINUOUS
10
13.1487
20
-9.16589
11
13.1491
21
-9.16477
0
LINE
8
BLACK
6
CONTINUOUS
10
13.1491
20
-9.16477
11
13.1662
21
-9.1454
0
LINE
8
BLACK
6
CONTINUOUS
10
13.1662
20
-9.1454
11
13.167
21
-9.14501
0
LINE
8
BLACK
6
CONTINUOUS
10
13.167
20
-9.14501
11
13.1675
21
-9.14432
0
LINE
8
BLACK
6
CONTINUOUS
10
13.1675
20
-9.14432
11
13.2606
21
-9.09325
0
LINE
8
BLACK
6
CONTINUOUS
10
13.2606
20
-9.09325
11
13.261
21
-9.09321
0
LINE
8
BLACK
6
CONTINUOUS
10
13.261
20
-9.09321
11
13.2613
21
-9.09293
0
LINE
8
BLACK
6
CONTINUOUS
10
13.2613
20
-9.09293
11
13.4308
21
-9.03178
0
LINE
8
BLACK
6
CONTINUOUS
10
13.4308
20
-9.03178
11
13.4309
21
-9.03179
0
LINE
8
BLACK
6
CONTINUOUS
10
13.4309
20
-9.03179
11
13.4311
21
-9.03169
0
LINE
8
BLACK
6
CONTINUOUS
10
13.4311
20
-9.03169
11
13.6489
21
-8.96809
0
LINE
8
BLACK
6
CONTINUOUS
10
13.6489
20
-8.96809
11
13.6491
21
-8.9681
0
LINE
8
BLACK
6
CONTINUOUS
10
13.6491
20
-8.9681
11
13.6491
21
-8.96803
0
LINE
8
BLACK
6
CONTINUOUS
10
13.6491
20
-8.96803
11
13.8875
21
-8.90962
0
LINE
8
BLACK
6
CONTINUOUS
10
13.8875
20
-8.90962
11
13.8876
21
-8.90964
0
LINE
8
BLACK
6
CONTINUOUS
10
13.8876
20
-8.90964
11
13.8877
21
-8.90957
0
LINE
8
BLACK
6
CONTINUOUS
10
13.8877
20
-8.90957
11
14.1185
21
-8.86397
0
LINE
8
BLACK
6
CONTINUOUS
10
14.1185
20
-8.86397
11
14.1186
21
-8.864
0
LINE
8
BLACK
6
CONTINUOUS
10
14.1186
20
-8.864
11
14.1187
21
-8.86392
0
LINE
8
BLACK
6
CONTINUOUS
10
14.1187
20
-8.86392
11
14.2736
21
-8.84236
0
LINE
8
BLACK
6
CONTINUOUS
10
14.2736
20
-8.84236
11
14.2737
21
-8.84236
0
LINE
8
BLACK
6
CONTINUOUS
10
14.2737
20
-8.84236
11
14.2737
21
-8.84235
0
LINE
8
BLACK
6
CONTINUOUS
10
14.2737
20
-8.84235
11
14.4586
21
-8.81879
0
LINE
8
BLACK
6
CONTINUOUS
10
14.4586
20
-8.81879
11
14.6035
21
-8.79198
0
LINE
8
BLACK
6
CONTINUOUS
10
14.6035
20
-8.79198
11
14.6684
21
-8.77134
0
LINE
8
BLACK
6
CONTINUOUS
10
14.6684
20
-8.77134
11
14.6784
21
-8.75114
0
LINE
8
BLACK
6
CONTINUOUS
10
14.6784
20
-8.75114
11
14.6825
21
-8.74277
0
LINE
8
BLACK
6
CONTINUOUS
10
14.6825
20
-8.74277
11
14.6745
21
-8.67489
0
LINE
8
BLACK
6
CONTINUOUS
10
14.6745
20
-8.67489
11
14.6385
21
-8.55713
0
LINE
8
BLACK
6
CONTINUOUS
10
14.6385
20
-8.55713
11
14.5706
21
-8.37989
0
LINE
8
BLACK
6
CONTINUOUS
10
14.5706
20
-8.37989
11
14.467
21
-8.13281
0
LINE
8
BLACK
6
CONTINUOUS
10
14.467
20
-8.13281
11
14.3238
21
-7.80543
0
LINE
8
BLACK
6
CONTINUOUS
10
14.3238
20
-7.80543
11
14.2434
21
-7.62443
0
LINE
8
BLACK
6
CONTINUOUS
10
14.2434
20
-7.62443
11
14.2434
21
-7.62425
0
LINE
8
BLACK
6
CONTINUOUS
10
14.2434
20
-7.62425
11
14.2432
21
-7.62412
0
LINE
8
BLACK
6
CONTINUOUS
10
14.2432
20
-7.62412
11
14.1941
21
-7.49074
0
LINE
8
BLACK
6
CONTINUOUS
10
14.1941
20
-7.49074
11
14.1942
21
-7.49012
0
LINE
8
BLACK
6
CONTINUOUS
10
14.1942
20
-7.49012
11
14.1939
21
-7.48957
0
LINE
8
BLACK
6
CONTINUOUS
10
14.1939
20
-7.48957
11
14.185
21
-7.40958
0
LINE
8
BLACK
6
CONTINUOUS
10
14.185
20
-7.40958
11
14.1851
21
-7.40919
0
LINE
8
BLACK
6
CONTINUOUS
10
14.1851
20
-7.40919
11
14.1849
21
-7.40881
0
LINE
8
BLACK
6
CONTINUOUS
10
14.1849
20
-7.40881
11
14.1856
21
-7.4074
0
LINE
8
BLACK
6
CONTINUOUS
10
14.1856
20
-7.4074
11
14.186
21
-7.40591
0
LINE
8
BLACK
6
CONTINUOUS
10
14.186
20
-7.40591
11
14.1864
21
-7.40571
0
LINE
8
BLACK
6
CONTINUOUS
10
14.1864
20
-7.40571
11
14.1866
21
-7.40534
0
LINE
8
BLACK
6
CONTINUOUS
10
14.1866
20
-7.40534
11
14.1992
21
-7.39381
0
LINE
8
BLACK
6
CONTINUOUS
10
14.1992
20
-7.39381
11
14.2007
21
-7.39325
0
LINE
8
BLACK
6
CONTINUOUS
10
14.2007
20
-7.39325
11
14.2022
21
-7.39251
0
LINE
8
BLACK
6
CONTINUOUS
10
14.2022
20
-7.39251
11
14.2025
21
-7.39261
0
LINE
8
BLACK
6
CONTINUOUS
10
14.2025
20
-7.39261
11
14.2028
21
-7.3925
0
LINE
8
BLACK
6
CONTINUOUS
10
14.2028
20
-7.3925
11
14.2043
21
-7.3932
0
LINE
8
BLACK
6
CONTINUOUS
10
14.2043
20
-7.3932
11
14.2058
21
-7.3937
0
LINE
8
BLACK
6
CONTINUOUS
10
14.2058
20
-7.3937
11
14.2579
21
-7.43832
0
LINE
8
BLACK
6
CONTINUOUS
10
14.2579
20
-7.43832
11
14.2583
21
-7.43911
0
LINE
8
BLACK
6
CONTINUOUS
10
14.2583
20
-7.43911
11
14.259
21
-7.43966
0
LINE
8
BLACK
6
CONTINUOUS
10
14.259
20
-7.43966
11
14.3215
21
-7.55093
0
LINE
8
BLACK
6
CONTINUOUS
10
14.3215
20
-7.55093
11
14.3216
21
-7.55123
0
LINE
8
BLACK
6
CONTINUOUS
10
14.3216
20
-7.55123
11
14.3218
21
-7.55144
0
LINE
8
BLACK
6
CONTINUOUS
10
14.3218
20
-7.55144
11
14.3397
21
-7.594
0
LINE
8
BLACK
6
CONTINUOUS
10
14.3397
20
-7.594
11
14.3397
21
-7.59403
0
LINE
8
BLACK
6
CONTINUOUS
10
14.3397
20
-7.59403
11
14.3397
21
-7.59405
0
LINE
8
BLACK
6
CONTINUOUS
10
14.3397
20
-7.59405
11
14.4117
21
-7.77073
0
LINE
8
BLACK
6
CONTINUOUS
10
14.4117
20
-7.77073
11
14.4836
21
-7.93698
0
LINE
8
BLACK
6
CONTINUOUS
10
14.4836
20
-7.93698
11
14.49
21
-7.95105
0
LINE
8
BLACK
6
CONTINUOUS
10
14.49
20
-7.95105
11
14.49
21
-7.9511
0
LINE
8
BLACK
6
CONTINUOUS
10
14.49
20
-7.9511
11
14.4901
21
-7.95114
0
LINE
8
BLACK
6
CONTINUOUS
10
14.4901
20
-7.95114
11
14.5633
21
-8.12041
0
LINE
8
BLACK
6
CONTINUOUS
10
14.5633
20
-8.12041
11
14.5633
21
-8.12049
0
LINE
8
BLACK
6
CONTINUOUS
10
14.5633
20
-8.12049
11
14.5634
21
-8.12054
0
LINE
8
BLACK
6
CONTINUOUS
10
14.5634
20
-8.12054
11
14.6283
21
-8.28303
0
LINE
8
BLACK
6
CONTINUOUS
10
14.6283
20
-8.28303
11
14.6979
21
-8.43547
0
LINE
8
BLACK
6
CONTINUOUS
10
14.6979
20
-8.43547
11
14.7443
21
-8.48211
0
LINE
8
BLACK
6
CONTINUOUS
10
14.7443
20
-8.48211
11
14.768
21
-8.44027
0
LINE
8
BLACK
6
CONTINUOUS
10
14.768
20
-8.44027
11
14.7655
21
-8.29423
0
LINE
8
BLACK
6
CONTINUOUS
10
14.7655
20
-8.29423
11
14.7655
21
-8.29299
0
LINE
8
BLACK
6
CONTINUOUS
10
14.7655
20
-8.29299
11
14.763
21
-8.26903
0
LINE
8
BLACK
6
CONTINUOUS
10
14.763
20
-8.26903
11
14.763
21
-8.2688
0
LINE
8
BLACK
6
CONTINUOUS
10
14.763
20
-8.2688
11
14.7629
21
-8.26859
0
LINE
8
BLACK
6
CONTINUOUS
10
14.7629
20
-8.26859
11
14.7591
21
-8.04966
0
LINE
8
BLACK
6
CONTINUOUS
10
14.7591
20
-8.04966
11
14.7594
21
-8.04886
0
LINE
8
BLACK
6
CONTINUOUS
10
14.7594
20
-8.04886
11
14.7594
21
-8.04801
0
LINE
8
BLACK
6
CONTINUOUS
10
14.7594
20
-8.04801
11
14.8091
21
-7.89692
0
LINE
8
BLACK
6
CONTINUOUS
10
14.8091
20
-7.89692
11
14.8095
21
-7.89643
0
LINE
8
BLACK
6
CONTINUOUS
10
14.8095
20
-7.89643
11
14.8096
21
-7.8958
0
LINE
8
BLACK
6
CONTINUOUS
10
14.8096
20
-7.8958
11
14.8139
21
-7.88905
0
LINE
8
BLACK
6
CONTINUOUS
10
14.8139
20
-7.88905
11
14.8635
21
-7.79414
0
LINE
8
BLACK
6
CONTINUOUS
10
14.8635
20
-7.79414
11
14.847
21
-7.73087
0
LINE
8
BLACK
6
CONTINUOUS
10
14.847
20
-7.73087
11
14.8159
21
-7.69628
0
LINE
8
BLACK
6
CONTINUOUS
10
14.8159
20
-7.69628
11
14.7421
21
-7.64816
0
LINE
8
BLACK
6
CONTINUOUS
10
14.7421
20
-7.64816
11
14.7087
21
-7.65193
0
LINE
8
BLACK
6
CONTINUOUS
10
14.7087
20
-7.65193
11
14.7083
21
-7.65181
0
LINE
8
BLACK
6
CONTINUOUS
10
14.7083
20
-7.65181
11
14.7079
21
-7.65196
0
LINE
8
BLACK
6
CONTINUOUS
10
14.7079
20
-7.65196
11
14.7065
21
-7.65129
0
LINE
8
BLACK
6
CONTINUOUS
10
14.7065
20
-7.65129
11
14.7051
21
-7.65088
0
LINE
8
BLACK
6
CONTINUOUS
10
14.7051
20
-7.65088
11
14.7048
21
-7.65049
0
LINE
8
BLACK
6
CONTINUOUS
10
14.7048
20
-7.65049
11
14.7044
21
-7.6503
0
LINE
8
BLACK
6
CONTINUOUS
10
14.7044
20
-7.6503
11
14.6832
21
-7.62654
0
LINE
8
BLACK
6
CONTINUOUS
10
14.6832
20
-7.62654
11
14.6827
21
-7.6251
0
LINE
8
BLACK
6
CONTINUOUS
10
14.6827
20
-7.6251
11
14.682
21
-7.62376
0
LINE
8
BLACK
6
CONTINUOUS
10
14.682
20
-7.62376
11
14.6709
21
-7.52356
0
LINE
8
BLACK
6
CONTINUOUS
10
14.6709
20
-7.52356
11
14.671
21
-7.52332
0
LINE
8
BLACK
6
CONTINUOUS
10
14.671
20
-7.52332
11
14.6709
21
-7.52309
0
LINE
8
BLACK
6
CONTINUOUS
10
14.6709
20
-7.52309
11
14.6704
21
-7.49249
0
LINE
8
BLACK
6
CONTINUOUS
10
14.6704
20
-7.49249
11
14.6572
21
-7.24341
0
LINE
8
BLACK
6
CONTINUOUS
10
14.6572
20
-7.24341
11
14.6297
21
-7.14235
0
LINE
8
BLACK
6
CONTINUOUS
10
14.6297
20
-7.14235
11
14.6116
21
-7.07555
0
LINE
8
BLACK
6
CONTINUOUS
10
14.6116
20
-7.07555
11
14.5247
21
-6.96516
0
LINE
8
BLACK
6
CONTINUOUS
10
14.5247
20
-6.96516
11
14.4327
21
-6.90879
0
LINE
8
BLACK
6
CONTINUOUS
10
14.4327
20
-6.90879
11
14.2624
21
-6.82759
0
LINE
8
BLACK
6
CONTINUOUS
10
14.2624
20
-6.82759
11
14.2468
21
-7.04293
0
LINE
8
BLACK
6
CONTINUOUS
10
14.2468
20
-7.04293
11
14.2467
21
-7.04304
0
LINE
8
BLACK
6
CONTINUOUS
10
14.2467
20
-7.04304
11
14.2468
21
-7.04315
0
LINE
8
BLACK
6
CONTINUOUS
10
14.2468
20
-7.04315
11
14.2302
21
-7.183
0
LINE
8
BLACK
6
CONTINUOUS
10
14.2302
20
-7.183
11
14.2297
21
-7.18389
0
LINE
8
BLACK
6
CONTINUOUS
10
14.2297
20
-7.18389
11
14.2296
21
-7.18491
0
LINE
8
BLACK
6
CONTINUOUS
10
14.2296
20
-7.18491
11
14.1945
21
-7.24599
0
LINE
8
BLACK
6
CONTINUOUS
10
14.1945
20
-7.24599
11
14.1943
21
-7.24621
0
LINE
8
BLACK
6
CONTINUOUS
10
14.1943
20
-7.24621
11
14.1942
21
-7.24656
0
LINE
8
BLACK
6
CONTINUOUS
10
14.1942
20
-7.24656
11
14.1928
21
-7.24735
0
LINE
8
BLACK
6
CONTINUOUS
10
14.1928
20
-7.24735
11
14.1915
21
-7.24833
0
LINE
8
BLACK
6
CONTINUOUS
10
14.1915
20
-7.24833
11
14.1911
21
-7.24829
0
LINE
8
BLACK
6
CONTINUOUS
10
14.1911
20
-7.24829
11
14.1908
21
-7.24846
0
LINE
8
BLACK
6
CONTINUOUS
10
14.1908
20
-7.24846
11
14.1179
21
-7.25786
0
LINE
8
BLACK
6
CONTINUOUS
10
14.1179
20
-7.25786
11
14.1173
21
-7.25771
0
LINE
8
BLACK
6
CONTINUOUS
10
14.1173
20
-7.25771
11
14.1168
21
-7.25788
0
LINE
8
BLACK
6
CONTINUOUS
10
14.1168
20
-7.25788
11
14.0929
21
-7.25561
0
LINE
8
BLACK
6
CONTINUOUS
10
14.0929
20
-7.25561
11
14.0929
21
-7.25561
0
LINE
8
BLACK
6
CONTINUOUS
10
14.0929
20
-7.25561
11
13.9512
21
-7.2432
0
LINE
8
BLACK
6
CONTINUOUS
10
13.9512
20
-7.2432
11
13.8692
21
-7.23902
0
LINE
8
BLACK
6
CONTINUOUS
10
13.8692
20
-7.23902
11
13.8688
21
-7.23883
0
LINE
8
BLACK
6
CONTINUOUS
10
13.8688
20
-7.23883
11
13.8684
21
-7.23891
0
LINE
8
BLACK
6
CONTINUOUS
10
13.8684
20
-7.23891
11
13.7822
21
-7.21988
0
LINE
8
BLACK
6
CONTINUOUS
10
13.7822
20
-7.21988
11
13.7819
21
-7.2197
0
LINE
8
BLACK
6
CONTINUOUS
10
13.7819
20
-7.2197
11
13.7816
21
-7.21972
0
LINE
8
BLACK
6
CONTINUOUS
10
13.7816
20
-7.21972
11
13.7804
21
-7.21863
0
LINE
8
BLACK
6
CONTINUOUS
10
13.7804
20
-7.21863
11
13.779
21
-7.21769
0
LINE
8
BLACK
6
CONTINUOUS
10
13.779
20
-7.21769
11
13.779
21
-7.21737
0
LINE
8
BLACK
6
CONTINUOUS
10
13.779
20
-7.21737
11
13.7787
21
-7.21716
0
LINE
8
BLACK
6
CONTINUOUS
10
13.7787
20
-7.21716
11
13.7497
21
-7.15656
0
LINE
8
BLACK
6
CONTINUOUS
10
13.7497
20
-7.15656
11
13.7496
21
-7.15484
0
LINE
8
BLACK
6
CONTINUOUS
10
13.7496
20
-7.15484
11
13.7493
21
-7.15315
0
LINE
8
BLACK
6
CONTINUOUS
10
13.7493
20
-7.15315
11
13.779
21
-7.03816
0
LINE
8
BLACK
6
CONTINUOUS
10
13.779
20
-7.03816
11
13.7793
21
-7.03773
0
LINE
8
BLACK
6
CONTINUOUS
10
13.7793
20
-7.03773
11
13.7794
21
-7.03719
0
LINE
8
BLACK
6
CONTINUOUS
10
13.7794
20
-7.03719
11
13.8694
21
-6.85502
0
LINE
8
BLACK
6
CONTINUOUS
10
13.8694
20
-6.85502
11
13.8696
21
-6.85492
0
LINE
8
BLACK
6
CONTINUOUS
10
13.8696
20
-6.85492
11
13.8696
21
-6.85478
0
LINE
8
BLACK
6
CONTINUOUS
10
13.8696
20
-6.85478
11
13.9248
21
-6.75682
0
LINE
8
BLACK
6
CONTINUOUS
10
13.9248
20
-6.75682
11
13.9248
21
-6.75682
0
LINE
8
BLACK
6
CONTINUOUS
10
13.9248
20
-6.75682
11
14.0364
21
-6.55085
0
LINE
8
BLACK
6
CONTINUOUS
10
14.0364
20
-6.55085
11
14.1328
21
-6.35101
0
LINE
8
BLACK
6
CONTINUOUS
10
14.1328
20
-6.35101
11
14.195
21
-6.19696
0
LINE
8
BLACK
6
CONTINUOUS
10
14.195
20
-6.19696
11
14.1994
21
-6.18312
0
LINE
8
BLACK
6
CONTINUOUS
10
14.1994
20
-6.18312
11
14.2595
21
-5.98254
0
LINE
8
BLACK
6
CONTINUOUS
10
14.2595
20
-5.98254
11
13.845
21
-5.5834
0
LINE
8
BLACK
6
CONTINUOUS
10
13.845
20
-5.5834
11
13.845
21
-5.5834
0
LINE
8
BLACK
6
CONTINUOUS
10
13.845
20
-5.5834
11
13.845
21
-5.58339
0
LINE
8
BLACK
6
CONTINUOUS
10
13.845
20
-5.58339
11
13.6721
21
-5.41644
0
LINE
8
BLACK
6
CONTINUOUS
10
13.6721
20
-5.41644
11
13.6721
21
-5.41643
0
LINE
8
BLACK
6
CONTINUOUS
10
13.6721
20
-5.41643
11
13.6721
21
-5.41643
0
LINE
8
BLACK
6
CONTINUOUS
10
13.6721
20
-5.41643
11
13.5267
21
-5.27534
0
LINE
8
BLACK
6
CONTINUOUS
10
13.5267
20
-5.27534
11
13.5267
21
-5.27533
0
LINE
8
BLACK
6
CONTINUOUS
10
13.5267
20
-5.27533
11
13.5267
21
-5.27533
0
LINE
8
BLACK
6
CONTINUOUS
10
13.5267
20
-5.27533
11
13.4264
21
-5.17706
0
LINE
8
BLACK
6
CONTINUOUS
10
13.4264
20
-5.17706
11
13.4264
21
-5.17702
0
LINE
8
BLACK
6
CONTINUOUS
10
13.4264
20
-5.17702
11
13.4263
21
-5.17701
0
LINE
8
BLACK
6
CONTINUOUS
10
13.4263
20
-5.17701
11
13.3901
21
-5.14061
0
LINE
8
BLACK
6
CONTINUOUS
10
13.3901
20
-5.14061
11
13.3901
21
-5.14049
0
LINE
8
BLACK
6
CONTINUOUS
10
13.3901
20
-5.14049
11
13.39
21
-5.14044
0
LINE
8
BLACK
6
CONTINUOUS
10
13.39
20
-5.14044
11
13.3254
21
-5.06908
0
LINE
8
BLACK
6
CONTINUOUS
10
13.3254
20
-5.06908
11
13.1904
21
-4.91994
0
LINE
8
BLACK
6
CONTINUOUS
10
13.1904
20
-4.91994
11
13.1904
21
-4.91994
0
LINE
8
BLACK
6
CONTINUOUS
10
13.1904
20
-4.91994
11
13.1855
21
-4.91456
0
LINE
8
BLACK
6
CONTINUOUS
10
13.1855
20
-4.91456
11
13.1855
21
-4.91448
0
LINE
8
BLACK
6
CONTINUOUS
10
13.1855
20
-4.91448
11
13.1854
21
-4.91444
0
LINE
8
BLACK
6
CONTINUOUS
10
13.1854
20
-4.91444
11
13.0475
21
-4.75194
0
LINE
8
BLACK
6
CONTINUOUS
10
13.0475
20
-4.75194
11
13.0474
21
-4.75175
0
LINE
8
BLACK
6
CONTINUOUS
10
13.0474
20
-4.75175
11
13.0472
21
-4.75164
0
LINE
8
BLACK
6
CONTINUOUS
10
13.0472
20
-4.75164
11
12.9671
21
-4.64154
0
LINE
8
BLACK
6
CONTINUOUS
10
12.9671
20
-4.64154
11
12.967
21
-4.64103
0
LINE
8
BLACK
6
CONTINUOUS
10
12.967
20
-4.64103
11
12.9666
21
-4.64067
0
LINE
8
BLACK
6
CONTINUOUS
10
12.9666
20
-4.64067
11
12.9355
21
-4.5722
0
LINE
8
BLACK
6
CONTINUOUS
10
12.9355
20
-4.5722
11
12.9355
21
-4.57032
0
LINE
8
BLACK
6
CONTINUOUS
10
12.9355
20
-4.57032
11
12.9354
21
-4.56846
0
LINE
8
BLACK
6
CONTINUOUS
10
12.9354
20
-4.56846
11
12.9588
21
-4.50248
0
LINE
8
BLACK
6
CONTINUOUS
10
12.9588
20
-4.50248
11
12.9593
21
-4.50202
0
LINE
8
BLACK
6
CONTINUOUS
10
12.9593
20
-4.50202
11
12.9594
21
-4.5014
0
LINE
8
BLACK
6
CONTINUOUS
10
12.9594
20
-4.5014
11
12.9605
21
-4.50065
0
LINE
8
BLACK
6
CONTINUOUS
10
12.9605
20
-4.50065
11
12.9614
21
-4.49964
0
LINE
8
BLACK
6
CONTINUOUS
10
12.9614
20
-4.49964
11
12.962
21
-4.49961
0
LINE
8
BLACK
6
CONTINUOUS
10
12.962
20
-4.49961
11
12.9626
21
-4.49926
0
LINE
8
BLACK
6
CONTINUOUS
10
12.9626
20
-4.49926
11
13.0348
21
-4.48455
0
LINE
8
BLACK
6
CONTINUOUS
10
13.0348
20
-4.48455
11
13.0366
21
-4.48489
0
LINE
8
BLACK
6
CONTINUOUS
10
15.0322
20
-8.84489
11
15.0152
21
-8.99376
0
LINE
8
BLACK
6
CONTINUOUS
10
15.0152
20
-8.99376
11
15.0284
21
-9.10239
0
LINE
8
BLACK
6
CONTINUOUS
10
15.0284
20
-9.10239
11
15.0635
21
-9.1663
0
LINE
8
BLACK
6
CONTINUOUS
10
15.0635
20
-9.1663
11
15.0904
21
-9.15385
0
LINE
8
BLACK
6
CONTINUOUS
10
15.0904
20
-9.15385
11
15.1107
21
-9.07865
0
LINE
8
BLACK
6
CONTINUOUS
10
15.1107
20
-9.07865
11
15.1117
21
-8.96046
0
LINE
8
BLACK
6
CONTINUOUS
10
15.1117
20
-8.96046
11
15.0997
21
-8.879
0
LINE
8
BLACK
6
CONTINUOUS
10
15.0997
20
-8.879
11
15.0655
21
-8.71593
0
LINE
8
BLACK
6
CONTINUOUS
10
15.0655
20
-8.71593
11
15.0322
21
-8.84489
0
LINE
8
BLACK
6
CONTINUOUS
10
14.9678
20
-8.63547
11
14.93
21
-8.66461
0
LINE
8
BLACK
6
CONTINUOUS
10
14.93
20
-8.66461
11
14.8572
21
-8.72938
0
LINE
8
BLACK
6
CONTINUOUS
10
14.8572
20
-8.72938
11
14.8413
21
-8.75189
0
LINE
8
BLACK
6
CONTINUOUS
10
14.8413
20
-8.75189
11
14.8592
21
-8.7629
0
LINE
8
BLACK
6
CONTINUOUS
10
14.8592
20
-8.7629
11
14.9266
21
-8.69784
0
LINE
8
BLACK
6
CONTINUOUS
10
14.9266
20
-8.69784
11
14.9428
21
-8.67767
0
LINE
8
BLACK
6
CONTINUOUS
10
14.9428
20
-8.67767
11
14.9768
21
-8.63115
0
LINE
8
BLACK
6
CONTINUOUS
10
14.9768
20
-8.63115
11
14.9678
21
-8.63547
0
LINE
8
BLACK
6
CONTINUOUS
10
14.86
20
-8.1876
11
14.8392
21
-8.29156
0
LINE
8
BLACK
6
CONTINUOUS
10
14.8392
20
-8.29156
11
14.8392
21
-8.29377
0
LINE
8
BLACK
6
CONTINUOUS
10
14.8392
20
-8.29377
11
14.8614
21
-8.4408
0
LINE
8
BLACK
6
CONTINUOUS
10
14.8614
20
-8.4408
11
14.9153
21
-8.50183
0
LINE
8
BLACK
6
CONTINUOUS
10
14.9153
20
-8.50183
11
14.9868
21
-8.47609
0
LINE
8
BLACK
6
CONTINUOUS
10
14.9868
20
-8.47609
11
15.0415
21
-8.40016
0
LINE
8
BLACK
6
CONTINUOUS
10
15.0415
20
-8.40016
11
15.0672
21
-8.27465
0
LINE
8
BLACK
6
CONTINUOUS
10
15.0672
20
-8.27465
11
15.0084
21
-8.18759
0
LINE
8
BLACK
6
CONTINUOUS
10
15.0084
20
-8.18759
11
14.9269
21
-8.16272
0
LINE
8
BLACK
6
CONTINUOUS
10
14.9269
20
-8.16272
11
14.86
21
-8.1876
0
LINE
8
BLACK
6
CONTINUOUS
10
15.0093
20
-7.14121
11
15.0282
21
-7.20198
0
LINE
8
BLACK
6
CONTINUOUS
10
15.0282
20
-7.20198
11
15.0754
21
-7.2588
0
LINE
8
BLACK
6
CONTINUOUS
10
15.0754
20
-7.2588
11
15.0995
21
-7.25735
0
LINE
8
BLACK
6
CONTINUOUS
10
15.0995
20
-7.25735
11
15.1083
21
-7.20753
0
LINE
8
BLACK
6
CONTINUOUS
10
15.1083
20
-7.20753
11
15.0812
21
-7.16528
0
LINE
8
BLACK
6
CONTINUOUS
10
15.0812
20
-7.16528
11
15.0195
21
-7.11455
0
LINE
8
BLACK
6
CONTINUOUS
10
15.0195
20
-7.11455
11
15.0093
21
-7.14121
0
LINE
8
BLACK
6
CONTINUOUS
10
15.4424
20
-6.03833
11
15.4306
21
-6.107
0
LINE
8
BLACK
6
CONTINUOUS
10
15.4306
20
-6.107
11
15.4594
21
-6.20423
0
LINE
8
BLACK
6
CONTINUOUS
10
15.4594
20
-6.20423
11
15.5094
21
-6.27364
0
LINE
8
BLACK
6
CONTINUOUS
10
15.5094
20
-6.27364
11
15.5272
21
-6.2802
0
LINE
8
BLACK
6
CONTINUOUS
10
15.5272
20
-6.2802
11
15.5522
21
-6.24291
0
LINE
8
BLACK
6
CONTINUOUS
10
15.5522
20
-6.24291
11
15.5407
21
-6.16846
0
LINE
8
BLACK
6
CONTINUOUS
10
15.5407
20
-6.16846
11
15.4975
21
-6.05234
0
LINE
8
BLACK
6
CONTINUOUS
10
15.4975
20
-6.05234
11
15.4635
21
-6.02475
0
LINE
8
BLACK
6
CONTINUOUS
10
15.4635
20
-6.02475
11
15.4424
21
-6.03833
0
LINE
8
BLACK
6
CONTINUOUS
10
14.9066
20
-5.51365
11
14.9419
21
-5.56584
0
LINE
8
BLACK
6
CONTINUOUS
10
14.9419
20
-5.56584
11
15.0532
21
-5.66238
0
LINE
8
BLACK
6
CONTINUOUS
10
15.0532
20
-5.66238
11
15.1255
21
-5.7022
0
LINE
8
BLACK
6
CONTINUOUS
10
15.1255
20
-5.7022
11
15.2219
21
-5.74005
0
LINE
8
BLACK
6
CONTINUOUS
10
15.2219
20
-5.74005
11
15.2496
21
-5.74128
0
LINE
8
BLACK
6
CONTINUOUS
10
15.2496
20
-5.74128
11
15.2523
21
-5.71429
0
LINE
8
BLACK
6
CONTINUOUS
10
15.2523
20
-5.71429
11
15.2062
21
-5.66059
0
LINE
8
BLACK
6
CONTINUOUS
10
15.2062
20
-5.66059
11
15.0716
21
-5.57997
0
LINE
8
BLACK
6
CONTINUOUS
10
15.0716
20
-5.57997
11
14.9147
21
-5.50492
0
LINE
8
BLACK
6
CONTINUOUS
10
14.9147
20
-5.50492
11
14.9066
21
-5.51365
0
LINE
8
BLACK
6
CONTINUOUS
10
16.5019
20
-5.31992
11
16.4526
21
-5.36681
0
LINE
8
BLACK
6
CONTINUOUS
10
16.4526
20
-5.36681
11
16.4561
21
-5.38913
0
LINE
8
BLACK
6
CONTINUOUS
10
16.4561
20
-5.38913
11
16.5279
21
-5.4324
0
LINE
8
BLACK
6
CONTINUOUS
10
16.5279
20
-5.4324
11
16.5924
21
-5.40221
0
LINE
8
BLACK
6
CONTINUOUS
10
16.5924
20
-5.40221
11
16.607
21
-5.34653
0
LINE
8
BLACK
6
CONTINUOUS
10
16.607
20
-5.34653
11
16.5575
21
-5.31336
0
LINE
8
BLACK
6
CONTINUOUS
10
16.5575
20
-5.31336
11
16.5019
21
-5.31992
0
LINE
8
BLACK
6
CONTINUOUS
10
13.4464
20
-5.00407
11
13.4365
21
-5.01839
0
LINE
8
BLACK
6
CONTINUOUS
10
13.4365
20
-5.01839
11
13.4243
21
-5.063
0
LINE
8
BLACK
6
CONTINUOUS
10
13.4243
20
-5.063
11
13.425
21
-5.06333
0
LINE
8
BLACK
6
CONTINUOUS
10
13.425
20
-5.06333
11
13.4703
21
-5.02843
0
LINE
8
BLACK
6
CONTINUOUS
10
13.4703
20
-5.02843
11
13.4802
21
-5.0141
0
LINE
8
BLACK
6
CONTINUOUS
10
13.4802
20
-5.0141
11
13.4924
21
-4.9695
0
LINE
8
BLACK
6
CONTINUOUS
10
13.4924
20
-4.9695
11
13.4917
21
-4.96917
0
LINE
8
BLACK
6
CONTINUOUS
10
13.4917
20
-4.96917
11
13.4464
21
-5.00407
0
LINE
8
BLACK
6
CONTINUOUS
10
13.2879
20
-4.82619
11
13.2872
21
-4.91432
0
LINE
8
BLACK
6
CONTINUOUS
10
13.2872
20
-4.91432
11
13.3377
21
-4.95807
0
LINE
8
BLACK
6
CONTINUOUS
10
13.3377
20
-4.95807
11
13.405
21
-4.93743
0
LINE
8
BLACK
6
CONTINUOUS
10
13.405
20
-4.93743
11
13.4229
21
-4.91498
0
LINE
8
BLACK
6
CONTINUOUS
10
13.4229
20
-4.91498
11
13.4138
21
-4.85041
0
LINE
8
BLACK
6
CONTINUOUS
10
13.4138
20
-4.85041
11
13.3815
21
-4.81335
0
LINE
8
BLACK
6
CONTINUOUS
10
13.3815
20
-4.81335
11
13.3185
21
-4.78524
0
LINE
8
BLACK
6
CONTINUOUS
10
13.3185
20
-4.78524
11
13.2879
21
-4.82619
0
LINE
8
BLACK
6
CONTINUOUS
10
16.5575
20
-5.33021
11
16.584
21
-5.35667
0
LINE
8
BLACK
6
CONTINUOUS
10
16.584
20
-5.35667
11
16.5854
21
-5.36021
0
LINE
8
BLACK
6
CONTINUOUS
10
16.5854
20
-5.36021
11
16.584
21
-5.36374
0
LINE
8
BLACK
6
CONTINUOUS
10
16.584
20
-5.36374
11
16.584
21
-5.36375
0
LINE
8
BLACK
6
CONTINUOUS
10
16.584
20
-5.36375
11
16.5575
21
-5.3902
0
LINE
8
BLACK
6
CONTINUOUS
10
16.5575
20
-5.3902
11
16.554
21
-5.39167
0
LINE
8
BLACK
6
CONTINUOUS
10
16.554
20
-5.39167
11
16.5504
21
-5.3902
0
LINE
8
BLACK
6
CONTINUOUS
10
16.5504
20
-5.3902
11
16.524
21
-5.36374
0
LINE
8
BLACK
6
CONTINUOUS
10
16.524
20
-5.36374
11
16.5225
21
-5.36021
0
LINE
8
BLACK
6
CONTINUOUS
10
16.5225
20
-5.36021
11
16.524
21
-5.35667
0
LINE
8
BLACK
6
CONTINUOUS
10
16.524
20
-5.35667
11
16.524
21
-5.35667
0
LINE
8
BLACK
6
CONTINUOUS
10
16.524
20
-5.35667
11
16.5504
21
-5.33021
0
LINE
8
BLACK
6
CONTINUOUS
10
16.5504
20
-5.33021
11
16.5504
21
-5.33021
0
LINE
8
BLACK
6
CONTINUOUS
10
16.5504
20
-5.33021
11
16.5504
21
-5.33021
0
LINE
8
BLACK
6
CONTINUOUS
10
16.5504
20
-5.33021
11
16.554
21
-5.32875
0
LINE
8
BLACK
6
CONTINUOUS
10
16.554
20
-5.32875
11
16.5575
21
-5.33021
0
LINE
8
BLACK
6
CONTINUOUS
10
15.2989
20
-9.29585
11
15.3003
21
-9.29667
0
LINE
8
BLACK
6
CONTINUOUS
10
15.3003
20
-9.29667
11
15.3018
21
-9.29729
0
LINE
8
BLACK
6
CONTINUOUS
10
15.3018
20
-9.29729
11
15.3459
21
-9.3419
0
LINE
8
BLACK
6
CONTINUOUS
10
15.3459
20
-9.3419
11
15.3462
21
-9.3427
0
LINE
8
BLACK
6
CONTINUOUS
10
15.3462
20
-9.3427
11
15.3469
21
-9.34328
0
LINE
8
BLACK
6
CONTINUOUS
10
15.3469
20
-9.34328
11
15.3889
21
-9.43208
0
LINE
8
BLACK
6
CONTINUOUS
10
15.3889
20
-9.43208
11
15.389
21
-9.43333
0
LINE
8
BLACK
6
CONTINUOUS
10
15.389
20
-9.43333
11
15.3894
21
-9.43452
0
LINE
8
BLACK
6
CONTINUOUS
10
15.3894
20
-9.43452
11
15.3871
21
-9.47278
0
LINE
8
BLACK
6
CONTINUOUS
10
15.3871
20
-9.47278
11
15.4041
21
-9.5044
0
LINE
8
BLACK
6
CONTINUOUS
10
15.4041
20
-9.5044
11
15.4372
21
-9.50922
0
LINE
8
BLACK
6
CONTINUOUS
10
15.4372
20
-9.50922
11
15.4376
21
-9.50946
0
LINE
8
BLACK
6
CONTINUOUS
10
15.4376
20
-9.50946
11
15.4381
21
-9.50943
0
LINE
8
BLACK
6
CONTINUOUS
10
15.4381
20
-9.50943
11
15.5295
21
-9.54048
0
LINE
8
BLACK
6
CONTINUOUS
10
15.5295
20
-9.54048
11
15.5304
21
-9.54128
0
LINE
8
BLACK
6
CONTINUOUS
10
15.5304
20
-9.54128
11
15.5315
21
-9.54178
0
LINE
8
BLACK
6
CONTINUOUS
10
15.5315
20
-9.54178
11
15.5522
21
-9.56365
0
LINE
8
BLACK
6
CONTINUOUS
10
15.5522
20
-9.56365
11
15.5526
21
-9.56485
0
LINE
8
BLACK
6
CONTINUOUS
10
15.5526
20
-9.56485
11
15.5534
21
-9.56589
0
LINE
8
BLACK
6
CONTINUOUS
10
15.5534
20
-9.56589
11
15.5533
21
-9.56658
0
LINE
8
BLACK
6
CONTINUOUS
10
15.5533
20
-9.56658
11
15.5535
21
-9.56723
0
LINE
8
BLACK
6
CONTINUOUS
10
15.5535
20
-9.56723
11
15.553
21
-9.56841
0
LINE
8
BLACK
6
CONTINUOUS
10
15.553
20
-9.56841
11
15.5528
21
-9.56968
0
LINE
8
BLACK
6
CONTINUOUS
10
15.5528
20
-9.56968
11
15.5308
21
-9.60598
0
LINE
8
BLACK
6
CONTINUOUS
10
15.5308
20
-9.60598
11
15.5306
21
-9.60612
0
LINE
8
BLACK
6
CONTINUOUS
10
15.5306
20
-9.60612
11
15.5306
21
-9.60635
0
LINE
8
BLACK
6
CONTINUOUS
10
15.5306
20
-9.60635
11
15.5291
21
-9.60723
0
LINE
8
BLACK
6
CONTINUOUS
10
15.5291
20
-9.60723
11
15.5277
21
-9.60825
0
LINE
8
BLACK
6
CONTINUOUS
10
15.5277
20
-9.60825
11
15.5275
21
-9.60821
0
LINE
8
BLACK
6
CONTINUOUS
10
15.5275
20
-9.60821
11
15.5273
21
-9.60833
0
LINE
8
BLACK
6
CONTINUOUS
10
15.5273
20
-9.60833
11
15.4204
21
-9.62466
0
LINE
8
BLACK
6
CONTINUOUS
10
15.4204
20
-9.62466
11
15.4201
21
-9.62457
0
LINE
8
BLACK
6
CONTINUOUS
10
15.4201
20
-9.62457
11
15.4198
21
-9.62472
0
LINE
8
BLACK
6
CONTINUOUS
10
15.4198
20
-9.62472
11
15.3987
21
-9.625
0
LINE
8
BLACK
6
CONTINUOUS
10
15.3987
20
-9.625
11
15.3984
21
-9.62488
0
LINE
8
BLACK
6
CONTINUOUS
10
15.3984
20
-9.62488
11
15.3981
21
-9.62497
0
LINE
8
BLACK
6
CONTINUOUS
10
15.3981
20
-9.62497
11
15.2679
21
-9.61107
0
LINE
8
BLACK
6
CONTINUOUS
10
15.2679
20
-9.61107
11
15.2665
21
-9.61033
0
LINE
8
BLACK
6
CONTINUOUS
10
15.2665
20
-9.61033
11
15.265
21
-9.60981
0
LINE
8
BLACK
6
CONTINUOUS
10
15.265
20
-9.60981
11
15.2008
21
-9.55177
0
LINE
8
BLACK
6
CONTINUOUS
10
15.2008
20
-9.55177
11
15.2002
21
-9.55062
0
LINE
8
BLACK
6
CONTINUOUS
10
15.2002
20
-9.55062
11
15.1994
21
-9.54967
0
LINE
8
BLACK
6
CONTINUOUS
10
15.1994
20
-9.54967
11
15.1761
21
-9.48111
0
LINE
8
BLACK
6
CONTINUOUS
10
15.1761
20
-9.48111
11
15.1761
21
-9.48035
0
LINE
8
BLACK
6
CONTINUOUS
10
15.1761
20
-9.48035
11
15.1758
21
-9.47965
0
LINE
8
BLACK
6
CONTINUOUS
10
15.1758
20
-9.47965
11
15.172
21
-9.35616
0
LINE
8
BLACK
6
CONTINUOUS
10
15.172
20
-9.35616
11
15.1725
21
-9.35467
0
LINE
8
BLACK
6
CONTINUOUS
10
15.1725
20
-9.35467
11
15.1729
21
-9.35312
0
LINE
8
BLACK
6
CONTINUOUS
10
15.1729
20
-9.35312
11
15.2196
21
-9.28727
0
LINE
8
BLACK
6
CONTINUOUS
10
15.2196
20
-9.28727
11
15.2203
21
-9.28685
0
LINE
8
BLACK
6
CONTINUOUS
10
15.2203
20
-9.28685
11
15.2207
21
-9.28616
0
LINE
8
BLACK
6
CONTINUOUS
10
15.2207
20
-9.28616
11
15.2218
21
-9.28586
0
LINE
8
BLACK
6
CONTINUOUS
10
15.2218
20
-9.28586
11
15.2229
21
-9.28523
0
LINE
8
BLACK
6
CONTINUOUS
10
15.2229
20
-9.28523
11
15.2236
21
-9.28541
0
LINE
8
BLACK
6
CONTINUOUS
10
15.2236
20
-9.28541
11
15.2244
21
-9.28521
0
LINE
8
BLACK
6
CONTINUOUS
10
15.2244
20
-9.28521
11
15.2989
21
-9.29585
0
LINE
8
BLACK
6
CONTINUOUS
10
16.696
20
-7.86369
11
16.7136
21
-7.9119
0
LINE
8
BLACK
6
CONTINUOUS
10
16.7136
20
-7.9119
11
16.7136
21
-8.48333
0
LINE
8
BLACK
6
CONTINUOUS
10
16.7136
20
-8.48333
11
16.711
21
-8.49808
0
LINE
8
BLACK
6
CONTINUOUS
10
16.711
20
-8.49808
11
16.7113
21
-8.50152
0
LINE
8
BLACK
6
CONTINUOUS
10
16.7113
20
-8.50152
11
16.6828
21
-8.61581
0
LINE
8
BLACK
6
CONTINUOUS
10
16.6828
20
-8.61581
11
16.6722
21
-8.6396
0
LINE
8
BLACK
6
CONTINUOUS
10
16.6722
20
-8.6396
11
16.6706
21
-8.64075
0
LINE
8
BLACK
6
CONTINUOUS
10
16.6706
20
-8.64075
11
16.67
21
-8.64262
0
LINE
8
BLACK
6
CONTINUOUS
10
16.67
20
-8.64262
11
16.6129
21
-8.71881
0
LINE
8
BLACK
6
CONTINUOUS
10
16.6129
20
-8.71881
11
16.5938
21
-8.73662
0
LINE
8
BLACK
6
CONTINUOUS
10
16.5938
20
-8.73662
11
16.5878
21
-8.73803
0
LINE
8
BLACK
6
CONTINUOUS
10
16.5878
20
-8.73803
11
16.5833
21
-8.74235
0
LINE
8
BLACK
6
CONTINUOUS
10
16.5833
20
-8.74235
11
16.4976
21
-8.78044
0
LINE
8
BLACK
6
CONTINUOUS
10
16.4976
20
-8.78044
11
16.4723
21
-8.78672
0
LINE
8
BLACK
6
CONTINUOUS
10
16.4723
20
-8.78672
11
16.4697
21
-8.78597
0
LINE
8
BLACK
6
CONTINUOUS
10
16.4697
20
-8.78597
11
16.4671
21
-8.7869
0
LINE
8
BLACK
6
CONTINUOUS
10
16.4671
20
-8.7869
11
16.41
21
-8.7869
0
LINE
8
BLACK
6
CONTINUOUS
10
16.41
20
-8.7869
11
16.3843
21
-8.78238
0
LINE
8
BLACK
6
CONTINUOUS
10
16.3843
20
-8.78238
11
16.345
21
-8.7494
0
LINE
8
BLACK
6
CONTINUOUS
10
16.345
20
-8.7494
11
16.3361
21
-8.69888
0
LINE
8
BLACK
6
CONTINUOUS
10
16.3361
20
-8.69888
11
16.3618
21
-8.65445
0
LINE
8
BLACK
6
CONTINUOUS
10
16.3618
20
-8.65445
11
16.41
21
-8.6369
0
LINE
8
BLACK
6
CONTINUOUS
10
16.41
20
-8.6369
11
16.4512
21
-8.6369
0
LINE
8
BLACK
6
CONTINUOUS
10
16.4512
20
-8.6369
11
16.5046
21
-8.6132
0
LINE
8
BLACK
6
CONTINUOUS
10
16.5046
20
-8.6132
11
16.5409
21
-8.56474
0
LINE
8
BLACK
6
CONTINUOUS
10
16.5409
20
-8.56474
11
16.5636
21
-8.4741
0
LINE
8
BLACK
6
CONTINUOUS
10
16.5636
20
-8.4741
11
16.5636
21
-7.9119
0
LINE
8
BLACK
6
CONTINUOUS
10
16.5636
20
-7.9119
11
16.5681
21
-7.88625
0
LINE
8
BLACK
6
CONTINUOUS
10
16.5681
20
-7.88625
11
16.6011
21
-7.84695
0
LINE
8
BLACK
6
CONTINUOUS
10
16.6011
20
-7.84695
11
16.6516
21
-7.83804
0
LINE
8
BLACK
6
CONTINUOUS
10
16.6516
20
-7.83804
11
16.696
21
-7.86369
0
LINE
8
BLACK
6
CONTINUOUS
10
15.7819
20
-7.84026
11
15.7945
21
-7.83804
0
LINE
8
BLACK
6
CONTINUOUS
10
15.7945
20
-7.83804
11
15.8063
21
-7.84488
0
LINE
8
BLACK
6
CONTINUOUS
10
15.8063
20
-7.84488
11
15.8197
21
-7.84742
0
LINE
8
BLACK
6
CONTINUOUS
10
15.8197
20
-7.84742
11
15.8278
21
-7.85731
0
LINE
8
BLACK
6
CONTINUOUS
10
15.8278
20
-7.85731
11
15.8389
21
-7.86369
0
LINE
8
BLACK
6
CONTINUOUS
10
15.8389
20
-7.86369
11
15.8436
21
-7.87654
0
LINE
8
BLACK
6
CONTINUOUS
10
15.8436
20
-7.87654
11
15.8522
21
-7.88713
0
LINE
8
BLACK
6
CONTINUOUS
10
15.8522
20
-7.88713
11
15.9814
21
-8.2563
0
LINE
8
BLACK
6
CONTINUOUS
10
15.9814
20
-8.2563
11
16.1106
21
-7.88713
0
LINE
8
BLACK
6
CONTINUOUS
10
16.1106
20
-7.88713
11
16.1109
21
-7.88672
0
LINE
8
BLACK
6
CONTINUOUS
10
16.1109
20
-7.88672
11
16.111
21
-7.88625
0
LINE
8
BLACK
6
CONTINUOUS
10
16.111
20
-7.88625
11
16.1115
21
-7.88561
0
LINE
8
BLACK
6
CONTINUOUS
10
16.1115
20
-7.88561
11
16.1234
21
-7.86441
0
LINE
8
BLACK
6
CONTINUOUS
10
16.1234
20
-7.86441
11
16.1351
21
-7.85743
0
LINE
8
BLACK
6
CONTINUOUS
10
16.1351
20
-7.85743
11
16.1439
21
-7.84695
0
LINE
8
BLACK
6
CONTINUOUS
10
16.1439
20
-7.84695
11
16.1565
21
-7.84473
0
LINE
8
BLACK
6
CONTINUOUS
10
16.1565
20
-7.84473
11
16.1675
21
-7.83821
0
LINE
8
BLACK
6
CONTINUOUS
10
16.1675
20
-7.83821
11
16.181
21
-7.84042
0
LINE
8
BLACK
6
CONTINUOUS
10
16.181
20
-7.84042
11
16.1945
21
-7.83804
0
LINE
8
BLACK
6
CONTINUOUS
10
16.1945
20
-7.83804
11
16.2055
21
-7.84443
0
LINE
8
BLACK
6
CONTINUOUS
10
16.2055
20
-7.84443
11
16.2181
21
-7.84649
0
LINE
8
BLACK
6
CONTINUOUS
10
16.2181
20
-7.84649
11
16.227
21
-7.85686
0
LINE
8
BLACK
6
CONTINUOUS
10
16.227
20
-7.85686
11
16.2389
21
-7.86369
0
LINE
8
BLACK
6
CONTINUOUS
10
16.2389
20
-7.86369
11
16.2432
21
-7.8757
0
LINE
8
BLACK
6
CONTINUOUS
10
16.2432
20
-7.8757
11
16.2516
21
-7.88538
0
LINE
8
BLACK
6
CONTINUOUS
10
16.2516
20
-7.88538
11
16.2518
21
-7.89905
0
LINE
8
BLACK
6
CONTINUOUS
10
16.2518
20
-7.89905
11
16.2564
21
-7.9119
0
LINE
8
BLACK
6
CONTINUOUS
10
16.2564
20
-7.9119
11
16.2564
21
-8.7119
0
LINE
8
BLACK
6
CONTINUOUS
10
16.2564
20
-8.7119
11
16.2519
21
-8.73756
0
LINE
8
BLACK
6
CONTINUOUS
10
16.2519
20
-8.73756
11
16.2189
21
-8.77686
0
LINE
8
BLACK
6
CONTINUOUS
10
16.2189
20
-8.77686
11
16.1684
21
-8.78576
0
LINE
8
BLACK
6
CONTINUOUS
10
16.1684
20
-8.78576
11
16.124
21
-8.76011
0
LINE
8
BLACK
6
CONTINUOUS
10
16.124
20
-8.76011
11
16.1064
21
-8.7119
0
LINE
8
BLACK
6
CONTINUOUS
10
16.1064
20
-8.7119
11
16.1064
21
-8.35322
0
LINE
8
BLACK
6
CONTINUOUS
10
16.1064
20
-8.35322
11
16.0522
21
-8.50811
0
LINE
8
BLACK
6
CONTINUOUS
10
16.0522
20
-8.50811
11
16.0395
21
-8.53083
0
LINE
8
BLACK
6
CONTINUOUS
10
16.0395
20
-8.53083
11
16.0386
21
-8.53133
0
LINE
8
BLACK
6
CONTINUOUS
10
16.0386
20
-8.53133
11
16.0383
21
-8.53225
0
LINE
8
BLACK
6
CONTINUOUS
10
16.0383
20
-8.53225
11
16.0167
21
-8.54437
0
LINE
8
BLACK
6
CONTINUOUS
10
16.0167
20
-8.54437
11
15.9954
21
-8.55703
0
LINE
8
BLACK
6
CONTINUOUS
10
15.9954
20
-8.55703
11
15.9944
21
-8.55687
0
LINE
8
BLACK
6
CONTINUOUS
10
15.9944
20
-8.55687
11
15.9935
21
-8.55735
0
LINE
8
BLACK
6
CONTINUOUS
10
15.9935
20
-8.55735
11
15.9692
21
-8.55275
0
LINE
8
BLACK
6
CONTINUOUS
10
15.9692
20
-8.55275
11
15.9447
21
-8.54875
0
LINE
8
BLACK
6
CONTINUOUS
10
15.9447
20
-8.54875
11
15.9441
21
-8.548
0
LINE
8
BLACK
6
CONTINUOUS
10
15.9441
20
-8.548
11
15.9431
21
-8.54781
0
LINE
8
BLACK
6
CONTINUOUS
10
15.9431
20
-8.54781
11
15.9274
21
-8.52865
0
LINE
8
BLACK
6
CONTINUOUS
10
15.9274
20
-8.52865
11
15.9113
21
-8.50986
0
LINE
8
BLACK
6
CONTINUOUS
10
15.9113
20
-8.50986
11
15.9113
21
-8.50887
0
LINE
8
BLACK
6
CONTINUOUS
10
15.9113
20
-8.50887
11
15.9106
21
-8.50811
0
LINE
8
BLACK
6
CONTINUOUS
10
15.9106
20
-8.50811
11
15.8564
21
-8.35322
0
LINE
8
BLACK
6
CONTINUOUS
10
15.8564
20
-8.35322
11
15.8564
21
-8.7119
0
LINE
8
BLACK
6
CONTINUOUS
10
15.8564
20
-8.7119
11
15.8519
21
-8.73756
0
LINE
8
BLACK
6
CONTINUOUS
10
15.8519
20
-8.73756
11
15.8189
21
-8.77686
0
LINE
8
BLACK
6
CONTINUOUS
10
15.8189
20
-8.77686
11
15.7684
21
-8.78576
0
LINE
8
BLACK
6
CONTINUOUS
10
15.7684
20
-8.78576
11
15.724
21
-8.76011
0
LINE
8
BLACK
6
CONTINUOUS
10
15.724
20
-8.76011
11
15.7064
21
-8.7119
0
LINE
8
BLACK
6
CONTINUOUS
10
15.7064
20
-8.7119
11
15.7064
21
-7.9119
0
LINE
8
BLACK
6
CONTINUOUS
10
15.7064
20
-7.9119
11
15.7065
21
-7.91144
0
LINE
8
BLACK
6
CONTINUOUS
10
15.7065
20
-7.91144
11
15.7064
21
-7.91097
0
LINE
8
BLACK
6
CONTINUOUS
10
15.7064
20
-7.91097
11
15.7067
21
-7.91019
0
LINE
8
BLACK
6
CONTINUOUS
10
15.7067
20
-7.91019
11
15.711
21
-7.88625
0
LINE
8
BLACK
6
CONTINUOUS
10
15.711
20
-7.88625
11
15.7197
21
-7.87578
0
LINE
8
BLACK
6
CONTINUOUS
10
15.7197
20
-7.87578
11
15.7246
21
-7.86299
0
LINE
8
BLACK
6
CONTINUOUS
10
15.7246
20
-7.86299
11
15.7357
21
-7.85674
0
LINE
8
BLACK
6
CONTINUOUS
10
15.7357
20
-7.85674
11
15.7439
21
-7.84695
0
LINE
8
BLACK
6
CONTINUOUS
10
15.7439
20
-7.84695
11
15.7574
21
-7.84458
0
LINE
8
BLACK
6
CONTINUOUS
10
15.7574
20
-7.84458
11
15.7693
21
-7.83789
0
LINE
8
BLACK
6
CONTINUOUS
10
15.7693
20
-7.83789
11
15.7819
21
-7.84026
  0
ENDSEC
  0
EOF
